<svg xmlns="http://www.w3.org/2000/svg" viewBox="0 0 79.09 93.13"><defs><style>.cls-1{fill:#416729;}</style></defs><g id="Capa_2" data-name="Capa 2"><g id="OBJECTS"><path class="cls-1" d="M15.73,63.61S13.91,56.27,9,57.05s-7.29-.53-7.29-.53S.13,69.21,15.73,63.61Z"/><path class="cls-1" d="M8.36,53.38s1.57-5.79-2.14-7.16S1.38,43,1.38,43-4.6,51.22,8.36,53.38Z"/><path class="cls-1" d="M63.36,63.61s1.83-7.34,6.76-6.56,7.29-.53,7.29-.53S79,69.21,63.36,63.61Z"/><path class="cls-1" d="M70.74,53.38s-1.58-5.79,2.14-7.16S77.71,43,77.71,43,83.7,51.22,70.74,53.38Z"/><path class="cls-1" d="M56.79,48.21s-2.73,3.11-10.26,4.54c-4.25.81-5.73,4.84-6.21,8.2V51.84c25.25-.07,16.47-17.52,16.47-17.52s-2.73,3.11-10.26,4.54c-4.25.81-5.73,4.84-6.21,8.2v-7.3c10.43-.54,11-14.88,7.4-17.65s-8.44-11.55-8.44-11.55-4.68,8.69-8.44,11.55-3,17.11,7.4,17.65v7.15c-.5-3.33-2-7.26-6.19-8-7.53-1.43-10.26-4.54-10.26-4.54S13,51.76,38.24,51.84v9c-.5-3.33-2-7.26-6.19-8.06-7.53-1.43-10.26-4.54-10.26-4.54S13,65.65,38.24,65.73v9c-.5-3.33-2-7.26-6.19-8-7.53-1.43-10.26-4.55-10.26-4.55S13,79.54,38.24,79.62V92.09a1,1,0,1,0,2.08,0V79.63C65.57,79.55,56.79,62.1,56.79,62.1s-2.73,3.12-10.26,4.55c-4.25.8-5.73,4.83-6.21,8.19V65.73C65.57,65.66,56.79,48.21,56.79,48.21Z"/><circle class="cls-1" cx="11" cy="19.17" r="2.32"/><circle class="cls-1" cx="65.68" cy="19.17" r="2.32"/><circle class="cls-1" cx="39.56" cy="2.32" r="2.32"/></g></g></svg>