<svg xmlns="http://www.w3.org/2000/svg" viewBox="0 0 81.09 96.25"><defs><style>.cls-1{fill:#416729;}.cls-2{fill:none;}</style></defs><g id="Capa_2" data-name="Capa 2"><g id="OBJECTS"><path class="cls-1" d="M13.22,70.24S4.29,59.67,14.3,50.51l.5,1.06a11.67,11.67,0,0,1,2.78-4.39l.13,1.28s2.26-3,4.35-3.82l-.41,1.52,5.4-3.7L26.65,44l4.91-2.43-.19.73,5.51-1.5-1.09,4.14,1.28-.44a26.6,26.6,0,0,1-.72,5.08l1-.37a51.56,51.56,0,0,1-1.87,5l1.85-1.14s-1.64,5.08-2.64,6.21l1.68-.8s-1,3.61-2.95,5c0,0-3.07,10.55-17.55,8.36,0,0-2.7,5.48-2.69,7.5,0,0-1.26.37-1.21-.71s9.48-24.81,18.88-31.34C30.81,47.33,24.82,49.17,13.22,70.24Z"/><path class="cls-1" d="M50.58,44.6s12.76-5.36,18.5,6.94l-1.16.15a11.61,11.61,0,0,1,3.35,4L70,55.41s2.16,3,2.35,5.29L71,59.86,73,66.12l-1.34-.84.85,5.41-.63-.4L71.6,76,68,73.72l0,1.35a27.15,27.15,0,0,1-4.64-2.2l.07,1a51.59,51.59,0,0,1-4.23-3.28l.53,2.11s-4.35-3.09-5.13-4.38l.26,1.85S51.74,68.11,51,65.84c0,0-9.14-6.08-2.72-19.24,0,0-4.41-4.22-6.35-4.81,0,0,0-1.31,1-.94s20.84,16.47,24.25,27.4C67.17,68.25,67.21,62,50.58,44.6Z"/><path class="cls-1" d="M55.41,86.63s-4.82,13-17.72,8.76l.68-1a11.62,11.62,0,0,1-5.19-.27l1-.74s-3.7-.5-5.47-1.9l1.53-.4-5.88-2.88,1.52-.4L21.4,84.78l.73-.2-4-4.06,4.14-1.09-1-.9A26.22,26.22,0,0,1,26,76.66L25.23,76a52.32,52.32,0,0,1,5.28-.84l-1.9-1.06s5.23-1.06,6.71-.75l-1.53-1.07s3.65-.88,5.85.09c0,0,10.68-2.52,15.91,11.16,0,0,6.09-.34,7.85-1.34,0,0,.94.92,0,1.4s-26.27,4-36.58-1C26.8,82.58,31.35,86.9,55.41,86.63Z"/><path class="cls-2" d="M54.48,91l-.29.49H69.47a6.8,6.8,0,0,0,5.78-10.37l-2.67-4.31-1.49,2.09S58.84,83.24,54.48,91Z"/><path class="cls-2" d="M5.69,88a6.7,6.7,0,0,0,5.93,3.48h14.6L22.06,88.6l-5.6-4.75s-2.15-10.06-3.9-11.36a3.9,3.9,0,0,1-.84-.93L5.84,81.07A6.73,6.73,0,0,0,5.69,88Z"/><path class="cls-2" d="M40.54,31.05a6.76,6.76,0,0,0-5.78,3.23l-3.2,5.17,1-.37-.1,2.05,5.6-.85s7.61,5.4,10.81,3.1a6.92,6.92,0,0,1,2.45-1l-5-8.1A6.76,6.76,0,0,0,40.54,31.05Z"/><path class="cls-1" d="M31.87,93.85a8.4,8.4,0,0,1-5.65-2.41H11.62A6.8,6.8,0,0,1,5.84,81.07l5.88-9.51a26.57,26.57,0,0,1-2.43-5.21L1.76,78.55a11.43,11.43,0,0,0-.27,11.74,11.47,11.47,0,0,0,10.13,6H34.45a26.18,26.18,0,0,1-3.73-1.65Z"/><path class="cls-1" d="M28,40.78l3.54-1.33,3.2-5.17a6.8,6.8,0,0,1,11.57,0l5,8.1a22.79,22.79,0,0,1,5.4-.4L50.41,31.75a11.6,11.6,0,0,0-19.73,0l-5.52,8.92,3.26-1.14Z"/><path class="cls-1" d="M79.33,78.55l-6-9.75a29.73,29.73,0,0,1,0,3.64L73,71.92l-.37,4.84h0l2.67,4.31a6.8,6.8,0,0,1-5.78,10.37H54.19a11.74,11.74,0,0,1-5.13,4.81H69.47a11.6,11.6,0,0,0,9.86-17.7Z"/><path class="cls-1" d="M40.18,21.38a.47.47,0,0,1-.47-.48V.48a.48.48,0,1,1,.95,0V20.9A.47.47,0,0,1,40.18,21.38Z"/><path class="cls-1" d="M32.3,23.6a.49.49,0,0,1-.39-.2L19.84,6.93a.48.48,0,1,1,.77-.56L32.69,22.84a.48.48,0,0,1-.11.67A.47.47,0,0,1,32.3,23.6Z"/><path class="cls-1" d="M48.48,23.6a.49.49,0,0,1-.28-.09.48.48,0,0,1-.1-.67L60.18,6.37a.47.47,0,0,1,.66-.11.48.48,0,0,1,.11.67L48.87,23.4A.47.47,0,0,1,48.48,23.6Z"/></g></g></svg>