<svg xmlns="http://www.w3.org/2000/svg" viewBox="0 0 74.16 82.62"><defs><style>.cls-1{fill:#416729;}</style></defs><g id="Capa_2" data-name="Capa 2"><g id="OBJECTS"><path class="cls-1" d="M71.29,31.1a1,1,0,0,0-1.2-.73C56.42,33.09,45.67,40.68,40.53,53a23.92,23.92,0,0,0,.63,19.49,1,1,0,0,0,1.94-.18c.27-1,.56-2,.88-3l-.1.29c.26-.51-.94-12.07.71-16.42,0,0,.28,8.61.44,13.08l-.07.2a74.71,74.71,0,0,1,7.83-15.13h0s1.48-9.95,3.66-12.72c0,0-2.68,9.08-2.13,10.36,0,0,0,.07,0,.1A87.85,87.85,0,0,1,68.76,33.2a100.26,100.26,0,0,0-9,11.24A1,1,0,0,0,61,46a89.58,89.58,0,0,0,9.61-5.26C68.91,44,59,48.07,57.05,48.84a1.07,1.07,0,0,0-.5.42,112.13,112.13,0,0,0-6,11,1,1,0,0,0,1.33,1.4c4.5-1.85,11.91-5.45,11.91-5.45-3.39,3.46-12.53,7-14.58,7.73a1,1,0,0,0-.59.56c-1.77,4.13-2.91,7.45-3.55,9.48a1,1,0,0,0,1.32,1.29C79.51,64.85,72.89,36.51,71.29,31.1Z"/><path class="cls-1" d="M6.05,49.69a1.05,1.05,0,0,1,1.22-.76C14.43,50.47,20,54.53,22.75,61A12.62,12.62,0,0,1,23,70.16a1,1,0,0,1-2,0c0-.1-.07-.21-.1-.31L21,70c-.14-.27.51-6.5-.38-8.85,0,0-.15,4.64-.24,7.05l0,.11a40.29,40.29,0,0,0-4.22-8.15h0s-.8-5.35-2-6.85c0,0,1.44,4.89,1.14,5.58a.13.13,0,0,1,0,.06,46.87,46.87,0,0,0-7.76-8.55,54.92,54.92,0,0,1,3.72,4.46A1,1,0,0,1,10,56.38c-2-1-3.42-2-3.42-2,.89,1.69,5.87,3.79,7.17,4.32a1.1,1.1,0,0,1,.5.43c1,1.59,1.83,3.14,2.57,4.59a1,1,0,0,1-1.35,1.41c-2.35-1-5.21-2.42-5.21-2.42,1.73,1.77,6.27,3.57,7.66,4.09a1,1,0,0,1,.59.57c.68,1.6,1.19,3,1.53,4a1,1,0,0,1-1.33,1.32C2.62,67.14,5.07,53.4,6.05,49.69Z"/><path class="cls-1" d="M56.19,32.28c1.76-4.18,3.42-8.12,3.25-10.8,0-.79-.32-1.25-.81-1.36-1.21-.24-2.66,2-6.69,9.35-.94,1.71-1.84,3.36-2.53,4.47.19-1.7.69-4.64,1.15-7.33C52.25,16.72,53.44,9,52.1,7A1,1,0,0,0,51,6.44c-1.65.28-3.23,5.36-6.34,17.4-.51,2-1.06,4.07-1.51,5.64.06-1.76.21-4.2.35-6.6C44.37,8.18,44.45,1,42.63.11a1,1,0,0,0-1,0c-.92.51-1.8,3.44-2.58,7.34a1,1,0,0,1-2-.12,10,10,0,0,0-.86-3.92A1,1,0,0,0,35,2.93c-1.49.4-2.46,5.19-4,19.72-.12,1.18-.23,2.2-.32,3A76.49,76.49,0,0,1,28.48,36a1,1,0,0,1-1.93.19,37.89,37.89,0,0,0-4.42-6.86c-1.53-1.74-3.66-2.13-4.69-1.39A1.48,1.48,0,0,0,17.16,30c2.35,4.06,4,10.27,4.69,18,.83,9,2.09,11.13,3.55,13.65.38.66.77,1.34,1.17,2.18,1.78,3.74-1.71,14.4-1.74,14.51a.6.6,0,0,0,.38.76.63.63,0,0,0,.19,0,.61.61,0,0,0,.57-.41c.15-.46,3.67-11.24,1.68-15.41-.42-.88-.82-1.59-1.22-2.27-1.38-2.39-2.58-4.46-3.39-13.16C22.31,40,20.63,33.61,18.2,29.41c-.23-.39-.1-.48-.06-.51.42-.31,1.9-.16,3.09,1.2,1.93,2.21,7.47,10.71,7.29,17.13a.59.59,0,0,0,.58.61.62.62,0,0,0,.62-.58,18.67,18.67,0,0,0-1.18-6.51,1,1,0,0,1,0-.63A95.57,95.57,0,0,0,31.9,25.78c.09-.79.2-1.82.32-3,.32-3,1-9.17,1.71-13.6A1,1,0,0,1,36,9.28c.33,5.9.2,15.5,0,22.12a.6.6,0,0,0,1.19.08C38.08,21.3,39.5,10.61,40.8,5a1,1,0,0,1,2.05.21c.2,4.88-.27,12.94-.54,17.56,0,.36,0,.71-.06,1-.58,9.95,1,10.2,3.51.56l.07-.27c.92-3.54,2.34-9,3.58-12.71a1,1,0,0,1,2,.39c-.25,4.06-1.28,10.09-2,14.59-1.43,8.35-1.51,9.35-.75,9.7a.76.76,0,0,0,.95-.3A50,50,0,0,0,53,30.05c.61-1.11,1.36-2.48,2.12-3.81L57,27.1c-.56,1.52-1.24,3.13-1.91,4.72-.39.93-.78,1.87-1.16,2.8l1.52-1a1,1,0,0,0,.39-.46Z"/><path class="cls-1" d="M40.52,82.08a.6.6,0,0,0,.6.54h.05a.6.6,0,0,0,.55-.65,17.82,17.82,0,0,1,.22-4.13,1.07,1.07,0,0,0-.34-.94L41,76.35A22.84,22.84,0,0,0,40.52,82.08Z"/><path class="cls-1" d="M49.54,79.7a.59.59,0,0,1-.59-.52.61.61,0,0,1,.51-.68c.17,0,16.89-2.33,23.57-15.1a.61.61,0,0,1,.81-.26.6.6,0,0,1,.25.81c-7,13.34-24.3,15.72-24.47,15.74Z"/><path class="cls-1" d="M12.46,73.91a.68.68,0,0,1-.23,0C-4,67.16.58,48.78.62,48.6a.61.61,0,0,1,.73-.43.6.6,0,0,1,.44.73c-.19.72-4.33,17.55,10.9,23.85a.6.6,0,0,1-.23,1.16Z"/></g></g></svg>