<svg xmlns="http://www.w3.org/2000/svg" viewBox="0 0 71.65 91.81"><defs><style>.cls-1{fill:#416729;}</style></defs><g id="Capa_2" data-name="Capa 2"><g id="OBJECTS"><path class="cls-1" d="M40.93,78.57a1.43,1.43,0,0,0,0-.68c-.72-2.57-1.2-5.24-2.78-7.47a3,3,0,0,1-.09-3.82,21.13,21.13,0,0,0,1.31-2.69c-2,0-3-1.33-4.18-2.48a2.5,2.5,0,0,0-1.11-.62c-1.39-.36-2.79-.66-4.19-1a1,1,0,0,1-.81-.66c-.45-1-.93-2-1.4-2.94l-.13,0v1.86a.87.87,0,0,1-1.14-.4c-1.31-1.81-2.65-3.59-4-5.4a1.89,1.89,0,0,1-.31-1c0-1.37,0-2.74,0-4.11a1.93,1.93,0,0,0-.27-.93c-.87-1.47-1.8-2.9-2.65-4.38a1.06,1.06,0,0,0-1.34-.6,36.18,36.18,0,0,1-6.82.88A5,5,0,0,1,7.91,41L10,39.25a10.77,10.77,0,0,0-1.83.34.86.86,0,0,0-.46.36,31.08,31.08,0,0,0-3.67,9.83c-.28,1.51-.43,3-.64,4.56v3.41c.17,1.27.27,2.55.51,3.81a32,32,0,0,0,16.8,23.07,30.52,30.52,0,0,0,12.71,3.65,4.74,4.74,0,0,1,.49.1h3.54l2.41-.3c0-.35-.06-.66-.08-1a11.75,11.75,0,0,1,.09-4.38C40.33,81.37,40.6,80,40.93,78.57Z"/><path class="cls-1" d="M50.58,37.56a2.46,2.46,0,0,1-.85-1.35,8.61,8.61,0,0,0-2.88-4.81c-1.21-1-2.56-.86-3.84-1.28a1.84,1.84,0,0,0,.58,2.11,21.26,21.26,0,0,1,2,2c.57.6,1.1,1.25,1.63,1.86a2.51,2.51,0,0,1-3.16.44,3.24,3.24,0,0,0-.82-.34,1,1,0,0,1-.91-1.4c0-.21,0-.6-.15-.66-.79-.38-1.6-.68-2.44-1-.23,1-.51,1.91-.64,2.85A1.18,1.18,0,0,1,38,37.11c-.52.06-1.29.07-1.48.38s-.06,1.11,0,1.68c0,.16.17.43.31.46,1,.23,2.09.41,3.18.62.21-1.15.41-2.24.62-3.41a12.1,12.1,0,0,1,3,.61,4.88,4.88,0,0,0,2.7.61.72.72,0,0,1,.86.53,11,11,0,0,0,3.09,4.33c.45.4.86.86,1.29,1.3.75.77.8,1.13.22,2.26-2-.78-3.74-.14-5.58.8a13,13,0,0,0-4.78,3.87c-.92,1.24-2.14,2.28-2.27,4a.46.46,0,0,1-.33.29,6.5,6.5,0,0,1-1.59-.23c-.62-.19-1.19-.54-1.79-.79a.76.76,0,0,0-.53,0c-.76.34-1.51.71-2.3,1.08.2.88.4,1.71.6,2.54l.12.15c.57-1.4,1.66-1.47,2.9-1.3,0,.77-.07,1.54-.12,2.36a3.17,3.17,0,0,1,2.5,1.46,1.2,1.2,0,0,0,1.7.48,4.24,4.24,0,0,1,1.89-.38c1.54.21,3.05.6,4.58.91.88.19,1.77.34,2.65.56a1.68,1.68,0,0,1,.94.49,16.4,16.4,0,0,0,5.84,4.81c.64.31,1.24.72,1.86,1.08.16.1.3.21.48.32-1.18,2.26-2.34,4.48-3.51,6.69a1.28,1.28,0,0,1-.52.42c-1,.47-2,.9-3,1.4a1.53,1.53,0,0,0-.63.7c-.4,1-.7,1.94-1.1,2.89a2.22,2.22,0,0,1-.7.9c-1.36,1-2.71,1.95-4.16,2.77-1.13.63-1.13,1.67-1.44,2.67a.61.61,0,0,0,.21,0l.24-.06a32,32,0,0,0,14.93-8.61A31.77,31.77,0,0,0,67.73,61.5c.24-1.36.33-2.75.49-4.13V54.46c0-.2-.08-.41-.09-.61a31.74,31.74,0,0,0-4.81-14.94c-.53-.87-.53-.87-1.51-.67a1.65,1.65,0,0,1-.31,0c-1.43.12-2.85.27-4.28.37a1,1,0,0,0-.95.59c-.35.62-.75,1.21-1.22,1.94a19.45,19.45,0,0,1-1.64-1.09C52.45,39.27,51.54,38.38,50.58,37.56Z"/><path class="cls-1" d="M35.94,20.61C41.68,7.12,50.63,7.22,50.63,7.22c-9.93,2.84-13.44,15-13.44,15C50.46,24.35,54.43,5.56,54.43,5.56S44.58,4,39,7.63,35.94,20.61,35.94,20.61Z"/><path class="cls-1" d="M20.51,19C25.29,23.38,34,21.38,34,21.38a7.72,7.72,0,0,1,1.33,2.2H33.8c-1.08.14-2.17.26-3.25.44a31.82,31.82,0,0,0-16,7.56c-1.27,1.11-2.42,2.37-3.62,3.56l.13.15.59-.16a31.79,31.79,0,0,1,6.89-1.53,9.1,9.1,0,0,0,4.8-1.53,1.26,1.26,0,0,1,1.19-.13,11,11,0,0,0,2.56.64,37.62,37.62,0,0,0,4.1-.19,1.12,1.12,0,0,0,.69-.42c.42-.58.76-1.22,1.18-1.8a.88.88,0,0,1,.64-.28,21.31,21.31,0,0,0,2.5.23c1.62-.07,3.24-.28,4.85-.46a1.24,1.24,0,0,0,.68-.35c.62-.56,1.2-1.17,1.81-1.75a3.7,3.7,0,0,1,3.87-.87,8.47,8.47,0,0,0,2,.12l0-.21a31.52,31.52,0,0,0-8-2.51c-1.18-.21-2.37-.34-3.55-.51H36.37C28.38,5.38,10.1,3,10.1,3,22.64,1.66,34.16,15.63,34.16,15.63c-.54-2.59,1.26-6.27,1.26-6.27C23.17-7.19,5.86,3.25,5.86,3.25,11.6,5.75,15.72,14.7,20.51,19Zm7,11a.64.64,0,0,1-.4-.12l-1.8-1.06,2.17-1.68a.17.17,0,0,1,.08,0,2.56,2.56,0,0,0,2.68.08c.39-.18.61-.07.79.31s.48.83.76,1.33C30.35,29.25,28.94,29.63,27.52,30Zm12.76-4.88a.57.57,0,0,1,.46,0c.6.33,1.2.68,1.88,1.08a18,18,0,0,1-3,2.22,6.51,6.51,0,0,1-2.9.35c-.46,0-.89-.48-1.47-.82L37,27a.61.61,0,0,0,.3-.17Z"/><path class="cls-1" d="M65.65,36.17a.83.83,0,0,0-1.53.45h0A34.29,34.29,0,1,1,1.53,56,31.81,31.81,0,0,1,7.11,37.25a.83.83,0,0,0-1.54-.44,35.83,35.83,0,1,0,60.08-.64Z"/></g></g></svg>