<svg id="Capa_1" data-name="Capa 1" xmlns="http://www.w3.org/2000/svg" xmlns:xlink="http://www.w3.org/1999/xlink" viewBox="0 0 841.89 595.28"><defs><style>.cls-1{fill:none;}.cls-2{clip-path:url(#clip-path);}.cls-3{clip-path:url(#clip-path-3);}</style><clipPath id="clip-path"><rect id="SVGID" class="cls-1" x="63.51" y="142.78" width="716.69" height="303.17"/></clipPath><clipPath id="clip-path-3"><path id="SVGID-3" data-name="SVGID" class="cls-1" d="M131.27,325.94l-11.52,31.19a42,42,0,0,0,53.91-24.83l11.52-31.19a41.93,41.93,0,0,0-53.91,24.83"/></clipPath></defs><g class="cls-2"><g class="cls-2"><path d="M203.37,301.75c-.07-.2-.39-1.2-1-3s-1.34-4.08-2.28-6.89-2-6-3.14-9.47-2.33-7.07-3.55-10.68-2.4-7.16-3.54-10.64l-3.09-9.32c-.91-2.73-1.66-4.94-2.23-6.63s-.86-2.57-.86-2.63-.09-.13-.12-.2l19.86,60a1.64,1.64,0,0,0-.09-.58"/><path d="M173.76,218.79q4.05-1.81,9.32-4.71t10.38-6.38a102.78,102.78,0,0,0,9.47-7.29,34.54,34.54,0,0,0,6.58-7.34,17.09,17.09,0,0,0,1.72-3.75,11.9,11.9,0,0,0,.66-4.1,7.86,7.86,0,0,0-1-3.7,6.1,6.1,0,0,0-3.09-2.63,7.77,7.77,0,0,0-3.9-.76,9.91,9.91,0,0,0-3.55,1,12.15,12.15,0,0,0-3.09,2.18,23.5,23.5,0,0,0-2.53,2.88q-.19.21-1.77,2.49c-1,1.51-2.33,3.39-3.85,5.62l-5,7.29q-2.69,3.94-5.12,7.55t-4.3,6.33q-1.87,2.73-2.48,3.64c-.41.68-.44,1.22-.1,1.62s.87.44,1.62.1"/><path d="M259,359.18a1.16,1.16,0,0,1,.25-1,2.07,2.07,0,0,1,1.09-.63,2,2,0,0,0-.83-.44,21,21,0,0,1-10.89-5.41,28.3,28.3,0,0,1-4.56-5.47,35.34,35.34,0,0,1-3.6-7.55q-.81-2.22-2.83-8.46t-4.91-14.83q-2.89-8.61-6.33-18.95l-6.94-20.76q-3.5-10.43-6.74-20.26T206.93,238q-2.58-7.65-4.15-12.41t-1.68-5.06a3,3,0,0,0-1.26-1.62c-.51-.27-1.34-.14-2.48.4a56.32,56.32,0,0,1-5.57,2.08q-3,1-6.13,1.77t-6,1.52q-2.94.71-5.17,1.11a3.49,3.49,0,0,0-1.92.81,4.73,4.73,0,0,0-1,1.73L170.6,231l3.74,11.32c0,.07.1.11.12.2s.29.94.87,2.63l2.23,6.63q1.37,4.11,3.08,9.32t3.55,10.64c1.22,3.61,2.39,7.17,3.54,10.68s2.2,6.67,3.14,9.48,1.71,5.09,2.28,6.88.9,2.79,1,3a1.47,1.47,0,0,1,.09.58l2.52,7.6a1.46,1.46,0,0,1,.33.53q.1.41.81,2.43c.47,1.35,1,3,1.62,4.91s1.3,4,2.08,6.28,1.5,4.46,2.18,6.59,1.3,4.07,1.87,5.82,1,3.07,1.37,3.95q1.62,4.86.3,8a12.22,12.22,0,0,1-3.69,5,15.49,15.49,0,0,1-5,2.68L195,357.26a2.43,2.43,0,0,0-1.37.81,1.2,1.2,0,0,0-.2,1.06,1.91,1.91,0,0,0,.61,1,1.68,1.68,0,0,0,1.16.41h63.61a2.19,2.19,0,0,0,1-.25,1.56,1.56,0,0,1-.28-.16,1.62,1.62,0,0,1-.56-.91"/><path d="M342.84,270.7a13.09,13.09,0,0,0-4.76-2.83,21.26,21.26,0,0,0-7.19-1.06,25.06,25.06,0,0,0-13.67,3.84,26.14,26.14,0,0,0-9.63,11.65V267.82c0-.95-.32-1.45-1-1.52a2.73,2.73,0,0,0-1.87.51,82.59,82.59,0,0,1-7.8,4.6q-4.36,2.28-9,4.26c-3.1,1.31-6.19,2.5-9.26,3.54a86.1,86.1,0,0,1-8.56,2.48q-1.53.42-1.47,1.47c0,.71.49,1.17,1.36,1.37.21.07.76.2,1.68.41s1.9.44,3,.71l2.89.7a10.71,10.71,0,0,0,1.47.31,1.5,1.5,0,0,1,1.22,1.62v57.13a12.65,12.65,0,0,1-1.37,6.38,10.86,10.86,0,0,1-3.14,3.54,11.32,11.32,0,0,1-3.49,1.67,21.14,21.14,0,0,1-2.54.56l-.07,0a2,2,0,0,0-1.09.63,1.13,1.13,0,0,0-.26,1,1.68,1.68,0,0,0,.56.91,1.35,1.35,0,0,0,.29.16,2,2,0,0,0,1,.25h47.6a1.86,1.86,0,0,0,1.27-.41,1.68,1.68,0,0,0,.56-.91,1.16,1.16,0,0,0-.26-1,2.1,2.1,0,0,0-1.16-.66,20.68,20.68,0,0,1-2.53-.56,11.26,11.26,0,0,1-3.5-1.67,10.86,10.86,0,0,1-3.14-3.54,12.65,12.65,0,0,1-1.37-6.38V310.36a78.16,78.16,0,0,1,1.12-14.69,34.45,34.45,0,0,1,2.78-8.91,10.61,10.61,0,0,1,3.65-4.41,7.42,7.42,0,0,1,3.7-1.16,4.24,4.24,0,0,1,3.24,1.42l2.88,3.08a19.61,19.61,0,0,0,3.8,3.1,11.54,11.54,0,0,0,6.18,1.41,12,12,0,0,0,8.26-2.73,9.65,9.65,0,0,0,3.09-7.6,15.17,15.17,0,0,0-.82-5,10.39,10.39,0,0,0-2.63-4.16"/><path d="M452.59,292.84A44.75,44.75,0,0,0,448,283a33.39,33.39,0,0,0-17.78-14.08,42.82,42.82,0,0,0-14.18-2.13,41,41,0,0,0-12.71,1.78,39.58,39.58,0,0,0-9.12,4.15,28.56,28.56,0,0,0-5.82,4.76c-1.42,1.59-2.43,2.75-3,3.5-.2.33-.44.47-.71.4a.91.91,0,0,1-.61-.51V210.69c0-.94-.32-1.45-1-1.52a2.8,2.8,0,0,0-1.87.51,82.56,82.56,0,0,1-7.8,4.61q-4.35,2.28-9,4.25t-9.27,3.55q-4.62,1.56-8.56,2.48c-1,.2-1.51.67-1.47,1.42s.49,1.21,1.37,1.41a10.24,10.24,0,0,1,1.67.36c.91.24,1.91.47,3,.71s2,.47,2.88.71a11.5,11.5,0,0,0,1.47.35,1.5,1.5,0,0,1,1.22,1.62v9.93q0,4.65-.05,10.94t-.05,13.67v98.45a1.59,1.59,0,0,0,.91,1.68,1.48,1.48,0,0,0,1.72-.56q1.32-1.51,3.49-3.65c1.46-1.42,2.92-2.84,4.41-4.25s2.89-2.72,4.21-3.9,2.34-2.08,3.08-2.69c.34-.33.63-.47.86-.4a2.44,2.44,0,0,1,.76.4,66.23,66.23,0,0,0,6.84,5.32,36.1,36.1,0,0,0,7.4,3.8,46.52,46.52,0,0,0,8.86,2.33,69.09,69.09,0,0,0,11.24.81,51.2,51.2,0,0,0,19.85-3.55,36.84,36.84,0,0,0,14.13-10.12,43.28,43.28,0,0,0,8.41-15.81,71.18,71.18,0,0,0,2.78-20.66,78.61,78.61,0,0,0-.65-9.72,57.12,57.12,0,0,0-2.33-10.33M425,333.3a43.85,43.85,0,0,1-3.9,12.56,22.7,22.7,0,0,1-6.89,8.36,17,17,0,0,1-10.18,3,15.88,15.88,0,0,1-9.82-2.89,20.91,20.91,0,0,1-6.08-7.14,31.09,31.09,0,0,1-3.09-9,48.15,48.15,0,0,1-.86-8.6V302.26a42.46,42.46,0,0,1,.71-7.25,21.92,21.92,0,0,1,2.93-7.74,18.68,18.68,0,0,1,6.39-6.18q4.14-2.54,11-2.54a16.6,16.6,0,0,1,9,2.29,19.32,19.32,0,0,1,6,5.82,27.78,27.78,0,0,1,3.54,8,64.52,64.52,0,0,1,1.77,8.81,71.46,71.46,0,0,1,.61,8.1c0,2.5.05,4.53.05,6.08A94.7,94.7,0,0,1,425,333.3"/><path d="M549.57,280.63a45.53,45.53,0,0,0-15-10.13,49,49,0,0,0-19.19-3.69,49.3,49.3,0,0,0-45.79,29.83,46.71,46.71,0,0,0-3.85,18.78,48.71,48.71,0,0,0,3.55,18.69,46.54,46.54,0,0,0,9.82,15.09,45.32,45.32,0,0,0,15.05,10.13,48.78,48.78,0,0,0,19.19,3.7,49.34,49.34,0,0,0,45.78-29.78,46.49,46.49,0,0,0,3.85-18.84,49,49,0,0,0-3.54-18.64,46.68,46.68,0,0,0-9.83-15.14m-17.22,50.9a61.18,61.18,0,0,1-3.59,13.62,25.48,25.48,0,0,1-6,9.17,12.38,12.38,0,0,1-16.92,0,26.07,26.07,0,0,1-6-9.17,57.59,57.59,0,0,1-3.6-13.62,119.5,119.5,0,0,1,0-33.22,57.81,57.81,0,0,1,3.6-13.63,25.93,25.93,0,0,1,6-9.16,12.36,12.36,0,0,1,16.92,0,25.35,25.35,0,0,1,6,9.16,61.42,61.42,0,0,1,3.59,13.63,113.68,113.68,0,0,1,0,33.22"/><path d="M643.77,270.7a13.27,13.27,0,0,0-4.76-2.83,21.26,21.26,0,0,0-7.19-1.06,25.07,25.07,0,0,0-13.68,3.84,26.06,26.06,0,0,0-9.62,11.65V267.82c0-.95-.32-1.45-1-1.52a2.76,2.76,0,0,0-1.88.51,81.11,81.11,0,0,1-7.79,4.6q-4.36,2.28-9,4.26c-3.1,1.31-6.2,2.5-9.27,3.54a84.59,84.59,0,0,1-8.56,2.48q-1.51.42-1.47,1.47c0,.71.5,1.17,1.37,1.37.21.07.76.2,1.67.41s1.91.44,3,.71l2.89.7a10.71,10.71,0,0,0,1.47.31,1.49,1.49,0,0,1,1.21,1.62v57.13a12.54,12.54,0,0,1-1.37,6.38,10.84,10.84,0,0,1-3.13,3.54,11.37,11.37,0,0,1-3.5,1.67,21.09,21.09,0,0,1-2.53.56,2.13,2.13,0,0,0-1.17.66,1.16,1.16,0,0,0-.25,1,1.62,1.62,0,0,0,.56.91,1.82,1.82,0,0,0,1.26.41h47.61a1.86,1.86,0,0,0,1.27-.41,1.66,1.66,0,0,0,.55-.91,1.16,1.16,0,0,0-.25-1,2.1,2.1,0,0,0-1.16-.66,20.73,20.73,0,0,1-2.54-.56,11.22,11.22,0,0,1-3.49-1.67,10.86,10.86,0,0,1-3.14-3.54,12.65,12.65,0,0,1-1.37-6.38V310.36a78.16,78.16,0,0,1,1.12-14.69,34.45,34.45,0,0,1,2.78-8.91,10.53,10.53,0,0,1,3.65-4.41,7.38,7.38,0,0,1,3.69-1.16,4.25,4.25,0,0,1,3.25,1.42c.87.94,1.83,2,2.88,3.08a19.61,19.61,0,0,0,3.8,3.1,11.49,11.49,0,0,0,6.18,1.41,12,12,0,0,0,8.25-2.73,9.62,9.62,0,0,0,3.09-7.6,15.43,15.43,0,0,0-.81-5,10.39,10.39,0,0,0-2.63-4.16"/><path d="M677.9,306.82h52.16a3.34,3.34,0,0,0,1.77-.41,1.53,1.53,0,0,0,.66-1.42,34.15,34.15,0,0,0-.7-6,41.47,41.47,0,0,0-2.49-8,49.14,49.14,0,0,0-4.66-8.55,34.34,34.34,0,0,0-7.29-7.81A36.9,36.9,0,0,0,706.92,269,41,41,0,0,0,693,266.8a44.62,44.62,0,0,0-31,12.72A47.16,47.16,0,0,0,651.67,295a53.26,53.26,0,0,0-3.95,21.17,56.76,56.76,0,0,0,3.19,19.65,41.76,41.76,0,0,0,9,14.79,38.49,38.49,0,0,0,14,9.27,54.24,54.24,0,0,0,30.44,1.82,46.25,46.25,0,0,0,9.62-3.49,38.11,38.11,0,0,0,7.24-4.66,44.23,44.23,0,0,0,5.06-4.86,29.41,29.41,0,0,0,3.09-4.11c.72-1.18,1.17-2,1.37-2.38.54-1.14.54-2,0-2.58a1.82,1.82,0,0,0-2.23-.25,20.88,20.88,0,0,0-2.83,1.72,38,38,0,0,1-5,2.78,40,40,0,0,1-7.14,2.59,35.9,35.9,0,0,1-9.37,1.11,30.7,30.7,0,0,1-12.1-2.22,21,21,0,0,1-8.71-6.94,33.76,33.76,0,0,1-5.32-12.11,75.22,75.22,0,0,1-1.82-17.72c0-1.15.54-1.72,1.62-1.72m-.66-10.59q.36-2.58,1.06-5.67a62.51,62.51,0,0,1,1.83-6.33,29.14,29.14,0,0,1,2.78-5.93,15.29,15.29,0,0,1,4-4.36,9.18,9.18,0,0,1,5.47-1.66,9.85,9.85,0,0,1,6.69,2.37,19.58,19.58,0,0,1,4.51,5.83,29,29,0,0,1,2.58,7.29,33.5,33.5,0,0,1,.81,6.79q0,3.24-1.77,4.56a6.59,6.59,0,0,1-3.4,1.42,22.35,22.35,0,0,1-2.38.15c-1.25,0-2.73.08-4.45.15l-5.42.2-5.32.2-4.2.16-2,.05c-1,0-1.35-.44-1.22-1.32s.22-2.18.46-3.9"/><path d="M119.75,357.13h0l11.52-31.19a42,42,0,0,1,53.91-24.83L173.66,332.3a42,42,0,0,1-53.91,24.83"/></g><g class="cls-3"><polygon points="185 301.59 184.28 300.78 185.18 301.11 185 301.59"/><polygon points="184.73 302.33 182.9 300.26 184.28 300.77 185 301.59 184.73 302.33"/><polygon points="184.45 303.07 181.52 299.76 182.9 300.26 184.73 302.33 184.45 303.07"/><polygon points="184.18 303.81 180.14 299.25 181.52 299.76 184.45 303.07 184.18 303.81"/><polygon points="183.91 304.55 178.76 298.74 180.14 299.25 184.18 303.81 183.91 304.55"/><polygon points="183.63 305.29 177.39 298.23 178.76 298.74 183.91 304.55 183.63 305.29"/><polygon points="183.36 306.03 176.01 297.72 177.39 298.23 183.63 305.29 183.36 306.03"/><polygon points="183.09 306.77 174.63 297.21 176.01 297.72 183.36 306.03 183.09 306.77"/><polygon points="182.81 307.51 173.25 296.7 174.63 297.21 183.09 306.77 182.81 307.51"/><polygon points="182.54 308.25 171.87 296.19 173.25 296.7 182.81 307.5 182.54 308.25"/><polygon points="182.27 308.99 170.5 295.69 171.87 296.19 182.54 308.25 182.27 308.99"/><polygon points="182 309.73 169.12 295.18 170.5 295.69 182.27 308.99 182 309.73"/><polygon points="181.72 310.46 167.74 294.67 169.12 295.18 181.99 309.72 181.72 310.46"/><polygon points="181.45 311.2 166.36 294.16 167.74 294.67 181.72 310.46 181.45 311.2"/><polygon points="181.18 311.94 164.99 293.65 166.36 294.16 181.45 311.2 181.18 311.94"/><polygon points="180.9 312.68 163.61 293.14 164.98 293.65 181.18 311.94 180.9 312.68"/><polygon points="180.63 313.42 162.23 292.63 163.61 293.14 180.9 312.68 180.63 313.42"/><polygon points="180.36 314.16 160.85 292.12 162.23 292.63 180.63 313.42 180.36 314.16"/><polygon points="180.09 314.9 159.47 291.62 160.85 292.12 180.36 314.16 180.09 314.9"/><polygon points="179.81 315.64 158.09 291.11 159.47 291.62 180.08 314.9 179.81 315.64"/><polygon points="179.54 316.38 156.72 290.6 158.09 291.11 179.81 315.64 179.54 316.38"/><polygon points="179.27 317.12 155.34 290.09 156.71 290.6 179.54 316.38 179.27 317.12"/><polygon points="178.99 317.86 153.96 289.58 155.34 290.09 179.26 317.12 178.99 317.86"/><polygon points="178.72 318.6 152.58 289.07 153.96 289.58 178.99 317.86 178.72 318.6"/><polygon points="178.45 319.34 151.98 289.44 152.46 289.02 152.58 289.07 178.72 318.6 178.45 319.34"/><polygon points="178.17 320.08 151.46 289.9 151.98 289.44 178.44 319.34 178.17 320.08"/><polygon points="177.9 320.82 150.94 290.36 151.46 289.91 178.17 320.08 177.9 320.82"/><polygon points="177.63 321.56 150.42 290.82 150.94 290.37 177.9 320.81 177.63 321.56"/><polygon points="177.35 322.3 149.9 291.29 150.42 290.82 177.63 321.56 177.35 322.3"/><polygon points="177.08 323.04 149.38 291.75 149.9 291.29 177.35 322.3 177.08 323.04"/><polygon points="176.81 323.77 148.86 292.2 149.38 291.75 177.08 323.03 176.81 323.77"/><polygon points="176.53 324.51 148.34 292.67 148.86 292.2 176.81 323.77 176.53 324.51"/><polygon points="176.26 325.25 147.82 293.13 148.34 292.67 176.54 324.51 176.26 325.25"/><polygon points="175.72 326.73 146.78 294.05 147.3 293.59 175.99 325.99 175.72 326.73"/><polygon points="175.44 327.47 146.26 294.51 146.78 294.05 175.72 326.73 175.44 327.47"/><polygon points="175.17 328.21 145.74 294.97 146.26 294.51 175.44 327.47 175.17 328.21"/><polygon points="174.9 328.95 145.22 295.43 145.74 294.97 175.17 328.21 174.9 328.95"/><polygon points="174.62 329.69 144.7 295.89 145.22 295.43 174.9 328.95 174.62 329.69"/><polygon points="174.35 330.43 144.18 296.35 144.7 295.89 174.62 329.69 174.35 330.43"/><polygon points="174.08 331.17 143.66 296.81 144.18 296.35 174.35 330.43 174.08 331.17"/><polygon points="173.8 331.91 143.14 297.27 143.66 296.81 174.08 331.17 173.8 331.91"/><polygon points="173.53 332.65 142.62 297.73 143.14 297.27 173.8 331.91 173.53 332.65"/><polygon points="173.26 333.39 142.1 298.19 142.62 297.73 173.53 332.65 173.26 333.39"/><polygon points="172.99 334.13 141.58 298.65 142.1 298.19 173.26 333.39 172.99 334.13"/><polygon points="172.71 334.87 141.14 299.2 141.23 298.96 141.58 298.65 172.98 334.13 172.71 334.87"/><polygon points="172.44 335.61 140.87 299.94 141.14 299.2 172.71 334.87 172.44 335.61"/><polygon points="172.17 336.35 140.59 300.68 140.87 299.94 172.44 335.61 172.17 336.35"/><polygon points="171.89 337.08 140.32 301.42 140.6 300.68 172.16 336.35 171.89 337.08"/><polygon points="171.35 338.56 139.78 302.9 140.05 302.16 171.62 337.82 171.35 338.56"/><polygon points="171.07 339.3 139.5 303.64 139.78 302.9 171.35 338.56 171.07 339.3"/><polygon points="170.8 340.04 139.23 304.38 139.5 303.64 171.07 339.3 170.8 340.04"/><polygon points="170.53 340.78 138.96 305.12 139.23 304.38 170.8 340.04 170.53 340.78"/><polygon points="170.25 341.52 138.68 305.86 138.96 305.12 170.53 340.78 170.25 341.52"/><polygon points="169.98 342.26 138.41 306.6 138.69 305.86 170.25 341.52 169.98 342.26"/><polygon points="169.71 343 138.14 307.34 138.41 306.6 169.98 342.26 169.71 343"/><polygon points="169.44 343.74 137.86 308.08 138.14 307.34 169.71 343 169.44 343.74"/><polygon points="169.16 344.48 137.59 308.81 137.87 308.07 169.44 343.74 169.16 344.48"/><polyline points="169.16 344.48 168.89 345.22 137.32 309.56 137.59 308.81"/><polygon points="168.62 345.96 137.04 310.29 137.32 309.56 168.89 345.22 168.62 345.96"/><polygon points="168.34 346.7 136.77 311.03 137.05 310.29 168.62 345.96 168.34 346.7"/><polygon points="168.07 347.44 136.5 311.77 136.77 311.04 168.34 346.7 168.07 347.44"/><polygon points="167.8 348.18 136.23 312.51 136.5 311.77 168.07 347.44 167.8 348.18"/><polygon points="167.53 348.92 135.95 313.25 136.23 312.51 167.8 348.18 167.53 348.92"/><polygon points="167.25 349.66 135.68 313.99 135.95 313.25 167.52 348.92 167.25 349.66"/><polyline points="167.25 349.66 166.98 350.4 135.41 314.73 135.68 313.99"/><polygon points="166.71 351.14 135.13 315.47 135.41 314.73 166.98 350.39 166.71 351.14"/><polygon points="166.43 351.88 134.86 316.21 135.13 315.47 166.71 351.13 166.43 351.88"/><polygon points="166.16 352.61 134.59 316.95 134.86 316.21 166.43 351.87 166.16 352.61"/><polygon points="165.89 353.35 134.31 317.69 134.59 316.95 166.16 352.61 165.89 353.35"/><polygon points="165.61 354.09 134.04 318.43 134.31 317.69 165.89 353.35 165.61 354.09"/><polygon points="165.34 354.83 133.77 319.17 134.04 318.43 165.61 354.09 165.34 354.83"/><polygon points="165.07 355.57 133.5 319.91 133.77 319.17 165.34 354.83 165.07 355.57"/><polygon points="164.79 356.31 133.22 320.65 133.5 319.91 165.07 355.57 164.79 356.31"/><polygon points="164.52 357.05 132.95 321.39 133.22 320.65 164.79 356.31 164.52 357.05"/><polygon points="164.25 357.79 132.68 322.13 132.95 321.39 164.52 357.05 164.25 357.79"/><polygon points="163.98 358.53 132.4 322.87 132.68 322.13 164.25 357.79 163.98 358.53"/><polyline points="163.98 358.53 163.7 359.27 132.13 323.61 132.4 322.87"/><polygon points="163.7 359.28 163.19 359.73 131.86 324.34 132.13 323.61 163.7 359.27 163.7 359.28"/><polygon points="163.18 359.73 162.66 360.19 131.58 325.08 131.86 324.34 163.18 359.73"/><polygon points="162.66 360.19 162.14 360.65 131.31 325.82 131.58 325.08 162.66 360.19"/><polyline points="162.14 360.65 161.62 361.11 131.04 326.56 131.31 325.82"/><polygon points="161.62 361.11 161.1 361.57 130.77 327.3 131.04 326.56 161.62 361.11"/><polygon points="161.1 361.57 160.59 362.04 130.49 328.04 130.76 327.3 161.1 361.57"/><polygon points="160.58 362.03 160.06 362.5 130.22 328.78 130.49 328.04 160.58 362.03"/><polygon points="159.54 362.95 159.02 363.42 129.67 330.26 129.95 329.52 159.54 362.95"/><polygon points="159.02 363.42 158.5 363.88 129.4 331 129.68 330.26 159.02 363.42"/><polygon points="158.5 363.88 157.98 364.34 129.13 331.74 129.4 331 158.5 363.88"/><polygon points="157.98 364.34 157.46 364.8 128.85 332.48 129.13 331.74 157.98 364.34"/><polygon points="157.46 364.8 156.94 365.26 128.58 333.22 128.85 332.48 157.46 364.8"/><polygon points="156.94 365.26 156.42 365.72 128.31 333.96 128.58 333.22 156.94 365.26"/><polygon points="156.42 365.72 155.9 366.18 128.03 334.7 128.31 333.96 156.42 365.72"/><polygon points="155.9 366.18 155.38 366.64 127.76 335.44 128.03 334.7 155.9 366.18"/><polygon points="155.38 366.64 154.86 367.1 127.49 336.18 127.76 335.44 155.38 366.64"/><polygon points="154.86 367.1 154.34 367.56 127.22 336.92 127.49 336.18 154.86 367.1"/><polygon points="154.34 367.56 153.82 368.02 126.94 337.65 127.22 336.92 154.34 367.56"/><polygon points="153.82 368.02 153.3 368.48 126.67 338.39 126.94 337.66 153.82 368.02"/><polygon points="153.3 368.48 152.78 368.94 126.4 339.13 126.67 338.39 153.3 368.48"/><polygon points="152.78 368.94 152.47 369.21 151.91 369.01 126.12 339.87 126.4 339.13 152.78 368.94"/><polygon points="150.54 368.5 125.85 340.61 126.12 339.87 151.91 369.01 150.54 368.5"/><polygon points="149.16 367.99 125.58 341.35 125.85 340.61 150.54 368.5 149.16 367.99"/><polygon points="147.78 367.48 125.3 342.09 125.58 341.35 149.16 367.99 147.78 367.48"/><polygon points="146.4 366.97 125.03 342.83 125.3 342.09 147.78 367.48 146.4 366.97"/><polyline points="146.4 366.97 145.03 366.46 124.76 343.57 125.03 342.83"/><polygon points="143.65 365.95 124.49 344.31 124.76 343.57 145.02 366.46 143.65 365.95"/><polygon points="142.27 365.45 124.21 345.05 124.49 344.31 143.65 365.96 142.27 365.45"/><polygon points="140.89 364.94 123.94 345.79 124.21 345.05 142.27 365.45 140.89 364.94"/><polygon points="139.51 364.43 123.67 346.53 123.94 345.79 140.89 364.94 139.51 364.43"/><polygon points="138.13 363.92 123.39 347.27 123.67 346.53 139.51 364.43 138.13 363.92"/><polygon points="136.76 363.41 123.12 348.01 123.39 347.27 138.13 363.92 136.76 363.41"/><polygon points="135.38 362.9 122.85 348.75 123.12 348.01 136.76 363.41 135.38 362.9"/><polygon points="134 362.39 122.57 349.49 122.85 348.75 135.38 362.9 134 362.39"/><polygon points="132.62 361.88 122.3 350.23 122.57 349.49 134 362.39 132.62 361.88"/><polygon points="131.24 361.38 122.03 350.97 122.3 350.23 132.62 361.88 131.24 361.38"/><polygon points="129.87 360.87 121.75 351.7 122.03 350.96 131.24 361.38 129.87 360.87"/><polygon points="128.49 360.36 121.48 352.45 121.76 351.71 129.87 360.87 128.49 360.36"/><polygon points="121.48 352.44 128.49 360.36 119.75 357.13 121.48 352.44"/></g><g class="cls-2"><path d="M203.15,403.92a9.77,9.77,0,0,1-3.93-3.66,10.75,10.75,0,0,1,0-10.68,9.84,9.84,0,0,1,3.93-3.66,12,12,0,0,1,5.63-1.31,12.46,12.46,0,0,1,5.13,1,9.6,9.6,0,0,1,3.72,2.94l-4.2,3.74a5.39,5.39,0,0,0-4.31-2.31,4.4,4.4,0,0,0-3.35,1.34,5.71,5.71,0,0,0,0,7.18,4.36,4.36,0,0,0,3.35,1.34,5.39,5.39,0,0,0,4.31-2.31l4.2,3.75a9.48,9.48,0,0,1-3.72,2.93,12.46,12.46,0,0,1-5.13,1,11.89,11.89,0,0,1-5.63-1.31"/><path d="M229.38,403.91a9.9,9.9,0,0,1-5.41-9,10,10,0,0,1,1.44-5.31,9.84,9.84,0,0,1,4-3.67,13,13,0,0,1,11.44,0,10.11,10.11,0,0,1,0,18,13.05,13.05,0,0,1-11.44,0m8-4.66a4.48,4.48,0,0,0,1.59-1.72,6,6,0,0,0,0-5.21,4.35,4.35,0,0,0-1.59-1.72,4.21,4.21,0,0,0-2.24-.61,4.16,4.16,0,0,0-2.24.61,4.21,4.21,0,0,0-1.59,1.72,6,6,0,0,0,0,5.21,4.34,4.34,0,0,0,1.59,1.72,4.24,4.24,0,0,0,2.24.6,4.29,4.29,0,0,0,2.24-.6"/><polygon points="273.72 385.06 273.72 404.78 268.26 404.78 260.76 395.82 260.76 404.78 254.28 404.78 254.28 385.06 259.75 385.06 267.24 394.02 267.24 385.06 273.72 385.06"/><path d="M285.15,404.68a12.33,12.33,0,0,1-3.82-1.48l2.14-4.84a13.87,13.87,0,0,0,3.16,1.31,12.24,12.24,0,0,0,3.35.49,5.38,5.38,0,0,0,2-.26.86.86,0,0,0,.59-.81c0-.41-.26-.72-.77-.93a17.37,17.37,0,0,0-2.55-.67,30.49,30.49,0,0,1-3.81-1,6.49,6.49,0,0,1-2.64-1.81,4.82,4.82,0,0,1-1.13-3.39,5.87,5.87,0,0,1,1-3.38,7,7,0,0,1,3.12-2.4,12.93,12.93,0,0,1,5-.87,18.34,18.34,0,0,1,4,.44,12.67,12.67,0,0,1,3.45,1.28l-2,4.82a12.16,12.16,0,0,0-5.49-1.47c-1.71,0-2.57.42-2.57,1.24,0,.4.26.69.76.89a15.56,15.56,0,0,0,2.51.63,26.2,26.2,0,0,1,3.8,1,6.58,6.58,0,0,1,2.7,1.78,4.83,4.83,0,0,1,1.14,3.39,5.72,5.72,0,0,1-1.05,3.36,7,7,0,0,1-3.11,2.4,12.79,12.79,0,0,1-5,.88,20.41,20.41,0,0,1-4.77-.55"/><path d="M309.08,402.78a9.1,9.1,0,0,1-2.54-6.87V385.06h6.65v10.65a5.11,5.11,0,0,0,.78,3.16,3,3,0,0,0,4.48,0,5.19,5.19,0,0,0,.77-3.16V385.06h6.54v10.85a9.1,9.1,0,0,1-2.54,6.87,11.43,11.43,0,0,1-14.14,0"/><polygon points="352.04 404.78 351.99 395.8 347.7 403.01 344.77 403.01 340.49 396.11 340.49 404.78 334.44 404.78 334.44 385.06 339.9 385.06 346.32 395.57 352.58 385.06 358.05 385.06 358.1 404.78 352.04 404.78"/><path d="M371.57,403.91a10.1,10.1,0,0,1,0-18,12.94,12.94,0,0,1,11.43,0,9.94,9.94,0,0,1,4,3.67,10.11,10.11,0,0,1-4,14.3,13,13,0,0,1-11.43,0m7.95-4.66a4.43,4.43,0,0,0,1.6-1.72,6,6,0,0,0,0-5.21,4.3,4.3,0,0,0-1.6-1.72,4.16,4.16,0,0,0-2.24-.61,4.21,4.21,0,0,0-2.24.61,4.35,4.35,0,0,0-1.59,1.72,6,6,0,0,0,0,5.21,4.48,4.48,0,0,0,1.59,1.72,4.29,4.29,0,0,0,2.24.6,4.24,4.24,0,0,0,2.24-.6"/><path d="M415.12,403.92a9.77,9.77,0,0,1-3.93-3.66,10.75,10.75,0,0,1,0-10.68,9.84,9.84,0,0,1,3.93-3.66,12,12,0,0,1,5.64-1.31,12.44,12.44,0,0,1,5.12,1,9.6,9.6,0,0,1,3.72,2.94l-4.19,3.74a5.41,5.41,0,0,0-4.32-2.31,4.41,4.41,0,0,0-3.35,1.34,5.71,5.71,0,0,0,0,7.18,4.38,4.38,0,0,0,3.35,1.34,5.41,5.41,0,0,0,4.32-2.31l4.19,3.75a9.48,9.48,0,0,1-3.72,2.93,12.44,12.44,0,0,1-5.12,1,11.91,11.91,0,0,1-5.64-1.31"/><path d="M441.35,403.91a10.11,10.11,0,0,1,0-18,13,13,0,0,1,11.44,0,10.11,10.11,0,0,1,0,18,13.05,13.05,0,0,1-11.44,0m8-4.66a4.34,4.34,0,0,0,1.59-1.72,6,6,0,0,0,0-5.21,4.3,4.3,0,0,0-7.66,0,6,6,0,0,0,0,5.21,4.34,4.34,0,0,0,1.59,1.72,4.48,4.48,0,0,0,4.48,0"/><polygon points="485.69 385.06 485.69 404.78 480.23 404.78 472.73 395.82 472.73 404.78 466.25 404.78 466.25 385.06 471.72 385.06 479.21 394.02 479.21 385.06 485.69 385.06"/><path d="M497.12,404.68a12.33,12.33,0,0,1-3.82-1.48l2.14-4.84a13.87,13.87,0,0,0,3.16,1.31,12.24,12.24,0,0,0,3.35.49,5.38,5.38,0,0,0,2-.26.86.86,0,0,0,.59-.81c0-.41-.26-.72-.77-.93a17.37,17.37,0,0,0-2.55-.67,30.49,30.49,0,0,1-3.81-1,6.49,6.49,0,0,1-2.64-1.81,4.82,4.82,0,0,1-1.13-3.39,5.87,5.87,0,0,1,1-3.38,7,7,0,0,1,3.12-2.4,12.93,12.93,0,0,1,5-.87,18.34,18.34,0,0,1,4,.44,12.67,12.67,0,0,1,3.45,1.28l-2,4.82a12.16,12.16,0,0,0-5.49-1.47c-1.71,0-2.57.42-2.57,1.24,0,.4.26.69.76.89a15.56,15.56,0,0,0,2.51.63,26.2,26.2,0,0,1,3.8,1,6.58,6.58,0,0,1,2.7,1.78,4.83,4.83,0,0,1,1.14,3.39A5.72,5.72,0,0,1,510,402a7,7,0,0,1-3.11,2.4,12.79,12.79,0,0,1-5,.88,20.41,20.41,0,0,1-4.77-.55"/><path d="M523.25,403.92a9.71,9.71,0,0,1-3.93-3.66,10.69,10.69,0,0,1,0-10.68,9.78,9.78,0,0,1,3.93-3.66,12,12,0,0,1,5.63-1.31,12.46,12.46,0,0,1,5.13,1,9.6,9.6,0,0,1,3.72,2.94l-4.2,3.74a5.39,5.39,0,0,0-4.31-2.31,4.44,4.44,0,0,0-3.36,1.34,5.74,5.74,0,0,0,0,7.18,4.4,4.4,0,0,0,3.36,1.34,5.39,5.39,0,0,0,4.31-2.31l4.2,3.75a9.48,9.48,0,0,1-3.72,2.93,12.46,12.46,0,0,1-5.13,1,11.89,11.89,0,0,1-5.63-1.31"/><rect x="545.28" y="385.06" width="6.65" height="19.72"/><polygon points="577.17 399.77 577.17 404.78 560.78 404.78 560.78 385.06 576.8 385.06 576.8 390.08 567.31 390.08 567.31 392.39 575.65 392.39 575.65 397.18 567.31 397.18 567.31 399.77 577.17 399.77"/><polygon points="604.81 385.06 604.81 404.78 599.34 404.78 591.85 395.82 591.85 404.78 585.37 404.78 585.37 385.06 590.83 385.06 598.33 394.02 598.33 385.06 604.81 385.06"/><polygon points="617.94 390.22 612.16 390.22 612.16 385.06 630.36 385.06 630.36 390.22 624.59 390.22 624.59 404.78 617.94 404.78 617.94 390.22"/><polygon points="654.11 399.77 654.11 404.78 637.71 404.78 637.71 385.06 653.74 385.06 653.74 390.08 644.25 390.08 644.25 392.39 652.59 392.39 652.59 397.18 644.25 397.18 644.25 399.77 654.11 399.77"/></g></g></svg>