<svg id="Capa_1" data-name="Capa 1" xmlns="http://www.w3.org/2000/svg" xmlns:xlink="http://www.w3.org/1999/xlink" viewBox="0 0 612.76 227.14"><defs><style>.cls-1{fill:none;}.cls-2{clip-path:url(#clip-path);}.cls-3{fill:#416729;}.cls-4{clip-path:url(#clip-path-3);}.cls-5{fill:#446829;}</style><clipPath id="clip-path" transform="translate(-119.21 -177.06)"><rect class="cls-1" x="62.97" y="141.74" width="716.71" height="303.18"/></clipPath><clipPath id="clip-path-3" transform="translate(-119.21 -177.06)"><path class="cls-1" d="M130.73,324.9l-11.52,31.19a42,42,0,0,0,53.92-24.83l11.51-31.19a41.93,41.93,0,0,0-53.91,24.83"/></clipPath></defs><g class="cls-2"><g class="cls-2"><path class="cls-3" d="M173.22,217.75c2.7-1.22,5.81-2.78,9.32-4.71s7-4,10.38-6.38a101.44,101.44,0,0,0,9.47-7.29A34.37,34.37,0,0,0,209,192a17.71,17.71,0,0,0,1.72-3.74,12.17,12.17,0,0,0,.66-4.11,7.87,7.87,0,0,0-1-3.69,6.16,6.16,0,0,0-3.09-2.64,7.86,7.86,0,0,0-3.89-.76,9.82,9.82,0,0,0-3.55,1,11.94,11.94,0,0,0-3.09,2.17,22,22,0,0,0-2.53,2.89c-.14.14-.73,1-1.77,2.48s-2.33,3.4-3.85,5.62-3.18,4.66-5,7.3-3.49,5.15-5.11,7.54-3.06,4.51-4.31,6.33L171.7,216c-.4.68-.44,1.21-.1,1.62s.88.44,1.62.1" transform="translate(-119.21 -177.06)"/><path class="cls-3" d="M258.51,358.14a1.12,1.12,0,0,1,.25-1,2,2,0,0,1,1.09-.63,1.85,1.85,0,0,0-.84-.43,21.59,21.59,0,0,1-5.67-1.83,21.23,21.23,0,0,1-5.21-3.59,28.3,28.3,0,0,1-4.56-5.47,34.87,34.87,0,0,1-3.6-7.55q-.81-2.22-2.83-8.46t-4.92-14.83l-6.33-18.95q-3.44-10.33-6.94-20.76t-6.73-20.26Q209,244.6,206.39,237t-4.15-12.41c-1.05-3.18-1.6-4.87-1.67-5.07a3.07,3.07,0,0,0-1.27-1.62c-.5-.27-1.33-.13-2.48.41a57.94,57.94,0,0,1-5.57,2.08c-2,.64-4.07,1.23-6.13,1.77s-4.07,1-6,1.52-3.69.84-5.17,1.11a3.43,3.43,0,0,0-1.92.81,4.64,4.64,0,0,0-1,1.72l-.93,2.67,3.75,11.32c0,.07.09.1.12.19s.29,1,.86,2.64,1.32,3.9,2.23,6.63,1.94,5.84,3.09,9.32,2.33,7,3.54,10.64,2.4,7.17,3.55,10.68,2.19,6.67,3.14,9.47,1.7,5.1,2.28,6.89.89,2.79,1,3a1.47,1.47,0,0,1,.09.58l2.51,7.6a1.47,1.47,0,0,1,.34.53c.06.27.34,1.08.81,2.43s1,3,1.62,4.91,1.3,4,2.08,6.28,1.5,4.46,2.17,6.59,1.3,4.07,1.88,5.82,1,3.08,1.36,3.95c1.08,3.24,1.19,5.91.31,8a12.27,12.27,0,0,1-3.7,5,15.45,15.45,0,0,1-5,2.68l-3.6,1.12a2.43,2.43,0,0,0-1.36.81,1.21,1.21,0,0,0-.21,1.06,1.94,1.94,0,0,0,.61,1,1.69,1.69,0,0,0,1.16.41h63.62a2.19,2.19,0,0,0,1-.25,1.4,1.4,0,0,1-.29-.16,1.57,1.57,0,0,1-.55-.91" transform="translate(-119.21 -177.06)"/><path class="cls-3" d="M342.31,269.66a13.09,13.09,0,0,0-4.76-2.83,21.24,21.24,0,0,0-7.19-1.07,25,25,0,0,0-13.67,3.85,26.07,26.07,0,0,0-9.63,11.65V266.78c0-.95-.32-1.45-1-1.52a2.77,2.77,0,0,0-1.87.5,80.48,80.48,0,0,1-7.8,4.61q-4.37,2.28-9,4.26c-3.11,1.31-6.19,2.5-9.27,3.54a84.59,84.59,0,0,1-8.56,2.48q-1.51.41-1.47,1.47c0,.71.49,1.17,1.37,1.37.21.07.76.2,1.67.41s1.91.44,3,.71l2.89.7a12.76,12.76,0,0,0,1.47.31,1.49,1.49,0,0,1,1.21,1.62v57.13a12.63,12.63,0,0,1-1.36,6.38,11,11,0,0,1-3.14,3.54,11.65,11.65,0,0,1-3.5,1.68,22.68,22.68,0,0,1-2.53.55l-.07,0a2.06,2.06,0,0,0-1.1.63,1.16,1.16,0,0,0-.25,1,1.59,1.59,0,0,0,.56.91,1.12,1.12,0,0,0,.28.16,2,2,0,0,0,1,.25h47.61a1.86,1.86,0,0,0,1.27-.41,1.57,1.57,0,0,0,.55-.91,1.12,1.12,0,0,0-.25-1,2.1,2.1,0,0,0-1.16-.66,22.21,22.21,0,0,1-2.53-.55,11.53,11.53,0,0,1-3.5-1.68,10.86,10.86,0,0,1-3.14-3.54,12.62,12.62,0,0,1-1.37-6.38V309.32a78.16,78.16,0,0,1,1.12-14.69,34.45,34.45,0,0,1,2.78-8.91,10.61,10.61,0,0,1,3.65-4.41,7.42,7.42,0,0,1,3.7-1.16,4.24,4.24,0,0,1,3.24,1.42l2.88,3.08a19.61,19.61,0,0,0,3.8,3.1,11.54,11.54,0,0,0,6.18,1.41,12,12,0,0,0,8.26-2.73,9.65,9.65,0,0,0,3.09-7.6,15.43,15.43,0,0,0-.81-5,10.52,10.52,0,0,0-2.64-4.16" transform="translate(-119.21 -177.06)"/><path class="cls-3" d="M452.06,291.8A44.3,44.3,0,0,0,447.5,282a33.3,33.3,0,0,0-17.77-14.08,42.86,42.86,0,0,0-14.18-2.13,40.78,40.78,0,0,0-12.72,1.78,39.3,39.3,0,0,0-9.11,4.15,28.37,28.37,0,0,0-5.83,4.76c-1.41,1.59-2.43,2.75-3,3.5-.2.33-.44.47-.71.4a.9.9,0,0,1-.6-.51V209.65c0-1-.32-1.45-1-1.52a2.79,2.79,0,0,0-1.87.5,79.29,79.29,0,0,1-7.8,4.61q-4.35,2.28-9,4.26T354.62,221a88.29,88.29,0,0,1-8.56,2.49q-1.51.3-1.47,1.41c0,.75.49,1.22,1.37,1.42a10.93,10.93,0,0,1,1.67.35c.91.24,1.91.48,3,.71s2,.48,2.88.71a10.63,10.63,0,0,0,1.47.36,1.5,1.5,0,0,1,1.22,1.62V240c0,3.1,0,6.75-.05,10.93s-.05,8.75-.05,13.68V363.1a1.59,1.59,0,0,0,.91,1.68,1.48,1.48,0,0,0,1.72-.56c.88-1,2-2.23,3.5-3.65l4.4-4.25q2.24-2.13,4.21-3.9c1.31-1.18,2.34-2.08,3.09-2.69.33-.33.62-.47.86-.4a2.51,2.51,0,0,1,.75.4,66.23,66.23,0,0,0,6.84,5.32,36.1,36.1,0,0,0,7.4,3.8,46.52,46.52,0,0,0,8.86,2.33,69.13,69.13,0,0,0,11.25.81,51.43,51.43,0,0,0,19.85-3.54,37,37,0,0,0,14.13-10.13,43.15,43.15,0,0,0,8.4-15.8,71.29,71.29,0,0,0,2.79-20.67,76.81,76.81,0,0,0-.66-9.72,56.28,56.28,0,0,0-2.33-10.33m-27.6,40.46a43.85,43.85,0,0,1-3.9,12.56,22.7,22.7,0,0,1-6.89,8.36,16.87,16.87,0,0,1-10.18,3,15.88,15.88,0,0,1-9.82-2.89,20.93,20.93,0,0,1-6.08-7.14,31.09,31.09,0,0,1-3.09-9,48.15,48.15,0,0,1-.86-8.6V301.22a42.46,42.46,0,0,1,.71-7.25,21.75,21.75,0,0,1,2.94-7.74,18.67,18.67,0,0,1,6.38-6.19c2.77-1.68,6.44-2.53,11-2.53a16.67,16.67,0,0,1,9,2.28,19.35,19.35,0,0,1,6,5.83,27.78,27.78,0,0,1,3.54,8,66.13,66.13,0,0,1,1.78,8.81,71.32,71.32,0,0,1,.6,8.1q.06,3.75.06,6.08a94.66,94.66,0,0,1-1.22,15.65" transform="translate(-119.21 -177.06)"/><path class="cls-3" d="M549.05,279.59a45.53,45.53,0,0,0-15-10.13,51.49,51.49,0,0,0-38.7.15,49.86,49.86,0,0,0-15.75,10.49A49.27,49.27,0,0,0,469,295.59a46.63,46.63,0,0,0-3.85,18.79,48.89,48.89,0,0,0,3.54,18.69,46.56,46.56,0,0,0,9.83,15.09,45.23,45.23,0,0,0,15,10.13,48.78,48.78,0,0,0,19.19,3.7,49.34,49.34,0,0,0,45.79-29.78,46.62,46.62,0,0,0,3.85-18.84,49,49,0,0,0-3.54-18.64,46.84,46.84,0,0,0-9.83-15.14m-17.22,50.9a60.62,60.62,0,0,1-3.6,13.62,25.38,25.38,0,0,1-6,9.17,12.38,12.38,0,0,1-16.92,0,25.71,25.71,0,0,1-6-9.17,56.64,56.64,0,0,1-3.6-13.62,118.56,118.56,0,0,1,0-33.23,56.9,56.9,0,0,1,3.6-13.62,25.8,25.8,0,0,1,6-9.17,12.38,12.38,0,0,1,16.92,0,25.47,25.47,0,0,1,6,9.17,60.91,60.91,0,0,1,3.6,13.62,114.68,114.68,0,0,1,0,33.23" transform="translate(-119.21 -177.06)"/><path class="cls-3" d="M643.25,269.66a13.27,13.27,0,0,0-4.76-2.83,21.24,21.24,0,0,0-7.19-1.07,25.07,25.07,0,0,0-13.68,3.85A26.06,26.06,0,0,0,608,281.26V266.78c0-.95-.32-1.45-1-1.52a2.79,2.79,0,0,0-1.87.5,78.13,78.13,0,0,1-7.8,4.61q-4.35,2.28-9,4.26c-3.11,1.31-6.2,2.5-9.27,3.54a86.1,86.1,0,0,1-8.56,2.48q-1.51.41-1.47,1.47c0,.71.49,1.17,1.37,1.37.2.07.76.2,1.67.41s1.91.44,3,.71l2.89.7a13.32,13.32,0,0,0,1.46.31,1.5,1.5,0,0,1,1.22,1.62v57.13a12.52,12.52,0,0,1-1.37,6.38,10.86,10.86,0,0,1-3.14,3.54,11.49,11.49,0,0,1-3.49,1.68,22.73,22.73,0,0,1-2.54.55,2.1,2.1,0,0,0-1.16.66,1.12,1.12,0,0,0-.25,1,1.57,1.57,0,0,0,.55.91,1.86,1.86,0,0,0,1.27.41h47.61a1.86,1.86,0,0,0,1.27-.41,1.62,1.62,0,0,0,.55-.91,1.16,1.16,0,0,0-.25-1,2.1,2.1,0,0,0-1.16-.66A22.26,22.26,0,0,1,616,356a11.49,11.49,0,0,1-3.49-1.68,10.86,10.86,0,0,1-3.14-3.54,12.52,12.52,0,0,1-1.37-6.38V309.32a79.13,79.13,0,0,1,1.11-14.69,34,34,0,0,1,2.79-8.91,10.53,10.53,0,0,1,3.65-4.41,7.35,7.35,0,0,1,3.69-1.16,4.21,4.21,0,0,1,3.24,1.42l2.89,3.08a19.61,19.61,0,0,0,3.8,3.1,11.49,11.49,0,0,0,6.18,1.41,12,12,0,0,0,8.25-2.73,9.62,9.62,0,0,0,3.09-7.6,15.43,15.43,0,0,0-.81-5,10.39,10.39,0,0,0-2.63-4.16" transform="translate(-119.21 -177.06)"/><path class="cls-3" d="M677.38,305.78h52.17a3.36,3.36,0,0,0,1.77-.41A1.53,1.53,0,0,0,732,304a34.34,34.34,0,0,0-.71-6,41.4,41.4,0,0,0-2.48-8,51,51,0,0,0-4.66-8.56,34.58,34.58,0,0,0-7.3-7.8,36.51,36.51,0,0,0-10.43-5.67,41,41,0,0,0-13.93-2.18,44.62,44.62,0,0,0-31,12.72,47.16,47.16,0,0,0-10.33,15.44,53.22,53.22,0,0,0-3.95,21.17,56.76,56.76,0,0,0,3.19,19.65,41.76,41.76,0,0,0,9,14.79,38.49,38.49,0,0,0,14,9.27A50.15,50.15,0,0,0,691.76,362a49.61,49.61,0,0,0,12.11-1.37,46.25,46.25,0,0,0,9.62-3.49,38.11,38.11,0,0,0,7.24-4.66,44.39,44.39,0,0,0,5.07-4.86,30.85,30.85,0,0,0,3.09-4.1c.71-1.19,1.16-2,1.36-2.38.54-1.15.54-2,0-2.59a1.81,1.81,0,0,0-2.22-.25,20.22,20.22,0,0,0-2.84,1.72,38.89,38.89,0,0,1-5,2.79,41.39,41.39,0,0,1-7.14,2.58,36,36,0,0,1-9.37,1.11,30.71,30.71,0,0,1-12.11-2.22,21,21,0,0,1-8.71-6.94,33.76,33.76,0,0,1-5.32-12.11,75.22,75.22,0,0,1-1.82-17.72c0-1.15.54-1.72,1.62-1.72m-.66-10.59c.24-1.72.59-3.61,1.07-5.67a60.76,60.76,0,0,1,1.82-6.34,29.3,29.3,0,0,1,2.78-5.92,15.29,15.29,0,0,1,4-4.36,9.2,9.2,0,0,1,5.48-1.67,9.85,9.85,0,0,1,6.68,2.38,19.58,19.58,0,0,1,4.51,5.83,28.88,28.88,0,0,1,2.58,7.29,33.5,33.5,0,0,1,.81,6.79q0,3.24-1.77,4.56a6.43,6.43,0,0,1-3.39,1.41,19.41,19.41,0,0,1-2.39.16c-1.24,0-2.73.08-4.45.15L689,300l-5.32.2-4.2.16-2,.05c-.94,0-1.35-.44-1.22-1.32s.22-2.18.46-3.9" transform="translate(-119.21 -177.06)"/><path class="cls-3" d="M119.21,356.09h0l11.52-31.19a42,42,0,0,1,53.91-24.83l-11.51,31.19a42,42,0,0,1-53.92,24.83" transform="translate(-119.21 -177.06)"/></g><g class="cls-4"><polygon class="cls-3" points="65.25 123.49 64.53 122.67 65.43 123.01 65.25 123.49"/><polygon class="cls-3" points="64.98 124.23 63.15 122.16 64.53 122.67 65.25 123.49 64.98 124.23"/><polygon class="cls-3" points="64.7 124.97 61.77 121.66 63.15 122.16 64.98 124.23 64.7 124.97"/><polygon class="cls-3" points="64.43 125.71 60.39 121.15 61.77 121.66 64.7 124.97 64.43 125.71"/><polygon class="cls-3" points="64.16 126.45 59.02 120.64 60.39 121.15 64.43 125.71 64.16 126.45"/><polygon class="cls-3" points="63.88 127.19 57.64 120.13 59.02 120.64 64.16 126.45 63.88 127.19"/><polygon class="cls-3" points="63.61 127.93 56.26 119.62 57.64 120.13 63.88 127.19 63.61 127.93"/><polygon class="cls-3" points="63.34 128.66 54.88 119.11 56.26 119.62 63.61 127.92 63.34 128.66"/><polygon class="cls-3" points="63.07 129.41 53.5 118.6 54.88 119.11 63.34 128.66 63.07 129.41"/><polygon class="cls-3" points="62.79 130.15 52.12 118.09 53.5 118.6 63.06 129.4 62.79 130.15"/><polygon class="cls-3" points="62.52 130.88 50.75 117.59 52.12 118.09 62.79 130.14 62.52 130.88"/><polygon class="cls-3" points="62.25 131.62 49.37 117.08 50.75 117.59 62.52 130.88 62.25 131.62"/><polygon class="cls-3" points="61.97 132.36 47.99 116.57 49.37 117.08 62.24 131.62 61.97 132.36"/><polygon class="cls-3" points="61.7 133.1 46.61 116.06 47.99 116.57 61.97 132.36 61.7 133.1"/><polygon class="cls-3" points="61.43 133.84 45.23 115.55 46.61 116.06 61.7 133.1 61.43 133.84"/><polygon class="cls-3" points="61.16 134.58 43.86 115.04 45.23 115.55 61.43 133.84 61.16 134.58"/><polygon class="cls-3" points="60.88 135.32 42.48 114.53 43.86 115.04 61.15 134.58 60.88 135.32"/><polygon class="cls-3" points="60.61 136.06 41.1 114.02 42.48 114.53 60.88 135.32 60.61 136.06"/><polygon class="cls-3" points="60.34 136.8 39.72 113.51 41.1 114.02 60.61 136.06 60.34 136.8"/><polygon class="cls-3" points="60.06 137.54 38.34 113 39.72 113.52 60.34 136.8 60.06 137.54"/><polygon class="cls-3" points="59.79 138.28 36.97 112.5 38.34 113 60.06 137.54 59.79 138.28"/><polygon class="cls-3" points="59.52 139.02 35.59 111.99 36.97 112.5 59.79 138.28 59.52 139.02"/><polygon class="cls-3" points="59.24 139.76 34.21 111.48 35.59 111.99 59.52 139.02 59.24 139.76"/><polygon class="cls-3" points="58.97 140.5 32.83 110.97 34.21 111.48 59.24 139.76 58.97 140.5"/><polygon class="cls-3" points="58.7 141.24 32.23 111.34 32.7 110.92 32.83 110.97 58.97 140.5 58.7 141.24"/><polygon class="cls-3" points="58.42 141.98 31.71 111.8 32.23 111.34 58.7 141.24 58.42 141.98"/><polygon class="cls-3" points="58.15 142.72 31.19 112.26 31.71 111.8 58.42 141.98 58.15 142.72"/><polygon class="cls-3" points="57.88 143.46 30.67 112.72 31.19 112.26 58.15 142.72 57.88 143.46"/><polygon class="cls-3" points="57.61 144.19 30.15 113.18 30.67 112.72 57.88 143.46 57.61 144.19"/><polygon class="cls-3" points="57.33 144.94 29.63 113.64 30.15 113.19 57.61 144.19 57.33 144.94"/><polygon class="cls-3" points="57.06 145.67 29.11 114.1 29.63 113.64 57.33 144.93 57.06 145.67"/><polygon class="cls-3" points="56.79 146.41 28.59 114.56 29.11 114.1 57.06 145.67 56.79 146.41"/><polygon class="cls-3" points="56.51 147.15 28.07 115.03 28.59 114.56 56.79 146.41 56.51 147.15"/><polygon class="cls-3" points="55.97 148.63 27.03 115.95 27.55 115.49 56.24 147.89 55.97 148.63"/><polygon class="cls-3" points="55.69 149.37 26.51 116.41 27.03 115.95 55.97 148.63 55.69 149.37"/><polygon class="cls-3" points="55.42 150.11 25.99 116.87 26.51 116.41 55.69 149.37 55.42 150.11"/><polygon class="cls-3" points="55.15 150.85 25.47 117.33 25.99 116.87 55.42 150.11 55.15 150.85"/><polygon class="cls-3" points="54.87 151.59 24.95 117.79 25.47 117.33 55.15 150.85 54.87 151.59"/><polygon class="cls-3" points="54.6 152.33 24.43 118.25 24.95 117.79 54.87 151.59 54.6 152.33"/><polygon class="cls-3" points="54.33 153.07 23.91 118.71 24.43 118.25 54.6 152.33 54.33 153.07"/><polygon class="cls-3" points="54.05 153.81 23.39 119.17 23.91 118.71 54.33 153.07 54.05 153.81"/><polygon class="cls-3" points="53.78 154.55 22.87 119.63 23.39 119.17 54.05 153.81 53.78 154.55"/><polygon class="cls-3" points="53.51 155.29 22.35 120.09 22.87 119.63 53.78 154.55 53.51 155.29"/><polygon class="cls-3" points="53.24 156.03 21.83 120.55 22.35 120.09 53.51 155.29 53.24 156.03"/><polygon class="cls-3" points="52.96 156.77 21.39 121.1 21.48 120.86 21.83 120.55 53.23 156.03 52.96 156.77"/><polygon class="cls-3" points="52.69 157.51 21.12 121.84 21.39 121.1 52.96 156.77 52.69 157.51"/><polygon class="cls-3" points="52.42 158.25 20.84 122.58 21.12 121.84 52.69 157.51 52.42 158.25"/><polygon class="cls-3" points="52.14 158.99 20.57 123.32 20.84 122.58 52.42 158.25 52.14 158.99"/><polygon class="cls-3" points="51.6 160.46 20.02 124.8 20.3 124.06 51.87 159.72 51.6 160.46"/><polygon class="cls-3" points="51.33 161.2 19.75 125.54 20.03 124.8 51.6 160.46 51.33 161.2"/><polygon class="cls-3" points="51.05 161.94 19.48 126.28 19.75 125.54 51.32 161.2 51.05 161.94"/><polygon class="cls-3" points="50.78 162.68 19.2 127.02 19.48 126.28 51.05 161.94 50.78 162.68"/><polygon class="cls-3" points="50.51 163.42 18.93 127.76 19.21 127.02 50.78 162.68 50.51 163.42"/><polygon class="cls-3" points="50.23 164.16 18.66 128.5 18.93 127.76 50.51 163.42 50.23 164.16"/><polygon class="cls-3" points="49.96 164.9 18.39 129.24 18.66 128.5 50.23 164.16 49.96 164.9"/><polygon class="cls-3" points="49.69 165.64 18.11 129.97 18.39 129.24 49.96 164.9 49.69 165.64"/><polygon class="cls-3" points="49.41 166.38 17.84 130.71 18.11 129.97 49.69 165.64 49.41 166.38"/><polyline class="cls-3" points="49.41 166.38 49.14 167.12 17.57 131.46 17.84 130.71"/><polygon class="cls-3" points="48.87 167.86 17.3 132.19 17.57 131.46 49.14 167.12 48.87 167.86"/><polygon class="cls-3" points="48.59 168.6 17.02 132.93 17.3 132.19 48.87 167.86 48.59 168.6"/><polygon class="cls-3" points="48.32 169.34 16.75 133.67 17.02 132.94 48.59 168.6 48.32 169.34"/><polygon class="cls-3" points="48.05 170.08 16.48 134.41 16.75 133.67 48.32 169.34 48.05 170.08"/><polygon class="cls-3" points="47.78 170.82 16.2 135.15 16.48 134.41 48.05 170.08 47.78 170.82"/><polygon class="cls-3" points="47.5 171.56 15.93 135.89 16.2 135.15 47.77 170.82 47.5 171.56"/><polyline class="cls-3" points="47.5 171.56 47.23 172.3 15.66 136.63 15.93 135.89"/><polygon class="cls-3" points="46.96 173.04 15.38 137.37 15.66 136.63 47.23 172.3 46.96 173.04"/><polygon class="cls-3" points="46.68 173.78 15.11 138.11 15.38 137.37 46.95 173.03 46.68 173.78"/><polygon class="cls-3" points="46.41 174.51 14.84 138.85 15.11 138.11 46.68 173.77 46.41 174.51"/><polygon class="cls-3" points="46.14 175.25 14.56 139.59 14.84 138.85 46.41 174.51 46.14 175.25"/><polygon class="cls-3" points="45.87 175.99 14.29 140.33 14.56 139.59 46.14 175.25 45.87 175.99"/><polygon class="cls-3" points="45.59 176.73 14.02 141.07 14.29 140.33 45.87 175.99 45.59 176.73"/><polygon class="cls-3" points="45.32 177.47 13.74 141.81 14.02 141.07 45.59 176.73 45.32 177.47"/><polygon class="cls-3" points="45.05 178.21 13.47 142.55 13.74 141.81 45.32 177.47 45.05 178.21"/><polygon class="cls-3" points="44.77 178.95 13.2 143.29 13.47 142.55 45.05 178.21 44.77 178.95"/><polygon class="cls-3" points="44.5 179.69 12.93 144.03 13.2 143.29 44.77 178.95 44.5 179.69"/><polygon class="cls-3" points="44.23 180.43 12.65 144.76 12.93 144.03 44.5 179.69 44.23 180.43"/><polyline class="cls-3" points="44.23 180.43 43.95 181.17 12.38 145.5 12.65 144.76"/><polygon class="cls-3" points="43.95 181.18 43.44 181.63 12.11 146.24 12.38 145.51 43.95 181.17 43.95 181.18"/><polygon class="cls-3" points="43.44 181.63 42.91 182.09 11.83 146.98 12.11 146.24 43.44 181.63"/><polygon class="cls-3" points="42.91 182.09 42.4 182.55 11.56 147.72 11.83 146.98 42.91 182.09"/><polyline class="cls-3" points="42.39 182.55 41.87 183.01 11.29 148.46 11.56 147.72"/><polygon class="cls-3" points="41.87 183.01 41.35 183.48 11.02 149.2 11.29 148.46 41.87 183.01"/><polygon class="cls-3" points="41.35 183.47 40.84 183.94 10.74 149.94 11.01 149.2 41.35 183.47"/><polygon class="cls-3" points="40.84 183.94 40.31 184.4 10.47 150.68 10.74 149.94 40.84 183.94"/><polygon class="cls-3" points="39.79 184.86 39.27 185.32 9.92 152.16 10.2 151.42 39.79 184.86"/><polygon class="cls-3" points="39.27 185.32 38.75 185.78 9.65 152.9 9.92 152.16 39.27 185.32"/><polygon class="cls-3" points="38.75 185.78 38.23 186.24 9.38 153.64 9.65 152.9 38.75 185.78"/><polygon class="cls-3" points="38.23 186.24 37.71 186.7 9.1 154.38 9.38 153.64 38.23 186.24"/><polygon class="cls-3" points="37.71 186.7 37.19 187.16 8.83 155.12 9.1 154.38 37.71 186.7"/><polygon class="cls-3" points="37.19 187.16 36.67 187.62 8.56 155.86 8.83 155.12 37.19 187.16"/><polygon class="cls-3" points="36.67 187.62 36.15 188.08 8.29 156.6 8.56 155.86 36.67 187.62"/><polygon class="cls-3" points="36.15 188.08 35.63 188.54 8.01 157.34 8.28 156.59 36.15 188.08"/><polygon class="cls-3" points="35.63 188.54 35.11 189 7.74 158.07 8.01 157.34 35.63 188.54"/><polygon class="cls-3" points="35.11 189 34.59 189.46 7.47 158.82 7.74 158.08 35.11 189"/><polygon class="cls-3" points="34.59 189.46 34.07 189.92 7.19 159.56 7.47 158.81 34.59 189.46"/><polygon class="cls-3" points="34.07 189.92 33.55 190.38 6.92 160.29 7.19 159.56 34.07 189.92"/><polygon class="cls-3" points="33.55 190.38 33.03 190.84 6.65 161.03 6.92 160.29 33.55 190.38"/><polygon class="cls-3" points="33.03 190.84 32.72 191.12 32.16 190.91 6.37 161.77 6.65 161.03 33.03 190.84"/><polygon class="cls-3" points="30.79 190.4 6.1 162.51 6.37 161.77 32.16 190.91 30.79 190.4"/><polygon class="cls-3" points="29.41 189.89 5.83 163.25 6.1 162.51 30.79 190.4 29.41 189.89"/><polygon class="cls-3" points="28.03 189.38 5.55 163.99 5.83 163.25 29.41 189.89 28.03 189.38"/><polygon class="cls-3" points="26.65 188.87 5.28 164.73 5.55 163.99 28.03 189.38 26.65 188.87"/><polyline class="cls-3" points="26.65 188.87 25.27 188.36 5.01 165.47 5.28 164.73"/><polygon class="cls-3" points="23.9 187.86 4.74 166.21 5.01 165.47 25.27 188.37 23.9 187.86"/><polygon class="cls-3" points="22.52 187.35 4.46 166.95 4.74 166.21 23.9 187.86 22.52 187.35"/><polygon class="cls-3" points="21.14 186.84 4.19 167.69 4.46 166.95 22.52 187.35 21.14 186.84"/><polygon class="cls-3" points="19.76 186.33 3.92 168.43 4.19 167.69 21.14 186.84 19.76 186.33"/><polygon class="cls-3" points="18.38 185.82 3.64 169.17 3.92 168.43 19.76 186.33 18.38 185.82"/><polygon class="cls-3" points="17 185.31 3.37 169.91 3.64 169.17 18.38 185.82 17 185.31"/><polygon class="cls-3" points="15.63 184.8 3.1 170.65 3.37 169.91 17 185.31 15.63 184.8"/><polygon class="cls-3" points="14.25 184.29 2.82 171.39 3.1 170.65 15.63 184.8 14.25 184.29"/><polygon class="cls-3" points="12.87 183.78 2.55 172.13 2.82 171.39 14.25 184.29 12.87 183.78"/><polygon class="cls-3" points="11.49 183.28 2.28 172.87 2.55 172.13 12.87 183.79 11.49 183.28"/><polygon class="cls-3" points="10.11 182.77 2 173.61 2.28 172.87 11.49 183.28 10.11 182.77"/><polygon class="cls-3" points="8.74 182.26 1.73 174.35 2 173.61 10.11 182.77 8.74 182.26"/><polygon class="cls-3" points="1.73 174.35 8.74 182.26 0 179.03 1.73 174.35"/></g><g class="cls-2"><path class="cls-5" d="M202.62,402.89a9.83,9.83,0,0,1-3.94-3.67,10.73,10.73,0,0,1,0-10.67,9.83,9.83,0,0,1,3.94-3.67,12,12,0,0,1,5.63-1.31,12.33,12.33,0,0,1,5.13,1,9.57,9.57,0,0,1,3.72,2.93l-4.2,3.74a5.38,5.38,0,0,0-4.31-2.3,4.43,4.43,0,0,0-3.36,1.33,5.72,5.72,0,0,0,0,7.19,4.44,4.44,0,0,0,3.36,1.34,5.37,5.37,0,0,0,4.31-2.32l4.2,3.75a9.48,9.48,0,0,1-3.72,2.93,12.33,12.33,0,0,1-5.13,1,12,12,0,0,1-5.63-1.31" transform="translate(-119.21 -177.06)"/><path class="cls-5" d="M228.84,402.87a10.11,10.11,0,0,1,0-18,13,13,0,0,1,11.44,0,10.1,10.1,0,0,1,0,18,13,13,0,0,1-11.44,0m8-4.66a4.43,4.43,0,0,0,1.6-1.72,6,6,0,0,0,0-5.21,4.36,4.36,0,0,0-1.6-1.72,4.24,4.24,0,0,0-2.24-.6,4.29,4.29,0,0,0-2.24.6,4.41,4.41,0,0,0-1.59,1.72,6,6,0,0,0,0,5.21,4.48,4.48,0,0,0,1.59,1.72,4.3,4.3,0,0,0,2.24.61,4.25,4.25,0,0,0,2.24-.61" transform="translate(-119.21 -177.06)"/><polygon class="cls-5" points="153.98 206.96 153.98 226.69 148.51 226.69 141.02 217.72 141.02 226.69 134.54 226.69 134.54 206.96 140 206.96 147.5 215.92 147.5 206.96 153.98 206.96"/><path class="cls-5" d="M284.62,403.65a12.85,12.85,0,0,1-3.82-1.48l2.14-4.85a13.53,13.53,0,0,0,3.15,1.31,12.36,12.36,0,0,0,3.36.49,5.2,5.2,0,0,0,2-.26.86.86,0,0,0,.59-.81c0-.41-.26-.72-.77-.92a15.93,15.93,0,0,0-2.55-.68,28.43,28.43,0,0,1-3.81-1,6.59,6.59,0,0,1-2.65-1.8,4.91,4.91,0,0,1-1.12-3.4,5.87,5.87,0,0,1,1-3.38,6.91,6.91,0,0,1,3.11-2.39,12.79,12.79,0,0,1,5-.88,18.41,18.41,0,0,1,4,.44,12.67,12.67,0,0,1,3.45,1.28l-2,4.82a12.17,12.17,0,0,0-5.49-1.46c-1.72,0-2.57.41-2.57,1.23,0,.4.26.69.76.89a16.45,16.45,0,0,0,2.51.64,25.07,25.07,0,0,1,3.8,1,6.57,6.57,0,0,1,2.7,1.79,4.8,4.8,0,0,1,1.13,3.38,5.71,5.71,0,0,1-1,3.36,6.94,6.94,0,0,1-3.11,2.4,12.79,12.79,0,0,1-5,.89,21,21,0,0,1-4.77-.55" transform="translate(-119.21 -177.06)"/><path class="cls-5" d="M308.55,401.75a9.14,9.14,0,0,1-2.54-6.88V384h6.65v10.65a5.11,5.11,0,0,0,.78,3.16,3,3,0,0,0,4.48,0,5.19,5.19,0,0,0,.77-3.16V384h6.54v10.85a9.14,9.14,0,0,1-2.54,6.88,11.43,11.43,0,0,1-14.14,0" transform="translate(-119.21 -177.06)"/><polygon class="cls-5" points="232.3 226.69 232.25 217.7 227.96 224.91 225.03 224.91 220.75 218.01 220.75 226.69 214.69 226.69 214.69 206.96 220.16 206.96 226.58 217.47 232.84 206.96 238.3 206.96 238.36 226.69 232.3 226.69"/><path class="cls-5" d="M371,402.87a9.94,9.94,0,0,1-4-3.67,10.1,10.1,0,0,1,4-14.3,13,13,0,0,1,11.44,0,10.11,10.11,0,0,1,0,18,13,13,0,0,1-11.44,0m7.95-4.66a4.43,4.43,0,0,0,1.6-1.72,6,6,0,0,0,0-5.21,4.36,4.36,0,0,0-1.6-1.72,4.23,4.23,0,0,0-2.23-.6,4.3,4.3,0,0,0-2.25.6,4.41,4.41,0,0,0-1.59,1.72,6,6,0,0,0,0,5.21,4.48,4.48,0,0,0,1.59,1.72,4.31,4.31,0,0,0,2.25.61,4.24,4.24,0,0,0,2.23-.61" transform="translate(-119.21 -177.06)"/><path class="cls-5" d="M414.59,402.89a9.87,9.87,0,0,1-3.93-3.67,10.73,10.73,0,0,1,0-10.67,9.87,9.87,0,0,1,3.93-3.67,12,12,0,0,1,5.64-1.31,12.33,12.33,0,0,1,5.13,1,9.57,9.57,0,0,1,3.72,2.93l-4.2,3.74a5.38,5.38,0,0,0-4.31-2.3,4.43,4.43,0,0,0-3.36,1.33,5.72,5.72,0,0,0,0,7.19,4.44,4.44,0,0,0,3.36,1.34,5.37,5.37,0,0,0,4.31-2.32l4.2,3.75a9.48,9.48,0,0,1-3.72,2.93,12.33,12.33,0,0,1-5.13,1,12,12,0,0,1-5.64-1.31" transform="translate(-119.21 -177.06)"/><path class="cls-5" d="M440.82,402.87a10.11,10.11,0,0,1,0-18,13,13,0,0,1,11.44,0,10.11,10.11,0,0,1,0,18,13,13,0,0,1-11.44,0m8-4.66a4.34,4.34,0,0,0,1.59-1.72,6,6,0,0,0,0-5.21,4.37,4.37,0,0,0-6.07-1.72,4.41,4.41,0,0,0-1.59,1.72,6,6,0,0,0,0,5.21,4.48,4.48,0,0,0,1.59,1.72,4.3,4.3,0,0,0,2.24.61,4.25,4.25,0,0,0,2.24-.61" transform="translate(-119.21 -177.06)"/><polygon class="cls-5" points="365.95 206.96 365.95 226.69 360.49 226.69 352.99 217.72 352.99 226.69 346.51 226.69 346.51 206.96 351.98 206.96 359.47 215.92 359.47 206.96 365.95 206.96"/><path class="cls-5" d="M496.59,403.65a13,13,0,0,1-3.82-1.48l2.15-4.85a13.53,13.53,0,0,0,3.15,1.31,12.29,12.29,0,0,0,3.35.49,5.26,5.26,0,0,0,2-.26.87.87,0,0,0,.59-.81c0-.41-.26-.72-.78-.92a15.34,15.34,0,0,0-2.55-.68,28.24,28.24,0,0,1-3.8-1,6.59,6.59,0,0,1-2.65-1.8,4.91,4.91,0,0,1-1.13-3.4,5.81,5.81,0,0,1,1.05-3.38,6.86,6.86,0,0,1,3.11-2.39,12.79,12.79,0,0,1,5-.88,18.25,18.25,0,0,1,4,.44,12.62,12.62,0,0,1,3.46,1.28l-2,4.82a12.21,12.21,0,0,0-5.5-1.46c-1.71,0-2.56.41-2.56,1.23,0,.4.25.69.76.89a16.13,16.13,0,0,0,2.51.64,25.07,25.07,0,0,1,3.8,1,6.54,6.54,0,0,1,2.69,1.79,4.8,4.8,0,0,1,1.14,3.38,5.78,5.78,0,0,1-1,3.36,7,7,0,0,1-3.11,2.4,12.79,12.79,0,0,1-5,.89,21.11,21.11,0,0,1-4.78-.55" transform="translate(-119.21 -177.06)"/><path class="cls-5" d="M522.72,402.89a9.87,9.87,0,0,1-3.93-3.67,10.73,10.73,0,0,1,0-10.67,9.87,9.87,0,0,1,3.93-3.67,12,12,0,0,1,5.64-1.31,12.36,12.36,0,0,1,5.13,1,9.47,9.47,0,0,1,3.71,2.93L533,391.26a5.38,5.38,0,0,0-4.31-2.3,4.43,4.43,0,0,0-3.36,1.33,5.72,5.72,0,0,0,0,7.19,4.44,4.44,0,0,0,3.36,1.34A5.37,5.37,0,0,0,533,396.5l4.19,3.75a9.38,9.38,0,0,1-3.71,2.93,12.36,12.36,0,0,1-5.13,1,12,12,0,0,1-5.64-1.31" transform="translate(-119.21 -177.06)"/><rect class="cls-5" x="425.54" y="206.96" width="6.65" height="19.72"/><polygon class="cls-5" points="457.44 221.67 457.44 226.69 441.04 226.69 441.04 206.96 457.07 206.96 457.07 211.98 447.57 211.98 447.57 214.29 455.91 214.29 455.91 219.08 447.57 219.08 447.57 221.67 457.44 221.67"/><polygon class="cls-5" points="485.07 206.96 485.07 226.69 479.61 226.69 472.11 217.72 472.11 226.69 465.63 226.69 465.63 206.96 471.1 206.96 478.59 215.92 478.59 206.96 485.07 206.96"/><polygon class="cls-5" points="498.2 212.12 492.43 212.12 492.43 206.96 510.63 206.96 510.63 212.12 504.85 212.12 504.85 226.69 498.2 226.69 498.2 212.12"/><polygon class="cls-5" points="534.38 221.67 534.38 226.69 517.98 226.69 517.98 206.96 534.01 206.96 534.01 211.98 524.51 211.98 524.51 214.29 532.85 214.29 532.85 219.08 524.51 219.08 524.51 221.67 534.38 221.67"/></g></g></svg>