<svg id="Capa_1" data-name="Capa 1" xmlns="http://www.w3.org/2000/svg" xmlns:xlink="http://www.w3.org/1999/xlink" viewBox="0 0 841.89 595.28"><defs><style>.cls-1{fill:none;}.cls-2{clip-path:url(#clip-path);}.cls-3{fill:#fff;}.cls-4{clip-path:url(#clip-path-3);}</style><clipPath id="clip-path"><rect id="SVGID" class="cls-1" x="63.73" y="142.23" width="716.41" height="303.06"/></clipPath><clipPath id="clip-path-3"><path id="SVGID-3" data-name="SVGID" class="cls-1" d="M131.47,325.32,120,356.5a42,42,0,0,0,53.89-24.82l11.52-31.18a41.91,41.91,0,0,0-53.89,24.82"/></clipPath></defs><g class="cls-2"><g class="cls-2"><path class="cls-3" d="M203.54,301.14c-.07-.2-.39-1.2-1-3s-1.33-4.08-2.28-6.88-2-6-3.14-9.47-2.33-7.07-3.54-10.68-2.4-7.15-3.55-10.63-2.17-6.58-3.08-9.32l-2.23-6.63c-.58-1.69-.86-2.56-.86-2.63s-.09-.12-.12-.19l19.85,60a1.68,1.68,0,0,0-.09-.58"/><path class="cls-3" d="M173.94,218.22q4-1.83,9.32-4.71t10.37-6.38a101.44,101.44,0,0,0,9.47-7.29,34.54,34.54,0,0,0,6.58-7.34,17.09,17.09,0,0,0,1.72-3.75,12.07,12.07,0,0,0,.66-4.1,8,8,0,0,0-1-3.69,6.16,6.16,0,0,0-3.09-2.64,7.86,7.86,0,0,0-3.9-.75,9.81,9.81,0,0,0-3.54,1,11.77,11.77,0,0,0-3.09,2.17,22.67,22.67,0,0,0-2.53,2.89c-.14.14-.73,1-1.77,2.48s-2.33,3.39-3.85,5.62l-5,7.29q-2.69,3.95-5.11,7.54c-1.63,2.4-3.06,4.51-4.31,6.33s-2.07,3-2.48,3.65-.44,1.21-.1,1.61.88.44,1.62.11"/><path class="cls-3" d="M259.19,358.55a1.15,1.15,0,0,1,.25-1,2,2,0,0,1,1.09-.63,2,2,0,0,0-.83-.44A21,21,0,0,1,254,354.7a21.28,21.28,0,0,1-5.22-3.59,28.32,28.32,0,0,1-4.55-5.47,35,35,0,0,1-3.6-7.54q-.81-2.24-2.83-8.46t-4.91-14.83q-2.89-8.61-6.33-18.93t-6.94-20.76q-3.5-10.42-6.73-20.25t-5.82-17.46Q204.52,229.76,203,225t-1.67-5.06a3.07,3.07,0,0,0-1.27-1.62c-.51-.27-1.33-.14-2.48.4A53.06,53.06,0,0,1,192,220.8c-2,.64-4.07,1.23-6.12,1.77s-4.07,1.05-6,1.52-3.68.84-5.16,1.11a3.5,3.5,0,0,0-1.93.81,4.73,4.73,0,0,0-1,1.73l-.93,2.66,3.74,11.32c0,.07.1.1.13.19s.28,1,.86,2.63,1.32,3.9,2.23,6.63,1.94,5.84,3.09,9.32,2.32,7,3.54,10.63,2.39,7.17,3.54,10.68,2.19,6.67,3.14,9.47,1.7,5.1,2.28,6.88.89,2.79,1,3a1.47,1.47,0,0,1,.09.58l2.51,7.6a1.39,1.39,0,0,1,.34.53q.09.4.81,2.43c.47,1.35,1,3,1.62,4.91s1.3,4,2.07,6.28,1.5,4.45,2.18,6.58,1.3,4.06,1.87,5.82,1,3.07,1.37,3.95c1.08,3.24,1.18,5.9.3,8a12.25,12.25,0,0,1-3.69,5,15.55,15.55,0,0,1-5,2.68l-3.6,1.12a2.43,2.43,0,0,0-1.36.81,1.2,1.2,0,0,0-.21,1.06,2,2,0,0,0,.61,1,1.69,1.69,0,0,0,1.16.4H259a2.19,2.19,0,0,0,1-.24,1.56,1.56,0,0,1-.28-.16,1.62,1.62,0,0,1-.56-.91"/><path class="cls-3" d="M343,270.11a13.19,13.19,0,0,0-4.76-2.84,21.22,21.22,0,0,0-7.19-1.06,24.92,24.92,0,0,0-13.66,3.85,26,26,0,0,0-9.63,11.64V267.22c0-.94-.32-1.45-1-1.52a2.8,2.8,0,0,0-1.87.51,82.56,82.56,0,0,1-7.8,4.61q-4.35,2.26-9,4.25c-3.1,1.31-6.19,2.5-9.26,3.54a85.34,85.34,0,0,1-8.56,2.48q-1.51.41-1.47,1.47c0,.71.49,1.16,1.37,1.37.21.07.76.2,1.67.4s1.91.44,3,.71l2.89.71a12.07,12.07,0,0,0,1.46.3,1.51,1.51,0,0,1,1.22,1.62v57.11a12.62,12.62,0,0,1-1.37,6.38,10.86,10.86,0,0,1-3.14,3.54,11.32,11.32,0,0,1-3.49,1.67,23.31,23.31,0,0,1-2.53.56l-.08,0a2,2,0,0,0-1.09.63,1.15,1.15,0,0,0-.25,1,1.62,1.62,0,0,0,.56.91,1.56,1.56,0,0,0,.28.16,2,2,0,0,0,1,.24h47.59a1.86,1.86,0,0,0,1.27-.4,1.66,1.66,0,0,0,.55-.91,1.15,1.15,0,0,0-.25-1,2,2,0,0,0-1.17-.66,23.31,23.31,0,0,1-2.53-.56,11.22,11.22,0,0,1-3.49-1.67,10.86,10.86,0,0,1-3.14-3.54,12.62,12.62,0,0,1-1.37-6.38v-35a78.82,78.82,0,0,1,1.12-14.68,34.32,34.32,0,0,1,2.78-8.91,10.61,10.61,0,0,1,3.65-4.41,7.38,7.38,0,0,1,3.69-1.16A4.24,4.24,0,0,1,322.2,282c.88.95,1.84,2,2.89,3.09a19.28,19.28,0,0,0,3.8,3.09,11.38,11.38,0,0,0,6.17,1.42,12,12,0,0,0,8.25-2.74,9.6,9.6,0,0,0,3.09-7.59,15.43,15.43,0,0,0-.81-5,10.28,10.28,0,0,0-2.63-4.15"/><path class="cls-3" d="M452.66,292.23a44.85,44.85,0,0,0-4.55-9.82,34.12,34.12,0,0,0-7.29-8.3,33.63,33.63,0,0,0-10.48-5.77,42.86,42.86,0,0,0-14.18-2.13,41,41,0,0,0-12.7,1.77,39.81,39.81,0,0,0-9.12,4.15,28.89,28.89,0,0,0-5.82,4.76c-1.41,1.59-2.43,2.75-3,3.49-.2.34-.44.48-.7.41a.89.89,0,0,1-.61-.51V210.12c0-1-.32-1.45-1-1.52a2.8,2.8,0,0,0-1.88.5,79.07,79.07,0,0,1-7.79,4.61q-4.37,2.28-9,4.25t-9.27,3.55q-4.61,1.56-8.55,2.48c-1,.2-1.51.67-1.47,1.42s.48,1.21,1.37,1.41a10.22,10.22,0,0,1,1.66.36c.92.23,1.91.47,3,.7s2,.48,2.89.71a10.31,10.31,0,0,0,1.46.36,1.49,1.49,0,0,1,1.22,1.62v9.92c0,3.11,0,6.75-.05,10.94s0,8.74,0,13.67v98.41a1.58,1.58,0,0,0,.91,1.67,1.47,1.47,0,0,0,1.72-.55c.88-1,2-2.23,3.49-3.65s2.92-2.84,4.41-4.25,2.88-2.72,4.2-3.9,2.34-2.08,3.09-2.68c.34-.34.62-.48.86-.41a2.29,2.29,0,0,1,.76.41,66.31,66.31,0,0,0,6.83,5.31,36.1,36.1,0,0,0,7.4,3.8,46.41,46.41,0,0,0,8.85,2.33,70.27,70.27,0,0,0,11.25.81,51.19,51.19,0,0,0,19.84-3.55,36.88,36.88,0,0,0,14.12-10.12,43.07,43.07,0,0,0,8.4-15.8,71.1,71.1,0,0,0,2.79-20.65,76.81,76.81,0,0,0-.66-9.72,56.47,56.47,0,0,0-2.33-10.33m-27.59,40.45a44.1,44.1,0,0,1-3.89,12.55,22.8,22.8,0,0,1-6.89,8.36,16.93,16.93,0,0,1-10.18,3,16,16,0,0,1-9.82-2.89,20.9,20.9,0,0,1-6.07-7.14,31,31,0,0,1-3.09-9,49.1,49.1,0,0,1-.86-8.6V301.65a42.35,42.35,0,0,1,.71-7.24,21.9,21.9,0,0,1,2.93-7.75,18.74,18.74,0,0,1,6.38-6.18q4.15-2.52,11-2.53a16.67,16.67,0,0,1,9,2.28,19.35,19.35,0,0,1,6,5.83,27.72,27.72,0,0,1,3.54,8,64.52,64.52,0,0,1,1.77,8.81,73.5,73.5,0,0,1,.61,8.1q0,3.75.05,6.08a94.63,94.63,0,0,1-1.22,15.64"/><path class="cls-3" d="M549.61,280a45.59,45.59,0,0,0-15-10.13,51.5,51.5,0,0,0-38.68.16,49,49,0,0,0-26.28,26,46.67,46.67,0,0,0-3.84,18.78,48.69,48.69,0,0,0,3.54,18.68,46.59,46.59,0,0,0,9.82,15.09,45.5,45.5,0,0,0,15,10.12,48.9,48.9,0,0,0,19.18,3.7,49.36,49.36,0,0,0,45.77-29.77A46.6,46.6,0,0,0,563,313.8a49,49,0,0,0-3.54-18.63A46.55,46.55,0,0,0,549.61,280M532.4,330.91a60.77,60.77,0,0,1-3.6,13.62,25.42,25.42,0,0,1-6,9.16,12.37,12.37,0,0,1-16.91,0,26,26,0,0,1-6-9.16,57.72,57.72,0,0,1-3.6-13.62,119.43,119.43,0,0,1,0-33.21,57.59,57.59,0,0,1,3.6-13.62,25.93,25.93,0,0,1,6-9.16,12.37,12.37,0,0,1,16.91,0,25.33,25.33,0,0,1,6,9.16,60.62,60.62,0,0,1,3.6,13.62,114.54,114.54,0,0,1,0,33.21"/><path class="cls-3" d="M643.77,270.11a13.19,13.19,0,0,0-4.76-2.84,21.22,21.22,0,0,0-7.19-1.06,25,25,0,0,0-13.67,3.85,26,26,0,0,0-9.62,11.64V267.22c0-.94-.32-1.45-1-1.52a2.8,2.8,0,0,0-1.87.51,81.31,81.31,0,0,1-7.8,4.61q-4.35,2.26-9,4.25c-3.1,1.31-6.19,2.5-9.26,3.54a84.59,84.59,0,0,1-8.56,2.48q-1.52.41-1.47,1.47c0,.71.5,1.16,1.37,1.37.21.07.76.2,1.67.4s1.91.44,3,.71l2.89.71a12.07,12.07,0,0,0,1.46.3,1.51,1.51,0,0,1,1.22,1.62v57.11a12.62,12.62,0,0,1-1.37,6.38,10.86,10.86,0,0,1-3.14,3.54,11.22,11.22,0,0,1-3.49,1.67,23.31,23.31,0,0,1-2.53.56,2,2,0,0,0-1.17.66,1.15,1.15,0,0,0-.25,1,1.62,1.62,0,0,0,.56.91,1.82,1.82,0,0,0,1.26.4h47.59a1.86,1.86,0,0,0,1.27-.4,1.66,1.66,0,0,0,.55-.91,1.12,1.12,0,0,0-.25-1,2,2,0,0,0-1.16-.66,22.86,22.86,0,0,1-2.54-.56A11.32,11.32,0,0,1,613,354.7a10.86,10.86,0,0,1-3.14-3.54,12.62,12.62,0,0,1-1.37-6.38v-35a78.82,78.82,0,0,1,1.12-14.68,34.32,34.32,0,0,1,2.78-8.91,10.61,10.61,0,0,1,3.65-4.41,7.41,7.41,0,0,1,3.69-1.16A4.27,4.27,0,0,1,623,282q1.31,1.42,2.88,3.09a19.58,19.58,0,0,0,3.8,3.09,11.38,11.38,0,0,0,6.17,1.42,12,12,0,0,0,8.26-2.74,9.63,9.63,0,0,0,3.08-7.59,15.43,15.43,0,0,0-.81-5,10.28,10.28,0,0,0-2.63-4.15"/><path class="cls-3" d="M677.89,306.2H730a3.36,3.36,0,0,0,1.77-.4,1.53,1.53,0,0,0,.66-1.42,34.14,34.14,0,0,0-.71-6,40.31,40.31,0,0,0-2.48-8,49.82,49.82,0,0,0-4.65-8.56,34.54,34.54,0,0,0-7.3-7.79,36.59,36.59,0,0,0-10.42-5.67A41,41,0,0,0,693,266.21a44.55,44.55,0,0,0-31,12.71,47.47,47.47,0,0,0-10.33,15.44,53.31,53.31,0,0,0-3.94,21.16,56.7,56.7,0,0,0,3.19,19.64,41.72,41.72,0,0,0,9,14.78,38.45,38.45,0,0,0,14,9.27,50.31,50.31,0,0,0,18.32,3.19A49.66,49.66,0,0,0,704.37,361a46.73,46.73,0,0,0,9.61-3.49,38.11,38.11,0,0,0,7.24-4.66,43.42,43.42,0,0,0,5.06-4.86,29.4,29.4,0,0,0,3.09-4.1c.71-1.18,1.17-2,1.37-2.38q.81-1.73,0-2.58a1.84,1.84,0,0,0-2.23-.26,21.24,21.24,0,0,0-2.83,1.73,40.24,40.24,0,0,1-5,2.78,41.39,41.39,0,0,1-7.14,2.58,35.93,35.93,0,0,1-9.37,1.12,30.69,30.69,0,0,1-12.1-2.23,20.94,20.94,0,0,1-8.7-6.94,33.71,33.71,0,0,1-5.32-12.1,75.1,75.1,0,0,1-1.82-17.72c0-1.14.54-1.72,1.62-1.72m-.66-10.58q.36-2.58,1.06-5.67a60.72,60.72,0,0,1,1.83-6.33,29,29,0,0,1,2.78-5.92,15,15,0,0,1,4-4.35,9.1,9.1,0,0,1,5.47-1.67,9.8,9.8,0,0,1,6.68,2.38,19.41,19.41,0,0,1,4.51,5.82,28.74,28.74,0,0,1,2.58,7.29,33.25,33.25,0,0,1,.8,6.78c0,2.16-.58,3.68-1.76,4.56a6.51,6.51,0,0,1-3.4,1.42,22.35,22.35,0,0,1-2.38.15c-1.24,0-2.73.08-4.45.15l-5.42.2-5.31.21-4.21.15-2,0c-1,0-1.35-.44-1.22-1.32s.22-2.18.46-3.9"/><path class="cls-3" d="M120,356.5h0l11.51-31.18a42,42,0,0,1,53.89-24.82l-11.51,31.18A42,42,0,0,1,120,356.5"/></g><g class="cls-4"><polygon class="cls-3" points="185.18 300.98 184.46 300.17 185.36 300.5 185.18 300.98"/><polygon class="cls-3" points="184.91 301.72 183.08 299.66 184.46 300.17 185.18 300.98 184.91 301.72"/><polygon class="cls-3" points="184.63 302.46 181.7 299.15 183.08 299.66 184.91 301.72 184.63 302.46"/><polygon class="cls-3" points="184.36 303.2 180.32 298.64 181.7 299.15 184.63 302.46 184.36 303.2"/><polygon class="cls-3" points="184.09 303.94 178.95 298.13 180.32 298.64 184.36 303.2 184.09 303.94"/><polygon class="cls-3" points="183.81 304.68 177.57 297.62 178.95 298.13 184.09 303.94 183.81 304.68"/><polygon class="cls-3" points="183.54 305.42 176.19 297.11 177.57 297.62 183.81 304.68 183.54 305.42"/><polygon class="cls-3" points="183.27 306.15 174.81 296.61 176.19 297.11 183.54 305.42 183.27 306.15"/><polygon class="cls-3" points="183 306.89 173.44 296.1 174.81 296.6 183.27 306.15 183 306.89"/><polygon class="cls-3" points="182.72 307.63 172.06 295.59 173.44 296.1 182.99 306.89 182.72 307.63"/><polygon class="cls-3" points="182.45 308.37 170.68 295.08 172.06 295.59 182.72 307.63 182.45 308.37"/><polygon class="cls-3" points="182.18 309.11 169.3 294.57 170.68 295.08 182.45 308.37 182.18 309.11"/><polygon class="cls-3" points="181.9 309.85 167.93 294.06 169.3 294.57 182.18 309.11 181.9 309.85"/><polygon class="cls-3" points="181.63 310.59 166.55 293.55 167.93 294.06 181.9 309.85 181.63 310.59"/><polygon class="cls-3" points="181.36 311.33 165.17 293.04 166.55 293.55 181.63 310.59 181.36 311.33"/><polygon class="cls-3" points="181.08 312.07 163.79 292.54 165.17 293.04 181.36 311.33 181.08 312.07"/><polygon class="cls-3" points="180.81 312.81 162.41 292.03 163.79 292.54 181.08 312.07 180.81 312.81"/><polygon class="cls-3" points="180.54 313.55 161.04 291.52 162.41 292.02 180.81 312.81 180.54 313.55"/><polygon class="cls-3" points="180.27 314.29 159.66 291.01 161.04 291.52 180.54 313.55 180.27 314.29"/><polygon class="cls-3" points="179.99 315.02 158.28 290.5 159.66 291.01 180.26 314.29 179.99 315.02"/><polygon class="cls-3" points="179.72 315.76 156.91 289.99 158.28 290.5 179.99 315.02 179.72 315.76"/><polygon class="cls-3" points="179.45 316.5 155.53 289.48 156.9 289.99 179.72 315.76 179.45 316.5"/><polygon class="cls-3" points="179.17 317.24 154.15 288.97 155.53 289.48 179.45 316.5 179.17 317.24"/><polygon class="cls-3" points="178.9 317.98 152.77 288.46 154.15 288.98 179.18 317.24 178.9 317.98"/><polygon class="cls-3" points="178.63 318.72 152.17 288.84 152.65 288.42 152.77 288.46 178.9 317.98 178.63 318.72"/><polygon class="cls-3" points="178.36 319.46 151.66 289.3 152.18 288.84 178.63 318.72 178.36 319.46"/><polygon class="cls-3" points="178.08 320.2 151.14 289.76 151.66 289.3 178.36 319.46 178.08 320.2"/><polygon class="cls-3" points="177.81 320.94 150.62 290.22 151.13 289.76 178.08 320.2 177.81 320.94"/><polygon class="cls-3" points="177.54 321.68 150.1 290.68 150.61 290.22 177.81 320.94 177.54 321.68"/><polygon class="cls-3" points="177.26 322.42 149.58 291.14 150.1 290.68 177.54 321.68 177.26 322.42"/><polygon class="cls-3" points="176.99 323.16 149.06 291.6 149.58 291.14 177.26 322.42 176.99 323.16"/><polygon class="cls-3" points="176.72 323.9 148.53 292.06 149.06 291.6 176.99 323.16 176.72 323.9"/><polygon class="cls-3" points="176.44 324.63 148.02 292.52 148.53 292.06 176.72 323.89 176.44 324.63"/><polygon class="cls-3" points="175.9 326.11 146.98 293.44 147.5 292.98 176.17 325.37 175.9 326.11"/><polygon class="cls-3" points="175.63 326.85 146.45 293.9 146.98 293.44 175.9 326.11 175.63 326.85"/><polygon class="cls-3" points="175.35 327.59 145.94 294.36 146.46 293.9 175.62 326.85 175.35 327.59"/><polygon class="cls-3" points="175.08 328.33 145.42 294.82 145.94 294.36 175.35 327.59 175.08 328.33"/><polygon class="cls-3" points="174.81 329.07 144.9 295.28 145.42 294.82 175.08 328.33 174.81 329.07"/><polygon class="cls-3" points="174.53 329.81 144.38 295.74 144.9 295.28 174.81 329.07 174.53 329.81"/><polygon class="cls-3" points="174.26 330.55 143.86 296.2 144.38 295.74 174.53 329.81 174.26 330.55"/><polygon class="cls-3" points="173.99 331.29 143.34 296.66 143.86 296.2 174.26 330.55 173.99 331.29"/><polygon class="cls-3" points="173.72 332.03 142.82 297.12 143.34 296.66 173.99 331.29 173.72 332.03"/><polygon class="cls-3" points="173.44 332.77 142.29 297.58 142.82 297.12 173.71 332.03 173.44 332.77"/><polygon class="cls-3" points="173.17 333.51 141.78 298.04 142.29 297.58 173.44 332.77 173.17 333.51"/><polygon class="cls-3" points="172.9 334.24 141.34 298.59 141.43 298.36 141.78 298.04 173.17 333.5 172.9 334.24"/><polygon class="cls-3" points="172.62 334.98 141.06 299.33 141.34 298.6 172.9 334.24 172.62 334.98"/><polygon class="cls-3" points="172.35 335.72 140.79 300.07 141.06 299.33 172.62 334.98 172.35 335.72"/><polygon class="cls-3" points="172.08 336.46 140.52 300.81 140.79 300.07 172.35 335.72 172.08 336.46"/><polygon class="cls-3" points="171.53 337.94 139.97 302.29 140.25 301.55 171.81 337.2 171.53 337.94"/><polygon class="cls-3" points="171.26 338.68 139.7 303.03 139.97 302.29 171.53 337.94 171.26 338.68"/><polygon class="cls-3" points="170.99 339.42 139.43 303.77 139.7 303.03 171.26 338.68 170.99 339.42"/><polygon class="cls-3" points="170.71 340.16 139.15 304.51 139.43 303.77 170.99 339.42 170.71 340.16"/><polygon class="cls-3" points="170.44 340.9 138.88 305.25 139.15 304.51 170.71 340.16 170.44 340.9"/><polygon class="cls-3" points="170.17 341.64 138.61 305.99 138.88 305.25 170.44 340.9 170.17 341.64"/><polygon class="cls-3" points="169.89 342.38 138.33 306.72 138.61 305.99 170.17 341.63 169.89 342.38"/><polygon class="cls-3" points="169.62 343.12 138.06 307.46 138.34 306.72 169.89 342.38 169.62 343.12"/><polygon class="cls-3" points="169.35 343.85 137.79 308.2 138.06 307.46 169.62 343.11 169.35 343.85"/><polyline class="cls-3" points="169.35 343.85 169.07 344.59 137.51 308.94 137.79 308.2"/><polygon class="cls-3" points="168.8 345.33 137.24 309.68 137.52 308.94 169.07 344.59 168.8 345.33"/><polygon class="cls-3" points="168.53 346.07 136.97 310.42 137.24 309.68 168.8 345.33 168.53 346.07"/><polygon class="cls-3" points="168.26 346.81 136.7 311.16 136.97 310.42 168.53 346.07 168.26 346.81"/><polygon class="cls-3" points="167.98 347.55 136.42 311.9 136.7 311.16 168.26 346.81 167.98 347.55"/><polygon class="cls-3" points="167.71 348.29 136.15 312.64 136.43 311.9 167.98 347.55 167.71 348.29"/><polygon class="cls-3" points="167.44 349.03 135.88 313.38 136.15 312.64 167.71 348.29 167.44 349.03"/><polyline class="cls-3" points="167.44 349.03 167.16 349.77 135.6 314.12 135.88 313.38"/><polygon class="cls-3" points="166.89 350.51 135.33 314.86 135.61 314.12 167.16 349.77 166.89 350.51"/><polygon class="cls-3" points="166.62 351.25 135.06 315.6 135.33 314.86 166.89 350.51 166.62 351.25"/><polygon class="cls-3" points="166.35 351.99 134.79 316.33 135.06 315.6 166.62 351.25 166.35 351.99"/><polygon class="cls-3" points="166.07 352.73 134.51 317.07 134.79 316.33 166.34 351.99 166.07 352.73"/><polygon class="cls-3" points="165.8 353.46 134.24 317.81 134.51 317.07 166.07 352.72 165.8 353.46"/><polygon class="cls-3" points="165.53 354.2 133.97 318.55 134.24 317.81 165.8 353.46 165.53 354.2"/><polygon class="cls-3" points="165.25 354.94 133.69 319.29 133.97 318.55 165.53 354.2 165.25 354.94"/><polygon class="cls-3" points="164.98 355.68 133.42 320.03 133.69 319.29 165.25 354.94 164.98 355.68"/><polygon class="cls-3" points="164.71 356.42 133.15 320.77 133.42 320.03 164.98 355.68 164.71 356.42"/><polygon class="cls-3" points="164.44 357.16 132.88 321.51 133.15 320.77 164.71 356.42 164.44 357.16"/><polygon class="cls-3" points="164.16 357.9 132.6 322.25 132.88 321.51 164.43 357.16 164.16 357.9"/><polyline class="cls-3" points="164.16 357.9 163.89 358.64 132.33 322.99 132.6 322.25"/><polygon class="cls-3" points="163.89 358.64 163.37 359.1 132.06 323.73 132.33 322.99 163.89 358.64 163.89 358.64"/><polygon class="cls-3" points="163.37 359.1 162.85 359.56 131.78 324.47 132.06 323.73 163.37 359.1"/><polygon class="cls-3" points="162.85 359.56 162.33 360.02 131.51 325.2 131.78 324.46 162.85 359.56"/><polyline class="cls-3" points="162.33 360.02 161.81 360.48 131.24 325.94 131.51 325.2"/><polygon class="cls-3" points="161.81 360.48 161.29 360.94 130.97 326.68 131.24 325.94 161.81 360.48"/><polygon class="cls-3" points="161.29 360.94 160.77 361.4 130.69 327.42 130.97 326.68 161.29 360.94"/><polygon class="cls-3" points="160.77 361.4 160.25 361.86 130.42 328.16 130.69 327.42 160.77 361.4"/><polygon class="cls-3" points="159.73 362.32 159.21 362.78 129.87 329.64 130.15 328.9 159.73 362.32"/><polygon class="cls-3" points="159.21 362.78 158.69 363.24 129.6 330.38 129.88 329.64 159.21 362.78"/><polygon class="cls-3" points="158.69 363.24 158.17 363.7 129.33 331.12 129.6 330.38 158.69 363.24"/><polygon class="cls-3" points="158.17 363.7 157.65 364.16 129.06 331.86 129.33 331.12 158.17 363.7"/><polygon class="cls-3" points="157.65 364.16 157.13 364.62 128.78 332.6 129.06 331.86 157.65 364.16"/><polygon class="cls-3" points="157.13 364.62 156.61 365.08 128.51 333.33 128.78 332.6 157.13 364.62"/><polygon class="cls-3" points="156.61 365.08 156.09 365.54 128.24 334.07 128.51 333.34 156.61 365.08"/><polygon class="cls-3" points="156.09 365.54 155.57 366 127.96 334.82 128.24 334.07 156.09 365.54"/><polygon class="cls-3" points="155.57 366 155.05 366.46 127.69 335.55 127.96 334.81 155.57 366"/><polygon class="cls-3" points="155.05 366.46 154.53 366.93 127.42 336.29 127.69 335.55 155.05 366.46"/><polygon class="cls-3" points="154.53 366.92 154.01 367.38 127.14 337.03 127.42 336.29 154.53 366.92"/><polygon class="cls-3" points="154.01 367.38 153.49 367.85 126.87 337.77 127.14 337.03 154.01 367.38"/><polygon class="cls-3" points="153.49 367.85 152.97 368.31 126.6 338.51 126.87 337.77 153.49 367.85"/><polygon class="cls-3" points="152.97 368.31 152.66 368.58 152.11 368.37 126.33 339.25 126.6 338.51 152.97 368.31"/><polygon class="cls-3" points="150.73 367.87 126.05 339.99 126.33 339.25 152.11 368.37 150.73 367.87"/><polygon class="cls-3" points="149.35 367.36 125.78 340.73 126.05 339.99 150.73 367.87 149.35 367.36"/><polygon class="cls-3" points="147.97 366.85 125.51 341.46 125.78 340.73 149.35 367.36 147.97 366.85"/><polygon class="cls-3" points="146.6 366.34 125.23 342.21 125.51 341.47 147.97 366.85 146.6 366.34"/><polyline class="cls-3" points="146.6 366.34 145.22 365.83 124.96 342.95 125.23 342.21"/><polygon class="cls-3" points="143.84 365.32 124.69 343.68 124.96 342.94 145.22 365.83 143.84 365.32"/><polygon class="cls-3" points="142.46 364.81 124.41 344.43 124.69 343.69 143.84 365.32 142.46 364.81"/><polygon class="cls-3" points="141.09 364.3 124.14 345.16 124.41 344.42 142.46 364.81 141.09 364.3"/><polygon class="cls-3" points="139.71 363.8 123.87 345.9 124.14 345.16 141.09 364.3 139.71 363.8"/><polygon class="cls-3" points="138.33 363.29 123.6 346.64 123.87 345.9 139.71 363.8 138.33 363.29"/><polygon class="cls-3" points="136.95 362.78 123.32 347.38 123.6 346.64 138.33 363.29 136.95 362.78"/><polygon class="cls-3" points="135.58 362.27 123.05 348.12 123.32 347.38 136.95 362.78 135.58 362.27"/><polygon class="cls-3" points="134.2 361.76 122.78 348.86 123.05 348.12 135.57 362.27 134.2 361.76"/><polygon class="cls-3" points="132.82 361.25 122.5 349.6 122.78 348.86 134.2 361.76 132.82 361.25"/><polygon class="cls-3" points="131.44 360.74 122.23 350.34 122.5 349.6 132.82 361.25 131.44 360.74"/><polygon class="cls-3" points="130.06 360.23 121.96 351.08 122.23 350.34 131.44 360.74 130.06 360.23"/><polygon class="cls-3" points="128.69 359.73 121.69 351.82 121.96 351.08 130.06 360.24 128.69 359.73"/><polygon class="cls-3" points="121.69 351.82 128.69 359.72 119.95 356.5 121.69 351.82"/></g><g class="cls-2"><path class="cls-3" d="M203.32,403.28a9.87,9.87,0,0,1-3.93-3.67,10.73,10.73,0,0,1,0-10.67,9.77,9.77,0,0,1,3.93-3.66A12,12,0,0,1,209,384a12.46,12.46,0,0,1,5.13,1,9.67,9.67,0,0,1,3.72,2.93l-4.2,3.75a5.39,5.39,0,0,0-4.31-2.31,4.41,4.41,0,0,0-3.35,1.34,5.71,5.71,0,0,0,0,7.18,4.41,4.41,0,0,0,3.35,1.34,5.39,5.39,0,0,0,4.31-2.31l4.2,3.74a9.48,9.48,0,0,1-3.72,2.93,12.3,12.3,0,0,1-5.13,1,12,12,0,0,1-5.63-1.3"/><path class="cls-3" d="M229.54,403.26a10.11,10.11,0,0,1,0-18,13,13,0,0,1,11.43,0,9.87,9.87,0,0,1,4,3.68,10.1,10.1,0,0,1-4,14.29,13,13,0,0,1-11.43,0m8-4.66a4.36,4.36,0,0,0,1.6-1.72,6,6,0,0,0,0-5.21,4.43,4.43,0,0,0-1.6-1.72,4.46,4.46,0,0,0-4.47,0,4.34,4.34,0,0,0-1.59,1.72,6,6,0,0,0,0,5.21,4.33,4.33,0,0,0,6.06,1.72"/><polygon class="cls-3" points="273.87 384.42 273.87 404.13 268.4 404.13 260.91 395.18 260.91 404.13 254.44 404.13 254.44 384.42 259.9 384.42 267.39 393.38 267.39 384.42 273.87 384.42"/><path class="cls-3" d="M285.29,404a12.85,12.85,0,0,1-3.82-1.48l2.14-4.85a13.43,13.43,0,0,0,3.16,1.31,12.24,12.24,0,0,0,3.35.49,5.2,5.2,0,0,0,2-.26.87.87,0,0,0,.59-.81c0-.41-.26-.72-.77-.92a15.93,15.93,0,0,0-2.55-.68,28.85,28.85,0,0,1-3.81-1,6.37,6.37,0,0,1-2.64-1.8,4.86,4.86,0,0,1-1.13-3.39,5.87,5.87,0,0,1,1-3.38,7,7,0,0,1,3.12-2.4,12.93,12.93,0,0,1,5-.87,17.81,17.81,0,0,1,4,.44,12.67,12.67,0,0,1,3.45,1.28l-2,4.81a12.33,12.33,0,0,0-5.49-1.46c-1.72,0-2.57.41-2.57,1.24,0,.39.26.69.76.89a18.07,18.07,0,0,0,2.51.63,25.07,25.07,0,0,1,3.8,1,6.63,6.63,0,0,1,2.69,1.79,4.8,4.8,0,0,1,1.14,3.38,5.78,5.78,0,0,1-1,3.36,7,7,0,0,1-3.11,2.4,12.79,12.79,0,0,1-5,.88,21,21,0,0,1-4.77-.54"/><path class="cls-3" d="M309.21,402.14a9.13,9.13,0,0,1-2.53-6.88V384.42h6.64v10.65a5.1,5.1,0,0,0,.78,3.15,2.66,2.66,0,0,0,2.23,1,2.69,2.69,0,0,0,2.25-1,5.17,5.17,0,0,0,.77-3.15V384.42h6.53v10.84a9.13,9.13,0,0,1-2.53,6.88,11.43,11.43,0,0,1-14.14,0"/><polygon class="cls-3" points="352.16 404.13 352.11 395.15 347.82 402.36 344.89 402.36 340.61 395.46 340.61 404.13 334.56 404.13 334.56 384.42 340.02 384.42 346.44 394.93 352.69 384.42 358.16 384.42 358.21 404.13 352.16 404.13"/><path class="cls-3" d="M371.67,403.26a10.11,10.11,0,0,1,0-18,13.05,13.05,0,0,1,11.44,0,9.93,9.93,0,0,1,4,3.68,10.1,10.1,0,0,1-4,14.29,13.05,13.05,0,0,1-11.44,0m8-4.66a4.34,4.34,0,0,0,1.59-1.72,6,6,0,0,0,0-5.21,4.41,4.41,0,0,0-1.59-1.72,4.48,4.48,0,0,0-4.48,0,4.48,4.48,0,0,0-1.59,1.72,6,6,0,0,0,0,5.21,4.41,4.41,0,0,0,1.59,1.72,4.42,4.42,0,0,0,4.48,0"/><path class="cls-3" d="M415.21,403.28a9.87,9.87,0,0,1-3.93-3.67,10.73,10.73,0,0,1,0-10.67,9.77,9.77,0,0,1,3.93-3.66,12,12,0,0,1,5.63-1.31,12.46,12.46,0,0,1,5.13,1,9.67,9.67,0,0,1,3.72,2.93l-4.2,3.75a5.39,5.39,0,0,0-4.31-2.31,4.41,4.41,0,0,0-3.35,1.34,5.71,5.71,0,0,0,0,7.18,4.41,4.41,0,0,0,3.35,1.34,5.39,5.39,0,0,0,4.31-2.31l4.2,3.74a9.48,9.48,0,0,1-3.72,2.93,12.3,12.3,0,0,1-5.13,1,12,12,0,0,1-5.63-1.3"/><path class="cls-3" d="M441.43,403.26a10.11,10.11,0,0,1,0-18,13,13,0,0,1,11.43,0,10.1,10.1,0,0,1,0,18,13,13,0,0,1-11.43,0m8-4.66a4.41,4.41,0,0,0,1.59-1.72,6,6,0,0,0,0-5.21,4.48,4.48,0,0,0-1.59-1.72,4.3,4.3,0,0,0-6.07,1.72,6,6,0,0,0,0,5.21,4.35,4.35,0,0,0,6.07,1.72"/><polygon class="cls-3" points="485.75 384.42 485.75 404.13 480.29 404.13 472.8 395.18 472.8 404.13 466.32 404.13 466.32 384.42 471.79 384.42 479.28 393.38 479.28 384.42 485.75 384.42"/><path class="cls-3" d="M497.18,404a12.85,12.85,0,0,1-3.82-1.48l2.14-4.85a13.53,13.53,0,0,0,3.15,1.31,12.29,12.29,0,0,0,3.35.49,5.26,5.26,0,0,0,2-.26.87.87,0,0,0,.59-.81c0-.41-.26-.72-.78-.92a15.34,15.34,0,0,0-2.55-.68,28.66,28.66,0,0,1-3.8-1,6.37,6.37,0,0,1-2.64-1.8,4.86,4.86,0,0,1-1.13-3.39,5.87,5.87,0,0,1,1-3.38,6.93,6.93,0,0,1,3.11-2.4,13,13,0,0,1,5-.87,17.66,17.66,0,0,1,4,.44,12.43,12.43,0,0,1,3.45,1.28l-2,4.81a12.34,12.34,0,0,0-5.5-1.46c-1.71,0-2.56.41-2.56,1.24,0,.39.25.69.76.89a18.07,18.07,0,0,0,2.51.63,25.07,25.07,0,0,1,3.8,1,6.63,6.63,0,0,1,2.69,1.79,4.8,4.8,0,0,1,1.14,3.38,5.78,5.78,0,0,1-1,3.36,7,7,0,0,1-3.11,2.4,12.79,12.79,0,0,1-5,.88,21,21,0,0,1-4.77-.54"/><path class="cls-3" d="M523.3,403.28a9.8,9.8,0,0,1-3.93-3.67,10.73,10.73,0,0,1,0-10.67,9.71,9.71,0,0,1,3.93-3.66,12,12,0,0,1,5.63-1.31,12.44,12.44,0,0,1,5.12,1,9.67,9.67,0,0,1,3.72,2.93l-4.19,3.75a5.4,5.4,0,0,0-4.31-2.31,4.44,4.44,0,0,0-3.36,1.34,5.74,5.74,0,0,0,0,7.18,4.44,4.44,0,0,0,3.36,1.34,5.4,5.4,0,0,0,4.31-2.31l4.19,3.74a9.48,9.48,0,0,1-3.72,2.93,12.28,12.28,0,0,1-5.12,1,12,12,0,0,1-5.63-1.3"/><rect class="cls-3" x="545.32" y="384.42" width="6.65" height="19.71"/><polygon class="cls-3" points="577.2 399.12 577.2 404.13 560.81 404.13 560.81 384.42 576.83 384.42 576.83 389.43 567.34 389.43 567.34 391.74 575.68 391.74 575.68 396.53 567.34 396.53 567.34 399.12 577.2 399.12"/><polygon class="cls-3" points="604.83 384.42 604.83 404.13 599.36 404.13 591.87 395.18 591.87 404.13 585.39 404.13 585.39 384.42 590.86 384.42 598.35 393.38 598.35 384.42 604.83 384.42"/><polygon class="cls-3" points="617.95 389.57 612.17 389.57 612.17 384.42 630.37 384.42 630.37 389.57 624.6 389.57 624.6 404.13 617.95 404.13 617.95 389.57"/><polygon class="cls-3" points="654.11 399.12 654.11 404.13 637.72 404.13 637.72 384.42 653.74 384.42 653.74 389.43 644.25 389.43 644.25 391.74 652.59 391.74 652.59 396.53 644.25 396.53 644.25 399.12 654.11 399.12"/></g></g></svg>