<svg xmlns="http://www.w3.org/2000/svg" viewBox="0 0 116.52 74.77"><defs><style>.cls-1{fill:none;}.cls-2{fill:#455e2b;}</style></defs><g id="Capa_2" data-name="Capa 2"><g id="Icons"><path class="cls-1" d="M46.69,37.92c-4.43,14-15.3,23.76-26.44,23.76a7.93,7.93,0,0,1-1.38-.08,44.63,44.63,0,0,0,17.82,4.14c3.88.19,13.38,1.07,23.88,2.07.76-1.48,1.36-3,2.07-4.55.32-.68,1.34-.08,1,.6-.64,1.35-1.2,2.73-1.85,4.07,14,1.33,29.32,2.85,35.55,3.28,1.5.11,3,.25,4.48.41a10.63,10.63,0,0,0,.37-2.39.59.59,0,0,1,1.18,0,11.7,11.7,0,0,1-.37,2.5c1.06.11,2.11.23,3.17.31,1.84.16,7.65,1.49,7.74-.67.17-4.18-6.45-9.85-8.57-12.26s-17.72-16.67-26-24.66a10.34,10.34,0,0,1-1.11,4.39c-.36.67-1.38.08-1-.6a9.83,9.83,0,0,0,1-4.93c-.66-.64-1.27-1.25-1.78-1.77A156.06,156.06,0,0,0,52.84,11.69a69.58,69.58,0,0,0-12.39-7C48,11.49,50.87,24.73,46.69,37.92ZM42.88,56.31q-1.1,2.16-2.36,4.25a.59.59,0,0,1-1-.6c.84-1.39,1.63-2.8,2.36-4.25C42.21,55,43.23,55.63,42.88,56.31Zm40,.49c.1-.76,1.24-.43,1.13.31-.15,1.1-.31,2.2-.47,3.3-.11.76-1.24.43-1.14-.31ZM55.55,42.49a4.07,4.07,0,0,0,.4-2.06c0-.76,1.14-.76,1.18,0a5.34,5.34,0,0,1-.56,2.66C56.25,43.77,55.23,43.18,55.55,42.49ZM52.72,21.15a.59.59,0,0,1,1.18,0v5.67a.59.59,0,0,1-1.18,0Z"/><path class="cls-1" d="M13.58,58.15a15.59,15.59,0,0,0,1.86.73,16,16,0,0,0,4.81.74c10.09,0,20.38-9.39,24.47-22.32,4.9-15.46-.27-30.94-11.52-34.5a15.1,15.1,0,0,0-2-.46,24.2,24.2,0,0,0-6.76.33,1.29,1.29,0,0,1-.44,0C15.45,4.88,7.42,13.33,3.92,24.38c-2.39,7.55-2.48,15.31-.24,21.86,1.79,5.27,4.93,9.2,9,11.4A3.82,3.82,0,0,1,13.58,58.15Z"/><path class="cls-2" d="M32.09,67.22c11.29,1,58.26,5.47,70.47,6.8,3.09.34,12.67,2.43,13.89-2.33C118.16,65,87.3,39.77,79.21,31A153,153,0,0,0,52.67,8.73C46.34,4.44,40.36,1.52,32.79.59A18,18,0,0,0,28.39,0a19.37,19.37,0,0,0-3.64.37c-.32,0-.61,0-.93,0a.83.83,0,0,0-.66.35C14,3.22,5.68,12,2,23.76a37.49,37.49,0,0,0-.23,23.15c1.94,5.69,5.35,10,9.74,12.44C11.51,59.43,23,66.42,32.09,67.22ZM52.84,11.69A156.06,156.06,0,0,1,76.46,31.54c.51.52,1.12,1.13,1.78,1.77a9.83,9.83,0,0,1-1,4.93c-.36.68.66,1.27,1,.6a10.34,10.34,0,0,0,1.11-4.39c8.24,8,23.72,22.1,26,24.66s8.74,8.08,8.57,12.26c-.09,2.16-5.9.83-7.74.67-1.06-.08-2.11-.2-3.17-.31a11.7,11.7,0,0,0,.37-2.5.59.59,0,0,0-1.18,0,10.63,10.63,0,0,1-.37,2.39c-1.49-.16-3-.3-4.48-.41-6.23-.43-21.6-1.95-35.55-3.28.65-1.34,1.21-2.72,1.85-4.07.32-.68-.7-1.28-1-.6-.71,1.51-1.31,3.07-2.07,4.55-10.5-1-20-1.88-23.88-2.07A44.63,44.63,0,0,1,18.87,61.6a7.93,7.93,0,0,0,1.38.08c11.14,0,22-9.77,26.44-23.76C50.87,24.73,48,11.49,40.45,4.69A69.58,69.58,0,0,1,52.84,11.69ZM3.68,46.24c-2.24-6.55-2.15-14.31.24-21.86C7.42,13.33,15.45,4.88,24,2.66a1.29,1.29,0,0,0,.44,0,24.2,24.2,0,0,1,6.76-.33,15.1,15.1,0,0,1,2,.46c11.25,3.56,16.42,19,11.52,34.5C40.63,50.23,30.34,59.62,20.25,59.62a16,16,0,0,1-4.81-.74,15.59,15.59,0,0,1-1.86-.73,3.82,3.82,0,0,0-.95-.51C8.61,55.44,5.47,51.51,3.68,46.24Z"/><path class="cls-2" d="M53.9,26.82V21.15a.59.59,0,0,0-1.18,0v5.67A.59.59,0,0,0,53.9,26.82Z"/><path class="cls-2" d="M41.86,55.71c-.73,1.45-1.52,2.86-2.36,4.25a.59.59,0,0,0,1,.6q1.26-2.09,2.36-4.25C43.23,55.63,42.21,55,41.86,55.71Z"/><path class="cls-2" d="M56.57,43.09a5.34,5.34,0,0,0,.56-2.66c0-.76-1.22-.76-1.18,0a4.07,4.07,0,0,1-.4,2.06C55.23,43.18,56.25,43.77,56.57,43.09Z"/><path class="cls-2" d="M83.54,60.41c.16-1.1.32-2.2.47-3.3.11-.74-1-1.07-1.13-.31l-.48,3.3C82.3,60.84,83.43,61.17,83.54,60.41Z"/></g></g></svg>