<svg xmlns="http://www.w3.org/2000/svg" viewBox="0 0 115.41 74.06"><defs><style>.cls-1{fill:#2e213c;}</style></defs><g id="Capa_2" data-name="Capa 2"><g id="Icons"><path class="cls-1" d="M78.47,30.72A151.81,151.81,0,0,0,52.17,8.65C45.9,4.4,40,1.51,32.48.59A17.69,17.69,0,0,0,28.12,0a20,20,0,0,0-3.61.36l-.92,0a.85.85,0,0,0-.65.34c-9.09,2.46-17.31,11.14-21,22.8a37.18,37.18,0,0,0-.22,22.94C3.63,52.1,7,56.35,11.35,58.79c.05.08,11.45,7,20.43,7.8,11.19,1,57.71,5.41,69.81,6.73,3.06.33,12.55,2.4,13.76-2.31C117,64.4,86.47,39.39,78.47,30.72ZM3.64,45.81a35,35,0,0,1,.24-21.66C7.35,13.2,15.3,4.84,23.78,2.63a1.08,1.08,0,0,0,.44,0,24.45,24.45,0,0,1,6.69-.33,16.72,16.72,0,0,1,2,.46C44,6.3,49.15,21.63,44.3,37c-4,12.81-14.25,22.11-24.24,22.11a15.88,15.88,0,0,1-4.76-.73,14.09,14.09,0,0,1-1.84-.73,3.67,3.67,0,0,0-1-.5C8.52,54.92,5.42,51,3.64,45.81ZM105.19,71.36c-1-.08-2.09-.2-3.14-.3a11.6,11.6,0,0,0,.36-2.49.59.59,0,0,0-1.17,0,9.92,9.92,0,0,1-.36,2.37c-1.48-.15-3-.3-4.44-.4-6.17-.43-21.4-1.94-35.21-3.26.64-1.32,1.2-2.69,1.82-4,.32-.68-.69-1.28-1-.59-.7,1.49-1.29,3-2,4.5-10.4-1-19.82-1.86-23.66-2A44.37,44.37,0,0,1,18.69,61a7.82,7.82,0,0,0,1.37.08c11,0,21.8-9.68,26.19-23.53,4.14-13.08,1.32-26.19-6.18-32.93a69.87,69.87,0,0,1,12.27,6.94A154.7,154.7,0,0,1,75.73,31.24c.51.52,1.12,1.12,1.77,1.76a9.65,9.65,0,0,1-1,4.88c-.35.67.66,1.26,1,.59a10.25,10.25,0,0,0,1.1-4.34C86.81,42,102.14,56,104.37,58.55s8.65,8,8.48,12.14C112.76,72.84,107,71.52,105.19,71.36Z"/><path class="cls-1" d="M52.22,21v5.62a.59.59,0,0,0,1.17,0V21A.59.59,0,0,0,52.22,21Z"/><path class="cls-1" d="M41.47,55.18q-1.09,2.16-2.34,4.21a.59.59,0,0,0,1,.59q1.24-2.05,2.34-4.21C42.82,55.1,41.81,54.51,41.47,55.18Z"/><path class="cls-1" d="M55.42,40.05a4.1,4.1,0,0,1-.39,2c-.32.68.68,1.27,1,.59a5.31,5.31,0,0,0,.55-2.63C56.55,39.3,55.38,39.29,55.42,40.05Z"/><path class="cls-1" d="M82.09,56.26c-.15,1.09-.31,2.18-.46,3.27-.11.74,1,1.06,1.12.31.16-1.09.31-2.18.47-3.27C83.33,55.83,82.2,55.51,82.09,56.26Z"/></g></g></svg>