<svg xmlns="http://www.w3.org/2000/svg" viewBox="0 0 86.56 76.77"><defs><style>.cls-1{fill:none;}.cls-2{fill:#455e2b;}</style></defs><g id="Capa_2" data-name="Capa 2"><g id="Icons"><path class="cls-1" d="M55.11,42.55a3.43,3.43,0,0,0-4.82,0c1,1.74,1.89,3.43,2.78,5l.39.72a3.42,3.42,0,0,0,1.65-5.75Z"/><path class="cls-1" d="M65.28,55.28a2.87,2.87,0,1,0-4.05,0A2.94,2.94,0,0,0,65.28,55.28Z"/><path class="cls-1" d="M46.93,36.58a3.43,3.43,0,0,0-.53-4.15,3.39,3.39,0,0,0-2.55-1C44.85,33.05,45.86,34.74,46.93,36.58Z"/><path class="cls-1" d="M42.43,61.81a2.07,2.07,0,1,1,3.2-2.62c4.83,5.9,9.78,9.63,14.72,11.08a2.07,2.07,0,0,1,1.4,2.57,1.94,1.94,0,0,1-.48.79c.14,0,.28,0,.43,0a15.45,15.45,0,0,0,6.41-1.41,32.22,32.22,0,0,1-10.85-9.35,48.66,48.66,0,0,1-3.45-5.44l0-.07c-1.17-2-2.47-4.43-3.94-7.12-3.13-5.75-6.65-12.21-10.59-18.46H39v-.39c-8-12.51-14.75-19.49-20.8-21.39C15.63,22.52,32.82,50.28,42.34,61.9a42.06,42.06,0,0,0,7.92,7.62A47.58,47.58,0,0,1,42.43,61.81Z"/><path class="cls-1" d="M73.2,55.84a1.88,1.88,0,0,0-1.33,3.21,1.94,1.94,0,0,0,2.66,0,1.88,1.88,0,0,0,0-2.66A1.86,1.86,0,0,0,73.2,55.84Z"/><path class="cls-1" d="M71,52.16l-.92-.7a.39.39,0,0,1-.1-.08,7.65,7.65,0,0,1,.22,1.16A6.48,6.48,0,0,1,71,52.16Z"/><path class="cls-1" d="M64.88,60.06a18.16,18.16,0,0,0,3.23.86,6.28,6.28,0,0,1-.79-2A6.89,6.89,0,0,1,64.88,60.06Z"/><path class="cls-1" d="M82.07,57.6a27.42,27.42,0,0,1-3-1,5.64,5.64,0,0,1,.1,1.08A5.48,5.48,0,0,1,79,59.27,26.31,26.31,0,0,0,82.07,57.6Z"/><path class="cls-1" d="M34.55,17.9A7.82,7.82,0,0,1,36,18c-1.39-1.08-2.77-2.09-4.14-3,.83.89,1.67,1.86,2.51,2.88Z"/><path class="cls-1" d="M51,37.61a7.66,7.66,0,0,1,1.71-.19,7.53,7.53,0,0,1,7.2,9.75,7.35,7.35,0,0,1,5-.63c-1.56-1.61-3.3-3.48-5.22-5.54l-.18-.19c-2.64-2.83-5.57-6-8.68-9.16A7.53,7.53,0,0,1,51,37.61Z"/><path class="cls-1" d="M41.72,27.66A7.44,7.44,0,0,1,47.2,28c-1.84-1.8-3.71-3.58-5.61-5.28A7.47,7.47,0,0,1,41.72,27.66Z"/><path class="cls-1" d="M55.46,52l.23.43.47-.73C55.93,51.77,55.7,51.87,55.46,52Z"/><path class="cls-1" d="M55.7,52.39l.56,1v-.16a6.86,6.86,0,0,1,.2-1.63Z"/><path class="cls-2" d="M84.72,55h0A28.28,28.28,0,0,1,72,49C69.78,47.29,66.18,43.43,62,39,49.89,26,31.77,6.51,18.08,6.51c-.23,0-.45,0-.67,0h-.22L17,6.38C12.61,2.09,8.88,0,5.6,0A7.29,7.29,0,0,0,.29,2.33,1.05,1.05,0,0,0,0,3.06a1,1,0,0,0,.31.73,1,1,0,0,0,1.46,0,5.15,5.15,0,0,1,3.8-1.71c2.66,0,5.94,1.88,9.8,5.58l.23.23-.09.3C10.72,23.61,33.94,56.54,39.94,63.87c7,8.56,14.34,12.9,21.76,12.9a18.53,18.53,0,0,0,9.63-2.72A2.16,2.16,0,0,0,71,70.19,26.68,26.68,0,0,1,61.33,63l-1.7-1.93,2.31,1.12a20.21,20.21,0,0,0,8.84,2.08c6.71,0,12.22-3.37,14.91-5.38a2.17,2.17,0,0,0-1-3.88Zm-16.2-6.28c.88.83,1.6,1.47,2.2,1.94s1.19.89,1.77,1.29l1,.72-1.24.21a5.1,5.1,0,0,0-2.25,1l-.89.74.07-1.33a5.84,5.84,0,0,0-1.44-3.9ZM28.63,11.82c10.79,5.93,22.84,18.85,31.63,28.29l.17.18c2.8,3,5.22,5.61,7.24,7.6l-.68.77A6.12,6.12,0,0,0,59,49l-.92.92.12.09a5.94,5.94,0,0,0-.45,5.57l.89,2.07L57,56.22l-.53-.44-.12-.14c-.65-1.14-1.34-2.39-2.07-3.72L54,51.37l.61-.19a6.38,6.38,0,0,0,2.74-1.6l.12-.16.11.08.64-1a6.51,6.51,0,0,0-8-9.53l-1.45.6.81-1.34a6.5,6.5,0,0,0-8-9.37l-.39.17-.63-1,.1-.24a6.52,6.52,0,0,0-1.44-7,6.45,6.45,0,0,0-5-1.85h-.26l-.17-.2A58.2,58.2,0,0,0,28,12.66L24.79,9.71ZM52.71,49.08l-.55-1c-.93-1.71-1.91-3.51-2.93-5.35l-.17-.31.22-.27a2.72,2.72,0,0,1,.26-.33,4.57,4.57,0,0,1,6.3,0,4.47,4.47,0,0,1,0,6.3,4.58,4.58,0,0,1-2.59,1.27l-.35,0-.17-.31.45-.25ZM47.25,37.86l-.47.52-.36-.61c-1.35-2.34-2.61-4.45-3.86-6.46l-.37-.6.68-.17a4.44,4.44,0,0,1,4.38,7.32ZM69.5,71.78l1,.43-.92.49a16.54,16.54,0,0,1-7.83,2c-6.77,0-13.55-4.09-20.16-12.15C31.46,50.25,14,22,17.33,9.26l.13-.5.5.13c6.45,1.73,13.6,8.89,21.85,21.9h0l.29.38,0,0c4,6.3,7.51,12.8,10.64,18.54,1.47,2.7,2.76,5.07,3.91,7.08l0,.07a49.65,49.65,0,0,0,3.41,5.38A30.47,30.47,0,0,0,69.5,71.78ZM59.36,53.26A3.91,3.91,0,0,1,60.5,50.5a4,4,0,0,1,5.51,0,3.91,3.91,0,0,1,1.14,2.76,3.9,3.9,0,0,1-7.79,0Zm9.9,8.85a18.51,18.51,0,0,1-6.74-2L60.21,59l2.57.18.24,0a1.81,1.81,0,0,0,.23,0,6,6,0,0,0,4.12-1.67l.83-.79,0,1.15a5,5,0,0,0,1.43,3.32l1,1Zm6-2.33a2.91,2.91,0,0,1-4.12-4.12,3,3,0,0,1,4.12,0,2.92,2.92,0,0,1,0,4.12Zm8.39-2a26.74,26.74,0,0,1-5.4,2.92L77,61.23,77.6,60a5,5,0,0,0,.58-2.28A4.83,4.83,0,0,0,77.84,56l-.43-1.12,1.12.46a25.7,25.7,0,0,0,4.93,1.57l1.18.24Z"/><path class="cls-2" d="M60.06,71.26c-5.14-1.51-10.27-5.35-15.23-11.41a1,1,0,0,0-.8-.38,1,1,0,0,0-.66.23,1.05,1.05,0,0,0-.37.7,1,1,0,0,0,.23.76c5.23,6.38,10.7,10.45,16.24,12.08a1.06,1.06,0,0,0,1.29-.7A1,1,0,0,0,60.06,71.26Z"/></g></g></svg>