<svg xmlns="http://www.w3.org/2000/svg" viewBox="0 0 94.31 58.37"><defs><style>.cls-1{fill:none;}.cls-2{fill:#455e2b;}</style></defs><g id="Capa_2" data-name="Capa 2"><g id="Icons"><path class="cls-1" d="M57.17,13.78c1.88-2,1.92-5,1.71-6.83a9.25,9.25,0,0,0-6.17,2.43,9.44,9.44,0,0,0-1.38,6.48C53,15.78,55.68,15.38,57.17,13.78Z"/><path class="cls-1" d="M3.54,42.87A8.32,8.32,0,0,0,6.7,43.94a11.89,11.89,0,0,1,4.73,1.75,15.6,15.6,0,0,0,16.82.66l.21-.13c-.29-.49-.57-1-.85-1.58-.08-.17-.15-.35-.23-.52l-.1-.24c-.24-.55-.45-1.11-.64-1.67l-.25-.79a20.6,20.6,0,0,1-.55-2.5,18,18,0,0,1-.18-2.18c0-.18,0-.37,0-.55v-.26c0-.44,0-.87.05-1.29s.07-.69.11-1,.1-.67.16-1,.15-.77.24-1.15.14-.51.22-.76c.14-.48.25-.87.4-1.26l.13-.32a18.32,18.32,0,0,1,1.15-2.42l.12-.22a6.22,6.22,0,0,1,.32-.56c.14-.23.29-.44.44-.66l.11-.15q.36-.52.75-1c.15-.2.31-.39.47-.57.33-.39.68-.77,1.05-1.13A15.23,15.23,0,0,0,4.35,34a12.06,12.06,0,0,1-.62,5h0a8.16,8.16,0,0,0-.51,3.32Zm7.89-23.43a12.29,12.29,0,0,1,9.68-2.12,2.07,2.07,0,0,1,1.32.93,2,2,0,0,1,.29,1,2.1,2.1,0,0,1,2.71-.83l1.88.91a2.11,2.11,0,0,1-1.84,3.8l-1.88-.92A2.07,2.07,0,0,1,22.52,21a1.93,1.93,0,0,1-.08-.58,2.12,2.12,0,0,1-2.25,1,8.1,8.1,0,0,0-6.34,1.44,8.11,8.11,0,0,0-3.5,5.48A2.11,2.11,0,0,1,8.26,30.2H8a2.12,2.12,0,0,1-1.83-2.36A12.28,12.28,0,0,1,11.43,19.44Z"/><path class="cls-1" d="M46.07,20.86l.61-.08A2.13,2.13,0,0,1,49,22.6,2.11,2.11,0,0,1,47.23,25l-1.77.23-.27,0a2.11,2.11,0,0,1-2.09-1.84,2.06,2.06,0,0,1,.92-2,31.65,31.65,0,0,1-4.63.65,15.13,15.13,0,0,0-4,2.35c-.47.4-.93.82-1.36,1.26a15.94,15.94,0,0,0-1.25,1.49l-.16.23-.11.18c-.23.32-.44.65-.64,1l-.38.7c-.14.27-.26.54-.38.82l-.08.18c-.09.2-.18.4-.26.6-.17.47-.33,1-.46,1.46,0,.16-.07.33-.11.49l0,.26c-.06.32-.13.65-.18,1s-.05.49-.08.73-.05.76-.05,1.14v.62A17.18,17.18,0,0,0,30,38.31a15.22,15.22,0,0,0,.46,2.06c.05.17.11.34.17.5l.11.3c.13.38.27.77.43,1.15s.29.58.44.87.34.64.53.94.39.6.59.88a15.27,15.27,0,0,0,8.48,5.86,12,12,0,0,1,4.35,2.53,8.32,8.32,0,0,0,2.86,1.76l.59-.08a8.28,8.28,0,0,0,2.25-2.5,12,12,0,0,1,3.45-3.66,15.13,15.13,0,0,0,5.59-6,14.66,14.66,0,0,0,.72-1.6l.09-.23a3.12,3.12,0,0,0,.15-.39,13.7,13.7,0,0,0,.41-1.55l.07-.3c0-.15.08-.31.11-.46.08-.52.12-1,.15-1.58l0-.33a3.11,3.11,0,0,0,0-.43,15,15,0,0,0-.15-2.36c-.07-.48-.16-1-.27-1.42-.06-.25-.14-.51-.22-.76L61.26,31c-.14-.4-.29-.79-.46-1.17a15.28,15.28,0,0,0-13.93-9.15v-.52h0l-.13.53Zm-4.5,5.27a10.76,10.76,0,0,0-6.85,8.7,2.11,2.11,0,0,1-2.1,1.88H32.4a2.11,2.11,0,0,1-1.88-2.32h0a14.94,14.94,0,0,1,9.62-12.22,2.07,2.07,0,0,1,1.6.07,2.11,2.11,0,0,1-.17,3.9Z"/><path class="cls-1" d="M31.09,16.13a12.22,12.22,0,0,0,6.82,1.74l.38,0h.22a19.76,19.76,0,0,1,3.8-.95l1.75-.25.42,0c-.47-3-1.92-9-6.06-11.68A12.32,12.32,0,0,0,31.6,3.18,26.17,26.17,0,0,0,25,4.13C25.42,7.12,26.83,13.35,31.09,16.13Z"/><path class="cls-1" d="M66.09,33.1a19,19,0,0,1,.2,2.85,4.36,4.36,0,0,1,0,.51c0,.11,0,.21,0,.32,0,.71-.07,1.33-.16,1.95,0,.32-.12.64-.2,1l-.17.79c-.07.31-.13.62-.22.93a19.31,19.31,0,0,1-.73,2,.3.3,0,0,1,0,.1,15.24,15.24,0,0,0,19-2.64A12,12,0,0,1,88,38.19a8.29,8.29,0,0,0,2.91-1.67l.21-.57A8.17,8.17,0,0,0,90,32.78,12,12,0,0,1,88.42,28a15.08,15.08,0,0,0-1.91-6.66,2.06,2.06,0,0,1-.32,1.35,2.11,2.11,0,0,1-1.75.93,2.09,2.09,0,0,1-1.18-.37l-1.17-.79a2.12,2.12,0,0,1-.57-2.93A2.12,2.12,0,0,1,84.45,19l1,.65a15.21,15.21,0,0,0-25.55,1.81A19.42,19.42,0,0,1,66.09,33.1ZM63.4,17.39A14.87,14.87,0,0,1,80.88,16.1a2.11,2.11,0,1,1-2.31,3.53,10.5,10.5,0,0,0-12.37.92,2.1,2.1,0,0,1-3-.18A2.12,2.12,0,0,1,63.4,17.39Z"/><path class="cls-2" d="M.66,44.25h0c.41.68.45.72.57.82a9.74,9.74,0,0,0,4.83,2,9.28,9.28,0,0,1,3.51,1.21,18.42,18.42,0,0,0,20.34.8c.3-.18.59-.39.9-.6l.37-.27.31.34A18.31,18.31,0,0,0,40.42,54a9.17,9.17,0,0,1,3.15,1.93,9.88,9.88,0,0,0,4.63,2.48h.19l.79-.1a4.07,4.07,0,0,0,1-.19,9.84,9.84,0,0,0,3.73-3.68,9.15,9.15,0,0,1,2.49-2.75,18.47,18.47,0,0,0,5.78-5.52l.28-.42.42.27a18.58,18.58,0,0,0,3.39,1.71,18.35,18.35,0,0,0,6.34,1.13h0A18.51,18.51,0,0,0,86,43a9.07,9.07,0,0,1,3.2-1.86,9.87,9.87,0,0,0,4.37-2.89,3.22,3.22,0,0,0,.4-.91,3.58,3.58,0,0,0,.29-.95,9.86,9.86,0,0,0-1.46-5,9.29,9.29,0,0,1-1.24-3.5A18.35,18.35,0,0,0,61.9,14.27l-1.71,1.34.92-2a14.52,14.52,0,0,0,.57-9.11,1.11,1.11,0,0,0-1.06-.77c-4.17-.25-8,1-10.28,3.48l-.09.16a1,1,0,0,1-.17.16,10.73,10.73,0,0,0-2,5.84l-.22,3.32-.8-3.23c-.9-3.64-2.83-8.55-6.94-11.24A15.45,15.45,0,0,0,31.6,0a29.49,29.49,0,0,0-9.29,1.64l-.74.27,0,.79A28.83,28.83,0,0,0,24.5,13.22l.54,1L23.92,14A18.42,18.42,0,0,0,1.2,34.5a9.23,9.23,0,0,1-.54,3.67A9.83,9.83,0,0,0,.2,43.39,3.25,3.25,0,0,0,.66,44.25ZM73.22,12.47A16.28,16.28,0,0,1,89.46,28a11,11,0,0,0,1.46,4.36A8.67,8.67,0,0,1,92.16,36l0,.16-.37.92a8.49,8.49,0,0,1-3.35,2,11.28,11.28,0,0,0-3.94,2.38,16.36,16.36,0,0,1-11.88,5.15,16.27,16.27,0,0,1-8.77-2.57l-.38-.24.19-.41a1.55,1.55,0,0,0,.08-.23c0-.09.06-.18.1-.27a18.23,18.23,0,0,0,.69-1.85c.08-.28.14-.56.2-.84l.18-.82a8.2,8.2,0,0,0,.18-.86c.08-.57.11-1.14.14-1.74,0-.23,0-.35,0-.47a3,3,0,0,0,0-.43,18.44,18.44,0,0,0-6.38-14l-.31-.26.19-.37A16.18,16.18,0,0,1,73.22,12.47Zm-15,5.62A18.68,18.68,0,0,0,57.09,20l-.26.48-.46-.29c-.45-.27-.92-.53-1.39-.77l-1.17-.58,1.25-.37a12.67,12.67,0,0,0,2.52-1.08l2.05-1.18ZM51.89,8.75l0-.06A10.51,10.51,0,0,1,59.32,5.9l.45,0,.07.46c.29,2,.43,5.64-1.92,8.15-1.89,2-5.22,2.38-7,2.42h-.45l-.07-.45A10.68,10.68,0,0,1,51.89,8.75ZM46.64,19.63h.23a16.28,16.28,0,0,1,14.84,9.69c.22.48.38.9.53,1.33l.09.29.09.29c.08.28.16.55.23.83.12.5.22,1,.29,1.51a15.86,15.86,0,0,1,.16,2.52,4.53,4.53,0,0,1,0,.52l0,.29a14.23,14.23,0,0,1-.17,1.69c0,.18-.07.36-.11.54l-.07.27a17.12,17.12,0,0,1-.44,1.66c0,.15-.11.3-.17.45l-.09.21a16.85,16.85,0,0,1-.76,1.71,16.34,16.34,0,0,1-6,6.39,11.13,11.13,0,0,0-3.14,3.36A8.72,8.72,0,0,1,49.44,56l-.16,0-.89.13-.09,0a8.5,8.5,0,0,1-3.37-2,11,11,0,0,0-4-2.34,16.27,16.27,0,0,1-9-6.25c-.23-.31-.44-.62-.64-.94s-.38-.66-.55-1-.34-.64-.48-1-.32-.81-.47-1.22l-.1-.28c-.07-.19-.14-.38-.19-.57a16.1,16.1,0,0,1-.49-2.2,16.86,16.86,0,0,1-.15-1.91c0-.18,0-.35,0-.53v-.14c0-.4,0-.8.06-1.21s.05-.52.09-.78.12-.71.19-1.06l.05-.24c0-.19.07-.38.12-.57.14-.52.31-1,.5-1.55.08-.23.18-.44.27-.65l.08-.19c.13-.29.27-.58.41-.87s.27-.5.41-.74.43-.72.67-1.07l.11-.16.19-.27A16.7,16.7,0,0,1,33.24,25a19.43,19.43,0,0,1,1.54-1.42A15.67,15.67,0,0,1,39.09,21l.16,0a30.5,30.5,0,0,0,7.24-1.34ZM23.89,3.83l-.06-.44.43-.13A27.59,27.59,0,0,1,31.6,2.15,13.3,13.3,0,0,1,39,4.05c4.78,3.12,6.21,10.1,6.6,13l.08.53-.54.05-.41,0a4.21,4.21,0,0,0-.5,0l-1.75.25a17.8,17.8,0,0,0-3.67.93l-.16,0h-.27l-.45,0A13.34,13.34,0,0,1,30.52,17C25.68,13.83,24.27,6.73,23.89,3.83ZM2.73,38.74h0a11.09,11.09,0,0,0,.6-4.55A16.26,16.26,0,0,1,32.47,22.12l.28.37-.47.46a15.29,15.29,0,0,0-1.17,1.24l-.44.54c-.25.31-.49.64-.71,1l-.11.16c-.14.2-.28.4-.41.62s-.2.33-.3.51L29,27.2a17.75,17.75,0,0,0-1.09,2.3l-.13.3c-.13.36-.24.73-.35,1.11s-.16.56-.22.8-.17.72-.23,1.09-.11.62-.15.94-.08.65-.11,1,0,.82,0,1.23v.27c0,.17,0,.33,0,.5,0,.75.08,1.42.17,2.06a18.67,18.67,0,0,0,.53,2.37c.06.21.12.42.19.62.22.66.42,1.19.65,1.71l.1.24.21.48a17.62,17.62,0,0,0,1.06,1.9l.27.42-.41.29c-.23.15-.45.3-.67.43a16.23,16.23,0,0,1-8.41,2.29,16.36,16.36,0,0,1-9.55-3A11,11,0,0,0,6.51,45a8.66,8.66,0,0,1-3.68-1.34l-.11-.12-.5-.87A8.75,8.75,0,0,1,2.73,38.74Z"/><polygon class="cls-2" points="46.87 20.13 46.87 20.13 46.87 20.13 46.87 20.13"/><path class="cls-2" d="M8.13,29.16a1.09,1.09,0,0,0,1.2-.93A9.1,9.1,0,0,1,13.26,22a9.08,9.08,0,0,1,7.16-1.61,1.08,1.08,0,0,0,1.28-.82,1.06,1.06,0,0,0-.82-1.28,11.25,11.25,0,0,0-8.86,2A11.29,11.29,0,0,0,7.19,28,1.08,1.08,0,0,0,8.13,29.16Z"/><path class="cls-2" d="M41.31,23.17a1.07,1.07,0,0,0-.82,0,13.89,13.89,0,0,0-8.94,11.36,1.08,1.08,0,0,0,1,1.18,1.1,1.1,0,0,0,1.18-1,11.81,11.81,0,0,1,7.53-9.56,1.09,1.09,0,0,0,.64-1.38A1,1,0,0,0,41.31,23.17Z"/><path class="cls-2" d="M45.33,24.17l1.76-.23A1.09,1.09,0,0,0,48,22.73,1.07,1.07,0,0,0,47,21.8h-.14L45.05,22a1.07,1.07,0,1,0,.28,2.13Z"/><path class="cls-2" d="M24,21.3l1.88.92a1.08,1.08,0,1,0,.94-1.94L25,19.37a1,1,0,0,0-.47-.11,1.07,1.07,0,0,0-1,.61A1.06,1.06,0,0,0,24,21.3Z"/><path class="cls-2" d="M65.52,19.77a11.59,11.59,0,0,1,13.62-1,1.09,1.09,0,0,0,.81.16,1,1,0,0,0,.67-.47A1.08,1.08,0,0,0,80.31,17a13.27,13.27,0,0,0-7.25-2.08,13.54,13.54,0,0,0-9,3.28A1.09,1.09,0,0,0,64,19.68,1.1,1.1,0,0,0,65.52,19.77Z"/><path class="cls-2" d="M83.27,19.65a1.07,1.07,0,0,0-.89.47,1.1,1.1,0,0,0-.17.81,1.08,1.08,0,0,0,.46.68l1.17.8a1.11,1.11,0,0,0,1.49-.29,1,1,0,0,0,.17-.8,1,1,0,0,0-.45-.69l-1.18-.8A1.08,1.08,0,0,0,83.27,19.65Z"/></g></g></svg>