<svg xmlns="http://www.w3.org/2000/svg" viewBox="0 0 113.88 109.72"><defs><style>.cls-1{fill:#2e213c;}</style></defs><g id="Capa_2" data-name="Capa 2"><g id="Icons"><path class="cls-1" d="M40.69,109.72c-15.36,0-27.86-19.86-27.86-44.28s12.5-44.28,27.86-44.28A19,19,0,0,1,50.4,23.9a1,1,0,1,1-1,1.76,17,17,0,0,0-8.68-2.46c-14.23,0-25.81,19-25.81,42.24s11.58,42.24,25.81,42.24a17,17,0,0,0,8.67-2.46,1,1,0,0,1,1,1.77A19.06,19.06,0,0,1,40.69,109.72Z"/><path class="cls-1" d="M24.1,103.66C10.81,103.66,0,86.51,0,65.44S10.81,27.22,24.1,27.22a15.74,15.74,0,0,1,2.82.26,1,1,0,0,1,.82,1.19,1,1,0,0,1-1.19.82,14.4,14.4,0,0,0-2.45-.22c-12.16,0-22,16.23-22,36.17s9.89,36.17,22.05,36.17a13.45,13.45,0,0,0,2.45-.22,1,1,0,0,1,1.19.82,1,1,0,0,1-.82,1.19A15.74,15.74,0,0,1,24.1,103.66Z"/><path class="cls-1" d="M56.94,109.72c-12.16,0-21.69-19.45-21.69-44.28s9.53-44.28,21.69-44.28S78.62,40.61,78.62,65.44,69.1,109.72,56.94,109.72Zm0-86.52c-10.83,0-19.64,19-19.64,42.24s8.81,42.24,19.64,42.24,19.64-19,19.64-42.24S67.77,23.2,56.94,23.2Z"/><path class="cls-1" d="M73.18,109.72A19,19,0,0,1,63.49,107a1,1,0,1,1,1-1.77,17,17,0,0,0,8.66,2.46c14.24,0,25.82-19,25.82-42.24S87.42,23.2,73.18,23.2a17,17,0,0,0-8.67,2.46,1,1,0,1,1-1-1.76,19,19,0,0,1,9.7-2.74c15.37,0,27.87,19.86,27.87,44.28S88.55,109.72,73.18,109.72Z"/><path class="cls-1" d="M89.78,103.66A15.74,15.74,0,0,1,87,103.4a1,1,0,1,1,.37-2,13.37,13.37,0,0,0,2.45.22c12.16,0,22-16.22,22-36.17s-9.89-36.17-22-36.17a14.31,14.31,0,0,0-2.45.22,1,1,0,1,1-.37-2,15.65,15.65,0,0,1,2.82-.26c13.29,0,24.1,17.15,24.1,38.22S103.07,103.66,89.78,103.66Z"/><path class="cls-1" d="M48.3,25a1.14,1.14,0,0,1-.4-.08,1,1,0,0,1-.54-1.34c2.28-5.42,2.6-9.7,1-12.74a8.11,8.11,0,0,0-5.18-3.9,1,1,0,0,1-.72-.54,1,1,0,0,1,0-.89L44.63.6a1,1,0,0,1,1-.6A18.51,18.51,0,0,1,58.06,5.89c3.62,4.12,5.07,10,4.3,17.39a1,1,0,0,1-1.12.91,1,1,0,0,1-.91-1.12c.7-6.83-.58-12.16-3.81-15.83A16.49,16.49,0,0,0,46.2,2.1L44.76,5.26a10,10,0,0,1,5.37,4.58c1.94,3.61,1.65,8.49-.89,14.5A1,1,0,0,1,48.3,25Z"/><path class="cls-1" d="M56.94,23.2a1.1,1.1,0,0,1-.31,0A1,1,0,0,1,56,21.87a15.34,15.34,0,0,0-1.16-11,1,1,0,0,1,.4-1.39,1,1,0,0,1,1.39.4,17.18,17.18,0,0,1,1.32,12.56A1,1,0,0,1,56.94,23.2Z"/><path class="cls-1" d="M61.6,102.26a1,1,0,0,1-.78-.37,1,1,0,0,1,.13-1.44C61,100.39,69,93.1,69,63.26a1,1,0,1,1,2,0c0,31-8.45,38.46-8.81,38.76A1,1,0,0,1,61.6,102.26Z"/></g></g></svg>