<svg xmlns="http://www.w3.org/2000/svg" viewBox="0 0 91.97 100.93"><defs><style>.cls-1{fill:#8c6c2a;}</style></defs><g id="Capa_2" data-name="Capa 2"><g id="Icons"><path class="cls-1" d="M91.81,59.47a4.14,4.14,0,0,0-3.29-3,6,6,0,0,0,2.41-3.23,2.5,2.5,0,0,0-.62-2.17A4.31,4.31,0,0,0,87,49.54a6.27,6.27,0,0,0-2.37.51,6.55,6.55,0,0,0-.8-4.25,3.33,3.33,0,0,0-2.57-1.38H81c-2.93,0-8.28,4.42-11.57,7.41a3.24,3.24,0,0,0-.27-1.26,2.68,2.68,0,0,0-1.94-1.5c-2.5-.55-7.26,3.41-9.92,5.89a3.21,3.21,0,0,0-.62-1.22,2.52,2.52,0,0,0-2.37-.84c-2.15.26-4.93,8.21-8.26,23.6a32.61,32.61,0,0,0-2.06,3,50.62,50.62,0,0,0,0-7c.55-1.35,2.43-7,.65-17.89,3.52-4.64,8.23-7.12,12-9.1,3.49-1.82,6-3.13,6-5.47,0-1.62-.48-2.74-1.4-3.31l-.16-.1c1-1.31,2.14-3.15,2-4.85a3.32,3.32,0,0,0-1.41-2.5,4.78,4.78,0,0,0-5.35-.05C58,24.62,60.06,17,58,13.49c-.91-1.51-2-2.25-3.19-2.14a2.9,2.9,0,0,0-1,.26c.48-2.56.7-5.57-.35-7.36a3.29,3.29,0,0,0-2.31-1.61,5.57,5.57,0,0,0-4,.6,3.93,3.93,0,0,0-1-2.68A2.37,2.37,0,0,0,43.67.18c-2.43.82-3.19,3.2-3.4,5.07a5.39,5.39,0,0,0-3.5-1.18A3.33,3.33,0,0,0,34.21,6c-1.34,2.45-.84,7.1-.23,10.43a2.59,2.59,0,0,0-.94-.26,2.5,2.5,0,0,0-2.28,1.19c-1.19,1.62-.87,9-.65,11.51a2.09,2.09,0,0,0-1.18.68,3.31,3.31,0,0,0-.65,1.28c-2.39-2.87-6.19-6.95-8.52-6.95a2.07,2.07,0,0,0-.5.06,2.47,2.47,0,0,0-1.69,1.32,3.52,3.52,0,0,0-.34,1.31c-2.16-2.5-5.11-5.3-7.5-5.3h0a2.81,2.81,0,0,0-2.21,1.13c-1,1.24-1,3.34-.92,5a4.84,4.84,0,0,0-2.18-.58,3.62,3.62,0,0,0-3,1.65,3.3,3.3,0,0,0-.59,2.86A5,5,0,0,0,2.6,33.74a6.63,6.63,0,0,0-2.45,4.2,5,5,0,0,0,.64,3.92,11.24,11.24,0,0,0,5.15,3.83,3.49,3.49,0,0,0-.75.78c-.8,1.16-.82,2.75-.07,4.73,1.48,3.92,5.91,5.13,9.16,5.48a6.91,6.91,0,0,0-2.2,5.58c.16,2.34,1.54,3.68,3.77,3.68a7.66,7.66,0,0,0,1.8-.24,4.51,4.51,0,0,0,0,.52,4.23,4.23,0,0,0,1.76,3,2.2,2.2,0,0,0,1.39.49c1.62,0,3.26-1.68,5.54-4,2.8-2.86,6.61-6.72,11.25-8,.38.75.76,1.5,1.12,2.28,8,17.2-1.24,39.27-1.34,39.49a1.05,1.05,0,0,0,.55,1.38,1,1,0,0,0,.41.08,1,1,0,0,0,1-.63,67.86,67.86,0,0,0,3.88-13.66,25,25,0,0,1,4.17-8.43c5.22,1.33,9.5,4.91,12.65,7.56,2.54,2.14,4.37,3.68,6.06,3.68h0a2.37,2.37,0,0,0,1.28-.35,3.55,3.55,0,0,0,2-2.71,2.06,2.06,0,0,0,0-.35,9.67,9.67,0,0,0,2.3.31c2.26,0,3.64-1.17,3.8-3.22a5.69,5.69,0,0,0-2.14-4.85c3.89-.21,8.17-1.23,9.7-4.45.77-1.62.81-3,.12-4.07a3.47,3.47,0,0,0-1.21-1.14c3.38-1.3,8.09-3.54,9.56-6.28A3.65,3.65,0,0,0,91.81,59.47ZM32.45,18.56a1.05,1.05,0,0,1,.44-.34c.52,0,1.49,1.17,2,2.16a1.07,1.07,0,0,0,1.32.48,1.06,1.06,0,0,0,.62-1.25c-.71-2.62-2.24-10-.8-12.65.36-.66.72-.77,1-.8,1.12-.12,2.84,1.35,3.5,2.09a1.06,1.06,0,0,0,1.22.25,1,1,0,0,0,.6-1.08s-.46-4.42,2-5.25c.22-.08.37-.09.41,0,.44.4.45,2.53,0,4.54a2.39,2.39,0,0,0-.06.28,1.05,1.05,0,0,0,2.06.4c0-.07,0-.14,0-.22a3.56,3.56,0,0,1,1.29-2,3.5,3.5,0,0,1,2.67-.42,1.15,1.15,0,0,1,.86.61c1.13,1.91,0,7.27-1,10.2a1.05,1.05,0,0,0,2,.75c.49-1.15,1.58-2.77,2.35-2.82.28,0,.8.38,1.25,1.12,2,3.35-1.54,13.82-3.08,17.57a1,1,0,0,0,1.77,1.07s3.3-3.88,5.65-2.19a1.22,1.22,0,0,1,.55.94c.1,1.46-1.77,3.81-3,4.95a1,1,0,0,0,1.18,1.7,1.22,1.22,0,0,1,.9-.06c.2.12.41.59.41,1.54s-2.36,2.29-4.86,3.6c-3.39,1.76-7.86,4.12-11.5,8.18-.31-2.28-.61-5.08-.85-8.2,2.68-11.28,9.46-14.51,9.52-14.53A1,1,0,0,0,52,27.22c-.27.12-5.59,2.61-9,10.75-.46-9.93-.23-21.54,1.75-30a1,1,0,1,0-2-.48c-1.63,7-2.11,15.61-2,23.76C35.88,26.62,35,25.84,35,25.8a1.06,1.06,0,0,0-1.48.1,1,1,0,0,0,.1,1.48s1.11,1,7.18,6.8c.09,3.3.27,6.46.49,9.34,0,0,0,0,0,.06a1,1,0,0,0,.08.64c.21,2.69.47,5.1.73,7.12-1.39-1.42-3.26-3.37-5.13-5.42C34.65,35,33.13,31.09,32.18,29.67a1,1,0,0,0,.07-.49C31.85,25.88,31.9,19.49,32.45,18.56ZM24.84,64.24c-1.55,1.58-3.3,3.38-4,3.38l-.08,0a1.88,1.88,0,0,1-.46-3,1,1,0,0,0,.07-1.34A1.06,1.06,0,0,0,19,63a8.21,8.21,0,0,1-3.16.87c-.93,0-1.58-.3-1.68-1.73-.27-3.93,3.76-5.34,3.93-5.39a1,1,0,0,0-.41-2s-.38,0-1,0c-2.42,0-8.19-.41-9.64-4.25-.34-.89-.64-2.1-.16-2.8s1.87-.8,2.28-.8h.38A1.07,1.07,0,0,0,10.72,46a1,1,0,0,0-.8-1.19c-1.56-.35-5.9-1.75-7.35-4.06a2.92,2.92,0,0,1-.38-2.32C2.55,37,3.26,35.2,4.67,35.2a1.91,1.91,0,0,1,.76.16,1,1,0,0,0,.84-1.92l-.2-.09c-1.42-.6-3-1.64-3.23-2.59a1.17,1.17,0,0,1,.27-1.07,1.53,1.53,0,0,1,1.3-.78,5,5,0,0,1,2.82,1.52,1,1,0,0,0,1.25.19A1.05,1.05,0,0,0,9,29.47c-.41-1.81-.62-4.82.16-5.83a.79.79,0,0,1,.67-.32c2,0,6.13,4.67,8.45,8a1,1,0,0,0,1.82-1c-.51-1.2-1.07-3.33-.67-4.13a.4.4,0,0,1,.32-.22c1.34,0,5.52,4.29,8.58,8.29a1.05,1.05,0,0,0,1.88-.77,4.51,4.51,0,0,1,.28-2.56h.07c1.12,1.47,3.24,10.16,5.1,19.57a48.32,48.32,0,0,0-3.62-4.6L32,45.78A36.39,36.39,0,0,0,12.14,34.09a1,1,0,1,0-.42,2,34.07,34.07,0,0,1,17.66,10c-3.05,1-10.3,3.08-17.38,2.62a1.09,1.09,0,0,0-1.12,1,1.05,1.05,0,0,0,1,1.11c.75.05,1.5.08,2.24.08a53.72,53.72,0,0,0,16.83-3.1,48.8,48.8,0,0,1,5.62,8C31.6,57.35,27.72,61.3,24.84,64.24Zm13.9-8.81q-.54-3-1-5.58c2.26,2.4,4.2,4.35,4.85,5a45.27,45.27,0,0,1,.58,11.77,36,36,0,0,0-2.52-7.53C40,57.82,39.39,56.61,38.74,55.43Zm50.89,5.92c-1.55,2.89-9.1,5.67-11.88,6.49A1,1,0,0,0,77.1,69a1.13,1.13,0,0,0,1.17.87c1.23,0,2.66.3,3.09,1a2.38,2.38,0,0,1-.24,2.05c-1.42,3-7.17,3.3-9.58,3.3-1.3,0-2.2-.08-2.22-.08a1,1,0,0,0-1.13.84,1.06,1.06,0,0,0,.73,1.21s4.69,1.43,4.44,4.77c0,.62-.23,1.29-1.71,1.29a11.45,11.45,0,0,1-3.83-.93,1.05,1.05,0,0,0-1.13,1.74,1.65,1.65,0,0,1,.56,1.13c0,.45-.56.85-1,1.1a.32.32,0,0,1-.2.06c-.93,0-2.76-1.55-4.71-3.2C58.22,81.53,54,78,48.78,76.43a30.18,30.18,0,0,1,3-3.05c5.09-1,10.86,3.49,15.1,6.77a37.83,37.83,0,0,0,3.86,2.78,1.07,1.07,0,0,0,.52.14,1,1,0,0,0,.52-2A38.5,38.5,0,0,1,68.2,78.5c-3.75-2.9-8.61-6.67-13.57-7.28a21.62,21.62,0,0,1,9.55-3.62C75.49,66.42,80.3,59.28,80.5,59a1,1,0,1,0-1.75-1.15c0,.06-4.46,6.61-14.79,7.69-.65.07-1.29.18-1.93.31a15.78,15.78,0,0,0,.87-4.32c.25-2.3.5-4.68,2-6.5a1,1,0,0,0-1.62-1.32c-1.88,2.3-2.18,5.12-2.44,7.6-.3,2.76-.55,4.49-2.06,5.29a.92.92,0,0,0-.37.36,27.43,27.43,0,0,0-7.5,4.55.87.87,0,0,0-.27.23c-.57.48-1.12,1-1.65,1.51C51,64.45,53.58,55.8,54.76,55c.23,0,.31.07.36.14a3.16,3.16,0,0,1,.27,2A1.06,1.06,0,0,0,56,58.23,1,1,0,0,0,57.18,58c2.84-2.88,7.65-6.92,9.61-6.92h0c.38.08.45.24.49.32.31.69-.25,2.34-.74,3.24a1.05,1.05,0,0,0,1.67,1.24c3.63-3.64,10.32-9.4,12.89-9.4h0a1.17,1.17,0,0,1,1,.5c.73,1,.44,3.46.09,4.76a1.06,1.06,0,0,0,1.67,1.1A6,6,0,0,1,87,51.64a2.23,2.23,0,0,1,1.75.8.42.42,0,0,1,.13.39c-.16.81-1.81,2.51-5.91,4.62a12.92,12.92,0,0,0-1.24.61,1,1,0,0,0,1,1.86s.47-.21,1.13-.55a9.8,9.8,0,0,1,3.63-.92,2.17,2.17,0,0,1,2.38,1.64A1.57,1.57,0,0,1,89.63,61.35Z"/></g></g></svg>