<svg xmlns="http://www.w3.org/2000/svg" viewBox="0 0 111.69 118.77"><defs><style>.cls-1{fill:#8c6c2a;}</style></defs><g id="Capa_2" data-name="Capa 2"><g id="Icons"><path class="cls-1" d="M108.06,38.22l-.93-.52.53-.92a4.88,4.88,0,0,0,0-4.89c-1.43-2.85-4.5-4.42-8.66-4.42a29.64,29.64,0,0,0-16,4.35L77,35.54l4.73-5.31A75.69,75.69,0,0,1,93.65,19.31a7.51,7.51,0,0,0,2.93-6,6.36,6.36,0,0,0-3-5.3,6.24,6.24,0,0,0-6.34-.24l-1.17.61L85.79,7.1a7.41,7.41,0,0,0-4-5,6,6,0,0,0-5.15-.29,6.2,6.2,0,0,0-1.72,1.12l-.9.82-.68-1a5,5,0,0,0-.59-.76A6.66,6.66,0,0,0,67.62,0a6.43,6.43,0,0,0-5.78,3l-.6,1-.93-.71a8.22,8.22,0,0,0-1.1-.7A7.48,7.48,0,0,0,53.61,2a7.74,7.74,0,0,0-5,5.11,6.85,6.85,0,0,0,.66,6.12,104.54,104.54,0,0,1,6.43,9.5l3.22,5.44-4.81-4.11a27.71,27.71,0,0,0-13.75-6.39A8.12,8.12,0,0,0,39,17.56a7.41,7.41,0,0,0-5.39,2.33,6.44,6.44,0,0,0-1.74,4.61,7,7,0,0,0,.21,1.72l.26,1.05-1.06.23a5,5,0,0,0-2.08.94,4.78,4.78,0,0,0-1.74,3.83A6.78,6.78,0,0,0,29.62,38l.71.57-.47.79a5.77,5.77,0,0,0-.38,5,6.79,6.79,0,0,0,6.75,4.54,5.76,5.76,0,0,0,3.16-1.34,8.62,8.62,0,0,1,1.07-.67A22.88,22.88,0,0,1,49.08,45c6,0,10.86,3.4,15.4,10.72l.2.34-.06.39a94.79,94.79,0,0,1-12.53,33.4l-1.82,3-.12-3.5c-.3-8.48-5.22-17.28-11.43-20.48a26.85,26.85,0,0,0-14.37-4.07c-9.1,0-17.34,2.63-21.58,6.87A8.33,8.33,0,0,0,0,77.43C0,79.92.79,83.09,4.59,84l.87.21-.07.89a6.1,6.1,0,0,0,2,5,5.5,5.5,0,0,0,5.8.89l.8-.29.45.72A5.36,5.36,0,0,0,18.57,94c4.19,0,6.8-2.6,6.8-6.79,0-7.48,5.84-15.41,12.26-16.63l.38-.07.34.19c7,4,12.47,16.81,8.8,26l-.06.51-.17.23a92.86,92.86,0,0,1-20.17,19.82l1.05,1.5A96.85,96.85,0,0,0,66.43,56.68l.06-.35.25-.24A19.26,19.26,0,0,1,80,50.88a22.34,22.34,0,0,1,14.43,5.56A7.16,7.16,0,0,0,99,58.72a7.08,7.08,0,0,0,4.57-2.23,4.47,4.47,0,0,0,1.08-4l-.14-1.07,1.08-.1a5.89,5.89,0,0,0,2.52-.87,7.7,7.7,0,0,0,3.57-6.43A6.78,6.78,0,0,0,108.06,38.22ZM33.61,70.13C28,73.21,23.54,80.72,23.54,87.24c0,3.16-1.81,5-5,5a3.71,3.71,0,0,1-3-3,.91.91,0,0,0-.48-.81.93.93,0,0,0-.94,0C12,89.85,10,89.93,8.59,88.71a4.28,4.28,0,0,1-1-5A.91.91,0,0,0,6.8,82.4c-3.39,0-5-1.58-5-5a6.74,6.74,0,0,1,2.23-4.51c3.07-3.06,10-6.33,20.21-6.33a26.67,26.67,0,0,1,9.2,1.64l2.16.8ZM62.48,49.76c-6-6.95-13.33-8.36-22.72-4.55a8.72,8.72,0,0,0-1.39.84,4.29,4.29,0,0,1-2.14,1,5,5,0,0,1-5-3.29c-.82-2.45.24-4.08,1.5-4.78a.91.91,0,0,0-.26-1.72c-1.23-.2-3.29-1.11-3.16-4.95a3.09,3.09,0,0,1,1-2.46,4,4,0,0,1,2.55-.71,6.19,6.19,0,0,1,1.18.1,1,1,0,0,0,1-.46.93.93,0,0,0-.16-1.08A4.55,4.55,0,0,1,33.7,24.5a4.69,4.69,0,0,1,1.21-3.32A5.76,5.76,0,0,1,39,19.39a5.27,5.27,0,0,1,1,.09C53.37,21.65,62.23,32.4,64.31,49l.44,3.44Zm4,1-.44-3.59c-1.87-15.28-8.49-25.86-15.36-35a5.16,5.16,0,0,1-.38-4.47,5.84,5.84,0,0,1,3.85-3.92,5.64,5.64,0,0,1,4.2.5,5,5,0,0,1,2.5,2.82.91.91,0,0,0,1.78-.25c.09-3.12,2-5,5-5a4.93,4.93,0,0,1,3.74,1.32,5,5,0,0,1,1.22,3.07l0,0,0,.48a.92.92,0,0,0,.75,1,1.07,1.07,0,0,0,1-.64,5.65,5.65,0,0,1,3-3.61,4.14,4.14,0,0,1,3.61.24c1.69.85,3.42,2.35,3.42,7a.92.92,0,0,0,1.66.54C87.65,9,90.59,8.14,92.61,9.52a4.55,4.55,0,0,1,2.15,3.82,5.72,5.72,0,0,1-2.17,4.49A80.23,80.23,0,0,0,68,47.47Zm40.67-1.8a3.77,3.77,0,0,1-3.82.2.92.92,0,0,0-1.23,1.23c.44.86,1.4,3.61.18,4.83A5.12,5.12,0,0,1,99,56.89a5.32,5.32,0,0,1-3.39-1.79c-7-6-16.71-7.72-24.44-4.2l-2.87,1.31,1.52-2.77C77.4,35.7,86.67,29.29,99,29.29c3.48,0,5.91,1.19,7,3.42a3.26,3.26,0,0,1-1.53,4.65.91.91,0,0,0,.38,1.74c1.37,0,5,1.53,5,5A5.9,5.9,0,0,1,107.16,48.94Z"/><path class="cls-1" d="M16.58,78.83l-1.34-1.24a24,24,0,0,0-3,4.53l1.8.52A21,21,0,0,1,16.58,78.83Z"/><path class="cls-1" d="M18.57,74.09,20,75.27l.26-.27-1-1.59C19,73.62,18.79,73.85,18.57,74.09Z"/><path class="cls-1" d="M97,50.66l.58-.55c-1.45-1.38-4.21-3.31-9.13-4.69L88,47.19c4.68,1.33,7.17,3.16,8.35,4.29Z"/><path class="cls-1" d="M81.94,18.53a57.85,57.85,0,0,0-10,11.29L70.4,32.18,70,29.39a48.35,48.35,0,0,0-1.25-6.18l-1.73.58a49.28,49.28,0,0,1,1.62,12.44.92.92,0,0,0,.74.9h.17a.91.91,0,0,0,.85-.58c3.13-7.83,10.26-14.5,12.65-16.6Z"/></g></g></svg>