<svg xmlns="http://www.w3.org/2000/svg" viewBox="0 0 109.45 109.45"><defs><style>.cls-1{fill:none;}.cls-2{fill:#8c6c2a;}</style></defs><g id="Capa_2" data-name="Capa 2"><g id="Icons"><path class="cls-1" d="M39.37,59.58a13.05,13.05,0,0,1,.49-1.74,2.59,2.59,0,0,1,.28-.55,6.92,6.92,0,0,1-1.7-.18A9.32,9.32,0,0,1,39.37,59.58Z"/><path class="cls-1" d="M62.68,38.93a7.25,7.25,0,0,1-2.34,1,7.9,7.9,0,0,1-3.9-.07v0a7.28,7.28,0,0,1,.35,1.31,7.16,7.16,0,0,1,0,2.65c1.25,1.09,3.73.88,5.61-.5a6.59,6.59,0,0,0,1.45-1.49A7.51,7.51,0,0,1,62.91,40,6.08,6.08,0,0,1,62.68,38.93Z"/><path class="cls-1" d="M67.18,26.78A22.34,22.34,0,0,1,67,31.1,11.84,11.84,0,0,1,71,30a19,19,0,0,1,6.75.75,16.92,16.92,0,0,1,3.37,1.32,35,35,0,0,0-15-10.24,2.42,2.42,0,0,1,.33.59A15.36,15.36,0,0,1,67.18,26.78Z"/><path class="cls-1" d="M45.08,55.42a7.18,7.18,0,0,1-1.57,1,16,16,0,0,1,2.07.79A2.09,2.09,0,0,1,45.5,57,12.19,12.19,0,0,1,45.08,55.42Z"/><path class="cls-1" d="M68,41.15l.36.07a6.13,6.13,0,0,0,3-.2,5.29,5.29,0,0,0,3.6-3.2,2.61,2.61,0,0,0,0-1.54c-.41-1.31-1.88-2.16-3.74-2.16l-.46,0a6.71,6.71,0,0,0-1.47.29c-2.08.64-3.61,2.21-3.72,3.81a2.38,2.38,0,0,0,.1.93A3.24,3.24,0,0,0,68,41.15Z"/><path class="cls-1" d="M54.1,23.15c.55.55,1.07,1.12,1.55,1.7a21.61,21.61,0,0,1,3.86-2.51A15.85,15.85,0,0,1,63.12,21a34.63,34.63,0,0,0-8.39-1.07,36.35,36.35,0,0,0-4.7.35,2.12,2.12,0,0,1,.6.2A15.25,15.25,0,0,1,54.1,23.15Z"/><path class="cls-1" d="M50.35,37.13a3.5,3.5,0,0,0,.81.49,2.59,2.59,0,0,0,1.63.18,2.3,2.3,0,0,0,.77-.32,2.65,2.65,0,0,0,.55-.45,3.47,3.47,0,0,0,.61-.87,3.63,3.63,0,0,0,.28-.67,6,6,0,0,0,.11-3.18A6.11,6.11,0,0,0,54.68,31a5.08,5.08,0,0,0-1.79-2.22,3,3,0,0,0-1.67-.56,2.24,2.24,0,0,0-.52.06c-1.43.31-2.42,1.87-2.48,3.88a6.2,6.2,0,0,0,.15,1.61A5.78,5.78,0,0,0,50.35,37.13Z"/><path class="cls-1" d="M48,70.51a2.56,2.56,0,0,0-.94-.69,3.56,3.56,0,0,0-1.37-.26,5,5,0,0,0-1.71.31l-.13.06A6.37,6.37,0,0,0,42,71c-.18.15-.34.31-.49.46a5.09,5.09,0,0,0-1.61,3.83,2.64,2.64,0,0,0,.59,1.49,3.54,3.54,0,0,0,3.84.7,6.22,6.22,0,0,0,2.1-1.19,1.12,1.12,0,0,0,.2-.18,6.19,6.19,0,0,0,1.07-1.23A5.34,5.34,0,0,0,48.49,73a3.16,3.16,0,0,0-.28-2.09A2.4,2.4,0,0,0,48,70.51Z"/><path class="cls-1" d="M82.8,35.54a12.47,12.47,0,0,1-1.25,2.19,13.86,13.86,0,0,1,2.71.78,2.47,2.47,0,0,1,1.44,2.91,15.76,15.76,0,0,1-1.78,4,21.83,21.83,0,0,1-3,4c.5-.18,1-.34,1.58-.48a16.1,16.1,0,0,1,4.12-.62h.23a2.45,2.45,0,0,1,2.4,2.18,34.56,34.56,0,0,0-6.28-16A2.48,2.48,0,0,1,82.8,35.54Z"/><path class="cls-1" d="M60.51,58c0,.13-.07.26-.11.38A6.45,6.45,0,0,1,60,59.48a15.18,15.18,0,0,1,1.81-.29c.44,0,.87-.06,1.32-.06a20.46,20.46,0,0,1,5.14.73A8,8,0,0,1,71,58.56a8.84,8.84,0,0,1,1.07-.18l0-.21-.28.09a19,19,0,0,1-6.72.92A11.41,11.41,0,0,1,60.51,58Z"/><path class="cls-1" d="M59.17,33.59c0,.26,0,.53-.06.8A7.27,7.27,0,0,1,58.25,37a4.81,4.81,0,0,0,2.3-1.23,6.88,6.88,0,0,0,1.2-1.52,6.32,6.32,0,0,0,.75-2c.34-1.74-.17-3.29-1.31-3.94a3.19,3.19,0,0,0-3.17.2l.07.15A11,11,0,0,1,59.17,33.59Z"/><path class="cls-1" d="M79.89,62.61A6.17,6.17,0,0,0,82.18,61a5.85,5.85,0,0,0,1.56-3.3,3,3,0,0,0-.85-2.62A2.77,2.77,0,0,0,81,54.39a5.57,5.57,0,0,0-3.94,2,6.08,6.08,0,0,0-1.52,3,3.12,3.12,0,0,0,.81,2.9A3.37,3.37,0,0,0,79.89,62.61Z"/><path class="cls-1" d="M59.49,50.18a3,3,0,0,0,.66,2.68,5.92,5.92,0,0,0,3.08,2,6.83,6.83,0,0,0,1.78.25c1.92,0,3.46-.91,3.84-2.26a2.49,2.49,0,0,0,0-1.5A4.5,4.5,0,0,0,66.86,49a6.88,6.88,0,0,0-1.75-.78,6.48,6.48,0,0,0-1.78-.25C61.41,47.93,59.87,48.83,59.49,50.18Z"/><path class="cls-1" d="M74.4,64.43a7.25,7.25,0,0,1-1.66-2.31A5.09,5.09,0,0,0,71.3,62a3.4,3.4,0,0,0-1.8.63l.54,0a7.15,7.15,0,0,1,3.08,1.23,1.39,1.39,0,0,1,.19.15,10.83,10.83,0,0,1,3.37,4.48c0,.11.09.22.14.34a3.17,3.17,0,0,0,.28-.36A2.94,2.94,0,0,0,77.32,66,7.26,7.26,0,0,1,74.4,64.43Z"/><path class="cls-1" d="M39.31,63a2.05,2.05,0,0,0-.51-.18,2.32,2.32,0,0,0-.65-.08,3.55,3.55,0,0,0-1.57.4,5.89,5.89,0,0,0-2.53,2.7l-.1.22a6.3,6.3,0,0,0-.52,2c-.18,1.73.43,3.15,1.59,3.72A2.59,2.59,0,0,0,36.1,72a14.78,14.78,0,0,1,1.27-1.94,12.06,12.06,0,0,1,2.33-2.3A9.17,9.17,0,0,1,40.84,67C41.12,65.21,40.52,63.62,39.31,63Z"/><path class="cls-1" d="M43.32,53.09a3,3,0,0,0,.7-2.66,6,6,0,0,0-1.76-3.21l-.13-.13-.19,0a7.65,7.65,0,0,1-1.18,4.35,7.06,7.06,0,0,1-1.68,1.86C40.66,54.11,42.39,54,43.32,53.09Z"/><path class="cls-1" d="M72,68.27a6.94,6.94,0,0,0-.75-.89A5,5,0,0,0,68,65.82h-.13a2.73,2.73,0,0,0-1.31.32l-.24.14L65.89,66l.33.41a2.93,2.93,0,0,0-1,2.1,4,4,0,0,0,0,.85,6.05,6.05,0,0,0,1,2.76l-.32.46.42-.31a5.85,5.85,0,0,0,3.1,2.31,2.92,2.92,0,0,0,2.53-.32,2.6,2.6,0,0,0,.83-1A4.25,4.25,0,0,0,73,70.39,6.31,6.31,0,0,0,72,68.27Z"/><path class="cls-1" d="M69.44,45.16c-.07.15-.12.3-.17.44a18.6,18.6,0,0,1,4.42,3.58,6.19,6.19,0,0,0,1.58-.55c2.4-1.19,3.67-3.54,2.82-5.25a2.59,2.59,0,0,0-.89-1,15.82,15.82,0,0,1-1.93,1.29,10.58,10.58,0,0,1-5.64,1.51Z"/><path class="cls-1" d="M62.6,73.75a8.91,8.91,0,0,1-.77-1.87,6.86,6.86,0,0,1-.2-1.1c0-.12,0-.24,0-.36a2.92,2.92,0,0,0-1.46.93,4.87,4.87,0,0,0-1.08,2.22,6.55,6.55,0,0,0-.14,1.88c.19,2.59,1.78,4.61,3.62,4.61h.17a3.51,3.51,0,0,0,2.85-2.78c-.19-.16-.38-.32-.56-.49A11.82,11.82,0,0,1,62.6,73.75Z"/><path class="cls-1" d="M30.71,50.32c.2.09.47.22.75.38a4.74,4.74,0,0,0,1.26.34A6.62,6.62,0,0,0,34.89,51a9.26,9.26,0,0,0,.94-.26c2.11-.76,3.44-2.46,3.15-4a2.65,2.65,0,0,0-.71-1.35,4.76,4.76,0,0,0-3.43-1.25h-.45c-.28,0-.57.06-.86.11a6.21,6.21,0,0,0-2.73,1.27,3.23,3.23,0,0,0-1.36,3.08A2.85,2.85,0,0,0,30.71,50.32Z"/><path class="cls-1" d="M35.05,59.19a5.2,5.2,0,0,0-4.13-2.9,2.53,2.53,0,0,0-1.25.32c-1.67.92-2,3.58-.67,5.92a6.51,6.51,0,0,0,1.39,1.75,9.16,9.16,0,0,1,1.82-2.52,7,7,0,0,1,2.85-1.71L35.4,60A7.59,7.59,0,0,0,35.05,59.19Z"/><path class="cls-1" d="M53.36,72.83a7.13,7.13,0,0,1-1.58,1.57,7.33,7.33,0,0,1-.9,2.68,9.06,9.06,0,0,1-1.58,2,3.42,3.42,0,0,0,3.57.94c1.75-.74,2.31-3.36,1.26-5.83A6.24,6.24,0,0,0,53.36,72.83Z"/><path class="cls-1" d="M49.34,54.17a5.93,5.93,0,0,0,.83,3.56,5.17,5.17,0,0,0,4.12,2.82,2.54,2.54,0,0,0,1.31-.34c1.64-1,1.89-3.62.55-5.94A5.17,5.17,0,0,0,52,51.45a2.64,2.64,0,0,0-1.31.34A3,3,0,0,0,49.34,54.17Z"/><path class="cls-1" d="M44.21,64.51a7,7,0,0,1,.38,1.55,5.37,5.37,0,0,1,.7,0,7.67,7.67,0,0,1,4.38,2,6.38,6.38,0,0,1,.51.53,7.3,7.3,0,0,1,.92,1.47,4.83,4.83,0,0,0,0-1.61,6.42,6.42,0,0,0-.73-2.13c-1.25-2.26-3.76-3.49-5.37-2.59a2.44,2.44,0,0,0-.8.7Z"/><path class="cls-1" d="M56.87,48.87a6.46,6.46,0,0,1,.58-1.18,7.3,7.3,0,0,1-1.87-1,5.76,5.76,0,0,1-.56.72A18.61,18.61,0,0,1,56.87,48.87Z"/><path class="cls-1" d="M54.73,9.66A45.07,45.07,0,1,0,99.79,54.73,45.12,45.12,0,0,0,54.73,9.66Zm0,82A36.93,36.93,0,1,1,91.65,54.73,37,37,0,0,1,54.73,91.65Z"/><path class="cls-1" d="M89.27,50.47a15.67,15.67,0,0,1-.21,4.39,19.12,19.12,0,0,1-2.17,6.44,10.66,10.66,0,0,1-4.09,4.15,4,4,0,0,1-.42.2c.26.48.51,1,.73,1.46a15.59,15.59,0,0,1,1.34,4.19A2.45,2.45,0,0,1,82.7,74a15.47,15.47,0,0,1-4.36.55,2,2,0,0,0-.34,0c0,.21,0,.42,0,.63a15.45,15.45,0,0,1-.35,4.38A2.45,2.45,0,0,1,75,81.45,15.74,15.74,0,0,1,70.8,80.3c-.52-.21-1-.44-1.53-.68A21.6,21.6,0,0,1,67.43,84a15.58,15.58,0,0,1-2.56,3.58,2.45,2.45,0,0,1-3.23.23,15.76,15.76,0,0,1-3-3.17c-.12-.18-.25-.35-.38-.53a12.94,12.94,0,0,1-.83,2.29,2.5,2.5,0,0,1-3,1.27,15.66,15.66,0,0,1-3.91-2,19.36,19.36,0,0,1-4.69-4.31,19.88,19.88,0,0,1-5.74,1.55,15.81,15.81,0,0,1-4.4,0,2.45,2.45,0,0,1-2.08-2.48,11.66,11.66,0,0,1,.09-1.27c-.19.07-.37.12-.55.17A2.52,2.52,0,0,1,30.19,78a16,16,0,0,1-1-4.27,20.39,20.39,0,0,1,.08-5.77,7,7,0,0,1-1.86-1.18,10.67,10.67,0,0,1-3-5A19.14,19.14,0,0,1,23.71,55,17.81,17.81,0,0,1,24,52.77a14.89,14.89,0,0,1-1.76-1.12,2.47,2.47,0,0,1-.64-3.19A15.87,15.87,0,0,1,24.35,45a19,19,0,0,1,5.57-3.88l.08,0A2.46,2.46,0,0,1,31.2,40c-.3-.58-.59-1.19-.85-1.81a15.21,15.21,0,0,1-1.2-4.23A2.45,2.45,0,0,1,31,31.24a15.41,15.41,0,0,1,4.38-.41A19.65,19.65,0,0,1,41.72,32a2.49,2.49,0,0,1,2.46-1.52,20.7,20.7,0,0,1,1.27-5.42,15.47,15.47,0,0,1,2-3.91,2.28,2.28,0,0,1,.65-.59A34.95,34.95,0,1,0,89.27,50.47Z"/><path class="cls-1" d="M54.73,3.32a51.41,51.41,0,1,0,51.4,51.41A51.47,51.47,0,0,0,54.73,3.32Zm0,98.57a47.16,47.16,0,1,1,47.16-47.16A47.21,47.21,0,0,1,54.73,101.89Z"/><path class="cls-1" d="M51.8,46.39a3,3,0,0,0,1.41-2.86,6.09,6.09,0,0,0-.48-2.31l-.21-.45a7.72,7.72,0,0,1-4.47-1.06,7.36,7.36,0,0,1-1.22,4.35l-.2.27c.13.18.27.36.41.53C48.42,46.5,50.45,47.17,51.8,46.39Z"/><path class="cls-1" d="M64.56,64A4.8,4.8,0,0,0,62,63.29a6.47,6.47,0,0,0-1.93.3c-2.56.8-4.19,2.93-3.62,4.75a2.65,2.65,0,0,0,.81,1.2,7.46,7.46,0,0,1,4.54-2.09H62A7.37,7.37,0,0,1,64.56,64Z"/><path class="cls-1" d="M53.4,63.66a7,7,0,0,1,.45.79c.09-.25.2-.5.31-.74l.05-.09a7,7,0,0,1-.8,0Z"/><path class="cls-1" d="M42.37,36.82a7,7,0,0,0-1.08-.59c-1.93-.86-4-.57-4.89.69a3.32,3.32,0,0,0,.06,3.39.83.83,0,0,1,.07.13,6.74,6.74,0,0,1,2.23,1.05,7.71,7.71,0,0,1,2,2,4.57,4.57,0,0,0,1.76.05,3,3,0,0,0,.89-.27,2.57,2.57,0,0,0,1-.87,2.41,2.41,0,0,0,.22-.42,3.18,3.18,0,0,0,0-2.28A5.87,5.87,0,0,0,42.37,36.82Z"/><path class="cls-2" d="M54.73,7.57a47.16,47.16,0,1,0,47.16,47.16A47.21,47.21,0,0,0,54.73,7.57Zm0,92.22A45.07,45.07,0,1,1,99.79,54.73,45.12,45.12,0,0,1,54.73,99.79Z"/><path class="cls-2" d="M54.73,17.8A36.93,36.93,0,1,0,91.65,54.73,37,37,0,0,0,54.73,17.8Zm0,71.75a34.82,34.82,0,0,1-6.62-69,2.58,2.58,0,0,1,1.92-.3,36.35,36.35,0,0,1,4.7-.35A34.63,34.63,0,0,1,63.12,21c.17,0,.35-.12.51-.15a2.46,2.46,0,0,1,2.48,1,35,35,0,0,1,15,10.24c.23.12.49.23.7.35a2.44,2.44,0,0,1,1.14,2,34.56,34.56,0,0,1,6.28,16h0A34.68,34.68,0,0,1,54.73,89.55Z"/><path class="cls-2" d="M54.73,0a54.73,54.73,0,1,0,54.72,54.73A54.79,54.79,0,0,0,54.73,0Zm0,107.18a52.46,52.46,0,1,1,52.45-52.45A52.51,52.51,0,0,1,54.73,107.18Z"/><path class="cls-2" d="M45.17,31.73l-.89-.19a1.42,1.42,0,0,0-1.62.94l-.12.36-.17.56-.54-.23v-.55l-.19.46a18.22,18.22,0,0,0-6.31-1.2,14.35,14.35,0,0,0-4.07.37,1.42,1.42,0,0,0-1.06,1.55,14.64,14.64,0,0,0,1.12,3.93A24.34,24.34,0,0,0,32.43,40l.38.67-.77.1a1.41,1.41,0,0,0-1.15.92l-.08.22-.47.19a17.85,17.85,0,0,0-5.26,3.68A14.4,14.4,0,0,0,22.49,49a1.43,1.43,0,0,0,.37,1.84A12.74,12.74,0,0,0,24.8,52l.36.18-.08.39a17.24,17.24,0,0,0-.33,2.46,18.51,18.51,0,0,0,.59,6.39,9.7,9.7,0,0,0,2.72,4.5A6.27,6.27,0,0,0,30,67.09l.43.15-.09.45a18.83,18.83,0,0,0-.15,5.87,14.07,14.07,0,0,0,1,4,1.45,1.45,0,0,0,1.68.83,12.38,12.38,0,0,0,1.29-.44l.89-.37-.18,1a10.77,10.77,0,0,0-.22,2,1.43,1.43,0,0,0,1.2,1.44,15.18,15.18,0,0,0,4.09,0,18.48,18.48,0,0,0,5.82-1.64L46.2,80l.23.48a18.56,18.56,0,0,0,4.64,4.33,14.57,14.57,0,0,0,3.64,1.87A1.43,1.43,0,0,0,56.43,86a13.09,13.09,0,0,0,1-3.22l.26-1.27.7,1.09c.32.51.66,1,1,1.47a14.78,14.78,0,0,0,2.83,3,1.45,1.45,0,0,0,1.87-.13,14.87,14.87,0,0,0,2.38-3.34,20.06,20.06,0,0,0,1.91-4.8l.15-.65.6.31a22.12,22.12,0,0,0,2,.94,14.22,14.22,0,0,0,4,1.08,1.44,1.44,0,0,0,1.53-1.08A14.5,14.5,0,0,0,77,75.24c0-.38,0-.77-.08-1.16l0-.59.59,0,.82,0A14.42,14.42,0,0,0,82.4,73a1.41,1.41,0,0,0,1-1.58,14.2,14.2,0,0,0-1.25-3.9c-.3-.65-.63-1.29-1-1.91l-.31-.54.59-.21a5.86,5.86,0,0,0,.85-.36A9.67,9.67,0,0,0,86,60.77a18.25,18.25,0,0,0,2-6.08,14.25,14.25,0,0,0,.19-4.09,1.41,1.41,0,0,0-1.38-1.26h-.21a14.94,14.94,0,0,0-3.85.58,18,18,0,0,0-5.85,2.62,9.5,9.5,0,0,0-.8.62l-.48.41L75.34,53,75,52.51l-.38-.6.68-.19a10.3,10.3,0,0,0,3.57-1.91A17.93,17.93,0,0,0,83,44.9a14.71,14.71,0,0,0,1.67-3.74,1.43,1.43,0,0,0-.83-1.68,13.49,13.49,0,0,0-3.31-.85l-.88-.13.54-.71a13.23,13.23,0,0,0,1.63-2.67,1.42,1.42,0,0,0-.56-1.79,14.52,14.52,0,0,0-3.79-1.55,17.81,17.81,0,0,0-6.37-.71,10.13,10.13,0,0,0-4.49,1.42l-.12.08H65.7l.06-.63a19.78,19.78,0,0,0,.37-5.12,14.33,14.33,0,0,0-.68-4,1.42,1.42,0,0,0-1.62-.94A14.24,14.24,0,0,0,60,23.28,20.19,20.19,0,0,0,55.93,26l-.42.37-.34-.44a21.24,21.24,0,0,0-1.81-2,14.21,14.21,0,0,0-3.23-2.52,1.44,1.44,0,0,0-1.83.4,15,15,0,0,0-1.87,3.64,18.94,18.94,0,0,0-1.24,5.69Zm-15,12.93a7.21,7.21,0,0,1,3.2-1.48,6.71,6.71,0,0,1,1-.13A5.94,5.94,0,0,1,39,44.6a3.67,3.67,0,0,1,1,1.83c.38,2.15-1.23,4.34-3.83,5.27a7.61,7.61,0,0,1-1.09.31,8.35,8.35,0,0,1-1.49.14,6.81,6.81,0,0,1-1-.07,6.09,6.09,0,0,1-1.44-.37L31,51.65c-.31-.18-.57-.31-.82-.43a3.85,3.85,0,0,1-1.78-2.47A4.3,4.3,0,0,1,30.13,44.66Zm10.74,2.07-.06-.52.52-.06a4.87,4.87,0,0,0,.65-.1l.25-.06.38.13.39.35a7,7,0,0,1,2,3.79,4,4,0,0,1-1,3.56,3.81,3.81,0,0,1-2.82,1.11A6.34,6.34,0,0,1,37.8,53.8l-.65-.44.66-.43a6.2,6.2,0,0,0,2.06-2A6.61,6.61,0,0,0,40.87,46.73Zm26.2-3.32.39.19-.11.42a7.62,7.62,0,0,0-.21,1.06l-.07.63-.61-.19-.62-.17-.9-.22.66-.66c.18-.19.37-.38.55-.58l.55-.67.37.19-.24.47Zm-1.68,3.76a7.29,7.29,0,0,1,2,.91A5.51,5.51,0,0,1,69.8,51a3.62,3.62,0,0,1,.06,2.11c-.51,1.8-2.46,3-4.85,3A7.7,7.7,0,0,1,63,55.84a6.93,6.93,0,0,1-3.62-2.34,4,4,0,0,1-.85-3.6c.51-1.81,2.46-3,4.85-3A7.7,7.7,0,0,1,65.39,47.17Zm6.1,10.08c.38-.11.73-.23,1.06-.36l.92-.33-.23.95a6.4,6.4,0,0,0-.16,1.37v.51l-.51,0a5.63,5.63,0,0,0-1.33.17,6.87,6.87,0,0,0-2.57,1.26l-.21.17-.26-.07a17.55,17.55,0,0,0-6.33-.7,11.28,11.28,0,0,0-2.85.62l-1.59.58,1-1.38a6.85,6.85,0,0,0,1-2,5.82,5.82,0,0,0,.2-1l.1-.84.7.46a9.82,9.82,0,0,0,4.74,1.45A18,18,0,0,0,71.49,57.25ZM58.7,47.71a6,6,0,0,0-1,2l-.23,1.14-.72-.6a16.79,16.79,0,0,0-2.81-2.28l-.56-.35.48-.46A6.57,6.57,0,0,0,55,45.66l.32-.56.48.42a6.69,6.69,0,0,0,2.63,1.37l.76.2Zm-1.64,6c1.63,2.82,1.21,6.12-.94,7.37a3.57,3.57,0,0,1-1.83.48,6.21,6.21,0,0,1-5-3.34,7,7,0,0,1-1-4.21,4,4,0,0,1,1.9-3.17A3.57,3.57,0,0,1,52,50.4,6.23,6.23,0,0,1,57.06,53.75ZM56.64,62l-.93,1.23a5.44,5.44,0,0,0-.6,1,6.76,6.76,0,0,0-.62,2l-.33,2.19-.69-2.1a9.77,9.77,0,0,0-1.53-2.87l-.77-1,1.26.18a6.51,6.51,0,0,0,2.72-.16Zm-5.35,3.89a7.53,7.53,0,0,1,.85,2.48A5.87,5.87,0,0,1,52,70.79a4.56,4.56,0,0,1-.47,1.13L50.9,73l-.31-1.22a6.12,6.12,0,0,0-.41-1.16,6.49,6.49,0,0,0-.81-1.3,5.77,5.77,0,0,0-.42-.44,6.66,6.66,0,0,0-3.79-1.73,5.78,5.78,0,0,0-1,0l-.51,0,0-.52a5.67,5.67,0,0,0-.36-1.74l-.17-.39.09-.34a3.54,3.54,0,0,1,3.1-1.74A6.17,6.17,0,0,1,51.29,65.86Zm-5-7a14.49,14.49,0,0,0-3.85-1.53,1.46,1.46,0,0,0-1.64.91,12.29,12.29,0,0,0-.6,2.49l-.09.63-.6-.22a5.56,5.56,0,0,0-.7-.19l-.35-.08-.06-.51a9,9,0,0,0-1.67-3.91l-1.18-1.63,1.89.89a6.06,6.06,0,0,0,2.54.57h.25a6.46,6.46,0,0,0,4.38-1.84q.18-.2.36-.42l.76-.95.17,1.21a15.63,15.63,0,0,0,.55,2.48c.16.48.36,1,.57,1.43l.7,1.48ZM31.07,65.3l-.25.59-.53-.36A7.32,7.32,0,0,1,28.08,63c-1.58-2.85-1.09-6.15,1.08-7.35a3.65,3.65,0,0,1,1.76-.44,6.14,6.14,0,0,1,5,3.44,7.45,7.45,0,0,1,.64,1.51l.16.56-.57.1a6.25,6.25,0,0,0-.83.2,6,6,0,0,0-2.42,1.45A8.43,8.43,0,0,0,31.07,65.3Zm5.81,7.46-.14.25-.28,0-.33,0a3.51,3.51,0,0,1-1.57-.36c-1.56-.76-2.4-2.59-2.18-4.76A7.26,7.26,0,0,1,33,65.74l.14-.33a6.93,6.93,0,0,1,3-3.18,4.23,4.23,0,0,1,3-.41,3,3,0,0,1,.68.24c1.73.87,2.55,3,2.09,5.41l0,.25-.23.12a8.88,8.88,0,0,0-1.23.76,11.37,11.37,0,0,0-2.12,2.1A14.28,14.28,0,0,0,36.88,72.76Zm10.24,4.33a7.67,7.67,0,0,1-2.45,1.38,6.14,6.14,0,0,1-1.86.31,4,4,0,0,1-3.11-1.34,3.72,3.72,0,0,1-.84-2.07,6.17,6.17,0,0,1,1.91-4.65c.18-.18.36-.36.56-.53A7.41,7.41,0,0,1,43.42,69l.15-.06a5.22,5.22,0,0,1,3.85,0,3.4,3.4,0,0,1,1.33,1,3,3,0,0,1,.38.56,4.11,4.11,0,0,1,.39,2.78,6.13,6.13,0,0,1-.93,2.26,7.52,7.52,0,0,1-1.17,1.38ZM53.28,81a3.55,3.55,0,0,1-1.41.28,5.2,5.2,0,0,1-3.72-1.85l-.36-.4.41-.35A8.18,8.18,0,0,0,50,76.55a6,6,0,0,0,.79-2.49l0-.24.2-.14a6.22,6.22,0,0,0,1.88-2l.36-.59.47.51a7.23,7.23,0,0,1,1.39,2.15C56.38,76.75,55.56,80,53.28,81Zm4.41-10.37-.3.32L57,70.67a3.75,3.75,0,0,1-1.58-2c-.74-2.38,1.19-5.09,4.31-6.06a6.19,6.19,0,0,1,6.07,1.07l.49.49-.6.33a4.92,4.92,0,0,0-.45.28,6.39,6.39,0,0,0-2.35,3.36l-.12.38h-.92A6.45,6.45,0,0,0,57.69,70.59Zm9,6.61c-.54,2.24-2.07,3.77-3.88,3.9h-.25c-2.39,0-4.44-2.45-4.66-5.58A7.61,7.61,0,0,1,58,73.34a5.88,5.88,0,0,1,1.33-2.69,3.81,3.81,0,0,1,2.58-1.34H62l.57,0,0,.52a5.63,5.63,0,0,0,0,.82,7.4,7.4,0,0,0,.17.94,7.89,7.89,0,0,0,.68,1.65A10.56,10.56,0,0,0,65.71,76c.24.23.5.45.76.66l.27.2Zm7-3.51a3.57,3.57,0,0,1-1.17,1.4,3.64,3.64,0,0,1-2.14.65,4.75,4.75,0,0,1-1.27-.18,6.86,6.86,0,0,1-3.67-2.71l-.09-.13a7.29,7.29,0,0,1-1.22-3.29,6.16,6.16,0,0,1,0-1.05,4,4,0,0,1,1.42-2.82l.16-.13a3.48,3.48,0,0,1,.36-.22,3.72,3.72,0,0,1,1.8-.44h.17A6.12,6.12,0,0,1,72,66.64a8.38,8.38,0,0,1,.87,1A7.48,7.48,0,0,1,74,70.13,5.21,5.21,0,0,1,73.71,73.69ZM78,69.09a3.78,3.78,0,0,1-1.14,1.11l-.56.35-.21-.63c-.11-.32-.23-.65-.37-1a9.74,9.74,0,0,0-3-4l-.22-.17a6.1,6.1,0,0,0-2.63-1.05,6.7,6.7,0,0,0-1.48,0l-.94.06.44-.83.11-.2A4,4,0,0,1,71.22,61a6.54,6.54,0,0,1,2,.2l.25.06.1.24a5.82,5.82,0,0,0,4.24,3.59l.26.06.1.26A4,4,0,0,1,78,69.09Zm-1.7-13.44A6.58,6.58,0,0,1,81,53.35a3.77,3.77,0,0,1,2.6.95,4,4,0,0,1,1.19,3.5A6.93,6.93,0,0,1,83,61.7a7.2,7.2,0,0,1-2.67,1.88,5.35,5.35,0,0,1-2,.42,3.83,3.83,0,0,1-2.61-1,4.14,4.14,0,0,1-1.13-3.85A7.05,7.05,0,0,1,76.29,55.65Zm.79-14.53.31.16A3.66,3.66,0,0,1,79,42.92c1.1,2.22-.38,5.21-3.3,6.65a7.67,7.67,0,0,1-2.14.7l-.28,0-.19-.21a17.89,17.89,0,0,0-4.66-3.75l-.35-.18,0-.4a4.64,4.64,0,0,1,.53-1.42l.16-.31.46.05.38,0a9.9,9.9,0,0,0,5.08-1.37,15.25,15.25,0,0,0,2.06-1.42ZM69,33.42a7.61,7.61,0,0,1,1.7-.32c2.59-.19,4.69,1,5.28,2.87a3.66,3.66,0,0,1,0,2.15,6.3,6.3,0,0,1-4.3,3.9,7.52,7.52,0,0,1-2.23.35,7,7,0,0,1-1.23-.11l-.44-.1a4.24,4.24,0,0,1-3-2.53l0-.15a3.6,3.6,0,0,1-.15-1.31C64.69,36.12,66.48,34.21,69,33.42Zm-5.09,6.31a6.17,6.17,0,0,0,1,1.82l.22.28-.19.31A7.53,7.53,0,0,1,63,44.21a7,7,0,0,1-4.07,1.43,4.18,4.18,0,0,1-3.13-1.25l-.18-.21.06-.27a6.06,6.06,0,0,0,.08-2.51,8.26,8.26,0,0,0-.38-1.34l-.08-.21.1-.2a6.29,6.29,0,0,1,.37-.67l.22-.36.39.14a6.82,6.82,0,0,0,3.73.17,6.14,6.14,0,0,0,2.53-1.28l1-.95,0,1.2A6.18,6.18,0,0,0,63.91,39.73ZM57,27.86a4.43,4.43,0,0,1,4.68-.48c1.52.88,2.24,2.86,1.81,5.05a7.43,7.43,0,0,1-.87,2.32,7.59,7.59,0,0,1-1.4,1.76,5.46,5.46,0,0,1-3.52,1.58h-.08a3.26,3.26,0,0,1-.49,0L56.24,38l.58-.73.25-.33a6.22,6.22,0,0,0,1-2.65c0-.23,0-.47,0-.7a10.25,10.25,0,0,0-1-4.48l-.27-.53-.21-.42Zm-6.57-.58a3.87,3.87,0,0,1,3,.64,6.26,6.26,0,0,1,2.17,2.66,7.64,7.64,0,0,1,.5,1.51A7.18,7.18,0,0,1,56,35.81a5.15,5.15,0,0,1-.34.83,4.8,4.8,0,0,1-.79,1.12,3.93,3.93,0,0,1-.63.54l-.13.07a3.58,3.58,0,0,1-1.1.46,3.74,3.74,0,0,1-.75.08,3.87,3.87,0,0,1-1.51-.32,4.64,4.64,0,0,1-1-.63A6.89,6.89,0,0,1,47.35,34a7.33,7.33,0,0,1-.18-1.87C47.24,29.65,48.57,27.69,50.47,27.28ZM46.93,38.83l-.21-1.37,1,.76a5.88,5.88,0,0,0,.76.55,6.67,6.67,0,0,0,4.22.92l.35,0,.17.31a5.86,5.86,0,0,1,.43.87,6.87,6.87,0,0,1,.56,2.72,4.4,4.4,0,0,1-1.38,3.36,3.09,3.09,0,0,1-.55.4,3.57,3.57,0,0,1-1.83.48,5.8,5.8,0,0,1-4.25-2.24,8.33,8.33,0,0,1-.7-1l-.2-.33.25-.29a5.58,5.58,0,0,0,.38-.47A6.53,6.53,0,0,0,46.93,38.83Zm-1.31,3.58a4.3,4.3,0,0,1-.32.6,3.61,3.61,0,0,1-1.47,1.23,4.63,4.63,0,0,1-1.16.36,6.27,6.27,0,0,1-.88.07,6.57,6.57,0,0,1-1.51-.19l-.2,0L40,44.25a6.88,6.88,0,0,0-1.82-1.91,5.81,5.81,0,0,0-2.08-.94l-.22,0-.11-.19-.21-.36a4.33,4.33,0,0,1,0-4.47c1.14-1.67,3.79-2.12,6.18-1.06A7.53,7.53,0,0,1,43,36a6.91,6.91,0,0,1,2.7,3.43A4.23,4.23,0,0,1,45.62,42.41Z"/></g></g></svg>