<svg xmlns="http://www.w3.org/2000/svg" viewBox="0 0 78.62 99.81"><defs><style>.cls-1{fill:none;}.cls-2{fill:#455e2b;}</style></defs><g id="Capa_2" data-name="Capa 2"><g id="Icons"><path class="cls-1" d="M21.86,25.66l1.19-1,.17-.12,1.36-.87a140.32,140.32,0,0,0-6-16.31,5.86,5.86,0,0,0-3.78-3.55,5.18,5.18,0,0,0-1.26-.15A7.41,7.41,0,0,0,9.15,5.25h0A6.79,6.79,0,0,0,6,10.19a5.84,5.84,0,0,0,2.21,4.69A139.46,139.46,0,0,0,21.86,25.66Z"/><path class="cls-1" d="M16.44,30.68c.55-.61,1.14-1.21,1.79-1.83A142.93,142.93,0,0,1,5.07,18.38a2.39,2.39,0,0,1-.23-.22,4.6,4.6,0,0,0-.7,5.09C5.46,26.06,11.91,29.62,16.44,30.68Z"/><path class="cls-1" d="M18.77,48.16c1.59,2,3.32,4,5.42,6.39a18.72,18.72,0,0,0,4.62-3.25,2.4,2.4,0,0,1,3.33.06,2.35,2.35,0,0,1-.06,3.33,23.73,23.73,0,0,1-4.66,3.49A253.73,253.73,0,0,0,56,84.71c7.09,5.7,15.47,10,18.93,11.13,0-3.65-1.51-12.94-4.75-21.44l-.33-.84a12.88,12.88,0,0,1-3.51,2.54A2.41,2.41,0,0,1,63.23,75a2.35,2.35,0,0,1,1.08-3.14,8.19,8.19,0,0,0,3.32-3,1.49,1.49,0,0,1,.27-.35c-3.35-8.31-6.8-15.82-10.52-22.94-2,2.06-6.1,5.89-10.44,7.3a2.18,2.18,0,0,1-.72.12,2.36,2.36,0,0,1-2.1-3.42,2.33,2.33,0,0,1,1.37-1.17c3.31-1.08,7-4.37,9.53-7.2-2.62-4.74-5.26-9.17-8.08-13.54-2.14-3.3-4.65-4.9-7.69-4.9-4.22,0-9.11,2.92-13.37,5.65C18.58,34.42,12.51,40.46,18.77,48.16Zm43.63,37a2.35,2.35,0,0,1,1.48-1,2.31,2.31,0,0,0,1.63-1.4,2.36,2.36,0,0,1,1.24-1.3,2.32,2.32,0,0,1,1.79-.07,2.3,2.3,0,0,1,1.31,1.23,2.34,2.34,0,0,1,.06,1.8,7,7,0,0,1-5,4.34,2.72,2.72,0,0,1-.49,0,2.36,2.36,0,0,1-2-3.64ZM47.52,71.43A14.08,14.08,0,0,0,53.64,67a2.41,2.41,0,0,1,2.45-.77,2.31,2.31,0,0,1,.92-2l1.09-.79a2.35,2.35,0,0,1,2.77,3.8l-1.1.8a2.35,2.35,0,0,1-1.38.45,2.47,2.47,0,0,1-.6-.08A2.33,2.33,0,0,1,57.3,70a18.81,18.81,0,0,1-8.15,5.84,2.28,2.28,0,0,1-.81.15,2.35,2.35,0,0,1-.82-4.56ZM17.81,43.76A2.33,2.33,0,0,1,19,42.38a52.21,52.21,0,0,0,9.71-6.49,2.44,2.44,0,0,1,2.54-.29A2.36,2.36,0,0,1,31.49,33l1.32-1.57a2.35,2.35,0,1,1,3.6,3L35.1,36a2.26,2.26,0,0,1-2.9.53,2.33,2.33,0,0,1-.48,2.94,57,57,0,0,1-10.59,7.07,2.39,2.39,0,0,1-1.08.26,2.35,2.35,0,0,1-2.24-3.06Z"/><path class="cls-1" d="M28.75,21.25c.79-.42,1.54-.79,2.27-1.12.41-4.65-1-11.91-3.27-14a4.74,4.74,0,0,0-5.05-.9c.05.09.09.19.13.28A143.21,143.21,0,0,1,28.75,21.25Z"/><path class="cls-2" d="M20.65,45.64a56.26,56.26,0,0,0,10.4-6.94,1.32,1.32,0,0,0,.16-1.86,1.39,1.39,0,0,0-1.86-.16,53.68,53.68,0,0,1-9.91,6.62,1.31,1.31,0,0,0-.65.77,1.27,1.27,0,0,0,.09,1A1.33,1.33,0,0,0,20.65,45.64Z"/><path class="cls-2" d="M34.31,35.35l1.31-1.57a1.3,1.3,0,0,0-.16-1.85,1.28,1.28,0,0,0-.83-.3H34.5a1.29,1.29,0,0,0-.89.44l-1.33,1.58a1.33,1.33,0,0,0,.17,1.86A1.36,1.36,0,0,0,34.31,35.35Z"/><path class="cls-2" d="M55.49,67.22a1.35,1.35,0,0,0-1.05.47,15.22,15.22,0,0,1-6.56,4.71,1.32,1.32,0,0,0-.78,1.69,1.34,1.34,0,0,0,1.69.78,17.82,17.82,0,0,0,7.71-5.52,1.34,1.34,0,0,0-.2-1.86A1.32,1.32,0,0,0,55.49,67.22Z"/><path class="cls-2" d="M60.26,66.43a1.32,1.32,0,0,0,.29-1.84,1.28,1.28,0,0,0-.87-.51l-.22,0a1.28,1.28,0,0,0-.75.23l-1.09.8a1.32,1.32,0,0,0-.3,1.84,1.36,1.36,0,0,0,1.84.3Z"/><path class="cls-2" d="M64.64,87.74a5.94,5.94,0,0,0,4.3-3.7,1.27,1.27,0,0,0,0-1,1.33,1.33,0,0,0-.73-.69,1.31,1.31,0,0,0-.44-.07,1.38,1.38,0,0,0-.56.12,1.3,1.3,0,0,0-.7.72,3.35,3.35,0,0,1-2.38,2,1.26,1.26,0,0,0-.83.57,1.28,1.28,0,0,0-.19,1A1.35,1.35,0,0,0,64.64,87.74Z"/><path class="cls-2" d="M14.33,33.92l.66.2-.37.58c-3.41,5.34-3,10.5,1.3,15.78C26.78,63.81,38.44,75.25,53.73,87.57c8.57,6.9,19,11.93,22.18,12.23h.19a2.07,2.07,0,0,0,2.31-1.75l.06-.24c.68-3-1-14.81-4.83-24.73-7-18.34-14.28-33-23.62-47.4-2.82-4.37-6.45-6.58-10.77-6.58a15.39,15.39,0,0,0-3.84.53l-.67.17,0-.69c.17-5.5-1.47-12.89-4.5-15.72a8.61,8.61,0,0,0-5.82-2.33,7,7,0,0,0-4,1.2l-.53.56-.37-.36a8.48,8.48,0,0,0-6-2.47A11.09,11.09,0,0,0,7,2.28,10.34,10.34,0,0,0,2.34,10a8.6,8.6,0,0,0,.9,4.35l.23.47-.61.29a8,8,0,0,0-2,9.72C2.57,28.54,9.06,32.38,14.33,33.92ZM39.25,21.75c3.42,0,6.21,1.76,8.55,5.37,2.9,4.48,5.61,9,8.3,13.92l.17.31-.23.28c-2.57,3-6.61,6.6-10.23,7.77a1.32,1.32,0,0,0-.77.66,1.29,1.29,0,0,0-.08,1,1.35,1.35,0,0,0,1.66.85c4.52-1.47,8.85-5.77,10.5-7.55l.5-.53.34.64a258.18,258.18,0,0,1,11,24l.15.37-.32.24a1.21,1.21,0,0,0-.32.32,9,9,0,0,1-3.74,3.38,1.34,1.34,0,0,0-.67.75,1.31,1.31,0,0,0,.07,1,1.35,1.35,0,0,0,1.76.61,11.76,11.76,0,0,0,3.74-2.91l.57-.65,1,2.42c3.51,9.21,5,19.41,4.8,22.53l0,.63L75.33,97c-3-.8-12.26-5.33-19.95-11.52A254.34,254.34,0,0,1,26.21,58.39l-.44-.49.58-.31a22.46,22.46,0,0,0,5-3.64,1.3,1.3,0,0,0,0-1.87,1.37,1.37,0,0,0-1.86,0,20,20,0,0,1-5.24,3.6l-.35.17-.26-.29C21.45,53,19.63,50.85,18,48.81c-6.86-8.43-.15-15.1,7.3-21.22C29.7,24.75,34.75,21.75,39.25,21.75ZM21.94,4.43h0c1.7-1.18,4.75-.77,6.52.88C31.07,7.77,32.54,15.65,32,20.54l0,.3-.27.12c-1,.42-1.95.91-3,1.5l-.56.3-.18-.6A143,143,0,0,0,21.89,5.88c-.08-.19-.18-.36-.27-.54l-.32-.61Zm-13.4,0A7.85,7.85,0,0,1,15,2.82,6.85,6.85,0,0,1,19.48,7a142.06,142.06,0,0,1,6.21,16.81l.11.38-.34.21-1.65,1-.12.09L22.21,26.7l-.3.25-.32-.22A139.55,139.55,0,0,1,7.52,15.64,6.8,6.8,0,0,1,5,10.13,7.81,7.81,0,0,1,8.54,4.42ZM4.36,17.22l.49-.52.48.49.43.42A141.45,141.45,0,0,0,19.34,28.37l.52.37-.46.43A33.78,33.78,0,0,0,17,31.59l-.2.23-.3-.07c-4.79-1-11.8-4.85-13.31-8.07C2.14,21.42,2.66,18.53,4.36,17.22Z"/></g></g></svg>