<svg xmlns="http://www.w3.org/2000/svg" viewBox="0 0 147.95 68.48"><defs><style>.cls-1{fill:none;}.cls-2{fill:#455e2b;}</style></defs><g id="Capa_2" data-name="Capa 2"><g id="Icons"><path class="cls-1" d="M143.54,4.2h-2.78C139.09,37,110.06,62.66,74.19,62.76H74C38.21,62.76,9.14,37.32,7.3,4.57H4.43C8.84,39.82,37.27,64.29,74,64.29h.22C111,64.19,139.32,39.54,143.54,4.2Z"/><path class="cls-1" d="M74.17,56.5c31.79-.09,58.6-23.41,60.33-52.22l-82.44.23s0,0,.07,0A2.56,2.56,0,0,1,52.9,6.4a2.6,2.6,0,0,1-.76,1.85A2.57,2.57,0,0,1,50.29,9h-3.1a2.61,2.61,0,0,1-2.61-2.6,2.64,2.64,0,0,1,.83-1.91H43A2.6,2.6,0,0,1,43,8.2,2.59,2.59,0,0,1,41.11,9L16.89,9h0a2.61,2.61,0,0,1-2.61-2.61A2.55,2.55,0,0,1,15,4.61H13.56C15.44,33.35,42.28,56.5,74,56.5Zm-45-42.2a2.62,2.62,0,0,1-1.46,1.37l-3.86,1.46a2.58,2.58,0,0,1-.91.17h0A2.61,2.61,0,0,1,22,12.24l3.86-1.46a2.55,2.55,0,0,1,2,.06,2.6,2.6,0,0,1,1.38,1.46A2.57,2.57,0,0,1,29.2,14.3Zm8.05,13.79L34.06,31a2.61,2.61,0,0,1-1.76.69,2.64,2.64,0,0,1-1.94-.85,2.62,2.62,0,0,1,.16-3.69l3.2-2.93a2.62,2.62,0,0,1,4.38,2A2.56,2.56,0,0,1,37.25,28.09Zm2-9.06A2.59,2.59,0,0,1,37,17.63h0a2.62,2.62,0,0,1,1.1-3.53l4.35-2.28a2.6,2.6,0,0,1,2-.17A2.55,2.55,0,0,1,46,12.93a2.6,2.6,0,0,1,.18,2,2.56,2.56,0,0,1-1.28,1.53l-4.35,2.28A2,2,0,0,1,39.3,19Zm9.33,20.65-2.37,3.26A2.59,2.59,0,0,1,44.15,44a2.66,2.66,0,0,1-1.54-.49h0A2.63,2.63,0,0,1,42,39.87l2.38-3.26a2.55,2.55,0,0,1,1.7-1,2.63,2.63,0,0,1,3,2.17A2.61,2.61,0,0,1,48.63,39.68Zm71.78-27.63a2.63,2.63,0,0,1,3.36-1.54L127.65,12a2.62,2.62,0,0,1-.91,5.07,2.86,2.86,0,0,1-.91-.16L122,15.41A2.61,2.61,0,0,1,120.41,12.05ZM116,24l3.21,2.92a2.61,2.61,0,0,1-1.75,4.55h0a2.58,2.58,0,0,1-1.75-.68h0l-3.21-2.91a2.62,2.62,0,0,1-.18-3.7A2.62,2.62,0,0,1,116,24ZM103.33,12.74a2.62,2.62,0,0,1,3.54-1.08l4.34,2.3a2.61,2.61,0,1,1-2.45,4.62l-4.34-2.3A2.63,2.63,0,0,1,103.33,12.74Zm-1.58,23.14a2.54,2.54,0,0,1,1.94-.47,2.57,2.57,0,0,1,1.71,1l2.39,3.25a2.61,2.61,0,0,1-.56,3.66,2.6,2.6,0,0,1-1.54.5h0a2.6,2.6,0,0,1-2.1-1.06l-2.39-3.25a2.66,2.66,0,0,1-.48-1.95A2.62,2.62,0,0,1,101.75,35.88ZM88.39,23.36a2.62,2.62,0,0,1,4.8-.56c.39.69.81,1.38,1.24,2.07s.93,1.5,1.35,2.26a2.63,2.63,0,0,1-1,3.56,2.67,2.67,0,0,1-1.27.33,2.6,2.6,0,0,1-2.29-1.34C90.83,29,90.4,28.3,90,27.61h0c-.46-.75-.93-1.51-1.35-2.26A2.61,2.61,0,0,1,88.39,23.36ZM89.6,42.82a2.62,2.62,0,0,1,3.48,1.25q.48,1,1,2l1,2.11a2.61,2.61,0,0,1-1.25,3.48,2.72,2.72,0,0,1-1.1.25,2.64,2.64,0,0,1-2.38-1.5c-.32-.68-.65-1.36-1-2h0L90.3,48l-1,.3c-.32-.65-.64-1.3-1-2A2.62,2.62,0,0,1,89.6,42.82ZM53.5,26c.43-.75.9-1.5,1.37-2.25s.89-1.4,1.26-2.06a2.62,2.62,0,1,1,4.54,2.6c-.43.75-.9,1.5-1.37,2.25S58.42,28,58,28.64A2.63,2.63,0,0,1,55.77,30h0a2.57,2.57,0,0,1-1.28-.35A2.61,2.61,0,0,1,53.5,26Zm7.37,19.12c-.32.71-.66,1.41-1,2.11s-.66,1.36-1,2a2.64,2.64,0,0,1-2.37,1.51h0a2.6,2.6,0,0,1-2.35-3.72c.33-.71.67-1.41,1-2.12l1-2a2.57,2.57,0,0,1,1.47-1.35A2.62,2.62,0,0,1,61,43.16,2.57,2.57,0,0,1,60.87,45.16Zm10.5-14.73c0-.81,0-1.62,0-2.41A2.61,2.61,0,0,1,74,25.37,2.66,2.66,0,0,1,76.64,28c0,.86,0,1.74,0,2.62s0,1.63,0,2.42A2.61,2.61,0,0,1,74,35.65h0a2.63,2.63,0,0,1-2.62-2.59C71.31,32.2,71.34,31.31,71.37,30.43ZM71.77,52c0-.79,0-1.57,0-2.35s0-1.51,0-2.26a2.61,2.61,0,0,1,2.61-2.62h0A2.61,2.61,0,0,1,77,47.4c0,.78,0,1.55,0,2.34s0,1.51,0,2.27a2.61,2.61,0,1,1-5.22,0Z"/><polygon class="cls-1" points="90.3 47.96 90.3 47.96 90.3 47.96 90.3 47.96"/><path class="cls-2" d="M16.88,7h0L41.1,6.9a.51.51,0,0,0,.39-.16.55.55,0,0,0,.16-.38A.55.55,0,0,0,41.49,6a.53.53,0,0,0-.39-.16h0l-24.22.06a.56.56,0,0,0-.55.56A.55.55,0,0,0,16.88,7Z"/><path class="cls-2" d="M47.19,7h3.1a.55.55,0,0,0,.54-.55A.51.51,0,0,0,50.67,6a.55.55,0,0,0-.38-.16h-3.1a.55.55,0,0,0-.38.94C46.91,6.91,47,7,47.19,7Z"/><path class="cls-2" d="M145.73,0h0L9.83.43V.37L2.21.39A2.21,2.21,0,0,0,0,2.81c3.73,38.7,34.13,65.67,74,65.67h.23c39.91-.1,70.23-27.27,73.74-66.07a2.2,2.2,0,0,0-.57-1.69A2.23,2.23,0,0,0,145.73,0ZM12.47,2.55l124.19-.34,0,1.07c-1.16,30.4-29.17,55.19-62.44,55.28H74C40.8,58.56,12.75,34,11.44,3.63l0-1.08Zm133.25.72c-3.85,37-33.26,63-71.52,63.09H74C35.78,66.36,6.3,40.61,2.24,3.66L2.11,2.52l7.17,0,0,1C10.58,35.6,39,60.69,74,60.69h.2c35.12-.09,63.47-25.37,64.55-57.55l0-1,7.07,0Z"/><path class="cls-2" d="M58.74,43.56a.68.68,0,0,0-.23-.05.58.58,0,0,0-.19,0,.55.55,0,0,0-.31.29l-.9,1.89c-.43.87-.76,1.56-1.09,2.27a.53.53,0,0,0,.27.72.43.43,0,0,0,.22.06h0a.55.55,0,0,0,.5-.32c.33-.7.66-1.39,1-2.08s.67-1.38,1-2.08a.55.55,0,0,0,0-.42.54.54,0,0,0-.28-.31Z"/><path class="cls-2" d="M74.42,46.85h0a.55.55,0,0,0-.55.55c0,.77,0,1.53,0,2.3s0,1.54,0,2.31c0,.6,1.1.61,1.1,0,0-.77,0-1.53,0-2.3s0-1.54,0-2.31A.56.56,0,0,0,74.42,46.85Z"/><path class="cls-2" d="M91.23,47.5c.34.69.67,1.38,1,2.07a.54.54,0,0,0,.73.26.55.55,0,0,0,.26-.73c-.33-.7-.67-1.39-1-2.08l-1-2.07a.55.55,0,0,0-1,.47c.31.65.62,1.29.94,1.93L90.3,48h0Z"/><path class="cls-2" d="M46.43,37.6a.51.51,0,0,0-.35.22L43.7,41.09a.55.55,0,0,0,.12.76.56.56,0,0,0,.77-.12L47,38.46a.54.54,0,0,0-.12-.76A.5.5,0,0,0,46.43,37.6Z"/><path class="cls-2" d="M105.24,41.56c.11.15.3.33.45.23a.56.56,0,0,0,.32-.11.57.57,0,0,0,.22-.36.58.58,0,0,0-.1-.4l-2.39-3.26a.58.58,0,0,0-.36-.21h-.09a.56.56,0,0,0-.32.11.55.55,0,0,0-.22.35.59.59,0,0,0,.1.41Z"/><path class="cls-2" d="M35.11,25.76l-3.19,2.93a.57.57,0,0,0-.18.38.59.59,0,0,0,.15.4.46.46,0,0,0,.77,0l3.2-2.93a.56.56,0,0,0,.17-.38.53.53,0,0,0-.14-.4A.56.56,0,0,0,35.11,25.76Z"/><path class="cls-2" d="M117.11,29.27a.42.42,0,0,0,.36.14.55.55,0,0,0,.37-.95l-3.21-2.92a.55.55,0,0,0-.39-.14.55.55,0,0,0-.34,1Z"/><path class="cls-2" d="M26.82,12.67a.46.46,0,0,0-.19,0h0l-3.86,1.46a.55.55,0,0,0-.32.71.54.54,0,0,0,.51.35h0L27,13.74a.59.59,0,0,0,.31-.29.56.56,0,0,0-.28-.73A.6.6,0,0,0,26.82,12.67Z"/><path class="cls-2" d="M122.67,13.48h0l3.87,1.44a.56.56,0,0,0,.71-.33.55.55,0,0,0-.32-.7l-3.88-1.44a.58.58,0,0,0-.19,0,.54.54,0,0,0-.51.35A.55.55,0,0,0,122.67,13.48Z"/><path class="cls-2" d="M55.5,27.81c.08.05.18,0,.26.08a.56.56,0,0,0,.49-.28c.39-.69.83-1.38,1.26-2.07s1-1.51,1.37-2.24a.57.57,0,0,0-.21-.75.52.52,0,0,0-.27-.07.56.56,0,0,0-.48.28c-.39.68-.81,1.35-1.23,2s-1,1.55-1.4,2.28a.54.54,0,0,0,.21.74Z"/><path class="cls-2" d="M73.94,33.58h0a.51.51,0,0,0,.37-.17.55.55,0,0,0,.16-.38c0-.83,0-1.67,0-2.51s0-1.7,0-2.54a.57.57,0,0,0-.62-.54.54.54,0,0,0-.47.55c0,.83,0,1.67,0,2.5s-.05,1.71,0,2.55A.55.55,0,0,0,73.94,33.58Z"/><path class="cls-2" d="M91.74,26.53c.44.71.88,1.42,1.28,2.14a.55.55,0,1,0,1-.53c-.41-.73-.86-1.46-1.31-2.19s-.88-1.43-1.28-2.15a.57.57,0,0,0-.33-.26.55.55,0,0,0-.68.38.6.6,0,0,0,.05.42C90.84,25.07,91.29,25.8,91.74,26.53Z"/><path class="cls-2" d="M43.82,13.62a.58.58,0,0,0-.42,0l-4.35,2.28a.55.55,0,0,0-.23.74.54.54,0,0,0,.48.3h0a.43.43,0,0,0,.25-.07l4.36-2.28a.54.54,0,0,0,.27-.32.55.55,0,0,0-.36-.68Z"/><path class="cls-2" d="M109.73,16.76a.53.53,0,0,0,.74-.23.55.55,0,0,0-.23-.74l-4.34-2.31a.58.58,0,0,0-.26-.06.54.54,0,0,0-.48.29.55.55,0,0,0,.23.74Z"/></g></g></svg>