<svg xmlns="http://www.w3.org/2000/svg" viewBox="0 0 144.5 103.61"><defs><style>.cls-1{fill:#2e213c;}</style></defs><g id="Capa_2" data-name="Capa 2"><g id="Icons"><path class="cls-1" d="M142.39,51.24a20.43,20.43,0,0,0-3.5-1.73c-3.91-1.43-7.42-2.65-10.74-3.72-.9-.29-1.53-.6-1.71-1.18s.06-1,.67-1.85c2.68-3.49,2.64-6.29-.14-10a3.29,3.29,0,0,1-.65-2.14c.54-4.14-1.06-6.9-4.9-8.44a3.37,3.37,0,0,1-1.78-1.69,7.79,7.79,0,0,0-6.15-5.09,3.11,3.11,0,0,1-2.1-1.59A7.81,7.81,0,0,0,106.47,9a3.49,3.49,0,0,1-1.72-1.73,7.47,7.47,0,0,0-8.41-4.78,3.59,3.59,0,0,1-.47,0,3.58,3.58,0,0,1-2.08-.59c-3.2-2.4-6-2.48-9.24-.28A6.35,6.35,0,0,1,81,2.55a6.43,6.43,0,0,1-3.69-1,7,7,0,0,0-8.44-.17,7.63,7.63,0,0,1-4.22,1.09,10.92,10.92,0,0,1-4.66-1A10.33,10.33,0,0,0,55.88.19a3.46,3.46,0,0,0-1,.13c-.81.25-1.63.55-2.41.84C50.15,2,47.68,2.94,44.94,2.7h0a1.84,1.84,0,0,0-1.27.57c-.51.64-1,1.33-1.43,2a19,19,0,0,1-2.51,3.21,11.61,11.61,0,0,1-2.45,1.69,8.6,8.6,0,0,0-2.72,2.08,9.48,9.48,0,0,0-1.22,3.92c-.11.67-.22,1.37-.39,2l-.07.29-.29-.06c-4.79-1.06-8,.66-9.66,5.1-.21.59-1,1-1.62,1.25-3.67,1.44-5.25,4-5,8,0,.13,0,.27,0,.41.07.66.15,1.34-.22,1.72-3,3.11-3.31,6.61-.87,10.41l.2.32-.35.13c-1.25.51-2.5,1-3.73,1.47-2.81,1.08-5.47,2.11-8.08,3.33C1.09,51.64,0,52.51,0,53.31S.92,55,3,56.23c2.71,1.55,5.59,2.88,8.14,4.05,1.07.5,2.1,1,3,1.43l.35.17-.24.31-1.55,1.86c-1.27,1.53-2.58,3.11-3.85,4.76a3,3,0,0,0-.85,2.56c.22.69,1,1.22,2.19,1.6a11.77,11.77,0,0,0,2.36.4c1.54.16,3.08.3,4.61.44,3.27.3,6.64.61,9.93,1.11s5.13,2.4,5.86,5.7c1.06,4.79,4.35,7.27,9.43,7.09a27.65,27.65,0,0,0,6.71-1.14,9.87,9.87,0,0,1,2.79-.46c2.54,0,4.23,1.45,5.3,4.54a34.47,34.47,0,0,1,1,3.81c.12.58.25,1.15.39,1.73a8.36,8.36,0,0,0,6.51,6.61,26.9,26.9,0,0,0,6.64.81,35.18,35.18,0,0,0,7-.74c4.86-1,7.69-3.87,8.65-8.84a24,24,0,0,1,1.94-5.91c1.14-2.31,3-3,5.29-1.93a22.2,22.2,0,0,0,5.65,1.42,13.37,13.37,0,0,0,2,.15,8.75,8.75,0,0,0,9-7.06c.81-3.5,2.87-5.43,6.28-5.88,2.36-.31,4.77-.52,7.1-.73,2.52-.22,5.13-.45,7.66-.81a5.74,5.74,0,0,0,3.73-2.08c.28-.45-.51-2.25-1.48-3.38a41.85,41.85,0,0,0-3.81-3.69c-.59-.52-1.18-1-1.78-1.6l-.35-.33.44-.18,1.32-.55c.87-.35,1.69-.68,2.47-1.06s1.63-.78,2.44-1.17c2.42-1.15,4.92-2.34,7.25-3.72,1.3-.77,1.93-1.44,1.93-2.06S143.81,52.1,142.39,51.24Zm-29.5-33.36a4.36,4.36,0,0,1,2.12.44c1.17.61,1.89,2,2.65,3.53.33.64.67,1.31,1.07,2,2.45.12,4.2,1,5.06,2.4s.79,3.86-.43,6.41c2.54,2,3.71,3.78,3.67,5.47s-1.18,3.2-3.57,4.94c1.72,3.06,1.3,5.11.65,6.31-.94,1.69-3,2.72-5.62,2.87-.15,3.95-2,6.3-5.07,6.3a9.06,9.06,0,0,1-4-1.08A6,6,0,0,1,103.88,61a10.27,10.27,0,0,1-1.76-.16l-1-.18,1-.4c2.43-1,2.72-2.73,3-4.53a8.14,8.14,0,0,1,.75-2.62c1.19-2.15.71-3.84.15-5.8-.16-.59-.34-1.21-.47-1.85-.56-2.79-1-4.79-3.47-6.49a9.22,9.22,0,0,1-2-2.06C99,35.49,98,34.2,95.93,34.37l-.2,0-.1-.18c-1.09-2-.51-3.4.68-4.83,2-2.39,2-5.76-.09-8.58a5.5,5.5,0,0,1-.68-1.55c-.07-.24-.14-.47-.23-.7L95.09,18l1.21.29c.53.12,1.06.25,1.59.4a3.23,3.23,0,0,1,.65.3c1.34-2.45,3.34-3.91,5.39-3.91,1.25,0,3.07.56,4.65,3.18.67,0,1.35-.11,2-.19A19.08,19.08,0,0,1,112.89,17.88ZM84.51,67.24A2.25,2.25,0,0,1,85,68.78c-.32,1.28-.76,3-1.73,3.39a39.84,39.84,0,0,0-10,5.34,3.38,3.38,0,0,1-1.82.46c-.82,0-1-.25-1-.34a5.35,5.35,0,0,0-3.36-2.07,8.07,8.07,0,0,1-2.58-1.15,7.45,7.45,0,0,1-1.35-1.49l-.55-.7c-1.86-.17-2.91-.63-3.4-1.48s-.34-2.15.55-4.07c-1.52-1.3-2.45-2.34-2.42-3.42s1-2,2.54-3.26c-.72-1.77-1.06-3.14-.51-4.1s2-1.33,3.9-1.58c.33-2.11.94-4,2.81-4a6.83,6.83,0,0,1,2.87.89c1.34-2.07,2.6-2.51,3.44-2.51,1.16,0,2.2.83,3,2.34.38,0,.78-.09,1.16-.15a11.84,11.84,0,0,1,1.65-.17,2.79,2.79,0,0,1,1.33.28c.75.38,1.13,1.31,1.58,2.39.18.45.36.9.59,1.35,1.9.22,2.91.66,3.37,1.45s.34,2.08-.56,4.17c1.78,1.4,2.5,2.38,2.48,3.38s-.78,1.91-2.58,3.17ZM56.85,58.29a12.51,12.51,0,0,1-1.74,5l-.29.56c-.12.22-.42.33-1,.33a4,4,0,0,1-1.83-.4,4.32,4.32,0,0,1-1.3-1.5c-.1-.17-.21-.33-.32-.49a9.08,9.08,0,0,1-2.9.66c-2,0-2.56-1.58-2.82-4.15-2.16-.28-3.3-.79-3.79-1.67s-.32-2.06.55-4C39.9,51.2,39,50.07,39,49s1-2,2.52-3.06c-.82-1.87-.95-3.17-.43-4.07.65-1.1,2.23-1.42,3.75-1.56.52-2.58,1.17-4.07,2.9-4.07a7.35,7.35,0,0,1,2.92.87c1.19-1.5,2.22-2.48,3.32-2.48s2.13,1,3.31,2.5a8.83,8.83,0,0,1,2.94-.71c1.92,0,2.45,1.56,2.63,4.11l.25,0a8.17,8.17,0,0,1,1.19.13,3.24,3.24,0,0,1,2.31,1.46,3.56,3.56,0,0,1,0,3,4.22,4.22,0,0,0-.08,1.62c0,.32,0,.66,0,1V48l-.27,0a5.94,5.94,0,0,0-4.89,3.53,2.58,2.58,0,0,1-1.22,1.06C58,53.68,57,55.39,56.85,58.29Zm.3,14.19-.3,0c-.62,0-1.23.07-1.82.07-5.66,0-10.47-2.15-14.72-6.58l-.39-.41.56-.1a4.34,4.34,0,0,0,1.81-1,3.51,3.51,0,0,1,2.11-1,2.87,2.87,0,0,1,1.45.44,12.2,12.2,0,0,0,3.51,1.1c.48.1,1,.2,1.43.32l1,.29a8.16,8.16,0,0,0,2.85.5l.48,0c1.15,0,1.64.51,1.71,1.77,0,.91.12,1.83.18,2.77ZM84,52.7c-1.76-2.23-3.42-4.35-6.8-4.35a9.49,9.49,0,0,0-1.55.14l-1.2.2,3.23-2.5c-.54-2.48-.67-3.67-.11-4.48s1.55-1,3.6-1.34c.33-2.12.92-4,2.76-4a6.79,6.79,0,0,1,3,1c1.31-1.74,2.36-2.52,3.4-2.52s2,.77,3.17,2.48a8.41,8.41,0,0,1,2.92-.72c1.85,0,2.45,1.49,2.75,3.92,2,.45,3.41,1,3.92,1.94s.13,2.22-.62,3.94c1.71,1.42,2.42,2.49,2.37,3.53s-.79,1.91-2.4,3c.61,2,.87,3.47.23,4.43s-1.86,1.17-3.56,1.3c-.62,2.79-1.25,4.21-2.88,4.21A7.37,7.37,0,0,1,93.43,62l-4.22,3.38-.72-3.32c-.41-1.89-.76-3.54-1.13-5.19l-.06-.32a1.58,1.58,0,0,0-.18-.64A15,15,0,0,1,84,52.7Zm3,19.38c0-.37.08-.73.13-1.09a8.54,8.54,0,0,0,.14-2.11c-.17-1.76.75-2.07,1.91-2.45l.34-.12a21.4,21.4,0,0,1,3.78-.81c2.42-.37,4.7-.73,6.56-2.49a1.76,1.76,0,0,1,1.16-.34,3.73,3.73,0,0,1,.6,0c.86.14,1.72.35,2.63.57l1.24.29.46.11-.29.38c-4.3,5.7-9.55,8.47-16,8.47-.76,0-1.55,0-2.35-.12l-.3,0ZM86.29,3a7.57,7.57,0,0,1,3-.83c1.82,0,3.15,1.27,4.79,3.48a8.59,8.59,0,0,1,4.07-1.22c2.93,0,4.73,2.28,5,6.27,2.38,0,5,.49,6.28,3.79l.26.66-.66-.27c-.47-.18-.91-.38-1.33-.56a12.79,12.79,0,0,0-2.49-.91A6.84,6.84,0,0,0,99,15a3,3,0,0,1-1.85.94c-.84,0-1.45-.74-2.16-1.93a13.55,13.55,0,0,0-4-4.24A5.85,5.85,0,0,1,88.43,7,11.57,11.57,0,0,0,87,4.61c-.27-.38-.54-.77-.81-1.19L86,3.12ZM63.49,4.35a10.92,10.92,0,0,1,4.35,1.26c1.4-2.3,3.23-3.56,5.17-3.56s3.79,1.28,5.17,3.62a12.8,12.8,0,0,1,4.21-.91c2.92,0,4.39,2,4.63,6.18,3.58.86,5.41,1.87,6.1,3.37.62,1.34.31,3.11-1,5.71,2.5,1.95,3.69,3.74,3.62,5.46S94.44,28.75,92,30.36l.85,2L91,32.84,86.8,34l-.21.06a3.39,3.39,0,0,1-1.3.19,5.24,5.24,0,0,0-5.7,3.24c-.22.44-.46.92-.86,1.07-2.66,1-3.84,2.85-3.82,6.08a2.16,2.16,0,0,1-.5,1.61,1.91,1.91,0,0,1-1.39.46c-.27,0-.56,0-.84-.05a4.16,4.16,0,0,0-1.34,0h-.11c-.12,0-.31,0-.65-.4a3.28,3.28,0,0,1-1-1.84c.09-2.14-1-3.39-2.3-4.84q-.39-.44-.78-.9a13.06,13.06,0,0,0-8.84-5.11,12.53,12.53,0,0,1-2.94-.9c-.48-.19-1-.38-1.51-.56l-.33-.11,1-2.13c-2.37-1.43-3.65-3.32-3.6-5.32s1.35-3.79,3.61-5c-1-3.41-1.07-5.46-.13-6.81s2.53-1.88,5.43-2.09C59.57,6.87,60.73,4.35,63.49,4.35ZM41.83,10.63c.82-4.33,2.29-6.27,4.75-6.27a9.78,9.78,0,0,1,4.22,1.3C53,3.11,54.44,2.11,56,2.11a5.49,5.49,0,0,1,3.09,1.2l.22.15-.12.24-.57,1.16c-.48,1-1,2-1.53,3a2.94,2.94,0,0,1-1.39,1.09c-4.36,1.82-5.85,4.44-5.13,9.06l.05.33-.34,0-1.32.09c-1.1.08-2.14.16-3.19.19h-.09a2.21,2.21,0,0,1-1.45-.46,7.49,7.49,0,0,0-8.08-1.88l-.39.12V16C35.7,12.41,37.13,11.14,41.83,10.63ZM19.37,35.32c-1.23-2.44-1.41-4.64-.49-6.22s2.9-2.52,5.74-2.68c.66-4.19,2.26-6.23,4.87-6.23a9.19,9.19,0,0,1,4.15,1.27c2.21-2.58,3.83-3.69,5.39-3.69s3.09,1.12,5,3.72l5.05-1.69-.27.62c-1.68,4-1.3,7,1.24,9.81.46.5.3,1.41.14,2.38a11.33,11.33,0,0,0-.17,1.25l0,.31-.31,0-.92,0c-2.94,0-4.73,1.16-5.63,3.66a1.62,1.62,0,0,1-.85.73l-.23.13a2.78,2.78,0,0,1-.5.21,1.34,1.34,0,0,0-.51.26c-.22.27-.49.56-.76.84-.65.69-1.4,1.48-1.34,2.05a8.74,8.74,0,0,1-1,4.15c-.81,1.92-1.58,3.73-.17,5.77l.07.11a3,3,0,0,1,.75,1.83c-.41,3.11.87,5.2,3.93,6.39l.3.12-.13.29c-.82,1.93-1.81,2.87-3,2.87a4,4,0,0,1-2.62-1.31,13.24,13.24,0,0,0-8.51-3.62c-3.76-.18-4-.29-4.42-3.78-2.84-.23-4.88-1.29-5.75-3s-.56-3.82.81-6.11c-2.45-1.76-3.64-3.43-3.65-5.1S16.79,37.2,19.37,35.32ZM6.83,56C5.56,55.43,4.3,54.89,3,54.33l-.18-.08,0-1.43,13-5v.44c.08,4,1.52,6.39,4.66,7.93a3.37,3.37,0,0,1,1.25,1.64c.15.29.3.59.47.85l.15.24-.22.17a6.13,6.13,0,0,1-3.82,1.64,5.51,5.51,0,0,1-2.51-.69C12.88,58.57,9.81,57.25,6.83,56ZM43.77,85.71a12,12,0,0,1-1.65.12c-3.88,0-6.4-2.14-7.28-6.2-.74-3.41-2.68-5.53-5.6-6.13-3.42-.71-7-1.12-10.38-1.52-1.26-.15-2.52-.29-3.77-.45-.93-.12-1.9-.19-3-.27l-1.95-.14-.63-.05.42-.47c4.44-4.82,10.07-9.78,18.24-9.95h.24a10.73,10.73,0,0,1,8.89,4.8c4.34,6,10.47,9.08,18.74,9.44,1.15.06,2.28.14,3.58.25l2,.15.59,0-.37.46c-.24.3-.45.56-.63.81a8.1,8.1,0,0,1-1,1.17A30.29,30.29,0,0,1,43.77,85.71Zm45-1.45c-.34.93-.73,1.86-1.1,2.76a37.27,37.27,0,0,0-2.1,6.1c-1,4.86-3.6,7.42-7.83,7.83-2.19.21-4.34.32-6.41.32-1.61,0-3.2-.07-4.73-.2-3.32-.28-5.5-2.42-6.15-6l0-.12c-.7-3.85-1.42-7.84-5.08-10L55,84.69l.32-.27c.68-.6,1.34-1.19,2-1.77,2-1.82,4-3.54,6-5.22a2,2,0,0,1,1.21-.34,2,2,0,0,1,1,.24c1.59,1,3.14,2.13,4.64,3.21l1.4,1,7.59-5.6,9.64,8.13Zm45.59-13.62.37.46-.59,0c-1.3.09-2.56.16-3.78.23-2.7.15-5.25.3-7.78.59a41.07,41.07,0,0,0-7.91,1.61,7.3,7.3,0,0,0-5.08,5.79c-1,4.44-3,6.17-7.18,6.17h0l-.87,0c-6.53-.34-12.46-3.16-18.13-8.64a2,2,0,0,1-.38-.63c0-.09-.08-.19-.13-.28l-.2-.39.43-.06c1.23-.17,2.45-.31,3.67-.46,2.72-.33,5.3-.64,7.89-1.16a19.66,19.66,0,0,0,11.82-7.69c3-3.85,6.12-5.65,9.93-5.65a16.4,16.4,0,0,1,5.72,1.16A27.53,27.53,0,0,1,134.36,70.64ZM141.64,54l-2.18,1.07c-1.74.85-3.48,1.7-5.24,2.53a13.54,13.54,0,0,1-1.38.53,7.86,7.86,0,0,0-2,.88,7.81,7.81,0,0,1-4.64,1.57,12.16,12.16,0,0,1-6-1.94l-.17-.09.23-4.41.22-.06a8,8,0,0,0,6.29-6.46l.08-.34,14.76,5.44Z"/></g></g></svg>