<svg xmlns="http://www.w3.org/2000/svg" viewBox="0 0 75.48 81.08"><defs><style>.cls-1{fill:none;}.cls-2{fill:#455e2b;}</style></defs><g id="Capa_2" data-name="Capa 2"><g id="Icons"><path class="cls-1" d="M12.3,38.68a3.89,3.89,0,0,0-2.72-1.19,5,5,0,0,0-3.16,1.35,8.7,8.7,0,0,0-2.31,3.29c-2.27,5.26-1.8,13.49,1.08,19.15C10,70.66,17.12,75.89,27.65,77.74c7,1.22,12.25.74,14.76-1.37a4.61,4.61,0,0,0,1.66-3.71c0-3.39-2.65-4.7-7.32-6.73C32.49,64.1,27.67,62,24.49,57c-2.36-3.7-2.53-8.57-2.68-12.87-.12-3.41-.25-6.92-1.61-7.59-2.16-1.08-2.4-.84-3.71.51a15.44,15.44,0,0,1-2.07,1.85A1.58,1.58,0,0,1,12.3,38.68ZM32.3,73A1.59,1.59,0,0,1,32,76.1a1.53,1.53,0,0,1-.3,0C16.43,73.13,10.19,64.56,7.64,57.9A30.33,30.33,0,0,1,5.8,44a1.57,1.57,0,0,1,.62-1,1.51,1.51,0,0,1,1.18-.3A1.59,1.59,0,0,1,9,44.44a27.61,27.61,0,0,0,1.7,12.42C14,65.4,21.25,70.81,32.3,73Z"/><path class="cls-1" d="M73.56,43.45C72.68,42,72.35,42,71.13,42.32a10.72,10.72,0,0,1-1.79.28.87.87,0,0,1-.92-.74,2.77,2.77,0,0,0-1.16-1.76,3.46,3.46,0,0,0-2.36-.41,5.91,5.91,0,0,0-2.54,1c-3.19,2.13-5.93,6.92-6.36,11.15-.72,7,.89,13.11,6.61,17.37,4.68,3.48,11.47-.64,9.56-3.51-1.69-2.53-3.6-5.4-3.57-9.28,0-2.86,1.67-5.61,3.12-8C73,46.35,74.13,44.4,73.56,43.45Z"/><path class="cls-1" d="M21.75,14.85c.28,1.26,3.2,2.09,6,2.9,3.6,1,7.67,2.17,10.31,4.93,3.57,3.73,4.33,8.23,5,12.2.73,4.32,1.73,4.56,4.68,5.29a4,4,0,0,0,3.44-.62c2.12-1.55,3.2-3.42,3.65-9.88.63-9.24-2.29-16.33-9.2-22.3-4.16-3.6-11-5.69-15.88-4.88a7.64,7.64,0,0,0-3.24,1.25,4.32,4.32,0,0,0-1.77,2.37,3.35,3.35,0,0,0,.43,2.52,1.4,1.4,0,0,1-.26,1.87,13.69,13.69,0,0,1-2,1.36l-.13-.22h0l.13.22C21.55,12.67,21.3,12.82,21.75,14.85ZM31,4.23A26.41,26.41,0,0,1,42.34,8.67c5.09,3.53,11,10.58,10.34,24.07a2.51,2.51,0,0,1,0,.27,1.43,1.43,0,0,1-1.38,1.08h-.07a1.4,1.4,0,0,1-1.34-1.48c.49-9.75-2.55-17-9.05-21.55a23.93,23.93,0,0,0-10.09-4A1.42,1.42,0,0,1,29.44,5.5,1.44,1.44,0,0,1,31,4.23Z"/><path class="cls-2" d="M13.54,36.2l-.17-.12a6.62,6.62,0,0,0-3.82-1.26,7.51,7.51,0,0,0-4.85,2,11.51,11.51,0,0,0-3,4.28c-2.59,6-2.11,15,1.16,21.43,5.13,10,13.1,15.89,24.37,17.86,8,1.4,13.74.74,16.93-1.94a7.29,7.29,0,0,0,2.62-5.76c0-5.31-4.34-7.19-8.93-9.18-3.91-1.68-8.33-3.59-11.07-7.91-2-3.09-2.13-7.58-2.27-11.54-.16-4.56-.29-8.5-3.08-9.88-3.64-1.81-5.06-.76-6.81,1-.28.28-.57.58-.89.87Zm2.58.49c1.43-1.47,1.91-1.81,4.31-.61,1.64.81,1.76,4.15,1.89,8,.15,4.24.32,9,2.6,12.63,3.1,4.87,7.84,6.92,12,8.73,4.88,2.11,7.64,3.48,7.63,7.2a5.13,5.13,0,0,1-1.84,4.11c-1.69,1.42-4.53,2.14-8.25,2.14a41.08,41.08,0,0,1-6.92-.66c-10.72-1.88-18-7.19-22.84-16.73C1.78,55.74,1.31,47.31,3.64,41.93a9.24,9.24,0,0,1,2.44-3.49A5.53,5.53,0,0,1,9.58,37a4.41,4.41,0,0,1,3.1,1.36,1.08,1.08,0,0,0,1.44.16A15.67,15.67,0,0,0,16.12,36.69Z"/><path class="cls-2" d="M8.44,44.37a1.07,1.07,0,0,0-.91-1.21H7.37a1.07,1.07,0,0,0-.64.21,1.05,1.05,0,0,0-.42.71A29.77,29.77,0,0,0,8.12,57.71c2.5,6.54,8.64,14.95,23.68,17.86h0a1.06,1.06,0,0,0,1.26-.85,1.09,1.09,0,0,0-.85-1.27C21,71.28,13.55,65.76,10.17,57A28.12,28.12,0,0,1,8.44,44.37Z"/><path class="cls-2" d="M75.08,42.55c-1.43-2.4-2.7-2.33-4.35-1.95l-.79.16c-.56-1.45-2.08-3.22-5.26-2.83a7.79,7.79,0,0,0-3.3,1.32c-3.64,2.43-6.65,7.66-7.14,12.44-.77,7.49.94,14.43,7.17,18.84,8.44,6,15.11-1.8,12.23-5.78-1.64-2.26-3.3-5-3.27-8.28,0-2.38,1.53-4.91,2.87-7.14C74.82,46.69,76.18,44.41,75.08,42.55ZM68.6,56.45c0,3.88,1.88,6.75,3.57,9.28,1.91,2.87-4.88,7-9.56,3.51C56.89,65,55.28,58.87,56,51.87c.43-4.23,3.17-9,6.36-11.15a5.91,5.91,0,0,1,2.54-1,3.46,3.46,0,0,1,2.36.41,2.77,2.77,0,0,1,1.16,1.76.87.87,0,0,0,.92.74,10.72,10.72,0,0,0,1.79-.28c1.22-.28,1.55-.35,2.43,1.13.57.95-.6,2.9-1.84,5C70.27,50.84,68.62,53.59,68.6,56.45Z"/><polygon class="cls-2" points="22.8 11.64 22.8 11.64 22.8 11.64 22.8 11.64"/><path class="cls-2" d="M19.49,15.35c.58,2.61,3.86,3.54,7.66,4.62,3.31.94,7.07,2,9.27,4.31,3.08,3.22,3.77,7.34,4.38,11,.69,4.1,1.73,6,6.41,7.15a6.29,6.29,0,0,0,5.36-1l.56-.41c1.59-1.13,2.32-1.65,3.1-4.81a38.68,38.68,0,0,0,.93-6.37c.67-9.9-2.59-17.82-10-24.21A24.53,24.53,0,0,0,32,0a16.26,16.26,0,0,0-2.65.21,9.68,9.68,0,0,0-4.22,1.67C21.48,4.57,22.27,7.75,22.78,9l.07.19-.17.12c-.31.21-.62.39-.92.56C19.9,11,18.73,11.93,19.49,15.35Zm3.18-3.94h0a13.07,13.07,0,0,0,1.93-1.3.91.91,0,0,0,.16-1.2A3.81,3.81,0,0,1,24.25,6a4.8,4.8,0,0,1,2-2.66A8,8,0,0,1,29.69,2c5-.85,12,1.31,16.3,5,7,6.08,10,13.31,9.37,22.73-.41,6-1.31,8.4-3.85,10.25a4.34,4.34,0,0,1-2.62.87,5,5,0,0,1-1.25-.16c-3-.74-4.28-1.05-5.06-5.7-.66-3.9-1.4-8.31-4.86-11.93-2.55-2.66-6.55-3.79-10.08-4.8-3.25-.92-6.05-1.71-6.4-3.28C20.74,12.67,21.15,12.31,22.67,11.41Z"/><path class="cls-2" d="M30.76,6.53a24.29,24.29,0,0,1,10.33,4.1c6.66,4.66,9.78,12.06,9.27,22a.91.91,0,0,0,.86,1,.89.89,0,0,0,.91-.68.57.57,0,0,0,0-.18C52.83,19.46,47,12.55,42,9.09a25.78,25.78,0,0,0-11.1-4.34.89.89,0,0,0-.18,1.78Z"/></g></g></svg>