<svg xmlns="http://www.w3.org/2000/svg" viewBox="0 0 63.14 77.75"><defs><style>.cls-1{fill:#2e213c;}</style></defs><g id="Capa_2" data-name="Capa 2"><g id="Icons"><path class="cls-1" d="M31.79,14.61h-.54L26.43,1.09A1.71,1.71,0,0,0,24.83,0a1.54,1.54,0,0,0-.52.09,1.66,1.66,0,0,0-1,2.11l4.52,12.65L26.9,15a31.37,31.37,0,1,0,4.89-.38Zm-.22,61A29.39,29.39,0,1,1,61,46.18,29.42,29.42,0,0,1,31.57,75.57Z"/><path class="cls-1" d="M55,45.73a1.13,1.13,0,0,0-.75.34,1.08,1.08,0,0,0-.3.78,21.87,21.87,0,0,1-7.58,16.83,1.07,1.07,0,0,0-.38.74,1.06,1.06,0,0,0,.25.8,1,1,0,0,0,.22.2,1.11,1.11,0,0,0,1.32-.07A23.78,23.78,0,0,0,56.12,46.8,1.12,1.12,0,0,0,55,45.73Z"/></g></g></svg>