<svg xmlns="http://www.w3.org/2000/svg" viewBox="0 0 98.13 97.18"><defs><style>.cls-1{fill:#9b1b21;}</style></defs><g id="Capa_2" data-name="Capa 2"><g id="Icons"><path class="cls-1" d="M26.22,78.77a16,16,0,0,1,11.47-11.6c5.43-1.54,10.92-.31,14.35,3.19,1.77,1.82,3.21,2.89,4.44,2.25s1.13-2.72.74-4.81a12.1,12.1,0,0,0-8.63-8.92c-2.54-.73-3.31-1.54-3.36-1.9,0-.21.25-.62.94-1,3.12-1.92,13-3.13,21.67,2.82,2.43,1.67,3.81,1.51,4.55,1.1a2,2,0,0,0,1-2c-.17-2.61-4-6.89-12-10.13-.52-.22-1-.41-1.44-.58s-.91-.35-1.28-.51c.44-.25,1.11-.58,2-1,3.17-1.46,6.18-1.26,9.67-1,.92.07,1.87.13,2.84.17,2.09.06,4.53-.07,4.78-1.82.34-2.47-5.34-4.91-7.77-5.51a25.84,25.84,0,0,0-4.42-.67c.4-.39.93-.88,1.49-1.4,1-.89,2.2-2,3.76-3.55a2.11,2.11,0,0,0,.57-2.17,2.76,2.76,0,0,0-2.32-1.77c-1.58-.25-5.92.12-12.23,8.93a25.52,25.52,0,0,1-3.19,3.89,17.6,17.6,0,0,1,.47-2.44c1.47-5.72,0-15.08-2.12-16.85a1.52,1.52,0,0,0-1.63-.3c-.85.37-1.67,1.46-1.93,6.94-.14,3-2.34,12.21-3.75,14.83a21.59,21.59,0,0,1-.45-3.88,15.81,15.81,0,0,0-4.29-10.47c-1.68-1.94-2.85-1.88-3.54-1.49-1.27.73-1.32,2.79-.15,6.32,3.46,10.45-4.36,24.12-11.34,30l-.5.43c-1.63,1.39-3.5,3-8.61,4.41a11.23,11.23,0,0,0-4.23-.91c-3.36,0-9.17,2.26-11,5.81-1.12,2.15-1,4.9.38,8A27.22,27.22,0,0,0,5.8,88c4,4.41,8.7,7.26,12,7.26A4.69,4.69,0,0,0,20,94.71c7.93-4.28,7.68-10.62,6.82-14A14.91,14.91,0,0,0,26.22,78.77Zm-.29-13.39.49-.41c7.14-6,15.89-20.37,12-32.19a10,10,0,0,1-.72-3.7,5.69,5.69,0,0,1,.91.86,13.74,13.74,0,0,1,3.78,9.23c.26,4.7.87,6.37,2.34,6.37h0c3.43,0,5.92-16.41,6-17.34a21.44,21.44,0,0,1,.57-4.57c1,2.15,2.37,9.08,1.07,14.18-.84,3.3-.73,4.79.39,5.32s2.47-.14,6-5.06c5.21-7.27,9-8.47,10.46-8,.34.11.46.27.42.38C68,31.89,66.79,33,65.84,33.93c-2.57,2.38-3.17,3-2.83,3.91s1.19.94,2.42,1a23.74,23.74,0,0,1,4.25.63,14.36,14.36,0,0,1,6.07,3.1,8,8,0,0,1-2.52.17c-.94,0-1.87-.1-2.77-.16-3.61-.26-7-.49-10.67,1.19-2.61,1.21-3.76,1.86-3.72,3s1.13,1.55,3.1,2.31l1.42.56c8.3,3.37,11,7.61,10.79,8.39-.15.06-.92,0-2.37-1C60.18,51,49.44,51.5,45.09,54.18c-1.86,1.15-2,2.42-1.89,3.08C43.4,58.79,45,60,48,60.86c3.6,1,6.55,4,7.16,7.32a9.24,9.24,0,0,1,.24,2.41,10.34,10.34,0,0,1-1.92-1.67c-4-4-10.24-5.47-16.38-3.73A18.15,18.15,0,0,0,24.89,76.1a20.42,20.42,0,0,0-6.31-6.53A19.46,19.46,0,0,0,25.93,65.38Zm-3.42,25a9.87,9.87,0,0,0-.66-3.09c-1.42-3.79-7.35-12.7-11.43-12.7h0a1,1,0,0,0-1,1,1,1,0,0,0,1,1h0c2.47,0,8,7.39,9.51,11.36a6.25,6.25,0,0,1,.43,3.68,1.14,1.14,0,0,0,0,.45c-.39.26-.81.52-1.27.77-2.21,1.18-7.61-1.73-11.74-6.31A25.61,25.61,0,0,1,3,80.25c-.77-1.72-1.47-4.18-.43-6.17,1.33-2.57,6.12-4.68,9.27-4.71,5.16,0,11.48,5.75,13,11.82A9.24,9.24,0,0,1,22.51,90.37Z"/><path class="cls-1" d="M7.17,65.4l.37,0c3.08-.35,15.79-6.33,17.25-12.61.38-1.64.16-4-3.06-6.08-.35-.23-1-.66-1.63-1.15-.51-.37-1.26-.93-1.85-1.4.67,0,1.54,0,2.38,0a12.75,12.75,0,0,1,4.34.63c1,.28,1.83.53,2.58,0,1-.74,1-2.09,1.13-7.13A2.2,2.2,0,0,0,27.92,36c-1.91-2-8-4.42-10.21-4.42h-.27a13,13,0,0,1,1.48-.48c3.12-.84,7-1.6,7.28-1.63a1.12,1.12,0,0,0,1-.78,11.72,11.72,0,0,0,.3-3.86c-.09-1.42-.12-1.85,1.78-2.9A21.8,21.8,0,0,1,36,20c1.7-.28,2.34-.39,2.69-1a1.23,1.23,0,0,0,.09-.94c-1.45-4.05-9.34-4.95-13.14-5.15a21.05,21.05,0,0,1,5.85-.86c2.69.05,6.6.54,9.22,3.29.77.81,3.33,2.47,5.06,1.78A2.12,2.12,0,0,0,47.07,15a5.9,5.9,0,0,0-2.8-5c-.32-.22-.56-.41-.76-.57,2,.16,6.18,1.29,7.89,2.5.65.46,1.11.86,1.48,1.17,1.66,1.42,2.29,1.61,5.65.71l.37,0a27.89,27.89,0,0,0,2.8-.33,8.21,8.21,0,0,1,5.7.76,1,1,0,0,0,.81-1.89c-3.4-1.44-4.84-1.22-6.83-.9-.72.11-1.53.24-2.6.31l-.58,0c-2.82.74-2.89.68-4-.25-.41-.35-.92-.78-1.63-1.29-2.17-1.53-9-3.54-10.9-2.64a1.45,1.45,0,0,0-.88,1.18c-.07.87.58,1.7,2.27,2.89A3.88,3.88,0,0,1,45,15c0,.13,0,.21,0,.23A4.7,4.7,0,0,1,42.23,14C36.59,8,26,10.09,22.74,11.9c-1,.57-1.43,1.22-1.25,1.93.29,1.11,1.72,1.11,2.26,1.11,4,0,10.41.81,12.53,2.94l-.58.1a23.38,23.38,0,0,0-7.39,2.15c-2.83,1.57-3,2.87-2.84,4.83a9.6,9.6,0,0,1-.09,2.57c-1.61.28-4.9,1-7,1.58S13.83,30.67,14,32.18s2.31,1.46,3.32,1.46h.36c2.24,0,8.45,3,8.91,3.89a37.11,37.11,0,0,1-.3,5.42c-.21,0-.52-.13-.79-.2A15.15,15.15,0,0,0,20.61,42c-3.57,0-4.77.07-5.14,1.21s.81,2,3.41,3.95c.72.54,1.36,1,1.74,1.23,2.67,1.71,2.29,3.35,2.17,3.88-1.17,5-13,10.76-15.48,11C6,63.48,4.64,60.89,3.45,56c-1.09-4.44-1.14-11.08-.16-19.75,1.39-12.2,7.06-21.81,16.42-27.79,10.54-6.74,25-8.3,37.64-4.1A1,1,0,1,0,58,2.43C44.74-2,29.65-.32,18.6,6.75,8.7,13.07,2.7,23.2,1.25,36c-1,8.91-.94,15.8.2,20.47C2.47,60.68,4,65.4,7.17,65.4Z"/><path class="cls-1" d="M81.38,10,80.6,9.3C75.76,4.67,65.59,1.14,63,1.14c-1.15,0-1.44.67-1.51,1-.23,1,.54,1.69,3.33,3.12,8.58,4.39,14.07,8.07,12.31,18.91-.49,3,2,5.25,4.59,7.64s5.64,5.17,6,9a5.38,5.38,0,0,0,2,3.44,5.93,5.93,0,0,1,2.21,5c0,1.95.29,7.73,1.67,9.14a1.45,1.45,0,0,0,1,.46c1.3,0,2.07-1.52,2.94-5.81C100.7,37.11,91.39,19.59,81.38,10ZM95.47,52.59A26.65,26.65,0,0,1,94.6,56a28.14,28.14,0,0,1-.71-6.73,8,8,0,0,0-2.81-6.46c-.85-.85-1.33-1.37-1.4-2.16C89.3,36,86,32.93,83.07,30.26c-2.29-2.09-4.26-3.9-3.95-5.8,1.82-11.2-3.61-15.82-11.36-20,3.72,1.33,8.58,3.61,11.42,6.33l.79.74C89.58,20.7,98.53,37.46,95.47,52.59Z"/><path class="cls-1" d="M92.1,62.78a1,1,0,0,0-1,1c0,1.15-.13,2.44-.32,4.33-1,10-9.28,18.53-22.66,23.38-14,5.07-30.45,4.8-36-.59a6,6,0,0,1-1.4-6.7c1.43-4.25,5.95-3.64,13.24-2.12,5.56,1.16,11.3,2.36,14.93-.61a38,38,0,0,0,2.93-3.15c0,.22,0,.46-.06.73-.12,1.13-.33,3,2,3.66,1.93.54,3.05-1.84,3.94-3.75.17-.35.38-.81.58-1.18a21.65,21.65,0,0,1,.66,2.79c.09.5.36,2,1.6,2.15s2-.9,3.07-3.39c1.13-2.66.84-3.83.35-5.1a4.7,4.7,0,0,1,0-3.62c.09-.29.23-.82.35-1.11l.67.16c.42.11.94.25,1.6.39,3.35.67,5.75.22,7.14-1.36,1.6-1.83,1.64-4.89.11-9.35-.45-1.31-.63-2-.75-2.38a16.16,16.16,0,0,0-1.49-3.41,7.08,7.08,0,0,1,3.14,2.21c.32.64.86,1.41,1.64,1.48a1,1,0,0,0,1-.41.91.91,0,0,0,0-1,57.84,57.84,0,0,1-.52-7.29,1.05,1.05,0,0,0-1-1,1,1,0,0,0-1,1.06c0,1.09.09,2.92.21,4.59-1.57-1.24-3.83-2.25-5-1.66-.23.12-1.35.79-.47,2.57A16.64,16.64,0,0,1,81,57.53c.13.45.32,1.12.79,2.48,1.23,3.6,1.33,6.13.28,7.33s-3.41,1-5.18.69c-.61-.13-1.1-.25-1.49-.35-2.33-.62-2.84-.05-3.52,2.38A6.64,6.64,0,0,0,72,75c.33.84.57,1.45-.32,3.54a11.29,11.29,0,0,1-.78,1.57c-.65-3.51-1.26-4.75-2.4-4.9s-1.91,1.19-2.7,2.9c-.38.81-1.16,2.48-1.54,2.64-.56-.16-.63-.18-.5-1.46a4.23,4.23,0,0,0-1-3.8,1,1,0,0,0-.9-.28,1.06,1.06,0,0,0-.77.58,33.41,33.41,0,0,1-3.6,4.11c-2.86,2.35-8.12,1.25-13.2.19-6.63-1.39-13.5-2.82-15.61,3.47a8,8,0,0,0,1.91,8.83c3.27,3.19,9.65,4.81,17.16,4.81a63,63,0,0,0,20.95-3.76c14.15-5.12,22.9-14.27,24-25.1.19-1.94.29-3.28.32-4.48A1,1,0,0,0,92.1,62.78Z"/></g></g></svg>