<svg xmlns="http://www.w3.org/2000/svg" viewBox="0 0 88.28 93.05"><defs><style>.cls-1{fill:#8c6c2a;}</style></defs><g id="Capa_2" data-name="Capa 2"><g id="Icons"><path class="cls-1" d="M87.62,49.74c-.17-.89-.36-1.77-.56-2.63a56.85,56.85,0,0,0-4.19-10.83c-.58-1.23-1.15-2.45-1.7-3.69l-.8-1.83a114,114,0,0,0-5.61-11.67l-1.31-2.3C70,10.6,65.65,2.89,59.12.59A10.83,10.83,0,0,0,52.79.36a17.12,17.12,0,0,0-3.08,1.17l-.83.39a24.31,24.31,0,0,1-3,1.23,5.22,5.22,0,0,1-2.35.3,8.68,8.68,0,0,1-1.87-.59l-.25-.1c-.73-.29-1.44-.62-2.16-.95S38.05,1.28,37.46,1a11.77,11.77,0,0,0-2-.67,10.87,10.87,0,0,0-6.34.23c-6.52,2.3-10.84,10-14.32,16.2-.45.8-.88,1.57-1.31,2.3A114,114,0,0,0,7.91,30.76l-.8,1.83C6.57,33.82,6,35,5.42,36.26a56.16,56.16,0,0,0-4.2,10.85C1,48,.83,48.85.66,49.75a38.36,38.36,0,0,0-.66,6C-.26,70.68,15.46,90.8,34.2,93a9.64,9.64,0,0,0,2.08,0c1-.1,2-.29,3-.47A24.07,24.07,0,0,1,43.7,92h.88a24.07,24.07,0,0,1,4.46.55c1,.18,2,.37,3,.47a9.55,9.55,0,0,0,2.07,0c18.74-2.19,34.46-22.31,34.2-37.24A38.6,38.6,0,0,0,87.62,49.74ZM53.83,90.92A7,7,0,0,1,53,91c-.3,0-.61,0-.91,0-.93-.09-1.84-.26-2.8-.44a24.86,24.86,0,0,0-4.69-.58h-.87a25,25,0,0,0-4.69.58c-1,.18-1.88.35-2.79.44a8.33,8.33,0,0,1-1.73,0C20,89.21,1.81,72.28,2.1,55.67A34.65,34.65,0,0,1,2.73,50c.16-.84.34-1.69.54-2.53a53.9,53.9,0,0,1,4-10.4c.58-1.24,1.15-2.46,1.7-3.69l.8-1.83a111.07,111.07,0,0,1,5.46-11.36q.63-1.09,1.29-2.28C19.87,12,24,4.66,29.89,2.58a9.13,9.13,0,0,1,5.4-.18A10.83,10.83,0,0,1,37,3c.48.2.94.41,1.4.62l.29.13c.71.33,1.45.67,2.22,1l.23.09a10.57,10.57,0,0,0,2.18.68,6.75,6.75,0,0,0,3-.35,23.6,23.6,0,0,0,3.19-1.3l.83-.38A16.24,16.24,0,0,1,53.08,2.4a9.12,9.12,0,0,1,5.4.18c5.9,2.08,10,9.42,13.33,15.32l.17.3,1.13,2a109.88,109.88,0,0,1,5.43,11.29l.83,1.9c.53,1.21,1.1,2.41,1.66,3.61A54.08,54.08,0,0,1,85.1,47.46c.2.84.38,1.69.54,2.53a35.31,35.31,0,0,1,.62,5.68C86.56,72.28,68.37,89.21,53.83,90.92Z"/><path class="cls-1" d="M65.9,56.28c.31-3.27-1.52-6.78-3-9.6-.26-.5-.52-1-.75-1.45-2.65-5.34-9.15-18.35-9.7-19.3a4.23,4.23,0,0,0-3.24-2c-1.34,0-2.29.07-2.29.93V72.49l1-.43c5.61-2.36,10.11-4.73,13.8-8.64a20.67,20.67,0,0,0,3.4-4.62A6.93,6.93,0,0,0,65.9,56.28Zm-1.5-.14a5.22,5.22,0,0,1-.56,2,19.17,19.17,0,0,1-3.16,4.28c-3.28,3.48-7.29,5.7-12.25,7.84V25.46c.25,0,.56,0,.79,0a2.73,2.73,0,0,1,1.94,1.26c.48.82,6.55,13,9.66,19.2.23.48.49,1,.76,1.49C63,50,64.68,53.31,64.4,56.14Z"/><path class="cls-1" d="M39.06,23.93a4.23,4.23,0,0,0-3.24,2c-.57,1-7.26,14.37-9.7,19.3-.23.46-.49,1-.75,1.45-1.47,2.82-3.3,6.33-3,9.6a6.93,6.93,0,0,0,.73,2.52,20.67,20.67,0,0,0,3.4,4.62c3.69,3.91,8.18,6.28,13.8,8.64l1,.43V24.86C41.35,24,40.4,23.93,39.06,23.93Zm.79,46.3c-5-2.14-9-4.36-12.25-7.84a19.17,19.17,0,0,1-3.16-4.28,5.22,5.22,0,0,1-.56-2c-.28-2.83,1.44-6.12,2.82-8.76.27-.52.53-1,.76-1.49,3-6.12,9.17-18.37,9.66-19.2h0a2.71,2.71,0,0,1,1.94-1.26c.23,0,.54,0,.79,0Z"/><path class="cls-1" d="M52.86,72.6,52,73a1.62,1.62,0,0,0-.53,2.16,1.89,1.89,0,0,0,1.05,1,1.2,1.2,0,0,0,.95,0l.93-.44A1.25,1.25,0,0,0,55,75a1.92,1.92,0,0,0-.13-1.46A1.65,1.65,0,0,0,52.86,72.6Z"/><path class="cls-1" d="M58.46,69.55l-.8.53a1.62,1.62,0,0,0-.29,2.19,1.85,1.85,0,0,0,1.11.9,1.31,1.31,0,0,0,1-.13l.88-.57a1.25,1.25,0,0,0,.55-.85,1.84,1.84,0,0,0-.34-1.39A1.7,1.7,0,0,0,58.46,69.55Z"/><path class="cls-1" d="M64.21,65.37a1.18,1.18,0,0,0-.84.31l-.67.67a1.62,1.62,0,0,0,.12,2.2,1.85,1.85,0,0,0,1.24.68,1.33,1.33,0,0,0,1-.32l.76-.75a1.3,1.3,0,0,0,.38-1,1.86,1.86,0,0,0-.62-1.27A2.1,2.1,0,0,0,64.21,65.37Z"/><path class="cls-1" d="M69.48,60.63a2.32,2.32,0,0,0-1-.25,1.26,1.26,0,0,0-1.15.55l-.51.78a1.69,1.69,0,0,0,.62,2.11,1.89,1.89,0,0,0,1.42.39,1.2,1.2,0,0,0,.84-.55l.31-.45.29-.46a1.37,1.37,0,0,0,.11-1.1A1.66,1.66,0,0,0,69.48,60.63Z"/><path class="cls-1" d="M71.68,54.46a1.67,1.67,0,0,0-1.3-.26c-.94.2-1.66.87-1.58,1.48v.85a1.28,1.28,0,0,0,.45.87,2.5,2.5,0,0,0,1.17.59,1.6,1.6,0,0,0,1.28-.24,1.39,1.39,0,0,0,.43-.47,1.61,1.61,0,0,0,.15-.62v-.59c0-.3,0-.59,0-.59A1.43,1.43,0,0,0,71.68,54.46Z"/><path class="cls-1" d="M67.21,50l.2.43.18.44a1.67,1.67,0,0,0,2.11.64,1.77,1.77,0,0,0,1.08-.93,1.24,1.24,0,0,0,0-1L70.6,49l-.22-.48a1.28,1.28,0,0,0-.75-.67A1.85,1.85,0,0,0,68.2,48,1.65,1.65,0,0,0,67.21,50Z"/><path class="cls-1" d="M64.29,44.13l.46.9a1.28,1.28,0,0,0,.77.61A1.86,1.86,0,0,0,67,45.47a1.59,1.59,0,0,0,.91-2l-.46-.9a1.79,1.79,0,0,0-3.11,1.58Z"/><path class="cls-1" d="M61.34,38.26l.46.89a1.16,1.16,0,0,0,.72.59A2,2,0,0,0,64,39.58a1.63,1.63,0,0,0,.9-2.06l-.46-.91a1.27,1.27,0,0,0-.75-.6,1.89,1.89,0,0,0-1.42.18A1.64,1.64,0,0,0,61.34,38.26Z"/><path class="cls-1" d="M58.38,32.38l.46.9a1.15,1.15,0,0,0,.72.58A1.86,1.86,0,0,0,61,33.67a1.66,1.66,0,0,0,.88-2.09l-.46-.9a1.19,1.19,0,0,0-.74-.59,1.83,1.83,0,0,0-1.41.19A1.69,1.69,0,0,0,58.38,32.38Z"/><path class="cls-1" d="M55.43,26.51l.46.9a1.11,1.11,0,0,0,.71.57A1.82,1.82,0,0,0,58,27.77a1.69,1.69,0,0,0,.87-2.12l-.46-.91a1.16,1.16,0,0,0-.73-.58,1.77,1.77,0,0,0-1.4.22A1.73,1.73,0,0,0,55.43,26.51Z"/><path class="cls-1" d="M52.12,22.16h0a3.9,3.9,0,0,1,.66.39,1.22,1.22,0,0,0,.87.06A2.81,2.81,0,0,0,54.84,22a1.57,1.57,0,0,0,.54-1.18,1.41,1.41,0,0,0-.64-1.15l-.11-.08h0c-.18-.11-.61-.36-1-.57a1.45,1.45,0,0,0-2.07,1.13,3.17,3.17,0,0,0,.09,1.32C51.75,21.75,51.89,22.08,52.12,22.16Z"/><path class="cls-1" d="M36.29,73l-.9-.41a1.27,1.27,0,0,0-.47-.09,1.81,1.81,0,0,0-1.52,1.07A1.9,1.9,0,0,0,33.28,75a1.23,1.23,0,0,0,.65.71l.94.43a1.23,1.23,0,0,0,1,0,2,2,0,0,0,1-1A1.63,1.63,0,0,0,36.29,73Z"/><path class="cls-1" d="M30.61,70.06h0l-.81-.52a1.11,1.11,0,0,0-.59-.16,2,2,0,0,0-1.51.87,1.86,1.86,0,0,0-.33,1.4,1.28,1.28,0,0,0,.57.83l.89.57a1.35,1.35,0,0,0,1,.11,1.9,1.9,0,0,0,1.1-.92A1.61,1.61,0,0,0,30.61,70.06Z"/><path class="cls-1" d="M24.89,65.67a1.21,1.21,0,0,0-.83-.3,2.08,2.08,0,0,0-1.38.58,1.85,1.85,0,0,0-.6,1.27,1.32,1.32,0,0,0,.4,1l.77.74a1.35,1.35,0,0,0,1,.29,1.88,1.88,0,0,0,1.23-.69,1.61,1.61,0,0,0,.09-2.19Z"/><path class="cls-1" d="M21.21,61.3c-.13-.18-.25-.38-.25-.38a1.3,1.3,0,0,0-1.16-.53,2.26,2.26,0,0,0-1,.25,1.75,1.75,0,0,0-.9,1A1.39,1.39,0,0,0,18,62.78l.61.9a1.23,1.23,0,0,0,.85.53,1.82,1.82,0,0,0,1.41-.41,1.7,1.7,0,0,0,.59-2.12Z"/><path class="cls-1" d="M19.07,57.38a1.37,1.37,0,0,0,.3-.42.86.86,0,0,0,.13-.45,6.9,6.9,0,0,1,0-.85h0c.06-.61-.67-1.28-1.6-1.46a2,2,0,0,0-.34,0,1.55,1.55,0,0,0-1,.31,1.44,1.44,0,0,0-.58,1,1.33,1.33,0,0,0,0,.17v.41l0,.59a1.53,1.53,0,0,0,.16.62,1.48,1.48,0,0,0,.44.46A1.68,1.68,0,0,0,17.9,58,2.48,2.48,0,0,0,19.07,57.38Z"/><path class="cls-1" d="M18.61,51.49a1.68,1.68,0,0,0,2.1-.67l.17-.43.19-.45a1.65,1.65,0,0,0-1-2,1.82,1.82,0,0,0-1.44-.1,1.23,1.23,0,0,0-.74.67l-.22.49-.19.5a1.28,1.28,0,0,0,0,1A1.78,1.78,0,0,0,18.61,51.49Z"/><path class="cls-1" d="M21.36,45.49a1.9,1.9,0,0,0,1.43.15,1.31,1.31,0,0,0,.76-.64l.44-.9a1.59,1.59,0,0,0-.94-2,1.6,1.6,0,0,0-2.18.48l-.45.91A1.6,1.6,0,0,0,21.36,45.49Z"/><path class="cls-1" d="M24.34,39.59a1.9,1.9,0,0,0,1.45.14,1.16,1.16,0,0,0,.71-.6l.45-.9a1.64,1.64,0,0,0-.93-2A2,2,0,0,0,25.1,36a1.7,1.7,0,0,0-.51.07,1.18,1.18,0,0,0-.73.61l-.45.92A1.6,1.6,0,0,0,24.34,39.59Z"/><path class="cls-1" d="M27.31,33.69a1.85,1.85,0,0,0,1.44.16,1.17,1.17,0,0,0,.71-.59l.44-.9A1.69,1.69,0,0,0,29,30.27a1.84,1.84,0,0,0-1.42-.17,1.19,1.19,0,0,0-.73.6l-.44.91A1.65,1.65,0,0,0,27.31,33.69Z"/><path class="cls-1" d="M30.29,27.79A1.88,1.88,0,0,0,31.7,28a1.17,1.17,0,0,0,.71-.59l.45-.9a1.75,1.75,0,0,0-.9-2.12,1.92,1.92,0,0,0-1-.27,1.41,1.41,0,0,0-.45.07,1.18,1.18,0,0,0-.72.59l-.45.92A1.71,1.71,0,0,0,30.29,27.79Z"/><path class="cls-1" d="M34.64,22.63a1.43,1.43,0,0,0,.49,0,.64.64,0,0,0,.36-.1,4.31,4.31,0,0,1,.66-.41c.25-.09.39-.43.48-.71a3,3,0,0,0,.07-1.31A1.49,1.49,0,0,0,36,19.05a1.53,1.53,0,0,0-1.37,0c-.38.22-.8.46-1,.58h0l-.11.07a1.38,1.38,0,0,0-.61,1.16A1.51,1.51,0,0,0,33.47,22,2.73,2.73,0,0,0,34.64,22.63Z"/></g></g></svg>