<svg xmlns="http://www.w3.org/2000/svg" viewBox="0 0 113.17 112.74"><defs><style>.cls-1{fill:#9b1b21;}</style></defs><g id="Capa_2" data-name="Capa 2"><g id="Icons"><path class="cls-1" d="M99.12.44a1.54,1.54,0,0,0-.49-.32l-.2,0A1.25,1.25,0,0,0,98.07,0h0L98,0l-.12,0-.32,0a.7.7,0,0,0-.14.08l-.09,0-.15.07L73.49,19.23a1.52,1.52,0,0,0-.57,1.12,1.49,1.49,0,0,0,.45,1.18c3.1,3.1,3.56,8.84,1.27,15.75C72.19,44.65,67,52.55,60,59.54c-9.77,9.78-21.66,16.09-30.28,16.09-3.32,0-5.92-.92-7.73-2.72a1.57,1.57,0,0,0-1.11-.46h-.07a1.59,1.59,0,0,0-1.12.58L.79,96.6c-.06.13-.08.18-.11.23l-.06.09a.69.69,0,0,0-.06.13,1.14,1.14,0,0,0-.06.29l0,.17a.36.36,0,0,0,0,.11A1.79,1.79,0,0,0,.53,98c0,.07,0,.12,0,.17a1.47,1.47,0,0,0,.33.54c9.08,9.08,21.83,14.08,35.91,14.08,18.75,0,38.05-8.54,53-23.44C116.84,62.22,121,22.36,99.12.44Zm-95,97,17-21.22.38.26a14.56,14.56,0,0,0,8.24,2.25c9.54,0,22-6.51,32.47-17C69.51,54.41,75,46.07,77.57,38.25,80,31.11,79.73,25.15,76.93,21l-.25-.38,21.21-17L98.2,4C112,20.08,103,52.35,77.93,77.47,65.3,90.1,50.48,99,36.2,102.52a51.62,51.62,0,0,1-12.33,1.6c-7.79,0-14.47-2.16-19.41-6.38Zm32.72,12.22h0a53.82,53.82,0,0,1-12.5-1.46l-3.89-.94,4,0a55.56,55.56,0,0,0,12.52-1.68c14.82-3.66,30.15-12.85,43.17-25.87,17.07-17.06,27.34-38,27.46-56l0-4,1,3.86c5.14,20.74-3.09,45.69-21,63.58C73.25,101.44,54.75,109.65,36.81,109.65Z"/><polygon class="cls-1" points="0 97.32 0 97.32 0 97.32 0 97.32"/><path class="cls-1" d="M50.51,60.26a1.51,1.51,0,0,0-.87-.81,1.44,1.44,0,0,0-.54-.1,1.61,1.61,0,0,0-.64.14,1.55,1.55,0,0,0-.77,2L49,64.41a1.58,1.58,0,0,0,2,.77,1.55,1.55,0,0,0,.77-2.05Z"/><path class="cls-1" d="M43.24,64.77a1.52,1.52,0,0,0-1.55-1.38h-.15a1.55,1.55,0,0,0-1.37,1.7l.35,3.39a1.53,1.53,0,0,0,1.7,1.38,1.55,1.55,0,0,0,1.37-1.7Z"/><path class="cls-1" d="M34.39,65.64a1.49,1.49,0,0,0-1.14.26,1.52,1.52,0,0,0-.64,1L32,70.59A1.55,1.55,0,0,0,35,71.1l.62-3.68a1.54,1.54,0,0,0-1.26-1.78Z"/><path class="cls-1" d="M27.48,66a1.55,1.55,0,0,0-2,.83L23.9,70.57a1.54,1.54,0,0,0,2.85,1.19l1.56-3.71A1.55,1.55,0,0,0,27.48,66Z"/><path class="cls-1" d="M71.62,23.32a1.52,1.52,0,0,0-.59.12L67.31,25a1.56,1.56,0,0,0-.83,2,1.58,1.58,0,0,0,2,.83l3.71-1.56a1.55,1.55,0,0,0,.83-2A1.55,1.55,0,0,0,71.62,23.32Z"/><path class="cls-1" d="M72.19,31.77a1.52,1.52,0,0,0-.87-.27,1.23,1.23,0,0,0-.27,0l-3.68.63a1.54,1.54,0,1,0,.51,3l3.68-.62a1.55,1.55,0,0,0,.63-2.8Z"/><path class="cls-1" d="M68.94,40.06l-3.39-.35a1.57,1.57,0,0,0-1.7,1.38,1.55,1.55,0,0,0,1.38,1.69l3.39.35a1.56,1.56,0,0,0,1.7-1.38A1.53,1.53,0,0,0,68.94,40.06Z"/><path class="cls-1" d="M64.87,48.53,62,47.23a1.41,1.41,0,0,0-.63-.14A1.54,1.54,0,0,0,60.72,50h0l2.88,1.3a1.58,1.58,0,0,0,2-.77,1.54,1.54,0,0,0-.77-2Z"/><path class="cls-1" d="M56.89,54.25a1.52,1.52,0,0,0-2.18,0,1.53,1.53,0,0,0,0,2.18l2.16,2.16a1.56,1.56,0,0,0,2.18,0,1.52,1.52,0,0,0,0-2.18Z"/></g></g></svg>