<svg xmlns="http://www.w3.org/2000/svg" viewBox="0 0 126.49 106.15"><defs><style>.cls-1{fill:#8c6c2a;}</style></defs><g id="Capa_2" data-name="Capa 2"><g id="Icons"><path class="cls-1" d="M123.52.2c-5.16-1.11-12,2.66-16.8,4C101.58,5.7,96.22,6.53,91,7.85c-6.26,1.58-12.45,3.44-18.59,5.46a232.29,232.29,0,0,0-35,14.47,89.57,89.57,0,0,0-26.3,20.36A34.32,34.32,0,0,0,4.55,59C2.67,64.16,3.07,69.92,3.16,75.31c0,3.26.2,6.74-.65,9.91-.62,2.35-1.63,4.58-2.22,7C-.38,94.91,0,98,2.75,99.34c3.64,1.81,7.94,1.47,11.89,1.52,5.74.06,11.2,2.77,16.64,4.31,10.94,3.11,23.08-1.73,32.85-6.53,12-5.9,22.15-15.24,30.49-25.61a150.81,150.81,0,0,0,18.11-30.56c4.66-10.18,5.19-21.94,10.9-31.65C125.39,7.8,129.12,1.41,123.52.2Zm-2.23,10.49a36.23,36.23,0,0,0-2.78,6.11,12.9,12.9,0,0,1-2.89-3.1c-.35-.56-1.3-.12-.94.45a14.77,14.77,0,0,0,3.46,3.68c-1.26,3.78-2.15,7.72-3.14,11.5-4,15.42-12.32,30-22.1,42.53-8.19,10.19-18,18.88-29.66,24.9-.84.44-1.72.82-2.58,1.21a13,13,0,0,1-2.83-4c-.26-.62-1.2-.17-.94.44a13.53,13.53,0,0,0,2.78,4,102.17,102.17,0,0,1-13,4.5c-6.43,1.81-12.12,1.19-18.4-.86-4.14-1.34-8.31-3-12.7-3.27-1.8-.11-4,.07-6.15,0a13.79,13.79,0,0,1-1.2-1.64c-.35-.57-1.29-.13-.94.44.23.39.49.75.75,1.11a8.63,8.63,0,0,1-5.31-2c-2.43-2.28,1-8.78,2-12a18.56,18.56,0,0,0,1.34,1.32c.5.44,1.08-.42.58-.86A17.27,17.27,0,0,1,5,83.45c.95-5.88-.05-12.11.36-18C6.08,54.65,14.92,46,23.09,39.49a34.9,34.9,0,0,1,3.06,4.56c.31.59,1.25.15.94-.45a36.15,36.15,0,0,0-3.19-4.75L25,38c10-7.65,21.84-12.77,33.48-17.43A271.94,271.94,0,0,1,97,8.54c1.33,1.93,2.73,3.82,4,5.79.36.56,1.14-.12.78-.67-1.18-1.83-2.47-3.59-3.71-5.38,3.94-.9,7.91-1.6,11.77-2.82,3.21-1,6.39-2.15,9.69-2.88,1.19-.27,4.11-1,4.88.35C125.49,4.9,122.14,9.24,121.29,10.69Z"/><path class="cls-1" d="M99.47,23.8a.52.52,0,0,0,.78-.68,20.42,20.42,0,0,0-1.82-1.9c-.48-.46-1.28.22-.78.67A25.31,25.31,0,0,1,99.47,23.8Z"/><path class="cls-1" d="M98,39.31c-.58-.74-1.68.21-1.11.95A56.71,56.71,0,0,0,101.45,45c.66.67,1.77-.27,1.11-.95A53.67,53.67,0,0,1,98,39.31Z"/><path class="cls-1" d="M78.42,20.71c-.26-.62-1.2-.17-.94.44a12.41,12.41,0,0,0,2,3.33.52.52,0,0,0,.79-.68A11.2,11.2,0,0,1,78.42,20.71Z"/><path class="cls-1" d="M72.12,36.75c-.53-.42-1.11.44-.59.86a7.72,7.72,0,0,1,2,2.44c.31.6,1.25.15.94-.44A9,9,0,0,0,72.12,36.75Z"/><path class="cls-1" d="M94,52.77c-.42-.53-1.21.15-.79.68a16.42,16.42,0,0,0,1.92,2c.51.44,1.09-.43.59-.86A14.73,14.73,0,0,1,94,52.77Z"/><path class="cls-1" d="M76.17,55.21a3.5,3.5,0,0,1,1.09,1.49c.25.63,1.18.18.94-.44a4.54,4.54,0,0,0-1.44-1.91C76.23,53.93,75.65,54.79,76.17,55.21Z"/><path class="cls-1" d="M47,36.5c-.37-.87-1.68-.24-1.31.62,1.41,3.29,3.91,5.67,6.25,8.3.63.7,1.74-.25,1.11-1C50.77,41.94,48.34,39.67,47,36.5Z"/><path class="cls-1" d="M56.68,57.54c-.44-.51-1.23.17-.78.67l2,2.28a.52.52,0,0,0,.79-.68C58,59.05,57.35,58.3,56.68,57.54Z"/><path class="cls-1" d="M66.23,75.73c-.22-.63-1.16-.18-.94.45,1,2.69,3.1,4.48,5,6.55.45.5,1.24-.18.79-.68C69.24,80.05,67.16,78.34,66.23,75.73Z"/><path class="cls-1" d="M39.75,71.38c-.2-.64-1.22-.46-1,.17a6.73,6.73,0,0,0,2,3.18c.51.44,1.09-.43.59-.86A5.43,5.43,0,0,1,39.75,71.38Z"/><path class="cls-1" d="M16.3,65.59a28.64,28.64,0,0,1-2.36-3c-.37-.56-1.16.13-.79.68a28.64,28.64,0,0,0,2.36,3C16,66.77,16.75,66.09,16.3,65.59Z"/><path class="cls-1" d="M25.88,56.61a.52.52,0,0,0-.94.44c.18.38.36.75.53,1.13a.52.52,0,0,0,.94-.45C26.24,57.36,26.06,57,25.88,56.61Z"/><path class="cls-1" d="M35.52,92.73c-.56-.37-1.15.49-.59.86A15.12,15.12,0,0,1,37,95.22c.48.45,1.28-.22.79-.68A17.44,17.44,0,0,0,35.52,92.73Z"/><path class="cls-1" d="M15.49,85c-.3-.75-1.43-.21-1.13.54a19.57,19.57,0,0,0,5.15,6.95c.58.54,1.54-.27.95-.82A18.63,18.63,0,0,1,15.49,85Z"/></g></g></svg>