<svg xmlns="http://www.w3.org/2000/svg" viewBox="0 0 104.9 101.98"><defs><style>.cls-1{fill:#9b1b21;}</style></defs><g id="Capa_2" data-name="Capa 2"><g id="Icons"><path class="cls-1" d="M102.05,51.18a16.9,16.9,0,0,0-5.55-5.42A18.31,18.31,0,0,0,83,15a19.13,19.13,0,0,0-3,.25,27.77,27.77,0,0,0-49.36,0,19.13,19.13,0,0,0-3-.25A18.33,18.33,0,0,0,9.33,33.35a18.09,18.09,0,0,0,.86,5.39.9.9,0,0,0-.41.16,23.7,23.7,0,0,0,7.37,41.69,14.59,14.59,0,0,0,.27,2.47A15.7,15.7,0,0,0,32.8,95.78a15.27,15.27,0,0,0,2.5-.22,16.59,16.59,0,0,0,12.85,6.17,15.45,15.45,0,0,0,10.36-3.91A24,24,0,0,0,95,74.88a15.71,15.71,0,0,0,9.3-11.32A16.69,16.69,0,0,0,102.05,51.18ZM27.64,16.82a16.72,16.72,0,0,1,3.33.34.9.9,0,0,0,1-.48,26,26,0,0,1,46.78,0,.91.91,0,0,0,1,.48A16.8,16.8,0,0,1,83,16.82,16.5,16.5,0,0,1,90.55,48c0-.3-.08-.6-.13-.89a1.06,1.06,0,0,0,0-.31A37.44,37.44,0,0,0,34.09,22a.91.91,0,0,0-.6.37A37.55,37.55,0,0,0,16.91,45.88,16.51,16.51,0,0,1,27.64,16.82ZM89.3,54a35.73,35.73,0,0,1-49.4,33,31.74,31.74,0,0,1-3.43-14.43A32.09,32.09,0,0,1,82.61,43.74a52.25,52.25,0,0,1-1,10.2,11,11,0,0,1-4.81,7.19c-5.62,3.57-13.9,1.72-14,1.7a.9.9,0,0,0-1.07.67.89.89,0,0,0,.67,1.07,27,27,0,0,0,5.5.55,18.5,18.5,0,0,0,9.84-2.48,11.3,11.3,0,0,0,1.55-1.18,35.7,35.7,0,0,1-9,12.86c-11.58,6.62-24.79-5.54-24.92-5.66a.9.9,0,0,0-1.26,0,.91.91,0,0,0,0,1.26c.45.42,8.85,8.16,18.55,8.16a16.55,16.55,0,0,0,3-.3c-5.06,3.25-10.07,4.57-13.09,4.57a.89.89,0,1,0,0,1.78c9.43,0,25.82-8.71,30.5-29.16.07-.27.15-.53.21-.81a1.08,1.08,0,0,0,0-.18,52.37,52.37,0,0,0,1-9.38,32.82,32.82,0,0,1,4.32,2.93c.1.57.18,1.15.26,1.72a.87.87,0,0,0,0,.45s0,0,0,0A35,35,0,0,1,89.3,54ZM17.77,54A35.73,35.73,0,0,1,33.05,24.75a29.36,29.36,0,0,0-.22,3.38c0,.41,0,.81,0,1.22,0,0,0,.08,0,.13-.27,4.24-2,11.78-5.42,13.92a.89.89,0,0,0,.47,1.65.81.81,0,0,0,.47-.14c2.66-1.66,4.4-5.72,5.36-9.67a29.71,29.71,0,0,0,2.38,6.34.91.91,0,0,0,.8.48,1.07,1.07,0,0,0,.41-.1.91.91,0,0,0,.38-1.21,27,27,0,0,1-3.07-12.62A27.84,27.84,0,0,1,35,23.47a35.64,35.64,0,0,1,53,21.42,33.4,33.4,0,0,0-4-2.41,1.32,1.32,0,0,0-.29-.15,33.92,33.92,0,0,0-7.32-2.66c-4-8.19-9.75-11.75-15.26-13a.94.94,0,0,0-.5-.14h0a29.55,29.55,0,0,0-16.25,1.7.89.89,0,1,0,.73,1.62A27.86,27.86,0,0,1,56.59,27.7a14.72,14.72,0,0,0-7.54,11.86.89.89,0,0,0,.84.94h0a.9.9,0,0,0,.89-.85c.28-5.71,4.93-11,9.94-11.37,4.78,1.14,9.73,4.17,13.43,10.92A33.88,33.88,0,0,0,37.4,85.89,35.76,35.76,0,0,1,17.77,54Zm1.4,28.71a14,14,0,0,1-.25-2.81.9.9,0,0,0-.66-.87,21.91,21.91,0,0,1-7.48-38.67,18.32,18.32,0,0,0,5.76,7.5,37,37,0,0,0,15,36.48,16.69,16.69,0,0,0,2.57,9.56v0A13.89,13.89,0,0,1,19.17,82.73Zm83.38-19.54a13.92,13.92,0,0,1-6.24,9,13.56,13.56,0,0,1-2.59,1.28.89.89,0,0,0-.57.94A22.2,22.2,0,0,1,58.88,96a.88.88,0,0,0-1.09.11,13.57,13.57,0,0,1-2.28,1.78A14.53,14.53,0,0,1,36.34,94c-.26-.34-.51-.7-.74-1.07a14.88,14.88,0,0,1-2.27-7.37,36.59,36.59,0,0,0,5.45,2.93l.1,0a37.46,37.46,0,0,0,52-38.67A18,18,0,0,0,95.18,47a15,15,0,0,1,7.37,16.15Z"/><path class="cls-1" d="M48.15,102A16.72,16.72,0,0,1,35.2,95.83a14.83,14.83,0,0,1-2.4.2h0A15.92,15.92,0,0,1,17.18,83.11a16.61,16.61,0,0,1-.28-2.34A23.94,23.94,0,0,1,9.63,38.7a1.16,1.16,0,0,1,.24-.14,18.36,18.36,0,0,1-.79-5.21A18.59,18.59,0,0,1,27.64,14.79a19.84,19.84,0,0,1,2.88.22,28,28,0,0,1,49.64,0A19.84,19.84,0,0,1,83,14.79,18.55,18.55,0,0,1,96.88,45.7a17.18,17.18,0,0,1,5.38,5.35h0a16.92,16.92,0,0,1,2.28,12.56,16,16,0,0,1-7.15,10.3A15.6,15.6,0,0,1,95.25,75,24.2,24.2,0,0,1,58.54,98.13,15.7,15.7,0,0,1,48.15,102ZM35.4,95.29l.1.12a16.24,16.24,0,0,0,12.65,6.07,15.38,15.38,0,0,0,8.18-2.33,15.69,15.69,0,0,0,2-1.52l.14-.12.15.1a23.71,23.71,0,0,0,36.1-22.7l0-.19.17-.07a15.41,15.41,0,0,0,9.16-11.15,16.41,16.41,0,0,0-2.22-12.19h0A16.7,16.7,0,0,0,96.37,46l-.26-.16.2-.22A18.05,18.05,0,0,0,83,15.29a17.26,17.26,0,0,0-3,.25l-.18,0-.09-.17a27.53,27.53,0,0,0-48.92,0l-.09.17-.17,0a17.46,17.46,0,0,0-3-.25A18,18,0,0,0,10.42,38.67l.09.28-.29,0a.63.63,0,0,0-.29.11,23.44,23.44,0,0,0,7.29,41.25l.17.05v.18A14,14,0,0,0,17.67,83,15.42,15.42,0,0,0,32.8,95.53h0a15.72,15.72,0,0,0,2.46-.21Zm12.74,4.92a15.06,15.06,0,0,1-12-6c-.25-.33-.51-.7-.75-1.08a15.06,15.06,0,0,1-2.31-7.5l0-.48.4.26a37.79,37.79,0,0,0,5.42,2.91l.06,0a37.2,37.2,0,0,0,51.65-38.4l0-.18.17-.07A18.28,18.28,0,0,0,95,46.85l.13-.11.16.08A15.44,15.44,0,0,1,100.75,52a15.13,15.13,0,0,1,2,11.24h0a14.19,14.19,0,0,1-6.34,9.17,14.64,14.64,0,0,1-2.64,1.29.63.63,0,0,0-.41.68A22.45,22.45,0,0,1,58.75,96.17a.63.63,0,0,0-.79.08,14,14,0,0,1-2.31,1.81A14.11,14.11,0,0,1,48.14,100.21ZM33.6,86.08a14.55,14.55,0,0,0,2.21,6.76c.24.37.48.73.73,1a14.28,14.28,0,0,0,18.84,3.75,13.14,13.14,0,0,0,2.23-1.75A1.15,1.15,0,0,1,59,95.75,21.94,21.94,0,0,0,92.9,74.44a1.15,1.15,0,0,1,.74-1.21,13.66,13.66,0,0,0,8.66-10.1h0a14.74,14.74,0,0,0-7.09-15.78,18.54,18.54,0,0,1-4.1,2.7,37,37,0,0,1,.22,4,37.84,37.84,0,0,1-37.8,37.79,37.31,37.31,0,0,1-14.75-3l-.14-.06A37.31,37.31,0,0,1,33.6,86.08Zm-.84,8.17A14.06,14.06,0,0,1,18.92,82.77a14.38,14.38,0,0,1-.25-2.85.65.65,0,0,0-.47-.63,22.15,22.15,0,0,1-7.57-39.11l.25-.19.13.3a18.07,18.07,0,0,0,5.68,7.39l.12.09,0,.15a36.7,36.7,0,0,0-.55,6.1A37.43,37.43,0,0,0,31.66,84.15l.11.08v.14a16.56,16.56,0,0,0,2.54,9.42l.22.34-.39.05A12.7,12.7,0,0,1,32.76,94.25ZM10.67,40.78a21.66,21.66,0,0,0,7.66,38,1.15,1.15,0,0,1,.84,1.12,13.47,13.47,0,0,0,.25,2.75h0a13.57,13.57,0,0,0,14.26,11,17.06,17.06,0,0,1-2.42-9.24A37.93,37.93,0,0,1,15.74,54a36.87,36.87,0,0,1,.53-6A18.67,18.67,0,0,1,10.67,40.78ZM53.53,90A35.64,35.64,0,0,1,39.8,87.29l-.08,0,0-.08a31.94,31.94,0,0,1-3.46-14.55,32.33,32.33,0,0,1,46.5-29.11l.14.07v.16A52.3,52.3,0,0,1,81.8,54a11.21,11.21,0,0,1-4.92,7.35C71.16,65,62.79,63.09,62.7,63.08a.64.64,0,0,0-.76.48.63.63,0,0,0,.48.76,25.9,25.9,0,0,0,5.44.55,18.1,18.1,0,0,0,9.7-2.44,11.18,11.18,0,0,0,1.52-1.16l.82-.71-.42,1a36,36,0,0,1-9,13c-4.86,2.78-10.73,2.68-17-.26a35.64,35.64,0,0,1-8.23-5.41.64.64,0,0,0-.88.94c.36.33,8.71,8.09,18.38,8.09a17,17,0,0,0,3-.29l1.23-.22L65.85,78c-5.3,3.39-10.31,4.6-13.23,4.6a.64.64,0,0,0-.64.64.64.64,0,0,0,.64.64c9.81,0,25.68-9,30.25-29l.06-.21q.09-.3.15-.6V54a53.76,53.76,0,0,0,1-9.38v-.42l.37.2a32.36,32.36,0,0,1,4.34,3l.08,0v.1c.11.59.19,1.18.27,1.73a.73.73,0,0,0,0,.35l0,.13A35.48,35.48,0,0,1,89.55,54,36.06,36.06,0,0,1,53.53,90ZM40.08,86.87a35.36,35.36,0,0,0,48.7-37v0a1.1,1.1,0,0,1-.07-.58c-.07-.45-.14-1-.24-1.55a32.52,32.52,0,0,0-3.85-2.64,54,54,0,0,1-1,9,.65.65,0,0,1,0,.19c0,.21-.1.41-.16.62l0,.2C78.73,75.32,62.6,84.42,52.62,84.42a1.14,1.14,0,1,1,0-2.28c2.54,0,7.08-1,11.92-3.89a15.63,15.63,0,0,1-1.86.12c-9.87,0-18.36-7.89-18.72-8.23a1.14,1.14,0,1,1,1.56-1.66c.13.12,13.25,12.13,24.63,5.63a35.27,35.27,0,0,0,8.46-11.8,9.13,9.13,0,0,1-.78.54,18.31,18.31,0,0,1-10,2.52,26.6,26.6,0,0,1-5.55-.56,1.14,1.14,0,1,1,.51-2.22c.08,0,8.31,1.82,13.8-1.67a10.77,10.77,0,0,0,4.69-7,51.94,51.94,0,0,0,1-10A31.83,31.83,0,0,0,36.72,72.63,31.5,31.5,0,0,0,40.08,86.87Zm-2.18-.45-.62-.31a35.93,35.93,0,0,1-4.37-61.57l.45-.32-.06.55a28.14,28.14,0,0,0-.22,3.36c0,.35,0,.7,0,1.05v.19l0,.11c-.28,4.31-2,11.94-5.55,14.14a.61.61,0,0,0-.28.4.63.63,0,0,0,.08.48.65.65,0,0,0,.88.2c3-1.87,4.58-6.77,5.25-9.52l.24-1,.25,1a28.71,28.71,0,0,0,2.36,6.28.64.64,0,0,0,.86.27.63.63,0,0,0,.27-.86,27.46,27.46,0,0,1-2.67-17.44l0-.11.09-.06A35.88,35.88,0,0,1,88.31,44.82l.18.66-.56-.39a35.07,35.07,0,0,0-4-2.39,1.21,1.21,0,0,0-.25-.13,34.68,34.68,0,0,0-7.31-2.66l-.11,0,0-.1c-3.46-7-8.54-11.37-15.1-12.9l-.07,0a.62.62,0,0,0-.35-.11h-.12c-8.16-1.7-15.78,1.54-16.1,1.67A.64.64,0,0,0,45,29.59,28.51,28.51,0,0,1,56.6,27.45l.93,0-.83.44a14.36,14.36,0,0,0-7.4,11.65.65.65,0,0,0,.16.46.68.68,0,0,0,.45.21h0a.65.65,0,0,0,.67-.61c.29-5.83,5.05-11.25,10.17-11.61h.08c5.75,1.38,10.33,5.1,13.59,11l.24.45-.5-.09A34.12,34.12,0,0,0,68.6,39a33.64,33.64,0,0,0-31,46.82ZM32.74,25.27a35.43,35.43,0,0,0,4.17,60.08A34.13,34.13,0,0,1,68.6,38.47a33.31,33.31,0,0,1,5.13.4c-3.17-5.55-7.53-9-13-10.34-4.88.37-9.39,5.56-9.67,11.14a1.14,1.14,0,0,1-1.14,1.08h-.08a1.14,1.14,0,0,1-.77-.38,1.12,1.12,0,0,1-.29-.82,14.94,14.94,0,0,1,6.88-11.61h0a27.81,27.81,0,0,0-10.44,2.11A1.14,1.14,0,0,1,44.27,28c.34-.15,8.08-3.43,16.38-1.72a1.1,1.1,0,0,1,.62.15c6.67,1.57,11.83,6,15.34,13.05a34.56,34.56,0,0,1,7.26,2.66,1,1,0,0,1,.33.17,34.37,34.37,0,0,1,3.45,2,35.38,35.38,0,0,0-52.4-20.66,27.2,27.2,0,0,0-.39,4.5,26.85,26.85,0,0,0,3,12.51,1.14,1.14,0,0,1-.49,1.54,1.17,1.17,0,0,1-1.54-.49,29.21,29.21,0,0,1-2.15-5.47c-.8,2.9-2.4,7.14-5.23,8.91a1.18,1.18,0,0,1-1.58-.37,1.12,1.12,0,0,1-.14-.86,1.15,1.15,0,0,1,.51-.71c3.35-2.1,5-9.53,5.3-13.73a.84.84,0,0,1,0-.14V29.2c0-.36,0-.71,0-1.07A27.22,27.22,0,0,1,32.74,25.27ZM90.36,48.4l0-.34-.06-.36c0-.18,0-.35-.08-.53a.7.7,0,0,0,0-.27A37.19,37.19,0,0,0,34.22,22.17l-.09,0a.63.63,0,0,0-.44.26l-.07.07A37.61,37.61,0,0,0,17.15,45.93l-.09.41-.32-.27a16.76,16.76,0,0,1,10.9-29.5,16.5,16.5,0,0,1,3.38.35.66.66,0,0,0,.71-.35,26.24,26.24,0,0,1,47.22,0,.66.66,0,0,0,.71.35A16.57,16.57,0,0,1,83,16.57a16.75,16.75,0,0,1,7.63,31.67ZM53.53,16.22A37.85,37.85,0,0,1,90.62,46.77a1.36,1.36,0,0,1,0,.36c0,.13,0,.31.08.5h0a16.26,16.26,0,0,0-11-30.24,1.15,1.15,0,0,1-1.26-.61,25.74,25.74,0,0,0-46.32,0,1.17,1.17,0,0,1-1.26.62,15.54,15.54,0,0,0-3.28-.34A16.26,16.26,0,0,0,16.75,45.41,38.16,38.16,0,0,1,33.31,22.14a1.21,1.21,0,0,1,.69-.42A37.64,37.64,0,0,1,53.53,16.22Z"/></g></g></svg>