<svg xmlns="http://www.w3.org/2000/svg" viewBox="0 0 94.91 97.94"><defs><style>.cls-1{fill:none;}.cls-2{fill:#455e2b;}</style></defs><g id="Capa_2" data-name="Capa 2"><g id="Icons"><path class="cls-1" d="M34.09,26.16c-.37-.1-.73-.21-1.1-.33l.56.47Z"/><path class="cls-1" d="M51.12,14.56c-.13,0-.77,0-1.83,0A81.14,81.14,0,0,0,28.9,17a31.08,31.08,0,0,0,19.37,3.75A31,31,0,0,0,67.74,9.89,31,31,0,0,0,46.05,4.72,30.6,30.6,0,0,0,33.74,9.27,93.34,93.34,0,0,1,49,8c1.27,0,2.08,0,2.28,0h0a3.25,3.25,0,0,1-.19,6.5Z"/><path class="cls-1" d="M65.87,20.45a37.57,37.57,0,0,1-10.82,5.4,44.29,44.29,0,0,1,32.2,29.61,43.42,43.42,0,0,1,2,10.14,38,38,0,0,0,1.27-9.76C90.47,40.58,80.38,26.11,65.87,20.45Z"/><path class="cls-1" d="M62.44,35.43A37.94,37.94,0,0,0,33.71,33a3.28,3.28,0,0,1-3.33-.84A28.49,28.49,0,0,0,26.44,29a38.6,38.6,0,0,0-11.3,26.84A37.71,37.71,0,0,0,52.81,93.51c10.84,0,20.09-3.58,25.39-9.81,3.54-4.17,4-7.54,4.51-11.44A37.71,37.71,0,0,0,62.44,35.43Z"/><path class="cls-2" d="M69.1,17l-1.4-.61,1.09-1.07a34.61,34.61,0,0,0,4.45-5.35A1.17,1.17,0,0,0,73,8.37,35.29,35.29,0,0,0,50.2,0a34.4,34.4,0,0,0-4.76.33,35.27,35.27,0,0,0-23.83,14.5l-.16.22-.24.11a22.85,22.85,0,0,0-6.47,4.53l-.33.34-.48,0A25.18,25.18,0,0,0,.63,23,1.19,1.19,0,0,0,.14,24.6a1.24,1.24,0,0,0,1.61.48,23,23,0,0,1,10.88-2.81,24.68,24.68,0,0,1,10,2.26l1.34.6-1,1.06A43.26,43.26,0,0,0,10.71,55.84a42.14,42.14,0,0,0,42.1,42.1c12.15,0,22.63-4.14,28.77-11.37a21.68,21.68,0,0,0,5.26-11.86L87,74l.75-.12c2.41-.37,4.36-2.41,5.34-5.61a42,42,0,0,0,1.86-12.39C94.91,39.36,84.53,23.74,69.1,17ZM51.23,10.13h0c-.19,0-1,0-2.21,0a86.2,86.2,0,0,0-19.35,2.12l-4.15,1,3.23-2.8A32.74,32.74,0,0,1,69.85,8.86l.84.63-.64.83A33.08,33.08,0,0,1,48.55,22.8a31.84,31.84,0,0,1-4.46.31,33.25,33.25,0,0,1-18.24-5.55L24.1,16.4l2-.68c8.65-2.94,19.1-3.25,23.2-3.25,1.12,0,1.79,0,1.88,0a1.14,1.14,0,0,0,1.19-1.14A1.17,1.17,0,0,0,51.23,10.13ZM19.42,20.93l-2.14-.6,1.83-1.25a22.7,22.7,0,0,1,2.09-1.26l.6-.32.53.42a35.17,35.17,0,0,0,4.43,3l1.32.75-2.27,1.86-.61-.31A31.51,31.51,0,0,0,19.42,20.93ZM84.76,72.47v0c-.54,4-1.05,7.88-5,12.52-5.68,6.7-15.51,10.55-27,10.55A39.78,39.78,0,0,1,13.08,55.84,40.75,40.75,0,0,1,25.59,26.93l.59-.57.69.44a30.17,30.17,0,0,1,5,4,1.22,1.22,0,0,0,1.22.3A40,40,0,0,1,63.38,33.6,39.77,39.77,0,0,1,84.76,72.47Zm6-4.93A7,7,0,0,1,89,70.66l-1.78,1.6,0-2.39A42.11,42.11,0,0,0,49.73,27l-5.19-.55-5.08.71a41.49,41.49,0,0,0-5.88,1.24L33,28.6l-.43-.38a34.33,34.33,0,0,0-3.47-2.67L28,24.75l1.13-.87c.23-.19.48-.36.72-.54l.78-.56.53.21a35.33,35.33,0,0,0,8.33,2.16l5.1.68L49.67,25a35.36,35.36,0,0,0,15.42-6.55l.45-.33.53.19c15.58,5.81,26.47,21.25,26.47,37.53A39.76,39.76,0,0,1,90.79,67.54Z"/></g></g></svg>