<svg xmlns="http://www.w3.org/2000/svg" viewBox="0 0 45.37 99.83"><defs><style>.cls-1{fill:#8c6c2a;}</style></defs><g id="Capa_2" data-name="Capa 2"><g id="Icons"><rect class="cls-1" x="26.89" y="13.37" width="19.83" height="2.1" transform="translate(20.25 50.31) rotate(-86.64)"/><rect class="cls-1" x="7.91" y="4.49" width="2.1" height="19.85" transform="translate(-1.08 0.73) rotate(-4.38)"/><path class="cls-1" d="M22.8,9C17,9,7.15,8.09,7.15,4.52S17,0,22.8,0,38.44,1,38.44,4.52,28.6,9,22.8,9Zm0-6.94C14.47,2.1,9.62,3.69,9.24,4.58c.38.77,5.23,2.36,13.56,2.36S36,5.35,36.35,4.46C36,3.69,31.12,2.1,22.8,2.1Z"/><path class="cls-1" d="M22.67,99.83c-1,0-2.93,0-13-27.53C5,59.41,0,44.14,0,41.22,0,27.68,8.48,19.6,22.69,19.6s22.68,8.08,22.68,21.62c0,2.92-5,18.19-9.71,31.08C25.59,99.83,23.62,99.83,22.67,99.83Zm0-78.14C9.79,21.69,2.1,29,2.1,41.22,2.1,46.94,19,92.81,22.67,97.49c3.71-4.68,20.61-50.55,20.61-56.27C43.28,29,35.58,21.69,22.69,21.69Z"/><path class="cls-1" d="M26.89,86.29l-2-.64C25,85.32,35.4,53.21,37.11,43.54c1.59-9-8.29-15.27-8.39-15.33l1.1-1.79c.46.28,11.19,7,9.35,17.48C37.44,53.72,27.32,85,26.89,86.29Z"/></g></g></svg>