<svg xmlns="http://www.w3.org/2000/svg" viewBox="0 0 86.33 99.04"><defs><style>.cls-1{fill:#9b1b21;}</style></defs><g id="Capa_2" data-name="Capa 2"><g id="Icons"><path class="cls-1" d="M58.56,19.62a21.77,21.77,0,0,0-3.33.26c2.39-3,6.87-7.46,12.35-8a1.26,1.26,0,0,0,1.09-1,1.24,1.24,0,0,0-.54-1.34c-6-3.85-13.08-.64-17,1.85.79-2.75,2.42-6.8,5.55-9.09A1.25,1.25,0,0,0,56.13.11c-7.72-1.2-12,7.41-13.53,11.4C39.71,9.09,33.1,4,28.14,4h-.2a1.26,1.26,0,0,0-1.13.8,1.24,1.24,0,0,0,.3,1.34,55.76,55.76,0,0,1,6.21,7.1C28.76,12.4,21.1,11.6,17.66,15.2a1.27,1.27,0,0,0-.22,1.4,1.25,1.25,0,0,0,1.2.71,19.37,19.37,0,0,1,9.82,2.33l-.69,0C12.46,19.62,0,35.25,0,54.45,0,75,11.3,99,43.16,99c17.31,0,27.52-8.26,33-15.19a48.63,48.63,0,0,0,10.14-29.4C86.33,35.25,73.87,19.62,58.56,19.62Zm-30.79,2.5A20.37,20.37,0,0,1,36.33,24,16,16,0,0,0,50,24a20.37,20.37,0,0,1,8.56-1.91c13.93,0,25.27,14.5,25.27,32.33,0,30.88-24.32,42.09-40.67,42.09-30,0-40.66-22.67-40.66-42.09C2.5,36.62,13.83,22.12,27.77,22.12ZM37.11,16a1.22,1.22,0,0,0,.1-1.39A46.16,46.16,0,0,0,31.76,7.4c4.11,1.73,8.81,5.57,10.56,7.19a1.26,1.26,0,0,0,1.18.29,1.25,1.25,0,0,0,.86-.85c0-.1,2.78-9.09,8.19-11.12C48.83,7.56,48,13.9,48,14.2a1.26,1.26,0,0,0,2,1.12c.08-.07,6.91-5.64,13.2-4.89C56.87,13,52.53,19.12,51.45,20.78a24,24,0,0,0-2.5,1,13.55,13.55,0,0,1-11.57,0,25.43,25.43,0,0,0-2.7-1,27.44,27.44,0,0,0-11.15-5.51c4.22-.6,9.94.55,12.26,1.2A1.22,1.22,0,0,0,37.11,16Z"/><path class="cls-1" d="M43.16,92.06c14.81,0,23.55-7,28.28-12.84a40.31,40.31,0,0,0,8.67-24.87c0-8.7-3.07-16.91-8.43-22.53a1.21,1.21,0,0,0-.88-.38,1.23,1.23,0,0,0-.89.34,1.26,1.26,0,0,0-.39.88,1.28,1.28,0,0,0,.35.89c4.92,5.15,7.74,12.74,7.74,20.8,0,25.83-20.6,35.21-34.45,35.21a1.25,1.25,0,0,0,0,2.5Z"/></g></g></svg>