<svg xmlns="http://www.w3.org/2000/svg" viewBox="0 0 78.39 99.39"><defs><style>.cls-1{fill:none;}.cls-2{fill:#2e213c;}</style></defs><g id="Capa_2" data-name="Capa 2"><g id="Icons"><path class="cls-1" d="M8.22,15.19A136.12,136.12,0,0,0,21.93,26l1.34-1.1.15-.11,1.5-1A137.11,137.11,0,0,0,18.86,7.46,6,6,0,0,0,15,3.79a5.66,5.66,0,0,0-1.31-.16A7.6,7.6,0,0,0,9.17,5.26,6.94,6.94,0,0,0,6,10.34,6,6,0,0,0,8.22,15.19Z"/><path class="cls-1" d="M28.59,21.69c.93-.5,1.8-.93,2.65-1.31.45-4.66-1-12.1-3.31-14.29-1.48-1.39-4.11-1.77-5.5-.81l0,0c.08.16.16.31.23.48A140.62,140.62,0,0,1,28.59,21.69Z"/><path class="cls-1" d="M69.7,73l-.13-.33a12.27,12.27,0,0,1-3.68,2.76,2,2,0,0,1-.9.21,2.07,2.07,0,0,1-2-2.74,2,2,0,0,1,1-1.18,8.3,8.3,0,0,0,3.39-3.07,1.93,1.93,0,0,1,.36-.41A252.19,252.19,0,0,0,57.16,45c-1.83,1.94-6,6-10.48,7.42a1.9,1.9,0,0,1-.63.11,2.07,2.07,0,0,1-.64-4c3.38-1.1,7.19-4.49,9.67-7.34-2.64-4.79-5.29-9.24-8.11-13.59-2.16-3.35-4.72-5-7.83-5-4.25,0-9.14,2.91-13.38,5.64-7.36,6-13.46,12.12-7.1,19.93,1.62,2,3.37,4.06,5.5,6.49A18.86,18.86,0,0,0,29,51.27a2.13,2.13,0,0,1,2.93,0,2.07,2.07,0,0,1,.58,1.47,2,2,0,0,1-.63,1.45A22.86,22.86,0,0,1,27,57.82,249.94,249.94,0,0,0,55.6,84.37c7.28,5.87,16,10.2,19.17,11.18.06-3.35-1.38-13-4.72-21.68C69.94,73.56,69.82,73.26,69.7,73ZM31.51,39.18a56.37,56.37,0,0,1-10.44,7,2.06,2.06,0,0,1-2.78-.89,2,2,0,0,1-.14-1.58,2.1,2.1,0,0,1,1-1.21A51.44,51.44,0,0,0,28.84,36h0a2.14,2.14,0,0,1,2.92.25A2.08,2.08,0,0,1,31.51,39.18Zm4.62-5-1.3,1.56a2.07,2.07,0,0,1-1.59.74A2.11,2.11,0,0,1,31.91,36a2.08,2.08,0,0,1-.25-2.92L33,31.55a2.07,2.07,0,0,1,1.41-.71,2,2,0,0,1,1.5.46,2.1,2.1,0,0,1,.73,1.41A2,2,0,0,1,36.13,34.21ZM61.22,65.33a2,2,0,0,1-.82,1.35l-1.08.79a2.13,2.13,0,0,1-1.22.39,2.08,2.08,0,0,1-.89-.21,2.1,2.1,0,0,1-.39,1.78,18.29,18.29,0,0,1-8,5.71,1.87,1.87,0,0,1-.71.13,2.07,2.07,0,0,1-.71-4,14.23,14.23,0,0,0,6.17-4.43,2.14,2.14,0,0,1,2.49-.56,2.07,2.07,0,0,1,.79-2.15L58,63.33a2.1,2.1,0,0,1,2.88.46A2,2,0,0,1,61.22,65.33Zm8,18.45a6.65,6.65,0,0,1-4.82,4.13A2,2,0,0,1,64,88a2.07,2.07,0,0,1-1.73-3.2,2,2,0,0,1,1.31-.89,2.54,2.54,0,0,0,1.8-1.55,2.06,2.06,0,0,1,1.09-1.14,2.09,2.09,0,0,1,1.57-.07,2.07,2.07,0,0,1,1.16,1.09A2,2,0,0,1,69.27,83.78Z"/><path class="cls-1" d="M18.73,28.81A142.49,142.49,0,0,1,5.46,18.27c-.14-.12-.26-.25-.38-.37l0,0h0C3.63,19,3.22,21.46,4.13,23.4c1.34,2.88,8,6.52,12.51,7.54C17.27,30.24,18,29.54,18.73,28.81Z"/><path class="cls-2" d="M29.17,36.4a53.31,53.31,0,0,1-9.77,6.52A1.57,1.57,0,0,0,18.73,45a1.59,1.59,0,0,0,2.11.67,55.41,55.41,0,0,0,10.35-6.91,1.57,1.57,0,0,0,.19-2.2A1.61,1.61,0,0,0,29.17,36.4Z"/><path class="cls-2" d="M34.56,31.33h-.14a1.58,1.58,0,0,0-1.07.53L32,33.43a1.57,1.57,0,0,0,.2,2.21,1.59,1.59,0,0,0,2.2-.19l1.31-1.56a1.58,1.58,0,0,0-.19-2.21A1.6,1.6,0,0,0,34.56,31.33Z"/><path class="cls-2" d="M54,67.15a14.79,14.79,0,0,1-6.39,4.58,1.57,1.57,0,0,0-.93,2,1.59,1.59,0,0,0,2,.93,17.79,17.79,0,0,0,7.75-5.55,1.58,1.58,0,0,0-.24-2.21,1.6,1.6,0,0,0-2.2.24Z"/><path class="cls-2" d="M59,67.06l1.09-.79a1.57,1.57,0,0,0,.34-2.19,1.59,1.59,0,0,0-1-.61l-.26,0a1.49,1.49,0,0,0-.9.29l-1.08.78a1.57,1.57,0,0,0-.35,2.19A1.61,1.61,0,0,0,59,67.06Z"/><path class="cls-2" d="M67.89,81.58a1.6,1.6,0,0,0-.53-.09,1.7,1.7,0,0,0-.66.14,1.57,1.57,0,0,0-.83.87,3.07,3.07,0,0,1-2.17,1.86,1.51,1.51,0,0,0-1,.68,1.54,1.54,0,0,0-.22,1.18A1.57,1.57,0,0,0,64,87.46a1.24,1.24,0,0,0,.33,0A6.15,6.15,0,0,0,68.8,83.6a1.52,1.52,0,0,0,0-1.2A1.56,1.56,0,0,0,67.89,81.58Z"/><path class="cls-2" d="M50,25.57c-2.85-4.41-6.51-6.64-10.89-6.64a15.22,15.22,0,0,0-3.87.53l-.32.08v-.33c.17-5.51-1.49-12.92-4.54-15.77a8.82,8.82,0,0,0-6-2.38,7.24,7.24,0,0,0-4.11,1.23.79.79,0,0,0-.12.13l-.09.1L20,2.7l-.18-.18A8.86,8.86,0,0,0,15.86.27,9,9,0,0,0,13.66,0,11.24,11.24,0,0,0,7,2.31a10.48,10.48,0,0,0-4.71,7.81,8.82,8.82,0,0,0,.92,4.44l.11.23-.23.11L3,15,2.85,15c-2.8,2.14-3.67,6.4-2,9.92,1.77,3.77,8.28,7.63,13.55,9.17l.32.1-.18.28c-3.45,5.4-3,10.61,1.32,15.93C26.6,63.65,38.16,75,53.32,87.2c8.53,6.87,18.95,11.88,22.11,12.18h.2a2.31,2.31,0,0,0,2.55-1.94l.07-.22c.67-3.07-1-14.8-4.8-24.66C66.51,54.38,59.29,39.88,50,25.57ZM22,5l.12,0,.08,0c1.59-1.11,4.45-.71,6.12.86,2.54,2.37,4,10.06,3.45,14.85v.14l-.14.06c-.95.42-1.94.91-3,1.5l-.27.15-.09-.3A140.27,140.27,0,0,0,22.18,6c-.08-.18-.17-.36-.26-.53l-.2-.39ZM8.88,4.85a7.49,7.49,0,0,1,6.19-1.54,6.52,6.52,0,0,1,4.25,3.94,140.16,140.16,0,0,1,6.14,16.62l.05.19-.16.1c-.56.34-1.11.69-1.65,1l-.13.09L22.1,26.51l-.14.12-.16-.11a137.47,137.47,0,0,1-13.91-11,6.48,6.48,0,0,1-2.44-5.25A7.46,7.46,0,0,1,8.88,4.85ZM3.67,23.61c-1-2.14-.52-4.87,1.08-6.09l0-.06.09-.1.18-.19.29.31.43.42A143.81,143.81,0,0,0,19.27,28.58l.25.17L19.3,29c-.89.84-1.67,1.63-2.38,2.42l-.1.11-.14,0C12,30.45,5.13,26.72,3.67,23.61ZM75.26,95.89l0,.31L75,96.12c-3-.79-12.08-5.25-19.66-11.36A250.71,250.71,0,0,1,26.42,57.92l-.21-.23.28-.16a22.16,22.16,0,0,0,5-3.65h0a1.57,1.57,0,0,0,.48-1.1,1.55,1.55,0,0,0-.44-1.11,1.61,1.61,0,0,0-2.22,0,19.9,19.9,0,0,1-5.12,3.52l-.17.08-.13-.14c-2.19-2.5-4-4.61-5.64-6.64C11.62,40.28,17.88,34,25.46,27.8c4.33-2.79,9.29-5.74,13.68-5.74,3.29,0,6,1.71,8.25,5.21,2.86,4.41,5.54,8.91,8.21,13.77l.09.15-.12.13c-2.52,2.93-6.47,6.48-10,7.63a1.55,1.55,0,0,0-.91.77,1.56,1.56,0,0,0,1.88,2.21c4.53-1.47,8.86-5.77,10.51-7.55l.24-.25.16.31A251.25,251.25,0,0,1,68.36,68.2l.07.18-.15.11a1.41,1.41,0,0,0-.38.4,9,9,0,0,1-3.6,3.25,1.54,1.54,0,0,0-.72,2.09,1.61,1.61,0,0,0,2.09.73A12,12,0,0,0,69.47,72l.27-.31.15.38.27.7.36.91C74,82.78,75.43,92.82,75.26,95.89Z"/></g></g></svg>