<svg xmlns="http://www.w3.org/2000/svg" viewBox="0 0 80.86 110.14"><defs><style>.cls-1{fill:#2e213c;}</style></defs><g id="Capa_2" data-name="Capa 2"><g id="Icons"><path class="cls-1" d="M67.44,25.11a19.18,19.18,0,0,0-5.41.23,11.57,11.57,0,0,0-6.64-5.63A14.15,14.15,0,0,0,43.5,21.05C41.81,15.2,42.39,6.26,43,2.13a1,1,0,0,0-.13-.66,3.35,3.35,0,0,0-4-1.26,9.32,9.32,0,0,0-4,3.23,1.08,1.08,0,0,0-.17.76c0,.16,1.88,11.42-.38,19.29l-.59-.29c-2.24-1.06-9.73-3.92-14.62,2.16a18.93,18.93,0,0,0-5.64-.25C3.87,26-2,32.09.61,58.55c2.9,29.82,13.16,47.26,21.58,47.26h.41A14.84,14.84,0,0,0,29,104a13,13,0,0,0,11.42,6.11,14.45,14.45,0,0,0,12.21-5.91,12.34,12.34,0,0,0,5.64,1.57h.37c8.43,0,18.72-17.46,21.62-47.26C82.82,32.09,77,26,67.44,25.11ZM36.73,4.3a6.86,6.86,0,0,1,2.73-2.15,1.48,1.48,0,0,1,1.43.15C40.41,6,38.56,23.41,45.51,27.66A9.33,9.33,0,0,0,45,29.28a12,12,0,0,0-1.89-.18,20.53,20.53,0,0,0-11,2.93c-.19-.2-.4-.41-.64-.63C39.6,25.78,37.22,7.48,36.73,4.3Zm3.68,103.79c-4.43,0-7.78-1.94-10.22-6,0,0,0,0,0,0s0,0,0,0a28.8,28.8,0,0,1-3-7.81,1,1,0,0,0-1.24-.75,1,1,0,0,0-.75,1.25,32.5,32.5,0,0,0,2.81,7.53,12.74,12.74,0,0,1-5.48,1.48c-8.21.61-17.36-20.23-19.81-45.4C.23,33.5,5.05,28,13.61,27.15a14,14,0,0,1,9.28,1.93A1,1,0,1,0,24,27.35,14.45,14.45,0,0,0,21.2,26c3.84-3.95,9.3-2,11.59-.95a8.69,8.69,0,0,1,.78.4,8.78,8.78,0,0,1-4.41,4.94l-.11.08a.91.91,0,0,0-.19.13,1.09,1.09,0,0,0-.13.17.6.6,0,0,0-.09.13s0,0,0,0a1.17,1.17,0,0,0-.05.2,1.48,1.48,0,0,0,0,.19,1.1,1.1,0,0,0,0,.16.93.93,0,0,0,0,.23s0,0,0,0l0,.05a.94.94,0,0,0,.29.34l.11.08.07.06a5.08,5.08,0,0,1,1.31,1,17.86,17.86,0,0,0-5.64,9.38,1,1,0,1,0,2,.53c2.78-10.45,11.4-12,16.29-12,3,0,6.09,1.53,8.64,4.33,3.6,4,9.33,13.9,7.27,36.17C56.53,98.22,51.49,108.09,40.41,108.09Zm37.8-49.74c-2.44,25.12-11.43,45.91-19.82,45.4a10.12,10.12,0,0,1-4.61-1.23c4.07-6.58,6-17.15,7.25-30.68,2.13-23.06-4-33.54-7.8-37.74A15.6,15.6,0,0,0,47,29.79a9.21,9.21,0,0,1,2.43-4.14A1,1,0,1,0,48,24.12a10.27,10.27,0,0,0-1.51,1.76A6.42,6.42,0,0,1,44.22,23a12.33,12.33,0,0,1,10.49-1.35A9.64,9.64,0,0,1,60,25.87a15.34,15.34,0,0,0-7.44,5.55,1,1,0,1,0,1.64,1.23c3.18-4.24,7.44-6,13-5.5C75.81,28,80.63,33.5,78.21,58.35Z"/><path class="cls-1" d="M72.65,77.37a1,1,0,0,0-1.27.69c-4,13.46-8.22,20.45-13,21.35a1,1,0,0,0,.2,2l.19,0c5.64-1.08,10.25-8.31,14.53-22.78A1,1,0,0,0,72.65,77.37Z"/><path class="cls-1" d="M22.91,99.42c-4.44-1-8.41-6.26-10.61-14a1,1,0,0,0-2,.57c2.41,8.44,6.94,14.21,12.11,15.41a1,1,0,0,0,.24,0,1,1,0,0,0,.23-2Z"/></g></g></svg>