<svg xmlns="http://www.w3.org/2000/svg" viewBox="0 0 117.57 103.85"><defs><style>.cls-1{fill:#9b1b21;}</style></defs><g id="Capa_2" data-name="Capa 2"><g id="Icons"><path class="cls-1" d="M83,19.87V16.05a3.88,3.88,0,0,0-4-3.67H70.14a1,1,0,0,1-1.08-.9V3.66A3.88,3.88,0,0,0,65,0H52.57a3.88,3.88,0,0,0-4.06,3.66v7.82a1,1,0,0,1-1.08.9H38.65a3.88,3.88,0,0,0-4,3.67v3.82C14.48,24,0,41.28,0,61.39c0,23.41,19.62,42.46,43.72,42.46A44.91,44.91,0,0,0,56.58,102,7.65,7.65,0,0,1,61,102a45.08,45.08,0,0,0,12.85,1.86c24.11,0,43.72-19,43.72-42.46C117.57,41.28,103.09,24,83,19.87ZM70.14,15.14h8.78a1,1,0,0,1,1.08.91V27.11a1,1,0,0,1-1.08.91H70.14a3.88,3.88,0,0,0-4.06,3.66v7.81A1,1,0,0,1,65,40.4H52.57a1,1,0,0,1-1.08-.91V31.68A3.88,3.88,0,0,0,47.43,28H38.65a1,1,0,0,1-1.08-.91V16.05a1,1,0,0,1,1.08-.91h8.78a3.88,3.88,0,0,0,4.06-3.66V3.66a1,1,0,0,1,1.08-.9H65a1,1,0,0,1,1.08.9v7.82A3.88,3.88,0,0,0,70.14,15.14ZM38.65,30.78h8.78a1,1,0,0,1,1.08.9v7.81a3.89,3.89,0,0,0,4.06,3.67H65a3.89,3.89,0,0,0,4.06-3.67V31.68a1,1,0,0,1,1.08-.9h8.78a3.88,3.88,0,0,0,4-3.67V22.7c18.43,4.09,31.62,20.09,31.62,38.69,0,21.89-18.28,39.7-40.74,39.7a41.63,41.63,0,0,1-11.93-1.73,10.94,10.94,0,0,0-6.26,0,41.7,41.7,0,0,1-11.94,1.73C21.26,101.09,3,83.28,3,61.39c0-18.6,13.19-34.6,31.62-38.7v4.42A3.88,3.88,0,0,0,38.65,30.78Z"/><path class="cls-1" d="M58.79,13.44c-5,0-9.09,3.65-9.09,8.14s4.07,8.14,9.09,8.14,9.08-3.65,9.08-8.14S63.8,13.44,58.79,13.44Zm6.11,8.14c0,3-2.74,5.38-6.11,5.38s-6.12-2.42-6.12-5.38,2.75-5.38,6.12-5.38S64.9,18.61,64.9,21.58Z"/></g></g></svg>