<svg xmlns="http://www.w3.org/2000/svg" viewBox="0 0 84.39 116.25"><defs><style>.cls-1{fill:#2e213c;}</style></defs><g id="Capa_2" data-name="Capa 2"><g id="Icons"><path class="cls-1" d="M21.8,49.42a1.32,1.32,0,0,0-.7.2C14.63,53.48,10.24,62.31,9.91,72.11a33.53,33.53,0,0,0,1,9.6,1.38,1.38,0,0,0,1.64,1,1.36,1.36,0,0,0,1-1.65,31.44,31.44,0,0,1-.93-8.84c.3-8.9,4.18-16.86,9.88-20.26a1.36,1.36,0,0,0-.69-2.52Z"/><path class="cls-1" d="M45.56,32l-1.85-.14L43.92,30A43.17,43.17,0,0,1,51.34,9.77a2.86,2.86,0,0,0-.64-4,2.94,2.94,0,0,0-4,.64,46,46,0,0,0-7.5,17.15l-1.08,4.83L35.85,24C27.65,8.08,20.37,0,14.2,0,10.58,0,8.26,2.9,7.46,4.61A13,13,0,0,0,6.31,16.13c2.12,5.6,8.48,11.25,18.39,16.35L28,34.17,24.63,35.7A42.2,42.2,0,1,0,45.56,32ZM8.19,15.42a11,11,0,0,1,1-9.79l.07-.16C9.42,5.16,11,2,14.2,2h0c3.52.05,11.23,4.06,23.51,30.46l.2.41-.18,2.9-2.3-.7C24.86,31,11.53,24.21,8.19,15.42Zm34,98.82A40.18,40.18,0,0,1,30.41,35.65l.62-.19.6.25c1.92.81,3.69,1.49,5.2,2l1.06.39L38,39.48a2.87,2.87,0,0,0,3.17,2.59,2.87,2.87,0,0,0,2.54-3.17c0-.06-.12-1.22-.13-3.07v-2l1.95.16a40.17,40.17,0,0,1-3.35,80.21Z"/><path class="cls-1" d="M73.92,76.17A2.11,2.11,0,1,0,76,78.27,2.1,2.1,0,0,0,73.92,76.17Z"/><path class="cls-1" d="M41.22,102.15a2.11,2.11,0,1,0,2.11,2.1A2.1,2.1,0,0,0,41.22,102.15Z"/><path class="cls-1" d="M61.4,94.91A2.11,2.11,0,1,0,63.51,97,2.1,2.1,0,0,0,61.4,94.91Z"/><path class="cls-1" d="M66.1,70.62a2.11,2.11,0,1,0,2.1,2.1A2.1,2.1,0,0,0,66.1,70.62Z"/><path class="cls-1" d="M66.1,51.1a2.11,2.11,0,1,0,2.1,2.1A2.1,2.1,0,0,0,66.1,51.1Z"/><path class="cls-1" d="M51.12,89.48a2.11,2.11,0,1,0,2.11,2.1A2.1,2.1,0,0,0,51.12,89.48Z"/></g></g></svg>