<svg xmlns="http://www.w3.org/2000/svg" viewBox="0 0 93.6 109.85"><defs><style>.cls-1{fill:#2e213c;}</style></defs><g id="Capa_2" data-name="Capa 2"><g id="Icons"><path class="cls-1" d="M80.93,49.22A15.16,15.16,0,0,0,79.4,43,12.89,12.89,0,0,0,59,39.94a17,17,0,0,0-4-10.66C72.39,18.07,80.45,20.5,83.14,22.1a7.3,7.3,0,0,1,1.44,1.12,11.3,11.3,0,0,0-3.33,0,9.27,9.27,0,0,0-7.75,6.35A7.08,7.08,0,0,0,75,36.87c1,.9,3.11,2.2,6.76.8A10.37,10.37,0,0,0,88.6,28.9a9.77,9.77,0,0,0,0-1.71,8.88,8.88,0,0,1,2.23,3.16,8.14,8.14,0,0,1-2.36,9.83,1,1,0,0,0,1.22,1.64c4.3-3.19,4.62-8.45,3-12.26a10.43,10.43,0,0,0-5-5.38,9.08,9.08,0,0,0-3.57-3.84c-3.75-2.22-12.66-4.15-30.34,7.26a9.55,9.55,0,0,1,1.51-7.93,1,1,0,0,0-1.62-1.25A11.32,11.32,0,0,0,52,28.64c-2.25.94-4.71.44-7.07-.37,3.2-1.16,7.41-4.05,7.26-11.23C52.06,8.87,43.76,6,43.41,5.85a1,1,0,0,0-1,.18,1,1,0,0,0-.38.91,10,10,0,0,1,0,2.39c-.18-.36-.38-.91-.53-1.31-.81-2.24-2-5.62-6.43-7C29-1,18.11.62,17.65.69a1,1,0,0,0-.76.54,8.29,8.29,0,0,0,.86,8.16,6.85,6.85,0,0,0-3.88-.12c-.31,0-7.61.84-13.73,11.53a1,1,0,0,0-.12.7C2.35,33.6,9,36.73,9.11,36.76A7.26,7.26,0,0,0,12.93,38H13a8.3,8.3,0,0,0-3.45,7.45,1,1,0,0,0,.54.75c.36.19,7.85,4.06,14,5.11a12.89,12.89,0,0,0,9.54,21.6c.41,0,.83,0,1.25-.08a12.9,12.9,0,0,0,8.92,20.92,12.91,12.91,0,1,0,25.17.7,12.87,12.87,0,0,0,12.17-9.24A12.73,12.73,0,0,0,78.4,73c.16,0,.32,0,.48,0a12.65,12.65,0,0,0,6-1.53A12.07,12.07,0,0,0,90,55.21,11.7,11.7,0,0,0,80.93,49.22Zm5.63-20.49a8.35,8.35,0,0,1-5.52,7c-2,.76-3.55.62-4.62-.38a5.12,5.12,0,0,1-1-5.17,7.16,7.16,0,0,1,6.12-4.93,9.83,9.83,0,0,1,1.59-.13,8.15,8.15,0,0,1,3,.55A6.81,6.81,0,0,1,86.56,28.73ZM62.85,39.6A10.9,10.9,0,0,1,77.61,44a13.24,13.24,0,0,1,1.28,5.21A12.48,12.48,0,0,0,67.4,58.77,13,13,0,0,0,58,53.19,10.9,10.9,0,0,1,62.85,39.6ZM55.76,53.17a12.64,12.64,0,0,0-9.32,5.11A12.75,12.75,0,0,0,45,53.81a12.91,12.91,0,0,0-8.19-6.35,10.84,10.84,0,0,1,19.81-4.28A13,13,0,0,0,55.76,53.17Zm-4.23,3.32a10.89,10.89,0,0,1,14.75,4.37,10.73,10.73,0,0,1,.94,7.85A12.88,12.88,0,0,0,57,76.2a12.77,12.77,0,0,0-11-8.15A10.88,10.88,0,0,1,51.53,56.49ZM49.39,31.2a8.76,8.76,0,0,0,3.81-.86,15.13,15.13,0,0,1,3.77,10,12.94,12.94,0,0,0-11.06-4,11.91,11.91,0,0,0-1.68-6.13A16.11,16.11,0,0,0,49.39,31.2ZM11.54,44.65a6.6,6.6,0,0,1,3.12-5.33A22.27,22.27,0,0,1,18.92,37c1.21-.51,2-.86,2.25-1.69a1.69,1.69,0,0,0-.3-1.47c-1.18-1.74-3.22-.39-4.7.61A14.07,14.07,0,0,1,14,35.76c-1.69.69-3.67-.66-3.85-.76s-5.85-2.84-8-13.51C7.62,12.1,14,11.31,14.25,11.27c0,0,2.33-.64,3.71.56a14,14,0,0,1,1.65,1.92c1.09,1.42,2.57,3.36,4.25,2.1a1.69,1.69,0,0,0,.76-1.3c0-.87-.6-1.45-1.57-2.33a22.39,22.39,0,0,1-3.3-3.54,6.59,6.59,0,0,1-1.22-6c2.31-.3,11-1.29,15.95.3,3.44,1.11,4.38,3.7,5.14,5.78.46,1.29.87,2.41,1.86,2.85a1.65,1.65,0,0,0,1.71-.15,3.79,3.79,0,0,0,1-3c2.13,1.12,5.89,3.79,6,8.64.19,8.81-7.32,9.81-8.61,9.91-2.39-.9-4.7-1.63-6.92-2.23-.08-2.57-.74-10.75-5.87-15.29a1,1,0,0,0-1.44.08A1,1,0,0,0,27.42,11c4.14,3.67,5,10.4,5.15,13.22A65.47,65.47,0,0,0,11,22.39a1,1,0,0,0-.89,1.14,1,1,0,0,0,1.14.89,66.92,66.92,0,0,1,23.55,2.51A19.63,19.63,0,0,1,22.65,40.05a1,1,0,0,0,.76,1.9A21.67,21.67,0,0,0,36.79,27.52c1.33.41,2.68.86,4.05,1.38.65.73,3.35,4.05,3,7.85a12.84,12.84,0,0,0-9,10.38c-.38,0-.76-.08-1.15-.08a13,13,0,0,0-6.16,1.57,14.12,14.12,0,0,0-1.3.88C21,49.17,13.56,45.64,11.54,44.65ZM33.65,70.86a10.87,10.87,0,0,1-6.91-19.29,1,1,0,0,0,.91-.62c.27-.17.51-.38.8-.53a10.88,10.88,0,1,1,5.2,20.44ZM44,68h-.26c.08-.1.14-.22.21-.32C44,67.83,44,67.93,44,68Zm-8.56,18A10.88,10.88,0,1,1,54.55,75.71,10.88,10.88,0,1,1,35.43,86.09Zm26.11,20.4A10.86,10.86,0,0,1,46,93.77a13.1,13.1,0,0,0,5.21-1.51,12.82,12.82,0,0,0,5.57-6.07,11.28,11.28,0,0,0,.68,1.51,12.9,12.9,0,0,0,9.46,6.61A10.88,10.88,0,0,1,61.54,106.49ZM79.2,84.63A10.77,10.77,0,0,1,74,91.1a10.93,10.93,0,0,1-5.18,1.32c-.31,0-.61,0-.91-.06l-.17,0a10.86,10.86,0,1,1,11.5-7.71Zm-9.82-16c0-.09,0-.19.05-.28l.26.3Zm14.53,1a10.6,10.6,0,0,1-5,1.29,9.73,9.73,0,0,1-8.61-5,10,10,0,0,1,4.31-13.46,10.48,10.48,0,0,1,5-1.29,9.75,9.75,0,0,1,8.62,5A10,10,0,0,1,83.91,69.65Z"/></g></g></svg>