<svg xmlns="http://www.w3.org/2000/svg" viewBox="0 0 100.04 99.07"><defs><style>.cls-1{fill:#8c6c2a;}</style></defs><g id="Capa_2" data-name="Capa 2"><g id="Icons"><path class="cls-1" d="M26.73,80.3A16.28,16.28,0,0,1,38.42,68.48c5.53-1.57,11.14-.32,14.63,3.25,1.81,1.85,3.28,3,4.53,2.29s1.15-2.77.75-4.91A12.36,12.36,0,0,0,49.54,60c-2.6-.74-3.38-1.56-3.43-1.93s.26-.64,1-1.07c3.18-2,13.25-3.19,22.09,2.87C71.63,61.59,73,61.43,73.8,61a2,2,0,0,0,1-2c-.18-2.66-4.07-7-12.21-10.33l-1.48-.58c-.45-.17-.93-.36-1.3-.52.45-.26,1.13-.6,2-1,3.23-1.49,6.3-1.28,9.86-1,.94.07,1.9.13,2.89.17,2.14.06,4.62-.07,4.87-1.85.36-2.52-5.44-5-7.91-5.62A26.11,26.11,0,0,0,67,37.55c.41-.4.94-.9,1.51-1.43,1-.91,2.25-2.09,3.84-3.62A2.14,2.14,0,0,0,73,30.29a2.77,2.77,0,0,0-2.36-1.8c-1.62-.27-6,.12-12.47,9.1a27.68,27.68,0,0,1-3.25,4,15.62,15.62,0,0,1,.48-2.49c1.49-5.84,0-15.37-2.17-17.19a1.53,1.53,0,0,0-1.65-.3c-.87.38-1.71,1.49-2,7.07-.15,3-2.39,12.46-3.83,15.12a23,23,0,0,1-.46-4,16,16,0,0,0-4.37-10.66c-1.72-2-2.91-1.92-3.61-1.52-1.29.74-1.35,2.85-.16,6.44,3.53,10.65-4.44,24.59-11.55,30.55l-.51.44c-1.67,1.42-3.57,3-8.78,4.49A11.66,11.66,0,0,0,12,68.62c-3.42,0-9.35,2.31-11.22,5.93-1.14,2.19-1,5,.38,8.11a27.77,27.77,0,0,0,4.76,7c4.06,4.5,8.87,7.4,12.25,7.4a4.75,4.75,0,0,0,2.27-.53c8.09-4.36,7.83-10.83,7-14.29A14.51,14.51,0,0,0,26.73,80.3Zm-.29-13.65.49-.42c7.28-6.11,16.2-20.76,12.21-32.82a10.15,10.15,0,0,1-.74-3.76,5.11,5.11,0,0,1,.93.88,14,14,0,0,1,3.86,9.4c.25,4.79.88,6.5,2.38,6.5h0c3.49,0,6-16.73,6.08-17.68a21.42,21.42,0,0,1,.57-4.66c1,2.19,2.42,9.26,1.09,14.46-.85,3.36-.74,4.88.41,5.42s2.51-.14,6.11-5.16c5.3-7.41,9.2-8.63,10.65-8.2.35.1.47.27.43.38-1.57,1.52-2.83,2.69-3.8,3.6-2.62,2.42-3.24,3-2.89,4s1.22,1,2.47,1.05a23.65,23.65,0,0,1,4.33.63,14.79,14.79,0,0,1,6.19,3.17,8.33,8.33,0,0,1-2.56.17c-1,0-1.91-.1-2.83-.16-3.68-.26-7.17-.5-10.88,1.22-2.66,1.23-3.83,1.89-3.79,3s1.15,1.58,3.16,2.36c.44.16.92.35,1.45.57,8.46,3.43,11.19,7.75,11,8.55-.16.06-.94,0-2.42-1C61.35,52,50.4,52.5,46,55.24c-1.9,1.17-2,2.46-1.93,3.13.21,1.56,1.87,2.79,4.92,3.67,3.67,1.05,6.68,4.12,7.31,7.46A10.14,10.14,0,0,1,56.51,72a10.53,10.53,0,0,1-2-1.7c-4-4.12-10.43-5.58-16.7-3.8A18.49,18.49,0,0,0,25.38,77.58a20.79,20.79,0,0,0-6.44-6.65A20.06,20.06,0,0,0,26.44,66.65ZM23,92.13A10.11,10.11,0,0,0,22.27,89C20.83,85.12,14.78,76,10.62,76h0a1.05,1.05,0,0,0,0,2.1h0c2.51,0,8.16,7.54,9.68,11.58a6.26,6.26,0,0,1,.44,3.75,1,1,0,0,0,0,.46c-.41.27-.83.53-1.3.78-2.25,1.21-7.76-1.76-12-6.43a26,26,0,0,1-4.4-6.46c-.78-1.75-1.5-4.26-.44-6.29,1.36-2.62,6.24-4.77,9.45-4.8,5.26,0,11.71,5.86,13.27,12A9.42,9.42,0,0,1,23,92.13Z"/><path class="cls-1" d="M7.31,66.67a2.42,2.42,0,0,0,.38,0c3.13-.36,16.09-6.45,17.58-12.85.39-1.67.16-4.1-3.11-6.21-.37-.23-1-.66-1.67-1.17-.51-.37-1.28-.94-1.88-1.42.68,0,1.56,0,2.43-.06a12.9,12.9,0,0,1,4.42.65c1,.29,1.86.54,2.63,0,1-.74,1-2.12,1.14-7.26a2.23,2.23,0,0,0-.77-1.6c-1.95-2-8.13-4.51-10.41-4.51h-.27a15,15,0,0,1,1.51-.49c3.18-.85,7.09-1.63,7.42-1.66a1.13,1.13,0,0,0,1.05-.79,11.61,11.61,0,0,0,.3-3.93c-.09-1.45-.11-1.89,1.82-3a22.34,22.34,0,0,1,6.85-2c1.74-.29,2.38-.4,2.74-1a1.2,1.2,0,0,0,.09-1c-1.48-4.12-9.52-5.05-13.39-5.25a21.81,21.81,0,0,1,6-.87c2.74,0,6.73.55,9.4,3.35.79.83,3.4,2.51,5.16,1.81A2.15,2.15,0,0,0,48,15.31a6,6,0,0,0-2.86-5.05c-.32-.23-.57-.42-.77-.58,2,.16,6.3,1.31,8,2.55a19.18,19.18,0,0,1,1.51,1.19c1.69,1.44,2.34,1.64,5.75.72l.39,0a28.38,28.38,0,0,0,2.85-.34,8.43,8.43,0,0,1,5.81.78,1,1,0,1,0,.82-1.93c-3.46-1.47-4.92-1.24-7-.92a26.28,26.28,0,0,1-2.66.31l-.59.06c-2.88.76-2.94.7-4.06-.26-.42-.35-.93-.79-1.66-1.31C51.4,9,44.49,6.9,42.5,7.82A1.45,1.45,0,0,0,41.61,9c-.08.89.59,1.74,2.31,3a4,4,0,0,1,2,3.34c0,.14,0,.21,0,.23a4.7,4.7,0,0,1-2.83-1.32c-5.75-6-16.54-3.93-19.87-2.08-1,.57-1.46,1.23-1.27,2,.3,1.13,1.75,1.13,2.3,1.13,4.1,0,10.62.83,12.77,3l-.59.1a24.15,24.15,0,0,0-7.53,2.19c-2.88,1.6-3,2.93-2.89,4.92a10.48,10.48,0,0,1-.1,2.62c-1.64.29-5,1-7.12,1.62s-4.65,1.59-4.45,3.13,2.35,1.48,3.39,1.48h.36c2.28,0,8.62,3,9.09,4a36.72,36.72,0,0,1-.31,5.53l-.8-.21a15.21,15.21,0,0,0-5-.73c-3.64,0-4.86.06-5.24,1.23s.83,2.09,3.47,4c.74.54,1.4,1,1.79,1.25,2.72,1.74,2.33,3.41,2.2,4C22,58.43,9.94,64.28,7.45,64.57c-1.3.15-2.72-2.5-3.94-7.46C2.41,52.59,2.35,45.81,3.36,37,4.77,24.54,10.55,14.74,20.09,8.64,30.83,1.77,45.54.18,58.46,4.47a1.06,1.06,0,0,0,1.33-.67,1,1,0,0,0-.67-1.32C45.61-2,30.23-.32,19,6.88,8.87,13.32,2.76,23.65,1.27,36.74c-1,9.08-1,16.11.21,20.87C2.52,61.86,4.12,66.67,7.31,66.67Z"/><path class="cls-1" d="M83,10.24l-.8-.76c-4.94-4.72-15.3-8.32-18-8.32a1.39,1.39,0,0,0-1.54,1c-.23,1,.56,1.73,3.4,3.18,8.74,4.47,14.35,8.23,12.55,19.28-.5,3,2,5.36,4.67,7.79s5.76,5.27,6.08,9.2a5.48,5.48,0,0,0,2,3.51,6,6,0,0,1,2.26,5.07c0,2,.29,7.88,1.7,9.31a1.48,1.48,0,0,0,1.07.48c1.32,0,2.11-1.56,3-5.93C102.66,37.83,93.17,20,83,10.24ZM97.33,53.61a26.46,26.46,0,0,1-.89,3.45,29.6,29.6,0,0,1-.73-6.85,8.14,8.14,0,0,0-2.86-6.59c-.87-.86-1.35-1.39-1.42-2.2-.39-4.75-3.77-7.85-6.75-10.58-2.33-2.13-4.34-4-4-5.9C82.52,13.52,77,8.8,69.07,4.54,72.87,5.9,77.82,8.23,80.72,11l.8.75C91.32,21.1,100.45,38.19,97.33,53.61Z"/><path class="cls-1" d="M93.89,64a1,1,0,0,0-1.07,1c0,1.17-.13,2.49-.33,4.42-1,10.2-9.46,18.89-23.1,23.83-14.25,5.16-31,4.89-36.67-.6a6.14,6.14,0,0,1-1.42-6.84c1.45-4.33,6.06-3.7,13.5-2.15,5.66,1.18,11.52,2.4,15.21-.63a37.83,37.83,0,0,0,3-3.21q0,.34-.06.75c-.13,1.15-.33,3.08,2,3.73,2,.55,3.11-1.88,4-3.82.17-.36.38-.83.59-1.21a22,22,0,0,1,.67,2.85c.09.5.37,2,1.63,2.18S74,83.41,75,80.87c1.15-2.7.86-3.91.35-5.2a4.79,4.79,0,0,1,0-3.69c.08-.29.24-.83.35-1.13l.68.17c.43.11,1,.25,1.64.39,3.42.68,5.86.22,7.27-1.38,1.64-1.87,1.68-5,.12-9.53-.46-1.34-.64-2-.77-2.43a16.7,16.7,0,0,0-1.51-3.48,7.28,7.28,0,0,1,3.2,2.26c.32.64.87,1.43,1.66,1.51a1.09,1.09,0,0,0,1-.42.92.92,0,0,0,0-1,60.42,60.42,0,0,1-.52-7.44,1.08,1.08,0,0,0-1.08-1,1.06,1.06,0,0,0-1,1.08c0,1.12.1,3,.22,4.68-1.59-1.26-3.9-2.29-5.11-1.69-.24.12-1.38.81-.48,2.62a17.81,17.81,0,0,1,1.57,3.52c.13.45.32,1.14.8,2.53,1.25,3.67,1.35,6.25.29,7.46s-3.48,1.08-5.28.71c-.63-.13-1.13-.25-1.53-.36-2.37-.62-2.89,0-3.58,2.43a6.8,6.8,0,0,0,.1,5c.34.86.58,1.48-.32,3.61a14.52,14.52,0,0,1-.8,1.6c-.66-3.58-1.28-4.85-2.44-5-1.31-.14-2,1.22-2.77,3-.38.82-1.17,2.53-1.56,2.69-.57-.16-.65-.18-.51-1.48a4.35,4.35,0,0,0-1-3.89,1.05,1.05,0,0,0-.93-.28,1.07,1.07,0,0,0-.78.59,33.15,33.15,0,0,1-3.67,4.19c-2.92,2.4-8.28,1.28-13.45.2-6.77-1.42-13.77-2.88-15.92,3.53a8.21,8.21,0,0,0,2,9c3.32,3.25,9.84,4.9,17.49,4.9a64.2,64.2,0,0,0,21.36-3.83C84.53,90,93.45,80.69,94.58,69.65c.2-2,.3-3.35.33-4.57A1.05,1.05,0,0,0,93.89,64Z"/></g></g></svg>