<svg xmlns="http://www.w3.org/2000/svg" viewBox="0 0 60.68 86.57"><defs><style>.cls-1{fill:none;}.cls-2{fill:#455e2b;}</style></defs><g id="Capa_2" data-name="Capa 2"><g id="Icons"><path class="cls-1" d="M19.23,59.32a26,26,0,0,1-5.44-.56,3.5,3.5,0,0,0,.62,2.71h0a9.67,9.67,0,0,0,5.41,2.14A7.41,7.41,0,0,1,19.23,59.32Z"/><path class="cls-1" d="M46.5,39.71a9.05,9.05,0,0,1-1.55,0,11.47,11.47,0,0,1,.63,3.06,6.68,6.68,0,0,1-.79,3.82c1.93.2,4.19.11,5.13-.67a1.21,1.21,0,0,0,.45-1.09,5.25,5.25,0,0,0-1.6-4.12A5.14,5.14,0,0,0,46.5,39.71Z"/><path class="cls-1" d="M44.11,36.75c.2,0,.43,0,.69,0a11.64,11.64,0,0,1,1.75.13A3.15,3.15,0,0,0,48,36.28a2.11,2.11,0,0,0,.7-1.73c0-1.77-1.17-2.93-3.75-3.61a6.54,6.54,0,0,1,.22,1.72A8.67,8.67,0,0,1,44.11,36.75Z"/><path class="cls-1" d="M42.84,27.76A3.58,3.58,0,0,0,45.18,27c.07-.08.28-.34.1-1.06-.46-1.82-3.14-2.35-4.91-2.51a6.13,6.13,0,0,1-.13,2.95A10.16,10.16,0,0,1,42.84,27.76Z"/><path class="cls-1" d="M45,49.49a7.45,7.45,0,0,1-1.37,6.92c3.45-.3,5.72-1.15,6.26-2.37a4.32,4.32,0,0,0-.81-4.73A14.32,14.32,0,0,1,45,49.49Z"/><path class="cls-1" d="M18.07,27.76a8.71,8.71,0,0,1,1.78-1.05,5.79,5.79,0,0,1-.25-3.27c-1.75.18-3.77.77-4.2,2.48-.17.69,0,.92.1,1A4,4,0,0,0,18.07,27.76Z"/><path class="cls-1" d="M14.13,36.86a11.16,11.16,0,0,1,2.68-.09,8.72,8.72,0,0,1-1.1-4.11A6.61,6.61,0,0,1,16,30.87c-2.76.68-4,1.85-4,3.68a2.11,2.11,0,0,0,.71,1.73A3.06,3.06,0,0,0,14.13,36.86Z"/><path class="cls-1" d="M22.82,26.18l.14.11.07.05a2.84,2.84,0,0,0,.34.22l.24.11.17.07a4,4,0,0,0,.52.17c.44.11.93.21,1.45.29l.09,0c.63.09,1.25.16,1.88.2a20.65,20.65,0,0,0,2.18,0H30a22.38,22.38,0,0,0,5.67-.56,3.81,3.81,0,0,0,.51-.17l.25-.1.11-.06a2.75,2.75,0,0,0,.57-.4l.15-.14.15-.19a3.2,3.2,0,0,0,.1-2.36c-.43-1.69-4.71-2.26-7.45-2.1h-.15c-2.75-.15-7,.42-7.45,2.1a3.11,3.11,0,0,0,.1,2.36A2,2,0,0,0,22.82,26.18Z"/><path class="cls-1" d="M20,36.39c1.7,1.57,4.79,1.52,8.37,1.47,1.36,0,2.79,0,4.14,0,3.6,0,6.69.1,8.39-1.47a5.58,5.58,0,0,0,1.48-3.73,3.22,3.22,0,0,0-1-2.45,7.27,7.27,0,0,0-3-1.47,6.51,6.51,0,0,1-2.09.9c-.26.07-.51.12-.77.17l-.14,0-.78.14-.75.11-.13,0-.7.07-.7.06c-1.31.09-2.24.05-2.41.05h-.75a26.09,26.09,0,0,1-3.41-.24,21.52,21.52,0,0,1-2.2-.42l-.52-.15-.44-.16a6.79,6.79,0,0,1-.81-.39,6.67,6.67,0,0,0-2.32,1.27,3.21,3.21,0,0,0-1,2.45A5.53,5.53,0,0,0,20,36.39Z"/><path class="cls-1" d="M30.34,83.08c2.2-.89,23.32-9.8,26.4-26.2,2.12-11.32-3-29.86-7.42-38.35-2.91-5.64-10.6-6.48-14.93-6.48h-.76a2.71,2.71,0,0,1-2-.84,2.77,2.77,0,0,1-.75-2.05l.31-5.72H29.5l.31,5.72a2.77,2.77,0,0,1-.75,2.05,2.69,2.69,0,0,1-2,.84h-.81c-4.33,0-12,.84-14.93,6.48C7,27,1.82,45.56,3.94,56.88,7,73.28,28.14,82.19,30.34,83.08ZM9.13,34.6c0-2.69,1.38-4.65,4.23-5.83l0-.06a3.79,3.79,0,0,1-.64-3.47c1.1-4.42,6.68-4.69,8.54-4.69,2.68-2.18,7.78-2,8.79-2s6-.2,8.73,2c2,0,8.17.25,9.28,4.71a3.85,3.85,0,0,1-.64,3.52l0,0c2.83,1.19,4.24,3.14,4.19,5.82a4.92,4.92,0,0,1-1.46,3.62,5.43,5.43,0,0,1,.5.38,7.93,7.93,0,0,1,2.61,6.23,4,4,0,0,1-1.46,3.3,7.13,7.13,0,0,1,.73,7.06,5.58,5.58,0,0,1-2.83,2.65c.2,1.55.23,4.19-1.48,5.73-2.86,2.56-6.81,2.95-8.91,2.95h-.48c-2.72,2-7.41,2.07-8.33,2.07h-.18c-1.26,0-5.53-.15-8.11-2.08l-.7,0c-2.1,0-6.05-.39-8.91-2.95-1.71-1.54-1.68-4.18-1.48-5.73a5.58,5.58,0,0,1-2.83-2.65A7.13,7.13,0,0,1,9,48.13a4,4,0,0,1-1.46-3.3A7.93,7.93,0,0,1,10.1,38.6a5.43,5.43,0,0,1,.5-.38A4.92,4.92,0,0,1,9.13,34.6Z"/><path class="cls-1" d="M41.64,39.32c-1.92,1.14-4.29,1.37-7.25,1.37l-1.9,0c-1.34,0-2.73,0-4.05,0-3.56.06-6.91.11-9.41-1.5A5.6,5.6,0,0,0,17.2,43c-.27,3.62,3.37,4.59,4.94,4.84a67.72,67.72,0,0,0,7.84.46,67.72,67.72,0,0,0,7.84-.46c1.58-.25,5.21-1.22,5-4.84A7.7,7.7,0,0,0,41.64,39.32Z"/><path class="cls-1" d="M15.73,53.15a8.68,8.68,0,0,1,.08-3.66,14.89,14.89,0,0,1-4.21-.18A4.3,4.3,0,0,0,10.79,54c.55,1.24,3,2.12,6.51,2.39A7.87,7.87,0,0,1,15.73,53.15Z"/><path class="cls-1" d="M35.25,60.43H25.66A10.87,10.87,0,0,1,22,59.79,4.57,4.57,0,0,0,23.56,64c1.61,1.51,5.6,1.76,6.87,1.73h.17c1.52,0,5.22-.3,6.76-1.73a4.58,4.58,0,0,0,1.54-4.24A10.83,10.83,0,0,1,35.25,60.43Z"/><path class="cls-1" d="M41.68,59.32a7.29,7.29,0,0,1-.57,4.26,9.59,9.59,0,0,0,5.15-2.11,3.45,3.45,0,0,0,.63-2.71A26,26,0,0,1,41.68,59.32Z"/><path class="cls-1" d="M38.26,50.64a67.54,67.54,0,0,1-8.28.49,67.32,67.32,0,0,1-8.27-.49,12.08,12.08,0,0,1-3.06-.91,6,6,0,0,0-.15,2.89c.46,2.41,3.45,5,7.16,5h9.59c3.71,0,6.7-2.58,7.16-5A5.43,5.43,0,0,0,42,49.39,11.52,11.52,0,0,1,38.26,50.64Z"/><path class="cls-1" d="M15.2,46.7a6.71,6.71,0,0,1-.81-3.88,8.84,8.84,0,0,1,.77-3,8.18,8.18,0,0,1-1-.06,5.18,5.18,0,0,0-2.28,1,5.28,5.28,0,0,0-1.59,4.12A1.21,1.21,0,0,0,10.76,46C11.48,46.57,13.08,46.83,15.2,46.7Z"/><path class="cls-2" d="M9.3,47.75l.07.06.3.21-.16.21A6.56,6.56,0,0,0,8.69,55a5.17,5.17,0,0,0,2.75,2.47l.17.08,0,.19c-.21,1.42-.32,4,1.28,5.46C15.6,65.64,19.41,66,21.44,66l.77,0h.09l.08.06c2.51,1.93,7,2,7.87,2h.17c.9,0,5.52,0,8.1-2l.07-.06h.65c2,0,5.83-.36,8.56-2.82,1.61-1.44,1.5-4,1.29-5.46l0-.19.17-.08A5.21,5.21,0,0,0,52,55a6.54,6.54,0,0,0-.83-6.75L51,48l.29-.21.08-.06a3.54,3.54,0,0,0,1.29-2.91A7.43,7.43,0,0,0,50.25,39a6,6,0,0,0-.73-.53l-.31-.19.28-.23A4.34,4.34,0,0,0,51,34.59c0-2.54-1.37-4.38-4.21-5.47L46.44,29l.29-.28c.08-.09.16-.17.24-.27a3.36,3.36,0,0,0,.54-3.07c-1-4.16-7.08-4.34-8.87-4.31h-.09L38.47,21c-2.56-2.14-7.88-1.93-8.47-1.9s-6-.25-8.53,1.92l-.08.06h-.1c-1.63,0-7.09.17-8.12,4.29a3.3,3.3,0,0,0,.54,3,2.68,2.68,0,0,0,.28.3l.29.29-.38.14C11,30.19,9.6,32,9.65,34.59a4.31,4.31,0,0,0,1.54,3.46l.27.23-.3.19a5.34,5.34,0,0,0-.73.53A7.4,7.4,0,0,0,8,44.84,3.54,3.54,0,0,0,9.3,47.75Zm1,6.5a4.93,4.93,0,0,1,1-5.4l.11-.11.14,0a14.23,14.23,0,0,0,4.56.17l.38,0-.1.36a8.13,8.13,0,0,0-.16,3.8,7.56,7.56,0,0,0,1.84,3.49l.42.47-.62,0C15.92,56.87,11.27,56.39,10.32,54.25ZM37.9,48.36a65.42,65.42,0,0,1-7.92.47,65.42,65.42,0,0,1-7.92-.47C20.35,48.1,16.39,47,16.68,43a6.12,6.12,0,0,1,2.17-4.34l.15-.12.16.11c2.38,1.63,5.73,1.57,9.27,1.52,1.33,0,2.73,0,4,0l1.91,0c3,0,5.34-.25,7.19-1.42l.21-.13.14.19A8.1,8.1,0,0,1,43.28,43C43.58,47,39.62,48.1,37.9,48.36Zm5,4.36c-.5,2.61-3.71,5.41-7.67,5.41H25.66c-4,0-7.16-2.8-7.67-5.41a6.42,6.42,0,0,1,.27-3.44l.1-.27.26.13a11,11,0,0,0,3.17,1,68.17,68.17,0,0,0,8.19.49,68.07,68.07,0,0,0,8.19-.49A10.41,10.41,0,0,0,42,48.8l.24-.14.13.25A6.06,6.06,0,0,1,42.92,52.72ZM20.23,64.17a10.55,10.55,0,0,1-6.16-2.31h0c-.88-.79-.86-2.5-.77-3.45l0-.29.29.07a26.08,26.08,0,0,0,5.88.62h.32l0,.31a6.86,6.86,0,0,0,.69,4.67l.23.42Zm17.48.24c-2.07,1.93-7.2,1.87-7.28,1.87h-.21c-1.5,0-5.36-.32-7-1.87a5.13,5.13,0,0,1-1.65-5l.07-.29.28.11a10.28,10.28,0,0,0,3.75.71h9.59A10.28,10.28,0,0,0,39,59.2l.28-.11.07.29A5.14,5.14,0,0,1,37.71,64.41Zm8.9-2.55a10.37,10.37,0,0,1-5.92,2.28l-.48,0,.23-.43a6.81,6.81,0,0,0,.68-4.64l-.06-.31h.31a26.07,26.07,0,0,0,5.69-.62l.29-.07,0,.29C47.49,59.57,47.44,61.11,46.61,61.86Zm3.75-7.61c-.9,2-5,2.57-7.31,2.72l-.62,0,.41-.47a7,7,0,0,0,1.55-7.26l-.12-.37.39,0a14.3,14.3,0,0,0,4.45-.18l.15,0,.1.11A4.9,4.9,0,0,1,50.36,54.25Zm.53-9.38a1.74,1.74,0,0,1-.64,1.5,6.41,6.41,0,0,1-3.77.87,16.68,16.68,0,0,1-2.15-.13l-.41,0,.23-.35a6.16,6.16,0,0,0,.91-3.87,11.07,11.07,0,0,0-.73-3.28l-.15-.38.41,0a11.07,11.07,0,0,0,1.9,0h.08a5.58,5.58,0,0,1,2.54,1.17A5.76,5.76,0,0,1,50.89,44.87ZM49.24,34.56a2.56,2.56,0,0,1-.89,2.12,3.68,3.68,0,0,1-1.76.7h-.08a10.77,10.77,0,0,0-2.69-.09L44,38.76l-.64-.92c-.07-.11-.14-.2-.21-.29l-.11-.16.17-.23.06-.08.11-.17a8.32,8.32,0,0,0,1.27-4.25,6.09,6.09,0,0,0-.34-2l-.15-.44.45.1C45.8,30.59,49.3,31.4,49.24,34.56Zm-9.57-8.13a5.65,5.65,0,0,0,.12-3.24l-.07-.34.34,0c2.31.15,5.18.78,5.72,2.93a1.61,1.61,0,0,1-.19,1.51c-.65.8-2.19.94-2.83,1h-.09l-.08-.07a9.76,9.76,0,0,0-2.77-1.46l-.25-.08ZM22,23.37c.59-2.36,6.1-2.6,8-2.49H30c1.92-.1,7.42.13,8,2.49a3.61,3.61,0,0,1-.16,2.75,2,2,0,0,1-.18.23l-.21.2a2.89,2.89,0,0,1-.68.49l-.12.06-.3.13c-.18.06-.36.13-.57.18a22.68,22.68,0,0,1-5.15.59h-.72c-.24,0-1.1,0-2.23,0a19,19,0,0,1-1.9-.21h0l-.11,0c-.54-.08-1-.19-1.5-.3-.2-.05-.39-.12-.57-.18l-.21-.08L23.18,27a3.79,3.79,0,0,1-.46-.29l-.07-.05-.14-.11a1.93,1.93,0,0,1-.39-.47A3.57,3.57,0,0,1,22,23.37Zm-.17,5,.12,0,.1.06a4.64,4.64,0,0,0,.8.41l.43.16.5.14a20.35,20.35,0,0,0,2.14.41,22.38,22.38,0,0,0,3.45.23H30a21.9,21.9,0,0,0,2.31,0l.71-.06c.24,0,.47,0,.71-.08h.11l.71-.1c.28,0,.52-.09.77-.14l.17,0,.75-.17a6.07,6.07,0,0,0,2-.89l.1-.07.12,0a7.86,7.86,0,0,1,3.28,1.62,3.71,3.71,0,0,1,1.16,2.83,6.08,6.08,0,0,1-1.64,4.11c-1.85,1.71-5,1.66-8.73,1.6-1.36,0-2.78,0-4.13,0l-1.91,0c-2.88,0-5.31-.21-6.83-1.62A6.14,6.14,0,0,1,18,32.66a3.71,3.71,0,0,1,1.16-2.83A7.52,7.52,0,0,1,21.79,28.41ZM14.9,25.8c.53-2.12,3-2.75,5-2.91l.34,0-.07.34a5.31,5.31,0,0,0,.25,3.51l.12.25-.25.1a8.75,8.75,0,0,0-2,1.16l-.07.06h-.1c-.38,0-2.32-.13-3-1A1.57,1.57,0,0,1,14.9,25.8Zm-3.47,8.76c0-3.24,3.64-4,4.85-4.3l.46-.09-.16.44a6.09,6.09,0,0,0-.35,2,8.1,8.1,0,0,0,1.37,4.41l.13.19-.17.15-.29.27-.56.55.15-.94a11.31,11.31,0,0,0-2.69.09h-.08a3.78,3.78,0,0,1-1.76-.69A2.64,2.64,0,0,1,11.43,34.56Zm.14,5.81a5.58,5.58,0,0,1,2.54-1.17h.08a11,11,0,0,0,1.39,0l.44,0-.21.4a8.15,8.15,0,0,0-.91,3.22,6.08,6.08,0,0,0,1,3.93l.24.37-.43,0c-.43,0-.95.06-1.5.06a6.33,6.33,0,0,1-3.74-.88,1.74,1.74,0,0,1-.64-1.5A5.76,5.76,0,0,1,11.57,40.37Z"/><path class="cls-2" d="M.55,57.52C4.14,76.67,28.27,86,29.3,86.37a2.92,2.92,0,0,0,2.08,0c1-.39,25.16-9.71,28.75-28.86,2.29-12.24-3-31.42-7.74-40.57-2.72-5.27-8.93-8.23-17.5-8.35h-.53l.29-5.51a2.87,2.87,0,0,0-.8-2.17A2.9,2.9,0,0,0,31.72,0H29A2.94,2.94,0,0,0,26,3.09l.3,5.51h-.54C17.22,8.72,11,11.68,8.29,17,3.57,26.1-1.74,45.28.55,57.52Zm9.89-39.46c3.16-6.13,11.28-7,15.85-7h.78a1.7,1.7,0,0,0,1.24-.52,1.73,1.73,0,0,0,.47-1.28l-.37-6.81h3.86L31.9,9.23a1.73,1.73,0,0,0,.47,1.28,1.68,1.68,0,0,0,1.21.52h.81c4.56,0,12.69.91,15.85,7,4.56,8.84,9.7,27.31,7.51,39-3.33,17.79-27,27-27.23,27l-.18.07-.19-.07c-.23-.08-23.89-9.25-27.23-27C.73,45.37,5.88,26.9,10.44,18.06Z"/></g></g></svg>