<svg xmlns="http://www.w3.org/2000/svg" viewBox="0 0 107.83 107.83"><defs><style>.cls-1{fill:none;}.cls-2{fill:#455e2b;}</style></defs><g id="Capa_2" data-name="Capa 2"><g id="Icons"><path class="cls-1" d="M48.78,72.09a4,4,0,0,0-.38-2.74A3.12,3.12,0,0,0,48,68.8a3.54,3.54,0,0,0-1.31-1,5.15,5.15,0,0,0-3.82,0l-.13.05a7.14,7.14,0,0,0-2.05,1.22c-.2.17-.38.34-.56.52a6,6,0,0,0-1.87,4.58,3.61,3.61,0,0,0,.82,2,3.9,3.9,0,0,0,3.07,1.32A5.72,5.72,0,0,0,44,77.3a7.43,7.43,0,0,0,2.41-1.36c.09-.07.17-.15.29-.26a7.4,7.4,0,0,0,1.16-1.36A6.12,6.12,0,0,0,48.78,72.09Zm-1-.19A5.15,5.15,0,0,1,47,73.76,6.53,6.53,0,0,1,46,75l-.21.19a6.4,6.4,0,0,1-2.07,1.17,3.49,3.49,0,0,1-3.79-.69,2.57,2.57,0,0,1-.58-1.47,5,5,0,0,1,1.58-3.77l.48-.45a6.14,6.14,0,0,1,1.77-1l.13,0A4.85,4.85,0,0,1,45,68.52a3.29,3.29,0,0,1,1.35.27,2.39,2.39,0,0,1,.93.68,3.19,3.19,0,0,1,.26.38A3.12,3.12,0,0,1,47.77,71.9Z"/><path class="cls-1" d="M29.74,50.46l.82.42.12.07a6.48,6.48,0,0,0,1.41.36,6.77,6.77,0,0,0,1,.07,7.94,7.94,0,0,0,2.54-.44c2.56-.92,4.15-3.08,3.77-5.2a3.55,3.55,0,0,0-1-1.8,5.83,5.83,0,0,0-4.63-1.53,6.76,6.76,0,0,0-1,.13A7,7,0,0,0,29.68,44,4.24,4.24,0,0,0,28,48,3.79,3.79,0,0,0,29.74,50.46Zm.6-5.67A6.06,6.06,0,0,1,33,43.55a6.39,6.39,0,0,1,.85-.11l.44,0a4.67,4.67,0,0,1,3.38,1.24A2.53,2.53,0,0,1,38.4,46c.29,1.56-1,3.23-3.1,4a5.82,5.82,0,0,1-.93.26,6.67,6.67,0,0,1-2.13.07A4.78,4.78,0,0,1,31,50c-.28-.16-.55-.29-.75-.38A2.8,2.8,0,0,1,29,47.83,3.21,3.21,0,0,1,30.34,44.79Z"/><path class="cls-1" d="M34.84,60.15a7.91,7.91,0,0,1,.81-.19l.57-.1-.17-.56a7.36,7.36,0,0,0-.62-1.48,6.07,6.07,0,0,0-5-3.39,3.52,3.52,0,0,0-1.73.43c-2.14,1.19-2.62,4.44-1.06,7.25a7.22,7.22,0,0,0,2.17,2.44l.52.36.25-.58a8.29,8.29,0,0,1,1.84-2.75A6,6,0,0,1,34.84,60.15Zm-4.9,3.17a6.26,6.26,0,0,1-1.37-1.71c-1.28-2.31-1-4.93.66-5.84a2.44,2.44,0,0,1,1.23-.31,5.09,5.09,0,0,1,4.06,2.86,5.17,5.17,0,0,1,.36.75l-.34.09a7.06,7.06,0,0,0-2.81,1.68A9.23,9.23,0,0,0,29.94,63.32Z"/><path class="cls-1" d="M35.21,40.55l.11.19.21,0a5.63,5.63,0,0,1,2,.92,6.8,6.8,0,0,1,1.79,1.88l.12.18.2,0a6.24,6.24,0,0,0,1.48.18,5,5,0,0,0,.87-.07,4.58,4.58,0,0,0,1.14-.34,3.57,3.57,0,0,0,1.44-1.22,3.37,3.37,0,0,0,.32-.59,4.12,4.12,0,0,0,0-3,6.81,6.81,0,0,0-2.66-3.38,9.57,9.57,0,0,0-1.22-.68c-2.35-1-5-.59-6.09,1a4.23,4.23,0,0,0,0,4.4C35.07,40.31,35.14,40.43,35.21,40.55Zm.65-4.18c.85-1.24,2.91-1.53,4.82-.68a6.41,6.41,0,0,1,1.06.59A5.77,5.77,0,0,1,44,39.13a3.08,3.08,0,0,1,0,2.24,2.1,2.1,0,0,1-.22.42,2.49,2.49,0,0,1-1,.86,3.63,3.63,0,0,1-.88.27,4.62,4.62,0,0,1-1.73-.06,8.14,8.14,0,0,0-1.94-2,7,7,0,0,0-2.2-1s-.05-.08-.07-.13A3.25,3.25,0,0,1,35.86,36.37Z"/><path class="cls-1" d="M39.73,67.58a8.52,8.52,0,0,1,1.2-.75l.23-.12.05-.24c.45-2.34-.36-4.48-2.06-5.33a3.1,3.1,0,0,0-.67-.24,4.17,4.17,0,0,0-2.92.41,6.84,6.84,0,0,0-3,3.12l-.14.33a7.27,7.27,0,0,0-.57,2.16,4.46,4.46,0,0,0,2.15,4.69A3.42,3.42,0,0,0,35.6,72h.32l.28,0,.13-.25a14,14,0,0,1,1.3-2A11.16,11.16,0,0,1,39.73,67.58ZM36.82,69a14.36,14.36,0,0,0-1.26,1.91,2.53,2.53,0,0,1-1.06-.24A3.5,3.5,0,0,1,32.93,67a6.41,6.41,0,0,1,.5-1.88c0-.08.07-.17.11-.25A5.77,5.77,0,0,1,36,62.23a3.41,3.41,0,0,1,1.56-.4,2.73,2.73,0,0,1,.64.07,2.17,2.17,0,0,1,.49.18c1.2.6,1.79,2.17,1.52,4a9,9,0,0,0-1.13.72A12.29,12.29,0,0,0,36.82,69Z"/><path class="cls-1" d="M76.94,64.14l-.26-.06a5.71,5.71,0,0,1-4.17-3.53l-.1-.24-.25-.06a6.59,6.59,0,0,0-2-.19A4,4,0,0,0,67,61.79s-.05.1-.1.19l-.46.83,1-.07a7.21,7.21,0,0,1,1.46,0,6,6,0,0,1,2.59,1l.21.16a9.72,9.72,0,0,1,2.93,4c.13.31.25.62.36.94l.21.62.55-.34a3.65,3.65,0,0,0,1.12-1.09A4,4,0,0,0,77,64.4Zm-1,3.37a3.17,3.17,0,0,1-.28.36c-.05-.12-.09-.23-.14-.34a10.82,10.82,0,0,0-3.32-4.42L72,63a7.08,7.08,0,0,0-3-1.21l-.53,0a3.32,3.32,0,0,1,1.77-.62,5.34,5.34,0,0,1,1.42.1,7.09,7.09,0,0,0,1.63,2.28A7.26,7.26,0,0,0,76.17,65,2.88,2.88,0,0,1,76,67.51Z"/><path class="cls-1" d="M74.52,62.11a3.76,3.76,0,0,0,2.56.94,5.39,5.39,0,0,0,2-.41,7.2,7.2,0,0,0,2.63-1.86,6.85,6.85,0,0,0,1.81-3.84,4,4,0,0,0-1.17-3.45,3.76,3.76,0,0,0-2.57-.94,6.51,6.51,0,0,0-4.63,2.27,7,7,0,0,0-1.76,3.51A4.09,4.09,0,0,0,74.52,62.11Zm-.1-3.62a6,6,0,0,1,1.5-3,5.51,5.51,0,0,1,3.87-1.92,2.73,2.73,0,0,1,1.87.66,3,3,0,0,1,.84,2.58A5.77,5.77,0,0,1,81,60.09a6.27,6.27,0,0,1-2.25,1.59,3.35,3.35,0,0,1-3.49-.33A3.11,3.11,0,0,1,74.42,58.49Z"/><path class="cls-1" d="M71.74,66.66a8.08,8.08,0,0,0-.86-1A5.93,5.93,0,0,0,67,63.81h-.17a3.67,3.67,0,0,0-1.78.44l-.33.2a1.33,1.33,0,0,0-.17.14,3.93,3.93,0,0,0-1.4,2.77,5.17,5.17,0,0,0,0,1,7.07,7.07,0,0,0,1.2,3.24l.09.13a6.81,6.81,0,0,0,3.62,2.67,4.55,4.55,0,0,0,1.25.18A3.59,3.59,0,0,0,71.47,74a3.51,3.51,0,0,0,1.15-1.37,5.24,5.24,0,0,0,.25-3.51A7.56,7.56,0,0,0,71.74,66.66Zm0,5.49a2.47,2.47,0,0,1-.82,1,2.93,2.93,0,0,1-2.49.32,5.82,5.82,0,0,1-3-2.28l-.42.3h0l.32-.45a6,6,0,0,1-1-2.72,4.74,4.74,0,0,1,0-.84,2.87,2.87,0,0,1,1-2.07l-.33-.4h0l.44.31a1.49,1.49,0,0,1,.24-.14,2.61,2.61,0,0,1,1.28-.32H67a5,5,0,0,1,3.15,1.54,5.89,5.89,0,0,1,.74.87,6.29,6.29,0,0,1,1,2.09A4.2,4.2,0,0,1,71.69,72.15Z"/><path class="cls-1" d="M70,29.58a11.44,11.44,0,0,0-4,1.06,21.78,21.78,0,0,0,.19-4.26,15.06,15.06,0,0,0-.72-4.27,3.08,3.08,0,0,0-.33-.59,2.43,2.43,0,0,0-2.45-1c-.15,0-.33.1-.5.14A15.88,15.88,0,0,0,58.63,22a21.13,21.13,0,0,0-3.8,2.47q-.72-.87-1.53-1.68a15.84,15.84,0,0,0-3.42-2.66,2.39,2.39,0,0,0-.59-.19,2.6,2.6,0,0,0-1.89.29,2.4,2.4,0,0,0-.64.59,15.32,15.32,0,0,0-2,3.85A20.7,20.7,0,0,0,43.52,30a2.41,2.41,0,0,0-2.42,1.49,19.12,19.12,0,0,0-6.27-1.13,15.41,15.41,0,0,0-4.31.39,2.43,2.43,0,0,0-1.81,2.64,15.1,15.1,0,0,0,1.19,4.16c.26.62.54,1.22.84,1.79a2.4,2.4,0,0,0-1.19,1.16l-.08,0A18.76,18.76,0,0,0,24,44.38a15.38,15.38,0,0,0-2.73,3.36,2.43,2.43,0,0,0,.63,3.14A13.24,13.24,0,0,0,23.62,52a20.54,20.54,0,0,0-.26,2.19A18.63,18.63,0,0,0,24,60.83a10.46,10.46,0,0,0,3,4.91,7.35,7.35,0,0,0,1.83,1.16,20.18,20.18,0,0,0-.07,5.68,15.55,15.55,0,0,0,1,4.21,2.48,2.48,0,0,0,2.88,1.4c.17,0,.35-.1.54-.16,0,.44-.08.85-.09,1.24a2.41,2.41,0,0,0,2.06,2.45,15.62,15.62,0,0,0,4.32,0,20,20,0,0,0,5.66-1.52,19.35,19.35,0,0,0,4.62,4.24,15.53,15.53,0,0,0,3.85,2,2.45,2.45,0,0,0,2.94-1.26,12.48,12.48,0,0,0,.83-2.25c.12.18.25.35.37.52a15.34,15.34,0,0,0,3,3.13,2.43,2.43,0,0,0,3.19-.23,15.51,15.51,0,0,0,2.52-3.52,21,21,0,0,0,1.81-4.35c.49.24,1,.46,1.51.67a15.45,15.45,0,0,0,4.18,1.13,2.43,2.43,0,0,0,2.61-1.84,15.08,15.08,0,0,0,.34-4.32l0-.61h.33a15.81,15.81,0,0,0,4.29-.53,2.43,2.43,0,0,0,1.73-2.7,15.33,15.33,0,0,0-1.32-4.12q-.33-.72-.72-1.44l.41-.2a10.49,10.49,0,0,0,4-4.09,18.68,18.68,0,0,0,2.14-6.34,15.1,15.1,0,0,0,.2-4.31v0a2.43,2.43,0,0,0-2.37-2.15h-.22a16.14,16.14,0,0,0-4.07.61c-.53.15-1,.3-1.55.48a20.92,20.92,0,0,0,2.94-3.9,15.63,15.63,0,0,0,1.76-3.95A2.43,2.43,0,0,0,83,37.94a13.45,13.45,0,0,0-2.67-.77A13.09,13.09,0,0,0,81.57,35,2.53,2.53,0,0,0,80.62,32c-.2-.12-.46-.22-.68-.34a16.07,16.07,0,0,0-3.32-1.3A18.46,18.46,0,0,0,70,29.58Zm10.11,3.26a1.39,1.39,0,0,1,.54,1.76A12.92,12.92,0,0,1,79,37.23l-.53.7.87.13a13.59,13.59,0,0,1,3.25.83,1.41,1.41,0,0,1,.82,1.66,14.25,14.25,0,0,1-1.64,3.68,18.11,18.11,0,0,1-4.06,4.85A10.44,10.44,0,0,1,74.2,51l-.68.2.39.58c.11.18.22.35.31.51l.31.54.47-.4c.26-.22.52-.43.78-.62a18,18,0,0,1,5.77-2.58,15,15,0,0,1,3.8-.58h.2a1.4,1.4,0,0,1,1.37,1.24,14.61,14.61,0,0,1-.19,4,18.09,18.09,0,0,1-2,6,9.62,9.62,0,0,1-3.62,3.7,8.84,8.84,0,0,1-.84.36l-.59.2.31.54c.36.62.68,1.25,1,1.88a14.49,14.49,0,0,1,1.24,3.84,1.41,1.41,0,0,1-1,1.56,14.49,14.49,0,0,1-4.07.49l-.81,0-.58,0,0,.58c0,.39.06.77.08,1.15a14,14,0,0,1-.31,4A1.39,1.39,0,0,1,74,79.21a14.34,14.34,0,0,1-3.89-1c-.68-.28-1.35-.59-2-.93l-.58-.31-.16.65a19.41,19.41,0,0,1-1.88,4.72,14.59,14.59,0,0,1-2.34,3.29,1.44,1.44,0,0,1-1.84.13,14.1,14.1,0,0,1-2.79-2.92c-.34-.46-.68-1-1-1.45l-.68-1.07-.26,1.25a13.48,13.48,0,0,1-1,3.17,1.42,1.42,0,0,1-1.7.73,14.42,14.42,0,0,1-3.59-1.85,17.85,17.85,0,0,1-4.62-4.35l-.26-.35-.38.19a18,18,0,0,1-5.73,1.61,14.35,14.35,0,0,1-4,0,1.4,1.4,0,0,1-1.19-1.41,11.19,11.19,0,0,1,.22-2l.18-.94-.88.36a9.53,9.53,0,0,1-1.27.43,1.42,1.42,0,0,1-1.66-.81,14.32,14.32,0,0,1-.94-3.92,18.3,18.3,0,0,1,.14-5.78l.08-.43-.41-.16A5.83,5.83,0,0,1,27.64,65,9.45,9.45,0,0,1,25,60.53a17.76,17.76,0,0,1-.58-6.3,17.3,17.3,0,0,1,.32-2.42l.08-.39-.35-.18a11.75,11.75,0,0,1-1.92-1.18,1.4,1.4,0,0,1-.36-1.81,14.66,14.66,0,0,1,2.54-3.13,17.87,17.87,0,0,1,5.18-3.62l.47-.19.08-.22a1.39,1.39,0,0,1,1.13-.9l.76-.1L32,39.42a20.43,20.43,0,0,1-1.1-2.25,14.12,14.12,0,0,1-1.11-3.88,1.4,1.4,0,0,1,1-1.52,14.1,14.1,0,0,1,4-.36A17.69,17.69,0,0,1,41,32.59l.18-.45,0,.54.54.23.16-.56c0-.13.08-.25.11-.36a1.41,1.41,0,0,1,1.6-.92l.88.19,0-.62A18.64,18.64,0,0,1,45.74,25a14.65,14.65,0,0,1,1.84-3.58,1.44,1.44,0,0,1,1.81-.4,14.4,14.4,0,0,1,3.18,2.49,22.16,22.16,0,0,1,1.78,2l.34.42.41-.36a20.31,20.31,0,0,1,4-2.67,14.79,14.79,0,0,1,3.78-1.41,1.42,1.42,0,0,1,1.6.93,14.12,14.12,0,0,1,.67,4,19.72,19.72,0,0,1-.36,5l-.06.62h.79l.13-.08a9.77,9.77,0,0,1,4.41-1.4,17.61,17.61,0,0,1,6.29.7A14.48,14.48,0,0,1,80.08,32.84Z"/><path class="cls-1" d="M52.9,70.53l-.46-.5-.36.59a6.09,6.09,0,0,1-1.85,2l-.2.14L50,73a6.17,6.17,0,0,1-.78,2.45,8.26,8.26,0,0,1-1.74,2l-.41.35.36.39A5.11,5.11,0,0,0,51.11,80a3.62,3.62,0,0,0,1.38-.28c2.24-1,3-4.15,1.79-7.1A7.23,7.23,0,0,0,52.9,70.53Zm-.82,8.28a3.38,3.38,0,0,1-3.51-.93,8.8,8.8,0,0,0,1.55-1.95A7.07,7.07,0,0,0,51,73.3a7.17,7.17,0,0,0,1.56-1.55,6.31,6.31,0,0,1,.76,1.31C54.36,75.5,53.8,78.07,52.08,78.81Z"/><path class="cls-1" d="M64.73,74.89a10.77,10.77,0,0,1-2.15-2.72,7.39,7.39,0,0,1-.67-1.63,7.25,7.25,0,0,1-.17-.93,7.32,7.32,0,0,1,0-.81l0-.51H61a3.74,3.74,0,0,0-2.54,1.32,6,6,0,0,0-1.31,2.66A7.31,7.31,0,0,0,57,74.41c.22,3.08,2.24,5.5,4.59,5.5h.25c1.78-.13,3.28-1.64,3.82-3.84l.08-.33-.26-.2C65.23,75.32,65,75.11,64.73,74.89Zm-3,4H61.6c-1.82,0-3.38-2-3.56-4.54a6.34,6.34,0,0,1,.13-1.85,4.75,4.75,0,0,1,1.07-2.19,2.92,2.92,0,0,1,1.44-.92l0,.36a7.62,7.62,0,0,0,.2,1.08,8.71,8.71,0,0,0,.76,1.85,11.64,11.64,0,0,0,2.36,3c.18.17.36.33.55.48A3.48,3.48,0,0,1,61.77,78.87Z"/><path class="cls-1" d="M53.91,2.24a51.68,51.68,0,1,0,51.68,51.67A51.73,51.73,0,0,0,53.91,2.24Zm0,102.32a50.65,50.65,0,1,1,50.65-50.65A50.7,50.7,0,0,1,53.91,104.56Z"/><path class="cls-1" d="M61.27,67.47l.59,0,.12-.38a6.29,6.29,0,0,1,2.31-3.31,4,4,0,0,1,.44-.27l.6-.34-.49-.48a6.14,6.14,0,0,0-6-1.05c-3.07,1-5,3.63-4.25,6a3.7,3.7,0,0,0,1.56,2l.36.24.3-.32A6.41,6.41,0,0,1,61,67.48Zm-4.86,1a2.62,2.62,0,0,1-.81-1.19c-.56-1.79,1-3.89,3.57-4.67a6.26,6.26,0,0,1,1.89-.3A4.76,4.76,0,0,1,63.6,63a7.27,7.27,0,0,0-2.49,3.41h-.23A7.33,7.33,0,0,0,56.41,68.51Z"/><path class="cls-1" d="M43,65.64l0,.51.51,0a4.78,4.78,0,0,1,1,0,6.45,6.45,0,0,1,3.73,1.7c.15.14.29.29.42.43a6.11,6.11,0,0,1,.79,1.28,6.27,6.27,0,0,1,.41,1.15l.3,1.2.64-1.06a4.12,4.12,0,0,0,.47-1.11,5.69,5.69,0,0,0,.12-2.41,7.23,7.23,0,0,0-.84-2.44,6.06,6.06,0,0,0-5-3.4,3.53,3.53,0,0,0-1.73.44,3.65,3.65,0,0,0-1.32,1.27l-.14.23.22.5A5.77,5.77,0,0,1,43,65.64Zm1.38-2.81c1.6-.88,4.06.33,5.29,2.56a6.21,6.21,0,0,1,.73,2.09,5,5,0,0,1,0,1.59,6.7,6.7,0,0,0-.91-1.45,6.14,6.14,0,0,0-.5-.52,7.56,7.56,0,0,0-4.31-2,5.32,5.32,0,0,0-.69,0,6.16,6.16,0,0,0-.38-1.52v0A2.51,2.51,0,0,1,44.33,62.83Z"/><path class="cls-1" d="M36.22,55.58a8.77,8.77,0,0,1,1.65,3.85l.06.49.35.08c.23.06.46.12.68.2l.6.21.09-.62a11.69,11.69,0,0,1,.59-2.46,1.43,1.43,0,0,1,1.61-.89,14.69,14.69,0,0,1,3.8,1.5l1.4.8-.68-1.46a14,14,0,0,1-.57-1.42,14.67,14.67,0,0,1-.54-2.44l-.17-1.19-.75.94a5,5,0,0,1-.35.41,6.43,6.43,0,0,1-4.31,1.82h-.26a5.87,5.87,0,0,1-2.49-.57L35.06,54Zm8.19-1a13.47,13.47,0,0,0,.41,1.58c0,.08,0,.16.08.23a14.54,14.54,0,0,0-2-.78A7,7,0,0,0,44.41,54.6Zm-4.86,1.84a2,2,0,0,0-.28.54,11.65,11.65,0,0,0-.48,1.71,9.52,9.52,0,0,0-.92-2.43A6.76,6.76,0,0,0,39.55,56.44Z"/><path class="cls-1" d="M44.67,43.58l.19.32a9.33,9.33,0,0,0,.69,1,5.74,5.74,0,0,0,4.2,2.21,3.61,3.61,0,0,0,1.8-.47,3.43,3.43,0,0,0,.54-.4,4.34,4.34,0,0,0,1.36-3.3,6.85,6.85,0,0,0-.55-2.69,8.48,8.48,0,0,0-.43-.85l-.17-.3-.34,0a6.55,6.55,0,0,1-4.16-.9,5.17,5.17,0,0,1-.75-.55l-1-.75.2,1.35a6.39,6.39,0,0,1-.95,4.57,3.32,3.32,0,0,1-.37.47Zm1.47-.17a7.27,7.27,0,0,0,1.2-4.28,7.66,7.66,0,0,0,4.4,1c.07.15.14.3.2.45a5.91,5.91,0,0,1,.48,2.28,3.35,3.35,0,0,1-1,2.54,2.6,2.6,0,0,1-.38.27c-1.33.78-3.33.11-4.69-1.5-.14-.17-.27-.35-.4-.53Z"/><path class="cls-1" d="M63.78,39.05a4.21,4.21,0,0,0,3,2.49l.43.09a6.81,6.81,0,0,0,1.21.11,7.31,7.31,0,0,0,2.2-.34,6.19,6.19,0,0,0,4.23-3.85,3.61,3.61,0,0,0,0-2.11c-.58-1.87-2.66-3-5.2-2.84a8.19,8.19,0,0,0-1.68.33c-2.48.77-4.24,2.65-4.39,4.67a3.44,3.44,0,0,0,.15,1.29Zm4.5-5.13a6,6,0,0,1,1.45-.28,3.39,3.39,0,0,1,.45,0c1.84,0,3.28.83,3.68,2.12a2.54,2.54,0,0,1,0,1.52,5.23,5.23,0,0,1-3.55,3.15,6,6,0,0,1-2.92.2L67,40.54a3.2,3.2,0,0,1-2.32-1.95,2.53,2.53,0,0,1-.1-.92C64.73,36.1,66.23,34.55,68.28,33.92Z"/><path class="cls-1" d="M37.27,52.12l-.72.41.69.47a6.22,6.22,0,0,0,3.4,1.11A3.77,3.77,0,0,0,43.41,53a4,4,0,0,0,1-3.51,6.84,6.84,0,0,0-2-3.74L42,45.43l-.37-.12-.25.06-.64.1-.52.05.06.52a6.52,6.52,0,0,1-1,4.13A5.84,5.84,0,0,1,37.27,52.12Zm2.88-1.41a7.55,7.55,0,0,0,1.17-4.29l.18,0,.14.13a5.82,5.82,0,0,1,1.72,3.16,3,3,0,0,1-.69,2.62c-.91.94-2.61,1-4.17.24A7,7,0,0,0,40.15,50.71Z"/><path class="cls-1" d="M56.29,28.64a10.06,10.06,0,0,1,1,4.41c0,.23,0,.46,0,.69a6,6,0,0,1-1,2.61l-.25.33-.56.72.91.11.49,0h.07A5.39,5.39,0,0,0,60.35,36a7.45,7.45,0,0,0,2.24-4c.41-2.16-.29-4.11-1.79-5a4.37,4.37,0,0,0-4.61.48l-.37.26.21.4C56.12,28.29,56.21,28.46,56.29,28.64Zm4-.77c1.12.64,1.63,2.17,1.29,3.88a6.29,6.29,0,0,1-.74,2,6.21,6.21,0,0,1-1.18,1.5,4.73,4.73,0,0,1-2.26,1.21,7.21,7.21,0,0,0,.9-3.34,10.9,10.9,0,0,0-1.06-4.88l-.07-.14A3.15,3.15,0,0,1,60.28,27.87Z"/><path class="cls-1" d="M61.7,37.09a6,6,0,0,1-2.49,1.26,6.7,6.7,0,0,1-3.67-.16l-.39-.14-.22.35a5.37,5.37,0,0,0-.36.66l-.1.2.08.21a6.71,6.71,0,0,1,.37,1.32,5.87,5.87,0,0,1-.07,2.47l-.07.27.19.2A4.08,4.08,0,0,0,58.05,45a6.88,6.88,0,0,0,4-1.42,7.28,7.28,0,0,0,1.88-2l.19-.3-.21-.28a6.23,6.23,0,0,1-1-1.79,6,6,0,0,1-.24-1.81V36.16Zm1.18,4.17a6.43,6.43,0,0,1-1.44,1.46c-1.84,1.37-4.3,1.57-5.53.5a6.74,6.74,0,0,0,0-2.61,8.11,8.11,0,0,0-.35-1.3l0,0a7.74,7.74,0,0,0,3.83.07,6.94,6.94,0,0,0,2.3-1,6.4,6.4,0,0,0,1.14,2.91Z"/><path class="cls-1" d="M53.35,67.33l.33-2.15a7.26,7.26,0,0,1,.61-2,5.87,5.87,0,0,1,.6-1l.91-1.21-1.46.4a6.38,6.38,0,0,1-2.69.16l-1.23-.17.75,1a9.82,9.82,0,0,1,1.51,2.82Zm0-4.65,0,.09c-.11.23-.22.48-.31.72a8.46,8.46,0,0,0-.44-.77A6.74,6.74,0,0,0,53.4,62.68Z"/><path class="cls-1" d="M65.63,42.67l-.26.32-.2.25-.55.57-.65.65.9.22c.2,0,.41.1.61.17l.6.19.07-.63a6.47,6.47,0,0,1,.2-1l.1-.4-.37-.19-.24.46.24-.46Z"/><path class="cls-1" d="M49,37.4A5.32,5.32,0,0,0,50,38a3.84,3.84,0,0,0,1.5.31,3,3,0,0,0,.73-.08,3.5,3.5,0,0,0,1.09-.45l.12-.07a3.79,3.79,0,0,0,.62-.53,4.26,4.26,0,0,0,.78-1.11,4.92,4.92,0,0,0,.34-.81,7.09,7.09,0,0,0,.14-3.67,8.06,8.06,0,0,0-.5-1.48,6.08,6.08,0,0,0-2.13-2.62,3.87,3.87,0,0,0-3-.64c-1.87.41-3.18,2.34-3.25,4.8a7.56,7.56,0,0,0,.17,1.84A6.86,6.86,0,0,0,49,37.4Zm1-9.52a2.29,2.29,0,0,1,.52-.05,3,3,0,0,1,1.65.54,5.22,5.22,0,0,1,1.76,2.18,6.88,6.88,0,0,1,.43,1.28A6,6,0,0,1,54.19,35a4.48,4.48,0,0,1-.28.67,3.81,3.81,0,0,1-.6.85,2.65,2.65,0,0,1-.55.45,2.35,2.35,0,0,1-.76.31,2.56,2.56,0,0,1-1.6-.17,3.59,3.59,0,0,1-.8-.49,5.75,5.75,0,0,1-2-3.29,7,7,0,0,1-.15-1.59C47.56,29.73,48.54,28.19,49.94,27.88Z"/><path class="cls-1" d="M56.21,53a6.11,6.11,0,0,0-5-3.29,3.48,3.48,0,0,0-1.8.47,4,4,0,0,0-1.87,3.12,6.89,6.89,0,0,0,1,4.14,6.11,6.11,0,0,0,5,3.29,3.58,3.58,0,0,0,1.8-.47C57.41,59,57.82,55.73,56.21,53Zm-1.44,6.37a2.52,2.52,0,0,1-1.28.33,5.07,5.07,0,0,1-4.06-2.78,5.74,5.74,0,0,1-.82-3.5A3,3,0,0,1,50,51a2.52,2.52,0,0,1,1.28-.33,5.1,5.1,0,0,1,4.07,2.78C56.64,55.75,56.4,58.38,54.77,59.32Z"/><path class="cls-1" d="M56.61,50.07,56.84,49a6,6,0,0,1,1-1.94l.46-.62-.74-.19A6.55,6.55,0,0,1,55,44.84l-.47-.41-.31.55a6.64,6.64,0,0,1-1.11,1.45l-.47.45.54.35a16.38,16.38,0,0,1,2.78,2.24ZM54.75,46a7.61,7.61,0,0,0,1.85,1A7.08,7.08,0,0,0,56,48.15a17.88,17.88,0,0,0-1.81-1.44A7.79,7.79,0,0,0,54.75,46Z"/><path class="cls-1" d="M66.42,47.36a7.36,7.36,0,0,0-2-.89,7.49,7.49,0,0,0-2-.29c-2.36,0-4.28,1.2-4.78,3a4,4,0,0,0,.84,3.55A6.85,6.85,0,0,0,62,55a7.42,7.42,0,0,0,2,.28c2.35,0,4.27-1.19,4.77-3a3.57,3.57,0,0,0,0-2.07A5.47,5.47,0,0,0,66.42,47.36ZM67.83,52c-.37,1.33-1.89,2.22-3.78,2.22A6.22,6.22,0,0,1,62.3,54a5.8,5.8,0,0,1-3-1.94,3,3,0,0,1-.65-2.63c.37-1.33,1.89-2.22,3.78-2.22a6.59,6.59,0,0,1,1.75.24,6.69,6.69,0,0,1,1.72.77,4.45,4.45,0,0,1,1.92,2.32A2.54,2.54,0,0,1,67.83,52Z"/><path class="cls-1" d="M61,59.34a17.5,17.5,0,0,1,6.24.69l.25.07.21-.16a6.65,6.65,0,0,1,2.53-1.24,5.52,5.52,0,0,1,1.31-.18H72V58a5.6,5.6,0,0,1,.16-1.35l.22-.94-.9.33c-.33.12-.67.24-1,.35a17.69,17.69,0,0,1-6.26.88,9.74,9.74,0,0,1-4.66-1.43l-.7-.45-.1.82a5.25,5.25,0,0,1-.19,1,6.84,6.84,0,0,1-1,2l-1,1.36L58.14,60A11,11,0,0,1,61,59.34Zm-1.44-1.86c0-.12.07-.24.1-.37a11.28,11.28,0,0,0,4.49,1.2,19,19,0,0,0,6.63-.92l.27-.08c0,.07,0,.14,0,.21a6,6,0,0,0-1.06.18A7.63,7.63,0,0,0,67.22,59a20.36,20.36,0,0,0-5.07-.72c-.43,0-.87,0-1.29.06a14.53,14.53,0,0,0-1.79.29A7.24,7.24,0,0,0,59.51,57.48Z"/><path class="cls-1" d="M75.94,40.51l-.26.21a13.46,13.46,0,0,1-2,1.4,9.59,9.59,0,0,1-5,1.36l-.38,0-.45-.06-.16.31a4.59,4.59,0,0,0-.52,1.4l0,.4.34.18A17.18,17.18,0,0,1,72,49.36l.19.2.28,0a7.76,7.76,0,0,0,2.11-.68c2.88-1.43,4.34-4.37,3.25-6.56a3.73,3.73,0,0,0-1.62-1.62Zm1,2.23c.84,1.68-.41,4-2.78,5.17a6.35,6.35,0,0,1-1.55.54,18.53,18.53,0,0,0-4.36-3.52,4,4,0,0,1,.17-.44l.19,0A10.42,10.42,0,0,0,74.15,43a15.08,15.08,0,0,0,1.9-1.28A2.46,2.46,0,0,1,76.93,42.74Z"/><path class="cls-1" d="M44.82,56.18a13.47,13.47,0,0,1-.41-1.58,7,7,0,0,1-1.55,1,14.54,14.54,0,0,1,2,.78C44.87,56.34,44.85,56.26,44.82,56.18Z"/><path class="cls-1" d="M51,45.7a2.6,2.6,0,0,0,.38-.27,3.35,3.35,0,0,0,1-2.54,5.91,5.91,0,0,0-.48-2.28c-.06-.15-.13-.3-.2-.45a7.66,7.66,0,0,1-4.4-1,7.27,7.27,0,0,1-1.2,4.28l-.2.26c.13.18.26.36.4.53C47.7,45.81,49.7,46.48,51,45.7Z"/><path class="cls-1" d="M40.24,66c.27-1.78-.32-3.35-1.52-4a2.17,2.17,0,0,0-.49-.18,2.73,2.73,0,0,0-.64-.07,3.41,3.41,0,0,0-1.56.4,5.77,5.77,0,0,0-2.49,2.66c0,.08-.07.17-.11.25a6.41,6.41,0,0,0-.5,1.88,3.5,3.5,0,0,0,1.57,3.67,2.53,2.53,0,0,0,1.06.24A14.36,14.36,0,0,1,36.82,69a12.29,12.29,0,0,1,2.29-2.27A9,9,0,0,1,40.24,66Z"/><path class="cls-1" d="M61.74,38.35a6.94,6.94,0,0,1-2.3,1,7.74,7.74,0,0,1-3.83-.07l0,0a8.11,8.11,0,0,1,.35,1.3,6.74,6.74,0,0,1,0,2.61c1.23,1.07,3.69.87,5.53-.5a6.43,6.43,0,0,0,1.44-1.46,6.4,6.4,0,0,1-1.14-2.91Z"/><path class="cls-1" d="M53.36,62.77l0-.09a6.74,6.74,0,0,1-.79,0,8.46,8.46,0,0,1,.44.77C53.14,63.25,53.25,63,53.36,62.77Z"/><path class="cls-1" d="M43.93,65.08a5.32,5.32,0,0,1,.69,0,7.56,7.56,0,0,1,4.31,2,6.14,6.14,0,0,1,.5.52,6.7,6.7,0,0,1,.91,1.45,5,5,0,0,0,0-1.59,6.21,6.21,0,0,0-.73-2.09c-1.23-2.23-3.69-3.44-5.29-2.56a2.51,2.51,0,0,0-.79.7v0A6.16,6.16,0,0,1,43.93,65.08Z"/><path class="cls-1" d="M39.27,57a2,2,0,0,1,.28-.54,6.76,6.76,0,0,1-1.68-.18,9.52,9.52,0,0,1,.92,2.43A11.65,11.65,0,0,1,39.27,57Z"/><path class="cls-1" d="M34.88,59.07a5.17,5.17,0,0,0-.36-.75,5.09,5.09,0,0,0-4.06-2.86,2.44,2.44,0,0,0-1.23.31c-1.64.91-1.94,3.53-.66,5.84a6.26,6.26,0,0,0,1.37,1.71,9.23,9.23,0,0,1,1.79-2.48,7.06,7.06,0,0,1,2.81-1.68Z"/><path class="cls-1" d="M70.89,67.25a5.89,5.89,0,0,0-.74-.87A5,5,0,0,0,67,64.84h-.13a2.61,2.61,0,0,0-1.28.32,1.49,1.49,0,0,0-.24.14L64.91,65h0l.33.4a2.87,2.87,0,0,0-1,2.07,4.74,4.74,0,0,0,0,.84,6,6,0,0,0,1,2.72l-.32.45h0l.42-.3a5.82,5.82,0,0,0,3,2.28,2.93,2.93,0,0,0,2.49-.32,2.47,2.47,0,0,0,.82-1,4.2,4.2,0,0,0,.17-2.81A6.29,6.29,0,0,0,70.89,67.25Z"/><path class="cls-1" d="M78.71,61.68A6.27,6.27,0,0,0,81,60.09a5.77,5.77,0,0,0,1.54-3.26,3,3,0,0,0-.84-2.58,2.73,2.73,0,0,0-1.87-.66,5.51,5.51,0,0,0-3.87,1.92,6,6,0,0,0-1.5,3,3.11,3.11,0,0,0,.8,2.86A3.35,3.35,0,0,0,78.71,61.68Z"/><path class="cls-1" d="M73.29,63.47a7.09,7.09,0,0,1-1.63-2.28,5.34,5.34,0,0,0-1.42-.1,3.32,3.32,0,0,0-1.77.62l.53,0A7.08,7.08,0,0,1,72,63l.18.14a10.82,10.82,0,0,1,3.32,4.42c0,.11.09.22.14.34a3.17,3.17,0,0,0,.28-.36A2.88,2.88,0,0,0,76.17,65,7.26,7.26,0,0,1,73.29,63.47Z"/><path class="cls-1" d="M47.24,69.47a2.39,2.39,0,0,0-.93-.68A3.29,3.29,0,0,0,45,68.52a4.85,4.85,0,0,0-1.68.32l-.13,0a6.14,6.14,0,0,0-1.77,1l-.48.45a5,5,0,0,0-1.58,3.77,2.57,2.57,0,0,0,.58,1.47,3.49,3.49,0,0,0,3.79.69,6.4,6.4,0,0,0,2.07-1.17L46,75a6.53,6.53,0,0,0,1-1.2,5.15,5.15,0,0,0,.77-1.86,3.12,3.12,0,0,0-.27-2.05A3.19,3.19,0,0,0,47.24,69.47Z"/><path class="cls-1" d="M61.67,72.66a8.71,8.71,0,0,1-.76-1.85,7.62,7.62,0,0,1-.2-1.08l0-.36a2.92,2.92,0,0,0-1.44.92,4.75,4.75,0,0,0-1.07,2.19A6.34,6.34,0,0,0,58,74.33c.18,2.55,1.74,4.54,3.56,4.54h.17a3.48,3.48,0,0,0,2.81-2.75c-.19-.15-.37-.31-.55-.48A11.64,11.64,0,0,1,61.67,72.66Z"/><path class="cls-1" d="M63.6,63a4.76,4.76,0,0,0-2.54-.68,6.26,6.26,0,0,0-1.89.3c-2.53.78-4.13,2.88-3.57,4.67a2.62,2.62,0,0,0,.81,1.19,7.33,7.33,0,0,1,4.47-2.06h.23A7.27,7.27,0,0,1,63.6,63Z"/><path class="cls-1" d="M52.57,71.75A7.17,7.17,0,0,1,51,73.3a7.07,7.07,0,0,1-.89,2.63,8.8,8.8,0,0,1-1.55,1.95,3.38,3.38,0,0,0,3.51.93c1.72-.74,2.28-3.31,1.25-5.75A6.31,6.31,0,0,0,52.57,71.75Z"/><path class="cls-1" d="M74.15,43a10.42,10.42,0,0,1-5.55,1.48l-.19,0a4,4,0,0,0-.17.44,18.53,18.53,0,0,1,4.36,3.52,6.35,6.35,0,0,0,1.55-.54c2.37-1.17,3.62-3.49,2.78-5.17a2.46,2.46,0,0,0-.88-1A15.08,15.08,0,0,1,74.15,43Z"/><path class="cls-1" d="M56.6,47a7.61,7.61,0,0,1-1.85-1,7.79,7.79,0,0,1-.54.71A17.88,17.88,0,0,1,56,48.15,7.08,7.08,0,0,1,56.6,47Z"/><path class="cls-1" d="M55.32,53.47a5.1,5.1,0,0,0-4.07-2.78A2.52,2.52,0,0,0,50,51a3,3,0,0,0-1.36,2.35,5.74,5.74,0,0,0,.82,3.5,5.07,5.07,0,0,0,4.06,2.78,2.52,2.52,0,0,0,1.28-.33C56.4,58.38,56.64,55.75,55.32,53.47Z"/><path class="cls-1" d="M62.15,58.25a20.36,20.36,0,0,1,5.07.72,7.63,7.63,0,0,1,2.7-1.27A6,6,0,0,1,71,57.52c0-.07,0-.14,0-.21l-.27.08a19,19,0,0,1-6.63.92,11.28,11.28,0,0,1-4.49-1.2c0,.13-.07.25-.1.37a7.24,7.24,0,0,1-.44,1.12,14.53,14.53,0,0,1,1.79-.29C61.28,58.27,61.72,58.25,62.15,58.25Z"/><path class="cls-1" d="M30.25,49.57c.2.09.47.22.75.38a4.78,4.78,0,0,0,1.24.34,6.67,6.67,0,0,0,2.13-.07A5.82,5.82,0,0,0,35.3,50c2.08-.74,3.39-2.41,3.1-4a2.53,2.53,0,0,0-.7-1.33,4.67,4.67,0,0,0-3.38-1.24l-.44,0a6.39,6.39,0,0,0-.85.11,6.06,6.06,0,0,0-2.69,1.24,3.21,3.21,0,0,0-1.34,3A2.8,2.8,0,0,0,30.25,49.57Z"/><path class="cls-1" d="M42.67,52.3a3,3,0,0,0,.69-2.62,5.82,5.82,0,0,0-1.72-3.16l-.14-.13-.18,0a7.55,7.55,0,0,1-1.17,4.29,7,7,0,0,1-1.65,1.83C40.06,53.31,41.76,53.24,42.67,52.3Z"/><path class="cls-1" d="M65.86,48.23a6.69,6.69,0,0,0-1.72-.77,6.59,6.59,0,0,0-1.75-.24c-1.89,0-3.41.89-3.78,2.22a3,3,0,0,0,.65,2.63,5.8,5.8,0,0,0,3,1.94,6.22,6.22,0,0,0,1.75.25c1.89,0,3.41-.89,3.78-2.22a2.54,2.54,0,0,0,0-1.49A4.45,4.45,0,0,0,65.86,48.23Z"/><polygon class="cls-2" points="64.91 71.47 64.91 71.47 64.91 71.47 64.91 71.47"/><path class="cls-1" d="M58.29,33.09a7.21,7.21,0,0,1-.9,3.34,4.73,4.73,0,0,0,2.26-1.21,6.21,6.21,0,0,0,1.18-1.5,6.29,6.29,0,0,0,.74-2c.34-1.71-.17-3.24-1.29-3.88a3.15,3.15,0,0,0-3.12.2l.07.14A10.9,10.9,0,0,1,58.29,33.09Z"/><path class="cls-1" d="M49.6,36.58a3.59,3.59,0,0,0,.8.49,2.56,2.56,0,0,0,1.6.17,2.35,2.35,0,0,0,.76-.31,2.65,2.65,0,0,0,.55-.45,3.81,3.81,0,0,0,.6-.85,4.48,4.48,0,0,0,.28-.67,6,6,0,0,0,.11-3.13,6.88,6.88,0,0,0-.43-1.28,5.22,5.22,0,0,0-1.76-2.18,3,3,0,0,0-1.65-.54,2.29,2.29,0,0,0-.52.05c-1.4.31-2.38,1.85-2.44,3.82a7,7,0,0,0,.15,1.59A5.75,5.75,0,0,0,49.6,36.58Z"/><path class="cls-1" d="M67,40.54l.35.07a6,6,0,0,0,2.92-.2,5.23,5.23,0,0,0,3.55-3.15,2.54,2.54,0,0,0,0-1.52c-.4-1.29-1.84-2.12-3.68-2.12a3.39,3.39,0,0,0-.45,0,6,6,0,0,0-1.45.28c-2,.63-3.55,2.18-3.67,3.75a2.53,2.53,0,0,0,.1.92A3.2,3.2,0,0,0,67,40.54Z"/><path class="cls-1" d="M53.91,3.27a50.65,50.65,0,1,0,50.65,50.64A50.7,50.7,0,0,0,53.91,3.27Zm0,97.11a46.47,46.47,0,1,1,46.47-46.47A46.53,46.53,0,0,1,53.91,100.38Z"/><path class="cls-1" d="M53.91,9.52a44.4,44.4,0,1,0,44.4,44.39A44.45,44.45,0,0,0,53.91,9.52Zm0,80.77A36.38,36.38,0,1,1,90.29,53.91,36.42,36.42,0,0,1,53.91,90.29Z"/><path class="cls-1" d="M87.74,54.05a18.68,18.68,0,0,1-2.14,6.34,10.49,10.49,0,0,1-4,4.09l-.41.2q.39.72.72,1.44a15.33,15.33,0,0,1,1.32,4.12,2.43,2.43,0,0,1-1.73,2.7,15.81,15.81,0,0,1-4.29.53h-.33l0,.61a15.08,15.08,0,0,1-.34,4.32,2.43,2.43,0,0,1-2.61,1.84,15.45,15.45,0,0,1-4.18-1.13c-.51-.21-1-.43-1.51-.67a21,21,0,0,1-1.81,4.35,15.51,15.51,0,0,1-2.52,3.52,2.43,2.43,0,0,1-3.19.23,15.34,15.34,0,0,1-3-3.13c-.12-.17-.25-.34-.37-.52a12.48,12.48,0,0,1-.83,2.25,2.45,2.45,0,0,1-2.94,1.26,15.53,15.53,0,0,1-3.85-2,19.35,19.35,0,0,1-4.62-4.24,20,20,0,0,1-5.66,1.52,15.62,15.62,0,0,1-4.32,0,2.41,2.41,0,0,1-2.06-2.45c0-.39,0-.8.09-1.24-.19.06-.37.12-.54.16a2.48,2.48,0,0,1-2.88-1.4,15.55,15.55,0,0,1-1-4.21,20.18,20.18,0,0,1,.07-5.68A7.35,7.35,0,0,1,27,65.74a10.46,10.46,0,0,1-3-4.91,18.63,18.63,0,0,1-.62-6.66A20.54,20.54,0,0,1,23.62,52a13.24,13.24,0,0,1-1.73-1.1,2.43,2.43,0,0,1-.63-3.14A15.38,15.38,0,0,1,24,44.38a18.76,18.76,0,0,1,5.48-3.83l.08,0a2.4,2.4,0,0,1,1.19-1.16c-.3-.57-.58-1.17-.84-1.79a15.1,15.1,0,0,1-1.19-4.16,2.43,2.43,0,0,1,1.81-2.64,15.41,15.41,0,0,1,4.31-.39,19.12,19.12,0,0,1,6.27,1.13A2.41,2.41,0,0,1,43.52,30a20.7,20.7,0,0,1,1.25-5.34,15.32,15.32,0,0,1,2-3.85,2.4,2.4,0,0,1,.64-.59A34.3,34.3,0,1,0,88.22,53.91a33.82,33.82,0,0,0-.28-4.17A15.1,15.1,0,0,1,87.74,54.05Z"/><path class="cls-1" d="M80.34,37.17a13.45,13.45,0,0,1,2.67.77,2.43,2.43,0,0,1,1.42,2.87,15.63,15.63,0,0,1-1.76,3.95,20.92,20.92,0,0,1-2.94,3.9c.5-.18,1-.33,1.55-.48a16.14,16.14,0,0,1,4.07-.61h.22a2.43,2.43,0,0,1,2.37,2.15,34.27,34.27,0,0,0-6.19-15.79A2.46,2.46,0,0,1,81.57,35,13.09,13.09,0,0,1,80.34,37.17Z"/><path class="cls-1" d="M53.3,22.8q.81.81,1.53,1.68A21.13,21.13,0,0,1,58.63,22a15.88,15.88,0,0,1,3.55-1.36,34.13,34.13,0,0,0-8.27-1,35.25,35.25,0,0,0-4.62.34,2.39,2.39,0,0,1,.59.19A15.84,15.84,0,0,1,53.3,22.8Z"/><path class="cls-1" d="M65.13,21.52a3.08,3.08,0,0,1,.33.59,15.06,15.06,0,0,1,.72,4.27A21.78,21.78,0,0,1,66,30.64a11.44,11.44,0,0,1,4-1.06,18.46,18.46,0,0,1,6.65.74,16.07,16.07,0,0,1,3.32,1.3A34.43,34.43,0,0,0,65.13,21.52Z"/><path class="cls-1" d="M36,39.84a7,7,0,0,1,2.2,1,8.14,8.14,0,0,1,1.94,2,4.62,4.62,0,0,0,1.73.06,3.63,3.63,0,0,0,.88-.27,2.49,2.49,0,0,0,1-.86,2.1,2.1,0,0,0,.22-.42,3.08,3.08,0,0,0,0-2.24,5.77,5.77,0,0,0-2.26-2.85,6.41,6.41,0,0,0-1.06-.59c-1.91-.85-4-.56-4.82.68a3.25,3.25,0,0,0,.06,3.34S36,39.8,36,39.84Z"/><path class="cls-2" d="M53.91,7.45a46.47,46.47,0,1,0,46.47,46.46A46.52,46.52,0,0,0,53.91,7.45Zm0,90.86a44.4,44.4,0,1,1,44.4-44.4A44.45,44.45,0,0,1,53.91,98.31Z"/><path class="cls-2" d="M53.91,17.54A36.38,36.38,0,1,0,90.29,53.91,36.42,36.42,0,0,0,53.91,17.54ZM80.62,32a2.45,2.45,0,0,1,1.13,2,34.27,34.27,0,0,1,6.19,15.79h0v0a33.82,33.82,0,0,1,.28,4.17A34.31,34.31,0,1,1,47.4,20.24,2.6,2.6,0,0,1,49.29,20a35.25,35.25,0,0,1,4.62-.34,34.13,34.13,0,0,1,8.27,1c.17,0,.35-.11.5-.14a2.43,2.43,0,0,1,2.45,1,34.43,34.43,0,0,1,14.81,10.1C80.16,31.74,80.42,31.84,80.62,32Z"/><path class="cls-2" d="M87.94,49.72h0v0Z"/><path class="cls-2" d="M53.91,0a53.92,53.92,0,1,0,53.92,53.91A54,54,0,0,0,53.91,0Zm0,105.59a51.68,51.68,0,1,1,51.68-51.68A51.73,51.73,0,0,1,53.91,105.59Z"/><path class="cls-2" d="M70.06,30.61A9.77,9.77,0,0,0,65.65,32l-.13.08h-.79l.06-.62a19.72,19.72,0,0,0,.36-5,14.12,14.12,0,0,0-.67-4,1.42,1.42,0,0,0-1.6-.93,14.79,14.79,0,0,0-3.78,1.41,20.31,20.31,0,0,0-4,2.67l-.41.36-.34-.42a22.16,22.16,0,0,0-1.78-2,14.4,14.4,0,0,0-3.18-2.49,1.44,1.44,0,0,0-1.81.4A14.65,14.65,0,0,0,45.74,25a18.64,18.64,0,0,0-1.22,5.61l0,.62-.88-.19A1.41,1.41,0,0,0,42,32c0,.11-.07.23-.11.36l-.16.56-.54-.23,0-.54-.18.45a17.69,17.69,0,0,0-6.21-1.18,14.1,14.1,0,0,0-4,.36,1.4,1.4,0,0,0-1,1.52,14.12,14.12,0,0,0,1.11,3.88A20.43,20.43,0,0,0,32,39.42l.37.67-.76.1a1.39,1.39,0,0,0-1.13.9l-.08.22-.47.19a17.87,17.87,0,0,0-5.18,3.62,14.66,14.66,0,0,0-2.54,3.13,1.4,1.4,0,0,0,.36,1.81,11.75,11.75,0,0,0,1.92,1.18l.35.18-.08.39a17.3,17.3,0,0,0-.32,2.42,17.76,17.76,0,0,0,.58,6.3A9.45,9.45,0,0,0,27.64,65a5.83,5.83,0,0,0,1.92,1.13l.41.16-.08.43a18.3,18.3,0,0,0-.14,5.78,14.32,14.32,0,0,0,.94,3.92,1.42,1.42,0,0,0,1.66.81,9.53,9.53,0,0,0,1.27-.43l.88-.36-.18.94a11.19,11.19,0,0,0-.22,2,1.4,1.4,0,0,0,1.19,1.41,14.35,14.35,0,0,0,4,0,18,18,0,0,0,5.73-1.61l.38-.19.26.35a17.85,17.85,0,0,0,4.62,4.35,14.42,14.42,0,0,0,3.59,1.85,1.42,1.42,0,0,0,1.7-.73,13.48,13.48,0,0,0,1-3.17l.26-1.25.68,1.07c.32.5.66,1,1,1.45a14.1,14.1,0,0,0,2.79,2.92,1.44,1.44,0,0,0,1.84-.13,14.59,14.59,0,0,0,2.34-3.29,19.41,19.41,0,0,0,1.88-4.72l.16-.65.58.31c.65.34,1.32.65,2,.93a14.34,14.34,0,0,0,3.89,1,1.39,1.39,0,0,0,1.51-1.06,14,14,0,0,0,.31-4c0-.38,0-.76-.08-1.15l0-.58.58,0,.81,0A14.49,14.49,0,0,0,81.18,72a1.41,1.41,0,0,0,1-1.56,14.49,14.49,0,0,0-1.24-3.84c-.29-.63-.61-1.26-1-1.88l-.31-.54.59-.2a8.84,8.84,0,0,0,.84-.36,9.62,9.62,0,0,0,3.62-3.7,18.09,18.09,0,0,0,2-6,14.61,14.61,0,0,0,.19-4,1.4,1.4,0,0,0-1.37-1.24h-.2a15,15,0,0,0-3.8.58,18,18,0,0,0-5.77,2.58c-.26.19-.52.4-.78.62l-.47.4-.31-.54c-.09-.16-.2-.33-.31-.51l-.39-.58.68-.2a10.44,10.44,0,0,0,3.53-1.87,18.11,18.11,0,0,0,4.06-4.85,14.25,14.25,0,0,0,1.64-3.68,1.41,1.41,0,0,0-.82-1.66,13.59,13.59,0,0,0-3.25-.83l-.87-.13.53-.7a12.92,12.92,0,0,0,1.6-2.63,1.39,1.39,0,0,0-.54-1.76,14.48,14.48,0,0,0-3.73-1.53A17.61,17.61,0,0,0,70.06,30.61ZM68,32.93a8.19,8.19,0,0,1,1.68-.33c2.54-.19,4.62,1,5.2,2.84a3.61,3.61,0,0,1,0,2.11,6.19,6.19,0,0,1-4.23,3.85,7.31,7.31,0,0,1-2.2.34,6.81,6.81,0,0,1-1.21-.11l-.43-.09a4.21,4.21,0,0,1-3-2.49l-.05-.16a3.44,3.44,0,0,1-.15-1.29C63.73,35.58,65.49,33.7,68,32.93ZM40.26,46l-.06-.52.52-.05.64-.1.25-.06.37.12.38.35a6.84,6.84,0,0,1,2,3.74,4,4,0,0,1-1,3.51,3.77,3.77,0,0,1-2.77,1.08A6.22,6.22,0,0,1,37.24,53l-.69-.47.72-.41a5.84,5.84,0,0,0,2-1.95A6.52,6.52,0,0,0,40.26,46Zm-3.33,8.8a5.87,5.87,0,0,0,2.49.57h.26A6.43,6.43,0,0,0,44,53.58a5,5,0,0,0,.35-.41l.75-.94.17,1.19a14.67,14.67,0,0,0,.54,2.44,14,14,0,0,0,.57,1.42l.68,1.46-1.4-.8a14.69,14.69,0,0,0-3.8-1.5,1.43,1.43,0,0,0-1.61.89,11.69,11.69,0,0,0-.59,2.46l-.09.62L39,60.2c-.22-.08-.45-.14-.68-.2l-.35-.08-.06-.49a8.77,8.77,0,0,0-1.65-3.85L35.06,54Zm5.58,8.36a3.65,3.65,0,0,1,1.32-1.27,3.53,3.53,0,0,1,1.73-.44,6.06,6.06,0,0,1,5,3.4,7.23,7.23,0,0,1,.84,2.44,5.69,5.69,0,0,1-.12,2.41,4.12,4.12,0,0,1-.47,1.11l-.64,1.06-.3-1.2a6.27,6.27,0,0,0-.41-1.15,6.11,6.11,0,0,0-.79-1.28c-.13-.14-.27-.29-.42-.43a6.45,6.45,0,0,0-3.73-1.7,4.78,4.78,0,0,0-1,0l-.51,0,0-.51a5.77,5.77,0,0,0-.36-1.71l-.22-.5Zm8.66-.76-.75-1,1.23.17a6.38,6.38,0,0,0,2.69-.16l1.46-.4-.91,1.21a5.87,5.87,0,0,0-.6,1,7.26,7.26,0,0,0-.61,2l-.33,2.15-.67-2.07A9.82,9.82,0,0,0,51.17,62.44Zm4.12-2.23a3.58,3.58,0,0,1-1.8.47,6.11,6.11,0,0,1-5-3.29,6.89,6.89,0,0,1-1-4.14,4,4,0,0,1,1.87-3.12,3.48,3.48,0,0,1,1.8-.47,6.11,6.11,0,0,1,5,3.29C57.82,55.73,57.41,59,55.29,60.21Zm-2.7-13.33.47-.45A6.64,6.64,0,0,0,54.17,45l.31-.55.47.41a6.55,6.55,0,0,0,2.6,1.36l.74.19-.46.62a6,6,0,0,0-1,1.94l-.23,1.12-.7-.6a16.38,16.38,0,0,0-2.78-2.24Zm4.95,12.29a6.84,6.84,0,0,0,1-2,5.25,5.25,0,0,0,.19-1l.1-.82.7.45a9.74,9.74,0,0,0,4.66,1.43,17.69,17.69,0,0,0,6.26-.88c.38-.11.72-.23,1-.35l.9-.33-.22.94A5.6,5.6,0,0,0,72,58v.5h-.51a5.52,5.52,0,0,0-1.31.18,6.65,6.65,0,0,0-2.53,1.24l-.21.16L67.19,60A17.5,17.5,0,0,0,61,59.34a11,11,0,0,0-2.81.62l-1.56.57Zm11.28-6.85c-.5,1.78-2.42,3-4.77,3A7.42,7.42,0,0,1,62,55a6.85,6.85,0,0,1-3.57-2.3,4,4,0,0,1-.84-3.55c.5-1.78,2.42-3,4.78-3a7.49,7.49,0,0,1,2,.29,7.36,7.36,0,0,1,2,.89,5.47,5.47,0,0,1,2.35,2.89A3.57,3.57,0,0,1,68.82,52.32Zm-2.74-9.55.37.19-.1.4a6.47,6.47,0,0,0-.2,1l-.07.63-.6-.19c-.2-.07-.41-.12-.61-.17l-.9-.22.65-.65.55-.57.2-.25.26-.32.45.1-.24.46ZM63,39.14a6.23,6.23,0,0,0,1,1.79l.21.28-.19.3a7.28,7.28,0,0,1-1.88,2,6.88,6.88,0,0,1-4,1.42A4.08,4.08,0,0,1,55,43.73l-.19-.2.07-.27a5.87,5.87,0,0,0,.07-2.47,6.71,6.71,0,0,0-.37-1.32l-.08-.21.1-.2a5.37,5.37,0,0,1,.36-.66l.22-.35.39.14a6.7,6.7,0,0,0,3.67.16,6,6,0,0,0,2.49-1.26l1-.93v1.17A6,6,0,0,0,63,39.14ZM56.19,27.45A4.37,4.37,0,0,1,60.8,27c1.5.87,2.2,2.82,1.79,5a7.45,7.45,0,0,1-2.24,4,5.39,5.39,0,0,1-3.47,1.56h-.07l-.49,0-.91-.11.56-.72.25-.33a6,6,0,0,0,1-2.61c0-.23,0-.46,0-.69a10.06,10.06,0,0,0-1-4.41c-.08-.18-.17-.35-.26-.53l-.21-.4Zm-6.47-.58a3.87,3.87,0,0,1,3,.64,6.08,6.08,0,0,1,2.13,2.62,8.06,8.06,0,0,1,.5,1.48,7.09,7.09,0,0,1-.14,3.67,4.92,4.92,0,0,1-.34.81,4.26,4.26,0,0,1-.78,1.11,3.79,3.79,0,0,1-.62.53l-.12.07a3.5,3.5,0,0,1-1.09.45,3,3,0,0,1-.73.08A3.84,3.84,0,0,1,50,38a5.32,5.32,0,0,1-1-.62,6.86,6.86,0,0,1-2.32-3.89,7.56,7.56,0,0,1-.17-1.84C46.54,29.21,47.85,27.28,49.72,26.87ZM46.23,38.25,46,36.9l1,.75a5.17,5.17,0,0,0,.75.55,6.55,6.55,0,0,0,4.16.9l.34,0,.17.3a8.48,8.48,0,0,1,.43.85,6.85,6.85,0,0,1,.55,2.69,4.34,4.34,0,0,1-1.36,3.3,3.43,3.43,0,0,1-.54.4,3.61,3.61,0,0,1-1.8.47,5.74,5.74,0,0,1-4.2-2.21,9.33,9.33,0,0,1-.69-1l-.19-.32.24-.29a3.32,3.32,0,0,0,.37-.47A6.39,6.39,0,0,0,46.23,38.25ZM35,35.79c1.13-1.64,3.74-2.09,6.09-1a9.57,9.57,0,0,1,1.22.68A6.81,6.81,0,0,1,45,38.8a4.12,4.12,0,0,1,0,3,3.37,3.37,0,0,1-.32.59,3.57,3.57,0,0,1-1.44,1.22,4.58,4.58,0,0,1-1.14.34,5,5,0,0,1-.87.07,6.24,6.24,0,0,1-1.48-.18l-.2,0-.12-.18a6.8,6.8,0,0,0-1.79-1.88,5.63,5.63,0,0,0-2-.92l-.21,0-.11-.19c-.07-.12-.14-.24-.2-.36A4.23,4.23,0,0,1,35,35.79ZM29.68,44a7,7,0,0,1,3.15-1.46,6.76,6.76,0,0,1,1-.13,5.83,5.83,0,0,1,4.63,1.53,3.55,3.55,0,0,1,1,1.8c.38,2.12-1.21,4.28-3.77,5.2a7.94,7.94,0,0,1-2.54.44,6.77,6.77,0,0,1-1-.07A6.48,6.48,0,0,1,30.68,51l-.12-.07-.82-.42A3.79,3.79,0,0,1,28,48,4.24,4.24,0,0,1,29.68,44Zm.93,20.33-.25.58-.52-.36a7.22,7.22,0,0,1-2.17-2.44c-1.56-2.81-1.08-6.06,1.06-7.25a3.52,3.52,0,0,1,1.73-.43,6.07,6.07,0,0,1,5,3.39,7.36,7.36,0,0,1,.62,1.48l.17.56-.57.1a7.91,7.91,0,0,0-.81.19,6,6,0,0,0-2.39,1.43A8.29,8.29,0,0,0,30.61,64.33Zm5.72,7.35-.13.25-.28,0H35.6a3.42,3.42,0,0,1-1.55-.35,4.46,4.46,0,0,1-2.15-4.69,7.27,7.27,0,0,1,.57-2.16l.14-.33a6.84,6.84,0,0,1,3-3.12,4.17,4.17,0,0,1,2.92-.41,3.1,3.1,0,0,1,.67.24c1.7.85,2.51,3,2.06,5.33l-.05.24-.23.12a8.52,8.52,0,0,0-1.2.75,11.16,11.16,0,0,0-2.1,2.08A14,14,0,0,0,36.33,71.68Zm10.09,4.26A7.43,7.43,0,0,1,44,77.3a5.72,5.72,0,0,1-1.83.31,3.9,3.9,0,0,1-3.07-1.32,3.61,3.61,0,0,1-.82-2,6,6,0,0,1,1.87-4.58c.18-.18.36-.35.56-.52a7.14,7.14,0,0,1,2.05-1.22l.13-.05a5.15,5.15,0,0,1,3.82,0,3.54,3.54,0,0,1,1.31,1,3.12,3.12,0,0,1,.37.55,4,4,0,0,1,.38,2.74,6.12,6.12,0,0,1-.91,2.23,7.4,7.4,0,0,1-1.16,1.36C46.59,75.79,46.51,75.87,46.42,75.94Zm6.07,3.82a3.62,3.62,0,0,1-1.38.28,5.11,5.11,0,0,1-3.67-1.83l-.36-.39.41-.35a8.26,8.26,0,0,0,1.74-2A6.17,6.17,0,0,0,50,73l0-.25.2-.14a6.09,6.09,0,0,0,1.85-2l.36-.59.46.5a7.23,7.23,0,0,1,1.38,2.13C55.54,75.61,54.73,78.8,52.49,79.76Zm4.34-10.22-.3.32-.36-.24a3.7,3.7,0,0,1-1.56-2c-.72-2.34,1.18-5,4.25-6a6.14,6.14,0,0,1,6,1.05l.49.48-.6.34a4,4,0,0,0-.44.27A6.29,6.29,0,0,0,62,67.11l-.12.38-.59,0H61A6.41,6.41,0,0,0,56.83,69.54Zm8.84,6.52c-.54,2.2-2,3.71-3.82,3.84H61.6c-2.35,0-4.37-2.42-4.59-5.5a7.31,7.31,0,0,1,.15-2.15,6,6,0,0,1,1.31-2.66A3.74,3.74,0,0,1,61,68.28h.65l0,.51a7.32,7.32,0,0,0,0,.81,7.25,7.25,0,0,0,.17.93,7.39,7.39,0,0,0,.67,1.63,10.77,10.77,0,0,0,2.15,2.72c.24.22.5.43.76.64l.26.2Zm7-3.46A3.51,3.51,0,0,1,71.47,74a3.59,3.59,0,0,1-2.11.65,4.55,4.55,0,0,1-1.25-.18,6.81,6.81,0,0,1-3.62-2.67l-.09-.13a7.07,7.07,0,0,1-1.2-3.24,5.17,5.17,0,0,1,0-1,3.93,3.93,0,0,1,1.4-2.77,1.33,1.33,0,0,1,.17-.14l.33-.2a3.67,3.67,0,0,1,1.78-.44H67a5.93,5.93,0,0,1,3.84,1.84,8.08,8.08,0,0,1,.86,1,7.56,7.56,0,0,1,1.13,2.43A5.24,5.24,0,0,1,72.62,72.6Zm4.21-4.53a3.65,3.65,0,0,1-1.12,1.09l-.55.34L75,68.88c-.11-.32-.23-.63-.36-.94a9.72,9.72,0,0,0-2.93-4l-.21-.16a6,6,0,0,0-2.59-1,7.21,7.21,0,0,0-1.46,0l-1,.07.46-.83c0-.09.07-.15.1-.19a4,4,0,0,1,3.15-1.73,6.59,6.59,0,0,1,2,.19l.25.06.1.24a5.71,5.71,0,0,0,4.17,3.53l.26.06.1.26A4,4,0,0,1,76.83,68.07ZM75.16,54.82a6.51,6.51,0,0,1,4.63-2.27,3.76,3.76,0,0,1,2.57.94,4,4,0,0,1,1.17,3.45,6.85,6.85,0,0,1-1.81,3.84,7.2,7.2,0,0,1-2.63,1.86,5.39,5.39,0,0,1-2,.41,3.76,3.76,0,0,1-2.56-.94,4.09,4.09,0,0,1-1.12-3.78A7,7,0,0,1,75.16,54.82Zm2.7-12.54c1.09,2.19-.37,5.13-3.25,6.56a7.76,7.76,0,0,1-2.11.68l-.28,0-.19-.2a17.18,17.18,0,0,0-4.59-3.69l-.34-.18,0-.4a4.59,4.59,0,0,1,.52-1.4l.16-.31.45.06.38,0a9.59,9.59,0,0,0,5-1.36,13.46,13.46,0,0,0,2-1.4l.26-.21.3.15A3.73,3.73,0,0,1,77.86,42.28Z"/><polygon class="cls-2" points="64.91 64.99 64.91 64.99 64.91 64.99 64.91 64.99"/></g></g></svg>