<svg xmlns="http://www.w3.org/2000/svg" viewBox="0 0 68.6 123.77"><defs><style>.cls-1{fill:#9b1b21;}</style></defs><g id="Capa_2" data-name="Capa 2"><g id="Icons"><path class="cls-1" d="M52.73,50.64l-.11-.13a1.25,1.25,0,0,0-.24-.38,1.08,1.08,0,0,0-.5-.26l-.15-.06a30.58,30.58,0,0,0-8-4.62L43.14,45l.35-.52c2.69-4,5.63-6.12,8.75-6.39,4.85-.4,8.71,3.79,9.14,4.27a1.09,1.09,0,0,0,1.37.24,1.07,1.07,0,0,0,.48-1.29c-.15-.44-3.82-10.72-10.92-13.06a8.84,8.84,0,0,0-3.25-.47l-1.54.06,1.21-1a26.44,26.44,0,0,1,12.48-5.43,1.08,1.08,0,0,0,.29-2.05C56.07,16.79,49,18.65,45.32,20l-.87.31.21-.9A68,68,0,0,1,50.47,4.3a1.08,1.08,0,0,0-1.53-1.42,33,33,0,0,0-9.45,8.27l-.58.77L35.33.75a1.08,1.08,0,0,0-2.06,0L29.69,11.92l-.58-.77a33.19,33.19,0,0,0-9.45-8.27,1.09,1.09,0,0,0-1.3.13,1.11,1.11,0,0,0-.23,1.29,67.85,67.85,0,0,1,5.81,15.11l.21.9L23.28,20c-3.71-1.35-10.75-3.21-16.18-.63a1.09,1.09,0,0,0-.61,1.13,1.07,1.07,0,0,0,.91.92,26.6,26.6,0,0,1,12.45,5.43l1.17.93-1.49,0a9.68,9.68,0,0,0-3.24.48C9.18,30.56,5.52,40.84,5.37,41.28a1.08,1.08,0,0,0,.48,1.29,1.1,1.1,0,0,0,1.37-.23c.43-.49,4.31-4.69,9.14-4.28,3.12.27,6.06,2.42,8.75,6.39l.35.52-.59.22C16.74,48.32,9.77,55.35,5.24,65l-.11.22A57.92,57.92,0,0,0,0,89.34a54.86,54.86,0,0,0,.33,5.75,1.82,1.82,0,0,0,0,.42c.2,1.61.44,3.08.73,4.4v.17a1.06,1.06,0,0,0,.2,1l.08.15a30.75,30.75,0,0,0,5.42,11.39c.05.06.07.1.1.14v0l.11.07a27.06,27.06,0,0,0,9.91,7.58l.21.08a38.06,38.06,0,0,0,11.16,2.89l.17,0h.14a53.87,53.87,0,0,0,5.68.32c15.12,0,25.79-5.78,30.86-16.71a1.37,1.37,0,0,0,.16-.37l0-.08A42.44,42.44,0,0,0,68.6,89.34c0-.83,0-1.67-.06-2.58C67.92,72.1,62,58.6,52.73,50.64ZM23.09,81l7.08-7.08L37.25,81,30.17,88Zm5.54,8.62-7.08,7.08-7.07-7.08,7.07-7.08ZM31.7,72.34l7.08-7.08,7.08,7.08-7.08,7.08Zm7.08,10.15,7.08,7.08-7.08,7.08L31.7,89.57ZM40.32,81l7.07-7.08L54.47,81,47.39,88Zm0-17.22,7.07-7.08,7.08,7.08-7.08,7.08Zm-1.54-1.54L31.7,55.11,38.78,48l7.08,7.08Zm-1.53,1.54-7.08,7.08-7.08-7.08,7.08-7.08Zm-8.62,8.61-7.08,7.08-7.07-7.08,7.07-7.08ZM20,81,12.94,88,5.86,81l7.08-7.08Zm0,17.23-7.08,7.08L5.86,98.18l7.08-7.08Zm1.53,1.53,7.08,7.08-7.07,7.08-7.08-7.08Zm1.54-1.53,7.08-7.08,7.08,7.08-7.08,7.08Zm15.69,1.53,7.08,7.08-7.08,7.08-7.08-7.08Zm1.54-1.53,7.07-7.08,7.08,7.08-7.08,7.08Zm8.61-8.61L56,82.49l7.08,7.08L56,96.65Zm0-17.23L56,65.26l7.08,7.08L56,79.42Zm10.71-9.82c.69,1.21,1.37,2.54,2,3.94L62.78,69l-5.24-5.23L59.32,62Zm-7.72-9.73a37.5,37.5,0,0,1,6,6.94l.23.34L56,62.19l-7.08-7.08,2.64-2.64Zm-2.51-2,.48.35-2.5,2.49-7.33-7.34,2,.69A27.46,27.46,0,0,1,49.41,50.74ZM16.53,35.89a11.39,11.39,0,0,0-5.59,1l-1.56.71.93-1.43c2-3.16,4.29-5.16,6.67-5.95s5-.29,7.69,1.58A1.09,1.09,0,0,0,26,31.73a1.1,1.1,0,0,0,.16-1.36,26.44,26.44,0,0,0-11.51-9.11l-2.82-1.2,3.06.24a32.67,32.67,0,0,1,10.12,2.77A1.09,1.09,0,0,0,26.61,22c0-.2-.44-4.93-3.94-13.14l-.86-2L23.46,8.3A23.91,23.91,0,0,1,29,15a1.08,1.08,0,0,0,1,.62,1.06,1.06,0,0,0,1-.75L34.3,4.64l3.28,10.23a1.06,1.06,0,0,0,1,.75A1.1,1.1,0,0,0,39.6,15,23.43,23.43,0,0,1,45.14,8.3l1.65-1.44-.86,2C42.43,17.08,42,21.81,42,22a1.09,1.09,0,0,0,1.56,1.06,32.22,32.22,0,0,1,10.14-2.78l3.05-.23-2.82,1.19A26.49,26.49,0,0,0,42.4,30.37a1.11,1.11,0,0,0,.17,1.37,1.09,1.09,0,0,0,1.36.11c2.73-1.86,5.25-2.38,7.69-1.58s4.63,2.79,6.67,5.95l.93,1.43-1.56-.71a11.19,11.19,0,0,0-5.58-1c-4,.34-7.66,3.07-10.87,8.11l-.2.31-.35-.09a25.6,25.6,0,0,0-12.72,0l-.35.09-.2-.31C24.19,39,20.53,36.23,16.53,35.89ZM25,47.46a24.15,24.15,0,0,1,9.27-1.88,15.32,15.32,0,0,1,1.54.1l.64.06.77.76-7.08,7.08-5.84-5.84ZM14.75,54.69A31.59,31.59,0,0,1,22,49l.34-.19,6.34,6.35-7.08,7.08L14.41,55ZM7.61,65a42.57,42.57,0,0,1,5-7.88l.35-.44,7,7-7.08,7.08L7.45,65.32ZM3.29,78.07a53.3,53.3,0,0,1,2.93-9.94l.28-.7,4.91,4.91L4.33,79.42,3.24,78.33ZM2.42,94.58c-.17-1.74-.25-3.46-.25-5.24,0-1.53.06-3.07.19-4.72l0-.18,2-2,7.08,7.08L4.33,96.65,2.44,94.76Zm5.41,15.79-.34-.5a28.73,28.73,0,0,1-4-9l-.07-.28.88-.88,7.08,7.08ZM16.92,118a24.59,24.59,0,0,1-7.42-5.59l-.32-.35,3.76-3.76L20,115.41l-2.78,2.78Zm6.85,2.43a34.63,34.63,0,0,1-3.65-1.07l-.75-.27,2.19-2.18,3.92,3.93Zm7.17,1h0c-.58,0-1.15-.08-1.73-.13l-.18,0-5.93-5.93,7.08-7.08,7.08,7.08-6.08,6.08Zm10.83-.43a48.48,48.48,0,0,1-6.42.53l-1.24,0,4.67-4.67,4,4Zm12.81-4.7a29.26,29.26,0,0,1-9,3.93l-.28.07-5-5,7.07-7.08L55.08,116ZM62.8,107a24.48,24.48,0,0,1-5.64,7.36l-.35.31-7.88-7.88L56,99.71l7,7Zm3.5-14a39.64,39.64,0,0,1-2.12,10.79l-.27.74-6.37-6.37,7.08-7.08,1.69,1.69Zm-1.68-5L57.54,81l6.85-6.85.22.85a57.28,57.28,0,0,1,1.7,11.16v.22Z"/></g></g></svg>