<svg xmlns="http://www.w3.org/2000/svg" viewBox="0 0 59.21 82.09"><defs><style>.cls-1{fill:#2e213c;}</style></defs><g id="Capa_2" data-name="Capa 2"><g id="Icons"><path class="cls-1" d="M35.41,39.55a1.08,1.08,0,0,1-.77-.34,11.11,11.11,0,0,1-2.8-7.37c0-1.71,1.5-2.95,3.57-2.95S39,30.13,39,31.84a11.06,11.06,0,0,1-2.8,7.37A1,1,0,0,1,35.41,39.55Zm0-8.61c-.42,0-1.52.16-1.52.9a9,9,0,0,0,1.52,5,9.08,9.08,0,0,0,1.51-5C36.92,31.1,35.83,30.94,35.41,30.94Z"/><path class="cls-1" d="M35.41,74.37a1,1,0,0,1-.77-.34,11.11,11.11,0,0,1-2.8-7.37c0-1.71,1.5-2.95,3.57-2.95S39,65,39,66.66A11.06,11.06,0,0,1,36.17,74,1,1,0,0,1,35.41,74.37Zm0-8.61c-.42,0-1.52.16-1.52.9a9,9,0,0,0,1.52,5,9.08,9.08,0,0,0,1.51-5C36.92,65.92,35.83,65.76,35.41,65.76Z"/><path class="cls-1" d="M43.39,50.25a1,1,0,0,1-.77-.35,11.08,11.08,0,0,1-2.8-7.36c0-1.71,1.5-2.95,3.57-2.95S47,40.83,47,42.54a11,11,0,0,1-2.8,7.36A1,1,0,0,1,43.39,50.25Zm0-8.62c-.43,0-1.52.16-1.52.91a9,9,0,0,0,1.52,5,9,9,0,0,0,1.51-5C44.9,41.79,43.81,41.63,43.39,41.63Z"/><path class="cls-1" d="M43.39,64.32a1.06,1.06,0,0,1-.77-.34,11.11,11.11,0,0,1-2.8-7.37c0-1.71,1.5-3,3.57-3S47,54.9,47,56.61A11.06,11.06,0,0,1,44.15,64,1.05,1.05,0,0,1,43.39,64.32Zm0-8.62c-.43,0-1.52.17-1.52.91a9,9,0,0,0,1.52,5,9.08,9.08,0,0,0,1.51-5C44.9,55.87,43.81,55.7,43.39,55.7Z"/><path class="cls-1" d="M30.31,82.09l-.77,0-.64,0C16.44,82.09,5.77,63,1.63,50.2.4,46.37-1.94,36.71,3.08,29.82c3.45-4.74,9.57-7.14,18.18-7.14H38c8.62,0,14.73,2.4,18.18,7.14,5,6.89,2.69,16.55,1.45,20.38C53.44,63,42.77,82.09,30.31,82.09ZM29.54,80l.77,0c10.06,0,20.56-15.71,25.32-30.48C56.77,46,58.94,37.15,54.48,31c-3-4.17-8.6-6.29-16.53-6.29H21.26c-7.92,0-13.48,2.12-16.53,6.3C.27,37.15,2.44,46,3.58,49.57,8.45,64.65,19.23,80.65,29.54,80Z"/><path class="cls-1" d="M23.81,39.55a1.06,1.06,0,0,1-.77-.34,11.11,11.11,0,0,1-2.8-7.37c0-1.71,1.5-2.95,3.57-2.95s3.56,1.24,3.56,2.95a11.06,11.06,0,0,1-2.8,7.37A1,1,0,0,1,23.81,39.55Zm0-8.61c-.43,0-1.52.16-1.52.9a9,9,0,0,0,1.52,5,9.08,9.08,0,0,0,1.51-5C25.32,31.1,24.23,30.94,23.81,30.94Z"/><path class="cls-1" d="M38.81,24.73a1,1,0,1,1,0-2.05c5.7,0,8.21-3.45,10.63-6.79l.17-.22c-3.88-.92-9.07,1.71-11.49,4.18a1,1,0,0,1-1.54-1.34c1.86-2.38,2.22-5.19,1.14-9-5.22,1.89-6.47,3.08-7.1,8.39a1,1,0,0,1-1,.9h0a1,1,0,0,1-1-.9c-.63-5.31-1.88-6.5-7.09-8.39-1.09,3.84-.73,6.65,1.13,9a1,1,0,0,1-1.54,1.34c-2.42-2.48-7.6-5.1-11.48-4.18l.16.22c2.42,3.34,4.93,6.79,10.64,6.79a1,1,0,0,1,0,2.05c-6.76,0-9.83-4.23-12.3-7.63q-.48-.68-1-1.32A1,1,0,0,1,7,14.92a1,1,0,0,1,.55-.68c3.62-1.74,8.17-.46,11.58,1.54a14.94,14.94,0,0,1,.76-7.95,1,1,0,0,1,.52-.59,1,1,0,0,1,.79,0c4.65,1.63,7.13,2.81,8.44,6,1.3-3.2,3.78-4.38,8.43-6a1,1,0,0,1,.79,0,1,1,0,0,1,.52.59,15,15,0,0,1,.76,8c3.42-2,8-3.29,11.58-1.55a1,1,0,0,1,.38,1.54c-.33.43-.65.87-1,1.32C48.63,20.5,45.56,24.73,38.81,24.73Z"/><path class="cls-1" d="M15.83,50.25a1,1,0,0,1-.76-.35,11,11,0,0,1-2.81-7.36c0-1.71,1.5-2.95,3.57-2.95s3.56,1.24,3.56,2.95a11,11,0,0,1-2.8,7.36A1,1,0,0,1,15.83,50.25Zm0-8.62c-.42,0-1.52.16-1.52.91a9,9,0,0,0,1.52,5,9.06,9.06,0,0,0,1.52-5C17.35,41.79,16.25,41.63,15.83,41.63Z"/><path class="cls-1" d="M29.61,59.36a1,1,0,0,1-.77-.35A11.08,11.08,0,0,1,26,51.65c0-1.71,1.5-2.95,3.57-2.95s3.56,1.24,3.56,2.95A11,11,0,0,1,30.37,59,1,1,0,0,1,29.61,59.36Zm0-8.62c-.43,0-1.52.17-1.52.91a9,9,0,0,0,1.52,5,9,9,0,0,0,1.51-5C31.12,50.91,30,50.74,29.61,50.74Z"/><path class="cls-1" d="M29.61,18.77a1,1,0,0,1-1-1C28.54,9.6,30,4.14,33.05,1.52A5.41,5.41,0,0,1,37.16,0a1,1,0,1,1-.29,2,3.53,3.53,0,0,0-2.54,1.08c-1.72,1.54-3.75,5.33-3.7,14.62a1,1,0,0,1-1,1Z"/></g></g></svg>