<svg xmlns="http://www.w3.org/2000/svg" viewBox="0 0 86.71 76.96"><defs><style>.cls-1{fill:none;}.cls-2{fill:#9b1b21;}</style></defs><g id="Capa_2" data-name="Capa 2"><g id="Icons"><path class="cls-1" d="M54,57.3c-1.14-2-2.39-4.29-3.92-7.1-3-5.47-6.7-12.28-10.68-18.59l0-.05,0-.06c-8-12.7-15-19.78-21.18-21.58-2.91,12.39,14.44,40.46,24,52.15,5,6.15,10.16,9.91,15.28,11.25-5.06-2-10-5.87-14.78-11.68a1.79,1.79,0,0,1,2.77-2.27c4.85,5.91,9.82,9.65,14.79,11.12a1.77,1.77,0,0,1,.2,3.34c.41,0,.81,0,1.22,0a15.72,15.72,0,0,0,7-1.66,31.62,31.62,0,0,1-11.19-9.47A49.94,49.94,0,0,1,54,57.3Z"/><path class="cls-1" d="M65.45,55.49a3.12,3.12,0,1,0-4.4,0A3.19,3.19,0,0,0,65.45,55.49Z"/><path class="cls-1" d="M47,37.18a3.66,3.66,0,0,0-.31-4.81,3.61,3.61,0,0,0-3.18-1C44.62,33.17,45.79,35.13,47,37.18Z"/><path class="cls-1" d="M63.9,60a17.89,17.89,0,0,0,4.76,1.32,5.66,5.66,0,0,1-1.17-2.82A6.65,6.65,0,0,1,63.9,60Z"/><path class="cls-1" d="M55.32,42.45a3.66,3.66,0,0,0-5.19,0,.45.45,0,0,0-.1.13h0c1.13,2.05,2.22,4,3.24,5.91l.09.16a3.66,3.66,0,0,0,2-6.2Z"/><path class="cls-1" d="M73.15,55.6a2.14,2.14,0,0,0-1.51,3.65,2.2,2.2,0,0,0,3,0,2.14,2.14,0,0,0,0-3A2.14,2.14,0,0,0,73.15,55.6Z"/><path class="cls-1" d="M41.43,28.1l.06.1a7.23,7.23,0,0,1,9.08,9.92,7.06,7.06,0,0,1,2.17-.33,7.24,7.24,0,0,1,6.69,10,7,7,0,0,1,6.36-.64c-1.73-1.76-3.7-3.88-5.91-6.26l-.17-.18c-5.4-5.79-12-12.91-18.83-18.88A7.28,7.28,0,0,1,41.43,28.1Z"/><path class="cls-1" d="M34.67,18.35a7.3,7.3,0,0,1,2.63.48,68.66,68.66,0,0,0-7.07-5.06q2,2,4.14,4.58Z"/><path class="cls-1" d="M56.71,54.74a6.38,6.38,0,0,1-.16-1.45A6.5,6.5,0,0,1,57,50.9a7.31,7.31,0,0,1-1.89,1C55.66,52.87,56.2,53.84,56.71,54.74Z"/><path class="cls-1" d="M71.54,52.29l-1.33-1c-.26-.21-.54-.44-.84-.71A6.6,6.6,0,0,1,69.94,53,5.56,5.56,0,0,1,71.54,52.29Z"/><path class="cls-1" d="M78.48,59.77a25.61,25.61,0,0,0,4.16-2.27,26.07,26.07,0,0,1-4-1.27,5.54,5.54,0,0,1,.21,1.5A5.6,5.6,0,0,1,78.48,59.77Z"/><path class="cls-2" d="M84.67,54.76a27.75,27.75,0,0,1-12.56-5.9c-2.18-1.7-5.76-5.54-9.91-10l-.07-.07C50.1,25.89,32,6.48,18.27,6.48l-.68,0h-.11l-.08-.07C13,2.1,9.18,0,5.84,0A7.53,7.53,0,0,0,.37,2.4a1.29,1.29,0,0,0,0,1.83,1.28,1.28,0,0,0,.91.37,1.33,1.33,0,0,0,.92-.39,4.92,4.92,0,0,1,3.6-1.63c2.57,0,5.78,1.85,9.57,5.5l.11.1,0,.15C10.65,23.79,33.84,56.71,39.83,64,46.87,72.61,54.23,77,61.7,77a18.76,18.76,0,0,0,9.73-2.74,2.42,2.42,0,0,0-.35-4.32,26.28,26.28,0,0,1-9.55-7.11l-.82-.93,1.12.54a20.39,20.39,0,0,0,8.91,2.1c6.76,0,12.3-3.39,15-5.41a2.42,2.42,0,0,0-1.07-4.33ZM68.31,49c.88.84,1.6,1.47,2.21,1.95s1.13.86,1.77,1.3l.5.35-.6.1a5.16,5.16,0,0,0-2.36,1.09l-.43.36,0-.56a.59.59,0,0,1,0-.14s0-.07,0-.11a6.09,6.09,0,0,0-1.5-4ZM28.64,12.27C39.36,18.15,51.33,31,60.08,40.38l.16.18c2.79,3,5.21,5.59,7.22,7.57l-.33.37a6.37,6.37,0,0,0-8.27.41L58.8,49l-.39-.3a6.74,6.74,0,0,0-8.27-9.87l-.7.28.39-.64a6.73,6.73,0,0,0-8.34-9.71l-.19.08-.43-.66.05-.12a6.77,6.77,0,0,0-1.5-7.27,6.7,6.7,0,0,0-5.15-1.91h-.13l-.08-.09a55.4,55.4,0,0,0-5.71-6.1l-1.57-1.42ZM57.57,55.75l.43,1L57.17,56c-.17-.15-.31-.26-.45-.37l-.14-.14c-.64-1.13-1.33-2.37-2-3.69l-.15-.27.29-.09a6.69,6.69,0,0,0,2.83-1.66l0-.06.09-.11L58,50a6.17,6.17,0,0,0-1,3.33A6,6,0,0,0,57.57,55.75Zm-4.32-6.57-.17,0-.25-.47c-1-1.91-2.15-3.95-3.32-6l-.08-.15.11-.13.07-.11.16-.21a4.18,4.18,0,1,1,3.48,7.09Zm-6.13-11.4-.23.25-.17-.29c-1.31-2.27-2.6-4.44-3.85-6.44L42.69,31l.33-.09a4.17,4.17,0,0,1,4.1,6.86ZM69.35,72l.46.2-.44.24a16.12,16.12,0,0,1-7.67,2c-6.66,0-13.34-4-19.87-12a160,160,0,0,1-17-26.28C20.63,27.82,16,16.5,17.77,9.55l.07-.24.24.06c6.39,1.71,13.49,8.88,21.73,21.89l0,.06c4,6.32,7.71,13.15,10.71,18.65,1.52,2.8,2.78,5.1,3.91,7.07a51.41,51.41,0,0,0,3.41,5.4A30.71,30.71,0,0,0,69.35,72ZM60.69,55.85a3.62,3.62,0,0,1,2.56-6.17,3.55,3.55,0,0,1,2.55,1.06,3.61,3.61,0,0,1-5.11,5.11Zm8.56,6a18.26,18.26,0,0,1-6.62-1.93l-1.12-.56,1.25.09.21,0,.28,0a6.16,6.16,0,0,0,4.28-1.73l.4-.38,0,.55a5.18,5.18,0,0,0,1.5,3.49l.48.49ZM75,59.6a2.72,2.72,0,0,1-3.73,0,2.64,2.64,0,0,1,1.87-4.5,2.61,2.61,0,0,1,1.86.77h0a2.62,2.62,0,0,1,0,3.73Zm8.4-2a26.54,26.54,0,0,1-5.33,2.88l-.62.25.31-.6a5.13,5.13,0,0,0,.6-2.39A5.27,5.27,0,0,0,78,55.88l-.21-.54.54.22a26.47,26.47,0,0,0,5,1.58l.57.11Z"/><path class="cls-2" d="M60.14,71c-5.06-1.5-10.12-5.29-15-11.29a1.27,1.27,0,0,0-1-.47,1.32,1.32,0,0,0-.82.29,1.31,1.31,0,0,0-.18,1.83c5.25,6.4,10.74,10.47,16.31,12.12a1.31,1.31,0,0,0,1.6-.88A1.28,1.28,0,0,0,60.14,71Z"/></g></g></svg>