<svg xmlns="http://www.w3.org/2000/svg" viewBox="0 0 83.55 98.14"><defs><style>.cls-1{fill:#2e213c;}</style></defs><g id="Capa_2" data-name="Capa 2"><g id="Icons"><path class="cls-1" d="M54.23,98.14a1,1,0,0,1-.47-.11,1,1,0,0,1-.51-.61,13.49,13.49,0,0,0-8.51-8,30.31,30.31,0,0,0-9.58-1.94,7.47,7.47,0,0,0-2.56.33,1,1,0,0,1-1.34-.52c-4-8.72-12.88-12.17-20-14.94-7-2.69-13-5-10.7-11.34,1-2.73,3.66-6,10.6-6a34.59,34.59,0,0,1,7.66,1C11.52,51.37,2.56,44.47,4,39.37c1.26-4.51,4-5.46,6.13-5.46a11.07,11.07,0,0,1,4.69,1.26c-1.28-3.72-2.94-10.21-.72-14.06A6.27,6.27,0,0,1,19.19,18c4.58-.49,7.88.41,10.23,2.77,3,3,4.35,8.32,4.34,17.22,0,11.62,12.62,22.71,15.68,25.23a12.81,12.81,0,0,0,3-5.94c.45-1.93-.71-2.74-4.13-4.55a27.16,27.16,0,0,1-8.42-6.18c-2.46-2.85-3.22-6.08-2-8.66a6.28,6.28,0,0,1,6-3.51A12.35,12.35,0,0,1,50,36.33a10.21,10.21,0,0,0,1.74.87c-.62-2.16-5.23-8.81-9.32-13.32-3.36-3.72-3.88-9.54-2.43-12.79.87-2,2.47-2.82,4.15-2.22a6.2,6.2,0,0,1,3.77,3.6C50.34,8.12,56,0,64,0a12.7,12.7,0,0,1,4.78,1,6.66,6.66,0,0,1,3.7,3.77c2.27,5.41-.4,14.59-1.94,19a6.66,6.66,0,0,1,5.39.69,2.62,2.62,0,0,1,1.36,1.87c.17,1.41-1,2.66-2.69,4.39a25.9,25.9,0,0,0-5.45,7.48c-2.26,5.13-2,16.7-1.58,23.14,1.76-3.76,4.93-8.59,9.6-8.59a7.75,7.75,0,0,1,3.45.86A4.33,4.33,0,0,1,83.14,57c.68,4.92-6.19,13-11.26,18.16a14.36,14.36,0,0,1,4.69-.91,6.93,6.93,0,0,1,6.51,3.89,4.23,4.23,0,0,1,.1,3.68c-3.13,7.71-27.59,15.95-28.63,16.3A1.25,1.25,0,0,1,54.23,98.14ZM35.16,85.41a32.7,32.7,0,0,1,10.25,2,15.76,15.76,0,0,1,9.41,8.37C62.24,93.27,79.08,86.46,81.29,81a2.23,2.23,0,0,0,0-2,4.86,4.86,0,0,0-4.69-2.78c-4.46,0-9.79,3.75-9.84,3.79a1,1,0,0,1-1.27-1.6c4.6-4.11,16.38-15.94,15.66-21.21a2.31,2.31,0,0,0-1.42-1.84,5.77,5.77,0,0,0-2.55-.65c-6,0-9.26,11.35-9.3,11.46a1,1,0,0,1-1.07.74,1,1,0,0,1-.93-.92c-.08-.85-2-21,1.41-28.7a27.72,27.72,0,0,1,5.85-8.07c1-1,2.18-2.28,2.12-2.73,0-.05-.1-.19-.41-.4a4.24,4.24,0,0,0-2.28-.68,5.77,5.77,0,0,0-3.25,1.16,1,1,0,0,1-1.59-1.19c0-.13,5.55-13.55,2.88-19.91A4.63,4.63,0,0,0,68,2.86a10.8,10.8,0,0,0-4-.81c-9.38,0-15.47,13.74-15.53,13.88a1,1,0,0,1-2-.43c0-.15,0-3.62-3-4.71-.84-.29-1.36.6-1.59,1.12-1,2.28-.85,7.36,2.08,10.59.11.13,11.18,12.73,9.76,15.93-.54,1.22-2,1.32-4.75-.34-4-2.39-8.05-2-9.26.68-.84,1.83-.19,4.25,1.72,6.47A25.43,25.43,0,0,0,49.25,51c3.09,1.64,6,3.19,5.16,6.82-1.29,5.47-4.22,7.57-4.35,7.66a1,1,0,0,1-1.2,0C48.16,64.87,31.7,52.19,31.71,38c0-8.2-1.18-13.21-3.74-15.78-1.89-1.89-4.69-2.59-8.57-2.18a4.28,4.28,0,0,0-3.53,2.07C13.65,26,16.5,34.3,17.78,37.19a1,1,0,0,1-1.56,1.23S13,36,10.12,36c-2,0-3.42,1.29-4.16,4C4.62,44.69,18.84,54.2,28.12,59.07a1,1,0,0,1-.89,1.85c-.08,0-8.86-3.88-16.12-3.88-4.63,0-7.55,1.56-8.68,4.65-1.56,4.22,2.19,5.9,9.51,8.72S28.3,76.72,32.75,85.62A12.41,12.41,0,0,1,35.16,85.41Z"/><path class="cls-1" d="M17.87,75l-.21,0a1,1,0,0,1-.79-1.22,25.25,25.25,0,0,1,2.83-8,1,1,0,0,1,1.41-.31,1,1,0,0,1,.31,1.42,24,24,0,0,0-2.55,7.33A1,1,0,0,1,17.87,75Z"/><path class="cls-1" d="M11.71,65.34a1,1,0,0,1-1-1,14.31,14.31,0,0,1,3.05-8.74,1,1,0,0,1,1.57,1.31,12.37,12.37,0,0,0-2.57,7.38,1,1,0,0,1-1,1Z"/><path class="cls-1" d="M24.25,52.59a1,1,0,0,1-.61-.2A1,1,0,0,1,23.43,51c.15-.19,3.58-4.74,7.62-5.54a1,1,0,0,1,.4,2c-3.26.65-6.35,4.71-6.38,4.76A1,1,0,0,1,24.25,52.59Z"/><path class="cls-1" d="M32.72,37.28a1,1,0,0,1-.29,0c-4.81-1.41-6.94-.14-7-.12a1,1,0,0,1-1.41-.31,1,1,0,0,1,.28-1.4c.29-.19,2.94-1.81,8.67-.13a1,1,0,0,1-.29,2Z"/><path class="cls-1" d="M14.51,31.29a1,1,0,0,1-.9-.54A1,1,0,0,1,14,29.37C18.54,26.92,21.77,27,21.92,27a1,1,0,0,1,1,1.07,1,1,0,0,1-1.07,1A15.27,15.27,0,0,0,15,31.16,1,1,0,0,1,14.51,31.29Z"/><path class="cls-1" d="M45.52,51a1,1,0,0,1-.37-.07,1,1,0,0,1-.58-1.33c2.06-5.17,4.34-6.35,4.6-6.47A1,1,0,1,1,50,45h0s-1.81,1-3.56,5.37A1,1,0,0,1,45.52,51Z"/><path class="cls-1" d="M66.39,48.91a1,1,0,0,1-.81-.4c-2.86-3.79-7.73-2.61-7.94-2.56a1,1,0,0,1-.51-2c.26-.06,6.38-1.58,10.08,3.31a1,1,0,0,1-.2,1.44A1,1,0,0,1,66.39,48.91Z"/><path class="cls-1" d="M50.46,33.69a1,1,0,0,1-.63-.22A1,1,0,0,1,49.65,32a11.76,11.76,0,0,1,12.57-4.35A1,1,0,0,1,62.86,29a1,1,0,0,1-1.29.65,9.58,9.58,0,0,0-10.31,3.66A1,1,0,0,1,50.46,33.69Z"/><path class="cls-1" d="M70.72,20.7a1,1,0,0,1-.74-.31c-3.49-3.66-11-3.82-11-3.82a1,1,0,0,1,0-2.05h0c.34,0,8.4.18,12.47,4.45a1,1,0,0,1,0,1.45A1,1,0,0,1,70.72,20.7Z"/><path class="cls-1" d="M29.76,83.79a.82.82,0,0,1-.26,0,1,1,0,0,1-.73-1.25C31.65,71.76,38.71,67.08,39,66.89a1,1,0,0,1,1.41.3,1,1,0,0,1-.3,1.41c-.06.05-6.71,4.48-9.37,14.43A1,1,0,0,1,29.76,83.79Z"/><path class="cls-1" d="M69.54,76.28a1,1,0,0,1-1-.63c-1.45-3.44-8.25-5.53-10.75-6.05a1,1,0,0,1-.79-1.2,1,1,0,0,1,1.21-.8c.4.08,10.05,2.13,12.22,7.26a1,1,0,0,1-.55,1.34A1.09,1.09,0,0,1,69.54,76.28Z"/><path class="cls-1" d="M61.45,95.45a1,1,0,0,1-1-.84c-1.29-7.15-5.19-8.56-5.36-8.62a1,1,0,0,1-.65-1.29,1,1,0,0,1,1.28-.65c.21.06,5.23,1.75,6.74,10.2a1,1,0,0,1-.83,1.19Z"/></g></g></svg>