<svg xmlns="http://www.w3.org/2000/svg" viewBox="0 0 117.76 120.55"><defs><style>.cls-1{fill:#9b1b21;stroke:#9b1b21;stroke-miterlimit:10;}</style></defs><g id="Capa_2" data-name="Capa 2"><g id="Icons"><path class="cls-1" d="M25.31,94.59a.5.5,0,0,1-.36-.14.51.51,0,0,1,0-.71l64.5-64.5a.5.5,0,1,1,.71.71l-64.5,64.5A.47.47,0,0,1,25.31,94.59Z"/><path class="cls-1" d="M65.8,54.1a.5.5,0,0,1-.36-.14.51.51,0,0,1,0-.71c6-6,5.56-25.39,5.56-25.58a.5.5,0,0,1,.48-.52h0a.51.51,0,0,1,.5.49c0,.81.47,20-5.85,26.32A.47.47,0,0,1,65.8,54.1Z"/><path class="cls-1" d="M51.75,68.15A.5.5,0,0,1,51.4,68a.5.5,0,0,1,0-.71C60,58.7,53,37.39,53,37.17a.5.5,0,0,1,.31-.63.51.51,0,0,1,.64.32,65.37,65.37,0,0,1,2.52,12.08c.93,8.84-.52,15.25-4.33,19.06A.51.51,0,0,1,51.75,68.15Z"/><path class="cls-1" d="M42.06,77.85a.51.51,0,0,1-.36-.15.51.51,0,0,1,0-.71c7-7,4-20.23,4-20.36a.5.5,0,0,1,.38-.6.51.51,0,0,1,.6.38c.12.56,3.08,13.93-4.28,21.29A.49.49,0,0,1,42.06,77.85Z"/><path class="cls-1" d="M56.16,52.29a.5.5,0,0,1-.5-.43c-1.09-8.52,4.86-12.44,4.92-12.48a.5.5,0,0,1,.69.15.49.49,0,0,1-.15.69c-.22.15-5.48,3.64-4.47,11.51a.5.5,0,0,1-.43.56Z"/><path class="cls-1" d="M65.8,54.1a.5.5,0,0,1-.36-.14.51.51,0,0,1,0-.71c6.32-6.32,25.5-5.87,26.32-5.85a.5.5,0,0,1,.49.52.49.49,0,0,1-.51.48c-.2,0-19.57-.46-25.59,5.56A.47.47,0,0,1,65.8,54.1Z"/><path class="cls-1" d="M51.75,68.15A.5.5,0,0,1,51.4,68a.5.5,0,0,1,0-.71C55.21,63.49,61.62,62,70.47,63a64.42,64.42,0,0,1,12.08,2.53.49.49,0,0,1,.31.63.51.51,0,0,1-.63.32c-.21-.08-21.53-7-30.12,1.56A.51.51,0,0,1,51.75,68.15Z"/><path class="cls-1" d="M42.06,77.85a.51.51,0,0,1-.36-.15.51.51,0,0,1,0-.71c7.36-7.35,20.73-4.4,21.29-4.27a.5.5,0,0,1,.38.6.5.5,0,0,1-.6.37c-.13,0-13.4-3-20.36,4A.49.49,0,0,1,42.06,77.85Z"/><path class="cls-1" d="M69.6,63.88a16.43,16.43,0,0,1-2-.14.5.5,0,0,1-.44-.56.52.52,0,0,1,.56-.43c7.88,1,11.37-4.25,11.51-4.47a.5.5,0,1,1,.84.54A12.68,12.68,0,0,1,69.6,63.88Z"/><path class="cls-1" d="M16.72,113.42c-.32,0-.63,0-.95,0A10.73,10.73,0,0,1,7.89,96.57,10.67,10.67,0,0,1,12.07,93c8.08-3.83,13.8-8.54,17.47-14.39,7.11-11.31,9.84-20.86,8.13-28.38a8.95,8.95,0,0,1,7.8-10.89,12,12,0,0,1,14-13.6,12.55,12.55,0,0,1,2.33-3.55A13.11,13.11,0,0,1,81.58,23.7a9.6,9.6,0,0,1,8.11-2.44,9.74,9.74,0,0,1,7.17,5.44,9.42,9.42,0,0,1-1.71,10.56,13.58,13.58,0,0,1,3.18,3.36c3.7,5.51,2.38,13.15-3.08,17.76a10.77,10.77,0,0,1-1.89,1.31,12.06,12.06,0,0,1-3.14,11h0A11.86,11.86,0,0,1,80,73.93a8.95,8.95,0,0,1-10.88,7.8c-7-1.58-15.75.67-26,6.71-7.82,4.58-13.65,11-16.42,18.19a10.71,10.71,0,0,1-10,6.79ZM57.24,26.54a11.06,11.06,0,0,0-7.77,3.35,10.87,10.87,0,0,0-2.92,9.84.51.51,0,0,1-.1.41.5.5,0,0,1-.38.19A7.94,7.94,0,0,0,38.64,50c1.78,7.79-1,17.6-8.25,29.14-3.78,6-9.63,10.85-17.89,14.76a9.64,9.64,0,0,0-3.79,3.22A9.74,9.74,0,0,0,23.6,109.57a9.61,9.61,0,0,0,2.15-3.3c2.86-7.36,8.84-14,16.85-18.69,10.54-6.17,19.55-8.47,26.78-6.82a7.88,7.88,0,0,0,7.35-2.11,7.77,7.77,0,0,0,2.34-5.32.54.54,0,0,1,.19-.38.51.51,0,0,1,.41-.1,10.84,10.84,0,0,0,9.84-2.92A11.09,11.09,0,0,0,92.3,59.54a.5.5,0,0,1,.27-.57,9.56,9.56,0,0,0,2-1.35c5.07-4.28,6.31-11.35,2.89-16.45a12.44,12.44,0,0,0-3.4-3.42.47.47,0,0,1-.22-.37A.52.52,0,0,1,94,37l.17-.16A8.44,8.44,0,0,0,96,27.15a8.72,8.72,0,0,0-6.44-4.9A8.6,8.6,0,0,0,82,24.65l-.17.17a.52.52,0,0,1-.4.14.49.49,0,0,1-.37-.22,11.8,11.8,0,0,0-1.5-1.82,12.13,12.13,0,0,0-17.14,0,12.81,12.81,0,0,0-2.3,3.63.48.48,0,0,1-.57.27A10.32,10.32,0,0,0,57.24,26.54ZM89.86,70.28h0Z"/><path class="cls-1" d="M103.36,25.65a.5.5,0,0,1-.5-.5,12.79,12.79,0,0,0-9-11.94,16.06,16.06,0,0,0-5.42-.83.48.48,0,0,1-.39-.17.49.49,0,0,1-.12-.4l0-.23a8.57,8.57,0,0,0-5-8.94,11,11,0,0,0-9.82,0,8.24,8.24,0,0,0-4.42,6l0,.23a.5.5,0,0,1-.65.4,15.72,15.72,0,0,0-2.61-.62C57.87,7.55,51,12,50,18.62a.52.52,0,0,1-.57.42.51.51,0,0,1-.42-.57c1.08-7.15,8.48-12,16.49-10.78a16.23,16.23,0,0,1,2.22.49A9.28,9.28,0,0,1,72.6,1.79a12,12,0,0,1,10.72-.06A9.59,9.59,0,0,1,89,11.38a17.06,17.06,0,0,1,5.17.88,13.78,13.78,0,0,1,9.73,12.88.51.51,0,0,1-.5.51Z"/><path class="cls-1" d="M19.75,120.05l-.66,0c-7.27-.32-15-6-17.63-12.89-2.14-5.64-.67-11.31,4.13-16A13.15,13.15,0,0,1,8.72,88.7C15.05,85.53,20.49,79.62,24,72c4.67-10,6-18.24,3.93-24.52A8.31,8.31,0,0,1,34.18,36.8a11,11,0,0,1,2.18-9.64,11.17,11.17,0,0,1,9.8-3.85,10,10,0,0,1,1-1.84C51,16,57.91,14.16,63.32,17.1c.39.21.69.35.93.46A4.28,4.28,0,0,1,66.11,19a.51.51,0,0,1-.07.71.49.49,0,0,1-.7-.08,3.29,3.29,0,0,0-1.51-1.17c-.26-.13-.58-.28-1-.49C57.88,15.28,51.51,17,48,22A9.07,9.07,0,0,0,47,24a.48.48,0,0,1-.54.33,10.19,10.19,0,0,0-9.28,3.44,10,10,0,0,0-1.84,9.27.52.52,0,0,1-.06.42.48.48,0,0,1-.36.22,7.3,7.3,0,0,0-6,9.51c2.14,6.53.81,15-4,25.25C21.3,80.24,15.7,86.33,9.17,89.59a12,12,0,0,0-2.86,2.28C1.79,96.26.4,101.54,2.39,106.78c2.49,6.56,9.84,12,16.74,12.25a10.51,10.51,0,0,0,10.46-6.25c4.78-9.85,13.69-15.61,20.32-18.71,12.15-5.67,22.22-7.26,30-4.72A8.76,8.76,0,0,0,91.3,82.18a.51.51,0,0,1,.22-.36.49.49,0,0,1,.42-.06,12,12,0,0,0,11.11-2.2,12.21,12.21,0,0,0,4.13-11.13.49.49,0,0,1,.33-.54,10.13,10.13,0,0,0,2.37-1.28c6-4.18,8.1-11.81,4.87-17.76a13.67,13.67,0,0,0-3.39-4.11.49.49,0,0,1-.18-.38.52.52,0,0,1,.18-.39l.2-.16a9.33,9.33,0,0,0,2.94-10.46,9.69,9.69,0,0,0-6.57-6.05,9.53,9.53,0,0,0-8.49,1.88l-.21.16a.49.49,0,0,1-.7-.06.51.51,0,0,1,.07-.71l.2-.16a10.52,10.52,0,0,1,9.38-2.07A10.65,10.65,0,0,1,115.44,33a10.31,10.31,0,0,1-3,11.36,14.72,14.72,0,0,1,3.18,4c3.47,6.39,1.25,14.58-5.17,19.05a11.91,11.91,0,0,1-2.24,1.25,13.19,13.19,0,0,1-4.53,11.65,13,13,0,0,1-11.48,2.54A9.78,9.78,0,0,1,79.56,90.3c-7.49-2.45-17.32-.88-29.22,4.68-6.49,3-15.2,8.65-19.85,18.24A11.46,11.46,0,0,1,19.75,120.05Z"/></g></g></svg>