<svg xmlns="http://www.w3.org/2000/svg" viewBox="0 0 102.46 101.12"><defs><style>.cls-1{fill:#8c6c2a;}</style></defs><g id="Capa_2" data-name="Capa 2"><g id="Icons"><path class="cls-1" d="M40.58,27.76a1,1,0,0,0,.19-1.43,1.1,1.1,0,0,0-1.43-.19C37.3,27.7,34,31.85,36,36.44a10,10,0,0,0,1.46,2.35l1.16,1.37,1.6.78a9.5,9.5,0,0,0,4.1.92A7.73,7.73,0,0,0,46,41.7a1,1,0,0,0,.77-1.2,1,1,0,0,0-1-.81l-.2,0a6.09,6.09,0,0,1-1.28.12,6.8,6.8,0,0,1-6.4-4.22C36,31.35,40.39,27.9,40.58,27.76Z"/><path class="cls-1" d="M91,28.51,89.93,28l.23-1.19a11.71,11.71,0,0,0,.22-2.23A12.11,12.11,0,0,0,75.26,12.85l-1.15.3-.6-1a24.47,24.47,0,0,0-43.33,2l-.54,1.18-1.27-.31a12.41,12.41,0,0,0-3-.38,12.75,12.75,0,0,0-12.11,9,11.12,11.12,0,0,0-.17,6.88l.43,1.36-1.32.56a19.86,19.86,0,0,0,7.7,38.17,21.73,21.73,0,0,0,11.26-3.16l1.44-.89.78,1.49c7.49,14.29,8.35,31.6,8.39,32.33s.78.74,1,.74H58.28c.23,0,1-.05,1-.73,0-.21,1.11-21.65,11.08-35.49l.81-1.13,1.23.67A20.24,20.24,0,1,0,91,28.51Zm-27,43.35c-4.75,10.39-6.2,21.67-6.61,26l-.13,1.43H43.71l-.12-1.45a90.34,90.34,0,0,0-5.5-24.39L36.74,70l3.44,1.48a20.34,20.34,0,0,0,3.71,1.26l.88.2,3.62,11.52a1.17,1.17,0,0,0,1.29.69,1,1,0,0,0,.65-1.27L47,73.35l2.64.05A23.55,23.55,0,0,0,61.8,69.86l4.37-2.64ZM82.16,65a18.11,18.11,0,0,1-7.72-1.71l-2-1L74,60.77a25.47,25.47,0,0,1,8-5.39,1,1,0,0,0,.55-1.33,1.1,1.1,0,0,0-1.34-.54,26.62,26.62,0,0,0-7.06,4.4l-3.2,2.73.62-4.16c.07-.51.12-1,.14-1.41A17.08,17.08,0,0,0,67.9,43.65a1.15,1.15,0,0,0-1.42-.17,1,1,0,0,0-.18,1.42A15.32,15.32,0,0,1,69.66,55a15,15,0,0,1-2.11,6.72,21.43,21.43,0,0,1-17.9,9.67,26.64,26.64,0,0,1-3.4-.21L46,71.08h0v0L45.07,71a16.86,16.86,0,0,1-8.65-4.2l-.26-.31C32.74,62,32.38,56,33.18,51.76c.33-1.75,1.87-6.19,4.5-8.74a1,1,0,0,0,.31-.7L38,41l-1.31.37a1.08,1.08,0,0,0-.45.24c-3.22,3.13-4.78,8.26-5.08,9.82A23.25,23.25,0,0,0,30.77,56l0,3.92-2.74-2.8a31,31,0,0,0-5.5-4.5,1.08,1.08,0,0,0-1.41.31,1,1,0,0,0-.13.76,1,1,0,0,0,.45.64,32.08,32.08,0,0,1,9.11,9.11l.92,1.36-1.39.86a20,20,0,0,1-10.26,2.91A17.85,17.85,0,0,1,2,50.75a17.59,17.59,0,0,1,11.6-16.56l1-.37.71.78a12.51,12.51,0,0,0,9.17,4,1.19,1.19,0,0,0,1-1.21,1.17,1.17,0,0,0-.33-.81.91.91,0,0,0-.68-.32,10.16,10.16,0,0,1-8.58-4.3,8.28,8.28,0,0,1-.82-1.69,10.25,10.25,0,0,1-.43-2.9,10.48,10.48,0,0,1,.47-3.09c.13-.38.21-.62.31-.85a10.7,10.7,0,0,1,9.84-6.7,10.48,10.48,0,0,1,3.13.48l1.14.36,0,1.19a7,7,0,0,0,1,4,1.15,1.15,0,0,0,1.42.29,1,1,0,0,0,.28-1.4c-1.29-2-.61-5.05.46-7.25a1,1,0,0,0,.08-.46V13.5l.23-.38A22.43,22.43,0,0,1,72.7,15a1.12,1.12,0,0,0,1.35.5,9.86,9.86,0,0,1,4.23-.95,10.06,10.06,0,0,1,9.37,13.72,1,1,0,0,0,.6,1.33A18.26,18.26,0,0,1,82.16,65Z"/></g></g></svg>