<svg xmlns="http://www.w3.org/2000/svg" viewBox="0 0 126.46 108.42"><defs><style>.cls-1{fill:#8c6c2a;}</style></defs><g id="Capa_2" data-name="Capa 2"><g id="Icons"><path class="cls-1" d="M77.54,10.58a48.37,48.37,0,0,0-21.23,4.85l-.74.36L55.25,15a1.35,1.35,0,0,0-.66-.69,11.24,11.24,0,0,1-6-12.69,1.32,1.32,0,0,0-.14-1,1.3,1.3,0,0,0-.8-.61A1.36,1.36,0,0,0,46,1a13.21,13.21,0,0,0,0,6.58l.08.31C39.43,3.38,31.79.7,25.47.7a18.7,18.7,0,0,0-8.74,2C9.32,6.6,3.4,14.05.05,23.7a1.39,1.39,0,0,0,.68,1.48c8.91,6.3,19.14,8.76,27.88,6.64,11-4.26,16.36-14.73,18.68-21a13.64,13.64,0,0,0,5.11,5.4l1.16.67-1.15.69a48.89,48.89,0,1,0,25.13-7Zm-33.05.13C41,19.76,35,26.52,28,29.25a24.26,24.26,0,0,1-5.85.72C17.75,30,13.25,28.82,8,26.34a46.75,46.75,0,0,1-4.35-2.42L3,23.58l.14-.68c3.46-9,9.49-15.81,16.53-18.54a15.75,15.75,0,0,1,5.71-1c5.3,0,10.69,2.23,14.29,3.91a47.79,47.79,0,0,1,4.35,2.42l.56.34Zm33.05,95.07A46.28,46.28,0,1,1,123.82,59.5,46.33,46.33,0,0,1,77.54,105.78Z"/><path class="cls-1" d="M44.54,35.23a1.33,1.33,0,0,0-1.08.56,36.74,36.74,0,0,0-5.33,31,1.32,1.32,0,0,0,1.63.91,1.29,1.29,0,0,0,.91-1.62,34.58,34.58,0,0,1,4.95-28.75,1.35,1.35,0,0,0,.23-1,1.32,1.32,0,0,0-1.31-1.1Z"/><path class="cls-1" d="M42.26,72.78a1.32,1.32,0,0,0-1.15-.66,1.25,1.25,0,0,0-.65.18A1.32,1.32,0,0,0,40,74.1l1.31,2.26a1.35,1.35,0,0,0,1.8.49A1.32,1.32,0,0,0,43.56,75Z"/></g></g></svg>