<svg xmlns="http://www.w3.org/2000/svg" viewBox="0 0 86.47 119.13"><defs><style>.cls-1{fill:#8c6c2a;}</style></defs><g id="Capa_2" data-name="Capa 2"><g id="Icons"><path class="cls-1" d="M22.34,50.65a1.35,1.35,0,0,0-.71.19c-6.64,4-11.14,13-11.48,23.06a34.85,34.85,0,0,0,1,9.84,1.38,1.38,0,0,0,2.53.36,1.34,1.34,0,0,0,.15-1A32.64,32.64,0,0,1,12.92,74c.31-9.13,4.29-17.28,10.13-20.77a1.39,1.39,0,0,0,.48-1.9A1.38,1.38,0,0,0,22.34,50.65Z"/><path class="cls-1" d="M46.68,32.81l-1.89-.15L45,30.77c.62-5.53,2.44-13.63,7.6-20.75A2.94,2.94,0,0,0,52,5.91a3,3,0,0,0-4.11.66,47.12,47.12,0,0,0-7.68,17.57l-1.1,4.95-2.33-4.51C28.33,8.28,20.87,0,14.56,0c-3.72,0-6.1,3-6.92,4.72A13.31,13.31,0,0,0,6.47,16.53c2.17,5.74,8.69,11.53,18.84,16.76L28.66,35l-3.42,1.58a43.24,43.24,0,1,0,21.44-3.78ZM8.4,15.8a11.27,11.27,0,0,1,1-10l.08-.16c.15-.32,1.77-3.55,5.05-3.55h0c3.61,0,11.51,4.16,24.1,31.21l.2.42-.19,3L36.34,36C25.48,31.73,11.81,24.8,8.4,15.8ZM43.24,117.07A41.18,41.18,0,0,1,31.16,36.53l.64-.2.61.26c2,.83,3.78,1.54,5.33,2.1l1.09.4L39,40.46a2.94,2.94,0,0,0,3.24,2.66,3,3,0,0,0,2-1.09,2.9,2.9,0,0,0,.62-2.16c0-.07-.13-1.26-.13-3.16v-2l2,.17a41.17,41.17,0,0,1-3.42,82.19Z"/><path class="cls-1" d="M75.75,78.05a2.16,2.16,0,1,0,2.16,2.16A2.16,2.16,0,0,0,75.75,78.05Z"/><path class="cls-1" d="M42.24,104.68a2.16,2.16,0,1,0,2.16,2.15A2.16,2.16,0,0,0,42.24,104.68Z"/><path class="cls-1" d="M62.92,97.26a2.16,2.16,0,1,0,2.16,2.16A2.16,2.16,0,0,0,62.92,97.26Z"/><path class="cls-1" d="M67.73,72.36a2.16,2.16,0,1,0,2.16,2.16A2.16,2.16,0,0,0,67.73,72.36Z"/><path class="cls-1" d="M67.73,52.36a2.16,2.16,0,1,0,2.16,2.16A2.16,2.16,0,0,0,67.73,52.36Z"/><path class="cls-1" d="M52.39,91.7a2.16,2.16,0,1,0,2.15,2.15A2.16,2.16,0,0,0,52.39,91.7Z"/></g></g></svg>