<svg xmlns="http://www.w3.org/2000/svg" viewBox="0 0 38.91 136.7"><defs><style>.cls-1{fill:#2e213c;}</style></defs><g id="Capa_2" data-name="Capa 2"><g id="Icons"><path class="cls-1" d="M38.57,72.49c-1-10.9-4.76-20.94-8.41-30.65C28.6,37.7,27,33.43,25.64,29.17c0,0,0-.07,0-.11a.93.93,0,0,0,0-.13,47.83,47.83,0,0,0-4.18-8.45c-.76-1.31-1.54-2.66-2.26-4A32.57,32.57,0,0,1,17,10.34c-.16-.55-.31-1.11-.48-1.67l-.1-.36C14.78,2.64,13.47,0,12.25,0a1.09,1.09,0,0,0-.87.54c-1.63,2.26-2.46,6-3.12,9l-.16.72c-.76,3.4-1.27,6.93-1.76,10.35-.23,1.53-.45,3.05-.69,4.56-.44,2.73-1,5.46-1.57,8.1-.49,2.31-1,4.69-1.41,7.07A165.38,165.38,0,0,0,.67,58c-.62,9.8-1.12,21.34,0,32.56s5,20.2,9.14,29.09c.64,1.34,1.36,2.65,2.05,3.92a34.44,34.44,0,0,1,3.8,8.8c.17.73,1.11,4.36,2.95,4.36a1.6,1.6,0,0,0,.63-.14c1.81-.81,2.79-3.14,3.64-5.2L23,131a88.15,88.15,0,0,1,5.63-11C36.48,106.64,40.09,89.33,38.57,72.49ZM15.09,123.43l2.51-.28a.76.76,0,0,0,.59-.83.63.63,0,0,0-.64-.65h0c-.84.08-1.69.18-2.54.28l-1.39.15-.42-.84C9,113,5,105.1,3.3,95.29c-.06-.35-.1-.71-.16-1.07l.22,0a21.59,21.59,0,0,1,3-.28h.39a.65.65,0,0,0,.61-.71.69.69,0,0,0-.61-.78,19.79,19.79,0,0,0-3.46.28l-.36.05C1.62,83.35,2,73.55,2.41,64l.08-1.88A174.61,174.61,0,0,1,4.17,43.81c.49-3.36,1.19-6.7,1.86-9.94.48-2.28,1-4.65,1.39-7s.73-4.46,1.05-6.65.71-4.73,1.13-7.08a66.22,66.22,0,0,1,1.54-6.53,31.84,31.84,0,0,1,1.27-3.47l0,.06c.07.19.14.42.25.66a62.08,62.08,0,0,1,2.68,8.28c.15.57.3,1.13.46,1.68.23.81.5,1.59.8,2.35a5.68,5.68,0,0,1-1.71.29,4.17,4.17,0,0,1-.61,0h-.09a.59.59,0,0,0-.56.63.76.76,0,0,0,.58.86,5.52,5.52,0,0,0,.71.05,7,7,0,0,0,2.29-.44C18.07,19.29,19,21,20,22.59A41.08,41.08,0,0,1,23.76,30c1.41,4.41,3,8.79,4.59,13,1.8,4.85,3.66,9.88,5.21,15a73.82,73.82,0,0,1,2.19,9.55,11.32,11.32,0,0,1-3.69.73l-.68,0a.63.63,0,0,0-.59.67.74.74,0,0,0,.6.82q.34,0,.69,0A12.22,12.22,0,0,0,36,69a84.07,84.07,0,0,1,.16,21.42c-1.24,10.91-4.6,20.38-11.23,31.66a59,59,0,0,0-3.34,6.94c-.33.75-.65,1.51-1,2.28-.65,1.45-1.33,2.32-1.82,2.32s-.85-.69-1.18-2l0-.13a25.27,25.27,0,0,0-1.72-5c-.49-1-1-2-1.5-3Z"/><path class="cls-1" d="M11.24,35.23a2.89,2.89,0,0,1-2,.31h-.1a.74.74,0,0,0-.67.73A.62.62,0,0,0,9,37a5,5,0,0,0,.84.08,4,4,0,0,0,2-.55.69.69,0,0,0,.3-.8A.66.66,0,0,0,11.24,35.23Z"/><path class="cls-1" d="M19.37,53.94a.58.58,0,0,0,.55.61H20l2.7-.39a.75.75,0,0,0,.58-.85.6.6,0,0,0-.57-.63h-.08c-.89.11-1.81.25-2.71.39A.78.78,0,0,0,19.37,53.94Zm.55.33h0v0Z"/><path class="cls-1" d="M20,32.71l.17,0c.48-.14,1-.27,1.49-.39a.64.64,0,0,0,.46-.76c0-.38-.36-.78-.78-.68s-1,.25-1.51.4A.76.76,0,0,0,20,32.71Z"/><path class="cls-1" d="M10.67,64.36a2.52,2.52,0,0,0-2.3,1,.85.85,0,0,0-.06.87.65.65,0,0,0,.55.38.56.56,0,0,0,.46-.26,1.29,1.29,0,0,1,1.11-.54h.25a.62.62,0,0,0,.59-.66A.76.76,0,0,0,10.67,64.36Z"/><path class="cls-1" d="M20.58,84.24a.59.59,0,0,0-.49.27A.93.93,0,0,0,20,85a.66.66,0,0,0,.62.74h2.71a.54.54,0,0,0,.48-.27.82.82,0,0,0,.14-.47.67.67,0,0,0-.62-.75Z"/><path class="cls-1" d="M26,114.58H28.4a.59.59,0,0,0,.49-.27.93.93,0,0,0,.13-.48.66.66,0,0,0-.62-.74H26a.56.56,0,0,0-.48.27.84.84,0,0,0-.14.47A.67.67,0,0,0,26,114.58Z"/></g></g></svg>