<svg xmlns="http://www.w3.org/2000/svg" viewBox="0 0 99.02 117.62"><defs><style>.cls-1{fill:#9b1b21;}</style></defs><g id="Capa_2" data-name="Capa 2"><g id="Icons"><path class="cls-1" d="M94,62.07C79.64,38.17,67.81,32.7,58.31,28.3,52.75,25.72,48,23.5,43.51,18.19,30.41,2.5,24-1.2,11.16,7.59l-5-7A1.37,1.37,0,0,0,4.24.26a1.37,1.37,0,0,0-.32,1.91l5,7c-12.51,9.28-11.09,16.53-.55,34C12,49.16,12.48,54.42,13.1,60.52c1.05,10.41,2.36,23.38,20.28,44.72,8.58,10.23,19.55,12.38,27.24,12.38,10.45,0,19.66-3.86,23.29-6.45C91,106.12,107.24,84.23,94,62.07ZM11.63,10.62c4.18-3,7.67-5,11.12-5,4.87,0,9.92,3.89,18.65,14.33,4.84,5.79,10.14,8.24,15.76,10.84,9.63,4.46,20.56,9.52,34.44,32.7,12.3,20.51-2.72,40.77-9.28,45.44-6.78,4.83-31.46,12.86-46.84-5.46C18.11,82.78,16.9,70.8,15.83,60.24c-.62-6.16-1.21-12-5.1-18.43C.41,24.69-.55,19.23,11.63,10.62Z"/><path class="cls-1" d="M57,42.28C81.23,52.6,85.63,84.47,85.67,84.79A1.39,1.39,0,0,0,87,86l.17,0a1.37,1.37,0,0,0,1.19-1.53c0-.34-4.65-33.75-30.35-44.69-24.12-10.27-28.42-19.91-28.46-20a1.32,1.32,0,0,0-.72-.76,1.39,1.39,0,0,0-1.06,0,1.43,1.43,0,0,0-.76.73,1.41,1.41,0,0,0,0,1.05C27.2,21.18,31.41,31.4,57,42.28Z"/><path class="cls-1" d="M22.66,58.68c5.58,25,28.66,45.36,28.89,45.56a1.37,1.37,0,0,0,1.94-.13,1.42,1.42,0,0,0,.34-1,1.4,1.4,0,0,0-.47-.94c-.23-.2-22.63-19.94-28-44.09C19.82,33.34,14.68,29.59,14.11,29.25a1.37,1.37,0,0,0-1.49,2.3C12.67,31.59,17.46,35.42,22.66,58.68Z"/><path class="cls-1" d="M34.92,40.52A1.33,1.33,0,0,0,34,40a1.4,1.4,0,0,0-1,.24,1.37,1.37,0,0,0-.3,1.92L74.53,99.48a1.35,1.35,0,0,0,1.11.57,1.34,1.34,0,0,0,.81-.27,1.38,1.38,0,0,0,.55-.89,1.39,1.39,0,0,0-.25-1Z"/></g></g></svg>