<svg xmlns="http://www.w3.org/2000/svg" viewBox="0 0 117.08 117.08"><defs><style>.cls-1{fill:none;}.cls-2{fill:#9b1b21;}</style></defs><g id="Capa_2" data-name="Capa 2"><g id="Icons"><path class="cls-1" d="M110.55,75.85c-3.46-2.47-7.38-5.27-8.73-9.73l-.18-.68a5,5,0,0,0-.43-1.2A4.91,4.91,0,0,0,100,63.1l-.45-.34a14.93,14.93,0,0,1-4.6-6.08l-.18-.45A4,4,0,0,0,94.1,55a3.63,3.63,0,0,0-1.82-.74c-2.57-.61-5.75-1.37-7.37-4.13A10.35,10.35,0,0,1,84,47.77c-.09-.3-.2-.67-.33-1-1-2.51-3.53-4.41-8.05-6l-1.41-.48c-3.29-1.12-7-2.38-9.6-5.19l-.4-.44a4.05,4.05,0,0,0-.93-.89A3.08,3.08,0,0,0,62,33.52a14.91,14.91,0,0,0-10.41,3.4l-.17.15-.08.2a1.79,1.79,0,0,1-.29.48c-.57.63-.4,1.61.75,4.36l.38.92c.05.12.11.23.25.5l.46,1,3.93-2.84A3.71,3.71,0,0,1,60.06,41a3.41,3.41,0,0,1,1.74,1.75c1,1.72,2.92,2.44,5,3.21s4.41,1.63,6,3.51a13.39,13.39,0,0,1,1.77,2.89,10.79,10.79,0,0,0,1.34,2.24c1.09,1.26,2.87,1.86,4.76,2.49,2,.69,4.36,1.46,6,3.26a14.29,14.29,0,0,1,1.4,1.85,7.87,7.87,0,0,0,1.35,1.68A7.67,7.67,0,0,0,91.72,65c.33.12.7.26,1.06.41,5.38,2.26,8.82,7.35,11.59,11.45a13.31,13.31,0,0,1,2.57,5.66c.57,4.61-3,8.18-6.48,11.07l-7.19,5.87-.69.56-1.17.9,1.33.63c.75.36,1.55.72,2.45,1.1l.44.12.36-.16a1.11,1.11,0,0,1,.3-.1c4.24-.52,8.57-1.27,10.8-4.24a14.17,14.17,0,0,0,1-1.64,18.94,18.94,0,0,1,1.37-2.12,18.1,18.1,0,0,1,1.26-1.36,8.56,8.56,0,0,0,1.4-1.64,8.65,8.65,0,0,0,.81-3.26L114,79.44c0-.14,0-.33,0-.48h0l0-.44-.63-.53C112.56,77.28,111.58,76.58,110.55,75.85Z"/><path class="cls-1" d="M63.64,64.83l.79.65c2.52,2,5.37,4.34,6.09,7.89a14.54,14.54,0,0,1,.22,2A10,10,0,0,0,71,77.16a8.77,8.77,0,0,0,2.11,3.11A19.35,19.35,0,0,1,75,82.67a20.77,20.77,0,0,1,1.76,3.84c.91,2.43,1.56,3.94,3,4.57.17.08.34.14.59.23a5.78,5.78,0,0,1,1.6.76,6.28,6.28,0,0,1,2.16,3.78l.47,1.62,1.1-.47a1.64,1.64,0,0,1,1.94.86l.2.4.44.09a1.2,1.2,0,0,0,.28,0l.31,0a6.69,6.69,0,0,0,2.39-1.47L98.38,91c2.84-2.32,5.69-5.1,5.31-8.13a10.33,10.33,0,0,0-2-4.25C99.12,74.89,96,70.26,91.52,68.38L90.58,68a10.34,10.34,0,0,1-3.19-1.65,11.32,11.32,0,0,1-2.09-2.53,9.4,9.4,0,0,0-1-1.29c-1.11-1.19-2.85-1.77-4.68-2.38-2.13-.71-4.53-1.52-6.21-3.46a13.1,13.1,0,0,1-1.78-2.91,10.2,10.2,0,0,0-1.33-2.22c-1.07-1.25-2.83-1.9-4.69-2.58-2.34-.87-4.76-1.77-6.27-4l-.53-.76-3.1,2.24-.71.71,3.9,4.24a5.59,5.59,0,0,1,1.65,2.82,5.75,5.75,0,0,1-.48,3c-.08.23-.16.45-.22.67C59.17,60.67,61.93,63.43,63.64,64.83Z"/><path class="cls-1" d="M85.57,101.89a7.56,7.56,0,0,1-3.25-2,8,8,0,0,1-1.41-3.18c-.34-1.25-.52-1.71-.91-2a3.43,3.43,0,0,0-.79-.34l-.84-.32c-2.74-1.23-3.77-4-4.68-6.4a18.6,18.6,0,0,0-1.46-3.25,17.87,17.87,0,0,0-1.58-2,11.2,11.2,0,0,1-2.82-4.4,11.74,11.74,0,0,1-.36-2.62A10.83,10.83,0,0,0,67.32,74c-.49-2.4-2.65-4.14-4.94-6l-.82-.67c-4-3.29-5.71-6.92-4.83-10.23a9.9,9.9,0,0,1,.33-1A3.93,3.93,0,0,0,57.38,55v-.29l-.17-.25s-.31-.37-.67-.75L53.7,50.62a21,21,0,0,1-4.56-6.4l-.35-.86c-.24-.56-.5-1.18-.72-1.84l-.42-1.22-1,.82c-19.84,16.25-26.17,41.19-14.71,58a31.38,31.38,0,0,0,2.58,3.29l.3.23a1.49,1.49,0,0,1,.77.81l.21.31c6.67,6.61,16.31,10.27,27.11,10.27A56.5,56.5,0,0,0,91.27,106l1.47-.86-2.25-1.07C88.9,103.32,87.26,102.54,85.57,101.89Z"/><path class="cls-1" d="M47.8,36.12l.36-.48a18.33,18.33,0,0,1,14.07-5.39,6.25,6.25,0,0,1,2.59.64,7,7,0,0,1,1.86,1.64l.3.34c2,2.21,5.06,3.23,8.25,4.31l1.45.5c.56.2,1.16.42,1.78.68l1.68.69-.46-1.75C74.34,16.8,59.35,3,42.37,3,20.67,3,3,25.56,3,53.26c0,19.55,9,37.46,23,45.65l2.75,1.61-1.5-2.81C17,78.43,25.87,52,47.8,36.12Z"/><path class="cls-2" d="M115.33,75.62c-.93-.74-1.92-1.45-3-2.22-3.38-2.41-6.56-4.68-7.61-8.18l-.14-.52a7.4,7.4,0,0,0-.79-2,7.23,7.23,0,0,0-2-2l-.4-.3a12,12,0,0,1-3.69-4.87l-.14-.34a6.48,6.48,0,0,0-1.3-2.29A6.28,6.28,0,0,0,93,51.3c-2.11-.51-4.5-1.08-5.46-2.72A7.58,7.58,0,0,1,86.89,47c-.14-.47-.27-.88-.42-1.28A10,10,0,0,0,84,42.05l-.31-.29,0-.52V41C79.17,16.87,62.2,0,42.37,0,19,0,0,23.89,0,53.26c0,24.42,13.72,46.21,32.62,51.81l.29.08.22.22C40.4,112.92,51,117.08,62.9,117.08c11.59,0,23.69-4,34.08-11.14a1.35,1.35,0,0,0,.28-.25l.29-.35.44-.06c4.18-.58,8.82-1.66,11.52-5.25a17.71,17.71,0,0,0,1.2-1.92,14.45,14.45,0,0,1,1.13-1.76,10,10,0,0,1,1-1,11.77,11.77,0,0,0,2-2.34,11.16,11.16,0,0,0,1.19-4.41L117,79.86a4.74,4.74,0,0,0-.2-2.5A4.47,4.47,0,0,0,115.33,75.62ZM25.87,99.13c-14-8.23-23.1-26.24-23.1-45.87,0-27.84,17.77-50.49,39.6-50.49,17.09,0,32.18,13.85,37.55,34.46l.59,2.24-2.14-.88c-.62-.25-1.22-.48-1.77-.67l-1.44-.5C71.93,36.33,68.88,35.3,66.8,33l-.31-.34a6.67,6.67,0,0,0-1.79-1.59,6,6,0,0,0-2.49-.61,18,18,0,0,0-13.86,5.31l-.39.5C26.12,52.07,17.31,78.42,27.47,97.59l1.91,3.6Zm65.53,7.09a56.8,56.8,0,0,1-28.5,8.09c-10.87,0-20.57-3.68-27.3-10.36l-.24-.35a1.33,1.33,0,0,0-.68-.72l-.34-.25a31.76,31.76,0,0,1-2.62-3.34c-11.53-16.94-5.18-42,14.76-58.37l1.29-1.05.53,1.57c.23.65.48,1.26.71,1.8l.36.88a20.89,20.89,0,0,0,4.51,6.33l2.84,3.06c.31.33.64.7.7.78l.21.31V55a4.33,4.33,0,0,1-.33,1.21,9.78,9.78,0,0,0-.33,1c-.86,3.2.83,6.74,4.75,10l.82.67c2.32,1.88,4.52,3.65,5,6.14a10.05,10.05,0,0,1,.16,1.45A11.15,11.15,0,0,0,68.07,78a11.09,11.09,0,0,0,2.75,4.29,16.6,16.6,0,0,1,1.62,2,18,18,0,0,1,1.48,3.29c.89,2.38,1.91,5.07,4.56,6.26.23.1.48.2.81.31a3.51,3.51,0,0,1,.85.37c.46.32.65.81,1,2.13a7.59,7.59,0,0,0,1.37,3.08,7.32,7.32,0,0,0,3.14,1.93c1.7.65,3.34,1.43,4.93,2.18l2.68,1.28ZM60.35,54.32a5.5,5.5,0,0,0-1.59-2.69l-4.07-4.42.9-.89,3.32-2.4.67,1c1.47,2.14,3.85,3,6.16,3.87,1.89.7,3.68,1.36,4.79,2.65a10.73,10.73,0,0,1,1.35,2.26,13.51,13.51,0,0,0,1.76,2.88c1.64,1.88,4,2.68,6.09,3.38,1.87.63,3.64,1.22,4.79,2.45a9.09,9.09,0,0,1,1,1.32,11,11,0,0,0,2,2.48,10.23,10.23,0,0,0,3.11,1.6c.38.14.67.25,1,.37,4.55,1.91,7.7,6.58,10.24,10.33a10.59,10.59,0,0,1,2.09,4.36c.39,3.16-2.51,6-5.4,8.36l-7.18,5.87a6.89,6.89,0,0,1-2.51,1.53l-.34,0h0a1.69,1.69,0,0,1-.33,0l-.57-.12L87.35,98a1.39,1.39,0,0,0-1.62-.73l-.16.08-1.19.5-.55-1.88a6.06,6.06,0,0,0-2.06-3.66,6.28,6.28,0,0,0-1.54-.73,6.27,6.27,0,0,1-.61-.23c-1.5-.67-2.17-2.23-3.1-4.71a20.69,20.69,0,0,0-1.74-3.8,20.5,20.5,0,0,0-1.88-2.36,8.79,8.79,0,0,1-2.17-3.21,9.79,9.79,0,0,1-.24-1.82,14,14,0,0,0-.21-2c-.7-3.47-3.52-5.74-6-7.75L63.48,65c-1.75-1.45-4.58-4.29-3.83-7.12.06-.23.14-.45.22-.67A5.63,5.63,0,0,0,60.35,54.32ZM114.3,79c0,.16,0,.36,0,.5l-1.06,8.76a9.14,9.14,0,0,1-.84,3.36,9,9,0,0,1-1.42,1.66,17.92,17.92,0,0,0-1.26,1.37,16.23,16.23,0,0,0-1.33,2.06,17.34,17.34,0,0,1-1,1.69c-2.29,3-6.68,3.82-11,4.33l-.21.08-.46.2-.55-.14c-.91-.4-1.71-.76-2.46-1.11l-1.71-.8,1.49-1.16.69-.55,7.19-5.87c3.47-2.85,6.94-6.36,6.39-10.85A13,13,0,0,0,104.16,77c-2.75-4.07-6.17-9.13-11.48-11.36l-1-.4A8.38,8.38,0,0,1,89.32,64a7.77,7.77,0,0,1-1.4-1.73,13.76,13.76,0,0,0-1.37-1.82c-1.64-1.75-3.92-2.51-5.93-3.19s-3.75-1.25-4.88-2.57a10.75,10.75,0,0,1-1.36-2.26,13,13,0,0,0-1.75-2.87c-1.58-1.83-3.89-2.68-5.92-3.43s-4.12-1.53-5.13-3.32A3.16,3.16,0,0,0,60,41.2a3.5,3.5,0,0,0-3,.69l-4.18,3-.59-1.27a4.41,4.41,0,0,1-.25-.52l-.38-.91c-1.19-2.87-1.35-3.91-.71-4.62a1.58,1.58,0,0,0,.24-.41l.14-.29.19-.16A15.13,15.13,0,0,1,62,33.27a3.18,3.18,0,0,1,1.35.28,4.3,4.3,0,0,1,1,.94l.39.44c2.55,2.77,6.24,4,9.5,5.12l1.41.48c4.59,1.61,7.2,3.56,8.2,6.14.14.35.25.73.34,1a10.33,10.33,0,0,0,.9,2.29c1.57,2.66,4.7,3.4,7.21,4a3.81,3.81,0,0,1,2,.82,4,4,0,0,1,.7,1.32l.18.45a14.7,14.7,0,0,0,4.53,6l.44.34a5.29,5.29,0,0,1,1.3,1.21,5.19,5.19,0,0,1,.45,1.27l.18.67c1.33,4.38,5.21,7.15,8.63,9.6,1,.73,2,1.43,2.92,2.14l.72.62Z"/></g></g></svg>