<svg xmlns="http://www.w3.org/2000/svg" viewBox="0 0 90.8 89.41"><defs><style>.cls-1{fill:#9b1b21;}</style></defs><g id="Capa_2" data-name="Capa 2"><g id="Icons"><path class="cls-1" d="M88.69,3.08a4.35,4.35,0,0,0-2.87.16l-1.26.48-.13-1.34a9.16,9.16,0,0,1-.05-1.18A1.2,1.2,0,0,0,83.13,0,1.14,1.14,0,0,0,82,1.16a10.9,10.9,0,0,0,.53,3.62l.19.57-.4.45a18.66,18.66,0,0,0-2.17,3l-.39.68L79,9.31a10.66,10.66,0,0,0-12.25,5c-1.36,2.28-2.89,4.62-4.54,7l-.37.51-.62-.09a3.94,3.94,0,0,0-4.41,3.85,3.79,3.79,0,0,0,.31,1.52l.25.58-.4.48c-2.17,2.63-4.46,5.2-6.81,7.64l-.46.47L49.1,36a4,4,0,0,0-1.24-.2A3.89,3.89,0,0,0,44,39.72a3.56,3.56,0,0,0,.17,1.13l.19.63-.49.44c-3.05,2.78-6.24,5.45-9.49,7.92l-.49.38L33.31,50a3.84,3.84,0,0,0-1.6-.35,3.89,3.89,0,0,0-3.88,3.89c0,.13,0,.25,0,.38l.06.62-.51.34c-3.53,2.38-7.22,4.63-11,6.69l-.57.32-.52-.38A3.88,3.88,0,0,0,9.22,64.6v.65l-.58.27c-.7.34-1.4.67-2.1,1A11,11,0,0,0,.17,78.61a10.63,10.63,0,0,0,10,9,91.19,91.19,0,0,0,14.32-.12l.57,0,.35.46a3.85,3.85,0,0,0,6.68-.93l.21-.53.56-.11a75.77,75.77,0,0,0,14.41-4.22l.55-.23.47.36a3.82,3.82,0,0,0,2.32.78,3.9,3.9,0,0,0,3.88-3.8l0-.59L55,78.3a62.61,62.61,0,0,0,10.19-7.16l.47-.41.59.24a4.06,4.06,0,0,0,1.41.27,3.89,3.89,0,0,0,3.89-3.89,3.82,3.82,0,0,0-.29-1.44L71,65.33l.41-.48a61.6,61.6,0,0,0,9.39-14.76l.24-.51.55-.08a3.92,3.92,0,0,0,3.31-3.85A3.86,3.86,0,0,0,84,43.18l-.36-.43.17-.53a80.48,80.48,0,0,0,3.43-22A10.57,10.57,0,0,0,82.72,11l-.79-.56.51-.83c.27-.44.55-.87.83-1.25l.66-.89.84.72a4.87,4.87,0,0,0,2.62,1.21,3,3,0,0,0,3.33-2.56A3.14,3.14,0,0,0,88.69,3.08ZM82.54,13.94a8.39,8.39,0,0,1,2.36,6.22,76.89,76.89,0,0,1-3.76,22.72,1.17,1.17,0,0,0,.58,1.42,1.53,1.53,0,0,1,.84,1.35,1.44,1.44,0,0,1-.47,1.08,1.57,1.57,0,0,1-1.24.42,1.31,1.31,0,0,0-1.6.64,59.71,59.71,0,0,1-10.7,16.75,1.16,1.16,0,0,0,.09,1.67,1.5,1.5,0,0,1,.53,1.14,1.52,1.52,0,0,1-2.65,1A1.22,1.22,0,0,0,65.6,68a1.21,1.21,0,0,0-.76.31A60.45,60.45,0,0,1,52.49,77,1.19,1.19,0,0,0,52,78.49l.09.2,0,.4a1.53,1.53,0,0,1-1.53,1.53,1.51,1.51,0,0,1-1.33-.8,1.23,1.23,0,0,0-1.51-.52A73.24,73.24,0,0,1,31,84.23a1.24,1.24,0,0,0-1,1.25,1.52,1.52,0,0,1-1.52,1.57A1.49,1.49,0,0,1,27,85.87,1.18,1.18,0,0,0,25.84,85a89.7,89.7,0,0,1-15.55.26,8.36,8.36,0,0,1-7.8-7,8.59,8.59,0,0,1,5-9.55C8.75,68.09,10,67.5,11.2,66.9a1.12,1.12,0,0,0,.6-.68,1.22,1.22,0,0,0-.05-.9,1.45,1.45,0,0,1-.17-.67A1.52,1.52,0,0,1,14.46,64a1.11,1.11,0,0,0,.68.55,1.2,1.2,0,0,0,.91-.08,149.56,149.56,0,0,0,14-8.56,1.19,1.19,0,0,0,.33-1.59A1.52,1.52,0,0,1,31.71,52a1.48,1.48,0,0,1,1.16.55,1.23,1.23,0,0,0,1.6.19A147.55,147.55,0,0,0,46.74,42.47a1.25,1.25,0,0,0,.37-.84,1.18,1.18,0,0,0-.34-.85,1.49,1.49,0,0,1-.43-1.06,1.53,1.53,0,0,1,1.52-1.53,1.5,1.5,0,0,1,1.11.48,1.17,1.17,0,0,0,1.67,0,128.66,128.66,0,0,0,9.22-10.35,1.16,1.16,0,0,0-.14-1.62,1.5,1.5,0,0,1-.54-1.15A1.52,1.52,0,0,1,60,24.24a1.54,1.54,0,0,1,1.57.05,1.22,1.22,0,0,0,1.6-.29c2-2.81,3.94-5.67,5.62-8.48a8.39,8.39,0,0,1,7.32-4.25A9.05,9.05,0,0,1,82.54,13.94Z"/><path class="cls-1" d="M19.19,73a.58.58,0,0,0-.15.42.54.54,0,0,0,.15.41.62.62,0,0,0,.91,0,.61.61,0,0,0,.16-.41.64.64,0,0,0-.18-.43A.69.69,0,0,0,19.19,73Z"/><path class="cls-1" d="M34.79,78.66a.61.61,0,0,0-.43.16h0a.64.64,0,0,0-.18.43.62.62,0,0,0,.18.43.63.63,0,0,0,.87,0,.67.67,0,0,0,.18-.44.64.64,0,0,0-.18-.43A.61.61,0,0,0,34.79,78.66Z"/><path class="cls-1" d="M44.9,55a.64.64,0,0,0-.44.14.6.6,0,0,0-.18.44.58.58,0,0,0,.18.43.61.61,0,0,0,1-.43.65.65,0,0,0-.18-.44A1.16,1.16,0,0,0,44.9,55Z"/><path class="cls-1" d="M53.77,65.5a.78.78,0,0,0-.18.45.58.58,0,0,0,.18.43.63.63,0,0,0,.89,0,.6.6,0,0,0,.15-.41.7.7,0,0,0-.2-.46A.72.72,0,0,0,53.77,65.5Z"/><path class="cls-1" d="M65.46,39.2a.64.64,0,0,0,0,.91.72.72,0,0,0,.86-.07.59.59,0,0,0,.15-.41.6.6,0,0,0-.18-.43A.69.69,0,0,0,65.46,39.2Z"/><path class="cls-1" d="M78.32,31.54a.59.59,0,0,0,.16-.41.64.64,0,0,0-.18-.43.69.69,0,0,0-.89,0,.59.59,0,0,0-.16.42.55.55,0,0,0,.16.41A.64.64,0,0,0,78.32,31.54Z"/><path class="cls-1" d="M71.63,23.85a.58.58,0,0,0,.18-.43.64.64,0,0,0-.18-.43.58.58,0,0,0-.39-.16.77.77,0,0,0-.47.17.6.6,0,0,0-.18.42.61.61,0,0,0,1,.43Z"/><path class="cls-1" d="M64.13,52.51a.63.63,0,0,0-.17.43.68.68,0,0,0,.17.43.62.62,0,0,0,.86,0,.6.6,0,0,0,0-.87A.69.69,0,0,0,64.13,52.51Z"/><path class="cls-1" d="M29.47,64a.64.64,0,0,0-.42.14.62.62,0,0,0-.18.46.7.7,0,0,0,.19.46.69.69,0,0,0,.88-.06.63.63,0,0,0,.15-.4.66.66,0,0,0-.2-.46A.63.63,0,0,0,29.47,64Z"/><path class="cls-1" d="M11.5,79.61a.6.6,0,0,0-.18.43.65.65,0,0,0,.18.45.67.67,0,0,0,.89,0,.6.6,0,0,0,.15-.41.69.69,0,0,0-.18-.44A.68.68,0,0,0,11.5,79.61Z"/></g></g></svg>