<svg xmlns="http://www.w3.org/2000/svg" viewBox="0 0 81.77 101.46"><defs><style>.cls-1{fill:#2e213c;}</style></defs><g id="Capa_2" data-name="Capa 2"><g id="Icons"><path class="cls-1" d="M40.89,101.46C15.93,101.46,0,75,0,56.76,0,39.4,12.55,25.29,28,25.29a25.89,25.89,0,0,1,12.91,3.45,25.83,25.83,0,0,1,12.9-3.45c15.43,0,28,14.11,28,31.47C81.77,72.8,68.11,101.46,40.89,101.46ZM28,27.33c-14.3,0-25.93,13.2-25.93,29.43,0,17.39,15.13,42.65,38.84,42.65,25.86,0,38.84-27.35,38.84-42.65,0-16.23-11.64-29.43-25.94-29.43a23.81,23.81,0,0,0-12.37,3.48,1,1,0,0,1-1.07,0A23.81,23.81,0,0,0,28,27.33Z"/><path class="cls-1" d="M41.31,92.81a1,1,0,1,1,0-2c20.78,0,31.22-22,31.22-34.31a1,1,0,1,1,2,0C74.57,69.5,63.46,92.81,41.31,92.81Z"/><path class="cls-1" d="M40.89,31h0a1,1,0,0,1-1-1C40,20.47,43,14.23,45.54,10.66A1,1,0,0,1,47,10.41a1,1,0,0,1,.25,1.43C44.85,15.17,42,21,41.91,30A1,1,0,0,1,40.89,31Z"/><path class="cls-1" d="M34.38,22.52h0A24.73,24.73,0,0,1,21.51,18.9,24.84,24.84,0,0,1,10,2.22a1,1,0,0,1,.71-1.17A24.78,24.78,0,0,1,42.31,20.28a1,1,0,0,1-.71,1.17A24.85,24.85,0,0,1,34.38,22.52ZM12.23,2.76A22.79,22.79,0,0,0,22.57,17.15a22.64,22.64,0,0,0,11.81,3.32h0a22.62,22.62,0,0,0,5.73-.73,22.74,22.74,0,0,0-27.88-17Z"/><path class="cls-1" d="M41.31,21.49a1,1,0,0,1-.54-.15L15.43,5.91A1,1,0,0,1,16.5,4.16L41.84,19.6a1,1,0,0,1,.34,1.4A1,1,0,0,1,41.31,21.49Z"/></g></g></svg>