<svg xmlns="http://www.w3.org/2000/svg" viewBox="0 0 93.53 93.54"><defs><style>.cls-1{fill:none;}.cls-2{fill:#9b1b21;}</style></defs><g id="Capa_2" data-name="Capa 2"><g id="Icons"><path class="cls-1" d="M54.37,30.3a21,21,0,0,0-5.67-4.69l-.59.17a54.24,54.24,0,0,1-2,11.09c2.16,1.54,4.23,3,6.14,4.21A92.09,92.09,0,0,0,54.37,30.3Z"/><path class="cls-1" d="M61.41,45.11A36.35,36.35,0,0,0,57.2,34.22,70.87,70.87,0,0,1,55.27,43c1.79,1.1,3.45,2.06,4.94,2.83Z"/><path class="cls-1" d="M24.83,20.3l1.52,1.28L29,23.74a44.41,44.41,0,0,1,13.72-8.95,45.55,45.55,0,0,0-15.92,3.68,39.51,39.51,0,0,0-6,3.31c.17,1.27.38,2.59.62,3.93Z"/><path class="cls-1" d="M44.59,27.05a21.76,21.76,0,0,0-6.31,4c1.65,1.25,3.31,2.5,5,3.71A49.76,49.76,0,0,0,44.59,27.05Z"/><path class="cls-1" d="M22.37,30.45a79.84,79.84,0,0,0,3.09,10.21,46.43,46.43,0,0,0,7.4,13.23c.64,0,1.26,0,1.87-.09a26.6,26.6,0,0,1-1.6-9.59c-2.24-1.84-4.57-3.88-7-6.08L26,38l2.31-2.48.18.17a133.6,133.6,0,0,0,10.33,8.72A68.14,68.14,0,0,0,49,50.81a65.11,65.11,0,0,0,7.6-3.12c-11.17-6.31-26.38-18.55-31-22.33Z"/><path class="cls-1" d="M38.21,53.42a59,59,0,0,0,6.19-1.24,78.9,78.9,0,0,1-7.79-5.24A24.77,24.77,0,0,0,38.21,53.42Z"/><path class="cls-2" d="M61,80.74C49.24,84.1,35.52,83,33,82.7l-.25,2.37c2.53.26,16.65,1.47,28.86-2Z"/><path class="cls-2" d="M82.45,71.08A59.35,59.35,0,0,1,48.26,90.47C39.42,92,26.42,91.75,14.77,82.33c-3.06-2.47-6.11-6.85-8.37-12A47.07,47.07,0,0,1,2.53,54.18l0-1a49.85,49.85,0,0,1,5.69-18.4,38.82,38.82,0,0,1,9.35-11.25l.51-.42.1.65a90,90,0,0,0,4.63,17.9,52.65,52.65,0,0,0,6.27,12l.48.66-.81-.07A25.83,25.83,0,0,1,17.84,51.2,11.12,11.12,0,0,1,14,47.72,8.1,8.1,0,0,1,12.79,43a15.39,15.39,0,0,1,2.29-7L13,34.8a17.72,17.72,0,0,0-2.61,8.11A10.38,10.38,0,0,0,12,49a13.54,13.54,0,0,0,4.59,4.26C21.6,56.2,29,57.38,37,56.49A66.78,66.78,0,0,0,65.7,45.81C77.33,38,83.94,27.69,84.33,16.75c0-.43,0-.85,0-1.27l-2.39,0c0,.38,0,.76,0,1.14C81.69,24,78.55,30.8,72.62,37l-.47.5L72,36.8c-1.9-7.81-9.2-9.35-10.87-9.6l-.2,2.38A10.5,10.5,0,0,1,70,39.29l0,.19-.14.13a52.49,52.49,0,0,1-5.29,4.08l-.45.31L64,43.47c-2.47-10.09-7.46-15.68-11.21-18.58l-.7-.55.88-.12a38.54,38.54,0,0,1,5.78-.39l0-2.38a38.89,38.89,0,0,0-13.67,2.28,25.39,25.39,0,0,0-9.26,5.67l-.24.24-.26-.21c-1.36-1.05-2.75-2.15-4.13-3.25l-.33-.27.31-.29a41.8,41.8,0,0,1,10-7,28.3,28.3,0,0,1,17.35-2.93,71.09,71.09,0,0,1,18.72,7.16l1.16-2.09a71.91,71.91,0,0,0-22.32-8l-1.25-.22L76.94,3.1l1.88,4L81,6,78.11,0l-28,12H50a51.17,51.17,0,0,0-24.39,3.84A41.22,41.22,0,0,0,6.09,33.65,43.53,43.53,0,0,0,3.88,38.2L2.73,40.93,3.16,38c.3-2.06.7-4.06,1.17-6,2.07-8.19,5.72-14.68,10.85-19.29,5.4-4.85,12.39-7.54,20.77-8a62.6,62.6,0,0,1,18.31,2l.58-2.32a65,65,0,0,0-19-2.1C26.88,2.85,19.4,5.75,13.58,11,8.09,15.91,4.2,22.8,2,31.46A77.27,77.27,0,0,0,.14,54.3a49.42,49.42,0,0,0,4.07,17c2.41,5.51,5.71,10.22,9.06,12.93,12.35,10,26.05,10.2,35.39,8.63A61.78,61.78,0,0,0,84.27,72.63ZM44.82,52.58a56.26,56.26,0,0,1-6.64,1.35l-.29,0-.11-.28a25.53,25.53,0,0,1-1.7-7L36,45.86l.67.51a79.7,79.7,0,0,0,8.24,5.53l.79.45ZM56.76,33.8l.16-1,.53.86a36.41,36.41,0,0,1,4.46,11.42l.06.26-.23.14c-.44.27-.89.53-1.34.78l-.18.1L60,46.28c-1.54-.8-3.26-1.79-5.11-2.93l-.25-.16.09-.27A72.19,72.19,0,0,0,56.76,33.8Zm-11.11,3a53.75,53.75,0,0,0,2-11.15l0-.26.24-.07c.24-.08.49-.15.73-.21l.1,0,.13,0A21.26,21.26,0,0,1,54.78,30l.08.08,0,.16a93.29,93.29,0,0,1-2.15,11.12l-.14.49-.43-.28c-2-1.29-4.12-2.76-6.37-4.36l-.22-.16Zm-7.82-6a22.42,22.42,0,0,1,6.76-4.3l.59-.24-.07.63a49.79,49.79,0,0,1-1.44,8.19l-.14.52-.44-.32c-1.74-1.27-3.5-2.59-5.23-3.91l-.34-.27ZM57.05,47.38l.62.35L57,48A66.71,66.71,0,0,1,49.1,51.3l-.1,0-.14,0a68.18,68.18,0,0,1-10.34-6.53,132.25,132.25,0,0,1-10.19-8.59L26.7,37.93c2.35,2.17,4.63,4.16,6.8,5.93l.09.08,0,.16v.06a25.73,25.73,0,0,0,1.62,9.63l.16.46-.49,0c-.71.05-1.43.09-2.12.1h-.12l-.14-.09A46.73,46.73,0,0,1,25,40.84a79.69,79.69,0,0,1-3.13-10.32l0-.11.05-.14,3.61-5.65.32.27C30.3,28.57,45.8,41.06,57.05,47.38Zm-36.63-26A40.89,40.89,0,0,1,26.59,18a46.31,46.31,0,0,1,16.87-3.76l2.34-.09L43.61,15a43.79,43.79,0,0,0-14.36,9.19l-.24.24-.25-.21c-1-.82-2-1.59-2.73-2.24L25,21.05l-3.83,6L21,26.11c-.28-1.48-.51-2.94-.69-4.35l0-.23Z"/><path class="cls-2" d="M83.38,59.8l-1.61,1.54,1-2c6.94-13.53,6.49-25.36,6.33-27.6v-.11c1.94-5.93,1.34-10,1.08-11.26l-2.29.68a16.86,16.86,0,0,1-.07,6.06A33.63,33.63,0,0,1,81.6,40.92c-6.47,9-19,17.09-31.89,20.67C37.45,65,26.21,64.08,18,59l-1.28,2c7.63,4.75,17.52,6.15,28.62,4l1.35-.25-1,.9a49.38,49.38,0,0,1-10.84,7.2l-.11,0h-.3c-7.93,0-14.28-1.88-18.88-5.6-3.79-3.06-6.53-7.5-8.14-13.2l-2.31.63c1.74,6.19,4.75,11,9,14.44a28.38,28.38,0,0,0,14.31,5.73l1.48.2-1.39.53a119,119,0,0,1-11.59,3.6l.6,2.31A93.6,93.6,0,0,0,36,75,50.28,50.28,0,0,0,51.08,63.74l0-.05.09,0c13.28-3.89,25.65-12.06,32.33-21.33.82-1.14,1.59-2.31,2.28-3.48l.89-1.5-.19,1.73a54.09,54.09,0,0,1-2.42,11l-.06.11a59.79,59.79,0,0,1-10.63,8.75A69.12,69.12,0,0,1,53.1,67.31l.58,2.32c14.81-3.77,22.53-9.28,27.05-13.1l1.35-1.13L81.31,57a58.07,58.07,0,0,1-4.83,8.21l-.07.07C62.86,74,46.49,75.91,43.67,76.19l.21,2.38a88.92,88.92,0,0,0,20.44-4.78c9.91-3.62,23-10.71,29.21-23.94l-2.17-1A36.86,36.86,0,0,1,83.38,59.8Z"/><path class="cls-2" d="M78.53,85l1.26,2a25.06,25.06,0,0,0,8.87-10.63,34.79,34.79,0,0,0,2.92-15.12l-2.38,0a32.46,32.46,0,0,1-2.71,14.08A22.72,22.72,0,0,1,78.53,85Z"/><path class="cls-2" d="M70.37,12.81a29.93,29.93,0,0,1,8-1,34,34,0,0,1,10.91,1.8l.79-2.25a35.36,35.36,0,0,0-20.48-.78Z"/></g></g></svg>