<svg xmlns="http://www.w3.org/2000/svg" viewBox="0 0 72.66 120.79"><defs><style>.cls-1{fill:#8c6c2a;}</style></defs><g id="Capa_2" data-name="Capa 2"><g id="Icons"><path class="cls-1" d="M72.41,52.16c-.7-.95-1.53-.64-6.15,1.14-1.38.54-3.08,1.19-5.14,2a57.16,57.16,0,0,0-6.92,3.16,7.45,7.45,0,0,0,1.69-3l.31-1.64a3.94,3.94,0,0,0-.88-3.26,5.24,5.24,0,0,0-1.88-1.4,5.22,5.22,0,0,0,2.42-4.06l.33-4.45a4.47,4.47,0,0,0-1.2-3.4,5.13,5.13,0,0,0-1.35-1,5.62,5.62,0,0,0,1.47-3.46l.3-4.45a4.79,4.79,0,0,0-1.26-3.58A4.35,4.35,0,0,0,51,23.31h-.1a4.76,4.76,0,0,0,1.53-3.15l.31-4a4,4,0,0,0-1.09-3.06,4.75,4.75,0,0,0-3.45-1.53l-2,0a4.14,4.14,0,0,0,.85-.82,3.52,3.52,0,0,0,.71-2.7l-.64-3.83C46.73,1.74,45,0,42.74,0L40.08,0A4.54,4.54,0,0,0,36,2.52a4.8,4.8,0,0,0-.52-.69A4.62,4.62,0,0,0,32.13.36l-2.66,0C27.24.32,25.52,1.94,25,4.45l-.79,3.73A3.4,3.4,0,0,0,24.92,11a4.57,4.57,0,0,0,1.13,1l-2.84,0a4.35,4.35,0,0,0-4.5,4.39l.23,3.83a4.68,4.68,0,0,0,1.33,3,4.66,4.66,0,0,0-4,4.87l.22,4.46a5.59,5.59,0,0,0,1.39,3.5,4.68,4.68,0,0,0-2.62,4.34l.25,4.46A5.21,5.21,0,0,0,17.8,49a4.69,4.69,0,0,0-2.65,4.36l.26,4.46a5.21,5.21,0,0,0,2.28,4.09A4.7,4.7,0,0,0,15,66.22l.25,4.45a5.6,5.6,0,0,0,.49,2,75,75,0,0,1-7.7-3.2C3.68,67.2,2.24,67,1.48,67.08A1.54,1.54,0,0,0,.12,68c-.46,1.16.38,2.65,3.63,6.39,2.59,3,10.48,12.08,10.9,15.65a35.38,35.38,0,0,1-.3,8.4c-.62,5.31-1.21,10.32,3.37,15.17,4.11,4.36,9.2,6.69,13.61,6.25h0a8.94,8.94,0,0,0,7.49-4.82c2.87-5.42,1.18-14.37-.81-19a1,1,0,0,0,.2-.6c-.06-2.09.71-5.53,1.76-9.3A23.82,23.82,0,0,0,41.51,82l1.28-4.75a4.66,4.66,0,0,0,.14-.77c.9-2.83,1.67-5.27,2.14-7.06,1.25-4.78,11-10,16.78-12.15,2.07-.77,3.78-1.43,5.17-2l2.31-.88-.41.52c-.67.83-1.5,1.86-2.44,3.1-4.73,6.26-7.91,17.07-8.37,22.46a65.58,65.58,0,0,0,0,7.29c.4,11.69,1,29.3-13.28,30.72l-.31,0a24,24,0,0,1-5.55,0,1,1,0,0,0-1.3.72,1.06,1.06,0,0,0,.72,1.3c1,.29,2.85.3,6.3,0l.37,0c16.21-1.61,15.55-21.16,15.15-32.87a66.89,66.89,0,0,1,0-7c.45-5.14,3.47-15.43,8-21.37.92-1.22,1.74-2.24,2.39-3.06C72.43,53.86,73.07,53.06,72.41,52.16ZM54.1,40.48l-.33,4.45a2.92,2.92,0,0,1-2.84,2.85l-4.48,0a2.92,2.92,0,0,1-2.79-2.9l-.25-4.46a2.7,2.7,0,0,1,2.53-2.7h.3l5.08,0a3,3,0,0,1,2.12.95A2.39,2.39,0,0,1,54.1,40.48ZM27.52,78l.38.78c-.23-.22-.44-.45-.68-.67a16.28,16.28,0,0,0-4.09-2.49l1.51,0a7.15,7.15,0,0,0,.82,0,4.07,4.07,0,0,0,3.82-3,5.07,5.07,0,0,0,1,1.55,4.61,4.61,0,0,0-2.68,1.82A2.14,2.14,0,0,0,27.52,78ZM29.3,63.77a4.19,4.19,0,0,0-.59-.81,5,5,0,0,0-1.38-1,5.09,5.09,0,0,0,1.55-1.55,5,5,0,0,0,1.66,2A5,5,0,0,0,29.3,63.77Zm.86-42a5.5,5.5,0,0,0,.9,1.4,5.1,5.1,0,0,0-2.25,2.08,6.07,6.07,0,0,0-.47-.63,4.5,4.5,0,0,0-.52-.46A4.56,4.56,0,0,0,30.16,21.79Zm-1.24-9,2,0a5.52,5.52,0,0,0-.8,1.13,3.93,3.93,0,0,0-1.18-1.15Zm12.39,9.62a4.48,4.48,0,0,0,2.53,1.88,4.67,4.67,0,0,0-.92,1,4.67,4.67,0,0,0-.65-.9,5.17,5.17,0,0,0-1.57-1.15A7.66,7.66,0,0,0,41.31,22.41Zm-.4-9.85H42a4.63,4.63,0,0,0-.58.5h0A4.27,4.27,0,0,0,40.91,12.56Zm-.38,24.21a5.17,5.17,0,0,0,2.14-2.36,5.1,5.1,0,0,0,1.11,1.82A5,5,0,0,0,42,37.89l0-.06A4.93,4.93,0,0,0,40.53,36.77Zm.55,4.3-.34,4.45a2.93,2.93,0,0,1-2.84,2.85l-4.48,0a2.94,2.94,0,0,1-2.79-2.91L30.38,41a2.7,2.7,0,0,1,2.53-2.7l.3,0,5.08,0a2.91,2.91,0,0,1,2.12,1A2.42,2.42,0,0,1,41.08,41.07Zm-.35-15.24a2.53,2.53,0,0,1,.69,1.91l-.35,4.6a3.07,3.07,0,0,1-3,3l-4.64,0a3.06,3.06,0,0,1-2.92-3l-.26-4.61a2.83,2.83,0,0,1,2.64-2.84h.71a5.31,5.31,0,0,0,1.13.16L37,25a4.89,4.89,0,0,0,.54,0,5.72,5.72,0,0,0,.57-.11h.41A3.09,3.09,0,0,1,40.73,25.83Zm-11.8,8.54A5.1,5.1,0,0,0,31,36.69a4.88,4.88,0,0,0-1.53,1.16,4.59,4.59,0,0,0-.54-.71,5.06,5.06,0,0,0-1.19-.92A5.29,5.29,0,0,0,28.93,34.37ZM29,47.47a5,5,0,0,0,1.82,2.16,5.07,5.07,0,0,0-1.46,1.12,5.85,5.85,0,0,0-.53-.7,5.13,5.13,0,0,0-1.38-1A5,5,0,0,0,29,47.47Zm1.52,10.86-.26-4.45a2.7,2.7,0,0,1,2.53-2.7l.31,0,5.07.05a3,3,0,0,1,2.13.94A2.4,2.4,0,0,1,41,54l-.34,4.45a2.92,2.92,0,0,1-2.84,2.86l-4.48,0A2.93,2.93,0,0,1,30.52,58.33Zm9.94-8.62a5.2,5.2,0,0,0,1.91-2.21,4.94,4.94,0,0,0,1.68,1.66A4.9,4.9,0,0,0,42,51a2.15,2.15,0,0,0-.18-.24A4.79,4.79,0,0,0,40.46,49.71ZM51,25.41a2.26,2.26,0,0,1,1.61.75,2.71,2.71,0,0,1,.71,2L53,32.63a2.81,2.81,0,0,1-2.16,2.84l-4.14,0c-1.23,0-2.23-1.25-2.31-2.89l-.22-4.46a2.58,2.58,0,0,1,2.16-2.71h.21Zm-2.8-11.7a2.66,2.66,0,0,1,1.92.84A2,2,0,0,1,50.67,16L50.36,20a2.56,2.56,0,0,1-2.51,2.43l-2.76,0a2.55,2.55,0,0,1-2.47-2.48l-.15-2.64.09-.76a4.44,4.44,0,0,0-.05-1.26,2.46,2.46,0,0,1,2.11-1.57h.28ZM39.8,2.11h.26l2.66,0a2.65,2.65,0,0,1,2.37,2.47l.64,3.83a1.39,1.39,0,0,1-.3,1.08,2.71,2.71,0,0,1-2.11,1l-3.18,0a2.38,2.38,0,0,1-2.35-2.33L37.67,4.3A2.28,2.28,0,0,1,39.8,2.11ZM36,9.75a4.69,4.69,0,0,0,1,1.5l-1.81,0A4.68,4.68,0,0,0,36,9.75Zm1.46,3.6a3.23,3.23,0,0,1,2.38,1.09,2.44,2.44,0,0,1,.47.8,4.79,4.79,0,0,0-.05.85l.07,1.13L40,19.77a3.41,3.41,0,0,1-2.22,3l-3.9,0a3.2,3.2,0,0,1-2.12-2.95l-.19-3.51a2.91,2.91,0,0,1,2.71-2.9l.33,0ZM27,4.88A2.78,2.78,0,0,1,29.2,2.44h.25l2.66,0a2.58,2.58,0,0,1,1.82.8,1.89,1.89,0,0,1,.53,1.42l-.27,3.75a2.42,2.42,0,0,1-2.39,2.3l-3.19,0a2.8,2.8,0,0,1-2.05-1,1.3,1.3,0,0,1-.32-1.11Zm-4.11,9.21h.27l3.18,0a2.54,2.54,0,0,1,1.84.8,1.88,1.88,0,0,1,.51,1.41l-.29,3.82A2.45,2.45,0,0,1,26,22.46l-2.66,0A2.41,2.41,0,0,1,21,20.08l-.23-3.83A2.22,2.22,0,0,1,22.93,14.09Zm-2.4,11.19h.21l4.45,0a2.26,2.26,0,0,1,1.61.75,2.71,2.71,0,0,1,.7,2l-.3,4.45A2.8,2.8,0,0,1,25,35.37l-4.14,0c-1.23,0-2.23-1.25-2.31-2.89L18.37,28A2.59,2.59,0,0,1,20.53,25.28ZM17.62,44.74l-.26-4.46a2.72,2.72,0,0,1,2.53-2.7h.31l5.07,0a2.92,2.92,0,0,1,2.13.94,2.4,2.4,0,0,1,.66,1.82l-.34,4.45a2.92,2.92,0,0,1-2.83,2.85l-4.49,0A2.91,2.91,0,0,1,17.62,44.74ZM17.5,57.65l-.25-4.46a2.7,2.7,0,0,1,2.53-2.7h.3l5.08,0a2.93,2.93,0,0,1,2.12.95A2.44,2.44,0,0,1,28,53.29l-.34,4.45a2.92,2.92,0,0,1-2.84,2.85l-4.48,0A2.92,2.92,0,0,1,17.5,57.65Zm2.16,5.75.3,0,5.08,0a2.93,2.93,0,0,1,2.13.95,2.42,2.42,0,0,1,.66,1.81l-.34,4.46c-.16,2.17-.9,2.86-2.84,2.85l-4.48,0a2.92,2.92,0,0,1-2.78-2.91l-.26-4.45A2.71,2.71,0,0,1,19.66,63.4ZM37,114.09a6.89,6.89,0,0,1-5.85,3.72l.1,1-.1-1c-3.72.37-8.28-1.78-11.89-5.61-3.91-4.14-3.4-8.47-2.81-13.48a36.75,36.75,0,0,0,.3-8.9c-.43-3.73-6.32-10.92-11.4-16.77a31.31,31.31,0,0,1-2.95-3.78,25.83,25.83,0,0,1,4.74,2.06,83.58,83.58,0,0,0,8.5,3.51C19.73,76.36,24,78,25.8,79.61c3.34,3.06,5.25,7,7.28,11.23.78,1.62,1.59,3.28,2.49,5C37.53,99.4,39.74,108.86,37,114.09ZM34.73,89.44,36,89.6a2.17,2.17,0,0,0,.51,0,2.25,2.25,0,0,0,.44-.14c-.27,1.18-.47,2.27-.62,3.28L35,89.93ZM38,85.38c-.64,1.29-1.28,2.09-1.7,2.14l-1.44-.18c-1-.12-1.9-2.41-2.5-3.92-.23-.6-.46-1.17-.67-1.62L29.38,77c.08-.34,1.52-1.11,3.63-1.32h.34c.13,0,.25,0,.39,0l4.48,0,.52,0,.18,0c1.53,0,1.84.2,1.91.28a1.11,1.11,0,0,1,0,.13C39.91,79,38.89,82.29,38,85.38Zm3.4-19.06-.34,4.45a3,3,0,0,1-2.26,2.79l-5,0h-.29A2.93,2.93,0,0,1,31,70.68l-.25-4.46a2.7,2.7,0,0,1,2.53-2.7h.3l5.08,0c1.32,0,2.09.2,2.43.57A3.06,3.06,0,0,1,41.42,66.32Zm2,1.52.11-1.36c.13-1.79-.15-3-.9-3.78a3.29,3.29,0,0,0-1.34-.83,5.38,5.38,0,0,0,.85-1.21,5.13,5.13,0,0,0,1.4,2.22,2.75,2.75,0,0,0,2.1.68,2.57,2.57,0,0,0,.47-.08l1-.26A13.87,13.87,0,0,0,43.4,67.84ZM54.14,53.42l-.31,1.64c-.3,1.57-4.14,5.31-6,5.78l-2.31.61a.62.62,0,0,1-.68-.16,5.51,5.51,0,0,1-1.2-3.4l-.25-4.45A2.71,2.71,0,0,1,46,50.73h.3l5.08.05a3.23,3.23,0,0,1,2.36,1.11A1.86,1.86,0,0,1,54.14,53.42Z"/></g></g></svg>