<svg xmlns="http://www.w3.org/2000/svg" viewBox="0 0 98.56 97.6"><defs><style>.cls-1{fill:none;}.cls-2{fill:#455e2b;}</style></defs><g id="Capa_2" data-name="Capa 2"><g id="Icons"><path class="cls-1" d="M25,76.43a18.25,18.25,0,0,1,12.29-11c6.17-1.75,12.48-.31,16.45,3.75a10.85,10.85,0,0,0,1.93,1.68,9.37,9.37,0,0,0-.24-2.43c-.62-3.29-3.58-6.31-7.2-7.35-3-.87-4.64-2.08-4.85-3.61-.09-.66,0-1.94,1.9-3.09,4.38-2.7,15.16-3.2,24,2.88,1.45,1,2.23,1.07,2.38,1,.19-.79-2.5-5-10.84-8.43l-1.42-.56c-2-.77-3.08-1.19-3.12-2.31s1.11-1.79,3.74-3c3.65-1.69,7.09-1.45,10.72-1.2.9.07,1.83.13,2.78.16a8.31,8.31,0,0,0,2.53-.16A14.5,14.5,0,0,0,70,39.67,23.14,23.14,0,0,0,65.71,39c-1.23-.09-2.12-.16-2.43-1s.27-1.54,2.84-3.94c1-.89,2.2-2,3.75-3.54,0-.1-.08-.27-.42-.38-1.43-.42-5.28.79-10.5,8.08-3.55,5-4.88,5.6-6,5.08s-1.24-2-.4-5.33c1.31-5.13-.06-12.09-1.07-14.25a21.74,21.74,0,0,0-.57,4.6c0,.93-2.55,17.4-6,17.41h0c-1.49,0-2.1-1.68-2.35-6.4a13.85,13.85,0,0,0-3.8-9.27,4.87,4.87,0,0,0-.92-.86,10.11,10.11,0,0,0,.72,3.71c3.94,11.87-4.84,26.31-12,32.33l-.48.41a19.68,19.68,0,0,1-7.39,4.21A20.61,20.61,0,0,1,25,76.43Z"/><path class="cls-1" d="M79.53,10.84c-2.86-2.73-7.74-5-11.48-6.36,7.78,4.19,13.24,8.84,11.41,20.09-.31,1.9,1.67,3.72,4,5.82,2.93,2.69,6.26,5.73,6.64,10.41.07.8.55,1.32,1.4,2.17a8,8,0,0,1,2.82,6.49A28.89,28.89,0,0,0,95,56.22a25.26,25.26,0,0,0,.87-3.4C99,37.63,90,20.79,80.31,11.58Z"/><path class="cls-1" d="M11.9,69.67c-3.16,0-8,2.15-9.31,4.73-1,2-.34,4.47.43,6.19A25.4,25.4,0,0,0,7.36,87c4.15,4.61,9.57,7.53,11.79,6.34.46-.25.88-.51,1.28-.77a1,1,0,0,1,0-.45,6.25,6.25,0,0,0-.44-3.7C18.51,84.4,12.94,77,10.47,77h0a1,1,0,0,1,0-2.07h0c4.1,0,10.06,8.95,11.48,12.75a9.74,9.74,0,0,1,.67,3.11A9.25,9.25,0,0,0,25,81.55C23.44,75.44,17.08,69.67,11.9,69.67Z"/><path class="cls-2" d="M26.34,79.11A16,16,0,0,1,37.85,67.46c5.45-1.54,11-.32,14.41,3.21,1.78,1.82,3.23,2.9,4.47,2.25s1.13-2.73.73-4.83a12.16,12.16,0,0,0-8.66-9c-2.55-.73-3.32-1.54-3.37-1.9s.25-.63.94-1.06C49.51,54.24,59.43,53,68.14,59c2.43,1.67,3.82,1.51,4.56,1.1a2,2,0,0,0,1-2c-.17-2.62-4-6.92-12-10.18l-1.46-.57-1.28-.52c.44-.25,1.12-.58,2-1,3.18-1.47,6.21-1.26,9.71-1,.93.07,1.88.13,2.85.17,2.11.06,4.56-.06,4.8-1.82.35-2.48-5.35-4.93-7.79-5.54A26.24,26.24,0,0,0,66,37l1.5-1.41c1-.89,2.21-2,3.77-3.56a2.11,2.11,0,0,0,.58-2.18,2.76,2.76,0,0,0-2.33-1.78c-1.59-.26-5.94.12-12.28,9a28,28,0,0,1-3.2,3.91,14.82,14.82,0,0,1,.47-2.45c1.47-5.75,0-15.15-2.14-16.93a1.51,1.51,0,0,0-1.63-.3c-.85.37-1.68,1.47-1.94,7-.14,3-2.35,12.27-3.77,14.89a22.66,22.66,0,0,1-.45-3.9,15.82,15.82,0,0,0-4.3-10.5c-1.7-1.95-2.87-1.89-3.56-1.5-1.28.73-1.33,2.8-.16,6.35,3.48,10.49-4.38,24.22-11.38,30.1l-.51.42c-1.63,1.4-3.51,3-8.64,4.43a11.32,11.32,0,0,0-4.25-.91c-3.37,0-9.21,2.27-11.06,5.84-1.12,2.16-1,4.92.38,8a27.72,27.72,0,0,0,4.69,6.91c4,4.43,8.74,7.29,12.08,7.29a4.76,4.76,0,0,0,2.23-.52c8-4.3,7.71-10.67,6.85-14.08A17.44,17.44,0,0,0,26.34,79.11Zm-.29-13.45.48-.41c7.18-6,16-20.46,12-32.33a10.11,10.11,0,0,1-.72-3.71,4.87,4.87,0,0,1,.92.86,13.85,13.85,0,0,1,3.8,9.27c.25,4.72.86,6.4,2.35,6.4h0c3.44,0,6-16.48,6-17.41a21.74,21.74,0,0,1,.57-4.6c1,2.16,2.38,9.12,1.07,14.25-.84,3.31-.73,4.8.4,5.33s2.47-.13,6-5.08c5.22-7.29,9.07-8.5,10.5-8.08.34.11.46.28.42.38-1.55,1.5-2.79,2.65-3.75,3.54-2.57,2.4-3.18,3-2.84,3.94s1.2.94,2.43,1a23.14,23.14,0,0,1,4.27.63,14.5,14.5,0,0,1,6.1,3.12,8.31,8.31,0,0,1-2.53.16c-1,0-1.88-.09-2.78-.16-3.63-.25-7.07-.49-10.72,1.2-2.63,1.22-3.77,1.87-3.74,3s1.13,1.54,3.12,2.31l1.42.56c8.34,3.39,11,7.64,10.84,8.43-.15.07-.93,0-2.38-1-8.87-6.08-19.65-5.58-24-2.88-1.86,1.15-2,2.43-1.9,3.09.21,1.53,1.84,2.74,4.85,3.61,3.62,1,6.58,4.06,7.2,7.35a9.37,9.37,0,0,1,.24,2.43,10.85,10.85,0,0,1-1.93-1.68c-4-4.06-10.28-5.5-16.45-3.75A18.25,18.25,0,0,0,25,76.43a20.61,20.61,0,0,0-6.34-6.56A19.68,19.68,0,0,0,26.05,65.66Zm-3.44,25.1a9.74,9.74,0,0,0-.67-3.11c-1.42-3.8-7.38-12.75-11.48-12.75h0a1,1,0,0,0,0,2.07h0c2.47,0,8,7.43,9.54,11.41a6.25,6.25,0,0,1,.44,3.7,1,1,0,0,0,0,.45c-.4.26-.82.52-1.28.77C16.93,94.49,11.51,91.57,7.36,87A25.4,25.4,0,0,1,3,80.59c-.77-1.72-1.47-4.19-.43-6.19,1.34-2.58,6.15-4.7,9.31-4.73,5.18,0,11.54,5.77,13.07,11.88A9.25,9.25,0,0,1,22.61,90.76Z"/><path class="cls-2" d="M53.11,13.22c1.66,1.42,2.3,1.62,5.67.71l.38,0A28.13,28.13,0,0,0,62,13.58a8.27,8.27,0,0,1,5.72.76,1,1,0,1,0,.81-1.9c-3.41-1.45-4.85-1.22-6.85-.9-.72.11-1.55.24-2.62.31l-.58.05c-2.83.75-2.9.69-4-.25-.41-.35-.92-.78-1.63-1.29-2.18-1.54-9-3.57-11-2.66A1.46,1.46,0,0,0,41,8.89c-.08.87.58,1.71,2.28,2.9a3.9,3.9,0,0,1,1.94,3.29c0,.14,0,.21,0,.23A4.6,4.6,0,0,1,42.41,14c-5.67-5.94-16.29-3.87-19.57-2-1,.56-1.44,1.21-1.25,1.93C21.88,15,23.31,15,23.85,15c4,0,10.46.82,12.58,3l-.58.1a23.38,23.38,0,0,0-7.42,2.16c-2.84,1.57-3,2.88-2.85,4.84a9.74,9.74,0,0,1-.09,2.59c-1.61.28-4.92,1-7,1.59s-4.58,1.56-4.38,3.08,2.32,1.46,3.34,1.46h.35c2.25,0,8.49,3,9,3.91a34.72,34.72,0,0,1-.3,5.45c-.2,0-.52-.13-.79-.21a15.29,15.29,0,0,0-4.94-.72c-3.59,0-4.79.07-5.16,1.22s.81,2,3.42,4c.72.53,1.37,1,1.75,1.23,2.68,1.72,2.3,3.36,2.17,3.9-1.17,5-13.09,10.8-15.54,11.08-1.28.15-2.68-2.46-3.88-7.35-1.09-4.45-1.14-11.12-.15-19.83C4.7,24.17,10.4,14.52,19.79,8.52,30.38,1.75,44.87.18,57.6,4.4a1,1,0,0,0,1.3-.65,1,1,0,0,0-.65-1.31C44.94-2,29.78-.32,18.68,6.77,8.74,13.13,2.72,23.3,1.25,36.19c-1,9-.94,15.87.21,20.56,1,4.19,2.6,8.93,5.74,8.93a2.42,2.42,0,0,0,.38,0C10.66,65.31,23.43,59.31,24.9,53c.38-1.65.16-4-3.07-6.11-.36-.23-1-.66-1.65-1.16-.5-.37-1.26-.92-1.85-1.4.67,0,1.54,0,2.39,0a12.59,12.59,0,0,1,4.36.64c1,.28,1.84.52,2.59,0,1-.74,1-2.1,1.13-7.16A2.23,2.23,0,0,0,28,36.15c-1.92-2-8-4.43-10.26-4.43h-.27A15.36,15.36,0,0,1,19,31.23c3.14-.84,7-1.6,7.31-1.64a1.11,1.11,0,0,0,1-.78,11.78,11.78,0,0,0,.3-3.87c-.09-1.43-.12-1.86,1.79-2.92a21.82,21.82,0,0,1,6.75-1.92c1.71-.29,2.34-.39,2.7-1a1.19,1.19,0,0,0,.08-.94c-1.45-4.07-9.37-5-13.19-5.18a22.07,22.07,0,0,1,5.88-.86c2.69,0,6.62.55,9.26,3.31.77.81,3.34,2.47,5.07,1.78a2.11,2.11,0,0,0,1.29-2.14,6,6,0,0,0-2.82-5c-.32-.22-.57-.41-.76-.57,2,.17,6.21,1.3,7.92,2.51A19,19,0,0,1,53.11,13.22Z"/><path class="cls-2" d="M81,9.34C76.08,4.69,65.88,1.15,63.23,1.15c-1.16,0-1.44.67-1.51,1-.24,1,.54,1.7,3.34,3.13,8.62,4.41,14.13,8.11,12.36,19-.49,3,2,5.27,4.61,7.67S87.7,37.1,88,41a5.41,5.41,0,0,0,2,3.46,6,6,0,0,1,2.22,5c0,2,.29,7.77,1.67,9.18a1.44,1.44,0,0,0,1.06.47c1.3,0,2.08-1.53,3-5.84,3.23-16-6.12-33.55-16.17-43.15ZM95.88,52.82a25.26,25.26,0,0,1-.87,3.4,28.89,28.89,0,0,1-.72-6.76A8,8,0,0,0,91.47,43c-.85-.85-1.33-1.37-1.4-2.17-.38-4.68-3.71-7.72-6.64-10.41-2.3-2.1-4.28-3.92-4-5.82,1.83-11.25-3.63-15.9-11.41-20.09,3.74,1.33,8.62,3.63,11.48,6.36l.78.74C90,20.79,99,37.63,95.88,52.82Z"/><path class="cls-2" d="M92.5,63.05a1,1,0,0,0-1.06,1c0,1.15-.13,2.45-.32,4.35-1,10-9.32,18.61-22.76,23.48-14,5.08-30.58,4.81-36.12-.59a6.07,6.07,0,0,1-1.41-6.74c1.44-4.27,6-3.65,13.3-2.12,5.58,1.16,11.35,2.36,15-.62a34.8,34.8,0,0,0,3-3.16c0,.22,0,.46-.06.73-.13,1.14-.33,3,2,3.68,1.93.54,3.06-1.85,4-3.76.17-.36.39-.83.58-1.2a20.16,20.16,0,0,1,.66,2.81c.1.5.37,2,1.62,2.15s2-.9,3.08-3.4c1.13-2.66.84-3.85.34-5.12a4.79,4.79,0,0,1,0-3.63c.08-.29.23-.83.35-1.12l.67.16c.42.12,1,.25,1.61.39,3.37.67,5.78.22,7.17-1.36,1.61-1.84,1.65-4.91.11-9.39-.45-1.31-.63-2-.75-2.39a16.72,16.72,0,0,0-1.49-3.43A7.27,7.27,0,0,1,85,56c.32.64.86,1.41,1.64,1.49a1,1,0,0,0,1-.41.9.9,0,0,0,0-1,59.18,59.18,0,0,1-.51-7.32,1.09,1.09,0,0,0-1.06-1,1.05,1.05,0,0,0-1,1.06c0,1.1.1,2.95.22,4.62-1.57-1.24-3.85-2.26-5-1.67-.24.12-1.36.8-.48,2.58a16.77,16.77,0,0,1,1.55,3.47c.13.45.32,1.12.79,2.49,1.24,3.61,1.34,6.16.29,7.36s-3.43,1.05-5.21.69c-.61-.12-1.1-.25-1.5-.35-2.33-.62-2.85,0-3.53,2.39a6.69,6.69,0,0,0,.1,4.94c.33.85.57,1.46-.32,3.56a13.62,13.62,0,0,1-.78,1.58c-.65-3.53-1.26-4.78-2.41-4.93s-1.92,1.2-2.72,2.92c-.38.81-1.16,2.49-1.54,2.65-.57-.16-.64-.18-.5-1.46a4.29,4.29,0,0,0-1-3.83,1.05,1.05,0,0,0-1.68.3,32.34,32.34,0,0,1-3.62,4.13c-2.88,2.36-8.15,1.26-13.26.2C37.89,79,31,77.58,28.88,83.9a8.07,8.07,0,0,0,1.91,8.87C34.07,96,40.49,97.6,48,97.6a63.25,63.25,0,0,0,21-3.77c14.21-5.15,23-14.34,24.11-25.21.19-2,.29-3.3.33-4.5A1,1,0,0,0,92.5,63.05Z"/></g></g></svg>