<svg xmlns="http://www.w3.org/2000/svg" viewBox="0 0 97.46 114.73"><defs><style>.cls-1{fill:#9b1b21;}</style></defs><g id="Capa_2" data-name="Capa 2"><g id="Icons"><path class="cls-1" d="M59.7,87.73a1.24,1.24,0,0,0-1.6.73,25.49,25.49,0,0,1-32.86,14.85,1.25,1.25,0,0,0-.88,2.34,27.75,27.75,0,0,0,9.85,1.81A28.16,28.16,0,0,0,60.44,89.34,1.26,1.26,0,0,0,59.7,87.73Z"/><path class="cls-1" d="M97.34,24.75a26.9,26.9,0,0,0-37.88-12A32.87,32.87,0,0,0,58.72.94a1.25,1.25,0,1,0-2.42.63c1.09,4.19,1.7,11-1.43,19.9a18.59,18.59,0,0,0-12.35.43A18.87,18.87,0,0,0,31.68,32.83c-.18.47-.34,1-.48,1.43-1.91,6.63-5.93,11.64-11.32,14.13a34.22,34.22,0,0,0-4,59.94l-1.93.51a1.25,1.25,0,1,0,.64,2.42l3.31-.88v3.1a1.25,1.25,0,0,0,2.5,0v-2.72l.05,0A34.23,34.23,0,0,0,65.64,65.83a22.08,22.08,0,0,1,.72-18.23,19.65,19.65,0,0,0,1.19-3.24A18.85,18.85,0,0,0,57.94,22.7c-.24-.12-.49-.22-.74-.33A43.51,43.51,0,0,0,59,15.87,27,27,0,0,0,75,29.13a27.06,27.06,0,0,0,7.79,1.15,27,27,0,0,0,14-3.93A1.26,1.26,0,0,0,97.34,24.75ZM80.77,21.22a1.13,1.13,0,0,0,.32.05,1.25,1.25,0,0,0,.33-2.46L63,13.81a24.41,24.41,0,0,1,31.62,11,24.57,24.57,0,0,1-18.81,2A24.56,24.56,0,0,1,62,16.15ZM63.35,66.83a31.73,31.73,0,0,1-41.92,41.66c-.6-.26-1.18-.54-1.75-.84l-.06,0a31.72,31.72,0,0,1,1.31-57C27,47.86,31.49,42.29,33.6,35c.12-.42.26-.84.42-1.25a16.39,16.39,0,0,1,9.4-9.48,16.14,16.14,0,0,1,5.91-1.12A16.37,16.37,0,0,1,64.1,46.53,24.56,24.56,0,0,0,63.35,66.83Z"/></g></g></svg>