<svg xmlns="http://www.w3.org/2000/svg" viewBox="0 0 114.44 103.93"><defs><style>.cls-1{fill:none;}.cls-2{fill:#455e2b;}</style></defs><g id="Capa_2" data-name="Capa 2"><g id="Icons"><path class="cls-1" d="M66.12,4.87c-17.58,0-39.58,8.38-44.55,48.3-1.12,8.94-5.66,17.61-13.13,25.09a12.18,12.18,0,0,0,8.62,20.8c65.91,0,87.23-37.74,87.23-56A38.22,38.22,0,0,0,66.12,4.87Zm32,40.37c0,21.8-24.27,52.49-78.22,52.49a3.47,3.47,0,1,1,0-6.94c53.86,0,71.28-30.68,71.28-45.55a3.47,3.47,0,0,1,6.94,0Z"/><path class="cls-2" d="M18.5,94.26a1.41,1.41,0,0,0,1.4,1.41c52.52,0,76.15-29.49,76.15-50.43a1.4,1.4,0,1,0-2.8,0c0,15.54-17.93,47.62-73.35,47.62A1.4,1.4,0,0,0,18.5,94.26Z"/><path class="cls-2" d="M113.55,5.19h0C102.44.8,96.5,5.65,94,8.92l-.64.82-.82-.63A42.51,42.51,0,0,0,66.12,0c-19.54,0-44,9.12-49.39,52.57-1,7.85-5,15.54-11.73,22.24a17.06,17.06,0,0,0,12.06,29.12c63.53,0,92.1-35.6,92.1-60.88a42.68,42.68,0,0,0-13.1-30.87l-.64-.62.51-.72c1.6-2.25,6.42-7,16.59-3a1.42,1.42,0,0,0,1.07,0,1.43,1.43,0,0,0,.75-.78A1.4,1.4,0,0,0,113.55,5.19Zm-7.19,37.86c0,19-21.83,58.08-89.3,58.08A14.26,14.26,0,0,1,7,76.79c7.14-7.14,11.48-15.4,12.54-23.88,5.15-41.41,28.19-50.1,46.6-50.1A40.28,40.28,0,0,1,106.36,43.05Z"/></g></g></svg>