<svg xmlns="http://www.w3.org/2000/svg" viewBox="0 0 85.07 102.79"><defs><style>.cls-1{fill:#2e213c;}</style></defs><g id="Capa_2" data-name="Capa 2"><g id="Icons"><path class="cls-1" d="M66.68,102.79h0a1,1,0,0,1-.69-.27c-6.61-6-16.17-8.84-26.29-11.8C23.47,86,6.73,81.1.88,62.12c-2-6.54-.59-12.24,4.36-17.41,5.56-5.82,15.52-10.88,30.45-15.49,10.81-3.33,19.84-5,26.84-5,11.14,0,17.83,4.12,20.44,12.61,6.41,20.8-3.17,30.76-10.87,38.77C65,83,59.31,88.89,67.36,101a1,1,0,0,1,.35.76A1,1,0,0,1,66.68,102.79ZM62.53,26.25c-6.8,0-15.63,1.66-26.24,4.93C21.91,35.61,12,40.64,6.72,46.12c-4.39,4.59-5.66,9.62-3.88,15.39,5.53,17.94,21.73,22.67,37.4,27.25,8.44,2.46,16.51,4.82,23,9.06-5-10.75,1.06-17,7.42-23.65,7.71-8,16.44-17.1,10.39-36.75C78.67,29.8,72.79,26.25,62.53,26.25Z"/><path class="cls-1" d="M25.59,34.43a1,1,0,0,1-.94-.62c-4.6-10.9-17.57-20-17.7-20.05a1,1,0,0,1-.24-1.46l4-5.32a1,1,0,0,1,1.4-.22c.61.43,14.9,10.59,19.29,24.84a1,1,0,0,1-2,.61C25.87,20.5,14.82,11.37,11.77,9L9,12.7C12.06,15,22.36,23.13,26.53,33A1,1,0,0,1,26,34.35,1,1,0,0,1,25.59,34.43Z"/><path class="cls-1" d="M34.31,31.74a1,1,0,0,1-1-.66L22.58,2.52l-4.09,2.4c1.34,1.65,3.29,5.43,5.87,13.8a1,1,0,1,1-2,.6c-3.61-11.72-5.72-13.43-6-13.6a1,1,0,0,1-.18-1.85L22.6.14a1,1,0,0,1,.85-.08,1,1,0,0,1,.62.6l11.2,29.7a1,1,0,0,1-.6,1.32A1.13,1.13,0,0,1,34.31,31.74Z"/><path class="cls-1" d="M38.66,30.4a1,1,0,0,1-1-.72L30.31,5.77,24.4,5.55a1,1,0,0,1-1-1.06,1,1,0,0,1,1.06-1l6.64.25a1,1,0,0,1,.94.72l7.59,24.61a1,1,0,0,1-1,1.32Z"/><path class="cls-1" d="M42.14,29.33a1,1,0,0,1-.86-.47C36.68,21.74,37.56,10.6,38,7.1l-3-.3c-.19.92-.36,3.56.95,10.41a1,1,0,0,1-.81,1.2,1,1,0,0,1-1.2-.82C33,12.4,32.13,6,33.81,4.86a1,1,0,0,1,.67-.17l4.76.48a1,1,0,0,1,.71.4,1,1,0,0,1,.2.78c0,.14-2.13,13.7,2.85,21.4a1,1,0,0,1-.86,1.58Z"/><path class="cls-1" d="M22,76a1,1,0,0,1-.76-1.7c3.09-3.44,8.6-5.76,8.83-5.86a1,1,0,1,1,.79,1.89c-.06,0-5.32,2.25-8.1,5.34A1,1,0,0,1,22,76Z"/><path class="cls-1" d="M73.43,54.81a1.05,1.05,0,0,1-.7-.28s-2.15-1.73-8.85-.74a1,1,0,1,1-.3-2c7.72-1.14,10.28,1,10.55,1.27a1,1,0,0,1,.05,1.44A1,1,0,0,1,73.43,54.81Z"/><path class="cls-1" d="M67.9,79.61a1.05,1.05,0,0,1-.68-.26s-3.28-2.87-6.44-2.42a1,1,0,0,1-1.17-.87,1,1,0,0,1,.87-1.16c4.11-.6,7.94,2.78,8.1,2.92a1,1,0,0,1,.09,1.44A1,1,0,0,1,67.9,79.61Z"/><path class="cls-1" d="M48.53,93.37a.55.55,0,0,1-.18,0,1,1,0,0,1-.83-1.18A8.1,8.1,0,0,1,52.84,86a1,1,0,1,1,.6,1.95,6,6,0,0,0-3.9,4.54A1,1,0,0,1,48.53,93.37Z"/><path class="cls-1" d="M19,49.79a1,1,0,0,1-.53-1.89,61.77,61.77,0,0,1,17.25-7.35,1,1,0,0,1,.5,2,59.66,59.66,0,0,0-16.68,7.1A1,1,0,0,1,19,49.79Z"/></g></g></svg>