<svg xmlns="http://www.w3.org/2000/svg" viewBox="0 0 119.53 102.81"><defs><style>.cls-1{fill:#9b1b21;}</style></defs><g id="Capa_2" data-name="Capa 2"><g id="Icons"><path class="cls-1" d="M100.47,25.56C89.37,18.74,81,18.73,73.9,21.71,66.14,9.39,52.18.73,38.79,0,29.21-.45,21,3.25,15.67,10.47c-14.23,19.24-.15,39.25,0,39.45l.12.13C9.49,54.4,4.19,60.55,1.67,67.33s-4.38,19.88,11.82,31c4.44,3,10.43,4.51,18.29,4.51,16,0,37.23-6.26,57.75-12.31l6.07-1.79c13.33-3.9,22-13.38,23.64-26C121.13,48.55,113.59,33.62,100.47,25.56ZM14.9,96.23C3.93,88.73.07,78.78,4,68.21,8.82,55.3,24.32,44.8,36.55,46.2c9.41,1.07,16.25-5,23.52-11.53,10.12-9,20.57-18.36,39.09-7,12.29,7.55,19.37,21.49,17.6,34.68C115.21,74,107.24,82.7,94.89,86.31L88.82,88.1C60.72,96.39,28.87,105.79,14.9,96.23Zm2.79-47.77c-.13-.19-13.13-18.77,0-36.5C22.5,5.44,30,2.1,38.66,2.54c12.53.64,25.59,8.72,33,20.24-4.79,2.52-9,6.3-13.21,10-6.83,6.09-13.29,11.85-21.58,10.9-6.08-.7-12.91,1.31-19,5A1.34,1.34,0,0,0,17.69,48.46Z"/><path class="cls-1" d="M25.3,71.13a10.8,10.8,0,0,1-5.86-7.56,1.24,1.24,0,0,0-.53-.79,1.21,1.21,0,0,0-.94-.19,1.26,1.26,0,0,0-1,1.46,13.33,13.33,0,0,0,7.26,9.34,1.18,1.18,0,0,0,.53.12A1.26,1.26,0,0,0,26,71.84,1.23,1.23,0,0,0,25.3,71.13Z"/><path class="cls-1" d="M24.36,89.15A5.38,5.38,0,0,1,21.48,87a1.23,1.23,0,0,0-1.73-.33,1.25,1.25,0,0,0-.34,1.73,7.9,7.9,0,0,0,4.21,3.11,1.21,1.21,0,0,0,.38.06,1.25,1.25,0,0,0,.36-2.45Z"/><path class="cls-1" d="M69.1,80.26a14,14,0,0,1-10.61-1.68,1.26,1.26,0,0,0-1.88,1.35,1.28,1.28,0,0,0,.56.78,16.56,16.56,0,0,0,12.53,2,1.26,1.26,0,0,0,.77-.57,1.24,1.24,0,0,0,.14-.94A1.25,1.25,0,0,0,69.1,80.26Z"/><path class="cls-1" d="M63.05,57.11a16.24,16.24,0,0,0,5.91,1H69a1.25,1.25,0,0,0,0-2.49,14.21,14.21,0,0,1-5-.8,3.93,3.93,0,0,1-2.54-3.07,1.28,1.28,0,0,0-.41-.87,1.24,1.24,0,0,0-.91-.31A1.25,1.25,0,0,0,59,51.87,6.39,6.39,0,0,0,63.05,57.11Z"/><path class="cls-1" d="M99.67,60.87A5.66,5.66,0,0,0,101,61a6.19,6.19,0,0,0,5-2.55,1.24,1.24,0,0,0,.21-.93,1.25,1.25,0,0,0-1.45-1,1.24,1.24,0,0,0-.8.51,3.54,3.54,0,0,1-6.39-1.49,1.21,1.21,0,0,0-.5-.81,1.24,1.24,0,0,0-.93-.23,1.26,1.26,0,0,0-1,1.43A6.18,6.18,0,0,0,99.67,60.87Z"/><path class="cls-1" d="M27.06,21.17a17.72,17.72,0,0,0-7.34,5,1.24,1.24,0,0,0,.94,2.06,1.23,1.23,0,0,0,.95-.43,15.28,15.28,0,0,1,6.31-4.33,1.26,1.26,0,0,0,.75-1.6A1.27,1.27,0,0,0,27.06,21.17Z"/><path class="cls-1" d="M45.73,29.51a1.18,1.18,0,0,0,.68.2,1.26,1.26,0,0,0,1.05-.56,9.74,9.74,0,0,1,4-3.47A1.24,1.24,0,0,0,52.1,25a1.21,1.21,0,0,0,0-.95,1.26,1.26,0,0,0-1.66-.61,12.33,12.33,0,0,0-5,4.37A1.25,1.25,0,0,0,45.73,29.51Z"/></g></g></svg>