<svg xmlns="http://www.w3.org/2000/svg" viewBox="0 0 98.9 116.51"><defs><style>.cls-1{fill:#8c6c2a;}</style></defs><g id="Capa_2" data-name="Capa 2"><g id="Icons"><path class="cls-1" d="M34.7,109.11a28.23,28.23,0,0,1-10-1.84,1,1,0,0,1,.74-2A26.22,26.22,0,0,0,59.21,90a1,1,0,1,1,2,.74A28.36,28.36,0,0,1,34.7,109.11Z"/><path class="cls-1" d="M34.68,115.46h0A34.67,34.67,0,0,1,20.13,49.31c5.56-2.56,9.7-7.73,11.67-14.54.14-.49.3-1,.48-1.45A19.11,19.11,0,0,1,50.06,21,19,19,0,0,1,68.42,44.94a19.36,19.36,0,0,1-1.2,3.27A22.67,22.67,0,0,0,66.49,67a34.48,34.48,0,0,1,.64,26A34.87,34.87,0,0,1,34.68,115.46ZM50.06,23.12A17,17,0,0,0,34.24,34.06c-.16.43-.3.86-.43,1.29-2.14,7.41-6.68,13-12.8,15.87A32.57,32.57,0,1,0,64.56,67.81a24.79,24.79,0,0,1,.77-20.51,17.71,17.71,0,0,0,1.07-2.91A16.91,16.91,0,0,0,50.06,23.12Z"/><path class="cls-1" d="M56.79,23.49a1.13,1.13,0,0,1-.36-.06,1.06,1.06,0,0,1-.63-1.35c3.36-9.26,2.72-16.41,1.59-20.77a1,1,0,1,1,2-.52c1.2,4.65,1.9,12.24-1.65,22A1,1,0,0,1,56.79,23.49Z"/><path class="cls-1" d="M84.23,30.43a27.24,27.24,0,0,1-7.9-1.17,27.28,27.28,0,0,1-16.8-14.59,1,1,0,0,1,.4-1.34A27.24,27.24,0,0,1,98.8,25.1a1,1,0,0,1-.4,1.34A27.27,27.27,0,0,1,84.23,30.43ZM61.85,14.64A25.16,25.16,0,0,0,76.94,27.25a25.26,25.26,0,0,0,19.54-2.12A25.11,25.11,0,0,0,61.85,14.64Z"/><path class="cls-1" d="M82.44,21.23a.84.84,0,0,1-.27,0l-22-6a1,1,0,1,1,.55-2l22,6a1,1,0,0,1-.27,2.06Z"/><path class="cls-1" d="M19.26,116.51a1,1,0,0,1-1.05-1.05V112l-3.65,1a1.05,1.05,0,0,1-.54-2l5-1.31a1,1,0,0,1,1.32,1v4.81A1,1,0,0,1,19.26,116.51Z"/></g></g></svg>