<svg xmlns="http://www.w3.org/2000/svg" viewBox="0 0 44.28 97.42"><defs><style>.cls-1{fill:#2e213c;}</style></defs><g id="Capa_2" data-name="Capa 2"><g id="Icons"><rect class="cls-1" x="26.24" y="13.04" width="19.35" height="2.05" transform="translate(19.76 49.09) rotate(-86.64)"/><rect class="cls-1" x="7.72" y="4.38" width="2.05" height="19.37" transform="translate(-1.05 0.71) rotate(-4.38)"/><path class="cls-1" d="M22.24,8.82C16.57,8.82,7,7.89,7,4.41S16.57,0,22.24,0,37.51.93,37.51,4.41,27.91,8.82,22.24,8.82Zm0-6.77C14.12,2.05,9.39,3.6,9,4.47c.37.75,5.1,2.3,13.22,2.3S35.1,5.22,35.47,4.35C35.1,3.6,30.36,2.05,22.24,2.05Z"/><path class="cls-1" d="M22.12,97.42c-.93,0-2.86,0-12.66-26.87C4.88,58,0,43.07,0,40.22,0,27,8.28,19.12,22.14,19.12S44.28,27,44.28,40.22c0,2.85-4.89,17.76-9.49,30.33C25,97.42,23.05,97.42,22.12,97.42Zm0-76.25c-12.58,0-20.09,7.12-20.09,19,0,5.59,16.45,50.35,20.07,54.91,3.62-4.56,20.11-49.32,20.11-54.91C42.23,28.29,34.72,21.17,22.14,21.17Z"/><path class="cls-1" d="M26.24,84.21l-1.95-.63c.1-.32,10.25-31.65,11.92-41.09,1.56-8.83-8.09-14.91-8.19-15l1.08-1.74c.44.28,10.92,6.88,9.12,17.06C36.53,52.42,26.66,82.92,26.24,84.21Z"/></g></g></svg>