<svg xmlns="http://www.w3.org/2000/svg" viewBox="0 0 117.21 119.98"><defs><style>.cls-1{fill:#2e213c;}</style></defs><g id="Capa_2" data-name="Capa 2"><g id="Icons"><path class="cls-1" d="M91.33,46.66c-.61,0-11.91-.27-20.13,2.43L90.1,30.2a1,1,0,0,0-1.45-1.45l-18.9,18.9c2.71-8.22,2.45-19.52,2.43-20.14a1,1,0,0,0-1-1h0a1,1,0,0,0-1,1.06c0,.19.45,19.24-5.37,25.06L56,61.43a32.87,32.87,0,0,0,.83-11.87,10.9,10.9,0,0,1,4.32-9.07A1,1,0,0,0,60,38.76a12.21,12.21,0,0,0-4,5,63.43,63.43,0,0,0-1.81-7.18,1,1,0,1,0-1.94.64,64.29,64.29,0,0,1,2.52,12.71c0,.49,0,1,.11,1.54C55.16,57,54.4,63,50.79,66.6l-4.2,4.21c2.13-6.91.49-14.36.4-14.78a1,1,0,0,0-2,.45c0,.13,2.89,13-3.84,19.77L24.49,92.91a1,1,0,0,0,0,1.45,1,1,0,0,0,1.44,0L42.6,77.7c6.71-6.72,19.63-3.88,19.76-3.85a1,1,0,1,0,.46-2c-.42-.1-7.88-1.73-14.79.4l4.21-4.21c3.64-3.64,9.69-4.38,15.35-4.06h0a62.19,62.19,0,0,1,14,2.63,1,1,0,1,0,.65-1.94,59.44,59.44,0,0,0-7.18-1.81,12.22,12.22,0,0,0,4.94-4,1,1,0,1,0-1.72-1.11,11,11,0,0,1-9,4.32,33,33,0,0,0-11.89.84l8.79-8.8C72,48.25,91.09,48.7,91.28,48.71a1,1,0,0,0,1-1A1,1,0,0,0,91.33,46.66Z"/><path class="cls-1" d="M115.52,47.9a15.26,15.26,0,0,0-2.84-3.75,10.72,10.72,0,0,0,2.68-11.48,11,11,0,0,0-11.56-7.24,1.06,1.06,0,0,0,.08-.4,14.22,14.22,0,0,0-10-13.3,17.26,17.26,0,0,0-4.74-.89,10.1,10.1,0,0,0-5.95-9.56A12.43,12.43,0,0,0,72,1.35a9.78,9.78,0,0,0-5,6.16,17.09,17.09,0,0,0-1.73-.35c-8.27-1.25-15.9,3.76-17,11.16a.93.93,0,0,0,.12.62,15.26,15.26,0,0,0-1.83,2.15,10.56,10.56,0,0,0-.93,1.57,11.59,11.59,0,0,0-9.83,4.05,11.41,11.41,0,0,0-2.39,9.53,8.81,8.81,0,0,0-4.51,2.91,8.72,8.72,0,0,0-1.56,8.32c2,6.11.7,14.19-3.88,24C20,78.9,14.67,84.7,8.47,87.8a13.71,13.71,0,0,0-3.24,2.55C.29,95.14-1.21,101,1,106.8c2.67,7,10.59,12.83,18,13.17h.68a11.88,11.88,0,0,0,11.15-7.09C35.4,103.49,44,98,50.33,95,62.05,89.52,71.7,88,79,90.36A10.26,10.26,0,0,0,92.16,83.1a13.36,13.36,0,0,0,11.36-2.76,13.64,13.64,0,0,0,4.74-11.66,13.66,13.66,0,0,0,2-1.14C116.82,62.94,119.11,54.5,115.52,47.9ZM65,9.18a15,15,0,0,1,2.51.6,1,1,0,0,0,.86-.1A1,1,0,0,0,68.82,9l0-.23A7.67,7.67,0,0,1,73,3.15a10.38,10.38,0,0,1,9.3,0A8,8,0,0,1,87,11.47l0,.23a1,1,0,0,0,.24.83,1,1,0,0,0,.8.34,14.78,14.78,0,0,1,5.21.8,12.2,12.2,0,0,1,8.63,11.39,1,1,0,0,0,.3.7A11,11,0,0,0,98,27.88l-.2.17a.92.92,0,0,0-.23.29,9.13,9.13,0,0,0-.69-2,10.23,10.23,0,0,0-9.17-5.84,10,10,0,0,0-6.43,2.32,11.22,11.22,0,0,0-1-1.09,13.5,13.5,0,0,0-14.12-3.19,4.69,4.69,0,0,0-2-1.53c-.24-.12-.53-.25-.9-.46a12.5,12.5,0,0,0-12.65.62C52.28,11.71,58.37,8.18,65,9.18ZM93.35,38a11.83,11.83,0,0,1,3.24,3.26c3.25,4.85,2.06,11.58-2.78,15.66a8.42,8.42,0,0,1-1.91,1.27,1,1,0,0,0-.56,1.17,10.46,10.46,0,0,1-2.63,9.84A10.35,10.35,0,0,1,79.4,72a1,1,0,0,0-.84.2,1,1,0,0,0-.39.77A7.25,7.25,0,0,1,76,77.9a7.42,7.42,0,0,1-6.83,2c-7.31-1.67-16.46.65-27,6.84-8.07,4.73-14.11,11.43-17,18.86a8.74,8.74,0,0,1-2,3.1,9.17,9.17,0,0,1-14-1.29,9.19,9.19,0,0,1,0-10.4,9,9,0,0,1,3.56-3c8.31-3.94,14.2-8.8,18-14.88C38,67.45,40.78,57.57,39,49.68a7.38,7.38,0,0,1,6.89-9,1,1,0,0,0,.77-.38,1,1,0,0,0,.21-.84,10.25,10.25,0,0,1,2.76-9.31A10.41,10.41,0,0,1,57,27a9.59,9.59,0,0,1,2.2.26,1,1,0,0,0,1.17-.56,12.47,12.47,0,0,1,2.18-3.46,11.53,11.53,0,0,1,16.31,0,11.92,11.92,0,0,1,1.43,1.74,1,1,0,0,0,.75.44,1,1,0,0,0,.82-.29l.17-.17a8,8,0,0,1,5.68-2.35A8.1,8.1,0,0,1,95,27.27a7.87,7.87,0,0,1-1.67,9l-.16.16a1,1,0,0,0-.3.83A1,1,0,0,0,93.35,38Zm15.7,27.84a9.64,9.64,0,0,1-2.25,1.21,1,1,0,0,0-.66,1.11,11.63,11.63,0,0,1-3.93,10.59,11.36,11.36,0,0,1-10.56,2.09,1,1,0,0,0-.86.12,1.06,1.06,0,0,0-.45.74A8.06,8.06,0,0,1,87.42,87a8.14,8.14,0,0,1-7.77,1.46c-7.82-2.57-18-1-30.19,4.72C42.79,96.25,33.82,102.05,29,112a9.86,9.86,0,0,1-9.9,5.93c-6.67-.3-13.78-5.5-16.19-11.85-1.34-3.54-1.78-8.88,3.79-14.28a11.75,11.75,0,0,1,2.7-2.16c6.6-3.3,12.26-9.44,15.92-17.29,4.81-10.3,6.15-18.88,4-25.51a6.73,6.73,0,0,1,5.5-8.77,1,1,0,0,0,.73-.46,1,1,0,0,0,.12-.85A9.42,9.42,0,0,1,37.37,28a9.62,9.62,0,0,1,8.76-3.25,1,1,0,0,0,1.11-.67,8,8,0,0,1,1-1.84c3.32-4.77,9.37-6.44,14.07-3.89.42.23.74.38,1,.51a2.71,2.71,0,0,1,.89.55,13.57,13.57,0,0,0-3.1,2.32,12.36,12.36,0,0,0-2.24,3.32A12.47,12.47,0,0,0,44.68,38.73,9.43,9.43,0,0,0,37,50.13c1.67,7.34-1,16.71-8,27.84-3.61,5.74-9.22,10.36-17.16,14.12a11.13,11.13,0,0,0-4.37,3.7,11.29,11.29,0,0,0,0,12.75,11.19,11.19,0,0,0,19.65-2.24c2.72-7,8.44-13.34,16.11-17.83,10.08-5.91,18.75-8.16,25.53-6.62a9.42,9.42,0,0,0,8.73-2.5,9.31,9.31,0,0,0,2.67-5.18,12.44,12.44,0,0,0,10-3.5,12.51,12.51,0,0,0,3.35-11,13,13,0,0,0,1.63-1.18c5.64-4.76,7-12.65,3.16-18.37A13.83,13.83,0,0,0,95.45,37a10.1,10.1,0,0,0,2.31-7.45,1,1,0,0,0,1.33,0l.2-.16a9,9,0,0,1,8-1.76,9.09,9.09,0,0,1,6.19,5.7,8.75,8.75,0,0,1-2.78,9.81l-.19.16a1,1,0,0,0-.37.79,1,1,0,0,0,.38.79,13.19,13.19,0,0,1,3.24,3.93C116.81,54.56,114.8,61.86,109.05,65.86Z"/></g></g></svg>