<svg xmlns="http://www.w3.org/2000/svg" viewBox="0 0 148.37 69.25"><defs><style>.cls-1{fill:#9b1b21;}</style></defs><g id="Capa_2" data-name="Capa 2"><g id="Icons"><path class="cls-1" d="M17.34,8.5l24.12-.07a1.58,1.58,0,1,0,0-3.15l-24.12.07a1.58,1.58,0,1,0,0,3.15Z"/><path class="cls-1" d="M47.52,8.49H50.6a1.57,1.57,0,1,0,0-3.14H47.51a1.58,1.58,0,0,0,0,3.15Z"/><path class="cls-1" d="M147.65.89a2.71,2.71,0,0,0-2-.89h0l-8.15,0-.5.06L10.84.42v0L2.73.39A2.74,2.74,0,0,0,0,3.38C3.75,42.19,34.23,69.25,74.17,69.25h.24c40-.11,70.43-27.36,74-66.27A2.74,2.74,0,0,0,147.65.89ZM12.94,3.59l123.11-.33,0,.52c-1.14,30-28.79,54.44-61.65,54.53H74.2C41.43,58.31,13.74,34,12.44,4.12l0-.53Zm132.15.14c-3.8,36.6-32.87,62.24-70.68,62.34h-.23c-37.75,0-66.89-25.45-70.9-61.95l-.06-.56h6l0,.48C9.89,19.5,16.93,34,29.12,44.77A67.82,67.82,0,0,0,74.2,61.49h.19a67.78,67.78,0,0,0,45.18-17c12.13-10.86,19.1-25.37,19.62-40.84l0-.49h5.94Z"/><path class="cls-1" d="M59.45,43a1.59,1.59,0,0,0-2.1.76c-.32.69-.64,1.36-1,2s-.68,1.4-1,2.1a1.59,1.59,0,0,0,.77,2.1,1.54,1.54,0,0,0,.66.14,1.58,1.58,0,0,0,1.43-.91c.32-.69.65-1.37,1-2.05s.67-1.39,1-2.09A1.59,1.59,0,0,0,59.45,43Z"/><path class="cls-1" d="M74.62,46.15h0a1.57,1.57,0,0,0-1.57,1.58c0,.76,0,1.51,0,2.27s0,1.55,0,2.32a1.57,1.57,0,0,0,1.58,1.57h0a1.57,1.57,0,0,0,1.57-1.58c0-.75,0-1.51,0-2.27s0-1.54,0-2.32A1.57,1.57,0,0,0,74.62,46.15Z"/><path class="cls-1" d="M90.44,48.28c.33.68.67,1.36,1,2a1.59,1.59,0,0,0,1.43.91,1.64,1.64,0,0,0,.67-.16A1.58,1.58,0,0,0,94.28,49c-.33-.7-.67-1.4-1-2.09s-.67-1.36-1-2a1.57,1.57,0,0,0-2.85,1.34C89.76,46.89,90.1,47.58,90.44,48.28Z"/><path class="cls-1" d="M45.57,37.58l-2.36,3.25a1.58,1.58,0,0,0,.35,2.2,1.54,1.54,0,0,0,.93.3,1.56,1.56,0,0,0,1.27-.65l2.36-3.25a1.58,1.58,0,0,0-2.55-1.85Z"/><path class="cls-1" d="M104.49,42.52a1.56,1.56,0,0,0,1.27.65,1.53,1.53,0,0,0,.93-.31,1.58,1.58,0,0,0,.34-2.2l-2.38-3.24a1.58,1.58,0,0,0-2.54,1.87Z"/><path class="cls-1" d="M34.8,25.42l-3.19,2.92a1.58,1.58,0,0,0-.09,2.23,1.56,1.56,0,0,0,1.16.5,1.54,1.54,0,0,0,1.06-.41l3.18-2.92a1.57,1.57,0,1,0-2.12-2.32Z"/><path class="cls-1" d="M116.44,30.44a1.53,1.53,0,0,0,1.06.4,1.57,1.57,0,0,0,1-2.74l-3.19-2.9a1.58,1.58,0,1,0-2.12,2.33Z"/><path class="cls-1" d="M26.67,12.22l-3.85,1.46a1.57,1.57,0,0,0-.91,2,1.58,1.58,0,0,0,1.48,1,1.79,1.79,0,0,0,.55-.11l3.85-1.45a1.58,1.58,0,0,0-1.12-2.95Z"/><path class="cls-1" d="M122.31,14.91l3.86,1.44a1.51,1.51,0,0,0,.55.09,1.58,1.58,0,0,0,.55-3.05L123.41,12a1.57,1.57,0,0,0-1.1,2.95Z"/><path class="cls-1" d="M55.27,29.12a1.5,1.5,0,0,0,.79.2,1.56,1.56,0,0,0,1.36-.79c.4-.7.84-1.39,1.28-2.09S59.62,25,60,24.24a1.57,1.57,0,1,0-2.73-1.56c-.4.7-.84,1.39-1.28,2.09s-.92,1.46-1.34,2.2A1.58,1.58,0,0,0,55.27,29.12Z"/><path class="cls-1" d="M74.15,35h0a1.57,1.57,0,0,0,1.55-1.59c0-.8,0-1.62,0-2.44s.06-1.73,0-2.58a1.59,1.59,0,0,0-1.6-1.56,1.57,1.57,0,0,0-1.55,1.59c0,.81,0,1.63,0,2.45s-.06,1.73-.05,2.58A1.57,1.57,0,0,0,74.15,35Z"/><path class="cls-1" d="M91,27.48c.44.7.87,1.4,1.26,2.1a1.58,1.58,0,0,0,1.38.81A1.58,1.58,0,0,0,95,28c-.42-.74-.87-1.47-1.32-2.21s-.87-1.4-1.26-2.1a1.58,1.58,0,1,0-2.75,1.54C90.09,26,90.54,26.74,91,27.48Z"/><path class="cls-1" d="M38.27,17.61a1.57,1.57,0,0,0,2.12.66L44.72,16a1.57,1.57,0,1,0-1.46-2.79l-4.33,2.27A1.57,1.57,0,0,0,38.27,17.61Z"/><path class="cls-1" d="M105,15.83l4.32,2.29a1.54,1.54,0,0,0,.74.19,1.6,1.6,0,0,0,1.39-.84,1.58,1.58,0,0,0-.65-2.13l-4.32-2.29A1.57,1.57,0,1,0,105,15.83Z"/></g></g></svg>