<svg xmlns="http://www.w3.org/2000/svg" viewBox="0 0 103.89 104.05"><defs><style>.cls-1{fill:#2e213c;}</style></defs><g id="Capa_2" data-name="Capa 2"><g id="Icons"><path class="cls-1" d="M12.51,104.05a1,1,0,0,1-.83-1.63c7.11-9.68,12.49-31.73,13.6-36.51A40.71,40.71,0,0,1,.06,40.72a1,1,0,0,1,.17-1,1.05,1.05,0,0,1,1-.36,17.92,17.92,0,0,0,2.55.16c9.22,0,28.44-4.37,31.75-5.14,1.23-2.81,7.69-18.21,8-33.38a1,1,0,0,1,1.48-.9C58.55,6.9,66.85,29.6,68.4,34.18c1.22-.08,3.7-.23,6.91-.23,8.39,0,20.06,1,28.07,5.54a1,1,0,0,1,0,1.77C91.68,48.17,80.26,63.09,78.47,65.48c.41,3,3.31,22.83,11.1,32.21A1,1,0,0,1,89,99.34a15.18,15.18,0,0,1-3.11.31c-12.12,0-29.91-11.9-33.79-14.6C49.3,87.9,37.35,98.78,12.72,104A.75.75,0,0,1,12.51,104.05ZM2.56,41.55A38.24,38.24,0,0,0,26.72,64.2a1,1,0,0,1,.76,1.22c-.22,1-5.27,24-12.69,36.05,25.43-6,36.27-18.31,36.38-18.44a1,1,0,0,1,1.37-.16C52.75,83,73.16,97.6,85.88,97.6c.35,0,.69,0,1,0C79,86.53,76.5,66.22,76.39,65.32a1,1,0,0,1,.19-.72c.49-.68,11.77-16.11,24.23-24.15C93.27,36.8,82.91,36,75.31,36c-4.42,0-7.5.28-7.53.29a1,1,0,0,1-1.07-.71c-.08-.26-8-24.85-21.28-32.86-.76,16.57-8.22,32.81-8.29,33a1,1,0,0,1-.69.56c-.91.22-22.42,5.31-32.72,5.31h0C3.32,41.57,2.93,41.57,2.56,41.55Z"/><path class="cls-1" d="M52,49.84a1,1,0,0,1-.77-.34,13.53,13.53,0,0,1-3.41-9c0-2,1.76-3.41,4.18-3.41s4.17,1.43,4.17,3.41a13.48,13.48,0,0,1-3.41,9A1,1,0,0,1,52,49.84Zm0-10.68c-.74,0-2.13.29-2.13,1.37A11.42,11.42,0,0,0,52,47.18a11.49,11.49,0,0,0,2.12-6.65C54.07,39.45,52.68,39.16,52,39.16Z"/><path class="cls-1" d="M37.32,56.38h0a13.24,13.24,0,0,1-3.89-.58c-1.66-.5-2.54-2.13-2.24-4.17s1.66-4,3.72-4a3.2,3.2,0,0,1,.92.13,13.52,13.52,0,0,1,7.61,5.84,1,1,0,0,1,.11.83,1,1,0,0,1-.55.64A13.6,13.6,0,0,1,37.32,56.38Zm-2.41-6.66c-.85,0-1.54,1.14-1.7,2.2-.05.38-.16,1.63.81,1.92a11.28,11.28,0,0,0,3.3.49h0A11.54,11.54,0,0,0,41,53.72a11.39,11.39,0,0,0-5.76-3.95A1.26,1.26,0,0,0,34.91,49.72Z"/><path class="cls-1" d="M60.34,74.42h0a3.07,3.07,0,0,1-2.05-.78,13.51,13.51,0,0,1-4.49-8.48,1,1,0,0,1,.25-.8,1,1,0,0,1,.76-.35,13.54,13.54,0,0,1,9,3.36,3.28,3.28,0,0,1,.79,3.76A5,5,0,0,1,60.34,74.42Zm-4.29-8.31a11.44,11.44,0,0,0,3.59,6,1,1,0,0,0,.7.27h0a3,3,0,0,0,2.34-2,1.25,1.25,0,0,0-.24-1.5A11.41,11.41,0,0,0,56.05,66.11Z"/><path class="cls-1" d="M38.93,75h0a4.93,4.93,0,0,1-4.22-3.36,3.28,3.28,0,0,1,.92-3.82,13.47,13.47,0,0,1,9.11-3,1.06,1.06,0,0,1,.75.38,1,1,0,0,1,.21.81,13.45,13.45,0,0,1-4.82,8.29A3.07,3.07,0,0,1,38.93,75Zm4.49-8.12a11.5,11.5,0,0,0-6.51,2.53A1.27,1.27,0,0,0,36.64,71a3,3,0,0,0,2.29,2h0a1,1,0,0,0,.66-.25A11.39,11.39,0,0,0,43.42,66.91Z"/><path class="cls-1" d="M62.4,56.32h0a13.4,13.4,0,0,1-4.48-.77,1,1,0,0,1-.61-.57,1,1,0,0,1,0-.84,13.46,13.46,0,0,1,7-6.55,3.12,3.12,0,0,1,1.19-.24c2,0,3.49,2,3.86,3.84a3.42,3.42,0,0,1-1.89,4.12A13.45,13.45,0,0,1,62.4,56.32ZM59.77,54a11.59,11.59,0,0,0,2.63.3h0a11.41,11.41,0,0,0,4.34-.85c.84-.35.74-1.4.65-1.84-.27-1.39-1.31-2.49-2.26-2.1A11.44,11.44,0,0,0,59.77,54Z"/></g></g></svg>