<svg xmlns="http://www.w3.org/2000/svg" viewBox="0 0 104.6 107.97"><defs><style>.cls-1{fill:none;}.cls-2{fill:#455e2b;}</style></defs><g id="Capa_2" data-name="Capa 2"><g id="Icons"><path class="cls-1" d="M95.35,7.05l-8.58,11.4v.08c-.33,2.14-.75,4.26-1.27,6.34,1.25-.31,2.61-.59,4.07-.86l9.78-13.34Z"/><path class="cls-1" d="M92,29.91l-.13,0a60.25,60.25,0,0,0-6.73,1.53l-1.91.6A62.18,62.18,0,0,1,79,40.86a51.09,51.09,0,0,1,8-3.14,54,54,0,0,1,6.75-1.47c1.33-.19,2.67-.32,4-.41V29.3c-1.65.1-3.31.26-5,.48Z"/><path class="cls-1" d="M9,100.9l3-2-2.15,2.86c.12.1.21.23.34.32a3.87,3.87,0,0,1,.55.38h0l.07.06a8.68,8.68,0,0,0,10.34-.9,8.32,8.32,0,0,0,2.13-3c2.86-6.79,6.05-11.8,10-15.78l31-31A3.15,3.15,0,0,1,65,48.74l.92-1c.42-.44,1-1,1.6-1.77l0,0a54.55,54.55,0,0,0,5.78-8,56.57,56.57,0,0,0,4.43-9.38l.09-.26c.35-1,.7-2,1-3.08a61,61,0,0,0,1.67-7.66l.09-.7,0-.18a63.49,63.49,0,0,0,.46-7.18c0-1.62-.09-3.28-.23-4.93l-6.47.94c.1,1.35.16,2.69.17,4a56.41,56.41,0,0,1-.51,7.12,56.68,56.68,0,0,1-1.47,6.76,50.3,50.3,0,0,1-4.89,11.24,47,47,0,0,1-5.1,7c-.49.6-1,1.13-1.39,1.54l-.77.82L27,77.54a38.69,38.69,0,0,1-14.41,9.53,8.28,8.28,0,0,0-3.24,2,8.6,8.6,0,0,0-2.5,6.66,8.49,8.49,0,0,0,1.29,4l.13.14a3.3,3.3,0,0,1,.4.6C8.76,100.65,8.92,100.76,9,100.9Z"/><path class="cls-2" d="M1,98.63l-.46.28a1.08,1.08,0,0,0-.36,1.47,1.11,1.11,0,0,0,1.47.36h0c-.1-.24-.15-.49-.24-.73s-.22-.64-.3-1C1.06,98.9,1,98.77,1,98.63Z"/><path class="cls-2" d="M2.84,103.1l-.18.15a1,1,0,0,0-.37.73,1,1,0,0,0,.25.77,1,1,0,0,0,1.5.13l.07-.06c-.14-.16-.24-.34-.37-.5s-.41-.53-.6-.81S2.93,103.24,2.84,103.1Z"/><path class="cls-2" d="M87.18,14.46l.13-.17h0L95.06,4l7,6.39L92.5,23.5c1-.12,1.91-.22,2.86-.3h0l9-12.33a1.05,1.05,0,0,0-.14-1.42L95.62,1.63a1,1,0,0,0-.81-.27,1.08,1.08,0,0,0-.76.42l-6.68,8.88c0,.89-.08,1.76-.13,2.64,0,.36,0,.72,0,1.07A.28.28,0,0,1,87.18,14.46Z"/><path class="cls-2" d="M88.28,26.45v-.09c-1.44.3-2.75.61-4,.95l-1.77.5L83,26c.52-1.87,1-3.8,1.33-5.75h-.12a3.91,3.91,0,0,1-.48.05,1.87,1.87,0,0,1-.25,0,2.34,2.34,0,0,1-.45-.07,3.08,3.08,0,0,1-.56-.19c-.08,0-.17,0-.25-.08-.37,2-.83,4-1.39,5.89-.32,1.1-.68,2.19-1.07,3.27l-.07.2a57.55,57.55,0,0,1-4.6,9.72,55.65,55.65,0,0,1-6,8.28c-.66.8-1.24,1.41-1.68,1.87l-.92,1a1.06,1.06,0,0,0-.11,1.33l.48.71L34.8,84.32C31,88.1,28,92.91,25.21,99.44a10.41,10.41,0,0,1-2.64,3.69,10.7,10.7,0,0,1-7,2.71.93.93,0,0,1,0,.13,3.18,3.18,0,0,1,.07.92,1,1,0,0,1,0,.17,3,3,0,0,1-.21.84s0,0,0,.07A12.82,12.82,0,0,0,24,104.71a12.5,12.5,0,0,0,3.17-4.44C29.83,94,32.73,89.4,36.31,85.83L70,52.13c.43-.4.86-.82,1.45-1.31a42.93,42.93,0,0,1,6.39-4.61,45.86,45.86,0,0,1,10.23-4.46,50.93,50.93,0,0,1,6.17-1.35,49.75,49.75,0,0,1,6.55-.47,1.08,1.08,0,0,0,1.06-1.07V26.06a1.07,1.07,0,0,0-.32-.75c-.3-.29-.43-.34-.67-.32-1.42,0-2.86.08-4.43.2L94.8,27.46c1.3-.13,2.59-.23,3.88-.28l1.07,0V37.8l-1,.05c-1.6.08-3.21.22-4.8.44a53.84,53.84,0,0,0-6.46,1.42,48.27,48.27,0,0,0-10.73,4.67l-4,2.36,2.28-3.64c.61-.91,1.24-1.9,1.87-3a58.49,58.49,0,0,0,4.46-9.28l.17-.45.46-.16c.81-.28,1.64-.54,2.46-.79,1.37-.39,2.76-.74,4.17-1,0,0,0,0,0,0a3.11,3.11,0,0,1-.39-1.08A3.54,3.54,0,0,1,88.28,26.45Z"/><path class="cls-2" d="M3.77,95a3,3,0,0,1,.95.08h0a10.73,10.73,0,0,1,3.13-7.41,10.61,10.61,0,0,1,4-2.52,36.54,36.54,0,0,0,13.62-9L59.75,41.82c.37-.38.84-.87,1.32-1.45A45.65,45.65,0,0,0,66,33.61a48.16,48.16,0,0,0,4.67-10.76,54,54,0,0,0,1.42-6.48,55.57,55.57,0,0,0,.49-6.82c0-1.53-.1-3.14-.26-4.76l-.09-1L82.75,2.28l.11,1.07c.22,2.06.33,4.16.35,6.21,0,1.12,0,2.23-.11,3.35l2.23-3V9.56A66.2,66.2,0,0,0,84.71.92a1.06,1.06,0,0,0-.41-.7A1,1,0,0,0,83.66,0H83.5L70.84,1.85a1.07,1.07,0,0,0-.9,1.2,49.74,49.74,0,0,1,.47,6.5,49.05,49.05,0,0,1-.47,6.52,49.62,49.62,0,0,1-1.34,6.19,46.42,46.42,0,0,1-4.46,10.26A43.61,43.61,0,0,1,59.45,39c-.47.56-.9,1-1.23,1.37L24,74.57A34.42,34.42,0,0,1,11.2,83.1a12.52,12.52,0,0,0-4.84,3,12.82,12.82,0,0,0-3.75,9.11l.09,0A3,3,0,0,1,3.61,95Z"/><path class="cls-2" d="M4.51,99a.93.93,0,0,0,.31-.28h0A1.28,1.28,0,0,0,5,98.33s0,0,0-.06a1,1,0,0,0,0-.35.14.14,0,0,0,0-.06.87.87,0,0,0-.12-.34l0,0a1.05,1.05,0,0,0-1.43-.33l-.54.32.12.58c.1.4.2.8.34,1.2l.13.36Z"/><path class="cls-2" d="M3.33,99.26c0,.12,0,.25.1.38l0,0Z"/><path class="cls-2" d="M2.84,97.5c0,.19.11.37.15.56l-.12-.58Z"/><path class="cls-2" d="M5,97.92a1,1,0,0,1,0,.35A1,1,0,0,0,5,97.92Z"/><polygon class="cls-2" points="3.46 99.62 3.46 99.62 4.51 98.98 3.46 99.62"/><path class="cls-2" d="M5,98.33a1.28,1.28,0,0,1-.16.36A1.17,1.17,0,0,0,5,98.33Z"/><path class="cls-2" d="M5,97.86a.93.93,0,0,0-.12-.34l0,0,0,0A.87.87,0,0,1,5,97.86Z"/><path class="cls-2" d="M4.82,98.7a.93.93,0,0,1-.31.28A.93.93,0,0,0,4.82,98.7Z"/><polygon class="cls-2" points="3.43 99.64 3.43 99.64 3.46 99.62 3.46 99.62 3.43 99.64"/><path class="cls-2" d="M6.36,102.79h0a1.22,1.22,0,0,1,.34-.29,1.17,1.17,0,0,0,.17-.38.24.24,0,0,1,0-.08,1.56,1.56,0,0,0,0-.31,1.51,1.51,0,0,0-.13-.33l-.18-.24a.31.31,0,0,0-.11-.09,1.1,1.1,0,0,0-.5-.2,1.1,1.1,0,0,0-.78.25l-.71.6.27.44c.22.32.44.64.68.94l.3.36Z"/><path class="cls-2" d="M4.43,101.75c.09.14.21.27.3.41l-.27-.44Z"/><path class="cls-2" d="M5.41,103.1c.1.13.17.26.27.38h0l0,0Z"/><path class="cls-2" d="M6.45,101.07a1.1,1.1,0,0,0-.5-.2A1.1,1.1,0,0,1,6.45,101.07Z"/><path class="cls-2" d="M6.56,101.16l.18.24c0-.05,0-.11-.07-.15A.48.48,0,0,0,6.56,101.16Z"/><path class="cls-2" d="M6.87,101.73a1.56,1.56,0,0,1,0,.31A1.08,1.08,0,0,0,6.87,101.73Z"/><polygon class="cls-2" points="5.17 101.12 4.46 101.72 4.46 101.72 5.17 101.12"/><path class="cls-2" d="M6.87,102.12a1.17,1.17,0,0,1-.17.38l.11-.1A1,1,0,0,0,6.87,102.12Z"/><polygon class="cls-2" points="4.46 101.72 4.43 101.75 4.43 101.75 4.46 101.72 4.46 101.72"/><polygon class="cls-2" points="5.68 103.48 5.68 103.48 5.68 103.48 5.68 103.48"/><path class="cls-2" d="M9.56,105.51a1.11,1.11,0,0,0,.25-.78,1.13,1.13,0,0,0-.24-.56l-.08-.1a.91.91,0,0,1-.16-.11.93.93,0,0,0-.36-.14l-.21,0a1,1,0,0,0-.38.09,1,1,0,0,0-.18.08,2,2,0,0,1-.31.35l-.64.61,0,0c.17.14.31.29.48.42a10.7,10.7,0,0,0,1.14.75l.13.07Z"/><path class="cls-2" d="M7.19,105l.49.4c-.17-.13-.31-.28-.48-.42Z"/><path class="cls-2" d="M9.43,104h0l-.1,0a.91.91,0,0,0,.16.11S9.46,104,9.43,104Z"/><path class="cls-2" d="M8.76,103.8l.21,0A.75.75,0,0,0,8.76,103.8Z"/><path class="cls-2" d="M9.57,104.17a1.13,1.13,0,0,1,.24.56A1.17,1.17,0,0,0,9.57,104.17Z"/><path class="cls-2" d="M8.23,103.93l0,0a1,1,0,0,1,.18-.08C8.33,103.91,8.28,103.9,8.23,103.93Z"/><polygon class="cls-2" points="7.25 104.93 7.2 104.98 7.2 104.98 7.25 104.93"/><polygon class="cls-2" points="7.2 104.98 7.18 105 7.19 105 7.2 104.98 7.2 104.98"/><path class="cls-2" d="M92.14,25.63c-.37.05-.75.13-1.13.2l-.26.05-.23.32a1,1,0,0,0,.23,1.49.89.89,0,0,0,.37.17h.06a1.12,1.12,0,0,0,1.06-.41l1.46-2C93.18,25.52,92.66,25.56,92.14,25.63Z"/><path class="cls-2" d="M93.7,25.46l0,0-1.58.2C92.66,25.56,93.18,25.52,93.7,25.46Z"/><path class="cls-2" d="M91.18,27.87h0Z"/><polygon class="cls-2" points="92.24 27.46 93.7 25.46 93.7 25.46 92.24 27.46"/><polygon class="cls-2" points="93.7 25.46 93.72 25.43 93.72 25.43 93.7 25.46 93.7 25.46"/><path class="cls-2" d="M84.9,16.4c.09-.84.19-1.69.25-2.55a2.18,2.18,0,0,0,0-.25l-2.24,3a1,1,0,0,0-.19.42,1.77,1.77,0,0,0,0,.23,1,1,0,0,0,.06.33c0,.05,0,.09,0,.13a.93.93,0,0,0,.3.38,1,1,0,0,0,1.49-.21l.15-.19C84.83,17.25,84.86,16.82,84.9,16.4Z"/><path class="cls-2" d="M85.15,13.85l0-.27,0,0A2.18,2.18,0,0,1,85.15,13.85Z"/><path class="cls-2" d="M84.77,17.67v0c0-.41.08-.83.12-1.25C84.86,16.82,84.83,17.25,84.77,17.67Z"/><path class="cls-2" d="M82.78,17.56a1,1,0,0,1-.06-.33A1,1,0,0,0,82.78,17.56Z"/><polygon class="cls-2" points="85.16 13.6 85.16 13.6 82.92 16.58 85.16 13.6"/><polygon class="cls-2" points="84.62 17.86 84.77 17.67 84.77 17.67 84.62 17.86"/><path class="cls-2" d="M82.73,17a1,1,0,0,1,.19-.42A1,1,0,0,0,82.73,17Z"/><path class="cls-2" d="M83.13,18.07a.93.93,0,0,1-.3-.38A.93.93,0,0,0,83.13,18.07Z"/><polygon class="cls-2" points="84.77 17.67 84.78 17.65 84.78 17.65 84.77 17.67 84.77 17.67"/><polygon class="cls-2" points="85.17 13.58 85.17 13.58 85.16 13.6 85.16 13.6 85.17 13.58"/></g></g></svg>