<svg xmlns="http://www.w3.org/2000/svg" viewBox="0 0 89.75 98.5"><defs><style>.cls-1{fill:#2e213c;}</style></defs><g id="Capa_2" data-name="Capa 2"><g id="Icons"><path class="cls-1" d="M89.59,58a4,4,0,0,0-3.21-3,5.84,5.84,0,0,0,2.35-3.14,2.41,2.41,0,0,0-.6-2.12,4.2,4.2,0,0,0-3.24-1.48,6.15,6.15,0,0,0-2.31.5,6.46,6.46,0,0,0-.78-4.14,3.24,3.24,0,0,0-2.51-1.35h-.2c-2.87,0-8.09,4.32-11.3,7.24a3.1,3.1,0,0,0-.27-1.23,2.56,2.56,0,0,0-1.88-1.46c-2.44-.54-7.09,3.32-9.68,5.74a3.37,3.37,0,0,0-.61-1.19A2.44,2.44,0,0,0,53,51.63c-2.1.25-4.81,8-8.07,23a31,31,0,0,0-2,2.93,51.39,51.39,0,0,0,0-6.79c.53-1.32,2.37-6.84.64-17.46,3.43-4.53,8-6.94,11.75-8.88,3.4-1.77,5.86-3.06,5.85-5.33,0-1.59-.47-2.68-1.37-3.24l-.16-.09c1-1.28,2.1-3.08,2-4.74a3.23,3.23,0,0,0-1.39-2.44,4.65,4.65,0,0,0-5.21,0c1.55-4.54,3.58-12,1.53-15.41-.88-1.46-1.91-2.2-3.11-2.08a2.57,2.57,0,0,0-1,.25c.47-2.5.69-5.44-.35-7.18a3.16,3.16,0,0,0-2.24-1.57A5.43,5.43,0,0,0,46,3.16a3.86,3.86,0,0,0-1-2.61A2.28,2.28,0,0,0,42.62.18C40.24,1,39.5,3.3,39.29,5.12A5.23,5.23,0,0,0,35.88,4a3.2,3.2,0,0,0-2.49,1.84c-1.31,2.39-.83,6.92-.23,10.17A2.41,2.41,0,0,0,30,16.9c-1.16,1.58-.85,8.73-.64,11.23a2,2,0,0,0-1.15.67,3.28,3.28,0,0,0-.63,1.25c-2.34-2.81-6.05-6.79-8.32-6.79a1.91,1.91,0,0,0-.48.06,2.38,2.38,0,0,0-1.65,1.29,3.37,3.37,0,0,0-.34,1.28c-2.1-2.44-5-5.17-7.32-5.17h0a2.76,2.76,0,0,0-2.16,1.1c-.94,1.21-1,3.26-.9,4.91a4.75,4.75,0,0,0-2.12-.57,3.53,3.53,0,0,0-2.94,1.62A3.19,3.19,0,0,0,.8,30.57a4.8,4.8,0,0,0,1.74,2.35A6.46,6.46,0,0,0,.15,37a4.82,4.82,0,0,0,.62,3.82,11,11,0,0,0,5,3.74,3.52,3.52,0,0,0-.73.76C4.29,46.48,4.26,48,5,50c1.45,3.83,5.78,5,9,5.35a6.74,6.74,0,0,0-2.15,5.45,3.47,3.47,0,0,0,3.68,3.59,7.24,7.24,0,0,0,1.75-.24,4.34,4.34,0,0,0,0,.51,4.16,4.16,0,0,0,1.72,2.93A2.11,2.11,0,0,0,20.3,68c1.58,0,3.18-1.64,5.4-3.91,2.74-2.79,6.45-6.55,11-7.81.38.72.74,1.46,1.1,2.22,7.85,16.78-1.22,38.32-1.31,38.54a1,1,0,0,0,.94,1.43,1,1,0,0,0,.94-.62,65.81,65.81,0,0,0,3.79-13.34,24.52,24.52,0,0,1,4.06-8.22c5.1,1.3,9.28,4.79,12.35,7.38,2.48,2.08,4.26,3.59,5.91,3.59h0A2.38,2.38,0,0,0,65.72,87a3.54,3.54,0,0,0,1.94-2.64,2.08,2.08,0,0,0,0-.35,9.32,9.32,0,0,0,2.25.31c2.2,0,3.55-1.15,3.71-3.15a5.56,5.56,0,0,0-2.09-4.73c3.79-.21,8-1.2,9.47-4.35a4,4,0,0,0,.12-4A3.6,3.6,0,0,0,79.94,67c3.3-1.27,7.9-3.45,9.33-6.12A3.53,3.53,0,0,0,89.59,58ZM31.67,18.11a1,1,0,0,1,.42-.33c.52,0,1.46,1.14,2,2.11A1,1,0,0,0,36,19.14c-.7-2.56-2.19-9.76-.78-12.34.36-.65.7-.76.94-.79,1.09-.11,2.76,1.32,3.41,2a1,1,0,0,0,1.78-.81s-.45-4.32,2-5.13c.22-.07.36-.08.4,0,.43.39.44,2.47,0,4.43a2.48,2.48,0,0,0-.06.27,1,1,0,0,0,.81,1.17,1,1,0,0,0,1.2-.78c0-.06,0-.13,0-.21A3.5,3.5,0,0,1,46.94,5a3.41,3.41,0,0,1,2.61-.41,1.09,1.09,0,0,1,.84.59c1.11,1.87,0,7.1-1,10a1,1,0,0,0,.6,1.28,1,1,0,0,0,1.31-.55c.48-1.12,1.54-2.71,2.29-2.76.27,0,.78.38,1.22,1.1,2,3.27-1.5,13.48-3,17.14a1,1,0,0,0,.41,1.27,1,1,0,0,0,1.32-.22s3.21-3.79,5.51-2.14a1.16,1.16,0,0,1,.53.92c.1,1.42-1.72,3.72-2.89,4.83a1,1,0,0,0,1.15,1.66,1.17,1.17,0,0,1,.88-.06c.19.12.4.57.4,1.51s-2.3,2.23-4.75,3.5c-3.31,1.73-7.67,4-11.21,8-.31-2.23-.6-5-.84-8,2.62-11,9.23-14.16,9.29-14.19a1,1,0,1,0-.83-1.87c-.26.12-5.45,2.55-8.8,10.49-.45-9.68-.22-21,1.71-29.29a1,1,0,1,0-2-.47c-1.59,6.8-2.06,15.24-2,23.18C35,26,34.15,25.21,34.11,25.18a1,1,0,0,0-1.34,1.54s1.09,1,7,6.63c.09,3.22.26,6.3.47,9.12,0,0,0,0,0,.06a1,1,0,0,0,.07.62c.21,2.63.46,5,.71,7-1.36-1.39-3.18-3.29-5-5.29C33.81,34.13,32.33,30.34,31.4,29a1,1,0,0,0,.07-.49C31.09,25.25,31.13,19,31.67,18.11ZM24.24,62.69C22.73,64.23,21,66,20.3,66l-.08,0a2.23,2.23,0,0,1-1-1.47,2.21,2.21,0,0,1,.51-1.42,1,1,0,0,0-1.22-1.6,8.1,8.1,0,0,1-3.08.84c-.91,0-1.54-.28-1.64-1.68-.26-3.84,3.67-5.21,3.84-5.26a1,1,0,0,0,.67-1.18,1,1,0,0,0-1.07-.82,9.06,9.06,0,0,1-1,0c-2.35,0-8-.4-9.4-4.15-.33-.87-.63-2.05-.16-2.73s1.83-.78,2.22-.78h.38a1,1,0,0,0,1.11-.85,1,1,0,0,0-.78-1.16c-1.52-.34-5.76-1.71-7.17-4a2.8,2.8,0,0,1-.37-2.25c.34-1.45,1-3.16,2.42-3.16a1.82,1.82,0,0,1,.74.16,1,1,0,0,0,.82-1.87l-.2-.09C4.54,32,3,31,2.78,30A1.15,1.15,0,0,1,3,29a1.48,1.48,0,0,1,1.27-.76,4.78,4.78,0,0,1,2.74,1.48,1,1,0,0,0,1.74-.93c-.4-1.77-.61-4.71.16-5.7a.76.76,0,0,1,.65-.3c1.93,0,6,4.55,8.25,7.78a1,1,0,0,0,1.33.31,1,1,0,0,0,.45-1.29c-.5-1.17-1.05-3.25-.66-4a.38.38,0,0,1,.31-.22c1.31,0,5.39,4.19,8.38,8.09a1,1,0,0,0,1.83-.75,4.32,4.32,0,0,1,.28-2.5h.07c1.09,1.43,3.16,9.91,5,19.09a47.17,47.17,0,0,0-3.52-4.49l-.07-.07A35.42,35.42,0,0,0,11.85,33.27a1,1,0,0,0-.42,2A33.15,33.15,0,0,1,28.67,45c-3,1-10,3-17,2.56a1.06,1.06,0,0,0-1.09,1,1,1,0,0,0,1,1.09c.73.05,1.46.07,2.18.07a52.1,52.1,0,0,0,16.42-3,48.58,48.58,0,0,1,5.49,7.83C30.83,56,27.05,59.82,24.24,62.69Zm13.56-8.6c-.35-2-.69-3.77-1-5.45,2.21,2.34,4.1,4.25,4.73,4.88A44.44,44.44,0,0,1,42.09,65a35.37,35.37,0,0,0-2.46-7.36C39.05,56.42,38.44,55.24,37.8,54.09Zm49.66,5.78C86,62.69,78.59,65.4,75.88,66.2a1,1,0,0,0-.64,1.15,1.09,1.09,0,0,0,1.14.85c1.2,0,2.59.3,3,1a2.32,2.32,0,0,1-.24,2c-1.39,2.92-7,3.23-9.35,3.23-1.27,0-2.14-.08-2.16-.08a1,1,0,0,0-1.11.82,1,1,0,0,0,.71,1.18s4.59,1.4,4.34,4.65c0,.61-.22,1.26-1.67,1.26a11.34,11.34,0,0,1-3.74-.9,1,1,0,0,0-1.27.37A1,1,0,0,0,65.08,83a1.65,1.65,0,0,1,.54,1.11c0,.44-.54.83-1,1.08a.41.41,0,0,1-.2,0c-.9,0-2.69-1.52-4.59-3.12-3-2.57-7.14-6-12.27-7.55a28.72,28.72,0,0,1,3-3c5-1,10.59,3.41,14.73,6.61a39.64,39.64,0,0,0,3.77,2.71,1,1,0,0,0,.51.13,1,1,0,0,0,.5-1.91,36.77,36.77,0,0,1-3.53-2.55c-3.65-2.83-8.4-6.5-13.23-7.1A21,21,0,0,1,62.63,66c11-1.15,15.73-8.12,15.93-8.42a1,1,0,0,0-1.71-1.12c0,.06-4.35,6.45-14.43,7.51a16.9,16.9,0,0,0-1.89.3A15.07,15.07,0,0,0,61.38,60c.24-2.25.49-4.57,1.94-6.35a1,1,0,0,0-1.59-1.29c-1.83,2.25-2.13,5-2.38,7.42-.29,2.69-.53,4.38-2,5.16a.93.93,0,0,0-.36.35,27.16,27.16,0,0,0-7.32,4.44,1.18,1.18,0,0,0-.27.23c-.55.47-1.08,1-1.6,1.47,2-8.56,4.5-17,5.65-17.81.22,0,.3.06.35.13a3.13,3.13,0,0,1,.27,2,1,1,0,0,0,1.74.87c2.77-2.8,7.47-6.75,9.38-6.75h0c.37.09.44.24.47.32.31.67-.24,2.29-.71,3.16a1,1,0,0,0,1.62,1.21c3.54-3.55,10.07-9.18,12.58-9.18h0a1.17,1.17,0,0,1,1,.49c.71,1,.43,3.38.09,4.65a1,1,0,0,0,1.62,1.07,6,6,0,0,1,3-1.21,2.21,2.21,0,0,1,1.71.78.43.43,0,0,1,.12.39C86.57,52.35,85,54,81,56.06a12.56,12.56,0,0,0-1.22.6,1,1,0,0,0,.93,1.82s.46-.21,1.11-.54A9.33,9.33,0,0,1,85.32,57a2.12,2.12,0,0,1,2.32,1.61A1.54,1.54,0,0,1,87.46,59.87Z"/></g></g></svg>