<svg xmlns="http://www.w3.org/2000/svg" viewBox="0 0 109 132.42"><defs><style>.cls-1{fill:none;}.cls-2{fill:#455e2b;}</style></defs><g id="Capa_2" data-name="Capa 2"><g id="Icons"><path class="cls-1" d="M69.28,63.19a5.8,5.8,0,0,0-3.71,1.52c.22,2.59,2.29,7.37,10.36,16.42A131.41,131.41,0,0,0,69.28,63.19Z"/><polygon class="cls-1" points="64.9 64.29 64.9 64.29 64.9 64.29 64.9 64.29"/><path class="cls-1" d="M58.28,79.09a17.43,17.43,0,0,0-4.72-5.65,1.65,1.65,0,0,1-.86-.3,9.74,9.74,0,0,0-.91-.49l-.42-.21a4.83,4.83,0,0,0-.71-.06c-2.88.13-6,3.62-8.64,9.57a23.26,23.26,0,0,0-1.43,4.64,1.67,1.67,0,0,1,.12.16c11,19.49,19.79,30.16,34.38,30.72,4.56.18,8.78.26,12.53.26h2.77a19.26,19.26,0,0,1-.63-2.45,10.06,10.06,0,0,0-2-5c-1.36-1.61-4.92-5.1-9.06-9.14l.4-.69-.54.55C68.84,91.5,60.63,83.31,58.28,79.09Z"/><polygon class="cls-1" points="39.97 86.8 39.85 86.94 39.85 86.94 40.07 86.8 39.97 86.8"/><path class="cls-1" d="M61.94,60.93a11.28,11.28,0,0,1,4.58-2.57l.21-.07.38-.09C65.69,56,63,52.83,59,52.67c.89,3.38,1.75,6.31,2.55,8.73C61.67,61.22,61.8,61.07,61.94,60.93Z"/><path class="cls-1" d="M31.87,70c-1.16.61-12.1,6.79-10.63,24.57,1.91,22.89,11,33,16.28,34.06a5.74,5.74,0,0,0,1,.11,1.13,1.13,0,0,0,.61-.1s1.13-1.43-1.51-9.34c-3.16-9.44-5.12-28.94-.4-39.49,2-4.47,4.26-7.8,6.71-9.91a33.85,33.85,0,0,0-6.54-.67A17,17,0,0,0,31.87,70Z"/><path class="cls-1" d="M37.44,64a37.68,37.68,0,0,1,16,3.6,11.39,11.39,0,0,1,3.91,2.17,18.71,18.71,0,0,1,.69-2.65C53.7,56.6,46.83,25.5,46.51,11.84c0-2.46-.5-6.74-2.89-7.86a3.51,3.51,0,0,0-1.56-.32A9.39,9.39,0,0,0,36.8,5.75C32.71,9,19.17,29.41,32.54,64.45A26.25,26.25,0,0,1,37.44,64ZM40.6,16.19a2.62,2.62,0,0,1,1.86-.85h0a2.66,2.66,0,0,1,2.69,2.48c.87,17.76,6.17,37,6.23,37.21a2.63,2.63,0,0,1-1.82,3.23h0a2.57,2.57,0,0,1-.67.09,2.68,2.68,0,0,1-2.56-1.91c-.56-2-5.53-20.41-6.41-38.36A2.63,2.63,0,0,1,40.6,16.19Z"/><path class="cls-1" d="M82.19,97.22c4.31,4.21,8,7.82,9.56,9.67a11.43,11.43,0,0,1,1.36,2c.24-1.58.22-2.51-.45-3.47-.43-.6-3-3.09-5.13-5.09-3-2.86-5.43-5.24-7.62-7.43l-1,1Z"/><path class="cls-1" d="M62.41,71.49a9.73,9.73,0,0,0,.25,4.76c1.07,2.59,8.88,10.5,15.42,16.94l.8-1.32C70.37,83.27,65.1,76.75,62.41,71.49Z"/><path class="cls-1" d="M10.81,107.72a11.1,11.1,0,0,0,0-3.66c-2-15.15,1.47-31.82,13.77-35a26,26,0,0,1,3.14-2.59c-.45-1.17-.87-2.32-1.25-3.42-.63-.06-1.27-.08-1.9-.08A19.21,19.21,0,0,0,10,69.39C4.38,75.52,2.32,85,4.58,94,6.78,102.79,9.52,106.6,10.81,107.72Z"/><path class="cls-1" d="M98.9,88.76c1.55,3.3,3,6.4,3.85,7.29a9,9,0,0,0,2,1.7,17,17,0,0,0,.57-4.6c.2-8.61-3.78-27.56-13.86-32.33-3.52-1.67-5.94-2.45-7.61-2.45a5.13,5.13,0,0,0-2.94,1,16.37,16.37,0,0,1-2.49,1.26C88.43,66.42,94.71,79.82,98.9,88.76Z"/><polygon class="cls-2" points="39.85 86.94 39.85 86.94 39.85 86.94 39.85 86.94"/><path class="cls-2" d="M11.26,111.75a2.44,2.44,0,0,0,.53,0c1.09-.21,3.55-1.42,2.65-8.12-1.1-8.36-.36-16.44,2-22.18l.28-.68,2.07.73-.2.7a35.94,35.94,0,0,0-1.07,12.72c2,23.51,11.35,35.85,19.26,37.38,2.3.44,4,0,5.08-1.18,1.78-2,1.53-6-.78-12.94-2.14-6.39-3.33-16.14-3-24.26l.17-3.81,2,3.27c13.44,22.5,23.58,27.39,34.67,27.82,4.68.18,9,.27,12.84.27,6,0,8.9-.22,9.43-.26l.2-.06.23-.06a2.32,2.32,0,0,0,.33-.24l.18-.15,4.12-4.93a1.06,1.06,0,0,0-1-1.74,10.47,10.47,0,0,1-2,.18c-1.8,0-2.24-.35-2.4-.48l-.2-.15-.17-.31a6.94,6.94,0,0,1,.11-3c.35-2,.78-4.44-1-6.89a65.08,65.08,0,0,0-5.6-5.64C87.8,95.51,85.14,93,82.23,90l-.15-.16L82,89.58A149.17,149.17,0,0,0,74,64.75l-1.24-2.88,2.8,1.41c9.57,4.83,15.83,18.16,20,27,1.9,4.08,3.27,7,4.53,8.32.78.82,2.85,3,5,3a3,3,0,0,0,1-.19c2.45-1,2.85-4.87,2.93-8.18.19-8.73-3.56-29.86-16-35.74-4-1.92-7-2.81-9.29-2.81A8.63,8.63,0,0,0,79,56.19a10,10,0,0,1-2.68,1.23l-4.73,1.23-.42-.8C70.09,55.76,65.94,49,58.67,49a9.66,9.66,0,0,0-1.2.07l-1,.09-.24-1c-2.86-11.85-5.85-27.7-6.05-36.41-.13-5.86-1.81-9.6-5-11.11-3-1.41-7.3-.43-10.67,2.21C30.38,6.1,16.84,24.94,26.41,57.78l.43,1.51-1.57,0a22.53,22.53,0,0,0-18,7.67c-6.39,7-8.78,17.75-6.22,28S7.65,111.75,11.26,111.75ZM77.09,59.43a12.49,12.49,0,0,0,3-1.4,6.59,6.59,0,0,1,3.74-1.2c1.91,0,4.54.82,8.27,2.59,10.72,5.07,15,24.82,14.75,33.77a17.56,17.56,0,0,1-.68,5.13l.4,1.57-1.86-.47a7.37,7.37,0,0,1-3.09-2.3c-1-1.07-2.39-4-4.12-7.69-4.23-9-10.6-22.6-20.64-27.89l-2.51-1.32Zm-38.43,21c-4.57,10.19-2.63,29.15.45,38.36,2,5.87,2.36,9.52,1.19,10.86a2.22,2.22,0,0,1-1.76.62,6.58,6.58,0,0,1-1.31-.14c-5.73-1.1-15.56-11.7-17.53-35.45C18.14,75.92,29.9,69.28,31.25,68.59a17.83,17.83,0,0,1,6.16-.91,36.26,36.26,0,0,1,7.71.88l2.4.54-2,1.49c-2.51,1.9-4.83,5.22-6.9,9.86Zm41.8,10.82c2.32,2.33,4.9,4.85,8.14,8a65.05,65.05,0,0,1,5.32,5.32c1.14,1.61,1,3.14.6,5.29L93.83,114l1.79,1.28a4.75,4.75,0,0,0,1.49.71l1.73.47L96.76,119l-.73-.22a3.08,3.08,0,0,1-2.15-2.13l-1.16-3.38.9.64-1.37-3.2a11,11,0,0,0-1.69-2.81c-1.5-1.78-5.17-5.37-9.43-9.53l-3.36-3.29-1.51,1.51,3.36,3.29.15.14c4.16,4.07,7.75,7.58,9.16,9.25A11.66,11.66,0,0,1,91.28,115a14.85,14.85,0,0,0,.75,2.71l.63,1.55-1.67,0-3.37,0c-3.77,0-8-.09-12.59-.26-15.31-.59-24.35-11.53-35.67-31.5,0,0,0,0-.1-.09L38.92,87l.07-.35a25.82,25.82,0,0,1,1.61-5.33c3-6.7,6.4-10.33,9.84-10.49h.2a7.75,7.75,0,0,1,1.15.12L52,71l.48.23c.38.2.74.38,1.07.59A1.16,1.16,0,0,0,54,72l.32.11a17.78,17.78,0,0,1,5.24,6.13c2.07,3.65,8.57,10.32,16.6,18.23l1.14-1.89c-8.12-8-14.89-14.94-16-17.71a12.25,12.25,0,0,1-.1-6.89l.75-3.27,1.4,3c2.42,5.3,7.78,12,16.84,21.2Zm-9.89-29A137,137,0,0,1,77.91,82.4l1.33,4.66L76,83.49C68,74.8,64.13,68.62,64,64.59v-.35l.25-.4.65.45h0l-.44-.67a7.32,7.32,0,0,1,5.06-2h.74ZM58.64,51.11c5.22,0,8.56,4.23,10.09,6.75l.8,1.32-2.59.67A9.77,9.77,0,0,0,63,62.06a3.73,3.73,0,0,0-.26.3c-.11.14-.21.25-.31.36l-.57-.31,0,.08.39.38-1.39,1.49-.62-1.8c-.92-2.69-1.9-6.06-2.93-10L57,51.15ZM35.84,4.53a11,11,0,0,1,6.22-2.42,5.06,5.06,0,0,1,2.23.47c2.35,1.11,3.66,4.3,3.77,9.22.31,13.65,7.23,44.84,11.51,54.89l.11.28,0,.41a18.35,18.35,0,0,0-.84,3.36l-.32,2.07-1.57-1.39a11.08,11.08,0,0,0-4-2.36,36.29,36.29,0,0,0-15.47-3.48,24.33,24.33,0,0,0-4.92.45l-1,.19-.35-.9C17.3,29.21,31.56,7.88,35.84,4.53Zm-27,63.81a21,21,0,0,1,18.06-6.83l.73.07.24.7c.43,1.25.91,2.57,1.43,3.91l.34.86-.77.51a23.32,23.32,0,0,0-3.27,2.67l-.14.14-.28.12c-11.56,2.92-14.74,18.86-12.82,33.37.39,2.9,0,4.35-.23,5L11.62,110l-1.11-.59c-1.58-.84-4.91-5-7.43-15C.69,84.83,2.89,74.86,8.81,68.34Z"/><path class="cls-2" d="M49.14,56.76a1.05,1.05,0,0,0,.74-1.31c-.05-.19-5.4-19.53-6.28-37.55a1.1,1.1,0,0,0-1.11-1,1,1,0,0,0-.74.35,1.07,1.07,0,0,0-.28.76c.87,17.79,5.8,36,6.36,38A1.09,1.09,0,0,0,49.14,56.76Z"/><polygon class="cls-2" points="79.65 92.08 79.65 92.08 79.65 92.08 79.65 92.08"/></g></g></svg>