<svg xmlns="http://www.w3.org/2000/svg" viewBox="0 0 118.27 75.89"><defs><style>.cls-1{fill:#8c6c2a;}</style></defs><g id="Capa_2" data-name="Capa 2"><g id="Icons"><path class="cls-1" d="M80.41,31.48A156,156,0,0,0,53.47,8.86C47,4.51,41,1.55,33.29.6A18.66,18.66,0,0,0,28.82,0a20,20,0,0,0-3.7.37l-.94,0a.84.84,0,0,0-.67.35C14.19,3.27,5.77,12.16,2,24.12a38,38,0,0,0-.23,23.5c2,5.77,5.43,10.12,9.88,12.62.06.09,11.74,7.18,20.94,8,11.46,1,59.14,5.54,71.53,6.9,3.14.34,12.86,2.46,14.1-2.37C119.94,66,88.61,40.37,80.41,31.48ZM3.73,46.94C1.46,40.29,1.55,32.41,4,24.75,7.53,13.53,15.68,5,24.37,2.7a1.29,1.29,0,0,0,.44,0,25,25,0,0,1,6.87-.34,15.57,15.57,0,0,1,2,.47c11.42,3.62,16.67,19.33,11.7,35C41.24,51,30.79,60.52,20.56,60.52a16,16,0,0,1-4.88-.75A17.23,17.23,0,0,1,13.79,59a3.27,3.27,0,0,0-1-.52C8.74,56.28,5.55,52.29,3.73,46.94ZM107.79,73.13c-1.07-.09-2.14-.21-3.21-.32a12,12,0,0,0,.37-2.54.6.6,0,0,0-1.2,0,10.52,10.52,0,0,1-.38,2.43c-1.51-.16-3-.31-4.54-.42-6.32-.44-21.93-2-36.09-3.33.66-1.36,1.23-2.76,1.87-4.13.33-.69-.7-1.3-1-.6-.72,1.53-1.33,3.1-2.1,4.61-10.66-1-20.3-1.91-24.24-2.1a45.21,45.21,0,0,1-18.09-4.2,8.28,8.28,0,0,0,1.41.08c11.3,0,22.34-9.92,26.83-24.11,4.24-13.4,1.36-26.83-6.33-33.74a71.68,71.68,0,0,1,12.58,7.1A159.64,159.64,0,0,1,77.61,32c.52.53,1.14,1.15,1.81,1.81a9.91,9.91,0,0,1-1,5c-.36.68.68,1.29,1,.6A10.55,10.55,0,0,0,80.6,35C89,43.08,104.67,57.4,107,60s8.86,8.2,8.69,12.44C115.55,74.64,109.65,73.29,107.79,73.13Z"/><path class="cls-1" d="M53.51,21.47v5.75a.6.6,0,0,0,1.2,0V21.47A.6.6,0,0,0,53.51,21.47Z"/><path class="cls-1" d="M42.49,56.55C41.75,58,41,59.45,40.1,60.86a.6.6,0,0,0,1,.61q1.27-2.11,2.4-4.32C43.88,56.47,42.85,55.86,42.49,56.55Z"/><path class="cls-1" d="M56.79,41a4.18,4.18,0,0,1-.4,2.09c-.33.7.7,1.3,1,.61A5.5,5.5,0,0,0,58,41C58,40.27,56.75,40.27,56.79,41Z"/><path class="cls-1" d="M84.12,57.65,83.64,61c-.1.75,1,1.08,1.16.31L85.28,58C85.39,57.21,84.23,56.89,84.12,57.65Z"/></g></g></svg>