<svg xmlns="http://www.w3.org/2000/svg" viewBox="0 0 40.1 140.3"><defs><style>.cls-1{fill:#8c6c2a;}</style></defs><g id="Capa_2" data-name="Capa 2"><g id="Icons"><path class="cls-1" d="M39.75,74.38C38.73,63.2,34.86,52.9,31.12,43c-1.59-4.24-3.24-8.62-4.63-13l0-.11s0-.09-.05-.14A49.39,49.39,0,0,0,22.12,21c-.78-1.34-1.58-2.72-2.31-4.14a32.22,32.22,0,0,1-2.21-6.22c-.16-.57-.32-1.15-.49-1.72L17,8.61C15.41,3,14.09.23,12.85,0a1.18,1.18,0,0,0-1.16.58C10,2.94,9.15,6.78,8.47,9.87l-.16.73C7.53,14.09,7,17.72,6.49,21.23c-.22,1.56-.45,3.11-.7,4.66-.44,2.79-1,5.59-1.61,8.29-.5,2.37-1,4.81-1.44,7.25A168.38,168.38,0,0,0,.69,59.51C.05,69.56-.46,81.39.65,92.9S5.73,113.62,10,122.74c.65,1.38,1.39,2.72,2.1,4a35.37,35.37,0,0,1,3.88,9c.2.85.95,3.65,2.4,4.38a1.66,1.66,0,0,0,1.42,0c1.9-.84,2.91-3.25,3.8-5.38l.16-.4a92.53,92.53,0,0,1,5.77-11.26C37.6,109.43,41.31,91.67,39.75,74.38ZM29.22,115.89H26.75a.7.7,0,0,0-.59.32,1,1,0,0,0-.16.55.8.8,0,0,0,.75.88h2.47a.72.72,0,0,0,.56-.3c-1.24,2.54-2.64,5.14-4.23,7.85a62.14,62.14,0,0,0-3.43,7.12c-.33.77-.67,1.55-1,2.33-.78,1.75-1.43,2.31-1.79,2.32-.14,0-.62-.18-1.08-1.92l0-.09a26.53,26.53,0,0,0-1.78-5.24c-.49-1-1-2-1.47-2.93l.64-.08,2.55-.28a.74.74,0,0,0,.62-.46,1,1,0,0,0-.07-1,.64.64,0,0,0-.62-.28l-2.59.28-1.36.15c-.13-.26-.26-.52-.4-.78-4.3-8.52-8.37-16.56-10.12-26.59-.06-.32-.1-.65-.15-1h.11A19.77,19.77,0,0,1,7,96.46a.67.67,0,0,0,.62-.33,1.06,1.06,0,0,0,0-1,.72.72,0,0,0-.62-.4A19.86,19.86,0,0,0,3.48,95l-.27,0c-1.32-9.6-.92-19.58-.51-29.28l.08-2A181.07,181.07,0,0,1,4.5,45c.5-3.44,1.21-6.86,1.91-10.17.49-2.35,1-4.77,1.42-7.19.4-2.25.74-4.56,1.07-6.8S9.63,16,10.06,13.6c.4-2.2.93-4.45,1.57-6.69a29.53,29.53,0,0,1,1.19-3.26c0,.15.11.3.18.47a62.55,62.55,0,0,1,2.74,8.47c.16.57.32,1.15.47,1.72A23.69,23.69,0,0,0,17,16.6a5.11,5.11,0,0,1-2.21.22.66.66,0,0,0-.62.25,1.07,1.07,0,0,0-.1,1,.8.8,0,0,0,.61.51,6.61,6.61,0,0,0,.76.05,7,7,0,0,0,2.26-.42c.85,1.79,1.84,3.48,2.82,5.12a41.77,41.77,0,0,1,3.84,7.58c1.44,4.53,3.11,9,4.71,13.35,1.85,5,3.75,10.12,5.34,15.34a75.84,75.84,0,0,1,2.22,9.68,10.44,10.44,0,0,1-4.29.68.72.72,0,0,0-.62.29,1.06,1.06,0,0,0-.06,1,.76.76,0,0,0,.62.45l.71,0A12.6,12.6,0,0,0,36.9,71a86.07,86.07,0,0,1,.15,21.79A73,73,0,0,1,29.93,117a1.27,1.27,0,0,0,0-.28A.79.79,0,0,0,29.22,115.89Z"/><path class="cls-1" d="M11.57,36.11a2.81,2.81,0,0,1-1.92.31.82.82,0,0,0-.91.74.78.78,0,0,0,.58,1,5.33,5.33,0,0,0,.88.08,4.25,4.25,0,0,0,2.13-.57.86.86,0,0,0,.26-1.19A.74.74,0,0,0,11.57,36.11Z"/><path class="cls-1" d="M20.64,56.11h0c.92-.14,1.84-.28,2.77-.39a.9.9,0,0,0,.68-1.06.7.7,0,0,0-.78-.69c-.93.12-1.86.26-2.79.4a.92.92,0,0,0-.66,1.11.69.69,0,0,0,.67.64Z"/><path class="cls-1" d="M20.59,33.74a.68.68,0,0,0,.2,0c.5-.15,1-.28,1.52-.4a.71.71,0,0,0,.53-.5,1.05,1.05,0,0,0-.22-1,.7.7,0,0,0-.68-.21c-.52.12-1,.25-1.56.4a.76.76,0,0,0-.52.56,1,1,0,0,0,.25,1A.7.7,0,0,0,20.59,33.74Z"/><path class="cls-1" d="M11.06,66a2.64,2.64,0,0,0-2.46,1.1.94.94,0,0,0-.09,1,.81.81,0,0,0,.62.49h.06a.68.68,0,0,0,.56-.31A1.26,1.26,0,0,1,11,67.7a.74.74,0,0,0,.78-.73A.87.87,0,0,0,11.06,66ZM9.45,68Z"/><path class="cls-1" d="M24,86.33H21.2a.7.7,0,0,0-.59.32,1,1,0,0,0-.16.55.8.8,0,0,0,.75.88H24a.71.71,0,0,0,.59-.33,1,1,0,0,0,.15-.55A.79.79,0,0,0,24,86.33Z"/></g></g></svg>