<svg xmlns="http://www.w3.org/2000/svg" viewBox="0 0 110.3 107.83"><defs><style>.cls-1{fill:#8c6c2a;}</style></defs><g id="Capa_2" data-name="Capa 2"><g id="Icons"><path class="cls-1" d="M110.27,52c-3.25-12.28-2.12-14.84-1.12-17.09.77-1.73,1.49-3.37.47-7.93s-2.94-6.25-5.65-8.78c-1.16-1.09-2.48-2.32-4-4a17.77,17.77,0,0,1,1.59-3.29c1.4-2.47,3.13-5.53,3.08-9.9a1.1,1.1,0,0,0-1.06-1,1,1,0,0,0-1,1.06c0,3.81-1.47,6.48-2.8,8.84a23.52,23.52,0,0,0-1.52,3C92.63,9.43,86.75,6.72,81.1,8.59c-5.3,1.77-9.64,7.32-13.27,17a1,1,0,0,0,.24,1.11s0,0,0,0c-.95.82-1.8,1.68-2.68,2.58a31.73,31.73,0,0,1-7.38,6C52.42,38.56,44.69,39,37.22,39.34a76,76,0,0,0-13.78,1.5C10,44.15,4.29,52.86,1.91,59.58-2,70.6.22,84.4,7.44,93.92c8.45,11.15,19.47,13.91,28.3,13.91,1.3,0,2.57-.06,3.76-.17,27.09-2.33,43.14-25.33,52.86-42.42,3.06-5.39,5.09-9.33,7.52-14.28,2.49,2,5.55,2.19,8.73,2.35l.59,0h0a1,1,0,0,0,1-1.31ZM90.54,64.2c-9.49,16.69-25.11,39.13-51.22,41.37-8.75.75-21.09-.88-30.21-12.91-6.81-9-8.91-22-5.23-32.38C6.1,54.05,11.37,46,23.94,42.88a74.28,74.28,0,0,1,13.38-1.45C45.05,41,53,40.63,59.1,37.1a34.19,34.19,0,0,0,7.82-6.36,31.15,31.15,0,0,1,3.7-3.36,52.27,52.27,0,0,0,9.45-1.61c1.34-.3,2.79-.63,3.84-.82-1.18,4.1-1.67,4.62-6.62,9.93-.92,1-2,2.13-3.25,3.5A1.05,1.05,0,0,0,74.28,40C86,46.87,89,43.93,95.15,36.27A44.75,44.75,0,0,0,96,44.54a15.61,15.61,0,0,0,2.34,4.81C95.77,54.59,93.71,58.62,90.54,64.2Zm17.34-13c-3.15-.17-5.61-.47-7.5-2.62l-.06-.07A12.63,12.63,0,0,1,98,43.91c-.53-1.68-.76-7.6-.83-9.55,0-1.29,0-1.31-.31-1.6a1,1,0,0,0-.79-.36h0a1,1,0,0,0-.79.39l-1,1.28c-6.29,7.84-8.15,10.16-17.76,4.76l2.35-2.52c5.62-6,5.84-6.26,7.53-12.28a1.05,1.05,0,0,0-.15-.88,1.07,1.07,0,0,0-.78-.45,29.18,29.18,0,0,0-5.82,1c-2.56.59-7.53,1.72-9.43,1.61,3.3-8.42,7.1-13.25,11.6-14.75,5.16-1.71,10.9,1.25,16.36,4.74,1.7,1.9,3.14,3.25,4.41,4.44,2.61,2.44,4.19,3.92,5,7.7s.34,5.1-.34,6.63C106.13,36.56,104.89,39.36,107.88,51.18Z"/><path class="cls-1" d="M82.86,61.51a1.05,1.05,0,0,0-1.42.41C73.67,75.85,60.89,94.58,39.55,96.45c-7.12.63-17.18-.73-24.62-10.73A1,1,0,1,0,13.25,87,28,28,0,0,0,36.62,98.68c1.09,0,2.13-.05,3.12-.14,22.33-2,35.53-21.25,43.53-35.6A1.05,1.05,0,0,0,82.86,61.51Z"/></g></g></svg>