<svg xmlns="http://www.w3.org/2000/svg" viewBox="0 0 85.97 103.76"><defs><style>.cls-1{fill:#9b1b21;}</style></defs><g id="Capa_2" data-name="Capa 2"><g id="Icons"><path class="cls-1" d="M83.84,37.16c-3.94-12.78-16.92-16-40.6-9.82C38.8,19.58,40.78,6.77,40.8,6.64a1.27,1.27,0,0,0-.25-1,1.24,1.24,0,0,0-.86-.48l-4.8-.49a1.27,1.27,0,0,0-.81.21,2.47,2.47,0,0,0-.85,1.59l-.57-1.86a1.25,1.25,0,0,0-1.15-.88l-5.85-.22-1-2.74a1.25,1.25,0,0,0-.75-.74,1.31,1.31,0,0,0-1.06.1L16.43,3.92a1.26,1.26,0,0,0-.62,1.31,1.22,1.22,0,0,0,.84,1c.26.19,1.61,1.46,3.92,7.7a64,64,0,0,0-8-7.06,1.25,1.25,0,0,0-1.71.27l-4,5.35a1.25,1.25,0,0,0,.28,1.78c.13.09,12.49,8.79,17.34,19.23C15.66,37,9.35,40.8,5.33,45,.3,50.27-1.15,56.07.9,62.73,6.82,81.92,23.7,86.85,40,91.63c10.15,3,19.73,5.76,26.34,11.81a1.25,1.25,0,0,0,.85.32,1.24,1.24,0,0,0,1-1.94C61.43,91.68,64,86.12,69.38,80.07l0,0a0,0,0,0,0,0,0c1.06-1.19,2.22-2.4,3.44-3.67C80.64,68.27,90.32,58.2,83.84,37.16ZM68.33,77.51c-1.46-1-4.29-2.66-7.34-2.22a1.25,1.25,0,1,0,.36,2.48c2-.3,4.12.84,5.31,1.65C62.44,84.48,59.82,90,63.25,98a59.52,59.52,0,0,0-12.73-5.72A5.9,5.9,0,0,1,54,88.88a1.25,1.25,0,0,0-.75-2.39,8.55,8.55,0,0,0-5.12,5c-2.42-.77-4.89-1.5-7.42-2.23C25,84.64,8.81,79.9,3.29,62c-1.76-5.72-.5-10.71,3.85-15.26,5.31-5.55,15-10.45,29.63-14.95,10.79-3.33,19.44-5,26.24-5a34.45,34.45,0,0,1,4.93.33c7.18,1,11.6,4.56,13.51,10.76,6,19.63-2.69,28.71-10.39,36.72C70.13,75.59,69.21,76.55,68.33,77.51Zm-39-45.89c-.87.31-1.72.62-2.55.94C22.46,23.21,12.71,15.33,9.56,13L12.09,9.6C15.32,12.1,25.44,20.64,29.29,31.62ZM22.81,3.08,33.08,30.32l-1.42.48a42.35,42.35,0,0,0-6.8-12C22.36,10.69,20.44,7,19.13,5.24ZM37.53,28.94l-1.5.45-.56.18L26.62,6.09l3.91.15ZM35.59,7.29l2.56.27C37.7,11.43,37.08,21,40.75,28l-.82.23L36.59,17.41C35.37,11.05,35.45,8.33,35.59,7.29Z"/><path class="cls-1" d="M30.39,68.84c-.23.1-5.8,2.45-8.95,5.94a1.22,1.22,0,0,0-.32.91,1.2,1.2,0,0,0,.41.86,1.25,1.25,0,0,0,1.76-.09c2.76-3.06,8-5.29,8.07-5.31A1.26,1.26,0,0,0,32,69.52,1.26,1.26,0,0,0,30.39,68.84Z"/><path class="cls-1" d="M64.1,52a1.25,1.25,0,0,0-.55,2.24,1.2,1.2,0,0,0,.92.23c6.54-1,8.71.69,8.71.69a1.3,1.3,0,0,0,.86.33,1.25,1.25,0,0,0,.86-2.16C74.62,53.12,72,50.88,64.1,52Z"/><path class="cls-1" d="M37.05,40.91a1.18,1.18,0,0,0-.95-.14,62.36,62.36,0,0,0-17.4,7.41A1.25,1.25,0,0,0,20,50.31a59.89,59.89,0,0,1,16.71-7.12,1.21,1.21,0,0,0,.76-.57,1.24,1.24,0,0,0,.14-.94A1.21,1.21,0,0,0,37.05,40.91Z"/></g></g></svg>