<svg xmlns="http://www.w3.org/2000/svg" viewBox="0 0 123.41 105.8"><defs><style>.cls-1{fill:#2e213c;}</style></defs><g id="Capa_2" data-name="Capa 2"><g id="Icons"><path class="cls-1" d="M75.67,10.32A47.22,47.22,0,0,0,55,15.06l-.72.35-.32-.73a1.25,1.25,0,0,0-.63-.67,11,11,0,0,1-5.9-12.39,1.24,1.24,0,0,0-.13-1,1.27,1.27,0,0,0-.78-.6A1.32,1.32,0,0,0,44.89,1a12.81,12.81,0,0,0,0,6.42l.07.3C38.48,3.3,31,.68,24.86.68a18.14,18.14,0,0,0-8.54,2C9.09,6.44,3.32,13.71.05,23.13a1.36,1.36,0,0,0,.66,1.45c8.69,6.14,18.68,8.54,27.21,6.47,10.71-4.15,16-14.37,18.23-20.52a13.28,13.28,0,0,0,5,5.27l1.13.65-1.12.67a47.71,47.71,0,1,0,24.52-6.8Zm-32.25.13C40,19.29,34.15,25.88,27.28,28.54a23.6,23.6,0,0,1-5.7.71c-4.26,0-8.65-1.13-13.81-3.54a47,47,0,0,1-4.25-2.37L3,23l.13-.66C6.48,13.51,12.36,6.92,19.24,4.26a15.39,15.39,0,0,1,5.56-1c5.18,0,10.44,2.18,14,3.82A47,47,0,0,1,43,9.46l.55.33Zm32.25,92.77a45.16,45.16,0,1,1,45.16-45.16A45.21,45.21,0,0,1,75.67,103.22Z"/><path class="cls-1" d="M43.47,34.38a1.31,1.31,0,0,0-1.06.54,35.87,35.87,0,0,0-5.2,30.24,1.29,1.29,0,1,0,2.48-.7,33.72,33.72,0,0,1,4.83-28,1.29,1.29,0,0,0-1.05-2Z"/><path class="cls-1" d="M41.24,71a1.31,1.31,0,0,0-1.12-.64,1.33,1.33,0,0,0-.64.17A1.28,1.28,0,0,0,39,72.31l1.27,2.21A1.32,1.32,0,0,0,42,75a1.29,1.29,0,0,0,.47-1.76Z"/></g></g></svg>