<svg xmlns="http://www.w3.org/2000/svg" viewBox="0 0 152.36 61.39"><defs><style>.cls-1{fill:#2e213c;}</style></defs><g id="Capa_2" data-name="Capa 2"><g id="Icons"><path class="cls-1" d="M151.78,12.69c-2.52-1.82-6.68-2.74-10-3.48L141,9c-3.79-.84-7.73-1.41-11.55-2-1.69-.24-3.39-.49-5.08-.76-3-.48-6.08-1.13-9-1.76C112.72,4,110.06,3.43,107.41,3A180.21,180.21,0,0,0,87.75.75C76.82.05,64-.5,51.45.71c-11,1.06-20.13,4.48-30.4,9.26L21,10,19,10.91c-1.5.71-3,1.51-4.38,2.28a38.67,38.67,0,0,1-9.82,4.24C4.19,17.58,1,18.4.18,20a1.59,1.59,0,0,0,0,1.41c.89,2,3.48,3.09,5.77,4.05l.44.18a99.78,99.78,0,0,1,12.27,6.28c14.86,8.73,34.15,12.76,52.93,11.06,2-.18,3.94-.44,6-.81,2.2,1.43,4.3,2.92,6.51,4.5l3,2.13a93.63,93.63,0,0,0,19,10,31.55,31.55,0,0,0,11.58,2.65,17.83,17.83,0,0,0,6.91-1.34c10.62-1.34,11.51-15.52,11.4-21.57-.15-8-1.73-13.3-4.68-15.74.86-.5,1.77-1,2.69-1.48a36,36,0,0,1,6.8-2.42l1.87-.53.39-.11c6-1.7,9-3.14,9.24-4.41A1.09,1.09,0,0,0,151.78,12.69Zm-18.31,2.54a.84.84,0,0,0-1,.6,7.07,7.07,0,0,0,.45,3.37c-1.5.69-2.92,1.5-4.12,2.2l0,0a5.53,5.53,0,0,0-.92-.16c-5-2.6-11.15-2.1-17-1.35-3,.38-6,.91-8.92,1.43-3.84.68-7.82,1.39-11.79,1.74-5.69.51-11.45,1.14-17,1.74l-5.62.61-.9.08c-2.55.18-7.29.53-7.4,3.4-.15,4.3,6.06,6.93,9.4,8.34l.28.12a50.85,50.85,0,0,1,5.64,2.86,93.9,93.9,0,0,1-23,.09C39.36,38.93,28.8,35.18,16.21,27.78a68,68,0,0,0-7.74-3.73c-.83-.36-1.68-.72-2.53-1.1-1.69-.75-2.66-1.54-2.61-2.11s.82-.94,2.2-1.31l.08,0a28.8,28.8,0,0,0,5.68-1.93c1.15-.56,2.28-1.13,3.41-1.7l.07.67q.18,1.51.33,3a.8.8,0,0,0,.94.62.63.63,0,0,0,.65-.67c-.1-1-.21-2-.33-3l-.16-1.44.77-.39c1.42-.72,2.83-1.44,4.25-2.14.39,1.49.81,3,1.22,4.52.37,1.35.74,2.71,1.09,4.05.24.93.81,1.8,1.24,1.92a.36.36,0,0,0,.37-.09c.17-.16.18-.46.05-1-.36-1.37-.74-2.74-1.12-4.12-.53-2-1.09-4-1.57-5.94,7-3.42,14.68-6.8,23.63-8.36L47,3.48l.38,0,0,.25a21.87,21.87,0,0,1,.32,3.79A.58.58,0,0,0,48,8a1,1,0,0,0,.95,0,.65.65,0,0,0,.35-.54A22.66,22.66,0,0,0,49,3.61l-.06-.41c10.63-1.48,21.72-1,32.44-.57l1.73.08a195.28,195.28,0,0,1,20.46,1.87c3.75.54,7.48,1.32,11.09,2.08,2.55.53,5.18,1.08,7.8,1.55,2.46.43,5,.8,7.4,1.17,2.6.38,5.29.78,7.91,1.26A73.7,73.7,0,0,1,145,12.35a33.6,33.6,0,0,1,4,1.46l-.15,0c-.21.07-.47.16-.73.27a68,68,0,0,1-9.25,3l-1.87.51a23.39,23.39,0,0,0-2.64.92,5.91,5.91,0,0,1-.3-2.66A.6.6,0,0,0,133.47,15.23Zm-46.17,28a.61.61,0,0,0-.42,0,.6.6,0,0,0-.31.38,6.08,6.08,0,0,0-.18,2.2c-1-.69-1.94-1.41-2.87-2.1a74.75,74.75,0,0,0-9-6,47,47,0,0,0-4.36-2c-.76-.31-1.51-.62-2.25-1-1.63-.72-6-3-6.71-5a1.14,1.14,0,0,1,.05-1c.46-.89,2.54-1.11,3.78-1.23l.61-.07,1.6-.19h.06a6.7,6.7,0,0,0,.12,1.33.59.59,0,0,0,.71.47.6.6,0,0,0,.49-.72,5.62,5.62,0,0,1-.09-1.22c.83-.1,1.7-.2,2.55-.32,5.14-.75,10.41-1.19,15.51-1.61l5.06-.43.84-.08c0,.17-.07.34-.1.51-.09.43-.18.87-.28,1.3a.61.61,0,0,0,.19.6.65.65,0,0,0,.62.16.55.55,0,0,0,.37-.42c.1-.41.18-.82.26-1.22s.15-.71.23-1.07c3.29-.39,6.6-1,9.8-1.58,1.61-.29,3.23-.59,4.85-.85,4.1-.69,10.17-1.7,15.22-.48-9,2.66-11.08,13.42-11.53,19.74-.2,3.53-.25,14.83,6.89,17.88-4.43.3-8.93-1.19-13.16-2.87A96.45,96.45,0,0,1,89,47.67c-.4-.26-.79-.53-1.18-.8l-.07,0a5.62,5.62,0,0,1,0-2.82A.61.61,0,0,0,87.3,43.24Zm26.77-1.62c.45-6.36,2-15.16,10.29-18a7.49,7.49,0,0,1,2.49-.46h.4a.9.9,0,0,0,.62.08c3.68.74,5.76,5.57,6.18,14.36.55,11.48-2.39,18.32-8.74,20.32-.3.1-.59.18-.88.25a1,1,0,0,0-.49.09,6.52,6.52,0,0,1-5.77-1.42C114.68,53.74,113.78,46.7,114.07,41.62Z"/><path class="cls-1" d="M106.86,49.15a.63.63,0,0,0-.63.13.58.58,0,0,0-.18.57l.75,3.42a.58.58,0,0,0,.58.47h.15A.6.6,0,0,0,108,53l-.75-3.42A.55.55,0,0,0,106.86,49.15Z"/><path class="cls-1" d="M106.26,29.23l.16,0a.56.56,0,0,0,.39-.41c.25-.94.54-1.9.86-2.86a.58.58,0,0,0-.1-.58.68.68,0,0,0-.62-.21.58.58,0,0,0-.44.4c-.33,1-.62,1.94-.87,2.89a.62.62,0,0,0,.15.6A.7.7,0,0,0,106.26,29.23Z"/><path class="cls-1" d="M99.57,40.47l.16,0a.64.64,0,0,0,.46-.19.57.57,0,0,0,.14-.56,2.22,2.22,0,0,1,0-1.17.61.61,0,0,0-.17-.6.67.67,0,0,0-.63-.16.56.56,0,0,0-.38.42,3.65,3.65,0,0,0,0,1.8A.61.61,0,0,0,99.57,40.47Z"/><path class="cls-1" d="M81.41,30.88a.62.62,0,0,0-.63,0,.51.51,0,0,0-.23.49l.15,2.06a.64.64,0,0,0,.36.53.66.66,0,0,0,.3.07.59.59,0,0,0,.34-.1.52.52,0,0,0,.22-.5l-.15-2.05A.62.62,0,0,0,81.41,30.88Z"/></g></g></svg>