<svg xmlns="http://www.w3.org/2000/svg" viewBox="0 0 89.52 89.52"><defs><style>.cls-1{fill:none;}.cls-2{fill:#2e213c;}</style></defs><g id="Capa_2" data-name="Capa 2"><g id="Icons"><path class="cls-1" d="M69.44,52.27a17.06,17.06,0,0,0-8.35,2.18l-1.16.64-.91-1a12.55,12.55,0,0,0-6-3.38A13.67,13.67,0,0,0,42.7,52.13l-4.76,4.76a13.66,13.66,0,0,0-1.64,6.75v.85l-.1.07L7.28,86.25c0,.28.1.34.63.36L35,66.62c4.19-2.79,8.78-5.45,14.89-4.76l4-4,2.4,2.41L54,62.63,71.5,66.38l-.72,3.33-4.81-1,2.09,2.87-2.75,2L61,67.61,50.21,65.3c-4.55-.76-8,.73-12.4,3.57.49,3.37,3.58,6.57,7.41,7.65a19.18,19.18,0,0,0,7.47.39l1.16-.17.58,1a17.17,17.17,0,1,0,15-25.5Z"/><path class="cls-1" d="M38.7,39a14.73,14.73,0,0,0-5.2-11.77L32.09,26l1.3-1.31c1-1,2.41-4.93,2.41-7.51C35.8,5.89,25.51,2.9,20.08,2.9c-6.9,0-10.83,3.29-12.92,6A17.79,17.79,0,0,0,4.29,24c1.1,3.91,3.61,6.82,7.88,9.13l1.65.89-1,1.55c-1.53,2.3-1.85,7.26.3,11.27a9,9,0,0,0,7.55,4.93c2.85-4.4,4.35-7.88,3.58-12.51L22,28.73l-5.76-2.89,1.52-3L21,24.46l-1.23-5.72L23.14,18l.05.25,3.7,17.27,2.32-2.32,2.41,2.4-4,4c.68,6.14-2.07,10.87-4.7,14.82h0l-20,27.19c0,.53.08.6.36.63L25,53.23h.84C38.34,53.1,38.7,40.4,38.7,39Z"/><path class="cls-1" d="M39.23,50.35c.47-.35.94-.65,1.35-.9L64.06,26l2.41,2.4-4.53,4.53h3.4V36.3H58.53L47.82,47a16.08,16.08,0,0,1,6.11.47,16.27,16.27,0,0,1,6.63,3.41l.29-.12.25-.1a8.22,8.22,0,0,0,2.32-4.79l.27-1.37h1.4A17.18,17.18,0,1,0,47.91,27.34v1.4L46.54,29A12.92,12.92,0,0,0,41,32.18,20,20,0,0,1,42.11,39c0,7.9-3.93,13.11-7.7,15.43l.12.12L9.74,79.28l-1.48,2,2-1.5L35.33,54.69A15.24,15.24,0,0,1,39.23,50.35Z"/><path class="cls-1" d="M32.91,62.77c0-.3,0-.6.07-.92L29.5,65.33Z"/><path class="cls-1" d="M27.69,56.52l-.94.08L24.19,60Z"/><path class="cls-2" d="M69.44,49.37a19.88,19.88,0,0,0-3.76.38l-.47.09.19-.43A10.49,10.49,0,0,0,66,47.57l0-.18h.18A20.08,20.08,0,1,0,45,26.22v.17l-.16.05a16,16,0,0,0-5.32,3.14l-.23.19-.15-.26a17.12,17.12,0,0,0-2.8-3.63l-.14-.14.1-.17a18.58,18.58,0,0,0,2.37-8.4C38.7,4.57,27.56,0,20.08,0,12,0,7.33,3.91,4.85,7.19A20.73,20.73,0,0,0,1.5,24.76,16.84,16.84,0,0,0,9.55,34.94l.19.11-.09.2c-1.59,3.68-1.24,9,.86,12.93a11.78,11.78,0,0,0,8.37,6.25l.39.08L0,80.66v.4a4.19,4.19,0,0,0,1.1,3.25l.11.1,0,.15a3.19,3.19,0,0,0,.64,3.16,3.25,3.25,0,0,0,2.3.89,3.41,3.41,0,0,0,.95-.14l.14,0,.1.1a4.39,4.39,0,0,0,3.16,1h.4L35.11,70.18l.09.34a13.48,13.48,0,0,0,9.23,8.79,22.43,22.43,0,0,0,7.72.6l.15,0,.08.13A20.08,20.08,0,1,0,69.44,49.37ZM4.12,86.2h0A.82.82,0,0,1,3.52,86l0,0a.93.93,0,0,1,0-.63l0-.21h.88v1Zm-.61-3.44H3.37c-.8-.06-.94-.42-1-1.21v-.09l0-.07L22.53,54.13c2.72-4.08,5.31-8.58,4.61-14.6v-.12l3.78-3.79-1.7-1.7L26.6,36.54,22.76,18.62l-2.35.5,1.34,6.26-3.82-1.91-1.07,2.15,5.53,2.77,0,.11L24.7,39.14c.8,4.84-.76,8.43-3.73,13l-.08.13h-.14A9.48,9.48,0,0,1,12.63,47c-2.23-4.17-1.88-9.36-.26-11.78l.73-1.09-1.16-.63c-4.41-2.38-7-5.38-8.13-9.43A18.31,18.31,0,0,1,6.76,8.64C8.92,5.79,13,2.4,20.08,2.4c5.61,0,16.22,3.09,16.22,14.77,0,2.74-1.44,6.75-2.55,7.87l-.93.92,1,.84A15.2,15.2,0,0,1,39.2,39c0,1.5-.37,14.64-13.33,14.77h-.59ZM29.08,55.83l-7,7-.37-.33,4.82-6.42h.11c.61,0,1.2-.1,1.74-.18ZM9.36,79,33.82,54.5l-.23-.22.29-.17C37.61,52,41.61,46.83,41.61,39a19.45,19.45,0,0,0-1.18-6.76l0-.16.12-.11a13.63,13.63,0,0,1,5.94-3.4l1-.19v-1A17.68,17.68,0,1,1,65.09,45h-1l-.19,1A8.7,8.7,0,0,1,61.44,51l-.09.07-.31.13a3,3,0,0,0-.41.17l-.16.08-.12-.12A16.6,16.6,0,0,0,47.17,47.6l-.75.11L58.33,35.8h6.51V33.39H60.73l5-5-1.7-1.7L40.89,49.84c-.45.28-.91.57-1.35.9A15.13,15.13,0,0,0,35.72,55L10.59,80.14,5.76,83.76Zm24.3-18.49-.1.73c-.08.61-.13,1.17-.15,1.71V63L27,67.84l-.32-.37ZM69.44,87.12A17.69,17.69,0,0,1,54,78l-.4-.73-.83.13A19.81,19.81,0,0,1,45.09,77c-4.08-1.15-7.36-4.61-7.79-8.23l0-.15.13-.09c4.55-3,8.12-4.51,12.89-3.72l11.49,2.46-.28.2,3.91,5.38,1.94-1.41L64.8,67.91l5.6,1.2.5-2.35L53,62.92l2.62-2.61-1.7-1.7-3.79,3.78-.12,0c-6-.72-10.53,1.91-14.66,4.66L8.07,87.11H8c-.79,0-1.15-.16-1.21-1V86l.11-.08L35.8,64.24v-.6a14.15,14.15,0,0,1,1.72-7l0-.06,4.86-4.84a14.18,14.18,0,0,1,10.73-1.45,13.19,13.19,0,0,1,6.24,3.52l.64.67.81-.45a17.67,17.67,0,1,1,8.6,33.11Z"/></g></g></svg>