<svg xmlns="http://www.w3.org/2000/svg" viewBox="0 0 106.61 101.91"><defs><style>.cls-1{fill:#2e213c;}</style></defs><g id="Capa_2" data-name="Capa 2"><g id="Icons"><path class="cls-1" d="M92.48,9.41c.2.19.38.39.56.59a30.52,30.52,0,0,1,4.13-3.72A41.57,41.57,0,0,0,92.07,9Z"/><path class="cls-1" d="M68.49,21.33a1,1,0,0,0,.29-.71,1,1,0,0,0-.29-.72,1,1,0,0,0-1.44,0L53.47,33.49c-1.6,1.59-5.39,4.21-9.39,7C39,44,33.83,47.58,31,50.42L13.72,67.68A18.08,18.08,0,0,0,8.91,83.86a1,1,0,0,0,1.17.81,1,1,0,0,0,.83-1.19,16,16,0,0,1,4.24-14.36L32.42,51.86c2.69-2.7,8-6.41,12.77-9.68,4.13-2.86,8-5.53,9.71-7.26Z"/><path class="cls-1" d="M90.14,22.42a1.07,1.07,0,0,0-.46-.11,1,1,0,0,0-.9.55,21.26,21.26,0,0,1-4,5.4L69.16,43.93c-2,1.94-5.11,5.91-8.78,10.52-4.14,5.19-8.8,11-12,14.19l-19.9,19.9a1,1,0,0,0-.29.72,1,1,0,0,0,.29.71A1,1,0,0,0,30,90l19.9-19.9c3.23-3.22,7.92-9.11,12.06-14.3,3.34-4.2,6.78-8.52,8.67-10.41L86.25,29.7a23,23,0,0,0,4.33-5.92.94.94,0,0,0,.06-.77A1,1,0,0,0,90.14,22.42Z"/><path class="cls-1" d="M105.24,0h0c-.44,0-8,.12-18,7.38l-.48.35-.54-.25a16.65,16.65,0,0,0-18.75,3.38L51.75,26.52c-1.86,1.85-6.19,4.92-10.77,8.17C35.21,38.78,29.27,43,26,46.24L6.13,66.14A21,21,0,1,0,35.76,95.77l19.9-19.9C58.9,72.63,63.09,66.72,67.15,61c3.31-4.68,6.38-9,8.23-10.85L91,34.48a16.76,16.76,0,0,0,3.32-18.82l-.26-.56.38-.5a24.94,24.94,0,0,1,11.4-8.41,1,1,0,0,0,.72-1.06l-.37-4.2A1,1,0,0,0,105.24,0ZM89.6,33.05,73.94,48.71c-2,2-4.93,6.15-8.36,11-3.87,5.46-8.23,11.6-11.35,14.72l-19.9,19.9A18.93,18.93,0,0,1,7.56,67.57l19.9-19.9c3.13-3.13,9.27-7.48,14.69-11.32,4.89-3.47,9.08-6.44,11-8.4L68.85,12.29A14.68,14.68,0,0,1,89.6,33.05ZM103.82,4.79a27.41,27.41,0,0,0-10,7.43l-.81.93-.77-1A16.42,16.42,0,0,0,91,10.86c-.42-.42-.86-.81-1.31-1.18l-1.07-.87L89.81,8A35.67,35.67,0,0,1,103.2,2.25l1.1-.19.21,2.44Z"/></g></g></svg>

