<svg xmlns="http://www.w3.org/2000/svg" viewBox="0 0 106.26 84.68"><defs><style>.cls-1{fill:#9b1b21;}</style></defs><g id="Capa_2" data-name="Capa 2"><g id="Icons"><path class="cls-1" d="M42.8,73.19h0c-15.4,0-29.75-7-37.44-18.36A29.22,29.22,0,0,1,.66,32c1.8-8.15,7.12-15.23,15-19.93A44.89,44.89,0,0,1,38.69,5.89,50.42,50.42,0,0,1,49,7,30.67,30.67,0,0,0,70.59,3.22c.48-.28,1-.54,1.47-.79A25,25,0,0,1,82.94,0c8.79,0,17,4.31,21,11,4.68,7.85,2,17.51-6.14,22.49a22.54,22.54,0,0,1-3.41,1.69C87.21,38,82.14,43,80.49,48.76c-2.42,8.48-8.71,15.57-17.71,20A45.86,45.86,0,0,1,42.8,73.19ZM38.69,8a42.71,42.71,0,0,0-22,5.85c-7.37,4.4-12.35,11-14,18.6A27.18,27.18,0,0,0,7.06,53.68c7.31,10.76,21,17.45,35.74,17.45a43.73,43.73,0,0,0,19.08-4.26c8.47-4.13,14.37-10.76,16.63-18.68,1.83-6.41,7.34-11.85,15.13-14.93a20.81,20.81,0,0,0,3.1-1.54c7.31-4.44,9.6-12.72,5.44-19.68C98.57,6,91,2.06,82.94,2.06A23,23,0,0,0,73,4.28c-.46.23-.9.46-1.33.71A32.75,32.75,0,0,1,48.57,9,48.32,48.32,0,0,0,38.69,8Z"/><path class="cls-1" d="M44.34,84.68c-17,0-38.67-16.44-44.31-41.09A1,1,0,0,1,.8,42.36,1,1,0,0,1,2,43.13c5.88,25.71,29.7,42.16,46.26,39.15,24.13-4.39,31.49-17.45,36.48-29.36,2.29-5.44,5.56-8.7,8.72-11.86,4.48-4.48,8.72-8.71,10.44-19a1,1,0,0,1,1.18-.85,1,1,0,0,1,.85,1.19c-1.83,10.93-6.5,15.6-11,20.11-3.16,3.15-6.14,6.13-8.27,11.2-5.21,12.4-12.87,26-38,30.59A24.53,24.53,0,0,1,44.34,84.68Z"/><path class="cls-1" d="M43.86,54.35h0c-8.54,0-16.22-5.36-21.63-15.1-1.95-3.51-2.12-6.76-.49-9.67,4.32-7.75,20.79-11.19,34.75-11.82,7.58-.35,12.05,1,13.88,4.28,2.11,3.74.48,9.66-5.27,19.16C60.19,49.31,52.05,54.35,43.86,54.35Zm14.8-34.59c-.66,0-1.35,0-2.08,0-12.79.58-29.13,3.75-33,10.77-1.27,2.28-1.1,4.78.5,7.67,5,9.06,12.07,14,19.83,14h0c7.48,0,14.94-4.65,19.48-12.15,5.25-8.68,6.91-14.11,5.23-17.09C67.35,20.87,64,19.76,58.66,19.76Z"/></g></g></svg>