<svg xmlns="http://www.w3.org/2000/svg" viewBox="0 0 106.18 112.34"><defs><style>.cls-1{fill:#8c6c2a;}</style></defs><g id="Capa_2" data-name="Capa 2"><g id="Icons"><path class="cls-1" d="M105.82,9.59,97.06,1.66a1,1,0,0,0-.7-.29,1.15,1.15,0,0,0-.89.44l-9,12c.09-1.36.15-2.72.15-4.07A66.69,66.69,0,0,0,86,.93a1.07,1.07,0,0,0-.42-.71A1,1,0,0,0,84.92,0l-13,1.88A1.08,1.08,0,0,0,71,3.1a52.3,52.3,0,0,1,.48,6.59A53.72,53.72,0,0,1,71,16.31a53.25,53.25,0,0,1-1.37,6.28A46.93,46.93,0,0,1,65.1,33a44.11,44.11,0,0,1-4.76,6.56c-.45.55-.89,1-1.22,1.36L24.37,75.69a35.08,35.08,0,0,1-13,8.66,12.79,12.79,0,0,0-4.91,3.07A13,13,0,0,0,2.68,97.48,12.13,12.13,0,0,0,2.87,99L.52,100.4a1.08,1.08,0,0,0-.36,1.49,1.1,1.1,0,0,0,1.48.36l1.84-1.11a13.06,13.06,0,0,0,1,2.13L2.7,104.81a1.05,1.05,0,0,0-.38.73,1.08,1.08,0,0,0,.26.79,1.11,1.11,0,0,0,1.52.13l1.66-1.41a12.38,12.38,0,0,0,1.55,1.52l-1.43,1.67A1.1,1.1,0,0,0,6,109.77a1.12,1.12,0,0,0,1.53-.13l1.53-1.81a13.12,13.12,0,0,0,2.15,1l-1.13,1.87a1.09,1.09,0,0,0,.37,1.49,1.11,1.11,0,0,0,1.49-.37l1.46-2.42a12.6,12.6,0,0,0,2.21.19,13,13,0,0,0,8.74-3.3,12.68,12.68,0,0,0,3.22-4.51c2.7-6.37,5.64-11,9.27-14.66l34.24-34.2c.43-.41.87-.83,1.48-1.33a43.31,43.31,0,0,1,6.48-4.69,47.2,47.2,0,0,1,10.38-4.52A52.16,52.16,0,0,1,95.7,41a51.54,51.54,0,0,1,6.65-.48,1.09,1.09,0,0,0,1.07-1.09v-13a1.1,1.1,0,0,0-.32-.77c-.28-.28-.41-.33-.59-.33a71,71,0,0,0-7.38.46L106,11A1.08,1.08,0,0,0,105.82,9.59ZM70.17,48.05c-.65.79-1.24,1.41-1.68,1.87l-.95,1a1.09,1.09,0,0,0-.11,1.35l.49.72L35.33,85.59c-3.84,3.84-6.94,8.72-9.74,15.35a10.49,10.49,0,0,1-2.68,3.74,10.93,10.93,0,0,1-13.3.94l0-.05a1.53,1.53,0,0,0-.26-.16l-.2-.14A11.09,11.09,0,0,1,6.9,103a1,1,0,0,0-.13-.23l-.1-.08a10.68,10.68,0,0,1-1.83-5.35A10.84,10.84,0,0,1,8,89a10.55,10.55,0,0,1,4.08-2.55A37.05,37.05,0,0,0,25.9,77.22L60.66,42.45c.37-.39.85-.89,1.33-1.47a46.9,46.9,0,0,0,5-6.87A49.55,49.55,0,0,0,71.71,23.2a55.63,55.63,0,0,0,1.43-6.58,55.25,55.25,0,0,0,.5-6.92c0-1.59-.1-3.22-.26-4.84l-.1-1L84,2.31l.11,1.09a63,63,0,0,1,.35,6.3,66.53,66.53,0,0,1-.61,8.49,65.1,65.1,0,0,1-1.76,8c-.33,1.13-.7,2.23-1.09,3.33l-.07.2a59.34,59.34,0,0,1-4.67,9.87A56.5,56.5,0,0,1,70.17,48.05Zm31.08-20.5V38.37l-1,.05c-1.63.08-3.26.23-4.87.45a52.76,52.76,0,0,0-6.56,1.43A49.3,49.3,0,0,0,77.94,45l-4,2.41,2.31-3.71c.62-.92,1.26-1.92,1.91-3a61,61,0,0,0,4.52-9.41l.17-.46.47-.16c.82-.28,1.66-.55,2.49-.8a62.37,62.37,0,0,1,8-1.76c2.11-.29,4.24-.48,6.33-.57Zm-9.12-1.3a66.62,66.62,0,0,0-6.55,1.47l-1.8.51.51-1.8A67.71,67.71,0,0,0,86,18.5c0-.2.05-.39.07-.59L96.49,4.06l7.15,6.48Z"/></g></g></svg>