<svg xmlns="http://www.w3.org/2000/svg" viewBox="0 0 100.94 99.62"><defs><style>.cls-1{fill:none;}.cls-2{fill:#455e2b;}</style></defs><g id="Capa_2" data-name="Capa 2"><g id="Icons"><path class="cls-1" d="M48.45,73.85l2.61,8.31a2.55,2.55,0,0,1-1.66,3.2,2.7,2.7,0,0,1-.77.11,2.59,2.59,0,0,1-2.44-1.81L42.9,73.17A22.5,22.5,0,0,1,39,71.84h0a90.42,90.42,0,0,1,5.52,24.47H55.05c.41-4.39,1.87-15.71,6.64-26.16a24.7,24.7,0,0,1-12.78,3.71Z"/><path class="cls-1" d="M86.42,30.57a2.56,2.56,0,0,1-1.52-3.33,8.21,8.21,0,0,0,.58-3A8.34,8.34,0,0,0,73.6,16.62a2.61,2.61,0,0,1-3.38-1.23,20.56,20.56,0,0,0-36.35-1.68,2.51,2.51,0,0,1-.23,1.16c-.9,1.84-1.41,4.3-.54,5.62A2.57,2.57,0,0,1,32.36,24a2.63,2.63,0,0,1-3.54-.74,8.25,8.25,0,0,1-1.26-4.86A8.75,8.75,0,0,0,24.93,18a9,9,0,0,0-8.26,5.65c-.09.2-.16.41-.27.72A9.12,9.12,0,0,0,16,27a8.82,8.82,0,0,0,.34,2.38A6.7,6.7,0,0,0,17,30.62a8.46,8.46,0,0,0,7.16,3.53A2.48,2.48,0,0,1,26,35a2.73,2.73,0,0,1,.73,1.87,2.69,2.69,0,0,1-2.56,2.73A13.86,13.86,0,0,1,14,35.14,15.77,15.77,0,0,0,3.55,50a16,16,0,0,0,16,16,18.12,18.12,0,0,0,9.28-2.63,30.09,30.09,0,0,0-8.52-8.54,2.47,2.47,0,0,1-1.12-1.59,2.56,2.56,0,0,1,.33-1.93,2.67,2.67,0,0,1,3.53-.78,32,32,0,0,1,5.69,4.66,24.28,24.28,0,0,1,.44-4.88c.31-1.65,2-7.13,5.45-10.49a2.55,2.55,0,0,1,1.1-.62h0a11.42,11.42,0,0,1-1.67-2.68c-2.41-5.4,1.39-10.22,3.74-12A2.68,2.68,0,0,1,41.4,25a2.57,2.57,0,0,1-.47,3.57c-.15.12-3.57,2.78-2.19,5.88a5.2,5.2,0,0,0,4.9,3.24,5.32,5.32,0,0,0,1-.09,2.57,2.57,0,0,1,3,2,2.52,2.52,0,0,1-2,3,9.32,9.32,0,0,1-2,.2A10.94,10.94,0,0,1,39,41.72h0a2.45,2.45,0,0,1-.77,1.77,17.79,17.79,0,0,0-4,7.79c-.73,3.82-.42,9.29,2.63,13.22l.17.21a14.74,14.74,0,0,0,6.81,3.49l0-.6,2,.06v.92a25.73,25.73,0,0,0,3,.18A19.56,19.56,0,0,0,65.24,60a13.13,13.13,0,0,0,1.84-5.87,13.52,13.52,0,0,0-3-8.88,2.52,2.52,0,0,1-.53-1.87A2.57,2.57,0,0,1,68.11,42a18.43,18.43,0,0,1,4.07,12.29c0,.48-.08,1-.16,1.54h0a28,28,0,0,1,7.38-4.59,2.63,2.63,0,0,1,3.33,1.37A2.56,2.56,0,0,1,81.37,56,23.33,23.33,0,0,0,74,61h0A16.45,16.45,0,1,0,86.42,30.57Z"/><path class="cls-2" d="M40,27.34a1,1,0,0,0,.18-1.4,1.06,1.06,0,0,0-1.4-.18c-2,1.53-5.28,5.62-3.26,10.14a9.68,9.68,0,0,0,1.44,2.31l1.14,1.36,1.57.76a9.38,9.38,0,0,0,4,.91,7.54,7.54,0,0,0,1.64-.16,1,1,0,0,0,.76-1.18,1,1,0,0,0-1.19-.78,5.94,5.94,0,0,1-1.26.12,6.7,6.7,0,0,1-6.31-4.16C35.45,30.87,39.8,27.49,40,27.34Z"/><path class="cls-2" d="M89.67,28.08l-1.07-.51.23-1.17A11.55,11.55,0,0,0,89,24.2,11.94,11.94,0,0,0,77.12,12.28a11.8,11.8,0,0,0-3,.38L73,13l-.59-1a24.11,24.11,0,0,0-42.69,2l-.53,1.17L28,14.83a12.06,12.06,0,0,0-3-.37A12.57,12.57,0,0,0,13,23.29a11,11,0,0,0-.16,6.78l.41,1.34L12,32a19.57,19.57,0,0,0,7.59,37.61,21.41,21.41,0,0,0,11.09-3.12l1.41-.88L32.84,67c7.36,14,8.23,31.13,8.27,31.85s.77.73,1,.73H57.42c.22,0,1-.05,1-.72,0-.2,1.09-21.33,10.92-35l.8-1.11,1.2.66A19.94,19.94,0,1,0,89.67,28.08ZM63.1,70.8C58.43,81,57,92.15,56.59,96.45l-.13,1.41H43.06l-.12-1.43a88.91,88.91,0,0,0-5.41-24L36.2,69l3.39,1.46a20.31,20.31,0,0,0,3.65,1.25l.87.19L47.67,83.2a1.14,1.14,0,0,0,1.27.68,1,1,0,0,0,.64-1.26L46.32,72.26l2.61,0a23.26,23.26,0,0,0,12-3.48l4.3-2.61ZM81,64.07a17.87,17.87,0,0,1-7.61-1.69l-2-.94,1.59-1.57a25.2,25.2,0,0,1,7.87-5.31,1,1,0,0,0,.53-1.31A1.07,1.07,0,0,0,80,52.71a26.4,26.4,0,0,0-7,4.34l-3.15,2.69.61-4.1c.07-.5.12-1,.14-1.39A16.93,16.93,0,0,0,66.9,43a1.11,1.11,0,0,0-1.41-.17,1,1,0,0,0-.37.68,1,1,0,0,0,.2.73,15.07,15.07,0,0,1,3.31,9.91,14.82,14.82,0,0,1-2.08,6.63,21.12,21.12,0,0,1-17.64,9.53,25.94,25.94,0,0,1-3.35-.22L45.28,70h0v0l-.86-.16a16.63,16.63,0,0,1-8.53-4.14l-.26-.31C32.25,61.12,31.9,55.14,32.69,51c.33-1.72,1.84-6.09,4.43-8.61a1,1,0,0,0,.3-.69l0-1.34-1.28.35a1,1,0,0,0-.44.24c-3.18,3.09-4.72,8.14-5,9.67a22.66,22.66,0,0,0-.41,4.57l0,3.86-2.7-2.76a30.59,30.59,0,0,0-5.42-4.43,1.06,1.06,0,0,0-1.38.3,1,1,0,0,0,.31,1.39,31.49,31.49,0,0,1,9,9l.92,1.34-1.38.85a19.7,19.7,0,0,1-10.1,2.86A17.59,17.59,0,0,1,2,50,17.32,17.32,0,0,1,13.43,33.68l1-.36.71.77a12.31,12.31,0,0,0,9,3.92,1.19,1.19,0,0,0,1-1.19,1.17,1.17,0,0,0-.33-.8.91.91,0,0,0-.67-.32,10,10,0,0,1-8.45-4.24,7.55,7.55,0,0,1-.82-1.66,10.34,10.34,0,0,1,0-5.9c.13-.38.21-.61.31-.84a10.55,10.55,0,0,1,9.69-6.6,10.22,10.22,0,0,1,3.09.48l1.12.35,0,1.17a6.67,6.67,0,0,0,1,4,1.09,1.09,0,0,0,1.4.29,1,1,0,0,0,.28-1.38c-1.28-1.95-.61-5,.44-7.15a1,1,0,0,0,.09-.45V13.3l.22-.37a22.1,22.1,0,0,1,39.08,1.8,1.09,1.09,0,0,0,1.33.49,9.73,9.73,0,0,1,4.17-.94A9.91,9.91,0,0,1,86.35,27.8a1,1,0,0,0,0,.79,1,1,0,0,0,.57.52,18,18,0,0,1-6,35Z"/></g></g></svg>