<svg xmlns="http://www.w3.org/2000/svg" viewBox="0 0 100.68 108.63"><defs><style>.cls-1{fill:none;}.cls-2{fill:#9b1b21;}</style></defs><g id="Capa_2" data-name="Capa 2"><g id="Icons"><path class="cls-1" d="M96.56,79.17l1-.38-1.22-.4a3.56,3.56,0,0,0-1-.22c-14.49-.93-25.14-8.88-34.49-17.33C52.79,53.54,49.1,45.09,46.4,38.92c-1.67-3.83-3.11-7.12-4.82-8.24-3.8-2.5-7-5.07-7.13-11.33A25.6,25.6,0,0,1,34.93,15l.4-2.57-1,1.75A24.26,24.26,0,0,0,31.26,22c-.77,3.86-.44,4.66,1.43,8.24,1.8,3.43,1.51,6.4,1.24,9.28,0,.59-.11,1.19-.15,1.82-.65,10.42,2.36,21.22,9.48,34A40.27,40.27,0,0,0,52.2,85.7l.1.1h.24a2,2,0,0,1,.83.2c8.54,4,16,6,22.73,6a31.4,31.4,0,0,0,7.2-.82c5.18-1.22,9.46-3.53,11.75-6.32l.75-.91-1.13.31A36.39,36.39,0,0,1,74,83.61a42,42,0,0,1-7.13-3,2.07,2.07,0,0,1,.39-3.83,2.15,2.15,0,0,1,1.61.18C81.66,83.82,92.5,80.79,96.56,79.17ZM62.62,76.4a2.11,2.11,0,0,1-1.81,1,2,2,0,0,1-.64-.1,2.35,2.35,0,0,1-.43-.19A54.2,54.2,0,0,1,51,70.74a2.1,2.1,0,0,1-.69-1.45,2,2,0,0,1,.53-1.49,2.19,2.19,0,0,1,3-.14,49.8,49.8,0,0,0,8,5.88,2.12,2.12,0,0,1,1,1.29A2.05,2.05,0,0,1,62.62,76.4Z"/><path class="cls-1" d="M53.26,92l-.21-.17c-.38-.3-.76-.6-1.12-.9-4.32-3.57-9.17-8-12.35-13.68-7.52-13.49-10.7-25-10-36.27,0-.69.1-1.35.16-2,.25-2.56.44-4.58-.78-6.92-2.2-4.19-2.82-6-1.82-11A31,31,0,0,1,31.91,10c.18-.29.44-.66.73-1.08a13.45,13.45,0,0,0,1.75-3l0-.05V5.87a2.12,2.12,0,0,0-1.69-2c-1.82-.59-4.45.06-5.13,1.76a18.72,18.72,0,0,0-.9,5c-.28,3.08-.6,6.56-3.06,9.24a27.32,27.32,0,0,1-7.2,5.16c-8.15,4.35-12,10.71-12.63,20.61-.51,8.44,1.63,15.93,5,24.6C13.09,81.37,23,92.81,34.56,100.11A32.82,32.82,0,0,0,42,103.58l.29.1a25.67,25.67,0,0,0,7.55,1.22,15.92,15.92,0,0,0,5.4-.84l1.13-.41-1.17-.3c-.83-.22-1.67-.46-2.49-.72A47.93,47.93,0,0,1,35.64,92.8a2.09,2.09,0,0,1-.7-1.45,2,2,0,0,1,.53-1.49,2.12,2.12,0,0,1,3-.15,42.49,42.49,0,0,0,20,10.09l.45.08v-.46C58.83,96.67,56.52,94.61,53.26,92ZM22.34,73.34a2.05,2.05,0,0,1-.65-.1,2.15,2.15,0,0,1-1.28-1.12,80,80,0,0,1-6.5-22.93,2,2,0,0,1,.4-1.53,2.12,2.12,0,0,1,3.77,1A75.77,75.77,0,0,0,24.24,70.4,2.09,2.09,0,0,1,24.3,72a2.1,2.1,0,0,1-2,1.35Zm8.77,9.5a2.06,2.06,0,0,1-.82,1.36,2.13,2.13,0,0,1-1.24.4,2.16,2.16,0,0,1-.66-.1,2.07,2.07,0,0,1-1.05-.75c-1.17-1.56-2.28-3.2-3.3-4.87a2,2,0,0,1-.25-1.58,2.07,2.07,0,0,1,2-1.58,2.14,2.14,0,0,1,1.81,1c1,1.58,2,3.12,3.09,4.56A2.05,2.05,0,0,1,31.11,82.84Zm11,20.39Z"/><path class="cls-2" d="M98.84,75.28a5.6,5.6,0,0,1-1.19-.3,8.6,8.6,0,0,0-2.1-.48c-13.34-.84-23.36-8.36-32.21-16.36C55.88,51.38,52.51,43.68,49.8,37.49c-2-4.55-3.55-8.14-6.18-9.86-3.69-2.42-5.35-4.2-5.46-8.34a24.68,24.68,0,0,1,.43-3.68c.51-3.14,1-6.4-.22-8.43L38,6.75l.05-.35a4.32,4.32,0,0,0,0-.5A5.85,5.85,0,0,0,33.83.39,8.37,8.37,0,0,0,31.26,0c-2.51,0-5.88,1.12-7.13,4.28a21.37,21.37,0,0,0-1.14,6c-.27,2.87-.49,5.34-2.13,7.13a24.38,24.38,0,0,1-6.23,4.41C5.37,26.78.75,34.28.08,45.43c-.54,9.1,1.7,17,5.23,26.13,4.6,11.84,15.05,24,27.27,31.67a35.92,35.92,0,0,0,8.27,3.91c6.41,2.06,12.82,2,17.13-.23a7.82,7.82,0,0,0,4.15-4.49,8.75,8.75,0,0,0-1.05-7.81l-1.33-2,2.32.71c8.19,2.51,15.43,3,22.12,1.39,3.27-.77,11.27-3.2,14.83-9.08a11.19,11.19,0,0,0,1.63-5v-.13a12.77,12.77,0,0,0-.4-4A1.62,1.62,0,0,0,98.84,75.28Zm-40.5,25a43.17,43.17,0,0,1-20.23-10.2,1.61,1.61,0,0,0-2.27.1,1.56,1.56,0,0,0-.4,1.13A1.59,1.59,0,0,0,36,92.43a47.41,47.41,0,0,0,16.88,9.72c.81.26,1.64.5,2.46.71l2.75.7-2.66,1a16.43,16.43,0,0,1-5.57.87,26.23,26.23,0,0,1-8-1.34l-.32-.1h0a32.93,32.93,0,0,1-7.22-3.43c-11.68-7.35-21.64-18.88-26-30.08-3.38-8.73-5.53-16.28-5-24.81.6-10.1,4.58-16.58,12.89-21a26.73,26.73,0,0,0,7.07-5.06c2.35-2.55,2.66-5.95,2.93-8.95a19.18,19.18,0,0,1,.94-5.16c.77-1.94,3.72-2.7,5.74-2.05a2.64,2.64,0,0,1,2,2.45V6l0,.12a12.93,12.93,0,0,1-1.83,3.15c-.29.41-.54.77-.72,1.06a30.59,30.59,0,0,0-4.7,10.91c-1,4.84-.36,6.56,1.77,10.64,1.29,2.47,1.09,4.56.84,7.2-.06.64-.12,1.3-.16,2-.7,11.15,2.46,22.59,9.94,36C43.16,82.65,48,87,52.24,90.56l1.12.9.21.17c3.37,2.68,5.75,4.81,5.81,7.79v1.07Zm8-21.13a1.56,1.56,0,0,0,.78,1,41.81,41.81,0,0,0,7,3,35.83,35.83,0,0,0,20.42.57L97.18,83l-1.74,2.11c-2.36,2.88-6.74,5.25-12,6.5a32,32,0,0,1-7.32.83c-6.83,0-14.33-2-22.95-6a1.45,1.45,0,0,0-.68-.15h-.35l-.25-.22a40.74,40.74,0,0,1-9-10.56c-7.16-12.85-10.19-23.74-9.54-34.26,0-.64.1-1.25.15-1.84.27-2.8.55-5.7-1.18-9-1.87-3.57-2.28-4.56-1.48-8.57a24.64,24.64,0,0,1,3.12-7.91l2.36-4.09-.83,5.22A25.17,25.17,0,0,0,35,19.34c.16,6,3.22,8.5,6.91,10.92,1.83,1.2,3.29,4.56,5,8.45,2.69,6.14,6.36,14.54,14.34,21.75C70.47,68.86,81,76.75,95.37,77.67a4.6,4.6,0,0,1,1.09.25l2.53.82-2.25.9c-4.13,1.64-15.13,4.72-28.14-2.29a1.6,1.6,0,0,0-2.18.62A1.54,1.54,0,0,0,66.3,79.16Z"/><path class="cls-2" d="M17.58,48.73A1.61,1.61,0,0,0,16,47.35h-.21a1.57,1.57,0,0,0-1.06.61,1.55,1.55,0,0,0-.31,1.16A79.21,79.21,0,0,0,20.87,71.9a1.62,1.62,0,0,0,1,.86A1.68,1.68,0,0,0,23,72.7a1.59,1.59,0,0,0,.82-.89,1.52,1.52,0,0,0,0-1.2A76.49,76.49,0,0,1,17.58,48.73Z"/><path class="cls-2" d="M27.2,77a1.62,1.62,0,0,0-1.38-.78,1.6,1.6,0,0,0-.83.23,1.57,1.57,0,0,0-.72,1,1.56,1.56,0,0,0,.19,1.19c1,1.66,2.12,3.29,3.28,4.84a1.64,1.64,0,0,0,2.26.34,1.53,1.53,0,0,0,.62-1,1.59,1.59,0,0,0-.3-1.17l.2-.15-.2.15C29.23,80.13,28.18,78.59,27.2,77Z"/><path class="cls-2" d="M61.61,74A51,51,0,0,1,53.49,68a1.61,1.61,0,0,0-2.27.1,1.56,1.56,0,0,0-.4,1.13,1.58,1.58,0,0,0,.53,1.1A54.8,54.8,0,0,0,60,76.7a1.56,1.56,0,0,0,.33.14,1.6,1.6,0,0,0,1.87-.7A1.56,1.56,0,0,0,61.61,74Z"/></g></g></svg>