<svg xmlns="http://www.w3.org/2000/svg" viewBox="0 0 112.14 113.16"><defs><style>.cls-1{fill:none;}.cls-2{fill:#455e2b;}</style></defs><g id="Capa_2" data-name="Capa 2"><g id="Icons"><polygon class="cls-1" points="97.2 0 97.2 0 97.2 0 97.2 0"/><path class="cls-1" d="M85.88,86.87c15.3-15.3,23.43-35.82,22-54.27C105.2,49,95.39,66.7,80.55,81.55c-13.27,13.27-28.92,22.64-44.07,26.38q-2.34.57-4.65,1C50.68,110.36,70.67,102.08,85.88,86.87Z"/><path class="cls-1" d="M78.37,39.37C75.68,47.44,70.07,56,62.55,63.54,51.74,74.35,38.83,81.06,28.86,81.06a16.51,16.51,0,0,1-8.32-2l-15.28,19c7,5.48,17.55,6.85,29.74,3.84,14.07-3.47,28.7-12.26,41.19-24.75C100.44,52.93,109.46,22.06,97.1,6.25l-19,15.27C80.65,26,80.76,32.16,78.37,39.37Z"/><path class="cls-2" d="M97.08,1.09a2.64,2.64,0,0,1-.3.15l-23.63,19a1,1,0,0,0-.08,1.52c3.26,3.26,3.77,9.23,1.4,16.36C72,45.55,66.72,53.56,59.64,60.64,49.74,70.55,37.65,77,28.86,77c-3.48,0-6.22-1-8.14-2.89a1,1,0,0,0-.79-.3,1.05,1.05,0,0,0-.73.38L0,98.3l0,.24H0a.62.62,0,0,1,.05.14l.05.24a.91.91,0,0,0,.19.25c9,9,21.69,14,35.69,14,18.69,0,37.94-8.52,52.8-23.39,27-27,31.21-66.68,9.41-88.49a.86.86,0,0,0-.29-.19L97.49,1,97.2,0h0l.08,1ZM106.57,16l2,8c5.21,21-3.12,46.26-21.21,64.36C72.86,102.81,54.13,111.12,36,111.12a54.36,54.36,0,0,1-12.68-1.49l-8-1.92,8.26-.11A55.47,55.47,0,0,0,36,105.92c14.79-3.65,30.1-12.83,43.11-25.84,17-17,27.3-37.93,27.43-55.87ZM98,4.14c14,16.36,5,49.09-20.39,74.5-12.75,12.75-27.73,21.74-42.16,25.3A52.6,52.6,0,0,1,23,105.56c-8,0-14.78-2.21-19.84-6.53l-.76-.65L20.09,76.29l.79.53a14,14,0,0,0,8,2.18c9.45,0,21.8-6.49,32.23-16.92,7.29-7.29,12.73-15.59,15.32-23.36,2.33-7,2.13-12.85-.57-16.85l-.54-.79L97.39,3.38Z"/><path class="cls-2" d="M49.25,61.2a1,1,0,0,0-.57-.53.92.92,0,0,0-.36-.07,1,1,0,0,0-.42.09h0A1,1,0,0,0,47.39,62l1.3,2.89a1,1,0,0,0,1.35.51,1,1,0,0,0,.51-1.35Z"/><path class="cls-2" d="M40.78,64.66a1,1,0,0,0-.9,1.12l.35,3.41a1,1,0,0,0,1,.91,1,1,0,0,0,1-1.12l-.35-3.41A1,1,0,0,0,40.78,64.66Z"/><path class="cls-2" d="M33.46,66.91a1,1,0,0,0-.76.17,1.07,1.07,0,0,0-.42.67l-.63,3.69a1,1,0,0,0,.18.76,1,1,0,0,0,.66.42,1.11,1.11,0,0,0,1.18-.84l.62-3.69A1,1,0,0,0,33.46,66.91Z"/><path class="cls-2" d="M25.39,72.33,27,68.6a1,1,0,0,0-.54-1.34,1.14,1.14,0,0,0-.4-.08,1.09,1.09,0,0,0-.39.08,1,1,0,0,0-.55.54h0L23.5,71.54a1,1,0,0,0,1.89.79Z"/><path class="cls-2" d="M70.55,24.5l-3.73,1.56a1,1,0,0,0-.55.55,1,1,0,0,0,1.33,1.33l3.74-1.56A1,1,0,0,0,71.88,25a1,1,0,0,0-.94-.62A.88.88,0,0,0,70.55,24.5Z"/><path class="cls-2" d="M70.64,32.63h-.18l-3.71.63a1,1,0,0,0,.17,2l3.87-.65a1,1,0,0,0,.66-.41,1,1,0,0,0,.18-.76,1,1,0,0,0-.43-.68A1,1,0,0,0,70.64,32.63Z"/><path class="cls-2" d="M68.19,41.22l-3.4-.35H64.7a1,1,0,0,0-1,.92,1,1,0,0,0,.91,1.11l3.52.36a1,1,0,0,0,.1-2Z"/><path class="cls-2" d="M63.94,49.69l-2.89-1.31a1,1,0,1,0-.84,1.86l2.88,1.31A1.06,1.06,0,0,0,64.45,51a1,1,0,0,0,0-.77A1,1,0,0,0,63.94,49.69Z"/><path class="cls-2" d="M55.77,55.32a1,1,0,1,0-1.44,1.44l2.17,2.17a1,1,0,1,0,1.44-1.44Z"/></g></g></svg>