<svg xmlns="http://www.w3.org/2000/svg" viewBox="0 0 155.62 62.39"><defs><style>.cls-1{fill:#8c6c2a;}</style></defs><g id="Capa_2" data-name="Capa 2"><g id="Icons"><path class="cls-1" d="M155.13,13c-2.75-2-7.5-2.92-11-3.7-5.57-1.24-11.35-1.89-17-2.8-5.84-.93-11.51-2.4-17.33-3.4A189.63,189.63,0,0,0,89.65.77C77.37,0,64.74-.45,52.49.73,40,1.93,29.93,6.15,19.35,11.15c-4.85,2.29-9.1,5.43-14.6,6.7-1.81.42-5.5,1.69-4.62,3.69S4,24.75,6.36,25.74A103.64,103.64,0,0,1,19,32.19c15.26,9,35,13,54.09,11.3,2.15-.2,4.26-.49,6.35-.85-.78-.52-1.51-1-2.21-1.56a95.94,95.94,0,0,1-24.67.23c-14-1.6-25.16-6.33-36.29-12.87a102.15,102.15,0,0,0-10.51-5c-2.82-1.25-4.45-2.9-.38-4a30,30,0,0,0,5.87-2L15,15.63c.15,1.38.32,2.77.45,4.15.06.55,1.17.56,1.12,0-.16-1.56-.35-3.12-.52-4.68C25.82,10.17,35.27,5.23,47,3.19c.51-.09,1-.14,1.52-.22a24.59,24.59,0,0,1,.39,4.44c0,.55,1.1.55,1.12,0a28.5,28.5,0,0,0-.41-4.6c11.58-1.65,23.64-1,35.31-.55a204.28,204.28,0,0,1,21,1.92c6.56,1,12.87,2.57,19.36,3.72,5.21.92,10.49,1.55,15.69,2.49,2.55.47,5,1.06,7.49,1.76a35.38,35.38,0,0,1,4.15,1.54c.78.33-.05.37-1,.77a86.93,86.93,0,0,1-11.43,3.61,23.07,23.07,0,0,0-2.93,1,6.62,6.62,0,0,1-.4-3.11c.08-.55-1-.54-1.11,0a7.24,7.24,0,0,0,.52,3.55c-1.53.7-3,1.51-4.41,2.34.73.36,1.42.72,2.07,1.1,1-.58,2-1.15,3.07-1.69,2.76-1.43,5.86-2.13,8.92-3C147.15,17.9,158,15,155.13,13Z"/><path class="cls-1" d="M114.88,42.3c-.46,8.08,1.34,19.59,11.92,18.8S139,47.35,138.89,39.19c-.12-6.13-1.15-18.59-10.18-17.38C118.58,23.17,115.5,33.6,114.88,42.3a.75.75,0,0,0,1.5.08c.54-7.71,2.59-15.89,10.72-18.71,8.77-3,10,8.85,10.27,14.58.37,7.63-.54,18.36-9.14,21.07-10.44,3.31-12.25-9.94-11.85-16.94A.75.75,0,0,0,114.88,42.3Z"/><path class="cls-1" d="M136.13,27.91h0a.38.38,0,0,0,.41-.63h0a.37.37,0,0,0-.4.63Z"/><path class="cls-1" d="M126.89,59.64c-6.25,2.68-12.77.66-18.78-1.74a99.33,99.33,0,0,1-17.29-9.09c-5-3.3-9.52-7.32-14.85-10.18-2.16-1.16-4.5-2-6.75-3-1.51-.67-8.22-4-6.95-6.42.64-1.22,3.54-1.32,4.69-1.47,1.86-.24,3.72-.4,5.58-.68,7-1,14-1.45,21.09-2.08,5.78-.52,11.45-1.77,17.17-2.72,6-1,13.81-2.2,19.41.92.84.47,1.65-.79.81-1.26-5.23-2.91-11.93-2.28-17.65-1.55-7.12.9-14.07,2.62-21.24,3.25-7.75.69-15.45,1.58-23.19,2.41-2,.21-8.16.21-8.27,3.32-.16,4.36,6.57,7.07,9.76,8.43,7,3,12.58,7.37,18.76,11.7A97.17,97.17,0,0,0,108.61,59.7c6.14,2.45,12.7,3.95,19,1.26.89-.38.19-1.7-.69-1.32Z"/><path class="cls-1" d="M110.17,54.12l-.77-3.51a.37.37,0,0,0-.73.16l.77,3.51a.37.37,0,0,0,.73-.16Z"/><path class="cls-1" d="M109,29.19c.26-1,.56-2,.89-3a.37.37,0,0,0-.71-.23c-.33,1-.63,1.95-.89,2.95-.12.46.59.69.71.23Z"/><path class="cls-1" d="M95,24c-.27,1-.43,2.08-.67,3.11-.1.47.61.7.71.23.24-1,.4-2.08.67-3.11.13-.46-.58-.69-.71-.23Z"/><path class="cls-1" d="M102.31,40.54a2.5,2.5,0,0,1,0-1.33c.11-.47-.6-.7-.71-.23a3.34,3.34,0,0,0,0,1.72c.12.46.85.3.73-.16Z"/><path class="cls-1" d="M89.65,48.58a6.69,6.69,0,0,1-.24-3.81c.13-.46-.58-.69-.71-.23a7.34,7.34,0,0,0,.22,4.2c.14.46.88.3.73-.16Z"/><path class="cls-1" d="M83.44,34.05,83.29,32c0-.48-.78-.52-.75,0l.15,2.1c0,.48.79.52.75,0Z"/><path class="cls-1" d="M69.8,29a7.37,7.37,0,0,1-.06-2.2c.06-.48-.69-.52-.74,0a8.06,8.06,0,0,0,.07,2.4A.37.37,0,0,0,69.8,29Z"/></g></g></svg>