<svg xmlns="http://www.w3.org/2000/svg" viewBox="0 0 78.62 99.81"><defs><style>.cls-1{fill:#8c6c2a;}</style></defs><g id="Capa_2" data-name="Capa 2"><g id="Icons"><path class="cls-1" d="M20.65,45.64a56.26,56.26,0,0,0,10.4-6.94,1.32,1.32,0,0,0,.16-1.86,1.39,1.39,0,0,0-1.86-.16,53.68,53.68,0,0,1-9.91,6.62,1.31,1.31,0,0,0-.65.77,1.27,1.27,0,0,0,.09,1A1.33,1.33,0,0,0,20.65,45.64Z"/><path class="cls-1" d="M34.31,35.35l1.31-1.57a1.3,1.3,0,0,0-.16-1.85,1.28,1.28,0,0,0-.83-.3H34.5a1.29,1.29,0,0,0-.89.44l-1.33,1.58a1.33,1.33,0,0,0,.17,1.86A1.36,1.36,0,0,0,34.31,35.35Z"/><path class="cls-1" d="M55.49,67.22a1.35,1.35,0,0,0-1.05.47,15.22,15.22,0,0,1-6.56,4.71,1.32,1.32,0,0,0-.78,1.69,1.34,1.34,0,0,0,1.69.78,17.82,17.82,0,0,0,7.71-5.52,1.34,1.34,0,0,0-.2-1.86A1.32,1.32,0,0,0,55.49,67.22Z"/><path class="cls-1" d="M60.26,66.43a1.32,1.32,0,0,0,.29-1.84,1.28,1.28,0,0,0-.87-.51l-.22,0a1.28,1.28,0,0,0-.75.23l-1.09.8a1.32,1.32,0,0,0-.3,1.84,1.36,1.36,0,0,0,1.84.3Z"/><path class="cls-1" d="M64.64,87.74a5.94,5.94,0,0,0,4.3-3.7,1.27,1.27,0,0,0,0-1,1.33,1.33,0,0,0-.73-.69,1.31,1.31,0,0,0-.44-.07,1.38,1.38,0,0,0-.56.12,1.3,1.3,0,0,0-.7.72,3.35,3.35,0,0,1-2.38,2,1.26,1.26,0,0,0-.83.57,1.28,1.28,0,0,0-.19,1A1.35,1.35,0,0,0,64.64,87.74Z"/><path class="cls-1" d="M14.33,33.92l.66.2-.37.58c-3.41,5.34-3,10.5,1.3,15.78C26.78,63.81,38.44,75.25,53.73,87.57c8.57,6.9,19,11.93,22.18,12.23h.19a2.07,2.07,0,0,0,2.31-1.75l.06-.24c.68-3-1-14.81-4.83-24.73-7-18.34-14.28-33-23.62-47.4-2.82-4.37-6.45-6.58-10.77-6.58a15.39,15.39,0,0,0-3.84.53l-.67.17,0-.69c.17-5.5-1.47-12.89-4.5-15.72a8.61,8.61,0,0,0-5.82-2.33,7,7,0,0,0-4,1.2l-.53.56-.37-.36a8.48,8.48,0,0,0-6-2.47A11.09,11.09,0,0,0,7,2.28,10.34,10.34,0,0,0,2.34,10a8.6,8.6,0,0,0,.9,4.35l.23.47-.61.29a8,8,0,0,0-2,9.72C2.57,28.54,9.06,32.38,14.33,33.92ZM39.25,21.75c3.42,0,6.21,1.76,8.55,5.37,2.9,4.48,5.61,9,8.3,13.92l.17.31-.23.28c-2.57,3-6.61,6.6-10.23,7.77a1.32,1.32,0,0,0-.77.66,1.29,1.29,0,0,0-.08,1,1.35,1.35,0,0,0,1.66.85c4.52-1.47,8.85-5.77,10.5-7.55l.5-.53.34.64a258.18,258.18,0,0,1,11,24l.15.37-.32.24a1.21,1.21,0,0,0-.32.32,9,9,0,0,1-3.74,3.38,1.34,1.34,0,0,0-.67.75,1.31,1.31,0,0,0,.07,1,1.35,1.35,0,0,0,1.76.61,11.76,11.76,0,0,0,3.74-2.91l.57-.65,1,2.42c3.51,9.21,5,19.41,4.8,22.53l0,.63L75.33,97c-3-.8-12.26-5.33-19.95-11.52A254.34,254.34,0,0,1,26.21,58.39l-.44-.49.58-.31a22.46,22.46,0,0,0,5-3.64,1.3,1.3,0,0,0,0-1.87,1.37,1.37,0,0,0-1.86,0,20,20,0,0,1-5.24,3.6l-.35.17-.26-.29C21.45,53,19.63,50.85,18,48.81c-6.86-8.43-.15-15.1,7.3-21.22C29.7,24.75,34.75,21.75,39.25,21.75ZM21.94,4.43h0c1.7-1.18,4.75-.77,6.52.88C31.07,7.77,32.54,15.65,32,20.54l0,.3-.27.12c-1,.42-1.95.91-3,1.5l-.56.3-.18-.6A143,143,0,0,0,21.89,5.88c-.08-.19-.18-.36-.27-.54l-.32-.61Zm-13.4,0A7.85,7.85,0,0,1,15,2.82,6.85,6.85,0,0,1,19.48,7a142.06,142.06,0,0,1,6.21,16.81l.11.38-.34.21-1.65,1-.12.09L22.21,26.7l-.3.25-.32-.22A139.55,139.55,0,0,1,7.52,15.64,6.8,6.8,0,0,1,5,10.13,7.81,7.81,0,0,1,8.54,4.42ZM4.36,17.22l.49-.52.48.49.43.42A141.45,141.45,0,0,0,19.34,28.37l.52.37-.46.43A33.78,33.78,0,0,0,17,31.59l-.2.23-.3-.07c-4.79-1-11.8-4.85-13.31-8.07C2.14,21.42,2.66,18.53,4.36,17.22Z"/></g></g></svg>