<svg xmlns="http://www.w3.org/2000/svg" viewBox="0 0 68.87 124.28"><defs><style>.cls-1{fill:none;}.cls-2{fill:#455e2b;}</style></defs><g id="Capa_2" data-name="Capa 2"><g id="Icons"><path class="cls-1" d="M34.43,42.57a27,27,0,0,1,6.28.75c3.36-5.15,7.22-7.94,11.49-8.3a11.53,11.53,0,0,1,4.52.53,11.21,11.21,0,0,0-5.21-4.19c-2.13-.7-4.37-.23-6.83,1.45a2.1,2.1,0,0,1-3-2.86,26.81,26.81,0,0,1,9-8.08,31.91,31.91,0,0,0-6.58,2.2,2.11,2.11,0,0,1-3-2.07,45.22,45.22,0,0,1,3.13-11.27,20.74,20.74,0,0,0-3.6,4.75,2.11,2.11,0,0,1-3.92-.25L34.43,8l-2.32,7.24a2.11,2.11,0,0,1-3.92.24,20.42,20.42,0,0,0-3.59-4.74A45.22,45.22,0,0,1,27.73,22a2.11,2.11,0,0,1-3,2.07,33.24,33.24,0,0,0-6.56-2.19,26.89,26.89,0,0,1,9,8.07,2.1,2.1,0,0,1-3,2.86c-2.47-1.68-4.7-2.15-6.83-1.45a11.16,11.16,0,0,0-5.21,4.19A11.72,11.72,0,0,1,16.67,35h0c4.27.36,8.13,3.15,11.49,8.3A26.86,26.86,0,0,1,34.43,42.57Z"/><path class="cls-1" d="M59.6,64.37l-.27-.5-.11.12Z"/><path class="cls-1" d="M47.58,52.36l.94-.94A26.07,26.07,0,0,0,44.22,49Z"/><path class="cls-1" d="M56.24,61l.81-.82a37.14,37.14,0,0,0-5.24-6.1l-1.24,1.25Z"/><path class="cls-1" d="M63.75,103.12a39.07,39.07,0,0,0,1.79-9.55l-.65-.65-5.67,5.67Z"/><path class="cls-1" d="M50.57,107.24l6.51,6.51a23.48,23.48,0,0,0,4.9-6.43l-5.74-5.75Z"/><path class="cls-1" d="M64.89,87l.66-.67a56.82,56.82,0,0,0-1.44-9.89l-4.89,4.89Z"/><rect class="cls-1" x="52.23" y="68.63" width="8.02" height="8.02" transform="translate(-34.89 61.04) rotate(-45)"/><path class="cls-1" d="M13.11,58.44a41.67,41.67,0,0,0-4.4,6.94L13,69.66,18.65,64Z"/><path class="cls-1" d="M22.2,50.23a30.89,30.89,0,0,0-6.32,5L21.63,61l5.67-5.67Z"/><path class="cls-1" d="M45.76,119.73a28.25,28.25,0,0,0,8-3.39l-6.13-6.12-5.66,5.67Z"/><path class="cls-1" d="M6.88,69.52A53.76,53.76,0,0,0,4.34,78.3L10,72.64Z"/><path class="cls-1" d="M4.33,95.61,10,89.94,4.33,84.27l-1,1c-.12,1.57-.18,3-.18,4.47,0,1.69.08,3.32.24,5Z"/><rect class="cls-1" x="17.63" y="85.93" width="8.02" height="8.02" transform="translate(-57.26 41.64) rotate(-45)"/><rect class="cls-1" x="43.58" y="77.28" width="8.02" height="8.02" transform="translate(-43.54 57.46) rotate(-45.01)"/><rect class="cls-1" x="52.23" y="85.93" width="8.02" height="8.02" transform="translate(-47.13 66.11) rotate(-45)"/><rect class="cls-1" x="43.58" y="94.58" width="8.02" height="8.02" transform="translate(-55.77 62.51) rotate(-44.99)"/><path class="cls-1" d="M26.23,48.31l4.05,4,5.49-5.5A21.62,21.62,0,0,0,26.23,48.31Z"/><rect class="cls-1" x="34.93" y="51.33" width="8.02" height="8.02" transform="translate(-27.73 43.74) rotate(-45.01)"/><rect class="cls-1" x="43.58" y="59.98" width="8.02" height="8.02" transform="translate(-31.31 52.39) rotate(-45)"/><rect class="cls-1" x="34.93" y="103.23" width="8.02" height="8.02" transform="translate(-64.43 58.94) rotate(-45)"/><rect class="cls-1" x="26.28" y="94.58" width="8.02" height="8.02" transform="translate(-60.84 50.29) rotate(-45)"/><rect class="cls-1" x="17.63" y="103.23" width="8.02" height="8.02" transform="translate(-69.49 46.71) rotate(-45)"/><path class="cls-1" d="M30.28,110.22l-5.67,5.67,5,5,1.28.1L36,115.89Z"/><rect class="cls-1" x="8.97" y="94.58" width="8.02" height="8.02" transform="translate(-65.91 38.06) rotate(-45)"/><rect class="cls-1" x="8.97" y="77.28" width="8.02" height="8.02" transform="translate(-53.68 32.99) rotate(-45)"/><rect class="cls-1" x="17.62" y="68.63" width="8.02" height="8.02" transform="translate(-45.03 36.58) rotate(-45.01)"/><rect class="cls-1" x="26.27" y="59.98" width="8.02" height="8.02" transform="translate(-36.37 40.15) rotate(-44.99)"/><path class="cls-1" d="M13,110.22l-2.37,2.37a23.91,23.91,0,0,0,6.49,4.85l1.55-1.55Z"/><rect class="cls-1" x="26.27" y="77.28" width="8.02" height="8.02" transform="translate(-48.61 45.22) rotate(-45)"/><rect class="cls-1" x="34.93" y="68.63" width="8.02" height="8.02" transform="translate(-39.96 48.8) rotate(-44.99)"/><path class="cls-1" d="M4.78,102A28.05,28.05,0,0,0,8,109.24l2-2Z"/><rect class="cls-1" x="34.93" y="85.93" width="8.02" height="8.02" transform="translate(-52.19 53.87) rotate(-45)"/><path class="cls-2" d="M.37,95.91l0,.06a44,44,0,0,0,.71,4.35l0,.12,0,.12a1.07,1.07,0,0,0,.21.93l.11.2a30.61,30.61,0,0,0,5.42,11.38l.22.25A27,27,0,0,0,17,120.93l.21.09a38.17,38.17,0,0,0,11.21,2.89l.17,0s0,0,.1,0a53.2,53.2,0,0,0,5.74.33c15.19,0,25.9-5.8,31-16.78a1.11,1.11,0,0,0,.16-.37,42.9,42.9,0,0,0,3.3-17.42c0-.87,0-1.73-.06-2.59-.62-14.73-6.56-28.28-15.88-36.26l-.13-.19a1.12,1.12,0,0,0-.22-.33,1,1,0,0,0-.5-.25l-.19-.1a30.36,30.36,0,0,0-8-4.6l-.61-.24.36-.53c2.7-4,5.66-6.16,8.8-6.43,4.88-.42,8.76,3.81,9.18,4.29a1.08,1.08,0,0,0,1.85-1c-.15-.43-3.82-10.75-11-13.1a9.26,9.26,0,0,0-3.25-.48l-1.6.08,1.25-1a26.79,26.79,0,0,1,12.54-5.46,1.07,1.07,0,0,0,.9-.9,1.1,1.1,0,0,0-.6-1.13c-5.46-2.59-12.52-.71-16.25.63l-.89.33.21-.93A68.9,68.9,0,0,1,50.66,4.3,1.08,1.08,0,0,0,50.43,3a1.07,1.07,0,0,0-1.28-.13,33.33,33.33,0,0,0-9.49,8.3l-.6.8L35.46.75a1.07,1.07,0,0,0-1-.75,1.06,1.06,0,0,0-1,.75L29.81,12l-.6-.8a33.33,33.33,0,0,0-9.49-8.3A1.07,1.07,0,0,0,18.21,4.3,68.39,68.39,0,0,1,24,19.48l.22.93-.9-.33c-3.72-1.35-10.78-3.22-16.24-.63a1.09,1.09,0,0,0-.6,1.13,1.07,1.07,0,0,0,.9.9,26.71,26.71,0,0,1,12.51,5.46l1.21,1-1.54,0a10.12,10.12,0,0,0-3.25.48C9.23,30.68,5.54,41,5.39,41.45a1.07,1.07,0,0,0,1.83,1c.18-.19,4.2-4.73,9.2-4.3,3.14.27,6.09,2.43,8.79,6.43l.37.53-.61.24C16.8,48.52,9.8,55.58,5.26,65.27a1.08,1.08,0,0,0-.11.21A58.08,58.08,0,0,0,0,89.71a55.26,55.26,0,0,0,.33,5.78A1.76,1.76,0,0,0,.37,95.91Zm7.48,15-.36-.52a28.93,28.93,0,0,1-4-9L3.43,101l.9-.9,7.13,7.13Zm24-38.22,7.13-7.13,7.13,7.13-7.13,7.13Zm14.26,17.3-7.13,7.13L31.8,89.94l7.13-7.13Zm-8.65-8.65-7.13,7.13-7.13-7.13,7.13-7.13Zm-8.65,8.65-7.13,7.13L14.5,89.94l7.13-7.13Zm0,17.3-7.13,7.13-7.13-7.13,7.13-7.13Zm-5.61-8.65,7.13-7.13,7.13,7.13-7.13,7.13Zm15.78,1.52,7.13,7.13-7.13,7.13-7.13-7.13Zm1.52-1.52,7.13-7.13,7.13,7.13-7.13,7.13Zm8.66-8.65,7.13-7.13,7.12,7.13-7.12,7.13Zm-1.53-1.52-7.13-7.13,7.13-7.13,7.13,7.13ZM40.46,64l7.12-7.13L54.71,64l-7.13,7.13Zm-1.53-1.52L31.8,55.34l7.13-7.13,7.13,7.13ZM37.41,64l-7.13,7.13L23.15,64l7.13-7.13Zm-8.65,8.65-7.13,7.13L14.5,72.64l7.13-7.13Zm-8.65,8.65L13,88.42,5.85,81.29,13,74.16Zm0,17.3L13,105.72,5.85,98.59,13,91.46ZM17,118.53a24.78,24.78,0,0,1-7.46-5.61l-.33-.36,3.8-3.8,7.13,7.13L17.3,118.7ZM23.85,121a33.4,33.4,0,0,1-3.67-1.08l-.76-.27,2.21-2.22,4,4ZM31,122c-.57,0-1.15-.08-1.73-.14l-.19,0-6-6,7.13-7.13,7.13,7.13L31.28,122Zm10.9-.44a51,51,0,0,1-6.46.54l-1.28,0,4.73-4.73,4,4Zm12.87-4.72a29.58,29.58,0,0,1-9.08,4l-.28.07-5-5,7.12-7.13,7.75,7.75Zm8.26-9.41a24.46,24.46,0,0,1-5.67,7.4l-.36.32-7.93-7.93,7.13-7.13,7,7Zm3.52-14a39.55,39.55,0,0,1-2.14,10.84l-.27.76-6.42-6.42,7.13-7.13,1.71,1.71Zm-1.7-18.15a57.69,57.69,0,0,1,1.71,11.2v.23l-1.72,1.73-7.13-7.13,6.91-6.91Zm-8.65,4.51-7.13-7.13,7.13-7.13,7.12,7.13Zm3.66-17c.7,1.22,1.37,2.55,2,3.95l1.17,2.59L57.76,64l1.8-1.81ZM52.14,53a37.93,37.93,0,0,1,6,7l.24.35-2.14,2.15-7.13-7.13,2.67-2.68Zm-2.52-2.05.49.35-2.53,2.53-7.42-7.43,2.1.72A27.31,27.31,0,0,1,49.62,50.94Zm-33-14.89A11.23,11.23,0,0,0,11,37.1l-1.61.73,1-1.48c2.05-3.18,4.31-5.19,6.7-6s5-.29,7.74,1.58a1.08,1.08,0,0,0,1.52-1.46,26.56,26.56,0,0,0-11.55-9.15l-2.92-1.24,3.16.25a32.37,32.37,0,0,1,10.17,2.78,1.08,1.08,0,0,0,1.55-1.05c0-.2-.45-4.95-4-13.19l-.89-2.08,1.7,1.49A23.75,23.75,0,0,1,29.13,15a1.08,1.08,0,0,0,2-.12L34.43,4.6l3.31,10.32a1.06,1.06,0,0,0,.95.74A1.08,1.08,0,0,0,39.74,15a23.73,23.73,0,0,1,5.57-6.73L47,6.82,46.13,8.9c-3.51,8.24-3.94,13-4,13.19a1.07,1.07,0,0,0,1.54,1.05,32.64,32.64,0,0,1,10.2-2.79l3.14-.24-2.9,1.23A26.6,26.6,0,0,0,42.58,30.5,1.08,1.08,0,0,0,44.1,32c2.74-1.87,5.27-2.39,7.73-1.58s4.66,2.79,6.71,6l1,1.48-1.61-.73a11.18,11.18,0,0,0-5.6-1.05c-4,.33-7.69,3.07-10.91,8.14l-.2.31-.36-.09a25.8,25.8,0,0,0-12.77,0l-.36.09-.2-.31C24.27,39.12,20.6,36.38,16.58,36.05Zm8.53,11.58A23.19,23.19,0,0,1,36,45.84l.67.06.78.79-7.13,7.13L24.4,47.93ZM14.78,54.9A31.64,31.64,0,0,1,22,49.14l.34-.2,6.39,6.4-7.13,7.13-7.2-7.2ZM7.62,65.25a43,43,0,0,1,5-7.91l.36-.45L20.11,64,13,71.12,7.45,65.59ZM3.27,78.39a54.84,54.84,0,0,1,2.94-10l.3-.72,5,5L4.33,79.77,3.22,78.66ZM2.35,85v-.19l2-2,7.13,7.13L4.33,97.07l-1.9-1.91,0-.18a51.23,51.23,0,0,1-.26-5.27C2.15,88.18,2.21,86.63,2.35,85Z"/></g></g></svg>