<svg xmlns="http://www.w3.org/2000/svg" viewBox="0 0 77.84 79.05"><defs><style>.cls-1{fill:#8c6c2a;}</style></defs><g id="Capa_2" data-name="Capa 2"><g id="Icons"><path class="cls-1" d="M54.62,0C45,0,31.14,7.61,19.37,19.38c-7.9,7.9-14,16.7-17.12,24.79C-1,52.54-.72,59.26,3,63.09c.62.69,14.51,16,35.13,16a45,45,0,0,0,18-3.92C58.51,73.87,62,72,63,71.67A12,12,0,0,0,73.2,61.44l0-.18a8.61,8.61,0,0,1,1-3,54.39,54.39,0,0,0,3.64-18.5A48.94,48.94,0,0,0,63.19,3.1C61.13,1,58.25,0,54.62,0ZM41.43,6.33C49.21,2.51,56.19,1.58,60.06,4l.84.53L34.46,31,41.11,6.49ZM35,33.94l.44-.55.29-.37.15-.21L60,24.87,59,26.6a78.8,78.8,0,0,1-12.9,17.31l-.55.58ZM44.7,45.37l-.57.55A83.06,83.06,0,0,1,28.5,58l-1.66,1,6.34-23.32.75-.6.75.3ZM22.37,20.15A82.25,82.25,0,0,1,38,8.18l1.65-1L33.29,30.5l-.76.57-.69-.32-10-10Zm-15,19.36a80.14,80.14,0,0,1,13-17.36l.55-.57L31.45,32.11l-.46.56-.35.43-.15.19-24.09,8ZM4,60.05c-2-3.25-1.73-8.54.74-14.92.26-.67.55-1.35.85-2l.14-.32L31,34.45,4.5,60.9Zm1.4,1.73L30.07,37.09l1.45-.21L31.25,38l-5.9,21.68-.32.15c-5,2.47-9.6,3.77-13.37,3.77A10.12,10.12,0,0,1,6.23,62.3Zm60.84-48.7.17-2.3,1.27,1.93a45.63,45.63,0,0,1,7.52,26.83A52.53,52.53,0,0,1,71.8,57.11,12,12,0,0,0,70.58,61a9.42,9.42,0,0,1-7.91,8l-.25,0c-.31.08-1.75.61-7.31,3.65a42.42,42.42,0,0,1-17,3.68C27,76.39,18,71.65,12.34,67.67l-1.83-1.29,2.24-.13c9.54-.55,23-8.14,34.15-19.34C54.81,39,60.89,30.2,64,22.11A31.35,31.35,0,0,0,66.22,13.08Zm-4.66,8.07q-.36.93-.78,1.86l-.14.32-25.11,8.3L61.78,5.38l.52.85C64.29,9.48,64,14.78,61.56,21.15Z"/></g></g></svg>