<svg xmlns="http://www.w3.org/2000/svg" viewBox="0 0 121.4 104.32"><defs><style>.cls-1{fill:#8c6c2a;}</style></defs><g id="Capa_2" data-name="Capa 2"><g id="Icons"><path class="cls-1" d="M32.13,104.32c-8,0-14-1.48-18.47-4.52C2.11,91.89-2.33,81.32,1.16,70,5.38,56.39,21.08,44.42,34.75,44.42a23.77,23.77,0,0,1,2.55.14c8.57,1,15.15-4.9,22.17-11.17,7.22-6.45,14.69-13.11,25.06-13.11,5.52,0,11.26,1.88,17.55,5.74,13.3,8.18,21,23.3,19,37.65C119.4,76.44,110.67,86,97.17,90L91,91.81C70.15,98,48.6,104.32,32.13,104.32Zm2.62-57.81c-12.85,0-27.6,11.28-31.58,24.14C0,81,4.11,90.73,14.84,98.07c4.09,2.8,9.75,4.16,17.29,4.16,16.17,0,37.57-6.32,58.26-12.43L96.58,88c12.67-3.71,20.86-12.67,22.45-24.59,1.81-13.54-5.44-27.83-18-35.58-6-3.66-11.33-5.43-16.45-5.43C75,22.38,67.79,28.77,60.87,35c-7.36,6.58-14.33,12.79-23.81,11.69A22,22,0,0,0,34.75,46.51Z"/><path class="cls-1" d="M16.78,51a1.05,1.05,0,0,1-.86-.44c-.14-.2-14.4-20.46,0-39.95C21.32,3.29,29.61-.46,39.31,0,53.26.76,67.83,10,75.56,23a1,1,0,1,1-1.8,1.07C66.37,11.64,52.48,2.82,39.2,2.14,32.85,1.81,24,3.24,17.62,11.83c-13.52,18.27-.13,37.29,0,37.48a1,1,0,0,1-.24,1.46A1.08,1.08,0,0,1,16.78,51Z"/><path class="cls-1" d="M25,74.48a1,1,0,0,1-.45-.1A13.36,13.36,0,0,1,17.31,65a1,1,0,1,1,2.06-.4,11.22,11.22,0,0,0,6.11,7.86,1,1,0,0,1-.45,2Z"/><path class="cls-1" d="M24.24,92.93a1.12,1.12,0,0,1-.31-.05,7.84,7.84,0,0,1-4.18-3.08A1.07,1.07,0,0,1,20,88.34a1.06,1.06,0,0,1,1.46.28,5.85,5.85,0,0,0,3.05,2.26,1,1,0,0,1-.3,2.05Z"/><path class="cls-1" d="M66.88,84.32a16.57,16.57,0,0,1-8.7-2.46,1.05,1.05,0,0,1-.34-1.44,1,1,0,0,1,1.44-.34,14.75,14.75,0,0,0,11,1.74,1,1,0,1,1,.5,2A15.93,15.93,0,0,1,66.88,84.32Z"/><path class="cls-1" d="M70.15,58.78h0a16.45,16.45,0,0,1-6-1,6.28,6.28,0,0,1-4-5.15,1,1,0,0,1,1-1.1,1.06,1.06,0,0,1,1.11,1A4.27,4.27,0,0,0,65,55.86a14.53,14.53,0,0,0,5.21.83,1,1,0,0,1,0,2.09Z"/><path class="cls-1" d="M102.71,61.75a5.52,5.52,0,0,1-1.28-.14,6.06,6.06,0,0,1-4.51-4.85A1,1,0,1,1,99,56.43,3.83,3.83,0,0,0,105.91,58a1,1,0,0,1,1.71,1.21A6.06,6.06,0,0,1,102.71,61.75Z"/><path class="cls-1" d="M20.84,28.38a1,1,0,0,1-.68-.25,1,1,0,0,1-.11-1.48,17.89,17.89,0,0,1,7.4-5.08,1.06,1.06,0,0,1,1.34.63,1,1,0,0,1-.63,1.34A15.69,15.69,0,0,0,21.64,28,1.05,1.05,0,0,1,20.84,28.38Z"/><path class="cls-1" d="M47.09,29.84a1,1,0,0,1-.58-.17,1,1,0,0,1-.3-1.45,12.05,12.05,0,0,1,5-4.37,1,1,0,1,1,.89,1.9A10.08,10.08,0,0,0,48,29.37,1.07,1.07,0,0,1,47.09,29.84Z"/></g></g></svg>