<svg xmlns="http://www.w3.org/2000/svg" viewBox="0 0 108.99 115.9"><defs><style>.cls-1{fill:#2e213c;}</style></defs><g id="Capa_2" data-name="Capa 2"><g id="Icons"><path class="cls-1" d="M105.45,37.3l-.91-.51.52-.9a4.78,4.78,0,0,0,0-4.77c-1.39-2.78-4.4-4.32-8.45-4.32A28.94,28.94,0,0,0,81,31.05l-5.91,3.63,4.62-5.18A73.35,73.35,0,0,1,91.39,18.85,7.35,7.35,0,0,0,94.25,13a6.23,6.23,0,0,0-2.88-5.18,6.11,6.11,0,0,0-6.19-.22L84,8.18l-.32-1.25A7.21,7.21,0,0,0,79.79,2a5.85,5.85,0,0,0-5-.28,6.28,6.28,0,0,0-1.68,1.09l-.88.8-.66-1A4.81,4.81,0,0,0,71,1.89,6.5,6.5,0,0,0,66,0a6.27,6.27,0,0,0-5.63,3l-.59,1-.91-.69a7.78,7.78,0,0,0-1.07-.68A7.28,7.28,0,0,0,52.31,2a7.49,7.49,0,0,0-4.91,5,6.69,6.69,0,0,0,.64,6,100.07,100.07,0,0,1,6.27,9.27l3.14,5.31-4.69-4a27,27,0,0,0-13.41-6.23,6.71,6.71,0,0,0-1.28-.12,7.26,7.26,0,0,0-5.26,2.28,6.31,6.31,0,0,0-1.7,4.5,7.15,7.15,0,0,0,.2,1.68l.26,1-1,.23a5,5,0,0,0-2,.91,4.72,4.72,0,0,0-1.7,3.74,6.64,6.64,0,0,0,2.1,5.58l.7.56-.46.77a5.62,5.62,0,0,0-.38,4.89,6.63,6.63,0,0,0,6.59,4.44,5.59,5.59,0,0,0,3.09-1.31,8.1,8.1,0,0,1,1-.65,22.37,22.37,0,0,1,8.41-1.89c5.83,0,10.61,3.32,15,10.46l.2.33-.06.38a92.44,92.44,0,0,1-12.23,32.6l-1.77,2.91-.12-3.41c-.3-8.27-5.09-16.86-11.15-20a26.21,26.21,0,0,0-14-4c-8.88,0-16.92,2.57-21.06,6.7A8.12,8.12,0,0,0,0,75.56C0,78,.78,81.08,4.47,82l.85.2L5.26,83a5.91,5.91,0,0,0,2,4.87,5.39,5.39,0,0,0,5.66.88l.78-.29.44.7a5.23,5.23,0,0,0,4,2.57c4.09,0,6.64-2.54,6.64-6.63,0-7.3,5.7-15,12-16.23l.37-.07.33.19C44.28,73,49.59,85.43,46,94.37l0,.51-.17.22A90.68,90.68,0,0,1,26.1,114.44l1,1.46a94.42,94.42,0,0,0,37.7-60.59l.06-.34.25-.23A18.72,18.72,0,0,1,78,49.65,21.8,21.8,0,0,1,92.1,55.07a7,7,0,0,0,4.52,2.23,6.94,6.94,0,0,0,4.46-2.17,4.37,4.37,0,0,0,1-3.85L102,50.23l1-.11a5.6,5.6,0,0,0,2.46-.84A7.51,7.51,0,0,0,109,43,6.61,6.61,0,0,0,105.45,37.3ZM32.8,68.44C27.29,71.44,23,78.77,23,85.13,23,88.21,21.21,90,18.12,90A3.63,3.63,0,0,1,15.18,87a.89.89,0,0,0-1.38-.74c-2.07,1.38-4.07,1.46-5.41.27a4.2,4.2,0,0,1-1-4.87.87.87,0,0,0,0-.87.89.89,0,0,0-.76-.42c-3.3,0-4.85-1.54-4.85-4.85A6.58,6.58,0,0,1,4,71.16c3-3,9.75-6.18,19.73-6.18a26.2,26.2,0,0,1,9,1.6l2.1.79ZM61,48.56c-5.85-6.78-13-8.16-22.17-4.44a8.55,8.55,0,0,0-1.35.82,4.22,4.22,0,0,1-2.1,1,4.91,4.91,0,0,1-4.9-3.22c-.79-2.39.24-4,1.47-4.66a.9.9,0,0,0,.48-.94.88.88,0,0,0-.73-.74c-1.21-.2-3.21-1.09-3.09-4.83a3,3,0,0,1,1-2.4,3.93,3.93,0,0,1,2.48-.7,7,7,0,0,1,1.16.1,1,1,0,0,0,1-.44.89.89,0,0,0-.16-1.06,4.47,4.47,0,0,1-1.17-3.15,4.49,4.49,0,0,1,1.18-3.24,5.58,5.58,0,0,1,4-1.75,5,5,0,0,1,1,.09c13,2.12,21.68,12.6,23.71,28.76l.42,3.36Zm3.92,1L64.46,46c-1.83-14.91-8.29-25.23-15-34.17a5,5,0,0,1-.37-4.36,5.7,5.7,0,0,1,3.75-3.82,5.43,5.43,0,0,1,4.1.49,4.83,4.83,0,0,1,2.44,2.74.9.9,0,0,0,.85.64.92.92,0,0,0,.89-.87C61.22,3.61,63,1.78,66,1.78a4.85,4.85,0,0,1,3.66,1.3,4.84,4.84,0,0,1,1.19,3l0,0,0,.46a.89.89,0,0,0,.73.94,1,1,0,0,0,1-.62,5.55,5.55,0,0,1,2.89-3.53A4.08,4.08,0,0,1,79,3.6c1.65.83,3.33,2.29,3.33,6.86a.89.89,0,0,0,.62.85.9.9,0,0,0,1-.33c1.59-2.22,4.46-3,6.43-1.69A4.43,4.43,0,0,1,92.47,13a5.59,5.59,0,0,1-2.11,4.39,78.22,78.22,0,0,0-24,28.93Zm39.69-1.76a3.72,3.72,0,0,1-3.74.2.89.89,0,0,0-1.19,1.19c.42.85,1.36,3.52.17,4.72a5,5,0,0,1-3.2,1.65,5.19,5.19,0,0,1-3.31-1.75c-6.87-5.88-16.31-7.53-23.84-4.1L66.66,51l1.48-2.7c7.39-13.42,16.44-19.66,28.48-19.66,3.39,0,5.77,1.15,6.86,3.33a3.19,3.19,0,0,1-1.5,4.54.91.91,0,0,0-.49,1,.89.89,0,0,0,.87.69c1.34,0,4.85,1.49,4.85,4.85A5.77,5.77,0,0,1,104.58,47.76Z"/><path class="cls-1" d="M16.18,76.93l-1.3-1.21a22.79,22.79,0,0,0-3,4.42l1.75.5A20.73,20.73,0,0,1,16.18,76.93Z"/><path class="cls-1" d="M18.12,72.3l1.37,1.15.25-.26-1-1.56Z"/><path class="cls-1" d="M94.68,49.44l.56-.54c-1.41-1.34-4.11-3.23-8.91-4.58l-.43,1.73a19.12,19.12,0,0,1,8.15,4.18Z"/><path class="cls-1" d="M80,18.08a56.45,56.45,0,0,0-9.76,11l-1.5,2.3-.37-2.72a46.1,46.1,0,0,0-1.21-6l-1.69.57A47.86,47.86,0,0,1,67,35.35a.89.89,0,0,0,.72.88h.17a.89.89,0,0,0,.83-.56c3-7.64,10-14.16,12.35-16.2Z"/></g></g></svg>