<svg xmlns="http://www.w3.org/2000/svg" viewBox="0 0 87.1 116.82"><defs><style>.cls-1{fill:#9b1b21;}</style></defs><g id="Capa_2" data-name="Capa 2"><g id="Icons"><path class="cls-1" d="M68,40.94c-3-2.73-6.39-5.19-9.63-7.58-2.72-2-5.52-4.07-8.11-6.27-1.55-1.32-2.45-4.43-3.51-8-2-6.76-4.67-16-14.46-19A1.47,1.47,0,0,0,31.86,0,1.43,1.43,0,0,0,31,2.59c5,3.66,7.94,14.06,7,20.22-.88,5.69-5.54,8.85-10.94,12.51l-.25.17c-.74.49-1.41.95-2.08,1.42C14.39,44.12,7.12,51.13,2.88,63.78A53.1,53.1,0,0,0,.3,86.46c1.35,11.89,9.17,19,15.82,23.84,5.43,4,15.19,6.52,24.86,6.52a46.84,46.84,0,0,0,7-.44l1.78-.21c9.81-1.45,19.07-2.82,27.8-10.74,6.56-6,10-15.5,9.47-26.21C86.3,64.48,79.89,51.6,68,40.94Zm7.67,62.35c-8.07,7.32-16.49,8.56-26.25,10l-1.86.25A44.91,44.91,0,0,1,41,114c-9.1,0-18.2-2.34-23.17-6C8.5,101.2,4.11,94.67,3.15,86.17A50.27,50.27,0,0,1,5.6,64.71c4-11.91,10.91-18.57,20.78-25.44.75-.53,1.5-1,2.25-1.54,5.5-3.73,11.14-7.55,12.22-14.48a23.2,23.2,0,0,0,0-6l0-.34L43,16.49l.11.32c.32,1,.62,2.05.91,3.05,1.18,4.05,2.2,7.54,4.41,9.41,2.66,2.27,5.5,4.36,8.24,6.38,3.19,2.35,6.48,4.79,9.43,7.43,11.48,10.26,17.4,22.13,18.11,36.28C84.68,89.2,81.57,97.92,75.66,103.29Z"/><path class="cls-1" d="M62.09,49.83c-3.76-3.35-7.93-6.41-12-9.37l-.19-.13q-2.09-1.53-4.11-3A1.39,1.39,0,0,0,45,37a1.43,1.43,0,0,0-1,.42c-2.5,2.51-5.55,4.15-8.78,5.88a61,61,0,0,0-5.93,3.49c-7.6,5.29-13.31,10.77-16.51,20.32a40.08,40.08,0,0,0-2,17.16c1,8.6,6.44,13.48,12,17.74,4.46,3.44,11.25,5.42,18.63,5.42a37.47,37.47,0,0,0,5.55-.41l1.31-.19c7.42-1.1,14.42-2.14,21-8.14,5-4.53,7.62-11.79,7.21-19.92C75.93,67.62,71.08,57.88,62.09,49.83Zm5.26,46.73c-6,5.43-12.26,6.36-19.53,7.43l-1.32.2a34.28,34.28,0,0,1-5.12.37c-6.66,0-13-1.8-16.88-4.82-6.31-4.87-10.11-9-10.87-15.79A37.07,37.07,0,0,1,15.45,68c3-8.83,8.09-13.77,15.43-18.88a57.68,57.68,0,0,1,5.64-3.31,47.32,47.32,0,0,0,7.89-4.95l.68-.56.71.52,2.6,1.91c4,2.93,8.12,6,11.78,9.22C68.7,59.6,73.1,68.41,73.63,78.91,74,86.18,71.71,92.61,67.35,96.56Z"/><path class="cls-1" d="M21.28,71.07a2,2,0,0,0,2.54-1l.22-.48A1.94,1.94,0,0,0,23.09,67a1.91,1.91,0,0,0-.81-.18,1.93,1.93,0,0,0-.67.12,1.9,1.9,0,0,0-1.08,1l-.26.56a2,2,0,0,0,1,2.55Z"/><path class="cls-1" d="M30.54,76.24a1.85,1.85,0,0,0,1.42.37h0l.51-.06a1.94,1.94,0,0,0,1.7-2.14,1.94,1.94,0,0,0-.72-1.3,1.93,1.93,0,0,0-1.2-.42h-.21l-.63.08a1.93,1.93,0,0,0-.88,3.46Z"/><path class="cls-1" d="M35.63,65.49h-.21l-.63.08a1.93,1.93,0,1,0,.55,3.83l.5-.06a1.94,1.94,0,0,0,1.71-2.14,1.94,1.94,0,0,0-.72-1.3A1.93,1.93,0,0,0,35.63,65.49Z"/><path class="cls-1" d="M35.19,57.79l.46-.26a2,2,0,0,0,.91-1.17,1.93,1.93,0,0,0-.18-1.47A2,2,0,0,0,35.21,54a1.86,1.86,0,0,0-.52-.07,2,2,0,0,0-.95.25l-.53.31a2,2,0,0,0-.67,2.65A2,2,0,0,0,35.19,57.79Z"/><path class="cls-1" d="M22.16,77.92v-.35a2,2,0,0,0-.55-1.39,1.94,1.94,0,0,0-3.32,1.29v.39a1.72,1.72,0,0,0,1.93,1.6,2,2,0,0,0,1.52-.55A1.52,1.52,0,0,0,22.16,77.92Z"/><path class="cls-1" d="M24.14,85.24h0a1.9,1.9,0,0,0-1.65-.93,1.84,1.84,0,0,0-1,.28,2,2,0,0,0-.88,1.19,1.91,1.91,0,0,0,.23,1.46c.11.18.22.36.34.54a2,2,0,0,0,2.67.56,1.91,1.91,0,0,0,.84-1.23,2,2,0,0,0-.28-1.45Z"/><path class="cls-1" d="M30.39,91.2h0l-.45-.27a1.87,1.87,0,0,0-1-.3,2.12,2.12,0,0,0-.44.05,1.94,1.94,0,0,0-.6,3.52l.52.32a2,2,0,0,0,2.65-.67,1.87,1.87,0,0,0,.22-1.46A2,2,0,0,0,30.39,91.2Z"/><path class="cls-1" d="M28.5,63.15l.38-.39A1.93,1.93,0,1,0,26.14,60l-.41.42a1.92,1.92,0,0,0-.55,1.38,2,2,0,0,0,.59,1.36A2,2,0,0,0,28.5,63.15Z"/><path class="cls-1" d="M37.14,82a1.91,1.91,0,0,0,.41-1.42,1.94,1.94,0,0,0-.72-1.3,1.93,1.93,0,0,0-1.2-.42h-.21l-.63.08a1.93,1.93,0,1,0,.55,3.83c.18,0,.34-.05.51-.06A1.94,1.94,0,0,0,37.14,82Z"/><path class="cls-1" d="M57.38,61.57l0,0a2,2,0,0,0,2.72.27,1.93,1.93,0,0,0,.27-2.72L60,58.7A1.91,1.91,0,0,0,58.7,58a1.94,1.94,0,0,0-1.63,3.18Z"/><path class="cls-1" d="M57.12,73.11a2,2,0,0,0-1.2-.42H55.7l-.62.08a1.94,1.94,0,0,0-.88,3.47,1.85,1.85,0,0,0,1.42.36h0l.51-.06a1.9,1.9,0,0,0,1.29-.72,1.92,1.92,0,0,0,.42-1.42A2,2,0,0,0,57.12,73.11Z"/><path class="cls-1" d="M50.7,56h0l.44.23a2,2,0,0,0,2.62-.8A1.93,1.93,0,0,0,53,52.8c-.19-.11-.38-.2-.57-.29a1.92,1.92,0,0,0-.84-.2A2,2,0,0,0,49.8,53.4a1.92,1.92,0,0,0-.08,1.47A1.85,1.85,0,0,0,50.7,56Z"/><path class="cls-1" d="M61.77,68.9A2,2,0,0,0,64.29,70a1.93,1.93,0,0,0,1.07-2.52c-.07-.18-.15-.37-.23-.55a2,2,0,0,0-2.53-1,1.93,1.93,0,0,0-1,2.53Z"/><path class="cls-1" d="M49.61,69.23a1.94,1.94,0,0,0,1.44.36h0l.5-.06a1.94,1.94,0,0,0,1.71-2.14,2,2,0,0,0-.72-1.3,2,2,0,0,0-1.2-.42h-.22l-.62.08a1.94,1.94,0,0,0-.89,3.47Z"/><path class="cls-1" d="M41.52,54.52a1.86,1.86,0,0,0,1.42.36h0l.51-.06a1.92,1.92,0,0,0,1.71-2.14,1.94,1.94,0,0,0-.72-1.29,1.9,1.9,0,0,0-1.2-.43L43,51l-.62.08a1.91,1.91,0,0,0-1.27.75,1.88,1.88,0,0,0-.37,1.43A1.93,1.93,0,0,0,41.52,54.52Z"/><path class="cls-1" d="M45,73.12a1.92,1.92,0,0,0-1.2-.43h-.22l-.62.08a2,2,0,0,0-1.28.76,1.93,1.93,0,0,0,1.82,3.07l.51-.06a1.9,1.9,0,0,0,1.29-.72,1.93,1.93,0,0,0-.3-2.71Z"/><path class="cls-1" d="M45,61.25a1.92,1.92,0,0,0-1.2-.43l-.22,0-.62.08a1.93,1.93,0,0,0-1.65,2.18,2,2,0,0,0,.76,1.28,1.92,1.92,0,0,0,1.43.37l.51-.07A1.93,1.93,0,0,0,45.33,64a1.94,1.94,0,0,0-.3-2.72Z"/><path class="cls-1" d="M38.24,94.21l-.52-.11a1.58,1.58,0,0,0-.43,0,1.93,1.93,0,0,0-1.88,1.51A2,2,0,0,0,35.66,97a2,2,0,0,0,1.21.85l.6.13a1.94,1.94,0,0,0,2-3A1.91,1.91,0,0,0,38.24,94.21Z"/><path class="cls-1" d="M48,94.76a1.93,1.93,0,0,0-1.11-.36,1.84,1.84,0,0,0-.33,0l-.51.08a1.93,1.93,0,0,0-1.64,2.19,1.94,1.94,0,0,0,2.18,1.64l.62-.1a1.91,1.91,0,0,0,1.25-.78,1.93,1.93,0,0,0-.46-2.7Z"/><path class="cls-1" d="M55.77,91.23a2,2,0,0,0-.43,0,1.9,1.9,0,0,0-1,.3l-.44.27A1.93,1.93,0,0,0,53,93a1.87,1.87,0,0,0,.22,1.46,2,2,0,0,0,2.65.67l.52-.32a2,2,0,0,0,.86-1.22A1.9,1.9,0,0,0,57,92.09,1.94,1.94,0,0,0,55.77,91.23Z"/><path class="cls-1" d="M65.2,74.58H65a1.9,1.9,0,0,0-1.17.4,1.94,1.94,0,0,0-.73,1.3c0,.16,0,.31-.07.46a2.56,2.56,0,0,0,0,.39v.08l0,.12a1.88,1.88,0,0,0-.13.41l-.11.54a1.94,1.94,0,0,0,1.48,2.3,1.84,1.84,0,0,0,.41,0,2,2,0,0,0,1.89-1.52l.12-.59a2.09,2.09,0,0,0,0-.43V78l0-.13a2.69,2.69,0,0,0,.14-.47,6.57,6.57,0,0,0,.09-.66A1.94,1.94,0,0,0,65.2,74.58Z"/><path class="cls-1" d="M53.26,80.77a2,2,0,0,0-.72-1.3,2,2,0,0,0-1.2-.42h-.22l-.62.08a1.89,1.89,0,0,0-1.27.76A1.93,1.93,0,0,0,51.05,83l.5-.06a2,2,0,0,0,1.3-.72A2,2,0,0,0,53.26,80.77Z"/><path class="cls-1" d="M62.57,85a2,2,0,0,0-1-.27,2,2,0,0,0-1.67,1l-.27.45a1.93,1.93,0,0,0,.62,2.66,2,2,0,0,0,2.66-.61c.11-.18.22-.35.32-.53a1.91,1.91,0,0,0,.21-1.46A1.94,1.94,0,0,0,62.57,85Z"/><path class="cls-1" d="M45.74,85.08A1.89,1.89,0,0,0,45,83.79a1.92,1.92,0,0,0-1.2-.43l-.22,0-.62.07a2,2,0,0,0-1.28.76,1.93,1.93,0,0,0,1.82,3.07l.51-.06a1.93,1.93,0,0,0,1.29-.71A1.9,1.9,0,0,0,45.74,85.08Z"/></g></g></svg>