<svg xmlns="http://www.w3.org/2000/svg" viewBox="0 0 86.64 116.48"><defs><style>.cls-1{fill:none;}.cls-2{fill:#455e2b;}</style></defs><g id="Capa_2" data-name="Capa 2"><g id="Icons"><path class="cls-1" d="M5.41,85.82c.87,7.72,4.95,13.71,13.64,20.05,4.56,3.32,13.08,5.47,21.69,5.47A41.67,41.67,0,0,0,47,111l1.79-.23c9.42-1.4,17.52-2.59,25-9.4,5.35-4.84,8.15-12.83,7.69-21.91C80.77,66,75.11,54.65,64.16,44.84c-2.86-2.56-6.1-5-9.23-7.26-2.84-2.09-5.72-4.22-8.48-6.56a13.4,13.4,0,0,1-3.64-5.66c-1.92,6.84-7.74,10.78-12.93,14.3L27.6,41.21c-9.46,6.6-16.08,12.95-19.86,24.21A47.75,47.75,0,0,0,5.41,85.82ZM9.82,66.13C13.27,55.84,19.35,50,27.41,44.37a61.68,61.68,0,0,1,6.19-3.64c3.1-1.67,6-3.22,8.23-5.46a4.14,4.14,0,0,1,5.39-.38c1.29,1,2.6,1.93,3.92,2.9l.34.25c4.12,3,8.37,6.13,12.24,9.59,9.59,8.58,14.75,19,15.36,30.92.45,9-2.51,17-8.12,22.13-7.25,6.58-14.67,7.68-22.54,8.84l-1.31.2a40.24,40.24,0,0,1-6,.43c-8,0-15.41-2.19-20.35-6-6-4.63-11.95-10-13-19.63A43.24,43.24,0,0,1,9.82,66.13Z"/><path class="cls-1" d="M25.82,97.63c3.48,2.68,9.21,4.29,15.32,4.29a31.65,31.65,0,0,0,4.74-.35l1.33-.2c7.16-1.06,12.82-1.89,18.22-6.79,3.77-3.43,5.75-9.12,5.42-15.61-.49-9.8-4.62-18-12.62-25.2-3.57-3.19-7.66-6.19-11.6-9.08l-1.69-1.24A54.12,54.12,0,0,1,37.57,48l0,0a53.92,53.92,0,0,0-5.41,3.16C25.21,56,20.37,60.58,17.63,68.75a34.86,34.86,0,0,0-1.7,14.84C16.59,89.49,19.92,93.07,25.82,97.63Zm-1.66-8.37a3,3,0,0,1-1.68.5,3.08,3.08,0,0,1-2.59-1.39l-.36-.57a3.09,3.09,0,0,1,5.28-3.21h0l.24.39A3.09,3.09,0,0,1,24.16,89.26Zm7.59,5.17a3.11,3.11,0,0,1-2.65,1.5,3,3,0,0,1-1.58-.44L27,95.16a3.09,3.09,0,1,1,3.28-5.23l.43.26a3.09,3.09,0,0,1,1.06,4.24ZM29,72.75a3.06,3.06,0,0,1,2-1.21l.65-.08a3,3,0,0,1,2.27.66A3,3,0,0,1,35,74.18a3.09,3.09,0,0,1-2.72,3.42l-.48.06A3.08,3.08,0,0,1,28.36,75,3,3,0,0,1,29,72.75Zm2.79,8.49a3.09,3.09,0,0,1,2.62-3.49l.66-.08a3,3,0,0,1,2.27.65,3.08,3.08,0,0,1-1.58,5.48l-.48.06a3.25,3.25,0,0,1-.44,0A3.1,3.1,0,0,1,31.74,81.24Zm8.89,15.47a3.11,3.11,0,0,1-3,2.47,3.23,3.23,0,0,1-.61-.06L36.36,99A3.1,3.1,0,0,1,34,95.3a3.06,3.06,0,0,1,1.36-1.93,3,3,0,0,1,2.33-.4l.5.1A3.1,3.1,0,0,1,40.63,96.71Zm-.66-11a3,3,0,0,1,.59-2.28,3.08,3.08,0,0,1,2-1.21l.66-.08a3.05,3.05,0,0,1,2.27.65,3.09,3.09,0,0,1,1.14,2.07,3.09,3.09,0,0,1-2.73,3.41l-.47.06a2.18,2.18,0,0,1-.44,0A3.1,3.1,0,0,1,40,85.75Zm.59-13a3.08,3.08,0,0,1,2-1.21l.66-.08a3.09,3.09,0,0,1,.69,6.14l-.48.06a3.25,3.25,0,0,1-.44,0A3.1,3.1,0,0,1,40,75,3,3,0,0,1,40.56,72.75Zm16.26,23-.55.34a3.06,3.06,0,0,1-1.58.44A3.14,3.14,0,0,1,52,95a3.09,3.09,0,0,1-.34-2.34,3,3,0,0,1,1.41-1.89l.42-.26a3.06,3.06,0,0,1,2.32-.41,3,3,0,0,1,1.93,1.36A3.08,3.08,0,0,1,56.82,95.71Zm-1.65-18A3.09,3.09,0,0,1,52.12,75a3.05,3.05,0,0,1,.58-2.28,3.11,3.11,0,0,1,2-1.21l.65-.08a3.09,3.09,0,0,1,3.41,2.72,3.09,3.09,0,0,1-2.72,3.42l-.48.06A3.11,3.11,0,0,1,55.17,77.69Zm8.92,10.46-.33.55a3.08,3.08,0,0,1-2.62,1.46,3.18,3.18,0,0,1-1.64-.47,3.09,3.09,0,0,1-1.37-1.92,3,3,0,0,1,.39-2.33l.26-.43A3.09,3.09,0,0,1,63,83.93h0A3.09,3.09,0,0,1,64.09,88.15Zm3.8-11.37c0,.25-.06.49-.11.73a2.73,2.73,0,0,1-.15.56,2.78,2.78,0,0,1-.06.58c0,.2-.08.4-.13.6a3.09,3.09,0,0,1-3,2.43,2.84,2.84,0,0,1-.66-.07,3.07,3.07,0,0,1-1.94-1.34,3.13,3.13,0,0,1-.42-2.33l.11-.52a2.54,2.54,0,0,1,.14-.47,2.81,2.81,0,0,1,0-.5,2.57,2.57,0,0,0,.06-.4h0A3.08,3.08,0,0,1,62.93,74a3,3,0,0,1,2.27-.63A3.08,3.08,0,0,1,67.89,76.78ZM64.37,64.66a3.07,3.07,0,0,1,1.68,1.66l.24.58a3.07,3.07,0,0,1,0,2.36,3.13,3.13,0,0,1-2.84,1.88,3.07,3.07,0,0,1-2.86-1.94l-.2-.48a3.09,3.09,0,0,1,4-4.06Zm-8-7.22a3.06,3.06,0,0,1,2.25-.72,3,3,0,0,1,2.1,1.08l.4.47a3.09,3.09,0,1,1-4.77,3.92L56,61.8a3.11,3.11,0,0,1,.35-4.36Zm-7.81-4.73a3.11,3.11,0,0,1,4.13-1.43l.61.31a3.1,3.1,0,0,1,1.5,1.83,3.06,3.06,0,0,1-.23,2.35A3.07,3.07,0,0,1,50.4,57l-.4-.21a3.08,3.08,0,0,1-1.43-4.12Zm1.57,11.78.65-.08a3.09,3.09,0,0,1,2.76,5,3.08,3.08,0,0,1-2.07,1.15l-.48.06a3.09,3.09,0,0,1-.86-6.12Zm0,13.44.65-.08a3.11,3.11,0,0,1,2.27.65A3.08,3.08,0,0,1,51.48,84L51,84a3.09,3.09,0,0,1-.86-6.11ZM48.47,93.82a3.08,3.08,0,0,1,1.26,2,3.1,3.1,0,0,1-2.53,3.56l-.65.1a3.08,3.08,0,0,1-3.48-2.62,3.07,3.07,0,0,1,2.62-3.49l.48-.08A3,3,0,0,1,48.47,93.82ZM46.66,62.27a3.09,3.09,0,0,1-2.72,3.41l-.48.06a3.25,3.25,0,0,1-.44,0A3.1,3.1,0,0,1,40,63.12a3.09,3.09,0,0,1,2.62-3.49l.66-.09h0a3.09,3.09,0,0,1,3.41,2.73ZM40,50.93a3.08,3.08,0,0,1,2-1.21l.66-.08a3.05,3.05,0,0,1,2.27.65,3.09,3.09,0,0,1,1.14,2.07,3,3,0,0,1-.66,2.27,3,3,0,0,1-2.07,1.14l-.47.06a3.27,3.27,0,0,1-.44,0,3.11,3.11,0,0,1-3-2.66A3,3,0,0,1,40,50.93ZM38.43,67a3.09,3.09,0,0,1-2.72,3.42l-.48.06a3.25,3.25,0,0,1-.44,0,3.1,3.1,0,0,1-3.05-2.66,3.06,3.06,0,0,1,.59-2.28,3.11,3.11,0,0,1,2-1.21l.66-.08A3.09,3.09,0,0,1,38.43,67ZM32.35,53.3,32.9,53a3.1,3.1,0,0,1,4.21,1.16A3.09,3.09,0,0,1,36,58.35l-.44.25a3,3,0,0,1-1.58.44,3.09,3.09,0,0,1-1.58-5.74ZM24.6,59.49l.43-.43a3.06,3.06,0,0,1,2.18-.91h0a3.09,3.09,0,0,1,3.09,3.08,3.09,3.09,0,0,1-.9,2.19l-.37.37a3.08,3.08,0,0,1-5.3-2.1A3.12,3.12,0,0,1,24.6,59.49Zm-5.71,8.45.27-.58a3.08,3.08,0,1,1,5.6,2.58l-.21.46a3.07,3.07,0,0,1-2.83,1.86A3.12,3.12,0,0,1,20.49,72h0A3.09,3.09,0,0,1,18.89,67.94Zm-2.08,9.42a3,3,0,0,1,3.1-3h0a3,3,0,0,1,2.17.94A3.07,3.07,0,0,1,23,77.5v.2h0a2.62,2.62,0,0,1-.76,1.93,3.15,3.15,0,0,1-2.28.89h-.05a2.82,2.82,0,0,1-3.08-2.73Z"/><path class="cls-2" d="M2.87,63.77A52.89,52.89,0,0,0,.3,86.37C1.63,98.15,9.4,105.2,16,110c5.39,3.93,15.09,6.46,24.72,6.46a47.92,47.92,0,0,0,7-.43l1.8-.21c9.75-1.44,19-2.81,27.69-10.68,6.49-5.89,9.9-15.37,9.37-26-.74-14.7-7.14-27.53-19-38.16-3-2.71-6.36-5.17-9.58-7.55-2.66-2-5.59-4.13-8.22-6.35-1.65-1.4-2.58-4.59-3.66-8.27C44.06,11.77,41.49,3,31.88.05a1,1,0,0,0-.3,0A1,1,0,0,0,31,1.85c5.26,3.82,8.18,14.27,7.18,20.7-.91,5.9-5.9,9.28-11.17,12.85h0c-.77.52-1.55,1-2.33,1.58C14.34,44.19,7.09,51.18,2.87,63.77ZM28.14,37.09c5.66-3.83,11-7.45,12-14.22a23,23,0,0,0,0-5.89l3-.64c.31,1,.6,2,.89,2.93,1.2,4.14,2.21,7.6,4.33,9.39C51.13,30.93,54,33,56.72,35.05c3.24,2.39,6.54,4.83,9.5,7.48,11.61,10.39,17.6,22.4,18.33,36.73.5,10-2.67,18.89-8.7,24.37-8.2,7.43-16.72,8.69-26.59,10.16l-1.87.24a44.36,44.36,0,0,1-6.65.41c-9.23,0-18.46-2.38-23.52-6.07C7.76,101.48,3.31,94.84,2.33,86.17A50.82,50.82,0,0,1,4.81,64.43c4-12.07,11-18.8,21-25.76C26.6,38.13,27.38,37.61,28.14,37.09Z"/><polygon class="cls-2" points="26.13 34.12 26.13 34.12 26.13 34.12 26.13 34.12"/><path class="cls-2" d="M22.68,101.7c4.41,3.4,11.14,5.35,18.46,5.35a36.84,36.84,0,0,0,5.51-.4l1.32-.19c7.38-1.1,14.36-2.13,20.91-8.08,4.92-4.46,7.51-11.63,7.1-19.67C75.42,67.63,70.6,58,61.66,49.94c-3.77-3.36-8-6.43-12-9.4l-.34-.25c-1.33-1-2.66-1.95-4-2.92a1,1,0,0,0-.62-.21,1,1,0,0,0-.72.3c-2.55,2.56-5.64,4.22-8.91,6a61.44,61.44,0,0,0-5.93,3.49c-7.56,5.26-13.24,10.72-16.42,20.19a40.11,40.11,0,0,0-1.94,17.06C11.78,92.64,17.21,97.47,22.68,101.7Zm-8-33.94c3-9,8.23-14,15.66-19.17a55.43,55.43,0,0,1,5.72-3.35l0,0a45.8,45.8,0,0,0,7.81-4.91l.94-.77,3.59,2.64c4,3,8.17,6,11.86,9.28,8.64,7.74,13.11,16.69,13.64,27.35.38,7.43-2,14-6.43,18.06-6.1,5.53-12.47,6.48-19.84,7.57l-1.33.2a35.07,35.07,0,0,1-5.2.37c-6.78,0-13.21-1.84-17.21-4.93-6.42-5-10.3-9.18-11.08-16.14A38.06,38.06,0,0,1,14.69,67.76Z"/><path class="cls-2" d="M23.92,85.12a2.05,2.05,0,0,0-2.82-.68,2.07,2.07,0,0,0-.69,2.82c.11.18.23.36.35.54a2.09,2.09,0,0,0,2.84.59,2,2,0,0,0,.88-1.3,2,2,0,0,0-.29-1.54Z"/><path class="cls-2" d="M22,77.49A2.08,2.08,0,0,0,21.36,76a2,2,0,0,0-1.44-.63h0a2,2,0,0,0-2.07,2v.24l-.52.17h.52a1.83,1.83,0,0,0,2.05,1.71h.05a2.16,2.16,0,0,0,1.55-.57A1.7,1.7,0,0,0,22,77.71Z"/><path class="cls-2" d="M30.16,91.08h0l-.45-.27a2,2,0,0,0-1.09-.32,2.4,2.4,0,0,0-.46.05,2.05,2.05,0,0,0-.63,3.74l.52.32a2.1,2.1,0,0,0,2.81-.7,2.06,2.06,0,0,0-.7-2.82Z"/><path class="cls-2" d="M35.59,82.77a2.06,2.06,0,0,0,1.82-2.26,2.08,2.08,0,0,0-.77-1.38,2,2,0,0,0-1.27-.45h-.23l-.63.08a2,2,0,0,0-1.35.8,2.05,2.05,0,0,0,1.93,3.27Z"/><path class="cls-2" d="M20.9,71.06A2.1,2.1,0,0,0,23.61,70l.21-.48a2.05,2.05,0,1,0-3.73-1.72c-.08.19-.17.37-.25.56A2.07,2.07,0,0,0,20.9,71.06Z"/><path class="cls-2" d="M42.73,54.81l.5-.06a2.06,2.06,0,0,0-.22-4.1l-.24,0-.62.08a2,2,0,0,0-1.36.8,2.09,2.09,0,0,0-.39,1.52A2,2,0,0,0,42.73,54.81Z"/><path class="cls-2" d="M43.36,60.57l-.62.08a2,2,0,0,0-1.36.8,2.06,2.06,0,0,0,1.94,3.27l.5-.07a2,2,0,0,0,1.81-2.27,2.06,2.06,0,0,0-2.27-1.81Z"/><path class="cls-2" d="M38,94.08,37.49,94a2.3,2.3,0,0,0-.45,0A2.06,2.06,0,0,0,36.59,98l.6.13a2.09,2.09,0,0,0,2.42-1.6A2.06,2.06,0,0,0,38,94.08Z"/><path class="cls-2" d="M45.63,85a2,2,0,0,0-.76-1.38,2.05,2.05,0,0,0-1.27-.45l-.24,0-.62.08a2,2,0,0,0-1.36.8,2.05,2.05,0,0,0,1.94,3.26l.5-.06A2,2,0,0,0,45.63,85Z"/><path class="cls-2" d="M50.86,69.58l.51-.06a2.06,2.06,0,0,0,1.81-2.27,2,2,0,0,0-.76-1.38,2.08,2.08,0,0,0-1.28-.45l-.23,0-.63.08a2.05,2.05,0,1,0,.58,4.06Z"/><path class="cls-2" d="M50.86,83l.51-.07a2.05,2.05,0,0,0,1.37-.75,2.05,2.05,0,0,0-.32-2.89,2.08,2.08,0,0,0-1.28-.45h-.23l-.63.08A2.06,2.06,0,0,0,50.86,83Z"/><path class="cls-2" d="M31.7,76.63l.51-.06a2.06,2.06,0,0,0-.23-4.1l-.23,0-.63.08a2.05,2.05,0,0,0-1.74,2.32A2,2,0,0,0,31.7,76.63Z"/><path class="cls-2" d="M35.37,65.24l-.23,0-.63.08a2,2,0,0,0-1.35.8,2,2,0,0,0,1.93,3.26l.5-.06A2,2,0,0,0,37,68.58a2.07,2.07,0,0,0,.44-1.51,2.1,2.1,0,0,0-.77-1.38A2,2,0,0,0,35.37,65.24Z"/><path class="cls-2" d="M28.29,63.08l.38-.39a2.06,2.06,0,0,0-1.46-3.51h0a2.08,2.08,0,0,0-1.45.61l-.35.35a2.13,2.13,0,0,0-.65,1.54,2.06,2.06,0,0,0,.62,1.44A2.12,2.12,0,0,0,28.29,63.08Z"/><path class="cls-2" d="M35,57.72l.46-.27a2,2,0,0,0,1-1.24,2,2,0,0,0-.19-1.56,2,2,0,0,0-1.24-1,2.09,2.09,0,0,0-.55-.08,2,2,0,0,0-1,.27l-.53.31A2.06,2.06,0,0,0,32.17,57,2.12,2.12,0,0,0,35,57.72Z"/><path class="cls-2" d="M44.09,96.71a2.05,2.05,0,0,0,2.32,1.74c.21,0,.41-.06.62-.09a2.06,2.06,0,0,0-.34-4.08,2.07,2.07,0,0,0-.35,0l-.51.08a2,2,0,0,0-1.35.8A2,2,0,0,0,44.09,96.71Z"/><path class="cls-2" d="M62.48,84.82a2,2,0,0,0-1-.29,2.07,2.07,0,0,0-1.78,1l-.27.44a2,2,0,0,0-.25,1.55,2,2,0,0,0,.91,1.28,2.1,2.1,0,0,0,2.83-.65l.32-.53A2.05,2.05,0,0,0,62.48,84.82Z"/><path class="cls-2" d="M63.57,74.79a2,2,0,0,0-.78,1.38c0,.15,0,.3-.07.46a2.8,2.8,0,0,0,0,.4v.11l0,.1a2.52,2.52,0,0,0-.12.39l-.11.53a2.06,2.06,0,0,0,.28,1.55A2,2,0,0,0,64,80.6,2.09,2.09,0,0,0,66.44,79l.12-.58a2.49,2.49,0,0,0,0-.47v-.11l0-.1a2.23,2.23,0,0,0,.13-.44c0-.22.07-.45.09-.67a2.05,2.05,0,0,0-1.79-2.29A2,2,0,0,0,63.57,74.79Z"/><path class="cls-2" d="M55.62,91.1a2.3,2.3,0,0,0-.45,0,2,2,0,0,0-1.1.32h0l-.43.27a2.05,2.05,0,0,0-.71,2.82,2.11,2.11,0,0,0,2.82.71l.53-.33a2.06,2.06,0,0,0-.65-3.74Z"/><path class="cls-2" d="M50.45,55.9h0l.44.22a2.1,2.1,0,0,0,2.78-.85,2.06,2.06,0,0,0,.15-1.56,2,2,0,0,0-1-1.21c-.19-.11-.38-.2-.57-.3a2.08,2.08,0,0,0-2.75.95,2,2,0,0,0-.09,1.57A2,2,0,0,0,50.45,55.9Z"/><path class="cls-2" d="M43.32,76.63l.5-.06a2,2,0,0,0,1.81-2.27,2.06,2.06,0,0,0-2-1.83l-.24,0-.62.08a2,2,0,0,0-1.36.8,2.05,2.05,0,0,0,1.94,3.26Z"/><path class="cls-2" d="M61.32,68.32l.2.5A2.09,2.09,0,0,0,64.19,70a2.07,2.07,0,0,0,1.14-2.68l-.23-.55a2,2,0,0,0-1.89-1.26,2,2,0,0,0-.8.16,2,2,0,0,0-1.11,1.12,2.08,2.08,0,0,0,0,1.57Z"/><path class="cls-2" d="M57.78,74.3a2.06,2.06,0,0,0-2-1.83l-.23,0-.63.08a2.05,2.05,0,0,0-1.74,2.32,2,2,0,0,0,2.32,1.74l.51-.06A2.07,2.07,0,0,0,57.78,74.3Z"/><path class="cls-2" d="M57.16,61.54a2.12,2.12,0,0,0,2.89.28,2.05,2.05,0,0,0,.28-2.89L60,58.47a2,2,0,0,0-1.4-.72h-.17a2,2,0,0,0-2,1.89,2,2,0,0,0,.48,1.49Z"/></g></g></svg>