<svg xmlns="http://www.w3.org/2000/svg" viewBox="0 0 99.34 107.21"><defs><style>.cls-1{fill:#2e213c;}</style></defs><g id="Capa_2" data-name="Capa 2"><g id="Icons"><path class="cls-1" d="M97.88,74.89a6.14,6.14,0,0,1-1.26-.32,8.21,8.21,0,0,0-2-.46c-13.4-.84-23.44-8.37-32.29-16.38C54.84,51,51.47,43.24,48.76,37c-1.95-4.45-3.49-8-6-9.63C39,25,37.26,23.07,37.14,18.79a23.46,23.46,0,0,1,.44-3.73c.49-3.07,1-6.22-.16-8.12l-.32-.41,0-.63a2.26,2.26,0,0,0,0-.45,5.35,5.35,0,0,0-4-5.09A8,8,0,0,0,30.7,0C28.33,0,25.14,1.05,24,4a21.3,21.3,0,0,0-1.1,5.88c-.26,2.81-.5,5.45-2.23,7.33a24.2,24.2,0,0,1-6.3,4.47C5.27,26.52.73,33.87.08,44.81c-.54,9,1.68,16.81,5.18,25.82,4.54,11.7,14.87,23.7,27,31.31a36.47,36.47,0,0,0,8.14,3.85c6.15,2,12.63,1.89,16.74-.21A7.38,7.38,0,0,0,61,101.36a8.33,8.33,0,0,0-1-7.43l-1.94-3,3.38,1q12,3.67,21.8,1.38c3.21-.76,11-3.13,14.5-8.84a10.91,10.91,0,0,0,1.56-4.85,12.22,12.22,0,0,0-.37-3.92A1.19,1.19,0,0,0,97.88,74.89ZM59.07,98.48l0,1.57-1.54-.29A43.28,43.28,0,0,1,37.23,89.51a1.22,1.22,0,0,0-1.68.08,1.15,1.15,0,0,0-.3.83,1.17,1.17,0,0,0,.4.81,46.56,46.56,0,0,0,16.65,9.59c.87.28,1.68.51,2.42.7l4,1L54.84,104a16.57,16.57,0,0,1-5.64.89,26.49,26.49,0,0,1-8.11-1.35,33.66,33.66,0,0,1-7.6-3.55C21.8,92.58,11.83,81,7.48,69.82c-3.39-8.73-5.54-16.3-5-24.85.61-10.2,4.64-16.76,13-21.25a26.51,26.51,0,0,0,6.93-4.94c2.24-2.45,2.53-5.61,2.81-8.67a19.29,19.29,0,0,1,1-5.25c.92-2.34,4.18-2.94,6.21-2.28a3,3,0,0,1,2.32,2.81v.18l0,.18A12.75,12.75,0,0,1,32.83,9c-.31.43-.56.79-.73,1.07a30.21,30.21,0,0,0-4.63,10.72c-1,4.83-.31,6.42,1.73,10.31,1.34,2.57,1.14,4.7.88,7.39-.06.64-.12,1.29-.16,2-.68,11,2.44,22.32,9.84,35.59,3.09,5.54,7.83,9.86,12.07,13.35l1.3,1C56.58,93.16,59,95.34,59.07,98.48ZM96,79.19A31.44,31.44,0,0,1,84.5,81.31a35.27,35.27,0,0,1-16.86-4.42,1.22,1.22,0,0,0-1.61.46,1.12,1.12,0,0,0-.09.88,1.15,1.15,0,0,0,.58.7,40.22,40.22,0,0,0,6.93,3,35.54,35.54,0,0,0,20.08.57l3.86-1-2.54,3.09c-2.4,2.93-6.84,5.34-12.18,6.6A32.39,32.39,0,0,1,75.3,92c-6.86,0-14.38-2-23-6a1.26,1.26,0,0,0-.51-.11V84.57h0l0,1.27h-.48l-.37-.33a40.7,40.7,0,0,1-9.08-10.6C34.67,62.06,31.63,51.16,32.29,40.6c0-.62.1-1.23.15-1.82.28-2.89.53-5.56-1.13-8.74-1.87-3.58-2.33-4.68-1.51-8.79a24.77,24.77,0,0,1,3.15-8l3.4-5.9-1.12,7.3a24.11,24.11,0,0,0-.46,4.15c.15,5.79,3.12,8.2,6.68,10.54,1.92,1.26,3.34,4.49,5.13,8.59,2.65,6.06,6.28,14.37,14.15,21.5,9.18,8.3,19.62,16.11,33.77,17a5.19,5.19,0,0,1,1.17.27l3.39,1.09Z"/><path class="cls-1" d="M16.68,48.13a1.2,1.2,0,0,0-1.19-1,1.25,1.25,0,0,0-.94.46,1.12,1.12,0,0,0-.23.85A78.75,78.75,0,0,0,20.72,71a1.18,1.18,0,0,0,.73.63,1.21,1.21,0,0,0,.86,0,1.18,1.18,0,0,0,.61-.65,1.19,1.19,0,0,0,0-.89A76.19,76.19,0,0,1,16.68,48.13Z"/><path class="cls-1" d="M26.31,76.4a1.22,1.22,0,0,0-1-.58,1.19,1.19,0,0,0-.61.17,1.15,1.15,0,0,0-.38,1.59c1,1.65,2.1,3.26,3.24,4.78a1.19,1.19,0,0,0,1.67.26,1.15,1.15,0,0,0,.46-.76,1.21,1.21,0,0,0-.22-.86C28.34,79.54,27.28,78,26.31,76.4Z"/><path class="cls-1" d="M59.73,75.64a1.09,1.09,0,0,0,.36.06,1.18,1.18,0,0,0,1-.57,1.15,1.15,0,0,0,.12-.87,1.22,1.22,0,0,0-.55-.73,50.72,50.72,0,0,1-8.15-6,1.25,1.25,0,0,0-.81-.3,1.14,1.14,0,0,0-.87.38,1.15,1.15,0,0,0-.3.83,1.17,1.17,0,0,0,.4.81,51.73,51.73,0,0,0,8.53,6.24A.8.8,0,0,0,59.73,75.64Z"/></g></g></svg>