<svg xmlns="http://www.w3.org/2000/svg" viewBox="0 0 107.62 102.88"><defs><style>.cls-1{fill:none;}.cls-2{fill:#455e2b;}</style></defs><g id="Capa_2" data-name="Capa 2"><g id="Icons"><polygon class="cls-1" points="60.12 54.35 60.12 54.35 60.12 54.35 60.12 54.35"/><path class="cls-1" d="M21.14,98.77a17,17,0,0,0,12.06-5L53.29,73.69c3-3,7.38-9.17,11.21-14.58,3.54-5,6.58-9.29,8.69-11.39L89,31.91a12.72,12.72,0,0,0,3-4.71,26.84,26.84,0,0,1-3.43,4.25L72.73,47.26c-1.82,1.82-5.26,6.13-8.58,10.3-4.24,5.32-9,11.31-12.35,14.65L31.71,92.3a3.09,3.09,0,0,1-4.37-4.37L47.43,67.84c3.12-3.12,7.78-9,11.89-14.13l.8.65-.77-.68c3.73-4.7,7-8.75,9-10.79L84.17,27.08a19.56,19.56,0,0,0,3.61-4.93,3.09,3.09,0,0,1,4.15-1.36,3.89,3.89,0,0,1,.69.49A12.75,12.75,0,0,0,71,13.87L55.15,29.69c-2.1,2.1-6.4,5.15-11.37,8.67-5.46,3.87-11.57,8.2-14.6,11.23L9.09,69.68A17,17,0,0,0,21.14,98.77ZM7,85.05a20.31,20.31,0,0,1,5.42-18.18L29.82,49.45c3-3,8.33-6.7,13.5-10.28a93.77,93.77,0,0,0,9.2-6.82L66.23,18.63a3.1,3.1,0,0,1,4.37,0,3.08,3.08,0,0,1,0,4.37L56.89,36.72c-1.87,1.87-5.66,4.49-10,7.53-4.73,3.28-10.06,7-12.65,9.56L16.76,71.24A14.12,14.12,0,0,0,13,83.9a3.09,3.09,0,0,1-2.47,3.61,2.69,2.69,0,0,1-.57.06A3.09,3.09,0,0,1,7,85.05Z"/><path class="cls-1" d="M93.93,10.1A30.31,30.31,0,0,1,98.1,6.35,40.91,40.91,0,0,0,93,9.1l.42.4Z"/><path class="cls-2" d="M11,84.28a16.21,16.21,0,0,1,4.29-14.5L32.73,52.35c2.72-2.72,8.13-6.47,12.9-9.77,4.34-3,8.06-5.59,9.79-7.32L69.14,21.54a1,1,0,0,0,.3-.72,1,1,0,0,0-.3-.73,1,1,0,0,0-.72-.3,1,1,0,0,0-.73.3L54,33.81c-1.62,1.61-5.44,4.26-9.48,7.06-5.1,3.53-10.36,7.18-13.22,10L13.85,68.33A18.24,18.24,0,0,0,9,84.66a1,1,0,0,0,1.18.82A1,1,0,0,0,11,84.28Z"/><path class="cls-2" d="M60.93,55c-4.14,5.2-8.84,11.1-12,14.3L28.8,89.39a1,1,0,0,0,0,1.44,1,1,0,0,0,1.45,0L50.34,70.75c3.26-3.26,8-9.2,12.17-14.44,3.54-4.45,6.85-8.61,8.76-10.51L87.08,30a23.48,23.48,0,0,0,4.37-6,1,1,0,0,0-1.23-1.43,1,1,0,0,0-.59.51,21.78,21.78,0,0,1-4,5.45L69.82,44.35c-2,2-5.16,6-8.86,10.61l-.84-.6h0Z"/><path class="cls-2" d="M21.14,102.88a21,21,0,0,0,15-6.19L56.19,76.6c3.28-3.27,7.52-9.26,11.62-15,3.32-4.69,6.42-9,8.29-10.92L91.91,34.82a17,17,0,0,0,3.36-19L95,15.24l.39-.49a25,25,0,0,1,11.5-8.49,1,1,0,0,0,.73-1.08L107.25.94a1,1,0,0,0-1-.94C106.16,0,98.53-.12,88,7.45l-.49.36L87,7.56A16.79,16.79,0,0,0,68.06,11L52.24,26.77c-1.86,1.87-6.24,5-10.87,8.26-5.83,4.13-11.82,8.37-15.09,11.65L6.19,66.77a21.15,21.15,0,0,0,15,36.11ZM90.67,8.12a36.1,36.1,0,0,1,13.52-5.85l1.1-.19.22,2.47-.7.29a27.75,27.75,0,0,0-10.11,7.5l-.8.94-.78-1c-.38-.46-.78-.91-1.21-1.35a16.36,16.36,0,0,0-1.32-1.18L89.5,8.9Zm-83,60.1L27.72,48.13c3.15-3.15,9.33-7.53,14.79-11.4,5-3.53,9.2-6.52,11.18-8.51L69.5,12.41a14.82,14.82,0,0,1,21,21L74.65,49.18c-2,2-5,6.2-8.44,11.09-3.9,5.51-8.3,11.71-11.46,14.88L34.66,95.24a19.11,19.11,0,0,1-27-27Z"/></g></g></svg>