<svg xmlns="http://www.w3.org/2000/svg" viewBox="0 0 101.06 101.12"><defs><style>.cls-1{fill:none;}.cls-2{fill:#455e2b;}</style></defs><g id="Capa_2" data-name="Capa 2"><g id="Icons"><path class="cls-1" d="M62.61,39.15a2.73,2.73,0,0,1,1.66.69c-.07-.86-.66-1.6-1.71-2.66a2.82,2.82,0,0,1,.21,1.09A2.86,2.86,0,0,1,62.61,39.15Z"/><path class="cls-1" d="M24.71,61.44A2.75,2.75,0,0,1,24,59.57a2.81,2.81,0,0,1,4.79-2,2.82,2.82,0,0,1,.81,1.76,2.87,2.87,0,0,1,2.54.67,2.75,2.75,0,0,1,.58-.88h0a2.83,2.83,0,0,1,1.42-.74l-.3-.53.51.18a2.74,2.74,0,0,1,2.87-2.73,2.82,2.82,0,0,1-.14-.86,2.87,2.87,0,0,1,.18-1,2.72,2.72,0,0,1-.7.14,2.78,2.78,0,0,1-1.84-.72,2.88,2.88,0,0,1,.73,1.84,2.78,2.78,0,0,1-.84,2,2.82,2.82,0,0,1-4,0,2.73,2.73,0,0,1-.86-2,2.84,2.84,0,0,1,.84-2,2.93,2.93,0,0,1,3.86-.11,2.85,2.85,0,0,1-.72-1.84,2.81,2.81,0,0,1,.85-2A2.68,2.68,0,0,1,36.26,48l-.11-.38c-3.25,1.81-7.09,4.77-12.1,10.5a15.06,15.06,0,0,0-1.95,2.75A2.84,2.84,0,0,1,24.71,61.44Z"/><path class="cls-1" d="M36.63,47.34l-.43.24.35.14C36.58,47.59,36.59,47.46,36.63,47.34Z"/><path class="cls-1" d="M59.55,41.91a2.8,2.8,0,0,1,.17-.86,2.8,2.8,0,0,1-1.67-.71l-.15.12-.06-.14a2.8,2.8,0,0,1-.63.12,2.68,2.68,0,0,1,1.39.68,2.89,2.89,0,0,1,.83,2A2.48,2.48,0,0,1,58,45.53a1.61,1.61,0,0,1,.28.17,2.85,2.85,0,0,1,.83,2c0,.07,0,.14,0,.21,1.12-1.28,2-2.35,2.73-3.28a2.8,2.8,0,0,1-1.44-.71A2.85,2.85,0,0,1,59.55,41.91Z"/><path class="cls-1" d="M41.7,46.94a2.48,2.48,0,0,1,.43-.64,2.88,2.88,0,0,1,4,0,2.64,2.64,0,0,1,.55.81A2.83,2.83,0,0,1,47,46.6a2.74,2.74,0,0,1,1.92-.79,3.21,3.21,0,0,1,2.06.78,2.72,2.72,0,0,1,.67,1.16,2.73,2.73,0,0,1,1.75-.69l0-.28.23.08a2.67,2.67,0,0,1,.74-1.21,2,2,0,0,1,.51-.31,1.9,1.9,0,0,1-.66-.82,2.45,2.45,0,0,1-.48.62,2.75,2.75,0,0,1-2,.81,3,3,0,0,1-2-.78,2.83,2.83,0,0,1-.86-2.05,2.78,2.78,0,0,1,.59-1.63A26.48,26.48,0,0,1,42.18,45c-.61.22-1.24.44-1.88.69a2.74,2.74,0,0,1,1,.59A2.86,2.86,0,0,1,41.7,46.94Z"/><path class="cls-1" d="M59,35.47l.08.17a2.94,2.94,0,0,1,1.81,0,2.85,2.85,0,0,0-1.75-.76,3.17,3.17,0,0,0-1,.23,2.74,2.74,0,0,1,.7.46Z"/><path class="cls-1" d="M53.74,41.11a2.77,2.77,0,0,1,.44.67,2.92,2.92,0,0,1,.44-.66,2.71,2.71,0,0,1,1.7-.74,2.8,2.8,0,0,1-1.42-.72,2.83,2.83,0,0,1-.8-2c-1,.78-2,1.65-3,2.56l-.33.27A3,3,0,0,1,53.74,41.11Z"/><path class="cls-1" d="M41.52,71.3a2.73,2.73,0,0,1-.63-1,2.83,2.83,0,0,1-.82,1.94,2.86,2.86,0,0,1-4,0,3,3,0,0,1-.8-2,2.8,2.8,0,0,1,.8-2,2.75,2.75,0,0,1,1.09-.62,2.83,2.83,0,0,1-2.83-2.86,2.81,2.81,0,0,1,.18-.85,2.79,2.79,0,0,1-1.74-.76,2.87,2.87,0,0,1-.59.9,3,3,0,0,1-2,.83,2.81,2.81,0,0,1-2-.88,2.7,2.7,0,0,1-.78-1.67,2.59,2.59,0,0,1-.54.11,2.81,2.81,0,0,1-1.89-.75,2.78,2.78,0,0,1,.66,1.47l.89-.46L26,63.5a2.69,2.69,0,0,1,1.57.77,2.84,2.84,0,0,1,.74,1.58h.2l-.05.2a2.81,2.81,0,0,1,1.22.61,3.05,3.05,0,0,1,.73,1.47,2.89,2.89,0,0,1,3.84.08h0a2.86,2.86,0,0,1,.85,2,2.9,2.9,0,0,1-.85,2,2.85,2.85,0,0,1-2,.83,2.89,2.89,0,0,1-2-.83,3,3,0,0,1-.71-1.41,2.85,2.85,0,0,1-1.84.73,2.8,2.8,0,0,1-1.4-.43c-.05.11-.14.19-.2.3a2.7,2.7,0,0,1,1.77.75,2.88,2.88,0,0,1,.86,2A2.83,2.83,0,0,1,25.87,77a2.86,2.86,0,0,1-2-.78,2.9,2.9,0,0,1-.85-2,2.76,2.76,0,0,1,.49-1.49,2.9,2.9,0,0,1-1.78-.78,2.85,2.85,0,0,1-.83-2,2.82,2.82,0,0,1,.84-2,2.53,2.53,0,0,1,1.18-.62,2.29,2.29,0,0,1-.12-.59l-.93.5.5-.93a2.86,2.86,0,0,1-1.55-.73c-.07-.07-.1-.17-.17-.25a21.6,21.6,0,0,0,.6,6.89,14,14,0,0,1,.42,5.3,7.87,7.87,0,0,1,1.38-.12,19.82,19.82,0,0,1,3.87.54c.71.14,1.45.28,2.21.4a2.72,2.72,0,0,1,.19-3.69l0,0a2.94,2.94,0,0,1,4,0,2.7,2.7,0,0,1,.2.31,3,3,0,0,1,.63-1.19l0,0a3,3,0,0,1,4,0,2.83,2.83,0,0,1,.63,3.08,16.23,16.23,0,0,0,2.22-1.64C42.32,74,43.43,73,44.48,71.94a2.73,2.73,0,0,1-3-.64Z"/><path class="cls-1" d="M45.87,65.36A2.48,2.48,0,0,1,47.31,63a2.64,2.64,0,0,1-1-.39A2.69,2.69,0,0,1,45.5,64a2.77,2.77,0,0,1-2,.84,2.92,2.92,0,0,1-2-.81l0,0a2.86,2.86,0,0,1,0-4,2.93,2.93,0,0,1,3.54-.3,2.79,2.79,0,0,1,.59-1.28,2.93,2.93,0,0,1-.29.05,2.73,2.73,0,0,1-2-.87,2.69,2.69,0,0,1-.81-2,2.81,2.81,0,0,1,.83-2,2.93,2.93,0,0,1,4,0,2.86,2.86,0,0,1,.84,2,2.9,2.9,0,0,1-.7,1.84,2.68,2.68,0,0,1,1.19.11,2.94,2.94,0,0,1-.37-1.31,2.8,2.8,0,0,1,2.79-2.81h0a2.84,2.84,0,0,1,2,.8,2.81,2.81,0,0,1,.83,2,2.82,2.82,0,0,1-2.83,2.83,2.8,2.8,0,0,1-.86-.17,2.7,2.7,0,0,1,.35,1.28,2.81,2.81,0,0,1-.83,2,2.68,2.68,0,0,1-.69.46,2.71,2.71,0,0,1,1.59.72h0a2.78,2.78,0,0,1,.35.54A34.16,34.16,0,0,0,54.15,57a28.48,28.48,0,0,1,3.05-6.64,2.85,2.85,0,0,1-.76.15l0,.29-.26-.1a2.57,2.57,0,0,1-.64,1.12,2.81,2.81,0,0,1-4,0,2.82,2.82,0,0,1-.66-1.15A2.79,2.79,0,0,1,47,50.6a2.44,2.44,0,0,1-.55-.78,3.82,3.82,0,0,1-.33.49,2.8,2.8,0,0,1-2,.82,2.9,2.9,0,0,1-2-.83,2.66,2.66,0,0,1-.42-.63,2.7,2.7,0,0,1-.43.63,2.88,2.88,0,0,1-1.74.78l.13.46-.42-.18a2.45,2.45,0,0,1-.08.37,2.94,2.94,0,0,1,.73-.13h0a2.74,2.74,0,0,1,2,.8,2.82,2.82,0,0,1,0,4,2.85,2.85,0,0,1-2,.83l-.08,0A2.73,2.73,0,0,1,40,58a2.78,2.78,0,0,1-.84,2,2.52,2.52,0,0,1-1.42.72l.34.61-.54-.2a3.07,3.07,0,0,1-.16.8,2.76,2.76,0,0,1,1.79.76,2.89,2.89,0,0,1,.83,2,2.8,2.8,0,0,1-.86,2,2.69,2.69,0,0,1-1.65.77,2.38,2.38,0,0,1,.59-.12h0a2.91,2.91,0,0,1,2,.8,3.22,3.22,0,0,1,.63,1,2.83,2.83,0,0,1,.82-1.94h0a2.89,2.89,0,0,1,4,0,2.77,2.77,0,0,1,.83,2,2.89,2.89,0,0,1-.18.91c.68-.73,1.31-1.44,1.89-2.15a2.8,2.8,0,0,1-1.36-.71A2.87,2.87,0,0,1,45.87,65.36Z"/><path class="cls-1" d="M34,77.38a2.75,2.75,0,0,1-.63,1.16,13.27,13.27,0,0,0,1.71-.26,2.85,2.85,0,0,1-.87-.59A3.37,3.37,0,0,1,34,77.38Z"/><path class="cls-1" d="M37.63,97a24.6,24.6,0,0,0,16.59-6.22c19.09-16.27,22-27,24.61-36.48,1.6-5.82,3.1-11.31,8-17,12.44-14.51,13-18.32,4.13-27.14C86.7,5.93,83.64,4.11,80.71,4.11c-4.23,0-9.41,3.74-16.94,10.19-5.67,4.86-11.17,6.37-17,8-9.47,2.59-20.21,5.53-36.48,24.61-9.34,11-6,22.72-3.55,31.31C8,82.58,9,86.05,8.35,89a3.11,3.11,0,0,0,.58,2.73A3.07,3.07,0,0,0,12,92.77a9.71,9.71,0,0,1,2.13-.23c2.49,0,5.41.83,8.79,1.79C27.33,95.59,32.32,97,37.63,97ZM16.88,81.26a5.38,5.38,0,0,1-.77-4.8h0a11.72,11.72,0,0,0-.39-3.16c-.93-4.62-2.33-11.61,4.07-18.92,9.43-10.78,15.56-12.95,20.5-14.69,2.66-.94,4.76-1.68,7-3.69,5.09-4.47,8.32-6.75,11.79-6.75,3.15,0,5.48,2,7.17,3.66,7.23,7.17,2.44,12.63-3.12,18.94a19.07,19.07,0,0,0-3.67,7c-1.75,4.94-3.92,11.07-14.7,20.51a18.28,18.28,0,0,1-12.49,4.87,31.53,31.53,0,0,1-6.42-.8,17.63,17.63,0,0,0-3.17-.4A5.31,5.31,0,0,1,16.88,81.26Z"/><path class="cls-2" d="M14.06,96.65a33.88,33.88,0,0,1,7.72,1.63c4.46,1.27,10,2.84,15.85,2.84a28.58,28.58,0,0,0,19.26-7.21c20-17.09,23.3-29,25.91-38.52C84.33,49.8,85.65,45,89.91,40c12-14.06,15.78-20.95,3.92-32.72C88.77,2.17,84.84,0,80.71,0,75.18,0,69.55,3.93,61.09,11.18c-5,4.26-9.79,5.58-15.38,7.11C36.16,20.9,24.28,24.15,7.18,44.2-3.59,56.82.26,70.36,2.81,79.31c1,3.55,1.95,6.87,1.49,8.93a7.2,7.2,0,0,0,7,8.72h0A8,8,0,0,0,13,96.75,5.29,5.29,0,0,1,14.06,96.65Zm-6.34-4a4.63,4.63,0,0,1-.88-4h0c.56-2.52-.38-5.82-1.57-10-2.54-8.94-6-21.17,3.86-32.75,16.58-19.44,27.56-22.44,37.25-25.1,5.64-1.54,11-3,16.38-7.64C70.56,6.43,76,2.56,80.71,2.56c3.39,0,6.77,1.95,11.31,6.53,9.55,9.48,8.9,14.12-4,29.24-4.63,5.41-6.09,10.73-7.64,16.37C77.68,64.4,74.67,75.38,55.23,92a26.12,26.12,0,0,1-17.6,6.59c-5.52,0-10.62-1.45-15.12-2.72-3.3-.94-6.13-1.75-8.4-1.75a8,8,0,0,0-1.8.21A4.61,4.61,0,0,1,7.72,92.66Z"/><path class="cls-2" d="M32.31,82.7a16.81,16.81,0,0,0,11.47-4.49C54.26,69.05,56.35,63.12,58,58.36c1-2.82,1.78-5,4-7.54,6-6.82,9.1-11,3.18-16.82-1.47-1.5-3.5-3.21-6.07-3.21-3,0-6,2.15-10.77,6.37-2.5,2.2-4.73,3-7.54,4C36,42.82,30.11,44.92,21,55.39c-5.89,6.74-4.58,13.27-3.71,17.6a9.77,9.77,0,0,1,.35,3.91,3.82,3.82,0,0,0,.53,3.43,3.65,3.65,0,0,0,4.24,1.22,2,2,0,0,1,.48,0,21.45,21.45,0,0,1,3.34.42A30.91,30.91,0,0,0,32.31,82.7ZM21.54,79.12a1.5,1.5,0,0,1-.95,0L20.33,79l-.15-.21a1.34,1.34,0,0,1-.11-1.24c.43-1.4.08-3.11-.32-5.08-.81-4.06-1.93-9.62,3.13-15.4,8.72-10,14.06-11.86,18.78-13.52A23,23,0,0,0,50,39.09c4.13-3.63,6.93-5.73,9.08-5.73.91,0,2.12.29,4.26,2.45a9.69,9.69,0,0,1,2.09,2.66l.39-.76L65.66,39a4.57,4.57,0,0,1-.54,3.47A3.67,3.67,0,0,1,65,43a2.14,2.14,0,0,1-.09.27,2.6,2.6,0,0,1-.48.68l-.25.18a55.33,55.33,0,0,1-4,5,22.84,22.84,0,0,0-4.46,8.37,34.5,34.5,0,0,1-4.29,8.85,3.18,3.18,0,0,1-.16.32,1.36,1.36,0,0,1-.1.21,2.53,2.53,0,0,1-.36.47l-.24.18a58.48,58.48,0,0,1-8.37,8.76,14.23,14.23,0,0,1-9.79,3.85,27.56,27.56,0,0,1-5.59-.72C24.52,79,22.94,78.69,21.54,79.12Z"/><path class="cls-2" d="M26.8,75.06a1.23,1.23,0,0,0,0-1.81,1.24,1.24,0,0,0-.88-.35,1.32,1.32,0,0,0-.93.38h0a1.26,1.26,0,0,0-.37.9,1.28,1.28,0,0,0,2.21.88Z"/><path class="cls-2" d="M24.37,65.86a1.08,1.08,0,0,0-.09.4,1.27,1.27,0,0,0,.38.9,1.38,1.38,0,0,0,.52.32s0,0,0-.06a2.45,2.45,0,0,1,.48-.72,2.58,2.58,0,0,1,.71-.47,37676264951871.95,37676264951871.95,0,0,0,.42-.18,1.28,1.28,0,0,0-.36-.7,1.3,1.3,0,0,0-1.34-.24,2.26,2.26,0,0,1-.3.41,2,2,0,0,1-.43.32Z"/><path class="cls-2" d="M23.76,68.65a1.26,1.26,0,0,0-.91,2.16,1.32,1.32,0,0,0,1.81,0,1.27,1.27,0,0,0,0-1.81A1.26,1.26,0,0,0,23.76,68.65Z"/><path class="cls-2" d="M33.16,71.11a1.28,1.28,0,0,0,.4-.9,1.3,1.3,0,0,0-.4-.91,1.28,1.28,0,0,0-.89-.34,1.31,1.31,0,0,0-.9.34,1.25,1.25,0,0,0,0,1.81A1.32,1.32,0,0,0,33.16,71.11Z"/><path class="cls-2" d="M30.44,75.69a1.3,1.3,0,0,0-.37.9,1.25,1.25,0,0,0,.38.91,1.32,1.32,0,0,0,1.81,0,1.29,1.29,0,0,0,.37-.91,1.4,1.4,0,0,0-.39-.92A1.38,1.38,0,0,0,30.44,75.69Z"/><path class="cls-2" d="M30.14,60.75a1.28,1.28,0,0,0-.9.33,1.33,1.33,0,0,0-.38.9,1.26,1.26,0,0,0,.36.89,1.29,1.29,0,0,0,1.85,0,1.38,1.38,0,0,0,.35-.92,1.2,1.2,0,0,0-1.28-1.23Z"/><path class="cls-2" d="M26.89,68.74l-.21.09-.22.1a1.25,1.25,0,0,0,.36.69,1.33,1.33,0,0,0,1.79,0,1.37,1.37,0,0,0,.38-.9,1.42,1.42,0,0,0-.4-1,1,1,0,0,0-.51-.25l0,.06a2.68,2.68,0,0,1-.47.7A2.25,2.25,0,0,1,26.89,68.74Z"/><path class="cls-2" d="M26.8,58.31a1.2,1.2,0,0,0-1.28,1.26,1.26,1.26,0,0,0,.37.91,1.32,1.32,0,0,0,1.84,0,1.33,1.33,0,0,0,.35-.88,1.31,1.31,0,0,0-.41-.94A1.26,1.26,0,0,0,26.8,58.31Z"/><path class="cls-2" d="M38,65.65a1.3,1.3,0,0,0,.4-.93,1.33,1.33,0,0,0-.38-.9,1.37,1.37,0,0,0-1.82,0,1.32,1.32,0,0,0-.37.9,1.35,1.35,0,0,0,.38.94A1.29,1.29,0,0,0,38,65.65Z"/><path class="cls-2" d="M35.3,74.78a1.4,1.4,0,0,0-.35.91,1.26,1.26,0,0,0,.37.9,1.3,1.3,0,0,0,1.81,0,1.23,1.23,0,0,0,.38-.9,1.27,1.27,0,0,0-.38-.91A1.39,1.39,0,0,0,35.3,74.78Z"/><path class="cls-2" d="M42.61,68.4a1.26,1.26,0,0,0-.37.9,1.31,1.31,0,0,0,.38.91,1.36,1.36,0,0,0,1.85,0,1.41,1.41,0,0,0,.33-.89,1.26,1.26,0,0,0-.37-.9A1.34,1.34,0,0,0,42.61,68.4Z"/><path class="cls-2" d="M39,71.11a1.27,1.27,0,0,0,.38-.9,1.35,1.35,0,0,0-.4-.93,1.37,1.37,0,0,0-1.81,0h0a1.29,1.29,0,0,0-.34.91,1.35,1.35,0,0,0,.37.92A1.38,1.38,0,0,0,39,71.11Z"/><path class="cls-2" d="M40.78,55.29a1.27,1.27,0,0,0,.38-.9,1.3,1.3,0,0,0-.38-.91,1.41,1.41,0,0,0-1.81,0h0a1.29,1.29,0,0,0-.37.91,1.21,1.21,0,0,0,.35.88A1.29,1.29,0,0,0,40.78,55.29Z"/><path class="cls-2" d="M32.57,53.45a1.22,1.22,0,0,0-1.3,1.24,1.18,1.18,0,0,0,.39.88,1.3,1.3,0,0,0,1.83,0,1.27,1.27,0,0,0,.38-.9,1.36,1.36,0,0,0-.38-.91A1.33,1.33,0,0,0,32.57,53.45Z"/><path class="cls-2" d="M38,59a1.31,1.31,0,0,0,.4-.93,1.39,1.39,0,0,0-.4-.92,1.34,1.34,0,0,0-1.8,0,1.32,1.32,0,0,0-.37.89,1.26,1.26,0,0,0,.16.56,2.69,2.69,0,0,1,.67.47,1.46,1.46,0,0,1,.18.22A1.11,1.11,0,0,0,38,59Z"/><path class="cls-2" d="M42.6,61.1a1.27,1.27,0,0,0-.36.88,1.36,1.36,0,0,0,.37.93,1.31,1.31,0,0,0,1.8,0A1.25,1.25,0,0,0,44.8,62a1.31,1.31,0,0,0-.37-.9A1.39,1.39,0,0,0,42.6,61.1Z"/><path class="cls-2" d="M45.35,54.35a1.26,1.26,0,0,0-.9.34h0a1.26,1.26,0,0,0-.37.9,1.18,1.18,0,0,0,.35.89,1.26,1.26,0,0,0,1.85,0,1.34,1.34,0,0,0,.36-.92,1.23,1.23,0,0,0-1.29-1.24Z"/><path class="cls-2" d="M48.7,61.08a1.27,1.27,0,0,0,.38-.91,1.23,1.23,0,0,0-.38-.9,1.35,1.35,0,0,0-1.81,0,1.26,1.26,0,0,0-.37.9,1.3,1.3,0,0,0,.37.91A1.35,1.35,0,0,0,48.7,61.08Z"/><path class="cls-2" d="M49,47.36h0a1.26,1.26,0,0,0-.85.33,1.28,1.28,0,0,0-.39.91,1.24,1.24,0,0,0,.36.89,1.31,1.31,0,0,0,1.83,0,1.29,1.29,0,0,0,0-1.81A1.35,1.35,0,0,0,49,47.36Z"/><path class="cls-2" d="M39.08,49.57a1.38,1.38,0,0,0,1.12-.38,1.29,1.29,0,0,0,0-1.79,1.38,1.38,0,0,0-1.85,0,1.44,1.44,0,0,0-.34.89v0a2.41,2.41,0,0,1,.54.41,2.58,2.58,0,0,1,.49.74A.7.7,0,0,1,39.08,49.57Z"/><path class="cls-2" d="M45,49.21a1.31,1.31,0,0,0,.38-.91,1.27,1.27,0,0,0-.38-.9,1.34,1.34,0,0,0-1.82,0,1.26,1.26,0,0,0-.37.89,1.3,1.3,0,0,0,.38.91A1.34,1.34,0,0,0,45,49.21Z"/><path class="cls-2" d="M36.74,49.51l-.21,0a1.25,1.25,0,0,0-1.28,1.25,1.3,1.3,0,0,0,.38.91,1.32,1.32,0,0,0,1.81,0,1.29,1.29,0,0,0,.37-.91v0a2.45,2.45,0,0,1-1-1.13S36.75,49.54,36.74,49.51Z"/><path class="cls-2" d="M51.74,41.87a1.27,1.27,0,0,0-.9,2.18,1.34,1.34,0,0,0,1.81,0,1.28,1.28,0,0,0,.38-.91,1.32,1.32,0,0,0-.38-.9A1.29,1.29,0,0,0,51.74,41.87Z"/><path class="cls-2" d="M53.74,48.81a2.4,2.4,0,0,1-.11-.23h-.09a1.22,1.22,0,0,0-.86.32,1.27,1.27,0,0,0,0,1.84,1.32,1.32,0,0,0,1.84,0,1.2,1.2,0,0,0,.32-.62,2.91,2.91,0,0,1-.51-.4,2.45,2.45,0,0,1-.47-.67A1.45,1.45,0,0,1,53.74,48.81Z"/><path class="cls-2" d="M56.61,41.88h0a1.2,1.2,0,0,0-.87.33,1.27,1.27,0,0,0-.41.91,1.4,1.4,0,0,0,.37.91,1.32,1.32,0,0,0,1.84,0,1.36,1.36,0,0,0,.35-.91,1.33,1.33,0,0,0-.38-.91A1.27,1.27,0,0,0,56.61,41.88Z"/><path class="cls-2" d="M59.39,38.93a2.25,2.25,0,0,1-.19.38,1.38,1.38,0,0,0,1.69-.15,1.26,1.26,0,0,0,.33-.89,1.21,1.21,0,0,0-.35-.89,1.33,1.33,0,0,0-1.21-.31,2.44,2.44,0,0,1,.07.59,2.73,2.73,0,0,1-.2,1A1.47,1.47,0,0,1,59.39,38.93Z"/><path class="cls-2" d="M57.31,37.32a2.88,2.88,0,0,1,.34-.68,0,0,0,0,0,0,0,1.23,1.23,0,0,0-.73-.22,1.35,1.35,0,0,0-.94.36,1.27,1.27,0,0,0-.34.9,1.23,1.23,0,0,0,1.57,1.24,2.27,2.27,0,0,1-.08-.63,2.89,2.89,0,0,1,.12-.78C57.28,37.43,57.29,37.37,57.31,37.32Z"/><path class="cls-2" d="M63.67,41.86a1.3,1.3,0,0,0-.38-.85h0a1.22,1.22,0,0,0-.87-.34h0a1.29,1.29,0,0,0-.91.35,1.27,1.27,0,0,0-.38.9,1.3,1.3,0,0,0,.38.91A1.18,1.18,0,0,0,63,43a12,12,0,0,0,.64-1.06Z"/><path class="cls-2" d="M52.42,56.23a1.27,1.27,0,0,0-.37-.91,1.31,1.31,0,0,0-.92-.35h0a1.25,1.25,0,0,0-.87.34l0,0a1.23,1.23,0,0,0-.36.89,1.29,1.29,0,0,0,2.21.88A1.31,1.31,0,0,0,52.42,56.23Z"/><path class="cls-2" d="M50,65.36a1.27,1.27,0,0,0-.37-.91,1.35,1.35,0,0,0-1.81,0,1.24,1.24,0,0,0-.38.91,1.31,1.31,0,0,0,.38.9,1.16,1.16,0,0,0,1.58.13c.19-.25.38-.5.55-.75A1,1,0,0,0,50,65.36Z"/><path class="cls-2" d="M35,59.85a1.26,1.26,0,0,0-1.56,1.23,1.27,1.27,0,0,0,.38.9,1.31,1.31,0,0,0,1.81,0,1.26,1.26,0,0,0,.37-.9,1.1,1.1,0,0,0-.16-.54,3.11,3.11,0,0,1-.66-.46,2.53,2.53,0,0,1-.18-.22Z"/><path class="cls-2" d="M24,64h0a1.21,1.21,0,0,0,.1-.42,1.36,1.36,0,0,0-.38-.91,1.26,1.26,0,0,0-.9-.34,1.35,1.35,0,0,0-.92.35,1.26,1.26,0,0,0-.37.9,1.23,1.23,0,0,0,.38.9,1.15,1.15,0,0,0,1.3.29l0,0a2,2,0,0,1,.32-.43A2.19,2.19,0,0,1,24,64Z"/><path class="cls-2" d="M55.6,47.89a2.49,2.49,0,0,1,.41.59l.11.24c0,.09.08.17.11.26a1.33,1.33,0,0,0,1-.39,1.43,1.43,0,0,0,.33-.89,1.31,1.31,0,0,0-.38-.91,1.44,1.44,0,0,0-1.78,0,1.2,1.2,0,0,0-.38.67,2.46,2.46,0,0,1,.51.39h0S55.58,47.88,55.6,47.89Z"/></g></g></svg>