<svg xmlns="http://www.w3.org/2000/svg" viewBox="0 0 74.86 90.23"><defs><style>.cls-1{fill:#9b1b21;}</style></defs><g id="Capa_2" data-name="Capa 2"><g id="Icons"><path class="cls-1" d="M45.89,21.37C47.06,15,50.54,6.63,60.41,2.15A1.11,1.11,0,0,0,61,1.52a1.07,1.07,0,0,0,0-.86,1.12,1.12,0,0,0-.62-.59,1.19,1.19,0,0,0-.87,0A26.52,26.52,0,0,0,48,9.81a23.85,23.85,0,0,0-8.78,2.72A37.38,37.38,0,0,0,0,51.68a1.13,1.13,0,0,0,1.05,1.07c1,.06,1.88.09,2.76.09a28.64,28.64,0,0,0,11.89-2.51C16,61,19.21,71,24.67,78.44S37.54,90.23,45.28,90.23h.53a.25.25,0,0,0,.12,0c7.77-.24,15-4.69,20.5-12.52s8.43-18.15,8.43-29.07C74.86,24.84,60.94,21.46,45.89,21.37ZM15.7,34.47h0A1.13,1.13,0,0,0,16,36a1.15,1.15,0,0,0,1.56-.27l.12-.16a37.86,37.86,0,0,0-1.95,12.28A27.39,27.39,0,0,1,2.26,50.56,35.12,35.12,0,0,1,35.35,14.8C24.71,21.85,16.08,34,15.7,34.47ZM38.08,21.69a30.9,30.9,0,0,0-10.95,2.92A58.51,58.51,0,0,1,38.64,15.4,36,36,0,0,1,38.08,21.69Zm-12.26,6.4a21.92,21.92,0,0,1,8.6-3.55c-4.92,3.9-7.32,11.8-7.32,24.08,0,16.37,4.41,31.37,11.07,38C26.39,82,18,66.32,18,48.62,18,38.65,20.53,31.93,25.82,28.09ZM39,24.64a1.15,1.15,0,0,0,.44-.15A17.94,17.94,0,0,1,44,23.67a1.06,1.06,0,0,0,.4.14h.14a1.1,1.1,0,0,0,.61-.19h.47c14,.05,27,3.11,27,25,0,21.44-12.11,39.09-27,39.35-9-.26-16.26-17.91-16.26-39.35C29.35,34.71,32.44,27.09,39,24.64Zm1.86-10.42a22.68,22.68,0,0,1,5.7-2,31.82,31.82,0,0,0-3,9.12c-1.09,0-2.17.06-3.21.12A37.13,37.13,0,0,0,40.87,14.22Z"/><path class="cls-1" d="M45,84.29c13.11,0,23.77-17.75,23.77-39.55a1.13,1.13,0,1,0-2.25,0C66.5,65.3,56.85,82,45,82a1.13,1.13,0,0,0,0,2.25Z"/></g></g></svg>