<svg xmlns="http://www.w3.org/2000/svg" viewBox="0 0 124.85 124.83"><defs><style>.cls-1{fill:#2e213c;}</style></defs><g id="Capa_2" data-name="Capa 2"><g id="Icons"><path class="cls-1" d="M102.51,51.22l-1.68-.08.85-1.46A19.39,19.39,0,0,0,75.17,23.12L73.72,24l-.09-1.68C73,9.58,62.43,0,49.12,0,36.93,0,24.58,8.08,24.58,23.53c0,5.62,3,12.65,6.91,16l.69.59-.51.75a17.15,17.15,0,0,0-3,9.24,19.46,19.46,0,0,0,7.72,15.21l1.22,1-.42.32-1,.45C20,74.33,9.67,79.17,8.59,80,3.13,84.4,0,92.15,0,101.3c0,6.65,2.42,13,6.46,17.09,3,3,10.29,6.44,21.16,6.44a20.92,20.92,0,0,0,17.21-8.59c.84-1.09,5.58-11.19,12.71-27l.75-1.66,1,1.51a16.44,16.44,0,0,0,13.35,7.12c3.71,0,8.46-1.73,11.51-3.45l.63-.35.54.47c4,3.47,9.66,5.38,16,5.38a23.52,23.52,0,0,0,1.2-47ZM73.29,27l.25-.22A17.35,17.35,0,0,1,98,51.26l-.23.27-.34.07c-4.88,1-9.68,3.56-12.23,6.54l-.56.66-.74-.44A26.28,26.28,0,0,0,73.4,55.29l-2.29-.12L82.9,43.4,81.46,42,69.38,54l.18-2.71c0-.38,0-.76,0-1.15a17.36,17.36,0,0,0-3.2-9.53l-.48-.68.56-.61c2-2.15,5.5-6.57,6.73-12Zm-67,84.28-.17,4.18L4.3,111.69A24.71,24.71,0,0,1,2.05,101.3c0-8.4,2.91-15.74,7.79-19.65,1.72-1.21,18.82-9,28-13.05l1.73-1.21c5.24-4.28,11-11.18,11.62-17.18l2-21.47-2-.19L49.15,50C48.43,56.45,39,65,39,65c-4.81-3.42-8.32-9.38-8.32-14.89a15.16,15.16,0,0,1,3.79-9.51l1-1L34.25,39c-3.43-1.72-7.62-9.18-7.62-15.46,0-14.76,11.66-21.48,22.49-21.48,12.63,0,22.53,9.43,22.53,21.48,0,7.21-5.51,13.34-7.88,15.64l-.74.72.73.74a15.1,15.1,0,0,1,3.79,9.51c0,1.12,0,4.52-2.42,6.53l-.25.16A19,19,0,0,0,55.24,66l-.1.21-.19.14c-1.54,1.2-3,1.2-4.79,1.2h-.32l-.26.18c-.28.2-27.89,19.38-34.82,24.58C8.14,97.25,6.57,103.48,6.25,111.29Zm2,5.77v-.67c0-8.56,0-16.65,7.78-22.46,6.68-5,33.11-23.39,34.23-24.17l.26-.18h.31a14.76,14.76,0,0,0,1.7-.12l1.42-.19-.28,1.41a19.91,19.91,0,0,0-.4,4v3.8l-.15.25c-6.57,10.6-19.23,31-20.1,32.16-3.63,4.85-10.1,7.85-16.87,7.85a18.09,18.09,0,0,1-7.29-1.42Zm93.11-20.88c-6.43,0-12-2.07-15.64-5.83l-.59-.61-.71.48c-2.86,1.92-8,3.91-11.71,3.91a14.21,14.21,0,0,1-12.91-8.49l-.24-.56.37-.48c3.55-4.56,10.33-8.13,16.87-8.88h25.58v-2H76.59c-7.7.85-15.4,5.14-19.09,10.68l-.13.23C53.89,92.37,44.48,113.17,43.23,115a18.71,18.71,0,0,1-15.61,7.82,44.17,44.17,0,0,1-6.57-.48l-5.82-.87L21,120.29a22.23,22.23,0,0,0,13.6-8.15c.94-1.25,17.33-27.67,20.51-32.82l.16-.24V74.69a17.52,17.52,0,0,1,1.47-7.09l.08-.17A17.11,17.11,0,0,1,72.67,57.3c3.77,0,9.71,2,11.56,3.79l1,1,.63-1.27c1.72-3.43,9.19-7.62,15.46-7.62a21.49,21.49,0,1,1,0,43Z"/></g></g></svg>