<svg xmlns="http://www.w3.org/2000/svg" viewBox="0 0 71.28 118.49"><defs><style>.cls-1{fill:#9b1b21;}</style></defs><g id="Capa_2" data-name="Capa 2"><g id="Icons"><path class="cls-1" d="M71,51.16c-.69-.93-1.5-.62-6,1.13-1.35.52-3,1.17-5,1.92a55.79,55.79,0,0,0-6.78,3.1,7.33,7.33,0,0,0,1.65-2.92l.31-1.61a3.86,3.86,0,0,0-.87-3.19,5,5,0,0,0-1.84-1.38,5.11,5.11,0,0,0,2.37-4l.33-4.37a4.43,4.43,0,0,0-1.18-3.33,5.08,5.08,0,0,0-1.32-1,5.54,5.54,0,0,0,1.44-3.4l.29-4.36a4.71,4.71,0,0,0-1.24-3.52,4.28,4.28,0,0,0-3.06-1.39H50a4.68,4.68,0,0,0,1.5-3.1l.3-3.88a3.91,3.91,0,0,0-1.07-3,4.64,4.64,0,0,0-3.38-1.5l-1.95,0a4.63,4.63,0,0,0,.85-.8,3.48,3.48,0,0,0,.69-2.65l-.63-3.76A4.58,4.58,0,0,0,41.93,0L39.32,0a4.47,4.47,0,0,0-4,2.47,4.49,4.49,0,0,0-.5-.67A4.54,4.54,0,0,0,31.51.35l-2.6,0c-2.19,0-3.88,1.57-4.4,4L23.73,8a3.31,3.31,0,0,0,.72,2.8,4.43,4.43,0,0,0,1.11.95l-2.79,0a4.29,4.29,0,0,0-4.42,4.31l.23,3.76a4.55,4.55,0,0,0,1.3,3A4.58,4.58,0,0,0,16,27.56l.21,4.38a5.45,5.45,0,0,0,1.37,3.43A4.59,4.59,0,0,0,15,39.63L15.23,44a5.11,5.11,0,0,0,2.23,4,4.63,4.63,0,0,0-2.6,4.29l.25,4.37a5.12,5.12,0,0,0,2.24,4A4.6,4.6,0,0,0,14.75,65L15,69.33a5.38,5.38,0,0,0,.48,1.94,75.54,75.54,0,0,1-7.56-3.13C3.61,65.92,2.2,65.72,1.45,65.8a1.53,1.53,0,0,0-1.34.93c-.45,1.14.38,2.6,3.57,6.27C6.22,75.93,14,84.85,14.37,88.35a34.67,34.67,0,0,1-.29,8.25c-.62,5.2-1.19,10.11,3.3,14.88,4,4.27,9,6.56,13.36,6.13h0a8.77,8.77,0,0,0,7.35-4.73c2.81-5.32,1.16-14.1-.8-18.65a1,1,0,0,0,.2-.59c-.05-2,.7-5.42,1.73-9.12a24.88,24.88,0,0,0,1.5-4.12L42,75.73a4.34,4.34,0,0,0,.14-.74c.88-2.78,1.64-5.18,2.1-6.93C45.43,63.37,55,58.25,60.67,56.13c2-.75,3.71-1.4,5.07-1.92L68,53.34l-.41.51c-.65.82-1.46,1.83-2.38,3C60.57,63,57.46,73.63,57,78.93a65.53,65.53,0,0,0,0,7.15c.39,11.46,1,28.74-13,30.13l-.31,0a23.66,23.66,0,0,1-5.44.05,1,1,0,0,0-.57,2c1,.29,2.8.29,6.18,0l.36,0C60.13,116.68,59.47,97.5,59.08,86a63.83,63.83,0,0,1,0-6.9c.44-5,3.4-15.14,7.81-21,.91-1.2,1.7-2.2,2.35-3C71.05,52.83,71.68,52.05,71,51.16Zm-18-11.45-.33,4.36A2.86,2.86,0,0,1,50,46.87l-4.4,0A2.86,2.86,0,0,1,42.83,44l-.25-4.37A2.66,2.66,0,0,1,45.06,37h.3l5,0a2.83,2.83,0,0,1,2.08.92A2.37,2.37,0,0,1,53.07,39.71ZM27,76.47l.37.77c-.22-.22-.43-.45-.67-.66a16,16,0,0,0-4-2.44h1.48a5.2,5.2,0,0,0,.8,0,4,4,0,0,0,3.75-3,5.19,5.19,0,0,0,1,1.53A4.54,4.54,0,0,0,27,74.47,2.09,2.09,0,0,0,27,76.47Zm1.75-13.92a4.92,4.92,0,0,0-.59-.79,4.78,4.78,0,0,0-1.35-1,4.83,4.83,0,0,0,1.52-1.53,5,5,0,0,0,1.63,2A4.74,4.74,0,0,0,28.75,62.55Zm.84-41.17a5.18,5.18,0,0,0,.88,1.37,5,5,0,0,0-2.21,2,5.41,5.41,0,0,0-.46-.61,4.41,4.41,0,0,0-.52-.45A4.48,4.48,0,0,0,29.59,21.38Zm-1.22-8.83,1.95,0a5.14,5.14,0,0,0-.8,1.11,3.37,3.37,0,0,0-.33-.44A4.17,4.17,0,0,0,28.37,12.55ZM40.52,22A4.4,4.4,0,0,0,43,23.83a4.77,4.77,0,0,0-.9,1,4.87,4.87,0,0,0-.64-.89,5,5,0,0,0-1.54-1.12A6.38,6.38,0,0,0,40.52,22Zm-.39-9.66h1.11a4.44,4.44,0,0,0-.57.5v0A6.15,6.15,0,0,0,40.13,12.32Zm-.37,23.75a5.07,5.07,0,0,0,2.09-2.32A5,5,0,0,0,43,35.54a4.79,4.79,0,0,0-1.74,1.63l-.05-.06A4.73,4.73,0,0,0,39.76,36.07Zm.53,4.21L40,44.65a2.85,2.85,0,0,1-2.78,2.79l-4.4,0a2.87,2.87,0,0,1-2.73-2.85l-.25-4.37a2.65,2.65,0,0,1,2.48-2.65,1.51,1.51,0,0,1,.3,0l5,0a2.88,2.88,0,0,1,2.08.93A2.34,2.34,0,0,1,40.29,40.28Zm-.34-15a2.5,2.5,0,0,1,.68,1.88l-.34,4.51a3,3,0,0,1-2.92,2.94l-4.55,0a3,3,0,0,1-2.86-3l-.26-4.52a2.78,2.78,0,0,1,2.6-2.78l.31,0H33a4.57,4.57,0,0,0,1.11.15l2.18,0,.52,0a5.54,5.54,0,0,0,.56-.11h.41A3,3,0,0,1,40,25.33ZM28.38,33.71a4.92,4.92,0,0,0,2,2.28,4.86,4.86,0,0,0-1.51,1.14,4.88,4.88,0,0,0-.52-.7,4.81,4.81,0,0,0-1.17-.9A5.26,5.26,0,0,0,28.38,33.71Zm.07,12.85a4.9,4.9,0,0,0,1.78,2.13,4.84,4.84,0,0,0-1.43,1.1,4.3,4.3,0,0,0-.52-.69,4.77,4.77,0,0,0-1.36-1A5,5,0,0,0,28.45,46.56Zm1.49,10.66-.26-4.37a2.66,2.66,0,0,1,2.48-2.65h.31l5,0a2.9,2.9,0,0,1,2.09.93,2.34,2.34,0,0,1,.65,1.78l-.33,4.37a2.86,2.86,0,0,1-2.79,2.8l-4.39,0A2.87,2.87,0,0,1,29.94,57.22Zm9.75-8.46a5,5,0,0,0,1.87-2.17,4.85,4.85,0,0,0,1.65,1.63,4.91,4.91,0,0,0-2,1.78c-.06-.07-.11-.16-.18-.23A4.78,4.78,0,0,0,39.69,48.76ZM50,24.92a2.28,2.28,0,0,1,1.58.74,2.69,2.69,0,0,1,.69,2L52,32a2.74,2.74,0,0,1-2.12,2.78l-4.06,0c-1.21,0-2.19-1.23-2.26-2.83l-.22-4.37a2.54,2.54,0,0,1,2.11-2.67h.21ZM47.28,13.44a2.64,2.64,0,0,1,1.89.84,1.93,1.93,0,0,1,.53,1.45l-.3,3.88A2.53,2.53,0,0,1,46.93,22l-2.7,0a2.48,2.48,0,0,1-2.42-2.43L41.66,17l.09-.74a4.29,4.29,0,0,0,0-1.24,2.41,2.41,0,0,1,2.06-1.54,1.34,1.34,0,0,1,.28,0ZM39,2.07h.26l2.61,0A2.59,2.59,0,0,1,44.23,4.5l.63,3.76a1.34,1.34,0,0,1-.3,1.06,2.62,2.62,0,0,1-2.06,1l-3.13,0A2.33,2.33,0,0,1,37.07,8L37,4.22A2.24,2.24,0,0,1,39,2.07Zm-3.7,7.49a4.46,4.46,0,0,0,1,1.47l-1.77,0A4.48,4.48,0,0,0,35.34,9.56Zm1.44,3.53a3.17,3.17,0,0,1,2.33,1.08,2.32,2.32,0,0,1,.46.78,4.57,4.57,0,0,0,0,.83l.07,1.11-.31,2.5A3.35,3.35,0,0,1,37.1,22.3l-3.82,0a3.13,3.13,0,0,1-2.09-2.88L31,15.93a2.86,2.86,0,0,1,2.66-2.85H34ZM26.52,4.79a2.76,2.76,0,0,1,2.13-2.4h.24l2.61,0a2.51,2.51,0,0,1,1.79.78,1.89,1.89,0,0,1,.51,1.39l-.26,3.67a2.38,2.38,0,0,1-2.35,2.27l-3.12,0a2.76,2.76,0,0,1-2-1,1.28,1.28,0,0,1-.31-1.09Zm-4,9h.26l3.13,0a2.48,2.48,0,0,1,1.8.79A1.89,1.89,0,0,1,28.19,16l-.3,3.75A2.39,2.39,0,0,1,25.55,22l-2.61,0a2.39,2.39,0,0,1-2.31-2.32l-.22-3.75A2.17,2.17,0,0,1,22.49,13.82Zm-2.36,11h.21l4.37,0a2.2,2.2,0,0,1,1.58.74,2.64,2.64,0,0,1,.69,2l-.29,4.37a2.78,2.78,0,0,1-2.13,2.79l-4,0c-1.22,0-2.19-1.23-2.27-2.84L18,27.46A2.53,2.53,0,0,1,20.13,24.8ZM17.28,43.89,17,39.52a2.66,2.66,0,0,1,2.48-2.65l.3,0,5,0a2.84,2.84,0,0,1,2.09.93,2.41,2.41,0,0,1,.65,1.78L27.19,44a2.86,2.86,0,0,1-2.78,2.79l-4.4,0A2.86,2.86,0,0,1,17.28,43.89Zm-.11,12.66-.25-4.37a2.64,2.64,0,0,1,2.48-2.65,1.51,1.51,0,0,1,.3,0l5,0a2.86,2.86,0,0,1,2.08.93,2.34,2.34,0,0,1,.65,1.78l-.33,4.37a2.87,2.87,0,0,1-2.78,2.8l-4.4,0A2.87,2.87,0,0,1,17.17,56.55Zm2.11,5.64h.3l5,0a2.92,2.92,0,0,1,2.09.93,2.34,2.34,0,0,1,.65,1.78L27,69.3c-.16,2.13-.89,2.81-2.79,2.8l-4.39,0a2.88,2.88,0,0,1-2.74-2.85l-.25-4.37A2.66,2.66,0,0,1,19.28,62.19Zm17,49.72a6.73,6.73,0,0,1-5.73,3.65l.1,1-.11-1c-3.64.36-8.11-1.74-11.65-5.5C15,106,15.54,101.75,16.12,96.84a35.88,35.88,0,0,0,.29-8.73C16,84.45,10.21,77.39,5.23,71.65A29.49,29.49,0,0,1,2.34,68,25.85,25.85,0,0,1,7,70a82.35,82.35,0,0,0,8.34,3.44c4,1.5,8.21,3,10,4.68,3.27,3,5.15,6.9,7.14,11C33.22,90.7,34,92.33,34.9,94,36.82,97.5,39,106.78,36.27,111.91Zm-2.2-24.18,1.27.16a2.09,2.09,0,0,0,.5,0,1.8,1.8,0,0,0,.43-.14C36,88.92,35.81,90,35.66,91c-.47-.93-.92-1.85-1.36-2.76C34.23,88.05,34.15,87.89,34.07,87.73Zm3.23-4c-.63,1.27-1.26,2.06-1.67,2.1l-1.41-.17c-1-.12-1.87-2.37-2.46-3.85-.23-.59-.45-1.15-.66-1.59l-2.28-4.73c.08-.34,1.49-1.09,3.56-1.3l.33,0,.38,0,4.4,0a3,3,0,0,0,.52,0l.17,0c1.5,0,1.81.2,1.87.27a1.11,1.11,0,0,1,0,.13C39.15,77.53,38.14,80.72,37.3,83.75Zm3.33-18.7-.33,4.37a3,3,0,0,1-2.22,2.74l-4.92,0a2.72,2.72,0,0,0-.28,0,2.87,2.87,0,0,1-2.5-2.8L30.13,65a2.66,2.66,0,0,1,2.48-2.65h.3l5,0c1.29,0,2.06.19,2.39.56A3,3,0,0,1,40.63,65.05Zm1.95,1.49.1-1.33c.13-1.76-.14-2.9-.88-3.71a3.39,3.39,0,0,0-1.31-.81,4.94,4.94,0,0,0,.82-1.19,5.14,5.14,0,0,0,1.38,2.18,2.69,2.69,0,0,0,2.06.67,2.61,2.61,0,0,0,.46-.08l1-.25A13.5,13.5,0,0,0,42.58,66.54ZM53.11,52.4,52.8,54c-.29,1.54-4.06,5.2-5.85,5.67l-2.26.6a.61.61,0,0,1-.66-.16,5.33,5.33,0,0,1-1.18-3.33l-.25-4.37a2.65,2.65,0,0,1,2.48-2.65l.3,0,5,0a3.17,3.17,0,0,1,2.31,1.09A1.85,1.85,0,0,1,53.11,52.4Z"/></g></g></svg>