<svg xmlns="http://www.w3.org/2000/svg" viewBox="0 0 126.65 106.81"><defs><style>.cls-1{fill:none;}.cls-2{fill:#455e2b;}</style></defs><g id="Capa_2" data-name="Capa 2"><g id="Icons"><path class="cls-1" d="M78.46,102.66a44,44,0,1,0-44-44A44.09,44.09,0,0,0,78.46,102.66ZM45.28,77.05a2.89,2.89,0,0,1-1.42.39A2.85,2.85,0,0,1,41.39,76L40.1,73.78A2.85,2.85,0,1,1,45,70.93l1.28,2.23A2.84,2.84,0,0,1,45.28,77.05Zm.19-43.85a2.86,2.86,0,0,1,3.29,2.33,2.88,2.88,0,0,1-.49,2.13,32.39,32.39,0,0,0-4.64,27,2.87,2.87,0,0,1-.26,2.17,2.78,2.78,0,0,1-1.71,1.35,2.54,2.54,0,0,1-.78.11,2.86,2.86,0,0,1-2.74-2.07,37.75,37.75,0,0,1,5.48-31.85h0A2.81,2.81,0,0,1,45.47,33.2Z"/><polygon class="cls-1" points="3.96 22.88 3.96 22.88 3.95 22.9 3.95 22.9 3.96 22.88"/><path class="cls-1" d="M27.08,27.34c6.28-2.44,11.78-8.53,15.07-16.74a40.31,40.31,0,0,0-3.69-2C33.45,6.23,26.08,3.39,20,5.75,13.6,8.21,8.1,14.31,4.81,22.52a40.07,40.07,0,0,0,3.69,2C15.61,27.88,21.34,28.74,27.08,27.34Z"/><path class="cls-2" d="M46.83,10l.36-1-1-.69C40.54,4.29,32.55.69,25.09.69a18.28,18.28,0,0,0-8.61,2C9.18,6.5,3.35,13.85.05,23.35a1.37,1.37,0,0,0,.67,1.46c5.19,3.67,15.64,9.39,27.41,6.55C39.39,27,44.68,16.1,46.83,10ZM27.54,28.82a24.28,24.28,0,0,1-5.79.71c-4.31,0-8.77-1.17-13.9-3.57a46.69,46.69,0,0,1-4.3-2.39l0,0L4,22.9l-.48.61-.54-.33.2-.61C6.55,13.65,12.48,7,19.42,4.3c6.65-2.58,14.43.4,19.7,2.86,1.52.72,3,1.61,4.29,2.39l.55.34-.13.66C40.42,19.47,34.48,26.13,27.54,28.82Z"/><path class="cls-2" d="M47.72,8.76l.54,1.17a13.58,13.58,0,0,0,5.43,6l1.14.66-1.13.68a48.17,48.17,0,1,0,24.76-6.86,47.56,47.56,0,0,0-20.92,4.78l-.73.35-.32-.74a1.29,1.29,0,0,0-.64-.68,11.09,11.09,0,0,1-6-12.51,1.29,1.29,0,0,0-.13-1A1.3,1.3,0,0,0,47.39,1a12.93,12.93,0,0,0,0,6.48ZM78.46,13a45.59,45.59,0,1,1-45.6,45.59A45.64,45.64,0,0,1,78.46,13Z"/><polygon class="cls-2" points="3.95 22.9 3.95 22.9 3.95 22.9 3.95 22.9"/><path class="cls-2" d="M39.63,65.78a1.34,1.34,0,0,0,1.61.9,1.29,1.29,0,0,0,.78-.61,1.32,1.32,0,0,0,.12-1A34,34,0,0,1,47,36.76a1.29,1.29,0,0,0,.22-1A1.31,1.31,0,0,0,46.7,35a1.26,1.26,0,0,0-.75-.24.82.82,0,0,0-.22,0,1.28,1.28,0,0,0-.85.53A36.21,36.21,0,0,0,39.63,65.78Z"/><path class="cls-2" d="M43.7,71.71a1.3,1.3,0,0,0-.79-.61,1.33,1.33,0,0,0-.34,0,1.25,1.25,0,0,0-.65.18,1.27,1.27,0,0,0-.6.78,1.3,1.3,0,0,0,.12,1l1.29,2.22a1.33,1.33,0,0,0,1.78.48A1.3,1.3,0,0,0,45,73.93Z"/></g></g></svg>