<svg xmlns="http://www.w3.org/2000/svg" viewBox="0 0 63.75 78.5"><defs><style>.cls-1{fill:none;}.cls-2{fill:#455e2b;}</style></defs><g id="Capa_2" data-name="Capa 2"><g id="Icons"><path class="cls-1" d="M31.87,74.74A28.12,28.12,0,1,0,3.76,46.62,28.15,28.15,0,0,0,31.87,74.74ZM45.79,63.1A20.49,20.49,0,0,0,52.9,47.33a2.62,2.62,0,0,1,.73-1.89,2.58,2.58,0,0,1,1.86-.82,2.66,2.66,0,0,1,2.71,2.59,25.56,25.56,0,0,1-9,19.95,2.68,2.68,0,0,1-1.71.62A2.61,2.61,0,0,1,46,67.33a2.5,2.5,0,0,1-.54-.49,2.62,2.62,0,0,1-.62-1.93A2.65,2.65,0,0,1,45.79,63.1Z"/><path class="cls-2" d="M31.87,78.5a31.88,31.88,0,0,0,.22-63.75h-.54L26.68,1.1A1.74,1.74,0,0,0,25.07,0a1.54,1.54,0,0,0-.52.09,1.68,1.68,0,0,0-1,2.13L28.09,15l-.93.14A31.86,31.86,0,0,0,31.87,78.5Zm0-61.54A29.67,29.67,0,1,1,2.21,46.62,29.7,29.7,0,0,1,31.87,17Z"/><path class="cls-2" d="M46.89,66.05h0A1.11,1.11,0,0,0,48.22,66a24,24,0,0,0,8.43-18.73,1.11,1.11,0,0,0-1.14-1.07,1,1,0,0,0-.76.34,1.08,1.08,0,0,0-.3.78,22.13,22.13,0,0,1-7.66,17,1.08,1.08,0,0,0-.38.75,1.06,1.06,0,0,0,.25.8A1.51,1.51,0,0,0,46.89,66.05Z"/></g></g></svg>