<svg xmlns="http://www.w3.org/2000/svg" viewBox="0 0 89.85 89.85"><defs><style>.cls-1{fill:none;}.cls-2{fill:#455e2b;}</style></defs><g id="Capa_2" data-name="Capa 2"><g id="Icons"><path class="cls-1" d="M26.88,57.13l-.28.38.38-.38Z"/><path class="cls-1" d="M32.71,63v-.1l-.38.38Z"/><path class="cls-1" d="M59.13,54.56a12.55,12.55,0,0,0-6-3.33A13.52,13.52,0,0,0,43,52.58l-4.75,4.75A13.5,13.5,0,0,0,36.64,64v1l-.2.16-29,21.76h.22L35,66.78c4.26-2.83,8.9-5.53,15.1-4.87l4.1-4.1L57,60.62l-2.19,2.19,17.47,3.74-.83,3.87-4.44-1L68.82,72l-3.21,2.33-4.46-6.13L50.37,65.92c-4.46-.75-7.87.7-12.17,3.47.55,3.19,3.61,6.31,7.26,7.34a18.92,18.92,0,0,0,7.42.39l1.36-.2.67,1.2a17.07,17.07,0,1,0,6.62-23.19l-1.34.75Z"/><path class="cls-1" d="M9.75,80l-.37.5L9.94,80,35.22,54.76c.1-.18.21-.35.32-.52l-.65.44.08.07Z"/><path class="cls-1" d="M64.41,25.57l2.8,2.8L62.9,32.68H66v4h-7L48.71,46.87c.41,0,.81,0,1.2,0a16,16,0,0,1,4.34.59,16.93,16.93,0,0,1,6.67,3.39l.15-.06.19-.07A8,8,0,0,0,63.5,46l.31-1.6h1.63A17.08,17.08,0,1,0,48.37,27.33V29l-1.6.32a12.54,12.54,0,0,0-5.37,3,20.59,20.59,0,0,1,1.11,6.75,20.92,20.92,0,0,1-3.18,11.19,14.6,14.6,0,0,1,1.23-.82Z"/><path class="cls-1" d="M24.87,53.21h1c12.34-.12,12.69-12.71,12.69-14.14a14.57,14.57,0,0,0-5.16-11.68L31.74,26l1.52-1.52c1-1,2.35-4.85,2.35-7.4C35.61,5.89,25.4,2.93,20,2.93c-6.85,0-10.76,3.26-12.82,6A17.66,17.66,0,0,0,4.32,23.86c1.09,3.88,3.58,6.76,7.83,9.06l1.91,1-1.2,1.81c-1.5,2.26-1.81,7.14.31,11.1a8.81,8.81,0,0,0,7.26,4.83c2.79-4.33,4.24-7.76,3.48-12.31L21.67,28.92l-6-3L17.5,22.4,20.6,24l-1.18-5.5,3.88-.83L27,35.08l2.19-2.18L32,35.7l-4.1,4.1c.63,6.22-2.14,11-4.81,15v0L2.94,82.2c0,.11,0,.17,0,.22Z"/><path class="cls-2" d="M1.75,88.1a3,3,0,0,0,2.13.83,3.36,3.36,0,0,0,.89-.13l.29-.08.21.2a4.22,4.22,0,0,0,3,.93h.31L35.33,70.14l.2.72a13.34,13.34,0,0,0,9.13,8.69,22.55,22.55,0,0,0,7.7.59l.32,0,.16.27a20,20,0,1,0,17-30.54,19.78,19.78,0,0,0-3.75.38l-1,.19.39-.9a12.05,12.05,0,0,0,.61-1.81l.09-.37.38,0A20,20,0,1,0,45.47,26.22l0,.35-.34.11a15.71,15.71,0,0,0-5.28,3.12l-.47.39-.31-.53a17.24,17.24,0,0,0-2.78-3.61L36,25.76l.21-.35a18.48,18.48,0,0,0,2.35-8.34C38.54,4.55,27.46,0,20,0,12,0,7.31,3.89,4.84,7.15A20.68,20.68,0,0,0,1.5,24.66a16.72,16.72,0,0,0,8,10.12L9.9,35l-.18.41c-1.58,3.65-1.22,8.92.86,12.82a11.66,11.66,0,0,0,8.27,6.18l.8.15L0,81.26v.31a4,4,0,0,0,1,3.08l.24.22-.09.31A2.87,2.87,0,0,0,1.75,88.1ZM69.84,51.73A18.11,18.11,0,1,1,54,78.62l-.32-.57-.65.09a20,20,0,0,1-7.86-.42c-4.22-1.18-7.61-4.77-8-8.52l0-.32.27-.18c4.65-3,8.3-4.61,13.2-3.8l12.2,2.61-.56.4,3.64,5,1.53-1.11-2.84-3.9,6.07,1.3.4-1.86L52.69,63.42l2.8-2.8-1.34-1.35L50.42,63l-.25,0c-6-.72-10.49,1.9-14.63,4.66L8,88H7.79c-.74,0-1.41-.12-1.48-1.22l0-.28,29.32-22V64a14.63,14.63,0,0,1,1.77-7.22l.09-.11,5-4.93a14.62,14.62,0,0,1,11-1.49,13.57,13.57,0,0,1,6.42,3.62l.51.54L61,54A18.12,18.12,0,0,1,69.84,51.73ZM26.46,67.66,34.08,60l-.2,1.51a16,16,0,0,0-.15,1.7v.25l-6.58,4.94ZM40.31,32.33,40.18,32l.27-.23a14,14,0,0,1,6.12-3.49l.77-.16v-.78a18.11,18.11,0,1,1,18.1,18.11h-.78l-.15.77A9,9,0,0,1,62,51.44l-.18.13-.33.13-.39.17-.32.16-.26-.24a16.54,16.54,0,0,0-13.09-3.74l-1.55.23L58.51,35.61h6.42v-1.9H60.41l5.34-5.34L64.41,27,41.2,50.24a16.65,16.65,0,0,0-1.39.94A15.14,15.14,0,0,0,36,55.39L10.61,80.82,4.4,85.49v1l0,.53H3.87a1.12,1.12,0,0,1-.78-.26L3,86.69A1.15,1.15,0,0,1,3,85.86L3,85.43l1.32,0L9,79.29,33.5,54.76l-.28-.29.58-.33c5.66-3.28,7.67-10.17,7.67-15.08A19.43,19.43,0,0,0,40.31,32.33ZM21.41,62.71l4.94-6.59h.24a15.84,15.84,0,0,0,1.73-.17l1.52-.2-7.65,7.64Zm.86-8.48c2.71-4.08,5.3-8.57,4.6-14.56l0-.24,3.73-3.73-1.34-1.34-2.8,2.8L22.51,18.84l-1.86.4,1.41,6.6L18,23.78l-.85,1.7,5.46,2.73.05.25,2.31,10.73c.83,5-.77,8.66-3.8,13.32l-.17.25-.3,0a9.78,9.78,0,0,1-8.4-5.39c-2.3-4.3-1.93-9.66-.26-12.16l.58-.87-.92-.49c-4.51-2.45-7.16-5.52-8.33-9.69a18.72,18.72,0,0,1,3-15.84C8.56,5.38,12.72,1.9,20,1.9c5.76,0,16.64,3.17,16.64,15.17,0,2.9-1.48,7-2.65,8.13l-.73.72.79.67a15.6,15.6,0,0,1,5.53,12.47c0,1.54-.39,15-13.72,15.17h-.47L3.4,83.56l-.28,0c-1.09-.08-1.2-.75-1.22-1.48v-.18Z"/></g></g></svg>