<svg xmlns="http://www.w3.org/2000/svg" viewBox="0 0 107.64 105.22"><defs><style>.cls-1{fill:#2e213c;}</style></defs><g id="Capa_2" data-name="Capa 2"><g id="Icons"><path class="cls-1" d="M107.61,50.77c-3.18-12-2.07-14.48-1.1-16.68.75-1.68,1.46-3.28.46-7.73s-2.86-6.1-5.51-8.57c-1.14-1.07-2.42-2.27-3.9-3.9a17.38,17.38,0,0,1,1.56-3.22c1.36-2.4,3-5.39,3-9.66a1.07,1.07,0,0,0-1-1,1,1,0,0,0-1,1c.05,3.71-1.43,6.32-2.73,8.63a24.41,24.41,0,0,0-1.49,2.92c-5.45-3.39-11.2-6-16.7-4.2C74,10.11,69.73,15.53,66.19,25A1,1,0,0,0,66.42,26l0,0c-.93.8-1.76,1.64-2.62,2.51a31.24,31.24,0,0,1-7.2,5.86c-5.49,3.2-13,3.58-20.32,4a73.44,73.44,0,0,0-13.45,1.47C9.72,43.08,4.19,51.58,1.86,58.14-1.95,68.89.22,82.36,7.26,91.65c8.25,10.88,19,13.57,27.61,13.57,1.28,0,2.51-.06,3.68-.16,26.44-2.27,42.1-24.71,51.58-41.4,3-5.25,5-9.1,7.34-13.93,2.43,2,5.42,2.14,8.51,2.3l.58,0h.06a1,1,0,0,0,.79-.38A1,1,0,0,0,107.61,50.77ZM88.35,62.65c-9.25,16.28-24.5,38.18-50,40.37-8.54.74-20.58-.86-29.48-12.6C2.25,81.65.2,69,3.79,58.83c2.16-6.09,7.31-14,19.57-17a71.92,71.92,0,0,1,13.06-1.42C44,40,51.75,39.65,57.67,36.2A33.14,33.14,0,0,0,65.3,30a30.36,30.36,0,0,1,3.61-3.28,50.46,50.46,0,0,0,9.22-1.57c1.31-.3,2.73-.62,3.75-.8-1.15,4-1.63,4.51-6.46,9.68l-3.17,3.42A1,1,0,0,0,72.49,39c11.43,6.7,14.35,3.84,20.36-3.63a45,45,0,0,0,.83,8.07A15.4,15.4,0,0,0,96,48.16C93.46,53.27,91.45,57.2,88.35,62.65Zm16.93-12.71c-3.08-.17-5.48-.45-7.32-2.55l-.07-.07a12.51,12.51,0,0,1-2.26-4.47c-.51-1.64-.74-7.42-.81-9.32,0-1.26,0-1.28-.3-1.56a1,1,0,0,0-.77-.35h0A1,1,0,0,0,93,32l-1,1.24c-6.15,7.66-8,9.92-17.33,4.66.85-.93,1.61-1.75,2.29-2.47,5.48-5.88,5.7-6.1,7.34-12a1,1,0,0,0-.14-.86,1.07,1.07,0,0,0-.76-.44,28.57,28.57,0,0,0-5.68,1c-2.5.57-7.35,1.67-9.21,1.57,3.23-8.22,6.94-12.93,11.32-14.39,5-1.68,10.65,1.22,16,4.62,1.66,1.86,3.06,3.17,4.31,4.34,2.54,2.38,4.08,3.82,4.91,7.51s.32,5-.34,6.46C103.57,35.68,102.36,38.4,105.28,49.94Z"/><path class="cls-1" d="M80.86,60a1,1,0,0,0-1.39.4C71.9,74,59.42,92.29,38.6,94.12c-7,.61-16.77-.71-24-10.47a1,1,0,1,0-1.64,1.22A27.31,27.31,0,0,0,35.74,96.29c1,0,2.07-.05,3-.13,21.79-1.91,34.68-20.74,42.48-34.74A1,1,0,0,0,80.86,60Z"/></g></g></svg>