<svg xmlns="http://www.w3.org/2000/svg" viewBox="0 0 81.63 111.19"><defs><style>.cls-1{fill:none;}.cls-2{fill:#455e2b;}</style></defs><g id="Capa_2" data-name="Capa 2"><g id="Icons"><path class="cls-1" d="M67.89,27.41c-5.66-.55-10,1.27-13.17,5.55a1,1,0,0,1-1.44.21,1,1,0,0,1-.21-1.45,15.43,15.43,0,0,1,7.51-5.6,9.76,9.76,0,0,0-5.34-4.28,12.51,12.51,0,0,0-10.6,1.37A6.55,6.55,0,0,0,47,26.13a11.06,11.06,0,0,1,1.53-1.78,1,1,0,0,1,1.36,1.55,9.21,9.21,0,0,0-2.45,4.17,15.72,15.72,0,0,1,6.34,4.36c3.86,4.23,10,14.82,7.87,38.09-1.27,13.66-3.21,24.33-7.32,31a10.34,10.34,0,0,0,4.65,1.24c8.48.52,17.55-20.47,20-45.83C81.4,33.82,76.53,28.25,67.89,27.41Zm6.15,52c-4.32,14.6-9,21.91-14.67,23l-.19,0a1,1,0,0,1-1-.84,1,1,0,0,1,.82-1.21c4.78-.91,9.06-8,13.08-21.55a1,1,0,0,1,2,.58Z"/><path class="cls-1" d="M31.78,31.7c.24.22.46.44.65.64a20.65,20.65,0,0,1,11.06-3,11.13,11.13,0,0,1,1.91.18A9,9,0,0,1,46,27.92c-7-4.29-5.15-21.91-4.67-25.6a1.48,1.48,0,0,0-1.44-.14,6.83,6.83,0,0,0-2.76,2.16C37.57,7.55,40,26,31.78,31.7Z"/><path class="cls-1" d="M52.21,35.82c-2.57-2.82-5.66-4.37-8.72-4.37C38.56,31.45,29.85,33,27,43.57a1,1,0,0,1-1.26.73A1,1,0,0,1,25.05,43a18,18,0,0,1,5.69-9.47,5.22,5.22,0,0,0-1.32-1,.18.18,0,0,1-.07-.05l-.11-.08a1,1,0,0,1-.3-.35s0,0,0,0v0a.86.86,0,0,1,0-.23,1.1,1.1,0,0,1,0-.16.58.58,0,0,1,0-.19,1.55,1.55,0,0,1,0-.21,0,0,0,0,0,0,0,1.7,1.7,0,0,1,.1-.14,1,1,0,0,1,.12-.17l.19-.13.12-.08a8.85,8.85,0,0,0,4.45-5,7.87,7.87,0,0,0-.79-.4c-2.31-1.1-7.82-3-11.7.95a14.78,14.78,0,0,1,2.83,1.37,1,1,0,1,1-1.12,1.74,14.14,14.14,0,0,0-9.37-1.94C5.1,28.25.23,33.82,2.67,58.91c2.47,25.41,11.72,46.45,20,45.83a12.85,12.85,0,0,0,5.52-1.49,33,33,0,0,1-2.83-7.61,1,1,0,0,1,2-.5A28.93,28.93,0,0,0,30.44,103h0l0,0c2.46,4.08,5.84,6,10.32,6,11.19,0,16.27-10,18.75-36.8C61.63,49.85,55.85,39.8,52.21,35.82ZM23.9,101.61a1,1,0,0,1-1,.8,1,1,0,0,1-.24,0c-5.23-1.22-9.8-7-12.23-15.56a1,1,0,0,1,.71-1.28,1,1,0,0,1,1.27.71c2.23,7.79,6.24,13.07,10.72,14.12A1,1,0,0,1,23.9,101.61Z"/><path class="cls-2" d="M68.09,25.35a19.61,19.61,0,0,0-5.47.23,11.68,11.68,0,0,0-6.7-5.68,14.32,14.32,0,0,0-12,1.35c-1.7-5.9-1.11-14.93-.53-19.1a1,1,0,0,0-.13-.66,3.37,3.37,0,0,0-4-1.28,9.38,9.38,0,0,0-4.06,3.27,1.07,1.07,0,0,0-.17.76c0,.16,1.9,11.53-.39,19.48l-.59-.3c-2.26-1.07-9.82-4-14.75,2.18a19.35,19.35,0,0,0-5.7-.25C3.9,26.29-2,32.39.62,59.11c2.92,30.11,13.28,47.71,21.79,47.71h.41A15,15,0,0,0,29.27,105a13.16,13.16,0,0,0,11.53,6.17,14.57,14.57,0,0,0,12.32-6,12.32,12.32,0,0,0,5.7,1.59h.37c8.51,0,18.9-17.63,21.82-47.71C83.61,32.39,77.72,26.29,68.09,25.35Zm-31-21a6.83,6.83,0,0,1,2.76-2.16,1.48,1.48,0,0,1,1.44.14C40.8,6,38.93,23.63,46,27.92a9,9,0,0,0-.55,1.64,11.13,11.13,0,0,0-1.91-.18,20.65,20.65,0,0,0-11.06,3c-.19-.2-.41-.42-.65-.64C40,26,37.57,7.55,37.08,4.34ZM40.8,109.13c-4.48,0-7.86-2-10.32-6l0,0h0a28.93,28.93,0,0,1-3.06-7.89,1,1,0,0,0-2,.5,33,33,0,0,0,2.83,7.61,12.85,12.85,0,0,1-5.52,1.49c-8.29.62-17.54-20.42-20-45.83C.23,33.82,5.1,28.25,13.74,27.41a14.14,14.14,0,0,1,9.37,1.94,1,1,0,1,0,1.12-1.74,14.78,14.78,0,0,0-2.83-1.37c3.88-4,9.39-2,11.7-.95a7.87,7.87,0,0,1,.79.4,8.85,8.85,0,0,1-4.45,5l-.12.08-.19.13a1,1,0,0,0-.12.17,1.7,1.7,0,0,0-.1.14,0,0,0,0,1,0,0,1.55,1.55,0,0,0,0,.21.58.58,0,0,0,0,.19,1.1,1.1,0,0,0,0,.16.86.86,0,0,0,0,.23v0s0,0,0,0a1,1,0,0,0,.3.35l.11.08a.18.18,0,0,0,.07.05,5.22,5.22,0,0,1,1.32,1A18,18,0,0,0,25.05,43a1,1,0,0,0,.73,1.26A1,1,0,0,0,27,43.57C29.85,33,38.56,31.45,43.49,31.45c3.06,0,6.15,1.55,8.72,4.37,3.64,4,9.42,14,7.34,36.51C57.07,99.15,52,109.13,40.8,109.13ZM79,58.91c-2.47,25.36-11.54,46.35-20,45.83a10.34,10.34,0,0,1-4.65-1.24c4.11-6.65,6.05-17.32,7.32-31,2.15-23.27-4-33.86-7.87-38.09a15.72,15.72,0,0,0-6.34-4.36,9.21,9.21,0,0,1,2.45-4.17,1,1,0,0,0-1.36-1.55A11.06,11.06,0,0,0,47,26.13a6.55,6.55,0,0,1-2.32-2.92,12.51,12.51,0,0,1,10.6-1.37,9.76,9.76,0,0,1,5.34,4.28,15.43,15.43,0,0,0-7.51,5.6,1,1,0,0,0,.21,1.45A1,1,0,0,0,54.72,33c3.22-4.28,7.51-6.1,13.17-5.55C76.53,28.25,81.4,33.82,79,58.91Z"/><path class="cls-2" d="M73.34,78.11a1,1,0,0,0-1.28.7C68,92.4,63.76,99.45,59,100.36a1,1,0,0,0-.82,1.21,1,1,0,0,0,1,.84l.19,0c5.69-1.09,10.35-8.4,14.67-23A1,1,0,0,0,73.34,78.11Z"/><path class="cls-2" d="M23.13,100.37C18.65,99.32,14.64,94,12.41,86.25a1,1,0,0,0-1.27-.71,1,1,0,0,0-.71,1.28c2.43,8.52,7,14.34,12.23,15.56a1,1,0,0,0,.24,0,1,1,0,0,0,.23-2Z"/></g></g></svg>