<svg xmlns="http://www.w3.org/2000/svg" viewBox="0 0 113.03 78.99"><defs><style>.cls-1{fill:#8c6c2a;}</style></defs><g id="Capa_2" data-name="Capa 2"><g id="Icons"><path class="cls-1" d="M111.92,74.33a7.1,7.1,0,0,0-1.49-.91c-.22-.1-.43-.21-.63-.32-1.78-1-2.93-2.78-4.14-4.66-.4-.61-.73-1.13-1.09-1.63a48.14,48.14,0,0,0-5.86-6.54l-7.18-7.1c-3.9-3.84-8.15-7.4-12.27-10.83-2.38-2-4.62-3.86-6.81-5.78C62.24,27.59,50.33,20.39,40,14.35L27.54,7.1a18.5,18.5,0,0,1-5.3-4l-.37-.48A7.17,7.17,0,0,0,20.33,1,5.49,5.49,0,0,0,16.07.37,11.58,11.58,0,0,0,14.75.7l-.67.22a8.78,8.78,0,0,1-3.86.6A8.77,8.77,0,0,1,8.38.84,5.93,5.93,0,0,0,4.81.06L4.27.21A5.49,5.49,0,0,0,2.32,1.7,7.93,7.93,0,0,0,.15,5c-.58,2.18.6,4.2,1.64,6l.44.77a15.9,15.9,0,0,1,1.54,5c.18.91.36,1.82.61,2.72S8,22.26,8,22.25c.34.08,2,.44,2.47.57A13.59,13.59,0,0,1,14,24.75a20,20,0,0,0,2.82,1.72,20.25,20.25,0,0,0,3,1,17.86,17.86,0,0,1,2.92,1,16.94,16.94,0,0,1,2.83,1.91l.45.34c3.13,2.41,6.5,4.51,9.75,6.54,9.05,5.65,18.35,11.46,28,16.51l3.23,1.67a104.6,104.6,0,0,1,13.16,7.62c.75.54,1.45,1.15,2.2,1.8a24,24,0,0,0,3.41,2.68,183.62,183.62,0,0,0,17.69,9.55A15.36,15.36,0,0,0,109.68,79h.22a3.6,3.6,0,0,0,2.71-1.19l.42-1.18A2.9,2.9,0,0,0,111.92,74.33ZM21.24,4.53l.87.81a25.93,25.93,0,0,0,4.6,3.18l12.43,7.24c10.3,6,22.13,13.16,32.23,22,2.18,1.92,4.41,3.79,6.65,5.66l.18.15c4.09,3.42,8.32,6.95,12.17,10.75l7.17,7.07a54.78,54.78,0,0,1,5,5.48s1.94,2.53,3.25,4.15.07,1.49-.32,1.15S22.15,15,16.4,11.71L15,10.93l1-1.2a43.53,43.53,0,0,1,4.31-4.41ZM7.92,20.36a5.36,5.36,0,0,1-2.53-3.95,17.56,17.56,0,0,0-1.71-5.47l-.47-.81c-1-1.65-1.87-3.2-1.47-4.73A6.68,6.68,0,0,1,3.51,2.83,4,4,0,0,1,4.86,1.75l.63-.11a5.91,5.91,0,0,1,2.22.7,10.31,10.31,0,0,0,2.2.8,9.77,9.77,0,0,0,4.68-.66l.63-.2c.39-.12.78-.22,1.16-.3a5.49,5.49,0,0,1,2.21,0l2.35.63L19.12,4.22A40,40,0,0,0,8.43,19.06ZM108.13,77.64c-2.06-.75-8.33-4.06-8.33-4.06-4.54-2.27-9-4.75-13.27-7.37a23.25,23.25,0,0,1-3.06-2.41c-.82-.71-1.6-1.41-2.44-2a105.86,105.86,0,0,0-13.37-7.74l-3.22-1.67c-9.55-5-18.82-10.81-27.79-16.41-3.25-2-6.59-4.11-9.68-6.48l-.43-.34a19.89,19.89,0,0,0-3.11-2.09,19.59,19.59,0,0,0-3.19-1.13A18.6,18.6,0,0,1,17.46,25a21.48,21.48,0,0,1-2.58-1.58,14.54,14.54,0,0,0-3.94-2.15l-1.37-.42L10,19.49a36,36,0,0,1,3.33-6.2l.68-1,1.06.6c2.39,1.36,84.44,56.49,86.54,58.34s7.9,3.61,7.9,3.61,1.58.24,1.87,1.19S109.58,78.16,108.13,77.64Z"/></g></g></svg>