<svg xmlns="http://www.w3.org/2000/svg" viewBox="0 0 71.94 119.93"><defs><style>.cls-1{fill:none;}.cls-2{fill:#455e2b;}</style></defs><g id="Capa_2" data-name="Capa 2"><g id="Icons"><path class="cls-1" d="M30.73,42A59.42,59.42,0,0,0,18.91,25.92a2.14,2.14,0,0,1-.68-1.48,2.12,2.12,0,0,1,2-2.21,2,2,0,0,1,1.52.56A61.67,61.67,0,0,1,33.71,38.51a37.2,37.2,0,0,0,.62-4.31c.49-6.36.5-15.48-5-21.11S14.85,3.79,4.94,3.31c-.05.17-.1.38-.16.64a47.74,47.74,0,0,0-1.26,7.3c-.65,8.31.57,14.4,3.93,19.76C14.11,39.15,24.54,41.4,30.73,42Z"/><path class="cls-1" d="M23.83,101.18a19.66,19.66,0,0,1,6-3.08c7.58-2.53,19.42-2.31,26.7,3,5.61-5,8.34-9.48,8.34-13.82,0-16.68-17.16-18.48-24.54-18.48-3.25,0-10.63.43-16.48,3.85h0a2.12,2.12,0,0,1,1.52,3.61A12.58,12.58,0,0,0,22,83a2.1,2.1,0,0,1-1.67,1.71,2.11,2.11,0,0,1,1,1.76V88a2.13,2.13,0,0,1-4.25,0V86.43a2.09,2.09,0,0,1,1.66-2,2.13,2.13,0,0,1-.93-2.12,16.75,16.75,0,0,1,3.64-7.91c-3.38,2.77-5.83,6.9-5.83,13.1C15.59,93.16,20.2,98,23.83,101.18Z"/><path class="cls-1" d="M45.48,40.55A71,71,0,0,1,51,31.87,2.12,2.12,0,0,1,52.69,31a2.17,2.17,0,0,1,1.25.41,2.13,2.13,0,0,1,.85,1.4,2.17,2.17,0,0,1-.39,1.58,66.34,66.34,0,0,0-6,9.72c5.21-.3,13.56-1.76,17.12-7.69,2.49-4.16,3.51-9.21,3-15-.09-1.1-.22-2.37-.44-3.65-5.81,0-13.63,1.24-18.82,6.75-2.88,4-4.18,8.93-3.86,14.72C45.42,39.69,45.45,40.13,45.48,40.55Z"/><path class="cls-1" d="M31.15,102.13a17.13,17.13,0,0,0-4,1.83c1.09.86,2.19,1.69,3.24,2.49l2.18,1.67a81.48,81.48,0,0,1,7.55,6.68,32.49,32.49,0,0,1,6.54-6.22l.22-.15c1.7-1.2,4-2.8,6.15-4.49C47.52,100.55,38.27,99.76,31.15,102.13Z"/><path class="cls-2" d="M5,33.11c5.84,7.28,16.13,11.78,28.21,12.29l.32,0,.13.29c3.05,6.88,4.81,13.63,4.83,18.53a1,1,0,0,0,.22.6l.56.78-1,0c-16.24.64-25.94,8.79-25.94,21.81,0,9.31,8.93,16.09,16.1,21.55l2.16,1.65a78.28,78.28,0,0,1,8.93,8.16l1,1.1.76-1.25a28.74,28.74,0,0,1,7.23-7.46l.21-.15c8.15-5.75,19.3-13.6,19.3-23.77,0-13-9.67-21.07-25.87-21.65l-1,0,.56-.78A1,1,0,0,0,42,64.3a53.5,53.5,0,0,1,3.63-16.55l.13-.33h.55c7.91,0,15-2.39,19.82-6.75,6.52-5.84,6.63-17.29,4.74-25.32a1.1,1.1,0,0,0-1.08-.79c-9.47-.53-17.86,2.3-22.93,7.78l-.08.15a.7.7,0,0,1-.18.18c-4.4,5.88-5.69,14.62-3.5,23.93a.79.79,0,0,0,.21.37l.2.23-.12.29a54.36,54.36,0,0,0-2.64,9.4l-.46,2.48-.55-2.46a65.33,65.33,0,0,0-4.1-12.17l-.08-.18.06-.18c3.07-10,4-23.61-2.75-32C26.75,4.74,16,.23,3.34,0h0a1.11,1.11,0,0,0-1,.82c-3.76,12-2.86,23.61,2.45,32Zm43.45-9.22,0-.05C54,18,62.17,16.74,68.2,16.74h.74l.08.42a41.75,41.75,0,0,1,.53,4.17c.52,6-.55,11.27-3.16,15.63-4,6.68-13.52,8-18.83,8.23l-.86,0,.37-.77a66.35,66.35,0,0,1,6.5-10.67,1.14,1.14,0,0,0,.2-.82,1.08,1.08,0,0,0-.44-.71,1.09,1.09,0,0,0-1.53.23,69.22,69.22,0,0,0-6.2,10.11l-.78,1.56-.2-1.74c-.11-1-.19-2-.25-3.11C44,33.25,45.4,28.07,48.45,23.89Zm5.82,80.42c-2.37,1.87-4.91,3.66-6.76,5h0l-.22.15a31.07,31.07,0,0,0-6.67,6.47l-.36.47-.42-.42a79.64,79.64,0,0,0-7.86-7c-.68-.53-1.39-1.07-2.12-1.62-1.29-1-2.58-2-3.86-3l-.53-.42.55-.4a17.32,17.32,0,0,1,4.82-2.36c7.65-2.55,17.72-1.55,23.42,2.33l.58.39Zm-14-36.52c7.69,0,25.57,1.9,25.57,19.51,0,4.74-3,9.61-9,14.87l-.32.28-.34-.26c-7-5.35-18.63-5.6-26.08-3.11a18.59,18.59,0,0,0-6,3.17l-.34.27-.33-.28c-3.83-3.33-8.91-8.48-8.91-14.77C14.56,69.21,34.26,67.79,40.3,67.79ZM2.49,11.17A49.2,49.2,0,0,1,3.77,3.71c.12-.5.22-.83.3-1.1l.12-.37.39,0C10.65,2.5,22,4.14,30.06,12.36c5.8,5.94,5.8,15.36,5.3,21.92a43.53,43.53,0,0,1-.92,5.84l-.3,1.39-.67-1.26a61.68,61.68,0,0,0-12.38-16.7,1.16,1.16,0,0,0-.78-.29,1.09,1.09,0,0,0-.76.35,1.1,1.1,0,0,0,.06,1.55c5.85,5.38,10,12.32,12.46,17.19l.41.81-.91-.06c-6.19-.47-17.67-2.58-25-11.49C3.09,26,1.83,19.72,2.49,11.17Z"/><path class="cls-2" d="M19.7,83.7h0A1.07,1.07,0,0,0,21,82.8a13.59,13.59,0,0,1,3.65-7.24,1.11,1.11,0,0,0,.31-.78,1.14,1.14,0,0,0-.34-.77,1.07,1.07,0,0,0-.76-.31h0A1.1,1.1,0,0,0,23,74a15.74,15.74,0,0,0-4.24,8.41A1.09,1.09,0,0,0,19.7,83.7Z"/><path class="cls-2" d="M18.08,86.43V88a1.1,1.1,0,0,0,2.19,0V86.43a1.1,1.1,0,1,0-2.19,0Z"/></g></g></svg>